<svg width="100" height="100" viewBox="0 0 100 100" fill="none" xmlns="http://www.w3.org/2000/svg">
<mask id="mask0_366_9798" style="mask-type:alpha" maskUnits="userSpaceOnUse" x="0" y="0" width="100" height="100">
<circle cx="50" cy="50" r="50" fill="white"/>
</mask>
<g mask="url(#mask0_366_9798)">
<mask id="mask1_366_9798" style="mask-type:alpha" maskUnits="userSpaceOnUse" x="0" y="0" width="100" height="100">
<circle cx="50" cy="50" r="50" fill="white"/>
</mask>
<g mask="url(#mask1_366_9798)">
<rect x="-22.9167" y="-22.9167" width="145.833" height="145.833" fill="url(#paint0_linear_366_9798)"/>
<rect x="-22.9167" y="-22.9167" width="145.833" height="145.833" fill="url(#paint1_linear_366_9798)" fill-opacity="0.6" style="mix-blend-mode:overlay"/>
<rect x="-22.9167" y="-22.9167" width="145.833" height="145.833" fill="url(#paint2_radial_366_9798)" fill-opacity="0.6" style="mix-blend-mode:overlay"/>
<rect x="-22.9167" y="-22.9167" width="145.833" height="145.833" fill="black" fill-opacity="0.16" style="mix-blend-mode:overlay"/>
<rect x="-22.9167" y="-22.9167" width="145.833" height="145.833" fill="black" fill-opacity="0.12" style="mix-blend-mode:darken"/>
</g>
<g filter="url(#filter0_d_366_9798)">
<mask id="mask2_366_9798" style="mask-type:alpha" maskUnits="userSpaceOnUse" x="0" y="0" width="100" height="100">
<path fill-rule="evenodd" clip-rule="evenodd" d="M95.8333 50C95.8333 75.313 75.313 95.8333 50 95.8333C24.6869 95.8333 4.16667 75.313 4.16667 50C4.16667 24.6869 24.6869 4.16667 50 4.16667C75.313 4.16667 95.8333 24.6869 95.8333 50ZM100 50C100 77.6142 77.6142 100 50 100C22.3858 100 0 77.6142 0 50C0 22.3858 22.3858 0 50 0C77.6142 0 100 22.3858 100 50ZM50 88.0208C70.9983 88.0208 88.0208 70.9983 88.0208 50C88.0208 29.0017 70.9983 11.9792 50 11.9792C29.0017 11.9792 11.9792 29.0017 11.9792 50C11.9792 70.9983 29.0017 88.0208 50 88.0208Z" fill="white"/>
</mask>
<g mask="url(#mask2_366_9798)">
<rect x="-22.9167" y="-22.9167" width="145.833" height="145.833" fill="url(#paint3_linear_366_9798)"/>
<rect x="-22.9167" y="-22.9167" width="145.833" height="145.833" fill="url(#paint4_linear_366_9798)" fill-opacity="0.6" style="mix-blend-mode:overlay"/>
<rect x="-22.9167" y="-22.9167" width="145.833" height="145.833" fill="url(#paint5_radial_366_9798)" fill-opacity="0.6" style="mix-blend-mode:overlay"/>
<g style="mix-blend-mode:soft-light">
<path fill-rule="evenodd" clip-rule="evenodd" d="M-22.9167 -22.9167H64.5833L36.6578 122.917H-22.9167V-22.9167Z" fill="url(#paint6_linear_366_9798)" style="mix-blend-mode:lighten"/>
</g>
<g style="mix-blend-mode:soft-light">
<mask id="path-10-inside-1_366_9798" fill="white">
<path fill-rule="evenodd" clip-rule="evenodd" d="M95.8333 50C95.8333 75.313 75.313 95.8333 50 95.8333C24.6869 95.8333 4.16667 75.313 4.16667 50C4.16667 24.6869 24.6869 4.16667 50 4.16667C75.313 4.16667 95.8333 24.6869 95.8333 50ZM100 50C100 77.6142 77.6142 100 50 100C22.3858 100 0 77.6142 0 50C0 22.3858 22.3858 0 50 0C77.6142 0 100 22.3858 100 50ZM50 88.0208C70.9983 88.0208 88.0208 70.9983 88.0208 50C88.0208 29.0017 70.9983 11.9792 50 11.9792C29.0017 11.9792 11.9792 29.0017 11.9792 50C11.9792 70.9983 29.0017 88.0208 50 88.0208Z"/>
</mask>
<path d="M50 96.0938C75.4569 96.0938 96.0938 75.4569 96.0938 50H95.5729C95.5729 75.1692 75.1692 95.5729 50 95.5729V96.0938ZM3.90625 50C3.90625 75.4569 24.5431 96.0938 50 96.0938V95.5729C24.8308 95.5729 4.42708 75.1692 4.42708 50H3.90625ZM50 3.90625C24.5431 3.90625 3.90625 24.5431 3.90625 50H4.42708C4.42708 24.8308 24.8308 4.42708 50 4.42708V3.90625ZM96.0938 50C96.0938 24.5431 75.4569 3.90625 50 3.90625V4.42708C75.1692 4.42708 95.5729 24.8308 95.5729 50H96.0938ZM50 100.26C77.7581 100.26 100.26 77.7581 100.26 50H99.7396C99.7396 77.4704 77.4704 99.7396 50 99.7396V100.26ZM-0.260417 50C-0.260417 77.7581 22.2419 100.26 50 100.26V99.7396C22.5296 99.7396 0.260417 77.4704 0.260417 50H-0.260417ZM50 -0.260417C22.2419 -0.260417 -0.260417 22.2419 -0.260417 50H0.260417C0.260417 22.5296 22.5296 0.260417 50 0.260417V-0.260417ZM100.26 50C100.26 22.2419 77.7581 -0.260417 50 -0.260417V0.260417C77.4704 0.260417 99.7396 22.5296 99.7396 50H100.26ZM87.7604 50C87.7604 70.8545 70.8545 87.7604 50 87.7604V88.2812C71.1421 88.2812 88.2812 71.1421 88.2812 50H87.7604ZM50 12.2396C70.8545 12.2396 87.7604 29.1455 87.7604 50H88.2812C88.2812 28.8578 71.1421 11.7188 50 11.7188V12.2396ZM12.2396 50C12.2396 29.1455 29.1455 12.2396 50 12.2396V11.7188C28.8578 11.7188 11.7188 28.8578 11.7188 50H12.2396ZM50 87.7604C29.1455 87.7604 12.2396 70.8545 12.2396 50H11.7188C11.7188 71.1421 28.8578 88.2812 50 88.2812V87.7604Z" fill="url(#paint7_linear_366_9798)" mask="url(#path-10-inside-1_366_9798)"/>
</g>
</g>
</g>
</g>
<g filter="url(#filter1_d_366_9798)">
<mask id="path-12-outside-2_366_9798" maskUnits="userSpaceOnUse" x="27.3333" y="36.3333" width="46" height="27" fill="black">
<rect fill="white" x="27.3333" y="36.3333" width="46" height="27"/>
<path d="M41.0772 53.2333C40.5216 53.2333 40.2439 52.9556 40.2439 52.4V49C40.2439 48.4444 40.5216 48.1667 41.0772 48.1667L50.3772 48.2333C50.955 48.2333 51.3883 48.3667 51.6772 48.6333C51.9883 48.9 52.1661 49.3778 52.2105 50.0667C52.2994 51.7556 52.0994 53.3556 51.6105 54.8667C51.1216 56.3778 50.3772 57.7 49.3772 58.8333C48.3772 59.9667 47.1216 60.8667 45.6105 61.5333C44.1216 62.2 42.4105 62.5333 40.4772 62.5333C38.6772 62.5333 37.0105 62.2222 35.4772 61.6C33.9661 60.9778 32.655 60.1111 31.5439 59C30.4328 57.8667 29.555 56.5222 28.9105 54.9667C28.2883 53.4111 27.9772 51.6889 27.9772 49.8C27.9772 47.9111 28.2883 46.1778 28.9105 44.6C29.5328 43 30.3883 41.6222 31.4772 40.4667C32.5883 39.2889 33.8772 38.3778 35.3439 37.7333C36.8328 37.0667 38.4328 36.7333 40.1439 36.7333C42.4994 36.7333 44.5439 37.1778 46.2772 38.0667C48.0105 38.9333 49.3439 40.0556 50.2772 41.4333C50.4328 41.6555 50.5105 41.9 50.5105 42.1667C50.5105 42.4111 50.3883 42.6222 50.1439 42.8L47.0772 45.2C46.855 45.3778 46.5994 45.4778 46.3105 45.5C46.0216 45.5 45.7883 45.3667 45.6105 45.1C45.1439 44.4111 44.4883 43.8444 43.6439 43.4C42.8216 42.9556 41.7328 42.7333 40.3772 42.7333C39.4661 42.7333 38.6216 42.9111 37.8439 43.2667C37.0661 43.6222 36.3772 44.1333 35.7772 44.8C35.1994 45.4444 34.7439 46.2222 34.4105 47.1333C34.0772 48.0444 33.9105 49.0444 33.9105 50.1333C33.9105 51.2444 34.0883 52.2444 34.4439 53.1333C34.7994 54.0222 35.2883 54.7778 35.9105 55.4C36.5328 56.0222 37.255 56.5111 38.0772 56.8667C38.8994 57.2 39.7772 57.3667 40.7105 57.3667C41.555 57.3667 42.3216 57.2556 43.0105 57.0333C43.6994 56.8111 44.2994 56.5111 44.8105 56.1333C45.3439 55.7333 45.7772 55.2889 46.1105 54.8C46.4439 54.2889 46.6883 53.7444 46.8439 53.1667L41.0772 53.2333ZM56.1389 56.2333C56.5611 55.6556 57.0278 55.5667 57.5389 55.9667C57.85 56.2111 58.2167 56.4333 58.6389 56.6333C59.0611 56.8333 59.5167 57.0111 60.0056 57.1667C60.4945 57.3 60.9945 57.4111 61.5056 57.5C62.0389 57.5889 62.5611 57.6333 63.0722 57.6333C63.6722 57.6333 64.2389 57.5667 64.7722 57.4333C65.3056 57.3 65.7611 57.1111 66.1389 56.8667C66.5389 56.6222 66.85 56.3222 67.0722 55.9667C67.2945 55.5889 67.3945 55.1778 67.3722 54.7333C67.3278 53.8667 66.9056 53.1889 66.1056 52.7C65.3056 52.2111 64.2945 51.9333 63.0722 51.8667C62.1389 51.8222 61.1722 51.9444 60.1722 52.2333C59.1945 52.5222 58.2389 52.8222 57.3056 53.1333C56.6389 53.3778 56.0611 53.3444 55.5722 53.0333C55.0834 52.7 54.8278 52.2 54.8056 51.5333L54.6056 39.6C54.5834 38.8222 54.7945 38.2444 55.2389 37.8667C55.6834 37.4667 56.25 37.2667 56.9389 37.2667L71.2389 37.2C71.5945 37.2 71.8722 37.3111 72.0722 37.5333C72.2945 37.7333 72.4056 38.0111 72.4056 38.3667V41.1C72.4056 41.4555 72.2945 41.7444 72.0722 41.9667C71.8722 42.1667 71.5945 42.2667 71.2389 42.2667L60.6389 42.4333V47.5667C61.3056 47.3444 62.05 47.2111 62.8722 47.1667C63.6945 47.1222 64.5389 47.1556 65.4056 47.2667C66.5389 47.4 67.5611 47.6778 68.4722 48.1C69.4056 48.5 70.1945 49.0222 70.8389 49.6667C71.5056 50.2889 72.0056 51.0222 72.3389 51.8667C72.6945 52.6889 72.8722 53.6 72.8722 54.6C72.8722 55.8444 72.6278 56.9667 72.1389 57.9667C71.65 58.9444 70.9722 59.7778 70.1056 60.4667C69.2389 61.1556 68.2167 61.6778 67.0389 62.0333C65.8611 62.3889 64.5834 62.5556 63.2056 62.5333C61.5389 62.4889 60.0056 62.1889 58.6056 61.6333C57.2056 61.1 56.0056 60.3667 55.0056 59.4333C54.8056 59.2556 54.6722 59.0556 54.6056 58.8333C54.5389 58.6111 54.5945 58.3667 54.7722 58.1L56.1389 56.2333Z"/>
</mask>
<path d="M41.0772 53.2333C40.5216 53.2333 40.2439 52.9556 40.2439 52.4V49C40.2439 48.4444 40.5216 48.1667 41.0772 48.1667L50.3772 48.2333C50.955 48.2333 51.3883 48.3667 51.6772 48.6333C51.9883 48.9 52.1661 49.3778 52.2105 50.0667C52.2994 51.7556 52.0994 53.3556 51.6105 54.8667C51.1216 56.3778 50.3772 57.7 49.3772 58.8333C48.3772 59.9667 47.1216 60.8667 45.6105 61.5333C44.1216 62.2 42.4105 62.5333 40.4772 62.5333C38.6772 62.5333 37.0105 62.2222 35.4772 61.6C33.9661 60.9778 32.655 60.1111 31.5439 59C30.4328 57.8667 29.555 56.5222 28.9105 54.9667C28.2883 53.4111 27.9772 51.6889 27.9772 49.8C27.9772 47.9111 28.2883 46.1778 28.9105 44.6C29.5328 43 30.3883 41.6222 31.4772 40.4667C32.5883 39.2889 33.8772 38.3778 35.3439 37.7333C36.8328 37.0667 38.4328 36.7333 40.1439 36.7333C42.4994 36.7333 44.5439 37.1778 46.2772 38.0667C48.0105 38.9333 49.3439 40.0556 50.2772 41.4333C50.4328 41.6555 50.5105 41.9 50.5105 42.1667C50.5105 42.4111 50.3883 42.6222 50.1439 42.8L47.0772 45.2C46.855 45.3778 46.5994 45.4778 46.3105 45.5C46.0216 45.5 45.7883 45.3667 45.6105 45.1C45.1439 44.4111 44.4883 43.8444 43.6439 43.4C42.8216 42.9556 41.7328 42.7333 40.3772 42.7333C39.4661 42.7333 38.6216 42.9111 37.8439 43.2667C37.0661 43.6222 36.3772 44.1333 35.7772 44.8C35.1994 45.4444 34.7439 46.2222 34.4105 47.1333C34.0772 48.0444 33.9105 49.0444 33.9105 50.1333C33.9105 51.2444 34.0883 52.2444 34.4439 53.1333C34.7994 54.0222 35.2883 54.7778 35.9105 55.4C36.5328 56.0222 37.255 56.5111 38.0772 56.8667C38.8994 57.2 39.7772 57.3667 40.7105 57.3667C41.555 57.3667 42.3216 57.2556 43.0105 57.0333C43.6994 56.8111 44.2994 56.5111 44.8105 56.1333C45.3439 55.7333 45.7772 55.2889 46.1105 54.8C46.4439 54.2889 46.6883 53.7444 46.8439 53.1667L41.0772 53.2333ZM56.1389 56.2333C56.5611 55.6556 57.0278 55.5667 57.5389 55.9667C57.85 56.2111 58.2167 56.4333 58.6389 56.6333C59.0611 56.8333 59.5167 57.0111 60.0056 57.1667C60.4945 57.3 60.9945 57.4111 61.5056 57.5C62.0389 57.5889 62.5611 57.6333 63.0722 57.6333C63.6722 57.6333 64.2389 57.5667 64.7722 57.4333C65.3056 57.3 65.7611 57.1111 66.1389 56.8667C66.5389 56.6222 66.85 56.3222 67.0722 55.9667C67.2945 55.5889 67.3945 55.1778 67.3722 54.7333C67.3278 53.8667 66.9056 53.1889 66.1056 52.7C65.3056 52.2111 64.2945 51.9333 63.0722 51.8667C62.1389 51.8222 61.1722 51.9444 60.1722 52.2333C59.1945 52.5222 58.2389 52.8222 57.3056 53.1333C56.6389 53.3778 56.0611 53.3444 55.5722 53.0333C55.0834 52.7 54.8278 52.2 54.8056 51.5333L54.6056 39.6C54.5834 38.8222 54.7945 38.2444 55.2389 37.8667C55.6834 37.4667 56.25 37.2667 56.9389 37.2667L71.2389 37.2C71.5945 37.2 71.8722 37.3111 72.0722 37.5333C72.2945 37.7333 72.4056 38.0111 72.4056 38.3667V41.1C72.4056 41.4555 72.2945 41.7444 72.0722 41.9667C71.8722 42.1667 71.5945 42.2667 71.2389 42.2667L60.6389 42.4333V47.5667C61.3056 47.3444 62.05 47.2111 62.8722 47.1667C63.6945 47.1222 64.5389 47.1556 65.4056 47.2667C66.5389 47.4 67.5611 47.6778 68.4722 48.1C69.4056 48.5 70.1945 49.0222 70.8389 49.6667C71.5056 50.2889 72.0056 51.0222 72.3389 51.8667C72.6945 52.6889 72.8722 53.6 72.8722 54.6C72.8722 55.8444 72.6278 56.9667 72.1389 57.9667C71.65 58.9444 70.9722 59.7778 70.1056 60.4667C69.2389 61.1556 68.2167 61.6778 67.0389 62.0333C65.8611 62.3889 64.5834 62.5556 63.2056 62.5333C61.5389 62.4889 60.0056 62.1889 58.6056 61.6333C57.2056 61.1 56.0056 60.3667 55.0056 59.4333C54.8056 59.2556 54.6722 59.0556 54.6056 58.8333C54.5389 58.6111 54.5945 58.3667 54.7722 58.1L56.1389 56.2333Z" fill="white"/>
<path d="M41.0772 53.2333V53.4938L41.0802 53.4937L41.0772 53.2333ZM41.0772 48.1667L41.0791 47.9062H41.0772V48.1667ZM50.3772 48.2333L50.3753 48.4937H50.3772V48.2333ZM51.6772 48.6333L51.5004 48.8248L51.5077 48.8311L51.6772 48.6333ZM52.2105 50.0667L52.4706 50.053L52.4704 50.0499L52.2105 50.0667ZM51.6105 54.8667L51.3628 54.7865L51.6105 54.8667ZM49.3772 58.8333L49.1819 58.661L49.3772 58.8333ZM45.6105 61.5333L45.5054 61.2951L45.5041 61.2957L45.6105 61.5333ZM35.4772 61.6L35.378 61.8408L35.3793 61.8413L35.4772 61.6ZM31.5439 59L31.3579 59.1823L31.3597 59.1841L31.5439 59ZM28.9105 54.9667L28.6687 55.0634L28.6699 55.0663L28.9105 54.9667ZM28.9105 44.6L29.1528 44.6955L29.1532 44.6944L28.9105 44.6ZM31.4772 40.4667L31.2878 40.288L31.2877 40.2881L31.4772 40.4667ZM35.3439 37.7333L35.4486 37.9718L35.4503 37.971L35.3439 37.7333ZM46.2772 38.0667L46.1584 38.2984L46.1607 38.2996L46.2772 38.0667ZM50.2772 41.4333L50.0616 41.5794L50.0639 41.5827L50.2772 41.4333ZM50.1439 42.8L49.9906 42.5893L49.9834 42.5949L50.1439 42.8ZM47.0772 45.2L46.9167 44.9949L46.9145 44.9966L47.0772 45.2ZM46.3105 45.5V45.7604H46.3205L46.3305 45.7596L46.3105 45.5ZM45.6105 45.1L45.8272 44.9555L45.8261 44.9539L45.6105 45.1ZM43.6439 43.4L43.52 43.6291L43.5226 43.6304L43.6439 43.4ZM37.8439 43.2667L37.7356 43.0298L37.8439 43.2667ZM35.7772 44.8L35.5836 44.6258L35.5833 44.6262L35.7772 44.8ZM34.4105 47.1333L34.166 47.0439L34.4105 47.1333ZM34.4439 53.1333L34.6857 53.0366L34.4439 53.1333ZM35.9105 55.4L36.0947 55.2159L35.9105 55.4ZM38.0772 56.8667L37.9738 57.1058L37.9794 57.108L38.0772 56.8667ZM43.0105 57.0333L43.0905 57.2812L43.0105 57.0333ZM44.8105 56.1333L44.9653 56.3428L44.9668 56.3417L44.8105 56.1333ZM46.1105 54.8L46.3257 54.9467L46.3287 54.9423L46.1105 54.8ZM46.8439 53.1667L47.0953 53.2344L47.1847 52.9023L46.8409 52.9063L46.8439 53.1667ZM41.0772 52.9729C40.8396 52.9729 40.7092 52.9137 40.6363 52.8409C40.5635 52.768 40.5043 52.6376 40.5043 52.4H39.9834C39.9834 52.7179 40.0631 53.0042 40.2681 53.2091C40.473 53.4141 40.7593 53.4937 41.0772 53.4937V52.9729ZM40.5043 52.4V49H39.9834V52.4H40.5043ZM40.5043 49C40.5043 48.7624 40.5635 48.632 40.6363 48.5591C40.7092 48.4863 40.8396 48.4271 41.0772 48.4271V47.9062C40.7593 47.9062 40.473 47.9859 40.2681 48.1909C40.0631 48.3958 39.9834 48.6821 39.9834 49H40.5043ZM41.0753 48.4271L50.3753 48.4937L50.3791 47.9729L41.0791 47.9063L41.0753 48.4271ZM50.3772 48.4937C50.9198 48.4937 51.2782 48.6194 51.5006 48.8247L51.8538 48.442C51.4985 48.1139 50.9902 47.9729 50.3772 47.9729V48.4937ZM51.5077 48.8311C51.7389 49.0292 51.9078 49.4193 51.9507 50.0834L52.4704 50.0499C52.4244 49.3363 52.2378 48.7708 51.8467 48.4356L51.5077 48.8311ZM51.9505 50.0803C52.0378 51.7395 51.8412 53.3076 51.3628 54.7865L51.8583 54.9468C52.3576 53.4035 52.561 51.7716 52.4706 50.053L51.9505 50.0803ZM51.3628 54.7865C50.8843 56.2654 50.1571 57.5558 49.1819 58.661L49.5725 59.0056C50.5973 57.8442 51.359 56.4902 51.8583 54.9468L51.3628 54.7865ZM49.1819 58.661C48.2091 59.7636 46.9853 60.6422 45.5054 61.2951L45.7156 61.7716C47.258 61.0911 48.5453 60.1697 49.5725 59.0056L49.1819 58.661ZM45.5041 61.2957C44.0543 61.9448 42.3805 62.2729 40.4772 62.2729V62.7937C42.4405 62.7937 44.189 62.4552 45.7169 61.771L45.5041 61.2957ZM40.4772 62.2729C38.7078 62.2729 37.0747 61.9672 35.5751 61.3587L35.3793 61.8413C36.9463 62.4772 38.6466 62.7937 40.4772 62.7937V62.2729ZM35.5763 61.3592C34.0957 60.7495 32.8138 59.9017 31.728 58.8159L31.3597 59.1841C32.4961 60.3205 33.8364 61.206 35.378 61.8408L35.5763 61.3592ZM31.7298 58.8177C30.6434 57.7096 29.7836 56.3937 29.1511 54.867L28.6699 55.0663C29.3264 56.6508 30.2221 58.0238 31.3579 59.1823L31.7298 58.8177ZM29.1523 54.8699C28.5439 53.3488 28.2376 51.66 28.2376 49.8H27.7168C27.7168 51.7178 28.0327 53.4734 28.6687 55.0634L29.1523 54.8699ZM28.2376 49.8C28.2376 47.9401 28.5439 46.2396 29.1528 44.6955L28.6683 44.5045C28.0328 46.1159 27.7168 47.8821 27.7168 49.8H28.2376ZM29.1532 44.6944C29.7643 43.1231 30.6026 41.7745 31.6667 40.6453L31.2877 40.2881C30.174 41.4699 29.3012 42.8769 28.6678 44.5056L29.1532 44.6944ZM31.6666 40.6454C32.7541 39.4927 34.0142 38.602 35.4486 37.9717L35.2391 37.4949C33.7402 38.1535 32.4226 39.0851 31.2878 40.288L31.6666 40.6454ZM35.4503 37.971C36.9041 37.3201 38.4676 36.9937 40.1439 36.9937V36.4729C38.3979 36.4729 36.7614 36.8133 35.2374 37.4956L35.4503 37.971ZM40.1439 36.9937C42.4666 36.9937 44.4687 37.4319 46.1584 38.2984L46.396 37.8349C44.619 36.9236 42.5322 36.4729 40.1439 36.4729V36.9937ZM46.1607 38.2996C47.8607 39.1496 49.1572 40.2443 50.0616 41.5794L50.4928 41.2873C49.5306 39.8668 48.1603 38.7171 46.3937 37.8337L46.1607 38.2996ZM50.0639 41.5827C50.1893 41.7619 50.2501 41.9544 50.2501 42.1667H50.7709C50.7709 41.8456 50.6762 41.5492 50.4905 41.284L50.0639 41.5827ZM50.2501 42.1667C50.2501 42.3079 50.1856 42.4476 49.9907 42.5894L50.297 43.0106C50.591 42.7968 50.7709 42.5143 50.7709 42.1667H50.2501ZM49.9834 42.5949L46.9167 44.9949L47.2377 45.4051L50.3044 43.0051L49.9834 42.5949ZM46.9145 44.9966C46.7339 45.1411 46.5283 45.2221 46.2906 45.2403L46.3305 45.7596C46.6705 45.7335 46.976 45.6144 47.2399 45.4033L46.9145 44.9966ZM46.3105 45.2396C46.1194 45.2396 45.9629 45.1591 45.8272 44.9555L45.3938 45.2444C45.6137 45.5742 45.9239 45.7604 46.3105 45.7604V45.2396ZM45.8261 44.9539C45.3321 44.2247 44.6419 43.631 43.7652 43.1695L43.5226 43.6304C44.3347 44.0579 44.9556 44.5975 45.3949 45.246L45.8261 44.9539ZM43.7677 43.1709C42.8941 42.6987 41.7578 42.4729 40.3772 42.4729V42.9937C41.7077 42.9937 42.7491 43.2124 43.52 43.6291L43.7677 43.1709ZM40.3772 42.4729C39.4312 42.4729 38.5495 42.6577 37.7356 43.0298L37.9521 43.5035C38.6937 43.1645 39.501 42.9937 40.3772 42.9937V42.4729ZM37.7356 43.0298C36.9238 43.4009 36.2063 43.9339 35.5836 44.6258L35.9708 44.9742C36.5481 44.3327 37.2083 43.8435 37.9521 43.5035L37.7356 43.0298ZM35.5833 44.6262C34.9809 45.2981 34.5093 46.1054 34.166 47.0439L34.6551 47.2228C34.9784 46.339 35.4179 45.5908 35.9711 44.9738L35.5833 44.6262ZM34.166 47.0439C33.8209 47.9869 33.6501 49.0176 33.6501 50.1333H34.1709C34.1709 49.0713 34.3334 48.102 34.6551 47.2228L34.166 47.0439ZM33.6501 50.1333C33.6501 51.2723 33.8324 52.3059 34.2021 53.23L34.6857 53.0366C34.3442 52.183 34.1709 51.2166 34.1709 50.1333H33.6501ZM34.2021 53.23C34.5696 54.1488 35.0771 54.9349 35.7264 55.5841L36.0947 55.2159C35.4995 54.6207 35.0293 53.8957 34.6857 53.0366L34.2021 53.23ZM35.7264 55.5841C36.3723 56.23 37.122 56.7373 37.9738 57.1057L38.1806 56.6276C37.3879 56.2849 36.6932 55.8144 36.0947 55.2159L35.7264 55.5841ZM37.9794 57.108C38.8343 57.4546 39.7454 57.6271 40.7105 57.6271V57.1062C39.809 57.1062 38.9646 56.9454 38.175 56.6253L37.9794 57.108ZM40.7105 57.6271C41.5777 57.6271 42.3719 57.513 43.0905 57.2812L42.9306 56.7855C42.2714 56.9981 41.5322 57.1062 40.7105 57.1062V57.6271ZM43.0905 57.2812C43.8026 57.0515 44.4286 56.7395 44.9653 56.3427L44.6557 55.9239C44.1702 56.2828 43.5963 56.5707 42.9306 56.7855L43.0905 57.2812ZM44.9668 56.3417C45.5201 55.9266 45.9743 55.462 46.3257 54.9467L45.8954 54.6533C45.5801 55.1158 45.1676 55.54 44.6543 55.925L44.9668 56.3417ZM46.3287 54.9423C46.6767 54.4087 46.9325 53.8391 47.0953 53.2344L46.5924 53.099C46.4441 53.6498 46.2111 54.1691 45.8924 54.6577L46.3287 54.9423ZM46.8409 52.9063L41.0742 52.9729L41.0802 53.4937L46.8469 53.4271L46.8409 52.9063ZM56.1389 56.2333L56.349 56.3872L56.3492 56.387L56.1389 56.2333ZM57.5389 55.9667L57.6998 55.7619L57.6994 55.7616L57.5389 55.9667ZM58.6389 56.6333L58.7504 56.398L58.6389 56.6333ZM60.0056 57.1667L59.9266 57.415L59.9371 57.4179L60.0056 57.1667ZM61.5056 57.5L61.461 57.7566L61.4628 57.7569L61.5056 57.5ZM64.7722 57.4333L64.7091 57.1807L64.7722 57.4333ZM66.1389 56.8667L66.0031 56.6444L65.9974 56.648L66.1389 56.8667ZM67.0722 55.9667L67.2932 56.1047L67.2967 56.0987L67.0722 55.9667ZM67.3722 54.7333L67.6323 54.7203L67.6323 54.72L67.3722 54.7333ZM66.1056 52.7L65.9698 52.9222L66.1056 52.7ZM63.0722 51.8667L63.0864 51.6066L63.0846 51.6065L63.0722 51.8667ZM60.1722 52.2333L60.1 51.9831L60.0985 51.9836L60.1722 52.2333ZM57.3056 53.1333L57.2232 52.8862L57.2159 52.8888L57.3056 53.1333ZM55.5722 53.0333L55.4255 53.2486L55.4324 53.253L55.5722 53.0333ZM54.8056 51.5333L54.5452 51.5377L54.5453 51.542L54.8056 51.5333ZM54.6056 39.6L54.866 39.5956L54.8659 39.5926L54.6056 39.6ZM55.2389 37.8667L55.4076 38.0652L55.4131 38.0602L55.2389 37.8667ZM56.9389 37.2667V37.5271L56.9401 37.5271L56.9389 37.2667ZM71.2389 37.2V36.9396L71.2377 36.9396L71.2389 37.2ZM72.0722 37.5333L71.8787 37.7075L71.8878 37.7177L71.898 37.7269L72.0722 37.5333ZM71.2389 42.2667V42.0062L71.2348 42.0063L71.2389 42.2667ZM60.6389 42.4333L60.6348 42.1729L60.3785 42.177V42.4333H60.6389ZM60.6389 47.5667H60.3785V47.928L60.7213 47.8137L60.6389 47.5667ZM65.4056 47.2667L65.3725 47.525L65.3752 47.5253L65.4056 47.2667ZM68.4722 48.1L68.3627 48.3364L68.3697 48.3394L68.4722 48.1ZM70.8389 49.6667L70.6547 49.8509L70.6612 49.857L70.8389 49.6667ZM72.3389 51.8667L72.0966 51.9623L72.0999 51.97L72.3389 51.8667ZM72.1389 57.9667L72.3718 58.0831L72.3729 58.081L72.1389 57.9667ZM70.1056 60.4667L70.2676 60.6705L70.1056 60.4667ZM67.0389 62.0333L67.1142 62.2826L67.0389 62.0333ZM63.2056 62.5333L63.1986 62.7937L63.2014 62.7937L63.2056 62.5333ZM58.6056 61.6333L58.7016 61.3913L58.6983 61.39L58.6056 61.6333ZM55.0056 59.4333L55.1833 59.2429L55.1786 59.2387L55.0056 59.4333ZM54.6056 58.8333L54.3561 58.9082L54.6056 58.8333ZM54.7722 58.1L54.5619 57.946L54.5556 57.9555L54.7722 58.1ZM56.3492 56.387C56.5406 56.125 56.712 56.0162 56.8543 55.9891C56.9896 55.9634 57.1593 56.0003 57.3784 56.1717L57.6994 55.7616C57.4074 55.533 57.0882 55.4144 56.7569 55.4775C56.4325 55.5393 56.1595 55.7638 55.9287 56.0797L56.3492 56.387ZM57.378 56.1714C57.7069 56.4298 58.0907 56.6618 58.5274 56.8687L58.7504 56.398C58.3427 56.2048 57.9932 55.9924 57.6998 55.7619L57.378 56.1714ZM58.5274 56.8687C58.9612 57.0741 59.4277 57.2561 59.9266 57.4148L60.0845 56.9185C59.6057 56.7661 59.1611 56.5925 58.7504 56.398L58.5274 56.8687ZM59.9371 57.4179C60.434 57.5534 60.942 57.6663 61.461 57.7566L61.5502 57.2434C61.0469 57.1559 60.5549 57.0466 60.0741 56.9154L59.9371 57.4179ZM61.4628 57.7569C62.0094 57.848 62.546 57.8937 63.0722 57.8937V57.3729C62.5763 57.3729 62.0684 57.3298 61.5484 57.2431L61.4628 57.7569ZM63.0722 57.8937C63.6916 57.8937 64.2796 57.8249 64.8354 57.686L64.7091 57.1807C64.1982 57.3084 63.6529 57.3729 63.0722 57.3729V57.8937ZM64.8354 57.686C65.3906 57.5472 65.8739 57.3483 66.2804 57.0853L65.9974 56.648C65.6484 56.8739 65.2206 57.0528 64.7091 57.1807L64.8354 57.686ZM66.2747 57.0889C66.7051 56.8259 67.047 56.4984 67.2931 56.1047L66.8514 55.8286C66.653 56.146 66.3727 56.4186 66.0031 56.6445L66.2747 57.0889ZM67.2967 56.0987C67.5451 55.6764 67.6571 55.2147 67.6323 54.7203L67.1122 54.7463C67.1319 55.1408 67.0438 55.5014 66.8478 55.8346L67.2967 56.0987ZM67.6323 54.72C67.5831 53.7596 67.1078 53.0073 66.2414 52.4778L65.9698 52.9222C66.7034 53.3705 67.0725 53.9737 67.1122 54.7467L67.6323 54.72ZM66.2414 52.4778C65.3951 51.9606 64.339 51.675 63.0864 51.6066L63.0581 52.1267C64.25 52.1917 65.2161 52.4616 65.9698 52.9222L66.2414 52.4778ZM63.0846 51.6065C62.1197 51.5606 61.1243 51.6872 60.1 51.9831L60.2445 52.4835C61.2201 52.2017 62.1582 52.0838 63.0599 52.1268L63.0846 51.6065ZM60.0985 51.9836C59.1179 52.2733 58.1595 52.5742 57.2232 52.8863L57.3879 53.3804C58.3183 53.0702 59.271 52.7711 60.246 52.4831L60.0985 51.9836ZM57.2159 52.8888C56.6063 53.1123 56.117 53.0713 55.7121 52.8136L55.4324 53.253C56.0053 53.6176 56.6715 53.6432 57.3952 53.3778L57.2159 52.8888ZM55.7189 52.8182C55.3081 52.5381 55.0857 52.1205 55.0659 51.5247L54.5453 51.542C54.5699 52.2795 54.8586 52.8619 55.4255 53.2485L55.7189 52.8182ZM55.066 51.529L54.866 39.5956L54.3452 39.6044L54.5452 51.5377L55.066 51.529ZM54.8659 39.5926C54.8451 38.8655 55.042 38.3758 55.4076 38.0651L55.0703 37.6682C54.547 38.113 54.3216 38.7789 54.3453 39.6074L54.8659 39.5926ZM55.4131 38.0602C55.8025 37.7098 56.3039 37.5271 56.9389 37.5271V37.0062C56.1961 37.0062 55.5642 37.2236 55.0647 37.6731L55.4131 38.0602ZM56.9401 37.5271L71.2401 37.4604L71.2377 36.9396L56.9377 37.0062L56.9401 37.5271ZM71.2389 37.4604C71.5359 37.4604 71.7374 37.5506 71.8787 37.7075L72.2658 37.3591C72.0071 37.0716 71.653 36.9396 71.2389 36.9396V37.4604ZM71.898 37.7269C72.055 37.8681 72.1452 38.0697 72.1452 38.3667H72.666C72.666 37.9525 72.534 37.5985 72.2465 37.3398L71.898 37.7269ZM72.1452 38.3667V41.1H72.666V38.3667H72.1452ZM72.1452 41.1C72.1452 41.3964 72.0549 41.6157 71.8881 41.7825L72.2564 42.1508C72.534 41.8732 72.666 41.5147 72.666 41.1H72.1452ZM71.8881 41.7825C71.7488 41.9219 71.5441 42.0062 71.2389 42.0062V42.5271C71.6448 42.5271 71.9957 42.4115 72.2564 42.1508L71.8881 41.7825ZM71.2348 42.0063L60.6348 42.1729L60.643 42.6937L71.243 42.527L71.2348 42.0063ZM60.3785 42.4333V47.5667H60.8993V42.4333H60.3785ZM60.7213 47.8137C61.3624 47.6 62.0835 47.4701 62.8863 47.4267L62.8582 46.9066C62.0166 46.9521 61.2487 47.0889 60.5566 47.3196L60.7213 47.8137ZM62.8863 47.4267C63.6919 47.3832 64.5205 47.4157 65.3725 47.525L65.4387 47.0084C64.5573 46.8954 63.6971 46.8613 62.8582 46.9066L62.8863 47.4267ZM65.3752 47.5253C66.4848 47.6558 67.4798 47.9271 68.3628 48.3363L68.5817 47.8637C67.6425 47.4284 66.593 47.1441 65.436 47.008L65.3752 47.5253ZM68.3697 48.3394C69.276 48.7278 70.0363 49.2323 70.6548 49.8508L71.0231 49.4825C70.3527 48.8121 69.5351 48.2722 68.5748 47.8606L68.3697 48.3394ZM70.6612 49.857C71.2997 50.453 71.7776 51.154 72.0967 51.9623L72.5811 51.771C72.2335 50.8904 71.7114 50.1248 71.0166 49.4763L70.6612 49.857ZM72.0999 51.97C72.4398 52.756 72.6118 53.6314 72.6118 54.6H73.1327C73.1327 53.5686 72.9492 52.6218 72.5779 51.7633L72.0999 51.97ZM72.6118 54.6C72.6118 55.8095 72.3745 56.8919 71.905 57.8523L72.3729 58.081C72.8811 57.0414 73.1327 55.8794 73.1327 54.6H72.6118ZM71.906 57.8502C71.4343 58.7936 70.7809 59.5972 69.9435 60.2628L70.2676 60.6705C71.1636 59.9583 71.8658 59.0953 72.3718 58.0831L71.906 57.8502ZM69.9435 60.2628C69.1054 60.929 68.1134 61.4369 66.9637 61.784L67.1142 62.2826C68.32 61.9186 69.3724 61.3821 70.2676 60.6705L69.9435 60.2628ZM66.9637 61.784C65.8145 62.1309 64.5638 62.2948 63.2098 62.2729L63.2014 62.7937C64.6029 62.8163 65.9078 62.6468 67.1142 62.2826L66.9637 61.784ZM63.2125 62.273C61.5731 62.2293 60.0704 61.9344 58.7016 61.3913L58.5095 61.8754C59.9408 62.4433 61.5047 62.7485 63.1986 62.7937L63.2125 62.273ZM58.6983 61.39C57.3268 60.8675 56.1564 60.1512 55.1833 59.2429L54.8279 59.6237C55.8548 60.5821 57.0844 61.3325 58.5129 61.8767L58.6983 61.39ZM55.1786 59.2387C55.009 59.088 54.9058 58.9277 54.855 58.7585L54.3561 58.9082C54.4387 59.1834 54.6021 59.4231 54.8326 59.628L55.1786 59.2387ZM54.855 58.7585C54.8183 58.636 54.8369 58.4725 54.9889 58.2444L54.5556 57.9555C54.352 58.2609 54.2596 58.5862 54.3561 58.9082L54.855 58.7585ZM54.9824 58.2538L56.349 56.3872L55.9288 56.0795L54.5621 57.9462L54.9824 58.2538Z" fill="url(#paint8_linear_366_9798)" style="mix-blend-mode:color-burn" mask="url(#path-12-outside-2_366_9798)"/>
</g>
<defs>
<filter id="filter0_d_366_9798" x="-4.16667" y="-3.125" width="108.333" height="108.333" filterUnits="userSpaceOnUse" color-interpolation-filters="sRGB">
<feFlood flood-opacity="0" result="BackgroundImageFix"/>
<feColorMatrix in="SourceAlpha" type="matrix" values="0 0 0 0 0 0 0 0 0 0 0 0 0 0 0 0 0 0 127 0" result="hardAlpha"/>
<feOffset dy="1.04167"/>
<feGaussianBlur stdDeviation="2.08333"/>
<feColorMatrix type="matrix" values="0 0 0 0 0 0 0 0 0 0 0 0 0 0 0 0 0 0 0.16 0"/>
<feBlend mode="color-burn" in2="BackgroundImageFix" result="effect1_dropShadow_366_9798"/>
<feBlend mode="normal" in="SourceGraphic" in2="effect1_dropShadow_366_9798" result="shape"/>
</filter>
<filter id="filter1_d_366_9798" x="21.4668" y="31.2646" width="57.9159" height="38.8228" filterUnits="userSpaceOnUse" color-interpolation-filters="sRGB">
<feFlood flood-opacity="0" result="BackgroundImageFix"/>
<feColorMatrix in="SourceAlpha" type="matrix" values="0 0 0 0 0 0 0 0 0 0 0 0 0 0 0 0 0 0 127 0" result="hardAlpha"/>
<feOffset dy="1.04167"/>
<feGaussianBlur stdDeviation="3.125"/>
<feColorMatrix type="matrix" values="0 0 0 0 0 0 0 0 0 0 0 0 0 0 0 0 0 0 0.12 0"/>
<feBlend mode="plus-darker" in2="BackgroundImageFix" result="effect1_dropShadow_366_9798"/>
<feBlend mode="normal" in="SourceGraphic" in2="effect1_dropShadow_366_9798" result="shape"/>
</filter>
<linearGradient id="paint0_linear_366_9798" x1="122.917" y1="122.917" x2="-51.5238" y2="31.9277" gradientUnits="userSpaceOnUse">
<stop stop-color="#61B82B"/>
<stop offset="1" stop-color="#399500"/>
</linearGradient>
<linearGradient id="paint1_linear_366_9798" x1="50" y1="-6.39145" x2="50" y2="105.635" gradientUnits="userSpaceOnUse">
<stop stop-color="white"/>
<stop offset="1" stop-color="white" stop-opacity="0"/>
</linearGradient>
<radialGradient id="paint2_radial_366_9798" cx="0" cy="0" r="1" gradientUnits="userSpaceOnUse" gradientTransform="translate(50 25.7865) rotate(90) scale(73.89 56.0618)">
<stop stop-color="white"/>
<stop offset="1" stop-color="white" stop-opacity="0"/>
</radialGradient>
<linearGradient id="paint3_linear_366_9798" x1="122.917" y1="122.917" x2="-51.5238" y2="31.9277" gradientUnits="userSpaceOnUse">
<stop stop-color="#61B82B"/>
<stop offset="1" stop-color="#399500"/>
</linearGradient>
<linearGradient id="paint4_linear_366_9798" x1="50" y1="-6.39145" x2="50" y2="105.635" gradientUnits="userSpaceOnUse">
<stop stop-color="white"/>
<stop offset="1" stop-color="white" stop-opacity="0"/>
</linearGradient>
<radialGradient id="paint5_radial_366_9798" cx="0" cy="0" r="1" gradientUnits="userSpaceOnUse" gradientTransform="translate(50 25.7865) rotate(90) scale(73.89 56.0618)">
<stop stop-color="white"/>
<stop offset="1" stop-color="white" stop-opacity="0"/>
</radialGradient>
<linearGradient id="paint6_linear_366_9798" x1="-22.9167" y1="-22.9167" x2="-22.9167" y2="122.917" gradientUnits="userSpaceOnUse">
<stop offset="0.135095" stop-color="white"/>
<stop offset="0.877908" stop-color="white" stop-opacity="0.01"/>
</linearGradient>
<linearGradient id="paint7_linear_366_9798" x1="50" y1="0" x2="50" y2="100" gradientUnits="userSpaceOnUse">
<stop stop-color="white"/>
<stop offset="1" stop-color="#999999"/>
</linearGradient>
<linearGradient id="paint8_linear_366_9798" x1="50" y1="33.3333" x2="50" y2="66.3333" gradientUnits="userSpaceOnUse">
<stop stop-color="#DFDFDF"/>
<stop offset="1" stop-color="#A9A9A9"/>
</linearGradient>
</defs>
</svg>
