<svg width="100" height="100" viewBox="0 0 100 100" fill="none" xmlns="http://www.w3.org/2000/svg">
<mask id="mask0_366_9806" style="mask-type:alpha" maskUnits="userSpaceOnUse" x="0" y="0" width="100" height="100">
<circle cx="50" cy="50" r="50" fill="white"/>
</mask>
<g mask="url(#mask0_366_9806)">
<mask id="mask1_366_9806" style="mask-type:alpha" maskUnits="userSpaceOnUse" x="0" y="0" width="100" height="100">
<circle cx="50" cy="50" r="50" fill="white"/>
</mask>
<g mask="url(#mask1_366_9806)">
<rect x="-22.9167" y="-22.9167" width="145.833" height="145.833" fill="url(#paint0_linear_366_9806)"/>
<rect x="-22.9167" y="-22.9167" width="145.833" height="145.833" fill="url(#paint1_linear_366_9806)" fill-opacity="0.6" style="mix-blend-mode:overlay"/>
<rect x="-22.9167" y="-22.9167" width="145.833" height="145.833" fill="url(#paint2_radial_366_9806)" fill-opacity="0.6" style="mix-blend-mode:overlay"/>
<rect x="-22.9167" y="-22.9167" width="145.833" height="145.833" fill="black" fill-opacity="0.16" style="mix-blend-mode:overlay"/>
<rect x="-22.9167" y="-22.9167" width="145.833" height="145.833" fill="black" fill-opacity="0.12" style="mix-blend-mode:darken"/>
</g>
<g filter="url(#filter0_d_366_9806)">
<mask id="mask2_366_9806" style="mask-type:alpha" maskUnits="userSpaceOnUse" x="0" y="0" width="100" height="100">
<path fill-rule="evenodd" clip-rule="evenodd" d="M95.8333 50C95.8333 75.313 75.313 95.8333 50 95.8333C24.6869 95.8333 4.16667 75.313 4.16667 50C4.16667 24.6869 24.6869 4.16667 50 4.16667C75.313 4.16667 95.8333 24.6869 95.8333 50ZM100 50C100 77.6142 77.6142 100 50 100C22.3858 100 0 77.6142 0 50C0 22.3858 22.3858 0 50 0C77.6142 0 100 22.3858 100 50ZM50 88.0208C70.9983 88.0208 88.0208 70.9983 88.0208 50C88.0208 29.0017 70.9983 11.9792 50 11.9792C29.0017 11.9792 11.9792 29.0017 11.9792 50C11.9792 70.9983 29.0017 88.0208 50 88.0208Z" fill="white"/>
</mask>
<g mask="url(#mask2_366_9806)">
<rect x="-22.9167" y="-22.9167" width="145.833" height="145.833" fill="url(#paint3_linear_366_9806)"/>
<rect x="-22.9167" y="-22.9167" width="145.833" height="145.833" fill="url(#paint4_linear_366_9806)" fill-opacity="0.6" style="mix-blend-mode:overlay"/>
<rect x="-22.9167" y="-22.9167" width="145.833" height="145.833" fill="url(#paint5_radial_366_9806)" fill-opacity="0.6" style="mix-blend-mode:overlay"/>
<g style="mix-blend-mode:soft-light">
<path fill-rule="evenodd" clip-rule="evenodd" d="M-22.9167 -22.9167H64.5833L36.6578 122.917H-22.9167V-22.9167Z" fill="url(#paint6_linear_366_9806)" style="mix-blend-mode:lighten"/>
</g>
<g style="mix-blend-mode:soft-light">
<mask id="path-10-inside-1_366_9806" fill="white">
<path fill-rule="evenodd" clip-rule="evenodd" d="M95.8333 50C95.8333 75.313 75.313 95.8333 50 95.8333C24.6869 95.8333 4.16667 75.313 4.16667 50C4.16667 24.6869 24.6869 4.16667 50 4.16667C75.313 4.16667 95.8333 24.6869 95.8333 50ZM100 50C100 77.6142 77.6142 100 50 100C22.3858 100 0 77.6142 0 50C0 22.3858 22.3858 0 50 0C77.6142 0 100 22.3858 100 50ZM50 88.0208C70.9983 88.0208 88.0208 70.9983 88.0208 50C88.0208 29.0017 70.9983 11.9792 50 11.9792C29.0017 11.9792 11.9792 29.0017 11.9792 50C11.9792 70.9983 29.0017 88.0208 50 88.0208Z"/>
</mask>
<path d="M50 96.0938C75.4569 96.0938 96.0938 75.4569 96.0938 50H95.5729C95.5729 75.1692 75.1692 95.5729 50 95.5729V96.0938ZM3.90625 50C3.90625 75.4569 24.5431 96.0938 50 96.0938V95.5729C24.8308 95.5729 4.42708 75.1692 4.42708 50H3.90625ZM50 3.90625C24.5431 3.90625 3.90625 24.5431 3.90625 50H4.42708C4.42708 24.8308 24.8308 4.42708 50 4.42708V3.90625ZM96.0938 50C96.0938 24.5431 75.4569 3.90625 50 3.90625V4.42708C75.1692 4.42708 95.5729 24.8308 95.5729 50H96.0938ZM50 100.26C77.7581 100.26 100.26 77.7581 100.26 50H99.7396C99.7396 77.4704 77.4704 99.7396 50 99.7396V100.26ZM-0.260417 50C-0.260417 77.7581 22.2419 100.26 50 100.26V99.7396C22.5296 99.7396 0.260417 77.4704 0.260417 50H-0.260417ZM50 -0.260417C22.2419 -0.260417 -0.260417 22.2419 -0.260417 50H0.260417C0.260417 22.5296 22.5296 0.260417 50 0.260417V-0.260417ZM100.26 50C100.26 22.2419 77.7581 -0.260417 50 -0.260417V0.260417C77.4704 0.260417 99.7396 22.5296 99.7396 50H100.26ZM87.7604 50C87.7604 70.8545 70.8545 87.7604 50 87.7604V88.2812C71.1421 88.2812 88.2812 71.1421 88.2812 50H87.7604ZM50 12.2396C70.8545 12.2396 87.7604 29.1455 87.7604 50H88.2812C88.2812 28.8578 71.1421 11.7188 50 11.7188V12.2396ZM12.2396 50C12.2396 29.1455 29.1455 12.2396 50 12.2396V11.7188C28.8578 11.7188 11.7188 28.8578 11.7188 50H12.2396ZM50 87.7604C29.1455 87.7604 12.2396 70.8545 12.2396 50H11.7188C11.7188 71.1421 28.8578 88.2812 50 88.2812V87.7604Z" fill="url(#paint7_linear_366_9806)" mask="url(#path-10-inside-1_366_9806)"/>
</g>
</g>
</g>
</g>
<g filter="url(#filter1_d_366_9806)">
<mask id="path-12-outside-2_366_9806" maskUnits="userSpaceOnUse" x="32.3333" y="36.3333" width="37" height="27" fill="black">
<rect fill="white" x="32.3333" y="36.3333" width="37" height="27"/>
<path d="M34.0152 62.2C33.3485 62.2 33.0152 61.8666 33.0152 61.2L32.6485 39.6C32.6263 38.8222 32.8374 38.2444 33.2819 37.8666C33.7263 37.4666 34.293 37.2666 34.9819 37.2666L47.2819 37.2C47.6374 37.2 47.9152 37.3111 48.1152 37.5333C48.3374 37.7333 48.4485 38.0111 48.4485 38.3666V41.1C48.4485 41.4555 48.3374 41.7444 48.1152 41.9666C47.9152 42.1666 47.6374 42.2666 47.2819 42.2666L38.6819 42.4333L38.6152 47.2333L46.6152 47.3C46.9708 47.3 47.2485 47.4111 47.4485 47.6333C47.6708 47.8333 47.7819 48.1111 47.7819 48.4666V51C47.7819 51.3555 47.6708 51.6444 47.4485 51.8666C47.2485 52.0666 46.9708 52.1666 46.6152 52.1666L38.5485 52.3L38.4152 61.2C38.4152 61.8666 38.0819 62.2 37.4152 62.2H34.0152ZM52.1676 56.2333C52.5898 55.6555 53.0564 55.5666 53.5676 55.9666C53.8787 56.2111 54.2453 56.4333 54.6676 56.6333C55.0898 56.8333 55.5453 57.0111 56.0342 57.1666C56.5231 57.3 57.0231 57.4111 57.5342 57.5C58.0676 57.5889 58.5898 57.6333 59.1009 57.6333C59.7009 57.6333 60.2676 57.5666 60.8009 57.4333C61.3342 57.3 61.7898 57.1111 62.1676 56.8666C62.5676 56.6222 62.8787 56.3222 63.1009 55.9666C63.3231 55.5889 63.4231 55.1778 63.4009 54.7333C63.3564 53.8666 62.9342 53.1889 62.1342 52.7C61.3342 52.2111 60.3231 51.9333 59.1009 51.8666C58.1676 51.8222 57.2009 51.9444 56.2009 52.2333C55.2231 52.5222 54.2676 52.8222 53.3342 53.1333C52.6676 53.3778 52.0898 53.3444 51.6009 53.0333C51.112 52.7 50.8564 52.2 50.8342 51.5333L50.6342 39.6C50.612 38.8222 50.8231 38.2444 51.2676 37.8666C51.712 37.4666 52.2787 37.2666 52.9676 37.2666L67.2676 37.2C67.6231 37.2 67.9009 37.3111 68.1009 37.5333C68.3231 37.7333 68.4342 38.0111 68.4342 38.3666V41.1C68.4342 41.4555 68.3231 41.7444 68.1009 41.9666C67.9009 42.1666 67.6231 42.2666 67.2676 42.2666L56.6676 42.4333V47.5666C57.3342 47.3444 58.0787 47.2111 58.9009 47.1666C59.7231 47.1222 60.5676 47.1555 61.4342 47.2666C62.5676 47.4 63.5898 47.6778 64.5009 48.1C65.4342 48.5 66.2231 49.0222 66.8676 49.6666C67.5342 50.2889 68.0342 51.0222 68.3676 51.8666C68.7231 52.6889 68.9009 53.6 68.9009 54.6C68.9009 55.8444 68.6564 56.9666 68.1676 57.9666C67.6787 58.9444 67.0009 59.7778 66.1342 60.4666C65.2676 61.1555 64.2453 61.6778 63.0676 62.0333C61.8898 62.3889 60.612 62.5555 59.2342 62.5333C57.5676 62.4889 56.0342 62.1889 54.6342 61.6333C53.2342 61.1 52.0342 60.3666 51.0342 59.4333C50.8342 59.2555 50.7009 59.0555 50.6342 58.8333C50.5676 58.6111 50.6231 58.3666 50.8009 58.1L52.1676 56.2333Z"/>
</mask>
<path d="M34.0152 62.2C33.3485 62.2 33.0152 61.8666 33.0152 61.2L32.6485 39.6C32.6263 38.8222 32.8374 38.2444 33.2819 37.8666C33.7263 37.4666 34.293 37.2666 34.9819 37.2666L47.2819 37.2C47.6374 37.2 47.9152 37.3111 48.1152 37.5333C48.3374 37.7333 48.4485 38.0111 48.4485 38.3666V41.1C48.4485 41.4555 48.3374 41.7444 48.1152 41.9666C47.9152 42.1666 47.6374 42.2666 47.2819 42.2666L38.6819 42.4333L38.6152 47.2333L46.6152 47.3C46.9708 47.3 47.2485 47.4111 47.4485 47.6333C47.6708 47.8333 47.7819 48.1111 47.7819 48.4666V51C47.7819 51.3555 47.6708 51.6444 47.4485 51.8666C47.2485 52.0666 46.9708 52.1666 46.6152 52.1666L38.5485 52.3L38.4152 61.2C38.4152 61.8666 38.0819 62.2 37.4152 62.2H34.0152ZM52.1676 56.2333C52.5898 55.6555 53.0564 55.5666 53.5676 55.9666C53.8787 56.2111 54.2453 56.4333 54.6676 56.6333C55.0898 56.8333 55.5453 57.0111 56.0342 57.1666C56.5231 57.3 57.0231 57.4111 57.5342 57.5C58.0676 57.5889 58.5898 57.6333 59.1009 57.6333C59.7009 57.6333 60.2676 57.5666 60.8009 57.4333C61.3342 57.3 61.7898 57.1111 62.1676 56.8666C62.5676 56.6222 62.8787 56.3222 63.1009 55.9666C63.3231 55.5889 63.4231 55.1778 63.4009 54.7333C63.3564 53.8666 62.9342 53.1889 62.1342 52.7C61.3342 52.2111 60.3231 51.9333 59.1009 51.8666C58.1676 51.8222 57.2009 51.9444 56.2009 52.2333C55.2231 52.5222 54.2676 52.8222 53.3342 53.1333C52.6676 53.3778 52.0898 53.3444 51.6009 53.0333C51.112 52.7 50.8564 52.2 50.8342 51.5333L50.6342 39.6C50.612 38.8222 50.8231 38.2444 51.2676 37.8666C51.712 37.4666 52.2787 37.2666 52.9676 37.2666L67.2676 37.2C67.6231 37.2 67.9009 37.3111 68.1009 37.5333C68.3231 37.7333 68.4342 38.0111 68.4342 38.3666V41.1C68.4342 41.4555 68.3231 41.7444 68.1009 41.9666C67.9009 42.1666 67.6231 42.2666 67.2676 42.2666L56.6676 42.4333V47.5666C57.3342 47.3444 58.0787 47.2111 58.9009 47.1666C59.7231 47.1222 60.5676 47.1555 61.4342 47.2666C62.5676 47.4 63.5898 47.6778 64.5009 48.1C65.4342 48.5 66.2231 49.0222 66.8676 49.6666C67.5342 50.2889 68.0342 51.0222 68.3676 51.8666C68.7231 52.6889 68.9009 53.6 68.9009 54.6C68.9009 55.8444 68.6564 56.9666 68.1676 57.9666C67.6787 58.9444 67.0009 59.7778 66.1342 60.4666C65.2676 61.1555 64.2453 61.6778 63.0676 62.0333C61.8898 62.3889 60.612 62.5555 59.2342 62.5333C57.5676 62.4889 56.0342 62.1889 54.6342 61.6333C53.2342 61.1 52.0342 60.3666 51.0342 59.4333C50.8342 59.2555 50.7009 59.0555 50.6342 58.8333C50.5676 58.6111 50.6231 58.3666 50.8009 58.1L52.1676 56.2333Z" fill="white"/>
<path d="M33.0152 61.2H33.2757L33.2756 61.1956L33.0152 61.2ZM32.6485 39.6L32.9089 39.5956L32.9089 39.5925L32.6485 39.6ZM33.2819 37.8666L33.4506 38.0651L33.4561 38.0602L33.2819 37.8666ZM34.9819 37.2666V37.5271L34.9833 37.5271L34.9819 37.2666ZM47.2819 37.2V36.9396L47.2805 36.9396L47.2819 37.2ZM48.1152 37.5333L47.9216 37.7075L47.9308 37.7177L47.941 37.7269L48.1152 37.5333ZM48.1152 41.9666L48.2994 42.1508V42.1508L48.1152 41.9666ZM47.2819 42.2666V42.0062L47.2768 42.0063L47.2819 42.2666ZM38.6819 42.4333L38.6768 42.1729L38.425 42.1778L38.4215 42.4297L38.6819 42.4333ZM38.6152 47.2333L38.3548 47.2297L38.3512 47.4915L38.613 47.4937L38.6152 47.2333ZM46.6152 47.3L46.613 47.5604H46.6152V47.3ZM47.4485 47.6333L47.255 47.8075L47.2641 47.8177L47.2743 47.8269L47.4485 47.6333ZM47.4485 51.8666L47.2644 51.6825V51.6825L47.4485 51.8666ZM46.6152 52.1666V51.9062L46.6109 51.9063L46.6152 52.1666ZM38.5485 52.3L38.5442 52.0396L38.2919 52.0438L38.2882 52.2961L38.5485 52.3ZM38.4152 61.2L38.1548 61.1961V61.2H38.4152ZM34.0152 61.9396C33.722 61.9396 33.55 61.8664 33.4494 61.7658C33.3488 61.6652 33.2756 61.4932 33.2756 61.2H32.7548C32.7548 61.5735 32.8483 61.9014 33.0811 62.1341C33.3138 62.3669 33.6417 62.4604 34.0152 62.4604V61.9396ZM33.2756 61.1956L32.9089 39.5956L32.3882 39.6044L32.7548 61.2044L33.2756 61.1956ZM32.9089 39.5925C32.8881 38.8655 33.085 38.3758 33.4505 38.0651L33.1132 37.6682C32.5899 38.113 32.3646 38.7789 32.3882 39.6074L32.9089 39.5925ZM33.4561 38.0602C33.8455 37.7098 34.3469 37.5271 34.9819 37.5271V37.0062C34.2391 37.0062 33.6072 37.2235 33.1077 37.6731L33.4561 38.0602ZM34.9833 37.5271L47.2833 37.4604L47.2805 36.9396L34.9805 37.0062L34.9833 37.5271ZM47.2819 37.4604C47.5789 37.4604 47.7804 37.5506 47.9216 37.7075L48.3088 37.3591C48.05 37.0716 47.696 36.9396 47.2819 36.9396V37.4604ZM47.941 37.7269C48.098 37.8681 48.1881 38.0697 48.1881 38.3666H48.709C48.709 37.9525 48.5769 37.5985 48.2894 37.3397L47.941 37.7269ZM48.1881 38.3666V41.1H48.709V38.3666H48.1881ZM48.1881 41.1C48.1881 41.3964 48.0979 41.6157 47.9311 41.7825L48.2994 42.1508C48.577 41.8732 48.709 41.5147 48.709 41.1H48.1881ZM47.9311 41.7825C47.7917 41.9219 47.5871 42.0062 47.2819 42.0062V42.5271C47.6878 42.5271 48.0387 42.4114 48.2994 42.1508L47.9311 41.7825ZM47.2768 42.0063L38.6768 42.1729L38.6869 42.6937L47.2869 42.527L47.2768 42.0063ZM38.4215 42.4297L38.3548 47.2297L38.8756 47.2369L38.9423 42.4369L38.4215 42.4297ZM38.613 47.4937L46.613 47.5604L46.6174 47.0396L38.6174 46.9729L38.613 47.4937ZM46.6152 47.5604C46.9122 47.5604 47.1137 47.6506 47.255 47.8075L47.6421 47.4591C47.3834 47.1716 47.0293 47.0396 46.6152 47.0396V47.5604ZM47.2743 47.8269C47.4313 47.9681 47.5215 48.1697 47.5215 48.4666H48.0423C48.0423 48.0525 47.9103 47.6985 47.6228 47.4397L47.2743 47.8269ZM47.5215 48.4666V51H48.0423V48.4666H47.5215ZM47.5215 51C47.5215 51.2964 47.4312 51.5157 47.2644 51.6825L47.6327 52.0508C47.9103 51.7732 48.0423 51.4147 48.0423 51H47.5215ZM47.2644 51.6825C47.1251 51.8219 46.9204 51.9062 46.6152 51.9062V52.4271C47.0211 52.4271 47.372 52.3114 47.6327 52.0508L47.2644 51.6825ZM46.6109 51.9063L38.5442 52.0396L38.5529 52.5604L46.6195 52.427L46.6109 51.9063ZM38.2882 52.2961L38.1548 61.1961L38.6756 61.2039L38.8089 52.3039L38.2882 52.2961ZM38.1548 61.2C38.1548 61.4932 38.0817 61.6652 37.9811 61.7658C37.8805 61.8664 37.7084 61.9396 37.4152 61.9396V62.4604C37.7887 62.4604 38.1166 62.3669 38.3494 62.1341C38.5821 61.9014 38.6756 61.5735 38.6756 61.2H38.1548ZM37.4152 61.9396H34.0152V62.4604H37.4152V61.9396ZM52.1676 56.2333L52.3777 56.3872L52.3778 56.387L52.1676 56.2333ZM53.5676 55.9666L53.7285 55.7619L53.7281 55.7616L53.5676 55.9666ZM54.6676 56.6333L54.779 56.398L54.6676 56.6333ZM56.0342 57.1666L55.9552 57.415L55.9657 57.4179L56.0342 57.1666ZM57.5342 57.5L57.4896 57.7566L57.4914 57.7569L57.5342 57.5ZM60.8009 57.4333L60.7377 57.1807L60.8009 57.4333ZM62.1676 56.8666L62.0317 56.6444L62.0261 56.648L62.1676 56.8666ZM63.1009 55.9666L63.3218 56.1047L63.3254 56.0987L63.1009 55.9666ZM63.4009 54.7333L63.661 54.7203L63.661 54.72L63.4009 54.7333ZM62.1342 52.7L61.9984 52.9222L62.1342 52.7ZM59.1009 51.8666L59.1151 51.6066L59.1133 51.6065L59.1009 51.8666ZM56.2009 52.2333L56.1286 51.9831L56.1271 51.9836L56.2009 52.2333ZM53.3342 53.1333L53.2518 52.8862L53.2446 52.8888L53.3342 53.1333ZM51.6009 53.0333L51.4541 53.2486L51.4611 53.253L51.6009 53.0333ZM50.8342 51.5333L50.5738 51.5377L50.574 51.542L50.8342 51.5333ZM50.6342 39.6L50.8946 39.5956L50.8945 39.5925L50.6342 39.6ZM51.2676 37.8666L51.4363 38.0651L51.4418 38.0602L51.2676 37.8666ZM52.9676 37.2666V37.5271L52.9688 37.5271L52.9676 37.2666ZM67.2676 37.2V36.9396L67.2663 36.9396L67.2676 37.2ZM68.1009 37.5333L67.9073 37.7075L67.9165 37.7177L67.9267 37.7269L68.1009 37.5333ZM67.2676 42.2666V42.0062L67.2635 42.0063L67.2676 42.2666ZM56.6676 42.4333L56.6635 42.1729L56.4071 42.177V42.4333H56.6676ZM56.6676 47.5666H56.4071V47.928L56.7499 47.8137L56.6676 47.5666ZM61.4342 47.2666L61.4011 47.525L61.4038 47.5253L61.4342 47.2666ZM64.5009 48.1L64.3913 48.3364L64.3983 48.3393L64.5009 48.1ZM66.8676 49.6666L66.6833 49.8509L66.6899 49.857L66.8676 49.6666ZM68.3676 51.8666L68.1252 51.9623L68.1285 51.97L68.3676 51.8666ZM68.1676 57.9666L68.4005 58.0831L68.4015 58.081L68.1676 57.9666ZM66.1342 60.4666L66.2963 60.6705L66.1342 60.4666ZM63.0676 62.0333L63.1428 62.2826L63.0676 62.0333ZM59.2342 62.5333L59.2273 62.7937L59.23 62.7937L59.2342 62.5333ZM54.6342 61.6333L54.7303 61.3912L54.7269 61.39L54.6342 61.6333ZM51.0342 59.4333L51.212 59.2429L51.2072 59.2387L51.0342 59.4333ZM50.6342 58.8333L50.3848 58.9081L50.6342 58.8333ZM50.8009 58.1L50.5906 57.946L50.5842 57.9555L50.8009 58.1ZM52.3778 56.387C52.5692 56.125 52.7407 56.0162 52.883 55.9891C53.0183 55.9634 53.188 56.0003 53.4071 56.1717L53.7281 55.7616C53.436 55.533 53.1169 55.4144 52.7855 55.4775C52.4611 55.5393 52.1881 55.7638 51.9573 56.0797L52.3778 56.387ZM53.4067 56.1714C53.7355 56.4298 54.1194 56.6618 54.5561 56.8687L54.779 56.398C54.3713 56.2048 54.0218 55.9924 53.7285 55.7619L53.4067 56.1714ZM54.5561 56.8687C54.9898 57.0741 55.4563 57.2561 55.9553 57.4148L56.1132 56.9185C55.6343 56.7661 55.1898 56.5925 54.779 56.398L54.5561 56.8687ZM55.9657 57.4179C56.4627 57.5534 56.9706 57.6663 57.4896 57.7565L57.5788 57.2434C57.0756 57.1559 56.5836 57.0465 56.1027 56.9154L55.9657 57.4179ZM57.4914 57.7569C58.0381 57.848 58.5746 57.8937 59.1009 57.8937V57.3729C58.6049 57.3729 58.097 57.3298 57.577 57.2431L57.4914 57.7569ZM59.1009 57.8937C59.7203 57.8937 60.3083 57.8249 60.8641 57.686L60.7377 57.1807C60.2268 57.3084 59.6815 57.3729 59.1009 57.3729V57.8937ZM60.8641 57.686C61.4192 57.5472 61.9025 57.3483 62.309 57.0853L62.0261 56.648C61.677 56.8739 61.2492 57.0528 60.7377 57.1807L60.8641 57.686ZM62.3034 57.0889C62.7337 56.8258 63.0757 56.4984 63.3217 56.1047L62.8801 55.8286C62.6817 56.146 62.4014 56.4186 62.0318 56.6444L62.3034 57.0889ZM63.3254 56.0987C63.5738 55.6764 63.6857 55.2147 63.661 54.7203L63.1408 54.7463C63.1605 55.1408 63.0725 55.5014 62.8764 55.8346L63.3254 56.0987ZM63.661 54.72C63.6117 53.7596 63.1364 53.0072 62.27 52.4778L61.9984 52.9222C62.732 53.3705 63.1012 53.9737 63.1408 54.7467L63.661 54.72ZM62.27 52.4778C61.4237 51.9606 60.3676 51.6749 59.1151 51.6066L59.0867 52.1267C60.2786 52.1917 61.2447 52.4616 61.9984 52.9222L62.27 52.4778ZM59.1133 51.6065C58.1483 51.5606 57.153 51.6872 56.1286 51.9831L56.2732 52.4835C57.2488 52.2017 58.1868 52.0838 59.0885 52.1268L59.1133 51.6065ZM56.1271 51.9836C55.1466 52.2733 54.1881 52.5742 53.2519 52.8863L53.4166 53.3804C54.347 53.0702 55.2997 52.7711 56.2747 52.4831L56.1271 51.9836ZM53.2446 52.8888C52.635 53.1123 52.1456 53.0713 51.7407 52.8136L51.4611 53.253C52.0339 53.6176 52.7001 53.6432 53.4239 53.3778L53.2446 52.8888ZM51.7476 52.8181C51.3368 52.5381 51.1144 52.1205 51.0945 51.5246L50.574 51.542C50.5985 52.2795 50.8872 52.8619 51.4542 53.2485L51.7476 52.8181ZM51.0946 51.5289L50.8946 39.5956L50.3738 39.6043L50.5738 51.5377L51.0946 51.5289ZM50.8945 39.5925C50.8738 38.8655 51.0706 38.3758 51.4362 38.0651L51.0989 37.6682C50.5756 38.113 50.3502 38.7789 50.3739 39.6074L50.8945 39.5925ZM51.4418 38.0602C51.8312 37.7098 52.3326 37.5271 52.9676 37.5271V37.0062C52.2248 37.0062 51.5928 37.2235 51.0933 37.6731L51.4418 38.0602ZM52.9688 37.5271L67.2688 37.4604L67.2663 36.9396L52.9663 37.0062L52.9688 37.5271ZM67.2676 37.4604C67.5645 37.4604 67.7661 37.5506 67.9073 37.7075L68.2945 37.3591C68.0357 37.0716 67.6817 36.9396 67.2676 36.9396V37.4604ZM67.9267 37.7269C68.0836 37.8681 68.1738 38.0697 68.1738 38.3666H68.6946C68.6946 37.9525 68.5626 37.5985 68.2751 37.3397L67.9267 37.7269ZM68.1738 38.3666V41.1H68.6946V38.3666H68.1738ZM68.1738 41.1C68.1738 41.3964 68.0836 41.6157 67.9167 41.7825L68.285 42.1508C68.5627 41.8732 68.6946 41.5147 68.6946 41.1H68.1738ZM67.9167 41.7825C67.7774 41.9219 67.5728 42.0062 67.2676 42.0062V42.5271C67.6735 42.5271 68.0244 42.4114 68.285 42.1508L67.9167 41.7825ZM67.2635 42.0063L56.6635 42.1729L56.6717 42.6937L67.2717 42.527L67.2635 42.0063ZM56.4071 42.4333V47.5666H56.928V42.4333H56.4071ZM56.7499 47.8137C57.3911 47.6 58.1121 47.4701 58.9149 47.4267L58.8868 46.9066C58.0452 46.9521 57.2774 47.0889 56.5852 47.3196L56.7499 47.8137ZM58.9149 47.4267C59.7205 47.3831 60.5491 47.4157 61.4011 47.5249L61.4673 47.0083C60.586 46.8953 59.7257 46.8613 58.8868 46.9066L58.9149 47.4267ZM61.4038 47.5253C62.5134 47.6558 63.5084 47.9271 64.3914 48.3363L64.6104 47.8637C63.6711 47.4284 62.6217 47.1441 61.4647 47.008L61.4038 47.5253ZM64.3983 48.3393C65.3047 48.7278 66.0649 49.2323 66.6834 49.8508L67.0517 49.4825C66.3813 48.8121 65.5638 48.2722 64.6035 47.8606L64.3983 48.3393ZM66.6899 49.857C67.3284 50.453 67.8063 51.154 68.1253 51.9623L68.6098 51.771C68.2622 50.8904 67.7401 50.1248 67.0452 49.4763L66.6899 49.857ZM68.1285 51.97C68.4684 52.756 68.6405 53.6314 68.6405 54.6H69.1613C69.1613 53.5686 68.9778 52.6217 68.6066 51.7633L68.1285 51.97ZM68.6405 54.6C68.6405 55.8095 68.4031 56.8919 67.9336 57.8523L68.4015 58.081C68.9098 57.0414 69.1613 55.8793 69.1613 54.6H68.6405ZM67.9346 57.8502C67.4629 58.7936 66.8095 59.5972 65.9722 60.2628L66.2963 60.6705C67.1923 59.9583 67.8944 59.0953 68.4005 58.0831L67.9346 57.8502ZM65.9722 60.2628C65.134 60.929 64.142 61.4369 62.9923 61.784L63.1428 62.2826C64.3486 61.9186 65.4011 61.3821 66.2963 60.6705L65.9722 60.2628ZM62.9923 61.784C61.8432 62.1309 60.5925 62.2948 59.2384 62.2729L59.23 62.7937C60.6315 62.8163 61.9364 62.6468 63.1428 62.2826L62.9923 61.784ZM59.2412 62.273C57.6018 62.2293 56.099 61.9344 54.7303 61.3913L54.5382 61.8754C55.9694 62.4433 57.5333 62.7485 59.2273 62.7936L59.2412 62.273ZM54.7269 61.39C53.3554 60.8675 52.185 60.1512 51.2119 59.2429L50.8565 59.6237C51.8834 60.5821 53.113 61.3325 54.5415 61.8767L54.7269 61.39ZM51.2072 59.2387C51.0377 59.088 50.9344 58.9277 50.8837 58.7585L50.3848 58.9081C50.4674 59.1833 50.6308 59.4231 50.8612 59.628L51.2072 59.2387ZM50.8837 58.7585C50.8469 58.636 50.8656 58.4724 51.0176 58.2444L50.5842 57.9555C50.3807 58.2609 50.2882 58.5862 50.3848 58.9081L50.8837 58.7585ZM51.011 58.2538L52.3777 56.3872L51.9574 56.0795L50.5908 57.9461L51.011 58.2538Z" fill="url(#paint8_linear_366_9806)" style="mix-blend-mode:color-burn" mask="url(#path-12-outside-2_366_9806)"/>
</g>
<defs>
<filter id="filter0_d_366_9806" x="-4.16667" y="-3.125" width="108.333" height="108.333" filterUnits="userSpaceOnUse" color-interpolation-filters="sRGB">
<feFlood flood-opacity="0" result="BackgroundImageFix"/>
<feColorMatrix in="SourceAlpha" type="matrix" values="0 0 0 0 0 0 0 0 0 0 0 0 0 0 0 0 0 0 127 0" result="hardAlpha"/>
<feOffset dy="1.04167"/>
<feGaussianBlur stdDeviation="2.08333"/>
<feColorMatrix type="matrix" values="0 0 0 0 0 0 0 0 0 0 0 0 0 0 0 0 0 0 0.16 0"/>
<feBlend mode="color-burn" in2="BackgroundImageFix" result="effect1_dropShadow_366_9806"/>
<feBlend mode="normal" in="SourceGraphic" in2="effect1_dropShadow_366_9806" result="shape"/>
</filter>
<filter id="filter1_d_366_9806" x="26.1365" y="31.7312" width="49.2748" height="38.3561" filterUnits="userSpaceOnUse" color-interpolation-filters="sRGB">
<feFlood flood-opacity="0" result="BackgroundImageFix"/>
<feColorMatrix in="SourceAlpha" type="matrix" values="0 0 0 0 0 0 0 0 0 0 0 0 0 0 0 0 0 0 127 0" result="hardAlpha"/>
<feOffset dy="1.04167"/>
<feGaussianBlur stdDeviation="3.125"/>
<feColorMatrix type="matrix" values="0 0 0 0 0 0 0 0 0 0 0 0 0 0 0 0 0 0 0.12 0"/>
<feBlend mode="plus-darker" in2="BackgroundImageFix" result="effect1_dropShadow_366_9806"/>
<feBlend mode="normal" in="SourceGraphic" in2="effect1_dropShadow_366_9806" result="shape"/>
</filter>
<linearGradient id="paint0_linear_366_9806" x1="-22.9167" y1="-22.9167" x2="-22.9167" y2="122.917" gradientUnits="userSpaceOnUse">
<stop stop-color="#EB6E3F"/>
<stop offset="1" stop-color="#FA610F"/>
</linearGradient>
<linearGradient id="paint1_linear_366_9806" x1="50" y1="-6.39146" x2="50" y2="105.635" gradientUnits="userSpaceOnUse">
<stop stop-color="white"/>
<stop offset="1" stop-color="white" stop-opacity="0"/>
</linearGradient>
<radialGradient id="paint2_radial_366_9806" cx="0" cy="0" r="1" gradientUnits="userSpaceOnUse" gradientTransform="translate(50 25.7865) rotate(90) scale(73.89 56.0618)">
<stop stop-color="white"/>
<stop offset="1" stop-color="white" stop-opacity="0"/>
</radialGradient>
<linearGradient id="paint3_linear_366_9806" x1="-22.9167" y1="-22.9167" x2="-22.9167" y2="122.917" gradientUnits="userSpaceOnUse">
<stop stop-color="#EB6E3F"/>
<stop offset="1" stop-color="#FA610F"/>
</linearGradient>
<linearGradient id="paint4_linear_366_9806" x1="50" y1="-6.39146" x2="50" y2="105.635" gradientUnits="userSpaceOnUse">
<stop stop-color="white"/>
<stop offset="1" stop-color="white" stop-opacity="0"/>
</linearGradient>
<radialGradient id="paint5_radial_366_9806" cx="0" cy="0" r="1" gradientUnits="userSpaceOnUse" gradientTransform="translate(50 25.7865) rotate(90) scale(73.89 56.0618)">
<stop stop-color="white"/>
<stop offset="1" stop-color="white" stop-opacity="0"/>
</radialGradient>
<linearGradient id="paint6_linear_366_9806" x1="-22.9167" y1="-22.9167" x2="-22.9167" y2="122.917" gradientUnits="userSpaceOnUse">
<stop offset="0.135095" stop-color="white"/>
<stop offset="0.877908" stop-color="white" stop-opacity="0.01"/>
</linearGradient>
<linearGradient id="paint7_linear_366_9806" x1="50" y1="0" x2="50" y2="100" gradientUnits="userSpaceOnUse">
<stop stop-color="white"/>
<stop offset="1" stop-color="#999999"/>
</linearGradient>
<linearGradient id="paint8_linear_366_9806" x1="50" y1="33.3333" x2="50" y2="66.3333" gradientUnits="userSpaceOnUse">
<stop stop-color="#DFDFDF"/>
<stop offset="1" stop-color="#A9A9A9"/>
</linearGradient>
</defs>
</svg>
