<svg width="100" height="100" viewBox="0 0 100 100" fill="none" xmlns="http://www.w3.org/2000/svg">
<mask id="mask0_366_9810" style="mask-type:alpha" maskUnits="userSpaceOnUse" x="0" y="0" width="100" height="100">
<circle cx="50" cy="50" r="50" fill="white"/>
</mask>
<g mask="url(#mask0_366_9810)">
<mask id="mask1_366_9810" style="mask-type:alpha" maskUnits="userSpaceOnUse" x="0" y="0" width="100" height="100">
<circle cx="50" cy="50" r="50" fill="white"/>
</mask>
<g mask="url(#mask1_366_9810)">
<rect x="-22.9167" y="-22.9167" width="145.833" height="145.833" fill="url(#paint0_linear_366_9810)"/>
<rect x="-22.9167" y="-22.9167" width="145.833" height="145.833" fill="url(#paint1_linear_366_9810)" fill-opacity="0.6" style="mix-blend-mode:overlay"/>
<rect x="-22.9167" y="-22.9167" width="145.833" height="145.833" fill="url(#paint2_radial_366_9810)" fill-opacity="0.6" style="mix-blend-mode:overlay"/>
<rect x="-22.9167" y="-22.9167" width="145.833" height="145.833" fill="black" fill-opacity="0.16" style="mix-blend-mode:overlay"/>
<rect x="-22.9167" y="-22.9167" width="145.833" height="145.833" fill="black" fill-opacity="0.12" style="mix-blend-mode:darken"/>
</g>
<g filter="url(#filter0_d_366_9810)">
<mask id="mask2_366_9810" style="mask-type:alpha" maskUnits="userSpaceOnUse" x="0" y="0" width="100" height="100">
<path fill-rule="evenodd" clip-rule="evenodd" d="M95.8333 50C95.8333 75.313 75.313 95.8333 50 95.8333C24.6869 95.8333 4.16667 75.313 4.16667 50C4.16667 24.6869 24.6869 4.16667 50 4.16667C75.313 4.16667 95.8333 24.6869 95.8333 50ZM100 50C100 77.6142 77.6142 100 50 100C22.3858 100 0 77.6142 0 50C0 22.3858 22.3858 0 50 0C77.6142 0 100 22.3858 100 50ZM50 88.0208C70.9983 88.0208 88.0208 70.9983 88.0208 50C88.0208 29.0017 70.9983 11.9792 50 11.9792C29.0017 11.9792 11.9792 29.0017 11.9792 50C11.9792 70.9983 29.0017 88.0208 50 88.0208Z" fill="white"/>
</mask>
<g mask="url(#mask2_366_9810)">
<rect x="-22.9167" y="-22.9167" width="145.833" height="145.833" fill="url(#paint3_linear_366_9810)"/>
<rect x="-22.9167" y="-22.9167" width="145.833" height="145.833" fill="url(#paint4_linear_366_9810)" fill-opacity="0.6" style="mix-blend-mode:overlay"/>
<rect x="-22.9167" y="-22.9167" width="145.833" height="145.833" fill="url(#paint5_radial_366_9810)" fill-opacity="0.6" style="mix-blend-mode:overlay"/>
<g style="mix-blend-mode:soft-light">
<path fill-rule="evenodd" clip-rule="evenodd" d="M-22.9167 -22.9167H64.5833L36.6578 122.917H-22.9167V-22.9167Z" fill="url(#paint6_linear_366_9810)" style="mix-blend-mode:lighten"/>
</g>
<g style="mix-blend-mode:soft-light">
<mask id="path-10-inside-1_366_9810" fill="white">
<path fill-rule="evenodd" clip-rule="evenodd" d="M95.8333 50C95.8333 75.313 75.313 95.8333 50 95.8333C24.6869 95.8333 4.16667 75.313 4.16667 50C4.16667 24.6869 24.6869 4.16667 50 4.16667C75.313 4.16667 95.8333 24.6869 95.8333 50ZM100 50C100 77.6142 77.6142 100 50 100C22.3858 100 0 77.6142 0 50C0 22.3858 22.3858 0 50 0C77.6142 0 100 22.3858 100 50ZM50 88.0208C70.9983 88.0208 88.0208 70.9983 88.0208 50C88.0208 29.0017 70.9983 11.9792 50 11.9792C29.0017 11.9792 11.9792 29.0017 11.9792 50C11.9792 70.9983 29.0017 88.0208 50 88.0208Z"/>
</mask>
<path d="M50 96.0938C75.4569 96.0938 96.0938 75.4569 96.0938 50H95.5729C95.5729 75.1692 75.1692 95.5729 50 95.5729V96.0938ZM3.90625 50C3.90625 75.4569 24.5431 96.0938 50 96.0938V95.5729C24.8308 95.5729 4.42708 75.1692 4.42708 50H3.90625ZM50 3.90625C24.5431 3.90625 3.90625 24.5431 3.90625 50H4.42708C4.42708 24.8308 24.8308 4.42708 50 4.42708V3.90625ZM96.0938 50C96.0938 24.5431 75.4569 3.90625 50 3.90625V4.42708C75.1692 4.42708 95.5729 24.8308 95.5729 50H96.0938ZM50 100.26C77.7581 100.26 100.26 77.7581 100.26 50H99.7396C99.7396 77.4704 77.4704 99.7396 50 99.7396V100.26ZM-0.260417 50C-0.260417 77.7581 22.2419 100.26 50 100.26V99.7396C22.5296 99.7396 0.260417 77.4704 0.260417 50H-0.260417ZM50 -0.260417C22.2419 -0.260417 -0.260417 22.2419 -0.260417 50H0.260417C0.260417 22.5296 22.5296 0.260417 50 0.260417V-0.260417ZM100.26 50C100.26 22.2419 77.7581 -0.260417 50 -0.260417V0.260417C77.4704 0.260417 99.7396 22.5296 99.7396 50H100.26ZM87.7604 50C87.7604 70.8545 70.8545 87.7604 50 87.7604V88.2812C71.1421 88.2812 88.2812 71.1421 88.2812 50H87.7604ZM50 12.2396C70.8545 12.2396 87.7604 29.1455 87.7604 50H88.2812C88.2812 28.8578 71.1421 11.7188 50 11.7188V12.2396ZM12.2396 50C12.2396 29.1455 29.1455 12.2396 50 12.2396V11.7188C28.8578 11.7188 11.7188 28.8578 11.7188 50H12.2396ZM50 87.7604C29.1455 87.7604 12.2396 70.8545 12.2396 50H11.7188C11.7188 71.1421 28.8578 88.2812 50 88.2812V87.7604Z" fill="url(#paint7_linear_366_9810)" mask="url(#path-10-inside-1_366_9810)"/>
</g>
</g>
</g>
</g>
<g filter="url(#filter1_d_366_9810)">
<mask id="path-12-outside-2_366_9810" maskUnits="userSpaceOnUse" x="30.3333" y="36.3333" width="41" height="27" fill="black">
<rect fill="white" x="30.3333" y="36.3333" width="41" height="27"/>
<path d="M32.3209 62.5333C31.6987 62.5333 31.3876 62.2 31.3876 61.5333L31.0209 39.3C30.9987 38.5222 31.2098 37.9556 31.6543 37.6C32.0987 37.2222 32.6654 37.0111 33.3543 36.9667C38.8654 36.5 42.9987 36.9667 45.7543 38.3667C48.5098 39.7444 49.8876 41.9444 49.8876 44.9667C49.8876 45.7 49.7765 46.4 49.5543 47.0667C49.3321 47.7111 49.0098 48.3 48.5876 48.8333C48.1654 49.3667 47.6654 49.8222 47.0876 50.2C46.5098 50.5778 45.8765 50.8444 45.1876 51C45.8543 51.1333 46.4543 51.3556 46.9876 51.6667C47.5432 51.9778 48.0098 52.3444 48.3876 52.7667C48.7654 53.1889 49.0543 53.6444 49.2543 54.1333C49.4543 54.6222 49.5543 55.1111 49.5543 55.6C49.5543 56.6889 49.2987 57.6667 48.7876 58.5333C48.2765 59.4 47.4987 60.1333 46.4543 60.7333C45.4321 61.3333 44.1209 61.7889 42.5209 62.1C40.9432 62.4333 39.0876 62.5889 36.9543 62.5667L32.3209 62.5333ZM36.8876 48.4667H38.9543C39.7321 48.4667 40.4432 48.4 41.0876 48.2667C41.7543 48.1111 42.3209 47.9 42.7876 47.6333C43.2765 47.3667 43.6543 47.0444 43.9209 46.6667C44.1876 46.2667 44.3209 45.8222 44.3209 45.3333C44.3209 44.2 43.6654 43.3667 42.3543 42.8333C41.0654 42.3 39.2543 42.1889 36.9209 42.5L36.8876 48.4667ZM36.6876 58.6333H39.1209C40.6098 58.6333 41.7876 58.3444 42.6543 57.7667C43.5432 57.1667 43.9876 56.3889 43.9876 55.4333C43.9876 54.9444 43.8543 54.5222 43.5876 54.1667C43.3432 53.7889 42.9987 53.4778 42.5543 53.2333C42.1098 52.9889 41.5765 52.8111 40.9543 52.7C40.3543 52.5667 39.6876 52.5 38.9543 52.5H36.7543L36.6876 58.6333ZM53.7952 56.2333C54.2174 55.6556 54.6841 55.5667 55.1952 55.9667C55.5063 56.2111 55.8729 56.4333 56.2952 56.6333C56.7174 56.8333 57.1729 57.0111 57.6618 57.1667C58.1507 57.3 58.6507 57.4111 59.1618 57.5C59.6952 57.5889 60.2174 57.6333 60.7285 57.6333C61.3285 57.6333 61.8952 57.5667 62.4285 57.4333C62.9618 57.3 63.4174 57.1111 63.7952 56.8667C64.1952 56.6222 64.5063 56.3222 64.7285 55.9667C64.9507 55.5889 65.0507 55.1778 65.0285 54.7333C64.9841 53.8667 64.5618 53.1889 63.7618 52.7C62.9618 52.2111 61.9507 51.9333 60.7285 51.8667C59.7952 51.8222 58.8285 51.9444 57.8285 52.2333C56.8507 52.5222 55.8952 52.8222 54.9618 53.1333C54.2952 53.3778 53.7174 53.3444 53.2285 53.0333C52.7396 52.7 52.4841 52.2 52.4618 51.5333L52.2618 39.6C52.2396 38.8222 52.4507 38.2444 52.8952 37.8667C53.3396 37.4667 53.9063 37.2667 54.5952 37.2667L68.8952 37.2C69.2507 37.2 69.5285 37.3111 69.7285 37.5333C69.9507 37.7333 70.0618 38.0111 70.0618 38.3667V41.1C70.0618 41.4555 69.9507 41.7444 69.7285 41.9667C69.5285 42.1667 69.2507 42.2667 68.8952 42.2667L58.2952 42.4333V47.5667C58.9618 47.3444 59.7063 47.2111 60.5285 47.1667C61.3507 47.1222 62.1952 47.1556 63.0618 47.2667C64.1952 47.4 65.2174 47.6778 66.1285 48.1C67.0618 48.5 67.8507 49.0222 68.4952 49.6667C69.1618 50.2889 69.6618 51.0222 69.9952 51.8667C70.3507 52.6889 70.5285 53.6 70.5285 54.6C70.5285 55.8444 70.2841 56.9667 69.7952 57.9667C69.3063 58.9444 68.6285 59.7778 67.7618 60.4667C66.8952 61.1556 65.8729 61.6778 64.6952 62.0333C63.5174 62.3889 62.2396 62.5556 60.8618 62.5333C59.1952 62.4889 57.6618 62.1889 56.2618 61.6333C54.8618 61.1 53.6618 60.3667 52.6618 59.4333C52.4618 59.2556 52.3285 59.0556 52.2618 58.8333C52.1952 58.6111 52.2507 58.3667 52.4285 58.1L53.7952 56.2333Z"/>
</mask>
<path d="M32.3209 62.5333C31.6987 62.5333 31.3876 62.2 31.3876 61.5333L31.0209 39.3C30.9987 38.5222 31.2098 37.9556 31.6543 37.6C32.0987 37.2222 32.6654 37.0111 33.3543 36.9667C38.8654 36.5 42.9987 36.9667 45.7543 38.3667C48.5098 39.7444 49.8876 41.9444 49.8876 44.9667C49.8876 45.7 49.7765 46.4 49.5543 47.0667C49.3321 47.7111 49.0098 48.3 48.5876 48.8333C48.1654 49.3667 47.6654 49.8222 47.0876 50.2C46.5098 50.5778 45.8765 50.8444 45.1876 51C45.8543 51.1333 46.4543 51.3556 46.9876 51.6667C47.5432 51.9778 48.0098 52.3444 48.3876 52.7667C48.7654 53.1889 49.0543 53.6444 49.2543 54.1333C49.4543 54.6222 49.5543 55.1111 49.5543 55.6C49.5543 56.6889 49.2987 57.6667 48.7876 58.5333C48.2765 59.4 47.4987 60.1333 46.4543 60.7333C45.4321 61.3333 44.1209 61.7889 42.5209 62.1C40.9432 62.4333 39.0876 62.5889 36.9543 62.5667L32.3209 62.5333ZM36.8876 48.4667H38.9543C39.7321 48.4667 40.4432 48.4 41.0876 48.2667C41.7543 48.1111 42.3209 47.9 42.7876 47.6333C43.2765 47.3667 43.6543 47.0444 43.9209 46.6667C44.1876 46.2667 44.3209 45.8222 44.3209 45.3333C44.3209 44.2 43.6654 43.3667 42.3543 42.8333C41.0654 42.3 39.2543 42.1889 36.9209 42.5L36.8876 48.4667ZM36.6876 58.6333H39.1209C40.6098 58.6333 41.7876 58.3444 42.6543 57.7667C43.5432 57.1667 43.9876 56.3889 43.9876 55.4333C43.9876 54.9444 43.8543 54.5222 43.5876 54.1667C43.3432 53.7889 42.9987 53.4778 42.5543 53.2333C42.1098 52.9889 41.5765 52.8111 40.9543 52.7C40.3543 52.5667 39.6876 52.5 38.9543 52.5H36.7543L36.6876 58.6333ZM53.7952 56.2333C54.2174 55.6556 54.6841 55.5667 55.1952 55.9667C55.5063 56.2111 55.8729 56.4333 56.2952 56.6333C56.7174 56.8333 57.1729 57.0111 57.6618 57.1667C58.1507 57.3 58.6507 57.4111 59.1618 57.5C59.6952 57.5889 60.2174 57.6333 60.7285 57.6333C61.3285 57.6333 61.8952 57.5667 62.4285 57.4333C62.9618 57.3 63.4174 57.1111 63.7952 56.8667C64.1952 56.6222 64.5063 56.3222 64.7285 55.9667C64.9507 55.5889 65.0507 55.1778 65.0285 54.7333C64.9841 53.8667 64.5618 53.1889 63.7618 52.7C62.9618 52.2111 61.9507 51.9333 60.7285 51.8667C59.7952 51.8222 58.8285 51.9444 57.8285 52.2333C56.8507 52.5222 55.8952 52.8222 54.9618 53.1333C54.2952 53.3778 53.7174 53.3444 53.2285 53.0333C52.7396 52.7 52.4841 52.2 52.4618 51.5333L52.2618 39.6C52.2396 38.8222 52.4507 38.2444 52.8952 37.8667C53.3396 37.4667 53.9063 37.2667 54.5952 37.2667L68.8952 37.2C69.2507 37.2 69.5285 37.3111 69.7285 37.5333C69.9507 37.7333 70.0618 38.0111 70.0618 38.3667V41.1C70.0618 41.4555 69.9507 41.7444 69.7285 41.9667C69.5285 42.1667 69.2507 42.2667 68.8952 42.2667L58.2952 42.4333V47.5667C58.9618 47.3444 59.7063 47.2111 60.5285 47.1667C61.3507 47.1222 62.1952 47.1556 63.0618 47.2667C64.1952 47.4 65.2174 47.6778 66.1285 48.1C67.0618 48.5 67.8507 49.0222 68.4952 49.6667C69.1618 50.2889 69.6618 51.0222 69.9952 51.8667C70.3507 52.6889 70.5285 53.6 70.5285 54.6C70.5285 55.8444 70.2841 56.9667 69.7952 57.9667C69.3063 58.9444 68.6285 59.7778 67.7618 60.4667C66.8952 61.1556 65.8729 61.6778 64.6952 62.0333C63.5174 62.3889 62.2396 62.5556 60.8618 62.5333C59.1952 62.4889 57.6618 62.1889 56.2618 61.6333C54.8618 61.1 53.6618 60.3667 52.6618 59.4333C52.4618 59.2556 52.3285 59.0556 52.2618 58.8333C52.1952 58.6111 52.2507 58.3667 52.4285 58.1L53.7952 56.2333Z" fill="white"/>
<path d="M32.3209 62.5333L32.3228 62.2729H32.3209V62.5333ZM31.3876 61.5333H31.6481L31.648 61.529L31.3876 61.5333ZM31.0209 39.3L31.2813 39.2957L31.2813 39.2926L31.0209 39.3ZM31.6543 37.6L31.817 37.8034L31.8229 37.7984L31.6543 37.6ZM33.3543 36.9667L33.371 37.2266L33.3763 37.2261L33.3543 36.9667ZM45.7543 38.3667L45.6363 38.5988L45.6378 38.5996L45.7543 38.3667ZM49.5543 47.0667L49.8005 47.1516L49.8013 47.149L49.5543 47.0667ZM48.5876 48.8333L48.3834 48.6717H48.3834L48.5876 48.8333ZM47.0876 50.2L47.2301 50.418L47.0876 50.2ZM45.1876 51L45.1303 50.746L45.1365 51.2554L45.1876 51ZM46.9876 51.6667L46.8564 51.8916L46.8604 51.8939L46.9876 51.6667ZM48.3876 52.7667L48.5817 52.593L48.3876 52.7667ZM46.4543 60.7333L46.3246 60.5075L46.3225 60.5087L46.4543 60.7333ZM42.5209 62.1L42.4712 61.8443L42.4671 61.8452L42.5209 62.1ZM36.9543 62.5667L36.957 62.3063L36.9562 62.3063L36.9543 62.5667ZM36.8876 48.4667L36.6272 48.4652L36.6257 48.7271H36.8876V48.4667ZM41.0876 48.2667L41.1404 48.5218L41.1468 48.5203L41.0876 48.2667ZM42.7876 47.6333L42.6629 47.4047L42.6584 47.4072L42.7876 47.6333ZM43.9209 46.6667L44.1338 46.8169L44.1376 46.8111L43.9209 46.6667ZM42.3543 42.8333L42.2547 43.074L42.2562 43.0746L42.3543 42.8333ZM36.9209 42.5L36.8865 42.2419L36.6618 42.2718L36.6605 42.4985L36.9209 42.5ZM36.6876 58.6333L36.4272 58.6305L36.4243 58.8937H36.6876V58.6333ZM42.6543 57.7667L42.7987 57.9833L42.8 57.9825L42.6543 57.7667ZM43.5876 54.1667L43.369 54.3081L43.3739 54.3157L43.3793 54.3229L43.5876 54.1667ZM42.5543 53.2333L42.4288 53.4615L42.5543 53.2333ZM40.9543 52.7L40.8977 52.9544L40.9085 52.9564L40.9543 52.7ZM36.7543 52.5V52.2396H36.4967L36.4939 52.4972L36.7543 52.5ZM32.3209 62.2729C32.0548 62.2729 31.9017 62.2025 31.8113 62.1056C31.7178 62.0054 31.648 61.8308 31.648 61.5333H31.1272C31.1272 61.9025 31.213 62.2279 31.4306 62.461C31.6513 62.6975 31.9649 62.7937 32.3209 62.7937V62.2729ZM31.648 61.529L31.2813 39.2957L30.7606 39.3043L31.1272 61.5376L31.648 61.529ZM31.2813 39.2926C31.2604 38.5643 31.4579 38.0906 31.817 37.8033L31.4916 37.3966C30.9618 37.8205 30.737 38.4802 30.7606 39.3074L31.2813 39.2926ZM31.8229 37.7984C32.2172 37.4633 32.7275 37.2681 33.371 37.2265L33.3375 36.7068C32.6033 36.7542 31.9802 36.9812 31.4856 37.4016L31.8229 37.7984ZM33.3763 37.2261C38.872 36.7608 42.9461 37.232 45.6363 38.5988L45.8722 38.1345C43.0513 36.7013 38.8587 36.2392 33.3323 36.7072L33.3763 37.2261ZM45.6378 38.5996C46.9809 39.2711 47.9745 40.1358 48.6336 41.1882C49.2925 42.2404 49.6272 43.4963 49.6272 44.9667H50.148C50.148 43.4148 49.7938 42.0596 49.075 40.9118C48.3563 39.7642 47.2832 38.84 45.8707 38.1337L45.6378 38.5996ZM49.6272 44.9667C49.6272 45.6732 49.5202 46.3453 49.3072 46.9843L49.8013 47.149C50.0328 46.4546 50.148 45.7268 50.148 44.9667H49.6272ZM49.3081 46.9818C49.0954 47.5985 48.7874 48.1614 48.3834 48.6717L48.7918 48.995C49.2323 48.4386 49.5687 47.8237 49.8005 47.1516L49.3081 46.9818ZM48.3834 48.6717C47.9789 49.1827 47.4998 49.6194 46.9451 49.982L47.2301 50.418C47.831 50.0251 48.3519 49.5506 48.7918 48.995L48.3834 48.6717ZM46.9451 49.982C46.3939 50.3424 45.7895 50.5971 45.1303 50.746L45.245 51.254C45.9635 51.0918 46.6257 50.8131 47.2301 50.418L46.9451 49.982ZM45.1365 51.2554C45.7778 51.3836 46.3503 51.5964 46.8564 51.8916L47.1188 51.4417C46.5583 51.1147 45.9307 50.883 45.2387 50.7446L45.1365 51.2554ZM46.8604 51.8939C47.3939 52.1927 47.8371 52.542 48.1935 52.9403L48.5817 52.593C48.1825 52.1469 47.6924 51.7629 47.1149 51.4394L46.8604 51.8939ZM48.1935 52.9403C48.5529 53.342 48.8253 53.7725 49.0133 54.2319L49.4953 54.0347C49.2833 53.5164 48.9778 53.0358 48.5817 52.593L48.1935 52.9403ZM49.0133 54.2319C49.2015 54.6921 49.2939 55.1476 49.2939 55.6H49.8147C49.8147 55.0747 49.7071 54.5524 49.4953 54.0347L49.0133 54.2319ZM49.2939 55.6C49.2939 56.6463 49.0488 57.5777 48.5633 58.401L49.0119 58.6656C49.5486 57.7556 49.8147 56.7315 49.8147 55.6H49.2939ZM48.5633 58.401C48.0792 59.2219 47.3376 59.9255 46.3246 60.5075L46.584 60.9591C47.6598 60.3411 48.4738 59.5781 49.0119 58.6656L48.5633 58.401ZM46.3225 60.5087C45.3332 61.0894 44.0524 61.5369 42.4712 61.8444L42.5707 62.3556C44.1895 62.0408 45.5309 61.5773 46.5861 60.9579L46.3225 60.5087ZM42.4671 61.8452C40.9128 62.1736 39.077 62.3283 36.957 62.3063L36.9516 62.8271C39.0982 62.8494 40.9736 62.6931 42.5748 62.3548L42.4671 61.8452ZM36.9562 62.3063L32.3228 62.2729L32.3191 62.7937L36.9524 62.8271L36.9562 62.3063ZM36.8876 48.7271H38.9543V48.2062H36.8876V48.7271ZM38.9543 48.7271C39.7467 48.7271 40.4758 48.6592 41.1404 48.5217L41.0349 48.0116C40.4106 48.1408 39.7174 48.2062 38.9543 48.2062V48.7271ZM41.1468 48.5203C41.8316 48.3605 42.4232 48.1415 42.9168 47.8594L42.6584 47.4072C42.2187 47.6585 41.6769 47.8617 41.0284 48.0131L41.1468 48.5203ZM42.9123 47.8619C43.4291 47.5801 43.8398 47.2331 44.1337 46.8168L43.7082 46.5165C43.4687 46.8557 43.1239 47.1533 42.6629 47.4047L42.9123 47.8619ZM44.1376 46.8111C44.4333 46.3676 44.5814 45.8727 44.5814 45.3333H44.0605C44.0605 45.7717 43.9419 46.1658 43.7043 46.5222L44.1376 46.8111ZM44.5814 45.3333C44.5814 44.7126 44.4004 44.1632 44.034 43.6973C43.6704 43.2352 43.1363 42.8703 42.4524 42.5921L42.2562 43.0746C42.8834 43.3297 43.3326 43.6482 43.6246 44.0193C43.9137 44.3868 44.0605 44.8208 44.0605 45.3333H44.5814ZM42.4538 42.5927C41.1027 42.0336 39.2377 41.9284 36.8865 42.2419L36.9554 42.7581C39.2708 42.4494 41.028 42.5664 42.2547 43.074L42.4538 42.5927ZM36.6605 42.4985L36.6272 48.4652L37.148 48.4681L37.1814 42.5014L36.6605 42.4985ZM36.6876 58.8937H39.1209V58.3729H36.6876V58.8937ZM39.1209 58.8937C40.6401 58.8937 41.8746 58.5994 42.7987 57.9833L42.5098 57.55C41.7006 58.0894 40.5795 58.3729 39.1209 58.3729V58.8937ZM42.8 57.9825C43.7503 57.341 44.248 56.4871 44.248 55.4333H43.7272C43.7272 56.2906 43.336 56.9923 42.5086 57.5508L42.8 57.9825ZM44.248 55.4333C44.248 54.894 44.0998 54.4156 43.7959 54.0104L43.3793 54.3229C43.6087 54.6289 43.7272 54.9948 43.7272 55.4333H44.248ZM43.8063 54.0252C43.5356 53.6069 43.1571 53.2677 42.6798 53.0051L42.4288 53.4615C42.8404 53.6879 43.1508 53.9709 43.369 54.3081L43.8063 54.0252ZM42.6798 53.0051C42.2052 52.7441 41.6436 52.5586 41.0001 52.4436L40.9085 52.9564C41.5094 53.0637 42.0145 53.2336 42.4288 53.4615L42.6798 53.0051ZM41.0108 52.4458C40.3891 52.3076 39.7031 52.2396 38.9543 52.2396V52.7604C39.6721 52.7604 40.3195 52.8257 40.8978 52.9542L41.0108 52.4458ZM38.9543 52.2396H36.7543V52.7604H38.9543V52.2396ZM36.4939 52.4972L36.4272 58.6305L36.948 58.6362L37.0147 52.5028L36.4939 52.4972ZM53.7952 56.2333L54.0053 56.3872L54.0054 56.387L53.7952 56.2333ZM55.1952 55.9667L55.3561 55.7619L55.3557 55.7616L55.1952 55.9667ZM56.2952 56.6333L56.4066 56.398L56.2952 56.6333ZM57.6618 57.1667L57.5828 57.415L57.5933 57.4179L57.6618 57.1667ZM59.1618 57.5L59.1172 57.7566L59.119 57.7569L59.1618 57.5ZM62.4285 57.4333L62.3653 57.1807L62.4285 57.4333ZM63.7952 56.8667L63.6593 56.6444L63.6537 56.648L63.7952 56.8667ZM64.7285 55.9667L64.9494 56.1047L64.953 56.0987L64.7285 55.9667ZM65.0285 54.7333L65.2886 54.7203L65.2886 54.72L65.0285 54.7333ZM63.7618 52.7L63.626 52.9222L63.7618 52.7ZM60.7285 51.8667L60.7427 51.6066L60.7409 51.6065L60.7285 51.8667ZM57.8285 52.2333L57.7562 51.9831L57.7547 51.9836L57.8285 52.2333ZM54.9618 53.1333L54.8794 52.8862L54.8722 52.8888L54.9618 53.1333ZM53.2285 53.0333L53.0817 53.2486L53.0887 53.253L53.2285 53.0333ZM52.4618 51.5333L52.2014 51.5377L52.2016 51.542L52.4618 51.5333ZM52.2618 39.6L52.5222 39.5956L52.5221 39.5926L52.2618 39.6ZM52.8952 37.8667L53.0639 38.0652L53.0694 38.0602L52.8952 37.8667ZM54.5952 37.2667V37.5271L54.5964 37.5271L54.5952 37.2667ZM68.8952 37.2V36.9396L68.894 36.9396L68.8952 37.2ZM69.7285 37.5333L69.5349 37.7075L69.5441 37.7177L69.5543 37.7269L69.7285 37.5333ZM68.8952 42.2667V42.0062L68.8911 42.0063L68.8952 42.2667ZM58.2952 42.4333L58.2911 42.1729L58.0347 42.177V42.4333H58.2952ZM58.2952 47.5667H58.0347V47.928L58.3775 47.8137L58.2952 47.5667ZM63.0618 47.2667L63.0287 47.525L63.0314 47.5253L63.0618 47.2667ZM66.1285 48.1L66.019 48.3364L66.0259 48.3394L66.1285 48.1ZM68.4952 49.6667L68.3109 49.8509L68.3175 49.857L68.4952 49.6667ZM69.9952 51.8667L69.7528 51.9623L69.7561 51.97L69.9952 51.8667ZM69.7952 57.9667L70.0281 58.0831L70.0291 58.081L69.7952 57.9667ZM67.7618 60.4667L67.9239 60.6705L67.7618 60.4667ZM64.6952 62.0333L64.7704 62.2826L64.6952 62.0333ZM60.8618 62.5333L60.8549 62.7937L60.8576 62.7937L60.8618 62.5333ZM56.2618 61.6333L56.3579 61.3913L56.3545 61.39L56.2618 61.6333ZM52.6618 59.4333L52.8396 59.2429L52.8348 59.2387L52.6618 59.4333ZM52.2618 58.8333L52.0124 58.9082L52.2618 58.8333ZM52.4285 58.1L52.2182 57.946L52.2118 57.9555L52.4285 58.1ZM54.0054 56.387C54.1968 56.125 54.3683 56.0162 54.5106 55.9891C54.6459 55.9634 54.8156 56.0003 55.0347 56.1717L55.3557 55.7616C55.0636 55.533 54.7445 55.4144 54.4131 55.4775C54.0887 55.5393 53.8157 55.7638 53.5849 56.0797L54.0054 56.387ZM55.0343 56.1714C55.3631 56.4298 55.747 56.6618 56.1837 56.8687L56.4066 56.398C55.9989 56.2048 55.6494 55.9924 55.3561 55.7619L55.0343 56.1714ZM56.1837 56.8687C56.6174 57.0741 57.0839 57.2561 57.5829 57.4148L57.7408 56.9185C57.2619 56.7661 56.8174 56.5925 56.4066 56.398L56.1837 56.8687ZM57.5933 57.4179C58.0903 57.5534 58.5982 57.6663 59.1172 57.7566L59.2065 57.2434C58.7032 57.1559 58.2112 57.0466 57.7304 56.9154L57.5933 57.4179ZM59.119 57.7569C59.6657 57.848 60.2022 57.8937 60.7285 57.8937V57.3729C60.2325 57.3729 59.7246 57.3298 59.2046 57.2431L59.119 57.7569ZM60.7285 57.8937C61.3479 57.8937 61.9359 57.8249 62.4917 57.686L62.3653 57.1807C61.8544 57.3084 61.3091 57.3729 60.7285 57.3729V57.8937ZM62.4917 57.686C63.0468 57.5472 63.5301 57.3483 63.9366 57.0853L63.6537 56.648C63.3046 56.8739 62.8768 57.0528 62.3653 57.1807L62.4917 57.686ZM63.931 57.0889C64.3613 56.8259 64.7033 56.4984 64.9493 56.1047L64.5077 55.8286C64.3093 56.146 64.029 56.4186 63.6594 56.6445L63.931 57.0889ZM64.953 56.0987C65.2014 55.6764 65.3133 55.2147 65.2886 54.7203L64.7684 54.7463C64.7881 55.1408 64.7001 55.5014 64.504 55.8346L64.953 56.0987ZM65.2886 54.72C65.2393 53.7596 64.764 53.0073 63.8976 52.4778L63.626 52.9222C64.3596 53.3705 64.7288 53.9737 64.7684 54.7467L65.2886 54.72ZM63.8976 52.4778C63.0513 51.9606 61.9952 51.675 60.7427 51.6066L60.7143 52.1267C61.9062 52.1917 62.8723 52.4616 63.626 52.9222L63.8976 52.4778ZM60.7409 51.6065C59.7759 51.5606 58.7806 51.6872 57.7562 51.9831L57.9008 52.4835C58.8764 52.2017 59.8144 52.0838 60.7161 52.1268L60.7409 51.6065ZM57.7547 51.9836C56.7742 52.2733 55.8158 52.5742 54.8795 52.8863L55.0442 53.3804C55.9746 53.0702 56.9273 52.7711 57.9023 52.4831L57.7547 51.9836ZM54.8722 52.8888C54.2626 53.1123 53.7732 53.0713 53.3683 52.8136L53.0887 53.253C53.6615 53.6176 54.3277 53.6432 55.0515 53.3778L54.8722 52.8888ZM53.3752 52.8182C52.9644 52.5381 52.742 52.1205 52.7221 51.5247L52.2016 51.542C52.2261 52.2795 52.5148 52.8619 53.0818 53.2485L53.3752 52.8182ZM52.7222 51.529L52.5222 39.5956L52.0014 39.6044L52.2015 51.5377L52.7222 51.529ZM52.5221 39.5926C52.5014 38.8655 52.6982 38.3758 53.0638 38.0651L52.7265 37.6682C52.2032 38.113 51.9778 38.7789 52.0015 39.6074L52.5221 39.5926ZM53.0694 38.0602C53.4588 37.7098 53.9602 37.5271 54.5952 37.5271V37.0062C53.8524 37.0062 53.2204 37.2236 52.721 37.6731L53.0694 38.0602ZM54.5964 37.5271L68.8964 37.4604L68.894 36.9396L54.594 37.0062L54.5964 37.5271ZM68.8952 37.4604C69.1922 37.4604 69.3937 37.5506 69.5349 37.7075L69.9221 37.3591C69.6633 37.0716 69.3093 36.9396 68.8952 36.9396V37.4604ZM69.5543 37.7269C69.7112 37.8681 69.8014 38.0697 69.8014 38.3667H70.3223C70.3223 37.9525 70.1902 37.5985 69.9027 37.3398L69.5543 37.7269ZM69.8014 38.3667V41.1H70.3223V38.3667H69.8014ZM69.8014 41.1C69.8014 41.3964 69.7112 41.6157 69.5444 41.7825L69.9126 42.1508C70.1903 41.8732 70.3223 41.5147 70.3223 41.1H69.8014ZM69.5444 41.7825C69.405 41.9219 69.2004 42.0062 68.8952 42.0062V42.5271C69.3011 42.5271 69.652 42.4115 69.9126 42.1508L69.5444 41.7825ZM68.8911 42.0063L58.2911 42.1729L58.2993 42.6937L68.8993 42.527L68.8911 42.0063ZM58.0347 42.4333V47.5667H58.5556V42.4333H58.0347ZM58.3775 47.8137C59.0187 47.6 59.7397 47.4701 60.5426 47.4267L60.5144 46.9066C59.6729 46.9521 58.905 47.0889 58.2128 47.3196L58.3775 47.8137ZM60.5426 47.4267C61.3481 47.3832 62.1767 47.4157 63.0287 47.525L63.0949 47.0084C62.2136 46.8954 61.3533 46.8613 60.5144 46.9066L60.5426 47.4267ZM63.0314 47.5253C64.141 47.6558 65.136 47.9271 66.019 48.3363L66.238 47.8637C65.2987 47.4284 64.2493 47.1441 63.0923 47.008L63.0314 47.5253ZM66.0259 48.3394C66.9323 48.7278 67.6925 49.2323 68.311 49.8508L68.6793 49.4825C68.0089 48.8121 67.1914 48.2722 66.2311 47.8606L66.0259 48.3394ZM68.3175 49.857C68.956 50.453 69.4339 51.154 69.7529 51.9623L70.2374 51.771C69.8898 50.8904 69.3677 50.1248 68.6729 49.4763L68.3175 49.857ZM69.7561 51.97C70.096 52.756 70.2681 53.6314 70.2681 54.6H70.7889C70.7889 53.5686 70.6054 52.6218 70.2342 51.7633L69.7561 51.97ZM70.2681 54.6C70.2681 55.8095 70.0307 56.8919 69.5612 57.8523L70.0291 58.081C70.5374 57.0414 70.7889 55.8794 70.7889 54.6H70.2681ZM69.5622 57.8502C69.0905 58.7936 68.4371 59.5972 67.5998 60.2628L67.9239 60.6705C68.8199 59.9583 69.522 59.0953 70.0281 58.0831L69.5622 57.8502ZM67.5998 60.2628C66.7616 60.929 65.7696 61.4369 64.6199 61.784L64.7704 62.2826C65.9762 61.9186 67.0287 61.3821 67.9239 60.6705L67.5998 60.2628ZM64.6199 61.784C63.4708 62.1309 62.2201 62.2948 60.866 62.2729L60.8576 62.7937C62.2591 62.8163 63.564 62.6468 64.7704 62.2826L64.6199 61.784ZM60.8688 62.273C59.2294 62.2293 57.7266 61.9344 56.3579 61.3913L56.1658 61.8754C57.5971 62.4433 59.1609 62.7485 60.8549 62.7937L60.8688 62.273ZM56.3545 61.39C54.983 60.8675 53.8126 60.1512 52.8395 59.2429L52.4841 59.6237C53.511 60.5821 54.7406 61.3325 56.1691 61.8767L56.3545 61.39ZM52.8348 59.2387C52.6653 59.088 52.562 58.9277 52.5113 58.7585L52.0124 58.9082C52.095 59.1834 52.2584 59.4231 52.4888 59.628L52.8348 59.2387ZM52.5113 58.7585C52.4745 58.636 52.4932 58.4725 52.6452 58.2444L52.2118 57.9555C52.0083 58.2609 51.9158 58.5862 52.0124 58.9082L52.5113 58.7585ZM52.6386 58.2538L54.0053 56.3872L53.585 56.0795L52.2184 57.9462L52.6386 58.2538Z" fill="url(#paint8_linear_366_9810)" style="mix-blend-mode:color-burn" mask="url(#path-12-outside-2_366_9810)"/>
</g>
<defs>
<filter id="filter0_d_366_9810" x="-4.16667" y="-3.125" width="108.333" height="108.333" filterUnits="userSpaceOnUse" color-interpolation-filters="sRGB">
<feFlood flood-opacity="0" result="BackgroundImageFix"/>
<feColorMatrix in="SourceAlpha" type="matrix" values="0 0 0 0 0 0 0 0 0 0 0 0 0 0 0 0 0 0 127 0" result="hardAlpha"/>
<feOffset dy="1.04167"/>
<feGaussianBlur stdDeviation="2.08333"/>
<feColorMatrix type="matrix" values="0 0 0 0 0 0 0 0 0 0 0 0 0 0 0 0 0 0 0.16 0"/>
<feBlend mode="color-burn" in2="BackgroundImageFix" result="effect1_dropShadow_366_9810"/>
<feBlend mode="normal" in="SourceGraphic" in2="effect1_dropShadow_366_9810" result="shape"/>
</filter>
<filter id="filter1_d_366_9810" x="24.509" y="31.3229" width="52.53" height="38.7979" filterUnits="userSpaceOnUse" color-interpolation-filters="sRGB">
<feFlood flood-opacity="0" result="BackgroundImageFix"/>
<feColorMatrix in="SourceAlpha" type="matrix" values="0 0 0 0 0 0 0 0 0 0 0 0 0 0 0 0 0 0 127 0" result="hardAlpha"/>
<feOffset dy="1.04167"/>
<feGaussianBlur stdDeviation="3.125"/>
<feColorMatrix type="matrix" values="0 0 0 0 0 0 0 0 0 0 0 0 0 0 0 0 0 0 0.12 0"/>
<feBlend mode="plus-darker" in2="BackgroundImageFix" result="effect1_dropShadow_366_9810"/>
<feBlend mode="normal" in="SourceGraphic" in2="effect1_dropShadow_366_9810" result="shape"/>
</filter>
<linearGradient id="paint0_linear_366_9810" x1="-22.9167" y1="-22.9167" x2="151.524" y2="68.0723" gradientUnits="userSpaceOnUse">
<stop stop-color="#3D75EE"/>
<stop offset="1" stop-color="#5785E8"/>
</linearGradient>
<linearGradient id="paint1_linear_366_9810" x1="50" y1="-6.39145" x2="50" y2="105.635" gradientUnits="userSpaceOnUse">
<stop stop-color="white"/>
<stop offset="1" stop-color="white" stop-opacity="0"/>
</linearGradient>
<radialGradient id="paint2_radial_366_9810" cx="0" cy="0" r="1" gradientUnits="userSpaceOnUse" gradientTransform="translate(50 25.7865) rotate(90) scale(73.89 56.0618)">
<stop stop-color="white"/>
<stop offset="1" stop-color="white" stop-opacity="0"/>
</radialGradient>
<linearGradient id="paint3_linear_366_9810" x1="-22.9167" y1="-22.9167" x2="151.524" y2="68.0723" gradientUnits="userSpaceOnUse">
<stop stop-color="#3D75EE"/>
<stop offset="1" stop-color="#5785E8"/>
</linearGradient>
<linearGradient id="paint4_linear_366_9810" x1="50" y1="-6.39145" x2="50" y2="105.635" gradientUnits="userSpaceOnUse">
<stop stop-color="white"/>
<stop offset="1" stop-color="white" stop-opacity="0"/>
</linearGradient>
<radialGradient id="paint5_radial_366_9810" cx="0" cy="0" r="1" gradientUnits="userSpaceOnUse" gradientTransform="translate(50 25.7865) rotate(90) scale(73.89 56.0618)">
<stop stop-color="white"/>
<stop offset="1" stop-color="white" stop-opacity="0"/>
</radialGradient>
<linearGradient id="paint6_linear_366_9810" x1="-22.9167" y1="-22.9167" x2="-22.9167" y2="122.917" gradientUnits="userSpaceOnUse">
<stop offset="0.135095" stop-color="white"/>
<stop offset="0.877908" stop-color="white" stop-opacity="0.01"/>
</linearGradient>
<linearGradient id="paint7_linear_366_9810" x1="50" y1="0" x2="50" y2="100" gradientUnits="userSpaceOnUse">
<stop stop-color="white"/>
<stop offset="1" stop-color="#999999"/>
</linearGradient>
<linearGradient id="paint8_linear_366_9810" x1="50" y1="33.3333" x2="50" y2="66.3333" gradientUnits="userSpaceOnUse">
<stop stop-color="#DFDFDF"/>
<stop offset="1" stop-color="#A9A9A9"/>
</linearGradient>
</defs>
</svg>
