<svg width="100" height="100" viewBox="0 0 100 100" fill="none" xmlns="http://www.w3.org/2000/svg">
<mask id="mask0_366_9818" style="mask-type:alpha" maskUnits="userSpaceOnUse" x="0" y="0" width="100" height="100">
<circle cx="50" cy="50" r="50" fill="white"/>
</mask>
<g mask="url(#mask0_366_9818)">
<mask id="mask1_366_9818" style="mask-type:alpha" maskUnits="userSpaceOnUse" x="0" y="0" width="100" height="100">
<circle cx="50" cy="50" r="50" fill="white"/>
</mask>
<g mask="url(#mask1_366_9818)">
<rect x="-22.9167" y="-22.9167" width="145.833" height="145.833" fill="url(#paint0_linear_366_9818)"/>
<rect x="-22.9167" y="-22.9167" width="145.833" height="145.833" fill="url(#paint1_linear_366_9818)" fill-opacity="0.6" style="mix-blend-mode:overlay"/>
<rect x="-22.9167" y="-22.9167" width="145.833" height="145.833" fill="url(#paint2_radial_366_9818)" fill-opacity="0.6" style="mix-blend-mode:overlay"/>
<rect x="-22.9167" y="-22.9167" width="145.833" height="145.833" fill="black" fill-opacity="0.16" style="mix-blend-mode:overlay"/>
<rect x="-22.9167" y="-22.9167" width="145.833" height="145.833" fill="black" fill-opacity="0.12" style="mix-blend-mode:darken"/>
</g>
<g filter="url(#filter0_d_366_9818)">
<mask id="mask2_366_9818" style="mask-type:alpha" maskUnits="userSpaceOnUse" x="0" y="0" width="100" height="100">
<path fill-rule="evenodd" clip-rule="evenodd" d="M95.8333 50C95.8333 75.313 75.313 95.8333 50 95.8333C24.6869 95.8333 4.16667 75.313 4.16667 50C4.16667 24.6869 24.6869 4.16667 50 4.16667C75.313 4.16667 95.8333 24.6869 95.8333 50ZM100 50C100 77.6142 77.6142 100 50 100C22.3858 100 0 77.6142 0 50C0 22.3858 22.3858 0 50 0C77.6142 0 100 22.3858 100 50ZM50 88.0208C70.9983 88.0208 88.0208 70.9983 88.0208 50C88.0208 29.0017 70.9983 11.9792 50 11.9792C29.0017 11.9792 11.9792 29.0017 11.9792 50C11.9792 70.9983 29.0017 88.0208 50 88.0208Z" fill="white"/>
</mask>
<g mask="url(#mask2_366_9818)">
<rect x="-22.9167" y="-22.9167" width="145.833" height="145.833" fill="url(#paint3_linear_366_9818)"/>
<rect x="-22.9167" y="-22.9167" width="145.833" height="145.833" fill="url(#paint4_linear_366_9818)" fill-opacity="0.6" style="mix-blend-mode:overlay"/>
<rect x="-22.9167" y="-22.9167" width="145.833" height="145.833" fill="url(#paint5_radial_366_9818)" fill-opacity="0.6" style="mix-blend-mode:overlay"/>
<g style="mix-blend-mode:soft-light">
<path fill-rule="evenodd" clip-rule="evenodd" d="M-22.9167 -22.9167H64.5833L36.6578 122.917H-22.9167V-22.9167Z" fill="url(#paint6_linear_366_9818)" style="mix-blend-mode:lighten"/>
</g>
<g style="mix-blend-mode:soft-light">
<mask id="path-10-inside-1_366_9818" fill="white">
<path fill-rule="evenodd" clip-rule="evenodd" d="M95.8333 50C95.8333 75.313 75.313 95.8333 50 95.8333C24.6869 95.8333 4.16667 75.313 4.16667 50C4.16667 24.6869 24.6869 4.16667 50 4.16667C75.313 4.16667 95.8333 24.6869 95.8333 50ZM100 50C100 77.6142 77.6142 100 50 100C22.3858 100 0 77.6142 0 50C0 22.3858 22.3858 0 50 0C77.6142 0 100 22.3858 100 50ZM50 88.0208C70.9983 88.0208 88.0208 70.9983 88.0208 50C88.0208 29.0017 70.9983 11.9792 50 11.9792C29.0017 11.9792 11.9792 29.0017 11.9792 50C11.9792 70.9983 29.0017 88.0208 50 88.0208Z"/>
</mask>
<path d="M50 96.0938C75.4569 96.0938 96.0938 75.4569 96.0938 50H95.5729C95.5729 75.1692 75.1692 95.5729 50 95.5729V96.0938ZM3.90625 50C3.90625 75.4569 24.5431 96.0938 50 96.0938V95.5729C24.8308 95.5729 4.42708 75.1692 4.42708 50H3.90625ZM50 3.90625C24.5431 3.90625 3.90625 24.5431 3.90625 50H4.42708C4.42708 24.8308 24.8308 4.42708 50 4.42708V3.90625ZM96.0938 50C96.0938 24.5431 75.4569 3.90625 50 3.90625V4.42708C75.1692 4.42708 95.5729 24.8308 95.5729 50H96.0938ZM50 100.26C77.7581 100.26 100.26 77.7581 100.26 50H99.7396C99.7396 77.4704 77.4704 99.7396 50 99.7396V100.26ZM-0.260417 50C-0.260417 77.7581 22.2419 100.26 50 100.26V99.7396C22.5296 99.7396 0.260417 77.4704 0.260417 50H-0.260417ZM50 -0.260417C22.2419 -0.260417 -0.260417 22.2419 -0.260417 50H0.260417C0.260417 22.5296 22.5296 0.260417 50 0.260417V-0.260417ZM100.26 50C100.26 22.2419 77.7581 -0.260417 50 -0.260417V0.260417C77.4704 0.260417 99.7396 22.5296 99.7396 50H100.26ZM87.7604 50C87.7604 70.8545 70.8545 87.7604 50 87.7604V88.2812C71.1421 88.2812 88.2812 71.1421 88.2812 50H87.7604ZM50 12.2396C70.8545 12.2396 87.7604 29.1455 87.7604 50H88.2812C88.2812 28.8578 71.1421 11.7188 50 11.7188V12.2396ZM12.2396 50C12.2396 29.1455 29.1455 12.2396 50 12.2396V11.7188C28.8578 11.7188 11.7188 28.8578 11.7188 50H12.2396ZM50 87.7604C29.1455 87.7604 12.2396 70.8545 12.2396 50H11.7188C11.7188 71.1421 28.8578 88.2812 50 88.2812V87.7604Z" fill="url(#paint7_linear_366_9818)" mask="url(#path-10-inside-1_366_9818)"/>
</g>
</g>
</g>
</g>
<g filter="url(#filter1_d_366_9818)">
<mask id="path-12-outside-2_366_9818" maskUnits="userSpaceOnUse" x="28.3333" y="36.3333" width="43" height="27" fill="black">
<rect fill="white" x="28.3333" y="36.3333" width="43" height="27"/>
<path d="M37.68 62.2C37.0133 62.2 36.68 61.8667 36.68 61.2L36.38 42.3667L30.28 42.3333C29.9244 42.3333 29.6355 42.2333 29.4133 42.0333C29.2133 41.8111 29.1133 41.5222 29.1133 41.1667V38.4333C29.1133 38.0778 29.2133 37.8 29.4133 37.6C29.6355 37.3778 29.9244 37.2667 30.28 37.2667L48.38 37.2333C48.7355 37.2333 49.0133 37.3444 49.2133 37.5667C49.4355 37.7667 49.5466 38.0444 49.5466 38.4V41.1333C49.5466 41.4889 49.4355 41.7778 49.2133 42C49.0133 42.2 48.7355 42.3 48.38 42.3L42.28 42.3667L41.9466 61.2C41.9466 61.8667 41.6133 62.2 40.9466 62.2H37.68ZM67.4646 44.7C67.2424 44.8778 66.9868 44.9778 66.6979 45C66.4313 45 66.1979 44.8667 65.9979 44.6C65.4868 43.8889 64.8535 43.3333 64.0979 42.9333C63.3646 42.5111 62.4646 42.3 61.3979 42.3C60.5757 42.3 59.7868 42.4889 59.0313 42.8667C58.2979 43.2222 57.6535 43.7444 57.0979 44.4333C56.5646 45.1 56.1313 45.9333 55.7979 46.9333C55.4868 47.9111 55.3313 49.0111 55.3313 50.2333C55.909 49.3222 56.7424 48.6 57.8313 48.0667C58.9424 47.5333 60.1202 47.2667 61.3646 47.2667C62.6757 47.2667 63.8313 47.4667 64.8313 47.8667C65.8535 48.2444 66.709 48.7667 67.3979 49.4333C68.0868 50.1 68.609 50.8778 68.9646 51.7667C69.3202 52.6556 69.4979 53.6 69.4979 54.6C69.4979 55.8444 69.2868 56.9556 68.8646 57.9333C68.4424 58.9111 67.8424 59.7444 67.0646 60.4333C66.2868 61.1222 65.3424 61.6444 64.2313 62C63.1202 62.3556 61.8868 62.5333 60.5313 62.5333C58.909 62.5333 57.4424 62.2 56.1313 61.5333C54.8424 60.8889 53.7424 60 52.8313 58.8667C51.9424 57.7333 51.2535 56.3889 50.7646 54.8333C50.2757 53.2778 50.0313 51.6 50.0313 49.8C50.0313 47.9111 50.3202 46.1778 50.8979 44.6C51.4757 43 52.2646 41.6222 53.2646 40.4667C54.2646 39.2889 55.4424 38.3778 56.7979 37.7333C58.1535 37.0667 59.609 36.7333 61.1646 36.7333C62.2979 36.7333 63.3202 36.8556 64.2313 37.1C65.1646 37.3222 65.9979 37.6444 66.7313 38.0667C67.4868 38.4889 68.1535 38.9889 68.7313 39.5667C69.3313 40.1222 69.8646 40.7444 70.3313 41.4333C70.4868 41.6556 70.5535 41.8889 70.5313 42.1333C70.5313 42.3778 70.4202 42.6 70.1979 42.8L67.4646 44.7ZM56.5646 54.8667C56.5646 55.6889 56.9424 56.3444 57.6979 56.8333C58.4535 57.3 59.3868 57.5333 60.4979 57.5333C61.5868 57.5333 62.4646 57.2667 63.1313 56.7333C63.8202 56.1778 64.1646 55.5556 64.1646 54.8667C64.1646 54.1556 63.8313 53.5333 63.1646 53C62.5202 52.4667 61.6424 52.2 60.5313 52.2C59.4202 52.2 58.4757 52.4222 57.6979 52.8667C56.9424 53.3111 56.5646 53.9778 56.5646 54.8667Z"/>
</mask>
<path d="M37.68 62.2C37.0133 62.2 36.68 61.8667 36.68 61.2L36.38 42.3667L30.28 42.3333C29.9244 42.3333 29.6355 42.2333 29.4133 42.0333C29.2133 41.8111 29.1133 41.5222 29.1133 41.1667V38.4333C29.1133 38.0778 29.2133 37.8 29.4133 37.6C29.6355 37.3778 29.9244 37.2667 30.28 37.2667L48.38 37.2333C48.7355 37.2333 49.0133 37.3444 49.2133 37.5667C49.4355 37.7667 49.5466 38.0444 49.5466 38.4V41.1333C49.5466 41.4889 49.4355 41.7778 49.2133 42C49.0133 42.2 48.7355 42.3 48.38 42.3L42.28 42.3667L41.9466 61.2C41.9466 61.8667 41.6133 62.2 40.9466 62.2H37.68ZM67.4646 44.7C67.2424 44.8778 66.9868 44.9778 66.6979 45C66.4313 45 66.1979 44.8667 65.9979 44.6C65.4868 43.8889 64.8535 43.3333 64.0979 42.9333C63.3646 42.5111 62.4646 42.3 61.3979 42.3C60.5757 42.3 59.7868 42.4889 59.0313 42.8667C58.2979 43.2222 57.6535 43.7444 57.0979 44.4333C56.5646 45.1 56.1313 45.9333 55.7979 46.9333C55.4868 47.9111 55.3313 49.0111 55.3313 50.2333C55.909 49.3222 56.7424 48.6 57.8313 48.0667C58.9424 47.5333 60.1202 47.2667 61.3646 47.2667C62.6757 47.2667 63.8313 47.4667 64.8313 47.8667C65.8535 48.2444 66.709 48.7667 67.3979 49.4333C68.0868 50.1 68.609 50.8778 68.9646 51.7667C69.3202 52.6556 69.4979 53.6 69.4979 54.6C69.4979 55.8444 69.2868 56.9556 68.8646 57.9333C68.4424 58.9111 67.8424 59.7444 67.0646 60.4333C66.2868 61.1222 65.3424 61.6444 64.2313 62C63.1202 62.3556 61.8868 62.5333 60.5313 62.5333C58.909 62.5333 57.4424 62.2 56.1313 61.5333C54.8424 60.8889 53.7424 60 52.8313 58.8667C51.9424 57.7333 51.2535 56.3889 50.7646 54.8333C50.2757 53.2778 50.0313 51.6 50.0313 49.8C50.0313 47.9111 50.3202 46.1778 50.8979 44.6C51.4757 43 52.2646 41.6222 53.2646 40.4667C54.2646 39.2889 55.4424 38.3778 56.7979 37.7333C58.1535 37.0667 59.609 36.7333 61.1646 36.7333C62.2979 36.7333 63.3202 36.8556 64.2313 37.1C65.1646 37.3222 65.9979 37.6444 66.7313 38.0667C67.4868 38.4889 68.1535 38.9889 68.7313 39.5667C69.3313 40.1222 69.8646 40.7444 70.3313 41.4333C70.4868 41.6556 70.5535 41.8889 70.5313 42.1333C70.5313 42.3778 70.4202 42.6 70.1979 42.8L67.4646 44.7ZM56.5646 54.8667C56.5646 55.6889 56.9424 56.3444 57.6979 56.8333C58.4535 57.3 59.3868 57.5333 60.4979 57.5333C61.5868 57.5333 62.4646 57.2667 63.1313 56.7333C63.8202 56.1778 64.1646 55.5556 64.1646 54.8667C64.1646 54.1556 63.8313 53.5333 63.1646 53C62.5202 52.4667 61.6424 52.2 60.5313 52.2C59.4202 52.2 58.4757 52.4222 57.6979 52.8667C56.9424 53.3111 56.5646 53.9778 56.5646 54.8667Z" fill="white"/>
<path d="M36.68 61.2H36.9404L36.9403 61.1959L36.68 61.2ZM36.38 42.3667L36.6403 42.3625L36.6363 42.1076L36.3814 42.1063L36.38 42.3667ZM30.28 42.3333L30.2814 42.0729H30.28V42.3333ZM29.4133 42.0333L29.2197 42.2075L29.2289 42.2177L29.2391 42.2269L29.4133 42.0333ZM29.4133 37.6L29.2292 37.4159L29.4133 37.6ZM30.28 37.2667V37.5271L30.2804 37.5271L30.28 37.2667ZM48.38 37.2333V36.9729L48.3795 36.9729L48.38 37.2333ZM49.2133 37.5667L49.0197 37.7409L49.0289 37.7511L49.0391 37.7602L49.2133 37.5667ZM48.38 42.3V42.0396L48.3771 42.0396L48.38 42.3ZM42.28 42.3667L42.2771 42.1063L42.0241 42.109L42.0196 42.3621L42.28 42.3667ZM41.9466 61.2L41.6862 61.1954V61.2H41.9466ZM37.68 61.9396C37.3868 61.9396 37.2147 61.8665 37.1141 61.7659C37.0135 61.6653 36.9404 61.4932 36.9404 61.2H36.4195C36.4195 61.5735 36.5131 61.9014 36.7458 62.1341C36.9785 62.3669 37.3065 62.4604 37.68 62.4604V61.9396ZM36.9403 61.1959L36.6403 42.3625L36.1196 42.3708L36.4196 61.2041L36.9403 61.1959ZM36.3814 42.1063L30.2814 42.0729L30.2785 42.5937L36.3785 42.6271L36.3814 42.1063ZM30.28 42.0729C29.9759 42.0729 29.7531 41.9888 29.5875 41.8398L29.2391 42.2269C29.5179 42.4778 29.8729 42.5937 30.28 42.5937V42.0729ZM29.6069 41.8591C29.4578 41.6935 29.3737 41.4708 29.3737 41.1667H28.8529C28.8529 41.5737 28.9688 41.9287 29.2197 42.2075L29.6069 41.8591ZM29.3737 41.1667V38.4333H28.8529V41.1667H29.3737ZM29.3737 38.4333C29.3737 38.1281 29.4581 37.9235 29.5974 37.7841L29.2292 37.4159C28.9685 37.6765 28.8529 38.0274 28.8529 38.4333H29.3737ZM29.5974 37.7841C29.7642 37.6173 29.9836 37.5271 30.28 37.5271V37.0062C29.8652 37.0062 29.5068 37.1382 29.2292 37.4159L29.5974 37.7841ZM30.2804 37.5271L48.3804 37.4937L48.3795 36.9729L30.2795 37.0062L30.2804 37.5271ZM48.38 37.4937C48.6769 37.4937 48.8785 37.5839 49.0197 37.7409L49.4069 37.3925C49.1481 37.105 48.7941 36.9729 48.38 36.9729V37.4937ZM49.0391 37.7602C49.196 37.9015 49.2862 38.103 49.2862 38.4H49.807C49.807 37.9859 49.675 37.6318 49.3875 37.3731L49.0391 37.7602ZM49.2862 38.4V41.1333H49.807V38.4H49.2862ZM49.2862 41.1333C49.2862 41.4297 49.196 41.649 49.0292 41.8159L49.3974 42.1841C49.6751 41.9065 49.807 41.5481 49.807 41.1333H49.2862ZM49.0292 41.8159C48.8898 41.9552 48.6852 42.0396 48.38 42.0396V42.5604C48.7859 42.5604 49.1368 42.4448 49.3974 42.1841L49.0292 41.8159ZM48.3771 42.0396L42.2771 42.1063L42.2828 42.6271L48.3828 42.5604L48.3771 42.0396ZM42.0196 42.3621L41.6862 61.1954L42.207 61.2046L42.5403 42.3713L42.0196 42.3621ZM41.6862 61.2C41.6862 61.4932 41.6131 61.6653 41.5125 61.7659C41.4119 61.8665 41.2398 61.9396 40.9466 61.9396V62.4604C41.3201 62.4604 41.648 62.3669 41.8808 62.1341C42.1135 61.9014 42.207 61.5735 42.207 61.2H41.6862ZM40.9466 61.9396H37.68V62.4604H40.9466V61.9396ZM67.4646 44.7L67.316 44.4862L67.3088 44.4912L67.3019 44.4966L67.4646 44.7ZM66.6979 45V45.2604H66.7079L66.7179 45.2596L66.6979 45ZM65.9979 44.6L65.7864 44.752L65.7896 44.7562L65.9979 44.6ZM64.0979 42.9333L63.9679 43.1592L63.9761 43.1635L64.0979 42.9333ZM59.0313 42.8667L59.1449 43.101L59.1477 43.0996L59.0313 42.8667ZM57.0979 44.4333L56.8952 44.2699L56.8946 44.2707L57.0979 44.4333ZM55.7979 46.9333L55.5509 46.851L55.5498 46.8544L55.7979 46.9333ZM55.3313 50.2333H55.0708V51.1303L55.5512 50.3728L55.3313 50.2333ZM57.8313 48.0667L57.7186 47.8319L57.7167 47.8328L57.8313 48.0667ZM64.8313 47.8667L64.7345 48.1085L64.741 48.1109L64.8313 47.8667ZM67.3979 49.4333L67.579 49.2462L67.3979 49.4333ZM68.9646 51.7667L69.2064 51.67V51.6699L68.9646 51.7667ZM68.8646 57.9333L68.6255 57.8301L68.8646 57.9333ZM67.0646 60.4333L66.8919 60.2384L67.0646 60.4333ZM56.1313 61.5333L56.2493 61.3012L56.2477 61.3004L56.1313 61.5333ZM52.8313 58.8667L52.6263 59.0274L52.6283 59.0298L52.8313 58.8667ZM50.7646 54.8333L50.5162 54.9114L50.7646 54.8333ZM50.8979 44.6L51.1425 44.6895L51.1429 44.6884L50.8979 44.6ZM53.2646 40.4667L53.4615 40.6371L53.4631 40.6352L53.2646 40.4667ZM56.7979 37.7333L56.9098 37.9685L56.9129 37.967L56.7979 37.7333ZM64.2313 37.1L64.1638 37.3516L64.1709 37.3533L64.2313 37.1ZM66.7313 38.0667L66.6013 38.2924L66.6042 38.294L66.7313 38.0667ZM68.7313 39.5667L68.547 39.7509L68.5543 39.7577L68.7313 39.5667ZM70.3313 41.4333L70.1156 41.5794L70.1179 41.5827L70.3313 41.4333ZM70.5313 42.1333L70.2719 42.1098L70.2708 42.1215V42.1333H70.5313ZM70.1979 42.8L70.3466 43.0138L70.36 43.0045L70.3721 42.9936L70.1979 42.8ZM57.6979 56.8333L57.5564 57.052L57.5611 57.0549L57.6979 56.8333ZM63.1313 56.7333L63.2939 56.9367L63.2947 56.936L63.1313 56.7333ZM63.1646 53L62.9985 53.2006L63.0019 53.2034L63.1646 53ZM57.6979 52.8667L57.5687 52.6405L57.5659 52.6422L57.6979 52.8667ZM67.3019 44.4966C67.1213 44.6411 66.9157 44.7221 66.678 44.7403L66.7179 45.2596C67.0579 45.2335 67.3634 45.1144 67.6273 44.9033L67.3019 44.4966ZM66.6979 44.7396C66.5336 44.7396 66.3707 44.663 66.2063 44.4437L65.7896 44.7562C66.0251 45.0703 66.329 45.2604 66.6979 45.2604V44.7396ZM66.2094 44.448C65.6754 43.7051 65.0117 43.1224 64.2198 42.7032L63.9761 43.1635C64.6953 43.5442 65.2982 44.0727 65.7865 44.752L66.2094 44.448ZM64.2279 42.7076C63.446 42.2575 62.4985 42.0396 61.3979 42.0396V42.5604C62.4307 42.5604 63.2832 42.7648 63.968 43.159L64.2279 42.7076ZM61.3979 42.0396C60.5341 42.0396 59.7055 42.2384 58.9148 42.6337L59.1477 43.0996C59.8681 42.7394 60.6173 42.5604 61.3979 42.5604V42.0396ZM58.9176 42.6323C58.1469 43.0061 57.4728 43.5537 56.8952 44.2699L57.3006 44.5968C57.8342 43.9352 58.449 43.4384 59.1449 43.101L58.9176 42.6323ZM56.8946 44.2707C56.3381 44.9662 55.8917 45.8284 55.5509 46.851L56.045 47.0157C56.3708 46.0382 56.791 45.2338 57.3013 44.596L56.8946 44.2707ZM55.5498 46.8544C55.2292 47.862 55.0708 48.9893 55.0708 50.2333H55.5917C55.5917 49.0329 55.7445 47.9602 56.0461 47.0123L55.5498 46.8544ZM55.5512 50.3728C56.1001 49.5071 56.8946 48.8154 57.9458 48.3005L57.7167 47.8328C56.5901 48.3846 55.7179 49.1373 55.1113 50.0939L55.5512 50.3728ZM57.944 48.3014C59.0195 47.7852 60.1588 47.5271 61.3646 47.5271V47.0062C60.0815 47.0062 58.8652 47.2815 57.7186 47.8319L57.944 48.3014ZM61.3646 47.5271C62.6496 47.5271 63.7712 47.7231 64.7345 48.1085L64.928 47.6249C63.8913 47.2102 62.7018 47.0062 61.3646 47.0062V47.5271ZM64.741 48.1109C65.7339 48.4779 66.5573 48.9822 67.2168 49.6205L67.579 49.2462C66.8608 48.5512 65.973 48.011 64.9215 47.6224L64.741 48.1109ZM67.2168 49.6205C67.8794 50.2616 68.3809 51.0086 68.7228 51.8634L69.2064 51.6699C68.8372 50.7469 68.2943 49.9384 67.579 49.2462L67.2168 49.6205ZM68.7228 51.8634C69.0655 52.7201 69.2375 53.6316 69.2375 54.6H69.7583C69.7583 53.5684 69.5748 52.591 69.2064 51.67L68.7228 51.8634ZM69.2375 54.6C69.2375 55.8148 69.0315 56.8899 68.6255 57.8301L69.1037 58.0366C69.5421 57.0212 69.7583 55.874 69.7583 54.6H69.2375ZM68.6255 57.8301C68.218 58.7737 67.6404 59.5755 66.8919 60.2384L67.2373 60.6283C68.0444 59.9134 68.6667 59.0485 69.1037 58.0366L68.6255 57.8301ZM66.8919 60.2384C66.1444 60.9005 65.2328 61.4061 64.1519 61.752L64.3106 62.248C65.452 61.8828 66.4293 61.3439 67.2373 60.6283L66.8919 60.2384ZM64.1519 61.752C63.0702 62.0981 61.8641 62.2729 60.5313 62.2729V62.7937C61.9095 62.7937 63.1701 62.613 64.3106 62.248L64.1519 61.752ZM60.5313 62.2729C58.9458 62.2729 57.5202 61.9474 56.2493 61.3012L56.0132 61.7655C57.3645 62.4526 58.8723 62.7937 60.5313 62.7937V62.2729ZM56.2477 61.3004C54.9927 60.6729 53.9221 59.8079 53.0342 58.7035L52.6283 59.0298C53.5627 60.1921 54.6921 61.1049 56.0148 61.7663L56.2477 61.3004ZM53.0362 58.706C52.169 57.6004 51.4937 56.2848 51.013 54.7553L50.5162 54.9114C51.0132 56.493 51.7157 57.8663 52.6264 59.0274L53.0362 58.706ZM51.013 54.7553C50.5329 53.2274 50.2917 51.5762 50.2917 49.8H49.7708C49.7708 51.6238 50.0186 53.3281 50.5162 54.9114L51.013 54.7553ZM50.2917 49.8C50.2917 47.9379 50.5764 46.2353 51.1425 44.6895L50.6534 44.5104C50.0639 46.1202 49.7708 47.8843 49.7708 49.8H50.2917ZM51.1429 44.6884C51.711 43.1151 52.4846 41.7659 53.4615 40.6371L53.0677 40.2963C52.0445 41.4785 51.2404 42.8849 50.653 44.5115L51.1429 44.6884ZM53.4631 40.6352C54.44 39.4847 55.5885 38.5967 56.9097 37.9685L56.6861 37.4981C55.2963 38.1589 54.0892 39.0931 53.0661 40.2981L53.4631 40.6352ZM56.9129 37.967C58.2316 37.3185 59.6477 36.9937 61.1646 36.9937V36.4729C59.5704 36.4729 58.0754 36.8149 56.683 37.4996L56.9129 37.967ZM61.1646 36.9937C62.2796 36.9937 63.2786 37.114 64.1638 37.3515L64.2987 36.8485C63.3617 36.5971 62.3163 36.4729 61.1646 36.4729V36.9937ZM64.1709 37.3533C65.0831 37.5705 65.8924 37.8842 66.6013 38.2923L66.8612 37.841C66.1034 37.4047 65.2461 37.0739 64.2916 36.8467L64.1709 37.3533ZM66.6042 38.294C67.3401 38.7052 67.9873 39.191 68.5471 39.7508L68.9154 39.3825C68.3197 38.7868 67.6335 38.2726 66.8583 37.8393L66.6042 38.294ZM68.5543 39.7577C69.1395 40.2996 69.6599 40.9066 70.1157 41.5794L70.5469 41.2873C70.0693 40.5822 69.523 39.9449 68.9082 39.3756L68.5543 39.7577ZM70.1179 41.5827C70.2422 41.7602 70.288 41.9331 70.2719 42.1098L70.7906 42.1569C70.819 41.8446 70.7315 41.5509 70.5446 41.284L70.1179 41.5827ZM70.2708 42.1333C70.2708 42.2878 70.2043 42.4439 70.0237 42.6064L70.3721 42.9936C70.636 42.7561 70.7917 42.4677 70.7917 42.1333H70.2708ZM70.0493 42.5862L67.316 44.4862L67.6132 44.9138L70.3466 43.0138L70.0493 42.5862ZM56.3042 54.8667C56.3042 55.7867 56.7351 56.5205 57.5565 57.052L57.8394 56.6147C57.1497 56.1684 56.825 55.5911 56.825 54.8667H56.3042ZM57.5611 57.0549C58.3669 57.5526 59.3505 57.7937 60.4979 57.7937V57.2729C59.4231 57.2729 58.54 57.0474 57.8348 56.6118L57.5611 57.0549ZM60.4979 57.7937C61.6294 57.7937 62.5696 57.5161 63.2939 56.9367L62.9686 56.53C62.3595 57.0172 61.5442 57.2729 60.4979 57.2729V57.7937ZM63.2947 56.936C64.026 56.3463 64.425 55.6558 64.425 54.8667H63.9042C63.9042 55.4553 63.6143 56.0092 62.9678 56.5306L63.2947 56.936ZM64.425 54.8667C64.425 54.0604 64.042 53.3684 63.3273 52.7966L63.0019 53.2034C63.6206 53.6983 63.9042 54.2508 63.9042 54.8667H64.425ZM63.3306 52.7994C62.6261 52.2163 61.683 51.9396 60.5313 51.9396V52.4604C61.6018 52.4604 62.4142 52.717 62.9986 53.2006L63.3306 52.7994ZM60.5313 51.9396C59.3856 51.9396 58.3943 52.1688 57.5687 52.6406L57.8271 53.0928C58.5572 52.6756 59.4547 52.4604 60.5313 52.4604V51.9396ZM57.5659 52.6422C56.7294 53.1342 56.3042 53.8871 56.3042 54.8667H56.825C56.825 54.0685 57.1553 53.488 57.83 53.0911L57.5659 52.6422Z" fill="url(#paint8_linear_366_9818)" style="mix-blend-mode:color-burn" mask="url(#path-12-outside-2_366_9818)"/>
</g>
<defs>
<filter id="filter0_d_366_9818" x="-4.16667" y="-3.125" width="108.333" height="108.333" filterUnits="userSpaceOnUse" color-interpolation-filters="sRGB">
<feFlood flood-opacity="0" result="BackgroundImageFix"/>
<feColorMatrix in="SourceAlpha" type="matrix" values="0 0 0 0 0 0 0 0 0 0 0 0 0 0 0 0 0 0 127 0" result="hardAlpha"/>
<feOffset dy="1.04167"/>
<feGaussianBlur stdDeviation="2.08333"/>
<feColorMatrix type="matrix" values="0 0 0 0 0 0 0 0 0 0 0 0 0 0 0 0 0 0 0.16 0"/>
<feBlend mode="color-burn" in2="BackgroundImageFix" result="effect1_dropShadow_366_9818"/>
<feBlend mode="normal" in="SourceGraphic" in2="effect1_dropShadow_366_9818" result="shape"/>
</filter>
<filter id="filter1_d_366_9818" x="22.6029" y="31.2646" width="54.443" height="38.8208" filterUnits="userSpaceOnUse" color-interpolation-filters="sRGB">
<feFlood flood-opacity="0" result="BackgroundImageFix"/>
<feColorMatrix in="SourceAlpha" type="matrix" values="0 0 0 0 0 0 0 0 0 0 0 0 0 0 0 0 0 0 127 0" result="hardAlpha"/>
<feOffset dy="1.04167"/>
<feGaussianBlur stdDeviation="3.125"/>
<feColorMatrix type="matrix" values="0 0 0 0 0 0 0 0 0 0 0 0 0 0 0 0 0 0 0.12 0"/>
<feBlend mode="plus-darker" in2="BackgroundImageFix" result="effect1_dropShadow_366_9818"/>
<feBlend mode="normal" in="SourceGraphic" in2="effect1_dropShadow_366_9818" result="shape"/>
</filter>
<linearGradient id="paint0_linear_366_9818" x1="122.917" y1="122.917" x2="-51.5238" y2="31.9277" gradientUnits="userSpaceOnUse">
<stop stop-color="#AD49E8"/>
<stop offset="1" stop-color="#831DBF"/>
</linearGradient>
<linearGradient id="paint1_linear_366_9818" x1="50" y1="-6.39144" x2="50" y2="105.635" gradientUnits="userSpaceOnUse">
<stop stop-color="white"/>
<stop offset="1" stop-color="white" stop-opacity="0"/>
</linearGradient>
<radialGradient id="paint2_radial_366_9818" cx="0" cy="0" r="1" gradientUnits="userSpaceOnUse" gradientTransform="translate(50 25.7865) rotate(90) scale(73.89 56.0618)">
<stop stop-color="white"/>
<stop offset="1" stop-color="white" stop-opacity="0"/>
</radialGradient>
<linearGradient id="paint3_linear_366_9818" x1="122.917" y1="122.917" x2="-51.5238" y2="31.9277" gradientUnits="userSpaceOnUse">
<stop stop-color="#AD49E8"/>
<stop offset="1" stop-color="#831DBF"/>
</linearGradient>
<linearGradient id="paint4_linear_366_9818" x1="50" y1="-6.39144" x2="50" y2="105.635" gradientUnits="userSpaceOnUse">
<stop stop-color="white"/>
<stop offset="1" stop-color="white" stop-opacity="0"/>
</linearGradient>
<radialGradient id="paint5_radial_366_9818" cx="0" cy="0" r="1" gradientUnits="userSpaceOnUse" gradientTransform="translate(50 25.7865) rotate(90) scale(73.89 56.0618)">
<stop stop-color="white"/>
<stop offset="1" stop-color="white" stop-opacity="0"/>
</radialGradient>
<linearGradient id="paint6_linear_366_9818" x1="-22.9167" y1="-22.9167" x2="-22.9167" y2="122.917" gradientUnits="userSpaceOnUse">
<stop offset="0.135095" stop-color="white"/>
<stop offset="0.877908" stop-color="white" stop-opacity="0.01"/>
</linearGradient>
<linearGradient id="paint7_linear_366_9818" x1="50" y1="0" x2="50" y2="100" gradientUnits="userSpaceOnUse">
<stop stop-color="white"/>
<stop offset="1" stop-color="#999999"/>
</linearGradient>
<linearGradient id="paint8_linear_366_9818" x1="50" y1="33.3333" x2="50" y2="66.3333" gradientUnits="userSpaceOnUse">
<stop stop-color="#DFDFDF"/>
<stop offset="1" stop-color="#A9A9A9"/>
</linearGradient>
</defs>
</svg>
