<svg width="100" height="100" viewBox="0 0 100 100" fill="none" xmlns="http://www.w3.org/2000/svg">
<mask id="mask0_366_10169" style="mask-type:alpha" maskUnits="userSpaceOnUse" x="0" y="0" width="100" height="100">
<circle cx="50" cy="50" r="50" fill="white"/>
</mask>
<g mask="url(#mask0_366_10169)">
<mask id="mask1_366_10169" style="mask-type:alpha" maskUnits="userSpaceOnUse" x="0" y="0" width="100" height="100">
<circle cx="50" cy="50" r="50" fill="white"/>
</mask>
<g mask="url(#mask1_366_10169)">
<rect x="-22.9167" y="-22.9167" width="145.833" height="145.833" fill="url(#paint0_linear_366_10169)"/>
<rect x="-22.9167" y="-22.9167" width="145.833" height="145.833" fill="url(#paint1_linear_366_10169)" fill-opacity="0.6" style="mix-blend-mode:overlay"/>
<rect x="-22.9167" y="-22.9167" width="145.833" height="145.833" fill="url(#paint2_radial_366_10169)" fill-opacity="0.6" style="mix-blend-mode:overlay"/>
<rect x="-22.9167" y="-22.9167" width="145.833" height="145.833" fill="black" fill-opacity="0.16" style="mix-blend-mode:overlay"/>
<rect x="-22.9167" y="-22.9167" width="145.833" height="145.833" fill="black" fill-opacity="0.12" style="mix-blend-mode:darken"/>
</g>
<g filter="url(#filter0_d_366_10169)">
<mask id="mask2_366_10169" style="mask-type:alpha" maskUnits="userSpaceOnUse" x="0" y="0" width="100" height="100">
<path fill-rule="evenodd" clip-rule="evenodd" d="M95.8333 50C95.8333 75.313 75.313 95.8333 50 95.8333C24.6869 95.8333 4.16667 75.313 4.16667 50C4.16667 24.6869 24.6869 4.16667 50 4.16667C75.313 4.16667 95.8333 24.6869 95.8333 50ZM100 50C100 77.6142 77.6142 100 50 100C22.3858 100 0 77.6142 0 50C0 22.3858 22.3858 0 50 0C77.6142 0 100 22.3858 100 50ZM50 88.0208C70.9983 88.0208 88.0208 70.9983 88.0208 50C88.0208 29.0017 70.9983 11.9792 50 11.9792C29.0017 11.9792 11.9792 29.0017 11.9792 50C11.9792 70.9983 29.0017 88.0208 50 88.0208Z" fill="white"/>
</mask>
<g mask="url(#mask2_366_10169)">
<rect x="-22.9167" y="-22.9167" width="145.833" height="145.833" fill="url(#paint3_linear_366_10169)"/>
<rect x="-22.9167" y="-22.9167" width="145.833" height="145.833" fill="url(#paint4_linear_366_10169)" fill-opacity="0.6" style="mix-blend-mode:overlay"/>
<rect x="-22.9167" y="-22.9167" width="145.833" height="145.833" fill="url(#paint5_radial_366_10169)" fill-opacity="0.6" style="mix-blend-mode:overlay"/>
<g style="mix-blend-mode:soft-light">
<path fill-rule="evenodd" clip-rule="evenodd" d="M-22.9167 -22.9167H64.5833L36.6578 122.917H-22.9167V-22.9167Z" fill="url(#paint6_linear_366_10169)" style="mix-blend-mode:lighten"/>
</g>
<g style="mix-blend-mode:soft-light">
<mask id="path-10-inside-1_366_10169" fill="white">
<path fill-rule="evenodd" clip-rule="evenodd" d="M95.8333 50C95.8333 75.313 75.313 95.8333 50 95.8333C24.6869 95.8333 4.16667 75.313 4.16667 50C4.16667 24.6869 24.6869 4.16667 50 4.16667C75.313 4.16667 95.8333 24.6869 95.8333 50ZM100 50C100 77.6142 77.6142 100 50 100C22.3858 100 0 77.6142 0 50C0 22.3858 22.3858 0 50 0C77.6142 0 100 22.3858 100 50ZM50 88.0208C70.9983 88.0208 88.0208 70.9983 88.0208 50C88.0208 29.0017 70.9983 11.9792 50 11.9792C29.0017 11.9792 11.9792 29.0017 11.9792 50C11.9792 70.9983 29.0017 88.0208 50 88.0208Z"/>
</mask>
<path d="M50 96.0938C75.4569 96.0938 96.0938 75.4569 96.0938 50H95.5729C95.5729 75.1692 75.1692 95.5729 50 95.5729V96.0938ZM3.90625 50C3.90625 75.4569 24.5431 96.0938 50 96.0938V95.5729C24.8308 95.5729 4.42708 75.1692 4.42708 50H3.90625ZM50 3.90625C24.5431 3.90625 3.90625 24.5431 3.90625 50H4.42708C4.42708 24.8308 24.8308 4.42708 50 4.42708V3.90625ZM96.0938 50C96.0938 24.5431 75.4569 3.90625 50 3.90625V4.42708C75.1692 4.42708 95.5729 24.8308 95.5729 50H96.0938ZM50 100.26C77.7581 100.26 100.26 77.7581 100.26 50H99.7396C99.7396 77.4704 77.4704 99.7396 50 99.7396V100.26ZM-0.260417 50C-0.260417 77.7581 22.2419 100.26 50 100.26V99.7396C22.5296 99.7396 0.260417 77.4704 0.260417 50H-0.260417ZM50 -0.260417C22.2419 -0.260417 -0.260417 22.2419 -0.260417 50H0.260417C0.260417 22.5296 22.5296 0.260417 50 0.260417V-0.260417ZM100.26 50C100.26 22.2419 77.7581 -0.260417 50 -0.260417V0.260417C77.4704 0.260417 99.7396 22.5296 99.7396 50H100.26ZM87.7604 50C87.7604 70.8545 70.8545 87.7604 50 87.7604V88.2812C71.1421 88.2812 88.2812 71.1421 88.2812 50H87.7604ZM50 12.2396C70.8545 12.2396 87.7604 29.1455 87.7604 50H88.2812C88.2812 28.8578 71.1421 11.7188 50 11.7188V12.2396ZM12.2396 50C12.2396 29.1455 29.1455 12.2396 50 12.2396V11.7188C28.8578 11.7188 11.7188 28.8578 11.7188 50H12.2396ZM50 87.7604C29.1455 87.7604 12.2396 70.8545 12.2396 50H11.7188C11.7188 71.1421 28.8578 88.2812 50 88.2812V87.7604Z" fill="url(#paint7_linear_366_10169)" mask="url(#path-10-inside-1_366_10169)"/>
</g>
</g>
</g>
<g filter="url(#filter1_dd_366_10169)">
<rect y="71.3542" width="100" height="18.75" fill="#FFA00F"/>
<rect x="0.130208" y="71.4844" width="99.7396" height="18.4896" stroke="url(#paint8_linear_366_10169)" stroke-width="0.260417" stroke-linecap="round" style="mix-blend-mode:darken"/>
</g>
<rect y="71.3542" width="100" height="18.75" fill="url(#paint9_linear_366_10169)" fill-opacity="0.3" style="mix-blend-mode:overlay"/>
<rect y="71.3542" width="100" height="18.75" fill="url(#paint10_radial_366_10169)" fill-opacity="0.6" style="mix-blend-mode:overlay"/>
<g filter="url(#filter2_d_366_10169)">
<path fill-rule="evenodd" clip-rule="evenodd" d="M37.4998 83.8542L36.8152 84.2141C35.8549 84.719 35.3747 84.9714 35.0196 84.9056C34.7107 84.8483 34.4442 84.6546 34.2942 84.3785C34.1219 84.0612 34.2136 83.5265 34.397 82.4571L34.5277 81.6949L33.9739 81.1551C33.197 80.3977 32.8085 80.0191 32.7614 79.661C32.7204 79.3495 32.8222 79.0362 33.0385 78.8082C33.287 78.5463 33.8239 78.4683 34.8976 78.3122L35.663 78.201L36.0052 77.5075C36.4854 76.5346 36.7255 76.0481 37.0514 75.8927C37.335 75.7574 37.6645 75.7574 37.9481 75.8927C38.2741 76.0481 38.5142 76.5346 38.9943 77.5075L39.3366 78.201L40.1019 78.3122C41.1757 78.4683 41.7125 78.5463 41.9611 78.8082C42.1773 79.0362 42.2791 79.3495 42.2382 79.661C42.1911 80.0191 41.8026 80.3977 41.0256 81.1551L40.4718 81.6949L40.6026 82.4571C40.786 83.5265 40.8777 84.0612 40.7053 84.3785C40.5554 84.6546 40.2888 84.8483 39.9799 84.9056C39.6249 84.9714 39.1447 84.719 38.1843 84.2141L37.4998 83.8542Z" fill="white"/>
<path d="M36.8758 84.3293L37.4998 84.0013L38.1237 84.3293L38.1302 84.3328C38.6049 84.5823 38.9693 84.7739 39.2592 84.8941C39.5485 85.0141 39.7872 85.0738 40.0037 85.0336C40.3512 84.9692 40.6511 84.7513 40.8198 84.4407C40.9249 84.2472 40.9419 84.0018 40.9172 83.6896C40.8924 83.3767 40.8228 82.9709 40.7321 82.4423L40.7309 82.4351L40.6117 81.7404L41.1165 81.2483L41.1218 81.2432C41.5058 80.8688 41.8006 80.5815 42.0046 80.3429C42.2081 80.1049 42.3385 79.8963 42.3672 79.678L42.2382 79.661L42.3672 79.678C42.4133 79.3276 42.2988 78.975 42.0555 78.7186C41.904 78.5589 41.6759 78.4669 41.3713 78.3939C41.066 78.3208 40.6587 78.2616 40.1279 78.1844L40.1207 78.1834L39.4231 78.082L39.1111 77.4499L39.1079 77.4433C38.8705 76.9624 38.6883 76.5933 38.5244 76.3255C38.3609 76.0584 38.2029 75.8699 38.0042 75.7751C37.6851 75.623 37.3144 75.623 36.9954 75.7751C36.7966 75.8699 36.6386 76.0584 36.4751 76.3255C36.3112 76.5933 36.129 76.9624 35.8917 77.4434L35.8885 77.4499L35.5765 78.082L34.8789 78.1834L34.8717 78.1844C34.3409 78.2616 33.9335 78.3208 33.6283 78.3939C33.3237 78.4669 33.0956 78.5589 32.944 78.7186C32.7008 78.975 32.5862 79.3276 32.6323 79.678C32.661 79.8963 32.7915 80.1049 32.995 80.3429C33.199 80.5815 33.4938 80.8689 33.8778 81.2432L33.883 81.2483L34.3878 81.7404L34.2687 82.4351L34.2674 82.4423C34.1768 82.9709 34.1072 83.3767 34.0824 83.6896C34.0577 84.0018 34.0747 84.2472 34.1798 84.4407C34.3485 84.7513 34.6484 84.9692 34.9959 85.0336C35.2124 85.0738 35.451 85.0141 35.7403 84.8941C36.0303 84.7739 36.3946 84.5823 36.8694 84.3328L36.8758 84.3293Z" stroke="url(#paint11_linear_366_10169)" stroke-width="0.260417" stroke-linecap="round" style="mix-blend-mode:color-burn"/>
</g>
<g filter="url(#filter3_d_366_10169)">
<path fill-rule="evenodd" clip-rule="evenodd" d="M49.9998 83.8542L49.3152 84.2141C48.3549 84.719 47.8747 84.9714 47.5196 84.9056C47.2107 84.8483 46.9442 84.6546 46.7942 84.3785C46.6219 84.0612 46.7136 83.5265 46.897 82.4571L47.0277 81.6949L46.4739 81.1551C45.697 80.3977 45.3085 80.0191 45.2614 79.661C45.2204 79.3495 45.3222 79.0362 45.5385 78.8082C45.787 78.5463 46.3239 78.4683 47.3976 78.3122L48.163 78.201L48.5052 77.5075C48.9854 76.5346 49.2255 76.0481 49.5514 75.8927C49.835 75.7574 50.1645 75.7574 50.4481 75.8927C50.7741 76.0481 51.0142 76.5346 51.4943 77.5075L51.8366 78.201L52.6019 78.3122C53.6757 78.4683 54.2125 78.5463 54.4611 78.8082C54.6773 79.0362 54.7791 79.3495 54.7382 79.661C54.6911 80.0191 54.3026 80.3977 53.5256 81.1551L52.9718 81.6949L53.1026 82.4571C53.286 83.5265 53.3777 84.0612 53.2053 84.3785C53.0554 84.6546 52.7888 84.8483 52.4799 84.9056C52.1249 84.9714 51.6447 84.719 50.6843 84.2141L49.9998 83.8542Z" fill="black" fill-opacity="0.24" style="mix-blend-mode:color-burn"/>
<path fill-rule="evenodd" clip-rule="evenodd" d="M49.9998 83.8542L49.3152 84.2141C48.3549 84.719 47.8747 84.9714 47.5196 84.9056C47.2107 84.8483 46.9442 84.6546 46.7942 84.3785C46.6219 84.0612 46.7136 83.5265 46.897 82.4571L47.0277 81.6949L46.4739 81.1551C45.697 80.3977 45.3085 80.0191 45.2614 79.661C45.2204 79.3495 45.3222 79.0362 45.5385 78.8082C45.787 78.5463 46.3239 78.4683 47.3976 78.3122L48.163 78.201L48.5052 77.5075C48.9854 76.5346 49.2255 76.0481 49.5514 75.8927C49.835 75.7574 50.1645 75.7574 50.4481 75.8927C50.7741 76.0481 51.0142 76.5346 51.4943 77.5075L51.8366 78.201L52.6019 78.3122C53.6757 78.4683 54.2125 78.5463 54.4611 78.8082C54.6773 79.0362 54.7791 79.3495 54.7382 79.661C54.6911 80.0191 54.3026 80.3977 53.5256 81.1551L52.9718 81.6949L53.1026 82.4571C53.286 83.5265 53.3777 84.0612 53.2053 84.3785C53.0554 84.6546 52.7888 84.8483 52.4799 84.9056C52.1249 84.9714 51.6447 84.719 50.6843 84.2141L49.9998 83.8542Z" fill="black" fill-opacity="0.32" style="mix-blend-mode:darken"/>
<path d="M49.3758 84.3293L49.9998 84.0013L50.6237 84.3293L50.6302 84.3328C51.1049 84.5823 51.4693 84.7739 51.7592 84.8941C52.0485 85.0141 52.2872 85.0738 52.5037 85.0336C52.8512 84.9692 53.1511 84.7513 53.3198 84.4407C53.4249 84.2472 53.4419 84.0018 53.4172 83.6896C53.3924 83.3767 53.3228 82.9709 53.2321 82.4423L53.2309 82.4351L53.1117 81.7404L53.6165 81.2483L53.6218 81.2432C54.0058 80.8688 54.3006 80.5815 54.5046 80.3429C54.7081 80.1049 54.8385 79.8963 54.8672 79.678L54.7382 79.661L54.8672 79.678C54.9133 79.3276 54.7988 78.975 54.5555 78.7186C54.404 78.5589 54.1759 78.4669 53.8713 78.3939C53.566 78.3208 53.1587 78.2616 52.6279 78.1844L52.6207 78.1834L51.9231 78.082L51.6111 77.4499L51.6079 77.4433C51.3705 76.9624 51.1883 76.5933 51.0244 76.3255C50.8609 76.0584 50.7029 75.8699 50.5042 75.7751C50.1851 75.623 49.8144 75.623 49.4954 75.7751C49.2966 75.8699 49.1386 76.0584 48.9751 76.3255C48.8112 76.5933 48.629 76.9624 48.3917 77.4434L48.3885 77.4499L48.0765 78.082L47.3789 78.1834L47.3717 78.1844C46.8409 78.2616 46.4335 78.3208 46.1283 78.3939C45.8237 78.4669 45.5956 78.5589 45.444 78.7186C45.2008 78.975 45.0862 79.3276 45.1323 79.678C45.161 79.8963 45.2915 80.1049 45.495 80.3429C45.699 80.5815 45.9938 80.8689 46.3778 81.2432L46.383 81.2483L46.8878 81.7404L46.7687 82.4351L46.7674 82.4423C46.6768 82.9709 46.6072 83.3767 46.5824 83.6896C46.5577 84.0018 46.5747 84.2472 46.6798 84.4407C46.8485 84.7513 47.1484 84.9692 47.4959 85.0336C47.7124 85.0738 47.951 85.0141 48.2403 84.8941C48.5303 84.7739 48.8946 84.5823 49.3694 84.3328L49.3758 84.3293Z" stroke="url(#paint12_linear_366_10169)" stroke-width="0.260417" stroke-linecap="round" style="mix-blend-mode:color-burn"/>
</g>
<g filter="url(#filter4_d_366_10169)">
<path fill-rule="evenodd" clip-rule="evenodd" d="M62.4998 83.8542L61.8152 84.2141C60.8549 84.719 60.3747 84.9714 60.0196 84.9056C59.7107 84.8483 59.4442 84.6546 59.2942 84.3785C59.1219 84.0612 59.2136 83.5265 59.397 82.4571L59.5277 81.6949L58.9739 81.1551C58.197 80.3977 57.8085 80.0191 57.7614 79.661C57.7204 79.3495 57.8222 79.0362 58.0385 78.8082C58.287 78.5463 58.8239 78.4683 59.8976 78.3122L60.663 78.201L61.0052 77.5075C61.4854 76.5346 61.7255 76.0481 62.0514 75.8927C62.335 75.7574 62.6645 75.7574 62.9481 75.8927C63.2741 76.0481 63.5142 76.5346 63.9943 77.5075L64.3366 78.201L65.1019 78.3122C66.1757 78.4683 66.7125 78.5463 66.9611 78.8082C67.1773 79.0362 67.2791 79.3495 67.2382 79.661C67.1911 80.0191 66.8026 80.3977 66.0256 81.1551L65.4718 81.6949L65.6026 82.4571C65.786 83.5265 65.8777 84.0612 65.7053 84.3785C65.5554 84.6546 65.2888 84.8483 64.9799 84.9056C64.6249 84.9714 64.1447 84.719 63.1843 84.2141L62.4998 83.8542Z" fill="black" fill-opacity="0.24" style="mix-blend-mode:color-burn"/>
<path fill-rule="evenodd" clip-rule="evenodd" d="M62.4998 83.8542L61.8152 84.2141C60.8549 84.719 60.3747 84.9714 60.0196 84.9056C59.7107 84.8483 59.4442 84.6546 59.2942 84.3785C59.1219 84.0612 59.2136 83.5265 59.397 82.4571L59.5277 81.6949L58.9739 81.1551C58.197 80.3977 57.8085 80.0191 57.7614 79.661C57.7204 79.3495 57.8222 79.0362 58.0385 78.8082C58.287 78.5463 58.8239 78.4683 59.8976 78.3122L60.663 78.201L61.0052 77.5075C61.4854 76.5346 61.7255 76.0481 62.0514 75.8927C62.335 75.7574 62.6645 75.7574 62.9481 75.8927C63.2741 76.0481 63.5142 76.5346 63.9943 77.5075L64.3366 78.201L65.1019 78.3122C66.1757 78.4683 66.7125 78.5463 66.9611 78.8082C67.1773 79.0362 67.2791 79.3495 67.2382 79.661C67.1911 80.0191 66.8026 80.3977 66.0256 81.1551L65.4718 81.6949L65.6026 82.4571C65.786 83.5265 65.8777 84.0612 65.7053 84.3785C65.5554 84.6546 65.2888 84.8483 64.9799 84.9056C64.6249 84.9714 64.1447 84.719 63.1843 84.2141L62.4998 83.8542Z" fill="black" fill-opacity="0.32" style="mix-blend-mode:darken"/>
<path d="M61.8758 84.3293L62.4998 84.0013L63.1237 84.3293L63.1302 84.3328C63.6049 84.5823 63.9693 84.7739 64.2592 84.8941C64.5485 85.0141 64.7872 85.0738 65.0037 85.0336C65.3512 84.9692 65.6511 84.7513 65.8198 84.4407C65.9249 84.2472 65.9419 84.0018 65.9172 83.6896C65.8924 83.3767 65.8228 82.9709 65.7321 82.4423L65.7309 82.4351L65.6117 81.7404L66.1165 81.2483L66.1218 81.2432C66.5058 80.8688 66.8006 80.5815 67.0046 80.3429C67.2081 80.1049 67.3385 79.8963 67.3672 79.678L67.2382 79.661L67.3672 79.678C67.4133 79.3276 67.2988 78.975 67.0555 78.7186C66.904 78.5589 66.6759 78.4669 66.3713 78.3939C66.066 78.3208 65.6587 78.2616 65.1279 78.1844L65.1207 78.1834L64.4231 78.082L64.1111 77.4499L64.1079 77.4433C63.8705 76.9624 63.6883 76.5933 63.5244 76.3255C63.3609 76.0584 63.2029 75.8699 63.0042 75.7751C62.6851 75.623 62.3144 75.623 61.9954 75.7751C61.7966 75.8699 61.6386 76.0584 61.4751 76.3255C61.3112 76.5933 61.129 76.9624 60.8917 77.4434L60.8885 77.4499L60.5765 78.082L59.8789 78.1834L59.8717 78.1844C59.3409 78.2616 58.9335 78.3208 58.6283 78.3939C58.3237 78.4669 58.0956 78.5589 57.944 78.7186C57.7008 78.975 57.5862 79.3276 57.6323 79.678C57.661 79.8963 57.7915 80.1049 57.995 80.3429C58.199 80.5815 58.4938 80.8689 58.8778 81.2432L58.883 81.2483L59.3878 81.7404L59.2687 82.4351L59.2674 82.4423C59.1768 82.9709 59.1072 83.3767 59.0824 83.6896C59.0577 84.0018 59.0747 84.2472 59.1798 84.4407C59.3485 84.7513 59.6484 84.9692 59.9959 85.0336C60.2124 85.0738 60.451 85.0141 60.7403 84.8941C61.0303 84.7739 61.3946 84.5823 61.8694 84.3328L61.8758 84.3293Z" stroke="url(#paint13_linear_366_10169)" stroke-width="0.260417" stroke-linecap="round" style="mix-blend-mode:color-burn"/>
</g>
</g>
<g filter="url(#filter5_d_366_10169)">
<mask id="path-21-outside-2_366_10169" maskUnits="userSpaceOnUse" x="31.3333" y="36.3333" width="38" height="27" fill="black">
<rect fill="white" x="31.3333" y="36.3333" width="38" height="27"/>
<path d="M33.9176 62.2C33.2509 62.2 32.9176 61.8667 32.9176 61.2L32.5509 39.6C32.5287 38.8222 32.7398 38.2444 33.1842 37.8667C33.6287 37.4667 34.1953 37.2667 34.8842 37.2667L47.1842 37.2C47.5398 37.2 47.8176 37.3111 48.0176 37.5333C48.2398 37.7333 48.3509 38.0111 48.3509 38.3667V41.1C48.3509 41.4556 48.2398 41.7444 48.0176 41.9667C47.8176 42.1667 47.5398 42.2667 47.1842 42.2667L38.5842 42.4333L38.5176 47.2333L46.5176 47.3C46.8731 47.3 47.1509 47.4111 47.3509 47.6333C47.5731 47.8333 47.6842 48.1111 47.6842 48.4667V51C47.6842 51.3556 47.5731 51.6444 47.3509 51.8667C47.1509 52.0667 46.8731 52.1667 46.5176 52.1667L38.4509 52.3L38.3176 61.2C38.3176 61.8667 37.9842 62.2 37.3176 62.2H33.9176ZM51.7032 56.2333C52.1255 55.6556 52.5921 55.5667 53.1032 55.9667C53.7255 56.4333 54.5255 56.8333 55.5032 57.1667C56.481 57.4778 57.4699 57.6333 58.4699 57.6333C59.8477 57.6333 60.8366 57.4 61.4366 56.9333C62.0366 56.4444 62.3143 55.8333 62.2699 55.1C62.2477 54.6778 62.1032 54.3222 61.8366 54.0333C61.5921 53.7222 61.2699 53.4667 60.8699 53.2667C60.4699 53.0667 60.0255 52.9222 59.5366 52.8333C59.0699 52.7444 58.6032 52.7 58.1366 52.7L54.1366 52.7333C53.8255 52.7333 53.581 52.6444 53.4032 52.4667C53.2255 52.2889 53.1366 52.0444 53.1366 51.7333V49C53.1366 48.6889 53.2255 48.4444 53.4032 48.2667C53.581 48.0889 53.8255 48 54.1366 48L58.2366 48.0333C58.9032 48.0333 59.5143 47.9778 60.0699 47.8667C60.6255 47.7333 61.1032 47.5333 61.5032 47.2667C61.9255 47 62.2477 46.6778 62.4699 46.3C62.6921 45.9 62.8032 45.4444 62.8032 44.9333C62.781 44.0889 62.381 43.4444 61.6032 43C60.8255 42.5333 59.8477 42.3 58.6699 42.3C57.6032 42.3 56.6143 42.4556 55.7032 42.7667C54.8143 43.0556 53.9699 43.4667 53.1699 44C52.881 44.2 52.5921 44.2778 52.3032 44.2333C52.0366 44.1889 51.8143 44.0111 51.6366 43.7L50.1366 40.7667C49.981 40.4556 49.9477 40.1889 50.0366 39.9667C50.1477 39.7222 50.3477 39.4889 50.6366 39.2667C51.5699 38.5556 52.7255 37.9556 54.1032 37.4667C55.481 36.9778 57.0032 36.7333 58.6699 36.7333C60.1366 36.7333 61.4699 36.9222 62.6699 37.3C63.8921 37.6778 64.9255 38.2111 65.7699 38.9C66.6366 39.5667 67.3032 40.3889 67.7699 41.3667C68.2366 42.3222 68.4699 43.3889 68.4699 44.5667C68.4699 46.0333 68.0699 47.3222 67.2699 48.4333C66.4921 49.5444 65.4699 50.3111 64.2032 50.7333C64.6699 50.8444 65.1143 51.0667 65.5366 51.4C65.981 51.7111 66.3699 52.1 66.7032 52.5667C67.0366 53.0111 67.2921 53.5111 67.4699 54.0667C67.6699 54.6222 67.7699 55.1889 67.7699 55.7667C67.7699 56.7667 67.5477 57.6889 67.1032 58.5333C66.6588 59.3556 66.0366 60.0667 65.2366 60.6667C64.4366 61.2667 63.4699 61.7333 62.3366 62.0667C61.2255 62.4 59.981 62.5556 58.6032 62.5333C56.9366 62.4889 55.4255 62.1889 54.0699 61.6333C52.7366 61.1 51.5699 60.3667 50.5699 59.4333C50.3699 59.2556 50.2366 59.0556 50.1699 58.8333C50.1032 58.6111 50.1588 58.3667 50.3366 58.1L51.7032 56.2333Z"/>
</mask>
<path d="M33.9176 62.2C33.2509 62.2 32.9176 61.8667 32.9176 61.2L32.5509 39.6C32.5287 38.8222 32.7398 38.2444 33.1842 37.8667C33.6287 37.4667 34.1953 37.2667 34.8842 37.2667L47.1842 37.2C47.5398 37.2 47.8176 37.3111 48.0176 37.5333C48.2398 37.7333 48.3509 38.0111 48.3509 38.3667V41.1C48.3509 41.4556 48.2398 41.7444 48.0176 41.9667C47.8176 42.1667 47.5398 42.2667 47.1842 42.2667L38.5842 42.4333L38.5176 47.2333L46.5176 47.3C46.8731 47.3 47.1509 47.4111 47.3509 47.6333C47.5731 47.8333 47.6842 48.1111 47.6842 48.4667V51C47.6842 51.3556 47.5731 51.6444 47.3509 51.8667C47.1509 52.0667 46.8731 52.1667 46.5176 52.1667L38.4509 52.3L38.3176 61.2C38.3176 61.8667 37.9842 62.2 37.3176 62.2H33.9176ZM51.7032 56.2333C52.1255 55.6556 52.5921 55.5667 53.1032 55.9667C53.7255 56.4333 54.5255 56.8333 55.5032 57.1667C56.481 57.4778 57.4699 57.6333 58.4699 57.6333C59.8477 57.6333 60.8366 57.4 61.4366 56.9333C62.0366 56.4444 62.3143 55.8333 62.2699 55.1C62.2477 54.6778 62.1032 54.3222 61.8366 54.0333C61.5921 53.7222 61.2699 53.4667 60.8699 53.2667C60.4699 53.0667 60.0255 52.9222 59.5366 52.8333C59.0699 52.7444 58.6032 52.7 58.1366 52.7L54.1366 52.7333C53.8255 52.7333 53.581 52.6444 53.4032 52.4667C53.2255 52.2889 53.1366 52.0444 53.1366 51.7333V49C53.1366 48.6889 53.2255 48.4444 53.4032 48.2667C53.581 48.0889 53.8255 48 54.1366 48L58.2366 48.0333C58.9032 48.0333 59.5143 47.9778 60.0699 47.8667C60.6255 47.7333 61.1032 47.5333 61.5032 47.2667C61.9255 47 62.2477 46.6778 62.4699 46.3C62.6921 45.9 62.8032 45.4444 62.8032 44.9333C62.781 44.0889 62.381 43.4444 61.6032 43C60.8255 42.5333 59.8477 42.3 58.6699 42.3C57.6032 42.3 56.6143 42.4556 55.7032 42.7667C54.8143 43.0556 53.9699 43.4667 53.1699 44C52.881 44.2 52.5921 44.2778 52.3032 44.2333C52.0366 44.1889 51.8143 44.0111 51.6366 43.7L50.1366 40.7667C49.981 40.4556 49.9477 40.1889 50.0366 39.9667C50.1477 39.7222 50.3477 39.4889 50.6366 39.2667C51.5699 38.5556 52.7255 37.9556 54.1032 37.4667C55.481 36.9778 57.0032 36.7333 58.6699 36.7333C60.1366 36.7333 61.4699 36.9222 62.6699 37.3C63.8921 37.6778 64.9255 38.2111 65.7699 38.9C66.6366 39.5667 67.3032 40.3889 67.7699 41.3667C68.2366 42.3222 68.4699 43.3889 68.4699 44.5667C68.4699 46.0333 68.0699 47.3222 67.2699 48.4333C66.4921 49.5444 65.4699 50.3111 64.2032 50.7333C64.6699 50.8444 65.1143 51.0667 65.5366 51.4C65.981 51.7111 66.3699 52.1 66.7032 52.5667C67.0366 53.0111 67.2921 53.5111 67.4699 54.0667C67.6699 54.6222 67.7699 55.1889 67.7699 55.7667C67.7699 56.7667 67.5477 57.6889 67.1032 58.5333C66.6588 59.3556 66.0366 60.0667 65.2366 60.6667C64.4366 61.2667 63.4699 61.7333 62.3366 62.0667C61.2255 62.4 59.981 62.5556 58.6032 62.5333C56.9366 62.4889 55.4255 62.1889 54.0699 61.6333C52.7366 61.1 51.5699 60.3667 50.5699 59.4333C50.3699 59.2556 50.2366 59.0556 50.1699 58.8333C50.1032 58.6111 50.1588 58.3667 50.3366 58.1L51.7032 56.2333Z" fill="white"/>
<path d="M32.9176 61.2H33.178L33.1779 61.1956L32.9176 61.2ZM32.5509 39.6L32.8113 39.5956L32.8112 39.5926L32.5509 39.6ZM33.1842 37.8667L33.353 38.0652L33.3584 38.0602L33.1842 37.8667ZM34.8842 37.2667V37.5271L34.8856 37.5271L34.8842 37.2667ZM47.1842 37.2V36.9396L47.1828 36.9396L47.1842 37.2ZM48.0176 37.5333L47.824 37.7075L47.8332 37.7177L47.8433 37.7269L48.0176 37.5333ZM48.0176 41.9667L48.2017 42.1508V42.1508L48.0176 41.9667ZM47.1842 42.2667V42.0062L47.1792 42.0063L47.1842 42.2667ZM38.5842 42.4333L38.5792 42.173L38.3273 42.1778L38.3238 42.4297L38.5842 42.4333ZM38.5176 47.2333L38.2572 47.2297L38.2535 47.4916L38.5154 47.4937L38.5176 47.2333ZM46.5176 47.3L46.5154 47.5604H46.5176V47.3ZM47.3509 47.6333L47.1573 47.8075L47.1665 47.8177L47.1767 47.8269L47.3509 47.6333ZM47.3509 51.8667L47.1667 51.6825V51.6825L47.3509 51.8667ZM46.5176 52.1667V51.9062L46.5133 51.9063L46.5176 52.1667ZM38.4509 52.3L38.4466 52.0396L38.1943 52.0438L38.1905 52.2961L38.4509 52.3ZM38.3176 61.2L38.0571 61.1961V61.2H38.3176ZM33.9176 61.9396C33.6244 61.9396 33.4523 61.8665 33.3517 61.7659C33.2511 61.6653 33.178 61.4932 33.178 61.2H32.6571C32.6571 61.5735 32.7507 61.9014 32.9834 62.1341C33.2161 62.3669 33.5441 62.4604 33.9176 62.4604V61.9396ZM33.1779 61.1956L32.8113 39.5956L32.2905 39.6044L32.6572 61.2044L33.1779 61.1956ZM32.8112 39.5926C32.7904 38.8655 32.9873 38.3758 33.3529 38.0651L33.0156 37.6682C32.4923 38.1131 32.2669 38.7789 32.2906 39.6074L32.8112 39.5926ZM33.3584 38.0602C33.7478 37.7098 34.2492 37.5271 34.8842 37.5271V37.0062C34.1414 37.0062 33.5095 37.2236 33.01 37.6731L33.3584 38.0602ZM34.8856 37.5271L47.1856 37.4604L47.1828 36.9396L34.8828 37.0063L34.8856 37.5271ZM47.1842 37.4604C47.4812 37.4604 47.6827 37.5506 47.824 37.7075L48.2111 37.3591C47.9524 37.0716 47.5984 36.9396 47.1842 36.9396V37.4604ZM47.8433 37.7269C48.0003 37.8682 48.0905 38.0697 48.0905 38.3667H48.6113C48.6113 37.9525 48.4793 37.5985 48.1918 37.3398L47.8433 37.7269ZM48.0905 38.3667V41.1H48.6113V38.3667H48.0905ZM48.0905 41.1C48.0905 41.3964 48.0002 41.6157 47.8334 41.7825L48.2017 42.1508C48.4793 41.8732 48.6113 41.5147 48.6113 41.1H48.0905ZM47.8334 41.7825C47.6941 41.9219 47.4894 42.0062 47.1842 42.0062V42.5271C47.5901 42.5271 47.9411 42.4115 48.2017 42.1508L47.8334 41.7825ZM47.1792 42.0063L38.5792 42.173L38.5893 42.6937L47.1893 42.527L47.1792 42.0063ZM38.3238 42.4297L38.2572 47.2297L38.778 47.2369L38.8446 42.4369L38.3238 42.4297ZM38.5154 47.4937L46.5154 47.5604L46.5197 47.0396L38.5197 46.9729L38.5154 47.4937ZM46.5176 47.5604C46.8145 47.5604 47.0161 47.6506 47.1573 47.8075L47.5445 47.4591C47.2857 47.1716 46.9317 47.0396 46.5176 47.0396V47.5604ZM47.1767 47.8269C47.3336 47.9682 47.4238 48.1697 47.4238 48.4667H47.9446C47.9446 48.0525 47.8126 47.6985 47.5251 47.4398L47.1767 47.8269ZM47.4238 48.4667V51H47.9446V48.4667H47.4238ZM47.4238 51C47.4238 51.2964 47.3336 51.5157 47.1667 51.6825L47.535 52.0508C47.8127 51.7732 47.9446 51.4147 47.9446 51H47.4238ZM47.1667 51.6825C47.0274 51.8219 46.8228 51.9062 46.5176 51.9062V52.4271C46.9235 52.4271 47.2744 52.3115 47.535 52.0508L47.1667 51.6825ZM46.5133 51.9063L38.4466 52.0396L38.4552 52.5604L46.5219 52.427L46.5133 51.9063ZM38.1905 52.2961L38.0572 61.1961L38.5779 61.2039L38.7113 52.3039L38.1905 52.2961ZM38.0571 61.2C38.0571 61.4932 37.984 61.6653 37.8834 61.7659C37.7828 61.8665 37.6108 61.9396 37.3176 61.9396V62.4604C37.691 62.4604 38.019 62.3669 38.2517 62.1341C38.4844 61.9014 38.578 61.5735 38.578 61.2H38.0571ZM37.3176 61.9396H33.9176V62.4604H37.3176V61.9396ZM51.7032 56.2333L51.9134 56.3872L51.9135 56.387L51.7032 56.2333ZM53.1032 55.9667L52.9427 56.1718L52.947 56.175L53.1032 55.9667ZM55.5032 57.1667L55.4192 57.4132L55.4243 57.4148L55.5032 57.1667ZM61.4366 56.9333L61.5965 57.1389L61.6011 57.1352L61.4366 56.9333ZM62.2699 55.1L62.0098 55.1137L62.01 55.1158L62.2699 55.1ZM61.8366 54.0333L61.6318 54.1942L61.6382 54.2024L61.6452 54.21L61.8366 54.0333ZM59.5366 52.8333L59.4878 53.0892L59.49 53.0895L59.5366 52.8333ZM58.1366 52.7V52.4396L58.1344 52.4396L58.1366 52.7ZM54.1366 52.7333V52.9938L54.1387 52.9937L54.1366 52.7333ZM53.4032 48.2667L53.2191 48.0825V48.0825L53.4032 48.2667ZM54.1366 48L54.1387 47.7396H54.1366V48ZM58.2366 48.0333L58.2345 48.2937H58.2366V48.0333ZM60.0699 47.8667L60.121 48.1222L60.1307 48.1199L60.0699 47.8667ZM61.5032 47.2667L61.3641 47.0464L61.3588 47.05L61.5032 47.2667ZM62.4699 46.3L62.6944 46.4321L62.6975 46.4265L62.4699 46.3ZM62.8032 44.9333H63.0637L63.0636 44.9265L62.8032 44.9333ZM61.6032 43L61.4692 43.2234L61.474 43.2261L61.6032 43ZM55.7032 42.7667L55.7837 43.0144L55.7874 43.0131L55.7032 42.7667ZM53.1699 44L53.0254 43.7833L53.0217 43.7859L53.1699 44ZM52.3032 44.2333L52.2604 44.4902L52.2636 44.4907L52.3032 44.2333ZM51.6366 43.7L51.4045 43.8187L51.4105 43.8292L51.6366 43.7ZM50.1366 40.7667L49.9036 40.8831L49.9047 40.8852L50.1366 40.7667ZM50.0366 39.9667L49.7992 39.8588L49.7948 39.8699L50.0366 39.9667ZM50.6366 39.2667L50.4787 39.0595L50.4778 39.0603L50.6366 39.2667ZM54.1032 37.4667L54.0162 37.2212L54.1032 37.4667ZM62.6699 37.3L62.5917 37.5484L62.593 37.5488L62.6699 37.3ZM65.7699 38.9L65.6052 39.1019L65.6111 39.1064L65.7699 38.9ZM67.7699 41.3667L67.5349 41.4788L67.5359 41.4809L67.7699 41.3667ZM67.2699 48.4333L67.0585 48.2812L67.0566 48.284L67.2699 48.4333ZM64.2032 50.7333L64.1209 50.4863L63.2544 50.7751L64.1429 50.9867L64.2032 50.7333ZM65.5366 51.4L65.3752 51.6044L65.3811 51.609L65.3872 51.6133L65.5366 51.4ZM66.7032 52.5667L66.4913 52.7181L66.4949 52.7229L66.7032 52.5667ZM67.4699 54.0667L67.2217 54.1461L67.2249 54.1549L67.4699 54.0667ZM67.1032 58.5333L67.3323 58.6572L67.3337 58.6546L67.1032 58.5333ZM65.2366 60.6667L65.3928 60.875L65.2366 60.6667ZM62.3366 62.0667L62.2631 61.8168L62.2617 61.8172L62.3366 62.0667ZM58.6032 62.5333L58.5963 62.7937L58.599 62.7937L58.6032 62.5333ZM54.0699 61.6333L54.1687 61.3924L54.1666 61.3915L54.0699 61.6333ZM50.5699 59.4333L50.7476 59.2429L50.7429 59.2387L50.5699 59.4333ZM50.1699 58.8333L50.4193 58.7585L50.1699 58.8333ZM50.3366 58.1L50.1262 57.946L50.1199 57.9555L50.3366 58.1ZM51.9135 56.387C52.1049 56.125 52.2763 56.0163 52.4186 55.9891C52.5539 55.9634 52.7237 56.0003 52.9427 56.1717L53.2637 55.7616C52.9717 55.533 52.6525 55.4144 52.3212 55.4775C51.9968 55.5393 51.7238 55.7639 51.493 56.0797L51.9135 56.387ZM52.947 56.175C53.597 56.6625 54.4235 57.0737 55.4192 57.4132L55.5873 56.9202C54.6274 56.593 53.8539 56.2042 53.2595 55.7583L52.947 56.175ZM55.4243 57.4148C56.4269 57.7338 57.4424 57.8937 58.4699 57.8937V57.3729C57.4974 57.3729 56.5351 57.2217 55.5822 56.9185L55.4243 57.4148ZM58.4699 57.8937C59.8642 57.8937 60.9263 57.6601 61.5965 57.1389L61.2767 56.7278C60.7469 57.1399 59.8312 57.3729 58.4699 57.3729V57.8937ZM61.6011 57.1352C62.262 56.5967 62.5797 55.9064 62.5298 55.0842L62.01 55.1158C62.049 55.7603 61.8112 56.2922 61.2721 56.7314L61.6011 57.1352ZM62.53 55.0863C62.5048 54.6083 62.339 54.1937 62.0279 53.8567L61.6452 54.21C61.8675 54.4507 61.9906 54.7472 62.0098 55.1137L62.53 55.0863ZM62.0413 53.8724C61.7702 53.5274 61.4163 53.2487 60.9864 53.0337L60.7534 53.4996C61.1235 53.6846 61.414 53.9171 61.6318 54.1942L62.0413 53.8724ZM60.9864 53.0337C60.562 52.8216 60.0937 52.6699 59.5832 52.5771L59.49 53.0895C59.9573 53.1745 60.3778 53.3118 60.7534 53.4996L60.9864 53.0337ZM59.5853 52.5775C59.1029 52.4856 58.6199 52.4396 58.1366 52.4396V52.9604C58.5866 52.9604 59.0369 53.0033 59.4878 53.0891L59.5853 52.5775ZM58.1344 52.4396L54.1344 52.4729L54.1387 52.9937L58.1387 52.9604L58.1344 52.4396ZM54.1366 52.4729C53.8771 52.4729 53.7053 52.4004 53.5874 52.2825L53.2191 52.6508C53.4568 52.8885 53.7738 52.9937 54.1366 52.9937V52.4729ZM53.5874 52.2825C53.4695 52.1646 53.397 51.9928 53.397 51.7333H52.8762C52.8762 52.0961 52.9814 52.4131 53.2191 52.6508L53.5874 52.2825ZM53.397 51.7333V49H52.8762V51.7333H53.397ZM53.397 49C53.397 48.7406 53.4695 48.5687 53.5874 48.4508L53.2191 48.0825C52.9814 48.3202 52.8762 48.6372 52.8762 49H53.397ZM53.5874 48.4508C53.7053 48.3329 53.8771 48.2604 54.1366 48.2604V47.7396C53.7738 47.7396 53.4568 47.8449 53.2191 48.0825L53.5874 48.4508ZM54.1345 48.2604L58.2345 48.2937L58.2387 47.7729L54.1387 47.7396L54.1345 48.2604ZM58.2366 48.2937C58.9175 48.2937 59.546 48.237 60.121 48.122L60.0188 47.6113C59.4827 47.7185 58.889 47.7729 58.2366 47.7729V48.2937ZM60.1307 48.1199C60.7106 47.9807 61.2179 47.7699 61.6477 47.4833L61.3588 47.05C60.9886 47.2968 60.5403 47.4859 60.0091 47.6134L60.1307 48.1199ZM61.6423 47.4868C62.0947 47.2011 62.4483 46.8503 62.6944 46.432L62.2454 46.168C62.047 46.5053 61.7562 46.7989 61.3642 47.0465L61.6423 47.4868ZM62.6975 46.4265C62.9437 45.9834 63.0637 45.4834 63.0637 44.9333H62.5428C62.5428 45.4055 62.4406 45.8166 62.2423 46.1735L62.6975 46.4265ZM63.0636 44.9265C63.0388 43.9846 62.5834 43.2602 61.7324 42.7739L61.474 43.2261C62.1786 43.6287 62.5233 44.1932 62.5429 44.9402L63.0636 44.9265ZM61.7372 42.7767C60.9086 42.2795 59.8811 42.0396 58.6699 42.0396V42.5604C59.8143 42.5604 60.7423 42.7872 61.4693 43.2233L61.7372 42.7767ZM58.6699 42.0396C57.5777 42.0396 56.56 42.1989 55.6191 42.5202L55.7874 43.0131C56.6686 42.7122 57.6288 42.5604 58.6699 42.5604V42.0396ZM55.6227 42.519C54.7106 42.8155 53.8447 43.2372 53.0254 43.7833L53.3144 44.2167C54.0951 43.6962 54.9181 43.2957 55.7837 43.0143L55.6227 42.519ZM53.0217 43.7859C52.7758 43.9561 52.553 44.0083 52.3428 43.9759L52.2636 44.4907C52.6312 44.5473 52.9862 44.4439 53.3181 44.2141L53.0217 43.7859ZM52.3461 43.9765C52.1799 43.9488 52.0152 43.8376 51.8627 43.5708L51.4105 43.8292C51.6135 44.1846 51.8932 44.429 52.2604 44.4902L52.3461 43.9765ZM51.8684 43.5814L50.3684 40.6481L49.9047 40.8852L51.4047 43.8186L51.8684 43.5814ZM50.3695 40.6502C50.2318 40.3749 50.2277 40.19 50.2784 40.0634L49.7948 39.8699C49.6677 40.1878 49.7302 40.5362 49.9036 40.8831L50.3695 40.6502ZM50.2736 40.0744C50.362 39.8801 50.5287 39.6782 50.7953 39.4731L50.4778 39.0603C50.1666 39.2996 49.9334 39.5643 49.7995 39.8589L50.2736 40.0744ZM50.7944 39.4738C51.7018 38.7825 52.832 38.1941 54.1903 37.7121L54.0162 37.2212C52.6189 37.717 51.4381 38.3286 50.4787 39.0595L50.7944 39.4738ZM54.1903 37.7121C55.5365 37.2344 57.0288 36.9937 58.6699 36.9937V36.4729C56.9777 36.4729 55.4255 36.7211 54.0162 37.2212L54.1903 37.7121ZM58.6699 36.9937C60.1143 36.9937 61.4208 37.1798 62.5917 37.5484L62.7481 37.0516C61.519 36.6647 60.1588 36.4729 58.6699 36.4729V36.9937ZM62.593 37.5488C63.7887 37.9184 64.7909 38.4374 65.6053 39.1018L65.9345 38.6982C65.06 37.9848 63.9955 37.4372 62.7468 37.0512L62.593 37.5488ZM65.6111 39.1064C66.4456 39.7483 67.086 40.5384 67.5349 41.4788L68.0049 41.2545C67.5204 40.2394 66.8275 39.385 65.9287 38.6936L65.6111 39.1064ZM67.5359 41.4809C67.9834 42.3972 68.2095 43.4242 68.2095 44.5667H68.7303C68.7303 43.3536 68.4897 42.2472 68.0039 41.2524L67.5359 41.4809ZM68.2095 44.5667C68.2095 45.9828 67.8243 47.2176 67.0586 48.2812L67.4812 48.5855C68.3155 47.4268 68.7303 46.0838 68.7303 44.5667H68.2095ZM67.0566 48.284C66.3103 49.3501 65.3336 50.082 64.1209 50.4863L64.2856 50.9804C65.6062 50.5402 66.674 49.7388 67.4832 48.5827L67.0566 48.284ZM64.1429 50.9867C64.5685 51.088 64.9791 51.2917 65.3752 51.6044L65.6979 51.1956C65.2496 50.8417 64.7713 50.6009 64.2636 50.48L64.1429 50.9867ZM65.3872 51.6133C65.8061 51.9065 66.1742 52.274 66.4913 52.718L66.9151 52.4153C66.5656 51.926 66.1559 51.5157 65.6859 51.1867L65.3872 51.6133ZM66.4949 52.7229C66.81 53.143 67.0525 53.6167 67.2219 54.146L67.7179 53.9873C67.5317 53.4055 67.2632 52.8792 66.9116 52.4104L66.4949 52.7229ZM67.2249 54.1549C67.4149 54.6828 67.5095 55.2196 67.5095 55.7667H68.0303C68.0303 55.1582 67.9249 54.5617 67.7149 53.9785L67.2249 54.1549ZM67.5095 55.7667C67.5095 56.7265 67.2966 57.6068 66.8728 58.412L67.3337 58.6546C67.7988 57.771 68.0303 56.8068 68.0303 55.7667H67.5095ZM66.8741 58.4095C66.4488 59.1963 65.8524 59.8793 65.0803 60.4583L65.3928 60.875C66.2208 60.254 66.8688 59.5148 67.3323 58.6572L66.8741 58.4095ZM65.0803 60.4583C64.3093 61.0366 63.3719 61.4907 62.2631 61.8168L62.41 62.3165C63.5679 61.9759 64.5639 61.4967 65.3928 60.875L65.0803 60.4583ZM62.2617 61.8172C61.1805 62.1416 59.9633 62.2948 58.6074 62.2729L58.599 62.7937C59.9987 62.8163 61.2704 62.6584 62.4114 62.3161L62.2617 61.8172ZM58.6102 62.273C56.9707 62.2293 55.4913 61.9344 54.1687 61.3924L53.9711 61.8743C55.3596 62.4433 56.9024 62.7485 58.5963 62.7937L58.6102 62.273ZM54.1666 61.3915C52.8617 60.8696 51.7229 60.1532 50.7476 59.243L50.3922 59.6237C51.417 60.5801 52.6114 61.3304 53.9732 61.8751L54.1666 61.3915ZM50.7429 59.2387C50.5734 59.088 50.4701 58.9277 50.4193 58.7585L49.9205 58.9082C50.003 59.1834 50.1664 59.4231 50.3969 59.628L50.7429 59.2387ZM50.4193 58.7585C50.3826 58.636 50.4012 58.4725 50.5532 58.2445L50.1199 57.9555C49.9163 58.2609 49.8239 58.5862 49.9205 58.9082L50.4193 58.7585ZM50.5467 58.2538L51.9134 56.3872L51.4931 56.0795L50.1264 57.9462L50.5467 58.2538Z" fill="url(#paint14_linear_366_10169)" style="mix-blend-mode:color-burn" mask="url(#path-21-outside-2_366_10169)"/>
</g>
<defs>
<filter id="filter0_d_366_10169" x="-4.16667" y="-3.125" width="108.333" height="108.333" filterUnits="userSpaceOnUse" color-interpolation-filters="sRGB">
<feFlood flood-opacity="0" result="BackgroundImageFix"/>
<feColorMatrix in="SourceAlpha" type="matrix" values="0 0 0 0 0 0 0 0 0 0 0 0 0 0 0 0 0 0 127 0" result="hardAlpha"/>
<feOffset dy="1.04167"/>
<feGaussianBlur stdDeviation="2.08333"/>
<feColorMatrix type="matrix" values="0 0 0 0 0 0 0 0 0 0 0 0 0 0 0 0 0 0 0.16 0"/>
<feBlend mode="color-burn" in2="BackgroundImageFix" result="effect1_dropShadow_366_10169"/>
<feBlend mode="normal" in="SourceGraphic" in2="effect1_dropShadow_366_10169" result="shape"/>
</filter>
<filter id="filter1_dd_366_10169" x="-6.25" y="67.1875" width="112.5" height="31.25" filterUnits="userSpaceOnUse" color-interpolation-filters="sRGB">
<feFlood flood-opacity="0" result="BackgroundImageFix"/>
<feColorMatrix in="SourceAlpha" type="matrix" values="0 0 0 0 0 0 0 0 0 0 0 0 0 0 0 0 0 0 127 0" result="hardAlpha"/>
<feOffset dy="2.08333"/>
<feGaussianBlur stdDeviation="3.125"/>
<feColorMatrix type="matrix" values="0 0 0 0 0 0 0 0 0 0 0 0 0 0 0 0 0 0 0.16 0"/>
<feBlend mode="normal" in2="BackgroundImageFix" result="effect1_dropShadow_366_10169"/>
<feColorMatrix in="SourceAlpha" type="matrix" values="0 0 0 0 0 0 0 0 0 0 0 0 0 0 0 0 0 0 127 0" result="hardAlpha"/>
<feOffset dy="1.04167"/>
<feGaussianBlur stdDeviation="1.04167"/>
<feColorMatrix type="matrix" values="0 0 0 0 0 0 0 0 0 0 0 0 0 0 0 0 0 0 0.24 0"/>
<feBlend mode="normal" in2="effect1_dropShadow_366_10169" result="effect2_dropShadow_366_10169"/>
<feBlend mode="normal" in="SourceGraphic" in2="effect2_dropShadow_366_10169" result="shape"/>
</filter>
<filter id="filter2_d_366_10169" x="26.2421" y="70.3225" width="22.5154" height="22.1454" filterUnits="userSpaceOnUse" color-interpolation-filters="sRGB">
<feFlood flood-opacity="0" result="BackgroundImageFix"/>
<feColorMatrix in="SourceAlpha" type="matrix" values="0 0 0 0 0 0 0 0 0 0 0 0 0 0 0 0 0 0 127 0" result="hardAlpha"/>
<feOffset dy="1.04167"/>
<feGaussianBlur stdDeviation="3.125"/>
<feColorMatrix type="matrix" values="0 0 0 0 0 0 0 0 0 0 0 0 0 0 0 0 0 0 0.12 0"/>
<feBlend mode="plus-darker" in2="BackgroundImageFix" result="effect1_dropShadow_366_10169"/>
<feBlend mode="normal" in="SourceGraphic" in2="effect1_dropShadow_366_10169" result="shape"/>
</filter>
<filter id="filter3_d_366_10169" x="38.7421" y="70.3225" width="22.5154" height="22.1454" filterUnits="userSpaceOnUse" color-interpolation-filters="sRGB">
<feFlood flood-opacity="0" result="BackgroundImageFix"/>
<feColorMatrix in="SourceAlpha" type="matrix" values="0 0 0 0 0 0 0 0 0 0 0 0 0 0 0 0 0 0 127 0" result="hardAlpha"/>
<feOffset dy="1.04167"/>
<feGaussianBlur stdDeviation="3.125"/>
<feColorMatrix type="matrix" values="0 0 0 0 0 0 0 0 0 0 0 0 0 0 0 0 0 0 0.12 0"/>
<feBlend mode="plus-darker" in2="BackgroundImageFix" result="effect1_dropShadow_366_10169"/>
<feBlend mode="normal" in="SourceGraphic" in2="effect1_dropShadow_366_10169" result="shape"/>
</filter>
<filter id="filter4_d_366_10169" x="51.2421" y="70.3225" width="22.5154" height="22.1454" filterUnits="userSpaceOnUse" color-interpolation-filters="sRGB">
<feFlood flood-opacity="0" result="BackgroundImageFix"/>
<feColorMatrix in="SourceAlpha" type="matrix" values="0 0 0 0 0 0 0 0 0 0 0 0 0 0 0 0 0 0 127 0" result="hardAlpha"/>
<feOffset dy="1.04167"/>
<feGaussianBlur stdDeviation="3.125"/>
<feColorMatrix type="matrix" values="0 0 0 0 0 0 0 0 0 0 0 0 0 0 0 0 0 0 0.12 0"/>
<feBlend mode="plus-darker" in2="BackgroundImageFix" result="effect1_dropShadow_366_10169"/>
<feBlend mode="normal" in="SourceGraphic" in2="effect1_dropShadow_366_10169" result="shape"/>
</filter>
<filter id="filter5_d_366_10169" x="26.0389" y="31.2646" width="48.9415" height="38.8229" filterUnits="userSpaceOnUse" color-interpolation-filters="sRGB">
<feFlood flood-opacity="0" result="BackgroundImageFix"/>
<feColorMatrix in="SourceAlpha" type="matrix" values="0 0 0 0 0 0 0 0 0 0 0 0 0 0 0 0 0 0 127 0" result="hardAlpha"/>
<feOffset dy="1.04167"/>
<feGaussianBlur stdDeviation="3.125"/>
<feColorMatrix type="matrix" values="0 0 0 0 0 0 0 0 0 0 0 0 0 0 0 0 0 0 0.12 0"/>
<feBlend mode="plus-darker" in2="BackgroundImageFix" result="effect1_dropShadow_366_10169"/>
<feBlend mode="normal" in="SourceGraphic" in2="effect1_dropShadow_366_10169" result="shape"/>
</filter>
<linearGradient id="paint0_linear_366_10169" x1="-22.9167" y1="-22.9167" x2="-22.9167" y2="122.917" gradientUnits="userSpaceOnUse">
<stop stop-color="#EB6E3F"/>
<stop offset="1" stop-color="#FA610F"/>
</linearGradient>
<linearGradient id="paint1_linear_366_10169" x1="50" y1="-6.39144" x2="50" y2="105.635" gradientUnits="userSpaceOnUse">
<stop stop-color="white"/>
<stop offset="1" stop-color="white" stop-opacity="0"/>
</linearGradient>
<radialGradient id="paint2_radial_366_10169" cx="0" cy="0" r="1" gradientUnits="userSpaceOnUse" gradientTransform="translate(50 25.7865) rotate(90) scale(73.89 56.0618)">
<stop stop-color="white"/>
<stop offset="1" stop-color="white" stop-opacity="0"/>
</radialGradient>
<linearGradient id="paint3_linear_366_10169" x1="-22.9167" y1="-22.9167" x2="-22.9167" y2="122.917" gradientUnits="userSpaceOnUse">
<stop stop-color="#EB6E3F"/>
<stop offset="1" stop-color="#FA610F"/>
</linearGradient>
<linearGradient id="paint4_linear_366_10169" x1="50" y1="-6.39144" x2="50" y2="105.635" gradientUnits="userSpaceOnUse">
<stop stop-color="white"/>
<stop offset="1" stop-color="white" stop-opacity="0"/>
</linearGradient>
<radialGradient id="paint5_radial_366_10169" cx="0" cy="0" r="1" gradientUnits="userSpaceOnUse" gradientTransform="translate(50 25.7865) rotate(90) scale(73.89 56.0618)">
<stop stop-color="white"/>
<stop offset="1" stop-color="white" stop-opacity="0"/>
</radialGradient>
<linearGradient id="paint6_linear_366_10169" x1="-22.9167" y1="-22.9167" x2="-22.9167" y2="122.917" gradientUnits="userSpaceOnUse">
<stop offset="0.135095" stop-color="white"/>
<stop offset="0.877908" stop-color="white" stop-opacity="0.01"/>
</linearGradient>
<linearGradient id="paint7_linear_366_10169" x1="50" y1="0" x2="50" y2="100" gradientUnits="userSpaceOnUse">
<stop stop-color="white"/>
<stop offset="1" stop-color="#999999"/>
</linearGradient>
<linearGradient id="paint8_linear_366_10169" x1="50" y1="71.3542" x2="50" y2="90.1042" gradientUnits="userSpaceOnUse">
<stop stop-opacity="0"/>
<stop offset="1" stop-opacity="0.16"/>
</linearGradient>
<linearGradient id="paint9_linear_366_10169" x1="50" y1="71.3542" x2="50" y2="90.1042" gradientUnits="userSpaceOnUse">
<stop stop-color="white"/>
<stop offset="1" stop-color="white" stop-opacity="0"/>
</linearGradient>
<radialGradient id="paint10_radial_366_10169" cx="0" cy="0" r="1" gradientUnits="userSpaceOnUse" gradientTransform="translate(50 74.6261) rotate(90) scale(15.4781 50)">
<stop stop-color="white"/>
<stop offset="1" stop-color="white" stop-opacity="0"/>
</radialGradient>
<linearGradient id="paint11_linear_366_10169" x1="37.4998" y1="75.7912" x2="37.4998" y2="84.9159" gradientUnits="userSpaceOnUse">
<stop stop-color="#DFDFDF"/>
<stop offset="1" stop-color="#A9A9A9"/>
</linearGradient>
<linearGradient id="paint12_linear_366_10169" x1="49.9998" y1="75.7912" x2="49.9998" y2="84.9159" gradientUnits="userSpaceOnUse">
<stop stop-color="#DFDFDF"/>
<stop offset="1" stop-color="#A9A9A9"/>
</linearGradient>
<linearGradient id="paint13_linear_366_10169" x1="62.4998" y1="75.7912" x2="62.4998" y2="84.9159" gradientUnits="userSpaceOnUse">
<stop stop-color="#DFDFDF"/>
<stop offset="1" stop-color="#A9A9A9"/>
</linearGradient>
<linearGradient id="paint14_linear_366_10169" x1="50" y1="33.3333" x2="50" y2="66.3333" gradientUnits="userSpaceOnUse">
<stop stop-color="#DFDFDF"/>
<stop offset="1" stop-color="#A9A9A9"/>
</linearGradient>
</defs>
</svg>
