<svg width="100" height="100" viewBox="0 0 100 100" fill="none" xmlns="http://www.w3.org/2000/svg">
<mask id="mask0_366_9797" style="mask-type:alpha" maskUnits="userSpaceOnUse" x="0" y="0" width="100" height="100">
<circle cx="50" cy="50" r="50" fill="white"/>
</mask>
<g mask="url(#mask0_366_9797)">
<mask id="mask1_366_9797" style="mask-type:alpha" maskUnits="userSpaceOnUse" x="0" y="0" width="100" height="100">
<circle cx="50" cy="50" r="50" fill="white"/>
</mask>
<g mask="url(#mask1_366_9797)">
<rect x="-22.9167" y="-22.9167" width="145.833" height="145.833" fill="url(#paint0_linear_366_9797)"/>
<rect x="-22.9167" y="-22.9167" width="145.833" height="145.833" fill="url(#paint1_linear_366_9797)" fill-opacity="0.6" style="mix-blend-mode:overlay"/>
<rect x="-22.9167" y="-22.9167" width="145.833" height="145.833" fill="url(#paint2_radial_366_9797)" fill-opacity="0.6" style="mix-blend-mode:overlay"/>
<rect x="-22.9167" y="-22.9167" width="145.833" height="145.833" fill="black" fill-opacity="0.16" style="mix-blend-mode:overlay"/>
<rect x="-22.9167" y="-22.9167" width="145.833" height="145.833" fill="black" fill-opacity="0.12" style="mix-blend-mode:darken"/>
</g>
<g filter="url(#filter0_d_366_9797)">
<mask id="mask2_366_9797" style="mask-type:alpha" maskUnits="userSpaceOnUse" x="0" y="0" width="100" height="100">
<path fill-rule="evenodd" clip-rule="evenodd" d="M95.8333 50C95.8333 75.313 75.313 95.8333 50 95.8333C24.6869 95.8333 4.16667 75.313 4.16667 50C4.16667 24.6869 24.6869 4.16667 50 4.16667C75.313 4.16667 95.8333 24.6869 95.8333 50ZM100 50C100 77.6142 77.6142 100 50 100C22.3858 100 0 77.6142 0 50C0 22.3858 22.3858 0 50 0C77.6142 0 100 22.3858 100 50ZM50 88.0208C70.9983 88.0208 88.0208 70.9983 88.0208 50C88.0208 29.0017 70.9983 11.9792 50 11.9792C29.0017 11.9792 11.9792 29.0017 11.9792 50C11.9792 70.9983 29.0017 88.0208 50 88.0208Z" fill="white"/>
</mask>
<g mask="url(#mask2_366_9797)">
<rect x="-22.9167" y="-22.9167" width="145.833" height="145.833" fill="url(#paint3_linear_366_9797)"/>
<rect x="-22.9167" y="-22.9167" width="145.833" height="145.833" fill="url(#paint4_linear_366_9797)" fill-opacity="0.6" style="mix-blend-mode:overlay"/>
<rect x="-22.9167" y="-22.9167" width="145.833" height="145.833" fill="url(#paint5_radial_366_9797)" fill-opacity="0.6" style="mix-blend-mode:overlay"/>
<g style="mix-blend-mode:soft-light">
<path fill-rule="evenodd" clip-rule="evenodd" d="M-22.9167 -22.9167H64.5833L36.6578 122.917H-22.9167V-22.9167Z" fill="url(#paint6_linear_366_9797)" style="mix-blend-mode:lighten"/>
</g>
<g style="mix-blend-mode:soft-light">
<mask id="path-10-inside-1_366_9797" fill="white">
<path fill-rule="evenodd" clip-rule="evenodd" d="M95.8333 50C95.8333 75.313 75.313 95.8333 50 95.8333C24.6869 95.8333 4.16667 75.313 4.16667 50C4.16667 24.6869 24.6869 4.16667 50 4.16667C75.313 4.16667 95.8333 24.6869 95.8333 50ZM100 50C100 77.6142 77.6142 100 50 100C22.3858 100 0 77.6142 0 50C0 22.3858 22.3858 0 50 0C77.6142 0 100 22.3858 100 50ZM50 88.0208C70.9983 88.0208 88.0208 70.9983 88.0208 50C88.0208 29.0017 70.9983 11.9792 50 11.9792C29.0017 11.9792 11.9792 29.0017 11.9792 50C11.9792 70.9983 29.0017 88.0208 50 88.0208Z"/>
</mask>
<path d="M50 96.0938C75.4569 96.0938 96.0938 75.4569 96.0938 50H95.5729C95.5729 75.1692 75.1692 95.5729 50 95.5729V96.0938ZM3.90625 50C3.90625 75.4569 24.5431 96.0938 50 96.0938V95.5729C24.8308 95.5729 4.42708 75.1692 4.42708 50H3.90625ZM50 3.90625C24.5431 3.90625 3.90625 24.5431 3.90625 50H4.42708C4.42708 24.8308 24.8308 4.42708 50 4.42708V3.90625ZM96.0938 50C96.0938 24.5431 75.4569 3.90625 50 3.90625V4.42708C75.1692 4.42708 95.5729 24.8308 95.5729 50H96.0938ZM50 100.26C77.7581 100.26 100.26 77.7581 100.26 50H99.7396C99.7396 77.4704 77.4704 99.7396 50 99.7396V100.26ZM-0.260417 50C-0.260417 77.7581 22.2419 100.26 50 100.26V99.7396C22.5296 99.7396 0.260417 77.4704 0.260417 50H-0.260417ZM50 -0.260417C22.2419 -0.260417 -0.260417 22.2419 -0.260417 50H0.260417C0.260417 22.5296 22.5296 0.260417 50 0.260417V-0.260417ZM100.26 50C100.26 22.2419 77.7581 -0.260417 50 -0.260417V0.260417C77.4704 0.260417 99.7396 22.5296 99.7396 50H100.26ZM87.7604 50C87.7604 70.8545 70.8545 87.7604 50 87.7604V88.2812C71.1421 88.2812 88.2812 71.1421 88.2812 50H87.7604ZM50 12.2396C70.8545 12.2396 87.7604 29.1455 87.7604 50H88.2812C88.2812 28.8578 71.1421 11.7188 50 11.7188V12.2396ZM12.2396 50C12.2396 29.1455 29.1455 12.2396 50 12.2396V11.7188C28.8578 11.7188 11.7188 28.8578 11.7188 50H12.2396ZM50 87.7604C29.1455 87.7604 12.2396 70.8545 12.2396 50H11.7188C11.7188 71.1421 28.8578 88.2812 50 88.2812V87.7604Z" fill="url(#paint7_linear_366_9797)" mask="url(#path-10-inside-1_366_9797)"/>
</g>
</g>
</g>
</g>
<g filter="url(#filter1_d_366_9797)">
<mask id="path-12-outside-2_366_9797" maskUnits="userSpaceOnUse" x="26.3333" y="36.3333" width="48" height="27" fill="black">
<rect fill="white" x="26.3333" y="36.3333" width="48" height="27"/>
<path d="M39.7914 53.2333C39.2358 53.2333 38.9581 52.9556 38.9581 52.4V49C38.9581 48.4444 39.2358 48.1667 39.7914 48.1667L49.0914 48.2333C49.6692 48.2333 50.1025 48.3667 50.3914 48.6333C50.7025 48.9 50.8803 49.3778 50.9247 50.0667C51.0136 51.7556 50.8136 53.3556 50.3247 54.8667C49.8358 56.3778 49.0914 57.7 48.0914 58.8333C47.0914 59.9667 45.8358 60.8667 44.3247 61.5333C42.8358 62.2 41.1247 62.5333 39.1914 62.5333C37.3914 62.5333 35.7247 62.2222 34.1914 61.6C32.6803 60.9778 31.3692 60.1111 30.2581 59C29.1469 57.8667 28.2692 56.5222 27.6247 54.9667C27.0025 53.4111 26.6914 51.6889 26.6914 49.8C26.6914 47.9111 27.0025 46.1778 27.6247 44.6C28.2469 43 29.1025 41.6222 30.1914 40.4667C31.3025 39.2889 32.5914 38.3778 34.0581 37.7333C35.5469 37.0667 37.1469 36.7333 38.8581 36.7333C41.2136 36.7333 43.2581 37.1778 44.9914 38.0667C46.7247 38.9333 48.0581 40.0556 48.9914 41.4333C49.1469 41.6556 49.2247 41.9 49.2247 42.1667C49.2247 42.4111 49.1025 42.6222 48.8581 42.8L45.7914 45.2C45.5692 45.3778 45.3136 45.4778 45.0247 45.5C44.7358 45.5 44.5025 45.3667 44.3247 45.1C43.8581 44.4111 43.2025 43.8444 42.3581 43.4C41.5358 42.9556 40.4469 42.7333 39.0914 42.7333C38.1803 42.7333 37.3358 42.9111 36.5581 43.2667C35.7803 43.6222 35.0914 44.1333 34.4914 44.8C33.9136 45.4444 33.4581 46.2222 33.1247 47.1333C32.7914 48.0444 32.6247 49.0444 32.6247 50.1333C32.6247 51.2444 32.8025 52.2444 33.1581 53.1333C33.5136 54.0222 34.0025 54.7778 34.6247 55.4C35.2469 56.0222 35.9692 56.5111 36.7914 56.8667C37.6136 57.2 38.4914 57.3667 39.4247 57.3667C40.2692 57.3667 41.0358 57.2556 41.7247 57.0333C42.4136 56.8111 43.0136 56.5111 43.5247 56.1333C44.0581 55.7333 44.4914 55.2889 44.8247 54.8C45.1581 54.2889 45.4025 53.7444 45.5581 53.1667L39.7914 53.2333ZM70.7198 44.7C70.4976 44.8778 70.242 44.9778 69.9531 45C69.6864 45 69.4531 44.8667 69.2531 44.6C68.742 43.8889 68.1087 43.3333 67.3531 42.9333C66.6198 42.5111 65.7198 42.3 64.6531 42.3C63.8309 42.3 63.042 42.4889 62.2864 42.8667C61.5531 43.2222 60.9087 43.7444 60.3531 44.4333C59.8198 45.1 59.3864 45.9333 59.0531 46.9333C58.742 47.9111 58.5864 49.0111 58.5864 50.2333C59.1642 49.3222 59.9976 48.6 61.0864 48.0667C62.1976 47.5333 63.3753 47.2667 64.6198 47.2667C65.9309 47.2667 67.0864 47.4667 68.0864 47.8667C69.1087 48.2444 69.9642 48.7667 70.6531 49.4333C71.342 50.1 71.8642 50.8778 72.2198 51.7667C72.5753 52.6556 72.7531 53.6 72.7531 54.6C72.7531 55.8444 72.542 56.9556 72.1198 57.9333C71.6976 58.9111 71.0976 59.7444 70.3198 60.4333C69.542 61.1222 68.5976 61.6444 67.4864 62C66.3753 62.3556 65.142 62.5333 63.7864 62.5333C62.1642 62.5333 60.6976 62.2 59.3864 61.5333C58.0976 60.8889 56.9976 60 56.0864 58.8667C55.1976 57.7333 54.5087 56.3889 54.0198 54.8333C53.5309 53.2778 53.2864 51.6 53.2864 49.8C53.2864 47.9111 53.5753 46.1778 54.1531 44.6C54.7309 43 55.5198 41.6222 56.5198 40.4667C57.5198 39.2889 58.6976 38.3778 60.0531 37.7333C61.4087 37.0667 62.8642 36.7333 64.4198 36.7333C65.5531 36.7333 66.5753 36.8556 67.4864 37.1C68.4198 37.3222 69.2531 37.6444 69.9864 38.0667C70.742 38.4889 71.4087 38.9889 71.9864 39.5667C72.5864 40.1222 73.1198 40.7444 73.5864 41.4333C73.742 41.6556 73.8087 41.8889 73.7864 42.1333C73.7864 42.3778 73.6753 42.6 73.4531 42.8L70.7198 44.7ZM59.8198 54.8667C59.8198 55.6889 60.1976 56.3444 60.9531 56.8333C61.7087 57.3 62.642 57.5333 63.7531 57.5333C64.842 57.5333 65.7198 57.2667 66.3864 56.7333C67.0753 56.1778 67.4198 55.5556 67.4198 54.8667C67.4198 54.1556 67.0864 53.5333 66.4198 53C65.7753 52.4667 64.8976 52.2 63.7864 52.2C62.6753 52.2 61.7309 52.4222 60.9531 52.8667C60.1976 53.3111 59.8198 53.9778 59.8198 54.8667Z"/>
</mask>
<path d="M39.7914 53.2333C39.2358 53.2333 38.9581 52.9556 38.9581 52.4V49C38.9581 48.4444 39.2358 48.1667 39.7914 48.1667L49.0914 48.2333C49.6692 48.2333 50.1025 48.3667 50.3914 48.6333C50.7025 48.9 50.8803 49.3778 50.9247 50.0667C51.0136 51.7556 50.8136 53.3556 50.3247 54.8667C49.8358 56.3778 49.0914 57.7 48.0914 58.8333C47.0914 59.9667 45.8358 60.8667 44.3247 61.5333C42.8358 62.2 41.1247 62.5333 39.1914 62.5333C37.3914 62.5333 35.7247 62.2222 34.1914 61.6C32.6803 60.9778 31.3692 60.1111 30.2581 59C29.1469 57.8667 28.2692 56.5222 27.6247 54.9667C27.0025 53.4111 26.6914 51.6889 26.6914 49.8C26.6914 47.9111 27.0025 46.1778 27.6247 44.6C28.2469 43 29.1025 41.6222 30.1914 40.4667C31.3025 39.2889 32.5914 38.3778 34.0581 37.7333C35.5469 37.0667 37.1469 36.7333 38.8581 36.7333C41.2136 36.7333 43.2581 37.1778 44.9914 38.0667C46.7247 38.9333 48.0581 40.0556 48.9914 41.4333C49.1469 41.6556 49.2247 41.9 49.2247 42.1667C49.2247 42.4111 49.1025 42.6222 48.8581 42.8L45.7914 45.2C45.5692 45.3778 45.3136 45.4778 45.0247 45.5C44.7358 45.5 44.5025 45.3667 44.3247 45.1C43.8581 44.4111 43.2025 43.8444 42.3581 43.4C41.5358 42.9556 40.4469 42.7333 39.0914 42.7333C38.1803 42.7333 37.3358 42.9111 36.5581 43.2667C35.7803 43.6222 35.0914 44.1333 34.4914 44.8C33.9136 45.4444 33.4581 46.2222 33.1247 47.1333C32.7914 48.0444 32.6247 49.0444 32.6247 50.1333C32.6247 51.2444 32.8025 52.2444 33.1581 53.1333C33.5136 54.0222 34.0025 54.7778 34.6247 55.4C35.2469 56.0222 35.9692 56.5111 36.7914 56.8667C37.6136 57.2 38.4914 57.3667 39.4247 57.3667C40.2692 57.3667 41.0358 57.2556 41.7247 57.0333C42.4136 56.8111 43.0136 56.5111 43.5247 56.1333C44.0581 55.7333 44.4914 55.2889 44.8247 54.8C45.1581 54.2889 45.4025 53.7444 45.5581 53.1667L39.7914 53.2333ZM70.7198 44.7C70.4976 44.8778 70.242 44.9778 69.9531 45C69.6864 45 69.4531 44.8667 69.2531 44.6C68.742 43.8889 68.1087 43.3333 67.3531 42.9333C66.6198 42.5111 65.7198 42.3 64.6531 42.3C63.8309 42.3 63.042 42.4889 62.2864 42.8667C61.5531 43.2222 60.9087 43.7444 60.3531 44.4333C59.8198 45.1 59.3864 45.9333 59.0531 46.9333C58.742 47.9111 58.5864 49.0111 58.5864 50.2333C59.1642 49.3222 59.9976 48.6 61.0864 48.0667C62.1976 47.5333 63.3753 47.2667 64.6198 47.2667C65.9309 47.2667 67.0864 47.4667 68.0864 47.8667C69.1087 48.2444 69.9642 48.7667 70.6531 49.4333C71.342 50.1 71.8642 50.8778 72.2198 51.7667C72.5753 52.6556 72.7531 53.6 72.7531 54.6C72.7531 55.8444 72.542 56.9556 72.1198 57.9333C71.6976 58.9111 71.0976 59.7444 70.3198 60.4333C69.542 61.1222 68.5976 61.6444 67.4864 62C66.3753 62.3556 65.142 62.5333 63.7864 62.5333C62.1642 62.5333 60.6976 62.2 59.3864 61.5333C58.0976 60.8889 56.9976 60 56.0864 58.8667C55.1976 57.7333 54.5087 56.3889 54.0198 54.8333C53.5309 53.2778 53.2864 51.6 53.2864 49.8C53.2864 47.9111 53.5753 46.1778 54.1531 44.6C54.7309 43 55.5198 41.6222 56.5198 40.4667C57.5198 39.2889 58.6976 38.3778 60.0531 37.7333C61.4087 37.0667 62.8642 36.7333 64.4198 36.7333C65.5531 36.7333 66.5753 36.8556 67.4864 37.1C68.4198 37.3222 69.2531 37.6444 69.9864 38.0667C70.742 38.4889 71.4087 38.9889 71.9864 39.5667C72.5864 40.1222 73.1198 40.7444 73.5864 41.4333C73.742 41.6556 73.8087 41.8889 73.7864 42.1333C73.7864 42.3778 73.6753 42.6 73.4531 42.8L70.7198 44.7ZM59.8198 54.8667C59.8198 55.6889 60.1976 56.3444 60.9531 56.8333C61.7087 57.3 62.642 57.5333 63.7531 57.5333C64.842 57.5333 65.7198 57.2667 66.3864 56.7333C67.0753 56.1778 67.4198 55.5556 67.4198 54.8667C67.4198 54.1556 67.0864 53.5333 66.4198 53C65.7753 52.4667 64.8976 52.2 63.7864 52.2C62.6753 52.2 61.7309 52.4222 60.9531 52.8667C60.1976 53.3111 59.8198 53.9778 59.8198 54.8667Z" fill="white"/>
<path d="M39.7914 53.2333V53.4938L39.7944 53.4937L39.7914 53.2333ZM39.7914 48.1667L39.7933 47.9062H39.7914V48.1667ZM49.0914 48.2333L49.0895 48.4937H49.0914V48.2333ZM50.3914 48.6333L50.2146 48.8248L50.2219 48.8311L50.3914 48.6333ZM50.9247 50.0667L51.1848 50.053L51.1846 50.0499L50.9247 50.0667ZM50.3247 54.8667L50.077 54.7865L50.3247 54.8667ZM48.0914 58.8333L47.8961 58.661L48.0914 58.8333ZM44.3247 61.5333L44.2196 61.2951L44.2183 61.2957L44.3247 61.5333ZM34.1914 61.6L34.0922 61.8408L34.0935 61.8413L34.1914 61.6ZM30.2581 59L30.0721 59.1823L30.0739 59.1841L30.2581 59ZM27.6247 54.9667L27.3829 55.0634L27.3841 55.0663L27.6247 54.9667ZM27.6247 44.6L27.867 44.6955L27.8674 44.6944L27.6247 44.6ZM30.1914 40.4667L30.002 40.288L30.0019 40.2881L30.1914 40.4667ZM34.0581 37.7333L34.1628 37.9718L34.1645 37.971L34.0581 37.7333ZM44.9914 38.0667L44.8726 38.2984L44.8749 38.2996L44.9914 38.0667ZM48.9914 41.4333L48.7758 41.5794L48.778 41.5827L48.9914 41.4333ZM48.8581 42.8L48.7048 42.5893L48.6976 42.5949L48.8581 42.8ZM45.7914 45.2L45.6309 44.9949L45.6287 44.9966L45.7914 45.2ZM45.0247 45.5V45.7604H45.0347L45.0447 45.7596L45.0247 45.5ZM44.3247 45.1L44.5414 44.9555L44.5403 44.9539L44.3247 45.1ZM42.3581 43.4L42.2342 43.6291L42.2368 43.6304L42.3581 43.4ZM36.5581 43.2667L36.4498 43.0298L36.5581 43.2667ZM34.4914 44.8L34.2978 44.6258L34.2975 44.6262L34.4914 44.8ZM33.1247 47.1333L32.8802 47.0439L33.1247 47.1333ZM33.1581 53.1333L33.3998 53.0366L33.1581 53.1333ZM34.6247 55.4L34.8089 55.2159L34.6247 55.4ZM36.7914 56.8667L36.688 57.1058L36.6935 57.108L36.7914 56.8667ZM41.7247 57.0333L41.8047 57.2812L41.7247 57.0333ZM43.5247 56.1333L43.6795 56.3428L43.681 56.3417L43.5247 56.1333ZM44.8247 54.8L45.0399 54.9467L45.0429 54.9423L44.8247 54.8ZM45.5581 53.1667L45.8095 53.2344L45.8989 52.9023L45.555 52.9063L45.5581 53.1667ZM39.7914 52.9729C39.5538 52.9729 39.4234 52.9137 39.3505 52.8409C39.2777 52.768 39.2185 52.6376 39.2185 52.4H38.6976C38.6976 52.7179 38.7773 53.0042 38.9822 53.2091C39.1872 53.4141 39.4735 53.4937 39.7914 53.4937V52.9729ZM39.2185 52.4V49H38.6976V52.4H39.2185ZM39.2185 49C39.2185 48.7624 39.2777 48.632 39.3505 48.5591C39.4234 48.4863 39.5538 48.4271 39.7914 48.4271V47.9062C39.4735 47.9062 39.1872 47.9859 38.9822 48.1909C38.7773 48.3958 38.6976 48.6821 38.6976 49H39.2185ZM39.7895 48.4271L49.0895 48.4937L49.0933 47.9729L39.7933 47.9063L39.7895 48.4271ZM49.0914 48.4937C49.634 48.4937 49.9924 48.6194 50.2148 48.8247L50.568 48.442C50.2126 48.1139 49.7044 47.9729 49.0914 47.9729V48.4937ZM50.2219 48.8311C50.453 49.0292 50.622 49.4193 50.6648 50.0834L51.1846 50.0499C51.1386 49.3363 50.952 48.7708 50.5609 48.4356L50.2219 48.8311ZM50.6647 50.0804C50.752 51.7395 50.5554 53.3076 50.077 54.7865L50.5725 54.9468C51.0718 53.4035 51.2752 51.7716 51.1848 50.053L50.6647 50.0804ZM50.077 54.7865C49.5985 56.2654 48.8713 57.5558 47.8961 58.661L48.2867 59.0056C49.3115 57.8442 50.0732 56.4902 50.5725 54.9468L50.077 54.7865ZM47.8961 58.661C46.9233 59.7636 45.6995 60.6422 44.2196 61.2951L44.4298 61.7716C45.9722 61.0911 47.2595 60.1698 48.2867 59.0056L47.8961 58.661ZM44.2183 61.2957C42.7685 61.9448 41.0947 62.2729 39.1914 62.2729V62.7937C41.1547 62.7937 42.9032 62.4552 44.4311 61.771L44.2183 61.2957ZM39.1914 62.2729C37.422 62.2729 35.7889 61.9672 34.2893 61.3587L34.0935 61.8413C35.6605 62.4772 37.3608 62.7937 39.1914 62.7937V62.2729ZM34.2905 61.3592C32.8099 60.7495 31.528 59.9017 30.4422 58.8159L30.0739 59.1841C31.2103 60.3205 32.5506 61.206 34.0922 61.8408L34.2905 61.3592ZM30.444 58.8177C29.3576 57.7096 28.4978 56.3937 27.8653 54.867L27.3841 55.0663C28.0405 56.6508 28.9363 58.0238 30.0721 59.1823L30.444 58.8177ZM27.8665 54.8699C27.2581 53.3488 26.9518 51.66 26.9518 49.8H26.431C26.431 51.7178 26.7469 53.4734 27.3829 55.0634L27.8665 54.8699ZM26.9518 49.8C26.9518 47.9401 27.258 46.2396 27.867 44.6955L27.3825 44.5045C26.747 46.1159 26.431 47.8821 26.431 49.8H26.9518ZM27.8674 44.6944C28.4785 43.1231 29.3168 41.7745 30.3809 40.6453L30.0019 40.2881C28.8882 41.4699 28.0154 42.8769 27.382 44.5056L27.8674 44.6944ZM30.3808 40.6454C31.4683 39.4927 32.7284 38.602 34.1628 37.9717L33.9533 37.4949C32.4543 38.1535 31.1367 39.0851 30.002 40.288L30.3808 40.6454ZM34.1645 37.971C35.6183 37.3201 37.1818 36.9937 38.8581 36.9937V36.4729C37.1121 36.4729 35.4756 36.8133 33.9516 37.4957L34.1645 37.971ZM38.8581 36.9937C41.1808 36.9937 43.1829 37.4319 44.8726 38.2984L45.1102 37.8349C43.3332 36.9236 41.2464 36.4729 38.8581 36.4729V36.9937ZM44.8749 38.2996C46.5749 39.1496 47.8714 40.2443 48.7758 41.5794L49.207 41.2873C48.2448 39.8668 46.8745 38.7171 45.1079 37.8337L44.8749 38.2996ZM48.778 41.5827C48.9035 41.7619 48.9643 41.9544 48.9643 42.1667H49.4851C49.4851 41.8456 49.3904 41.5492 49.2047 41.284L48.778 41.5827ZM48.9643 42.1667C48.9643 42.3079 48.8998 42.4476 48.7049 42.5894L49.0112 43.0106C49.3052 42.7968 49.4851 42.5143 49.4851 42.1667H48.9643ZM48.6976 42.5949L45.6309 44.9949L45.9519 45.4051L49.0186 43.0051L48.6976 42.5949ZM45.6287 44.9966C45.4481 45.1411 45.2425 45.2221 45.0047 45.2403L45.0447 45.7596C45.3847 45.7335 45.6902 45.6144 45.9541 45.4033L45.6287 44.9966ZM45.0247 45.2396C44.8335 45.2396 44.6771 45.1591 44.5414 44.9555L44.108 45.2445C44.3279 45.5742 44.6381 45.7604 45.0247 45.7604V45.2396ZM44.5403 44.9539C44.0463 44.2247 43.3561 43.631 42.4793 43.1696L42.2368 43.6304C43.0489 44.0579 43.6698 44.5975 44.1091 45.2461L44.5403 44.9539ZM42.4819 43.1709C41.6083 42.6987 40.472 42.4729 39.0914 42.4729V42.9937C40.4219 42.9937 41.4633 43.2124 42.2342 43.6291L42.4819 43.1709ZM39.0914 42.4729C38.1454 42.4729 37.2637 42.6577 36.4498 43.0298L36.6663 43.5035C37.4079 43.1645 38.2152 42.9937 39.0914 42.9937V42.4729ZM36.4498 43.0298C35.638 43.4009 34.9205 43.9339 34.2978 44.6258L34.685 44.9742C35.2623 44.3327 35.9225 43.8435 36.6663 43.5035L36.4498 43.0298ZM34.2975 44.6262C33.6951 45.2981 33.2235 46.1054 32.8802 47.0439L33.3693 47.2228C33.6926 46.339 34.1321 45.5908 34.6853 44.9738L34.2975 44.6262ZM32.8802 47.0439C32.5351 47.9869 32.3643 49.0176 32.3643 50.1333H32.8851C32.8851 49.0713 33.0476 48.102 33.3693 47.2228L32.8802 47.0439ZM32.3643 50.1333C32.3643 51.2723 32.5466 52.3059 32.9163 53.23L33.3998 53.0366C33.0584 52.183 32.8851 51.2166 32.8851 50.1333H32.3643ZM32.9163 53.23C33.2838 54.1488 33.7913 54.9349 34.4406 55.5841L34.8089 55.2159C34.2137 54.6207 33.7435 53.8957 33.3998 53.0366L32.9163 53.23ZM34.4406 55.5841C35.0865 56.23 35.8362 56.7373 36.688 57.1057L36.8948 56.6276C36.1021 56.2849 35.4074 55.8144 34.8089 55.2159L34.4406 55.5841ZM36.6935 57.108C37.5485 57.4546 38.4596 57.6271 39.4247 57.6271V57.1062C38.5232 57.1062 37.6788 56.9454 36.8892 56.6253L36.6935 57.108ZM39.4247 57.6271C40.2919 57.6271 41.0861 57.513 41.8047 57.2812L41.6448 56.7855C40.9856 56.9981 40.2464 57.1062 39.4247 57.1062V57.6271ZM41.8047 57.2812C42.5168 57.0515 43.1428 56.7395 43.6795 56.3428L43.3699 55.9239C42.8844 56.2828 42.3105 56.5707 41.6448 56.7855L41.8047 57.2812ZM43.681 56.3417C44.2343 55.9266 44.6885 55.462 45.0399 54.9467L44.6096 54.6533C44.2942 55.1158 43.8818 55.54 43.3685 55.925L43.681 56.3417ZM45.0429 54.9423C45.3908 54.4087 45.6467 53.8391 45.8095 53.2344L45.3066 53.099C45.1583 53.6498 44.9253 54.1691 44.6066 54.6577L45.0429 54.9423ZM45.555 52.9063L39.7884 52.9729L39.7944 53.4937L45.5611 53.4271L45.555 52.9063ZM70.7198 44.7L70.5711 44.4862L70.5639 44.4912L70.5571 44.4966L70.7198 44.7ZM69.9531 45V45.2604H69.9631L69.9731 45.2596L69.9531 45ZM69.2531 44.6L69.0416 44.752L69.0448 44.7562L69.2531 44.6ZM67.3531 42.9333L67.2231 43.1592L67.2313 43.1635L67.3531 42.9333ZM62.2864 42.8667L62.4001 43.101L62.4029 43.0996L62.2864 42.8667ZM60.3531 44.4333L60.1504 44.2699L60.1498 44.2707L60.3531 44.4333ZM59.0531 46.9333L58.806 46.851L58.8049 46.8544L59.0531 46.9333ZM58.5864 50.2333H58.326V51.1303L58.8064 50.3728L58.5864 50.2333ZM61.0864 48.0667L60.9737 47.8319L60.9719 47.8328L61.0864 48.0667ZM68.0864 47.8667L67.9897 48.1085L67.9962 48.1109L68.0864 47.8667ZM70.6531 49.4333L70.8342 49.2462L70.6531 49.4333ZM72.2198 51.7667L72.4616 51.67V51.6699L72.2198 51.7667ZM72.1198 57.9333L71.8807 57.8301L72.1198 57.9333ZM70.3198 60.4333L70.1471 60.2384L70.3198 60.4333ZM59.3864 61.5333L59.5045 61.3012L59.5029 61.3004L59.3864 61.5333ZM56.0864 58.8667L55.8815 59.0274L55.8835 59.0298L56.0864 58.8667ZM54.0198 54.8333L53.7713 54.9114L54.0198 54.8333ZM54.1531 44.6L54.3976 44.6895L54.398 44.6884L54.1531 44.6ZM56.5198 40.4667L56.7167 40.6371L56.7183 40.6352L56.5198 40.4667ZM60.0531 37.7333L60.1649 37.9685L60.168 37.967L60.0531 37.7333ZM67.4864 37.1L67.4189 37.3516L67.4261 37.3533L67.4864 37.1ZM69.9864 38.0667L69.8565 38.2924L69.8594 38.294L69.9864 38.0667ZM71.9864 39.5667L71.8022 39.7509L71.8095 39.7577L71.9864 39.5667ZM73.5864 41.4333L73.3708 41.5794L73.3731 41.5827L73.5864 41.4333ZM73.7864 42.1333L73.5271 42.1098L73.526 42.1215V42.1333H73.7864ZM73.4531 42.8L73.6017 43.0138L73.6152 43.0045L73.6273 42.9936L73.4531 42.8ZM60.9531 56.8333L60.8116 57.052L60.8163 57.0549L60.9531 56.8333ZM66.3864 56.7333L66.5491 56.9367L66.5499 56.936L66.3864 56.7333ZM66.4198 53L66.2537 53.2006L66.2571 53.2034L66.4198 53ZM60.9531 52.8667L60.8239 52.6405L60.8211 52.6422L60.9531 52.8667ZM70.5571 44.4966C70.3765 44.6411 70.1709 44.7221 69.9331 44.7403L69.9731 45.2596C70.3131 45.2335 70.6186 45.1144 70.8825 44.9033L70.5571 44.4966ZM69.9531 44.7396C69.7887 44.7396 69.6259 44.663 69.4614 44.4437L69.0448 44.7562C69.2803 45.0703 69.5841 45.2604 69.9531 45.2604V44.7396ZM69.4646 44.448C68.9306 43.7051 68.2669 43.1224 67.475 42.7032L67.2313 43.1635C67.9504 43.5442 68.5534 44.0727 69.0416 44.752L69.4646 44.448ZM67.483 42.7076C66.7011 42.2575 65.7537 42.0396 64.6531 42.0396V42.5604C65.6859 42.5604 66.5384 42.7648 67.2232 43.159L67.483 42.7076ZM64.6531 42.0396C63.7893 42.0396 62.9607 42.2384 62.17 42.6337L62.4029 43.0996C63.1233 42.7394 63.8724 42.5604 64.6531 42.5604V42.0396ZM62.1728 42.6323C61.402 43.0061 60.728 43.5537 60.1504 44.2699L60.5558 44.5968C61.0894 43.9352 61.7042 43.4384 62.4001 43.101L62.1728 42.6323ZM60.1498 44.2707C59.5933 44.9662 59.1469 45.8284 58.8061 46.851L59.3002 47.0157C59.626 46.0382 60.0462 45.2338 60.5565 44.596L60.1498 44.2707ZM58.8049 46.8544C58.4843 47.862 58.326 48.9893 58.326 50.2333H58.8469C58.8469 49.0329 58.9997 47.9602 59.3013 47.0123L58.8049 46.8544ZM58.8064 50.3728C59.3553 49.5071 60.1498 48.8154 61.201 48.3005L60.9719 47.8328C59.8453 48.3846 58.9731 49.1373 58.3665 50.0939L58.8064 50.3728ZM61.1991 48.3014C62.2747 47.7852 63.4139 47.5271 64.6198 47.5271V47.0062C63.3367 47.0062 62.1204 47.2815 60.9738 47.8319L61.1991 48.3014ZM64.6198 47.5271C65.9048 47.5271 67.0264 47.7231 67.9897 48.1085L68.1832 47.6249C67.1465 47.2102 65.957 47.0062 64.6198 47.0062V47.5271ZM67.9962 48.1109C68.9891 48.4779 69.8124 48.9822 70.472 49.6205L70.8342 49.2462C70.116 48.5512 69.2282 48.011 68.1767 47.6224L67.9962 48.1109ZM70.472 49.6205C71.1346 50.2616 71.6361 51.0086 71.978 51.8634L72.4616 51.6699C72.0924 50.7469 71.5494 49.9384 70.8342 49.2462L70.472 49.6205ZM71.978 51.8634C72.3207 52.7201 72.4927 53.6316 72.4927 54.6H73.0135C73.0135 53.5684 72.83 52.591 72.4616 51.67L71.978 51.8634ZM72.4927 54.6C72.4927 55.8148 72.2867 56.8899 71.8807 57.8301L72.3588 58.0366C72.7973 57.0212 73.0135 55.874 73.0135 54.6H72.4927ZM71.8807 57.8301C71.4732 58.7737 70.8956 59.5755 70.1471 60.2384L70.4924 60.6283C71.2995 59.9134 71.9219 59.0485 72.3588 58.0366L71.8807 57.8301ZM70.1471 60.2384C69.3995 60.9005 68.488 61.4061 67.4071 61.752L67.5658 62.248C68.7071 61.8828 69.6844 61.3439 70.4924 60.6283L70.1471 60.2384ZM67.4071 61.752C66.3254 62.0981 65.1193 62.2729 63.7864 62.2729V62.7937C65.1647 62.7937 66.4253 62.613 67.5658 62.248L67.4071 61.752ZM63.7864 62.2729C62.201 62.2729 60.7754 61.9474 59.5045 61.3012L59.2684 61.7655C60.6197 62.4526 62.1275 62.7937 63.7864 62.7937V62.2729ZM59.5029 61.3004C58.2478 60.6729 57.1773 59.8079 56.2894 58.7035L55.8835 59.0298C56.8178 60.1921 57.9473 61.1049 59.27 61.7663L59.5029 61.3004ZM56.2913 58.706C55.4242 57.6004 54.7489 56.2848 54.2682 54.7553L53.7713 54.9114C54.2684 56.493 54.9709 57.8663 55.8815 59.0274L56.2913 58.706ZM54.2682 54.7553C53.788 53.2274 53.5469 51.5762 53.5469 49.8H53.026C53.026 51.6238 53.2737 53.3281 53.7713 54.9114L54.2682 54.7553ZM53.5469 49.8C53.5469 47.9379 53.8316 46.2353 54.3976 44.6895L53.9086 44.5104C53.3191 46.1202 53.026 47.8843 53.026 49.8H53.5469ZM54.398 44.6884C54.9662 43.1151 55.7398 41.7659 56.7167 40.6371L56.3229 40.2963C55.2997 41.4785 54.4956 42.8849 53.9082 44.5115L54.398 44.6884ZM56.7183 40.6352C57.6951 39.4847 58.8436 38.5967 60.1649 37.9685L59.9413 37.4981C58.5515 38.1589 57.3444 39.0931 56.3213 40.2981L56.7183 40.6352ZM60.168 37.967C61.4867 37.3185 62.9028 36.9937 64.4198 36.9937V36.4729C62.8256 36.4729 61.3306 36.8149 59.9382 37.4996L60.168 37.967ZM64.4198 36.9937C65.5347 36.9937 66.5337 37.114 67.419 37.3515L67.5539 36.8485C66.6169 36.5971 65.5715 36.4729 64.4198 36.4729V36.9937ZM67.4261 37.3533C68.3382 37.5705 69.1476 37.8842 69.8565 38.2923L70.1164 37.841C69.3586 37.4047 68.5013 37.0739 67.5468 36.8467L67.4261 37.3533ZM69.8594 38.294C70.5953 38.7052 71.2425 39.191 71.8023 39.7508L72.1706 39.3825C71.5749 38.7868 70.8887 38.2726 70.1135 37.8393L69.8594 38.294ZM71.8095 39.7577C72.3947 40.2996 72.9151 40.9066 73.3708 41.5794L73.802 41.2873C73.3244 40.5822 72.7782 39.9449 72.1634 39.3756L71.8095 39.7577ZM73.3731 41.5827C73.4973 41.7602 73.5432 41.9331 73.5271 42.1098L74.0458 42.1569C74.0742 41.8446 73.9866 41.5509 73.7998 41.284L73.3731 41.5827ZM73.526 42.1333C73.526 42.2878 73.4595 42.4439 73.2789 42.6064L73.6273 42.9936C73.8912 42.7561 74.0469 42.4677 74.0469 42.1333H73.526ZM73.3045 42.5862L70.5711 44.4862L70.8684 44.9138L73.6017 43.0138L73.3045 42.5862ZM59.5594 54.8667C59.5594 55.7867 59.9902 56.5205 60.8116 57.052L61.0946 56.6147C60.4049 56.1684 60.0802 55.5911 60.0802 54.8667H59.5594ZM60.8163 57.0549C61.6221 57.5526 62.6057 57.7937 63.7531 57.7937V57.2729C62.6783 57.2729 61.7952 57.0474 61.09 56.6118L60.8163 57.0549ZM63.7531 57.7937C64.8846 57.7937 65.8248 57.5161 66.5491 56.9367L66.2238 56.53C65.6147 57.0172 64.7994 57.2729 63.7531 57.2729V57.7937ZM66.5499 56.936C67.2812 56.3463 67.6802 55.6558 67.6802 54.8667H67.1594C67.1594 55.4553 66.8695 56.0092 66.223 56.5306L66.5499 56.936ZM67.6802 54.8667C67.6802 54.0604 67.2971 53.3684 66.5825 52.7966L66.2571 53.2034C66.8757 53.6983 67.1594 54.2508 67.1594 54.8667H67.6802ZM66.5858 52.7994C65.8813 52.2163 64.9381 51.9396 63.7864 51.9396V52.4604C64.857 52.4604 65.6694 52.717 66.2537 53.2006L66.5858 52.7994ZM63.7864 51.9396C62.6408 51.9396 61.6494 52.1688 60.8239 52.6406L61.0823 53.0928C61.8123 52.6756 62.7099 52.4604 63.7864 52.4604V51.9396ZM60.8211 52.6422C59.9846 53.1342 59.5594 53.8871 59.5594 54.8667H60.0802C60.0802 54.0685 60.4105 53.488 61.0851 53.0911L60.8211 52.6422Z" fill="url(#paint8_linear_366_9797)" style="mix-blend-mode:color-burn" mask="url(#path-12-outside-2_366_9797)"/>
</g>
<defs>
<filter id="filter0_d_366_9797" x="-4.16667" y="-3.125" width="108.333" height="108.333" filterUnits="userSpaceOnUse" color-interpolation-filters="sRGB">
<feFlood flood-opacity="0" result="BackgroundImageFix"/>
<feColorMatrix in="SourceAlpha" type="matrix" values="0 0 0 0 0 0 0 0 0 0 0 0 0 0 0 0 0 0 127 0" result="hardAlpha"/>
<feOffset dy="1.04167"/>
<feGaussianBlur stdDeviation="2.08333"/>
<feColorMatrix type="matrix" values="0 0 0 0 0 0 0 0 0 0 0 0 0 0 0 0 0 0 0.16 0"/>
<feBlend mode="color-burn" in2="BackgroundImageFix" result="effect1_dropShadow_366_9797"/>
<feBlend mode="normal" in="SourceGraphic" in2="effect1_dropShadow_366_9797" result="shape"/>
</filter>
<filter id="filter1_d_366_9797" x="20.181" y="31.2646" width="60.1201" height="38.8208" filterUnits="userSpaceOnUse" color-interpolation-filters="sRGB">
<feFlood flood-opacity="0" result="BackgroundImageFix"/>
<feColorMatrix in="SourceAlpha" type="matrix" values="0 0 0 0 0 0 0 0 0 0 0 0 0 0 0 0 0 0 127 0" result="hardAlpha"/>
<feOffset dy="1.04167"/>
<feGaussianBlur stdDeviation="3.125"/>
<feColorMatrix type="matrix" values="0 0 0 0 0 0 0 0 0 0 0 0 0 0 0 0 0 0 0.12 0"/>
<feBlend mode="plus-darker" in2="BackgroundImageFix" result="effect1_dropShadow_366_9797"/>
<feBlend mode="normal" in="SourceGraphic" in2="effect1_dropShadow_366_9797" result="shape"/>
</filter>
<linearGradient id="paint0_linear_366_9797" x1="122.917" y1="122.917" x2="-51.5238" y2="31.9277" gradientUnits="userSpaceOnUse">
<stop stop-color="#61B82B"/>
<stop offset="1" stop-color="#399500"/>
</linearGradient>
<linearGradient id="paint1_linear_366_9797" x1="50" y1="-6.39144" x2="50" y2="105.635" gradientUnits="userSpaceOnUse">
<stop stop-color="white"/>
<stop offset="1" stop-color="white" stop-opacity="0"/>
</linearGradient>
<radialGradient id="paint2_radial_366_9797" cx="0" cy="0" r="1" gradientUnits="userSpaceOnUse" gradientTransform="translate(50 25.7865) rotate(90) scale(73.89 56.0618)">
<stop stop-color="white"/>
<stop offset="1" stop-color="white" stop-opacity="0"/>
</radialGradient>
<linearGradient id="paint3_linear_366_9797" x1="122.917" y1="122.917" x2="-51.5238" y2="31.9277" gradientUnits="userSpaceOnUse">
<stop stop-color="#61B82B"/>
<stop offset="1" stop-color="#399500"/>
</linearGradient>
<linearGradient id="paint4_linear_366_9797" x1="50" y1="-6.39144" x2="50" y2="105.635" gradientUnits="userSpaceOnUse">
<stop stop-color="white"/>
<stop offset="1" stop-color="white" stop-opacity="0"/>
</linearGradient>
<radialGradient id="paint5_radial_366_9797" cx="0" cy="0" r="1" gradientUnits="userSpaceOnUse" gradientTransform="translate(50 25.7865) rotate(90) scale(73.89 56.0618)">
<stop stop-color="white"/>
<stop offset="1" stop-color="white" stop-opacity="0"/>
</radialGradient>
<linearGradient id="paint6_linear_366_9797" x1="-22.9167" y1="-22.9167" x2="-22.9167" y2="122.917" gradientUnits="userSpaceOnUse">
<stop offset="0.135095" stop-color="white"/>
<stop offset="0.877908" stop-color="white" stop-opacity="0.01"/>
</linearGradient>
<linearGradient id="paint7_linear_366_9797" x1="50" y1="0" x2="50" y2="100" gradientUnits="userSpaceOnUse">
<stop stop-color="white"/>
<stop offset="1" stop-color="#999999"/>
</linearGradient>
<linearGradient id="paint8_linear_366_9797" x1="50" y1="33.3333" x2="50" y2="66.3333" gradientUnits="userSpaceOnUse">
<stop stop-color="#DFDFDF"/>
<stop offset="1" stop-color="#A9A9A9"/>
</linearGradient>
</defs>
</svg>
