<svg width="100" height="100" viewBox="0 0 100 100" fill="none" xmlns="http://www.w3.org/2000/svg">
<mask id="mask0_366_9817" style="mask-type:alpha" maskUnits="userSpaceOnUse" x="0" y="0" width="100" height="100">
<circle cx="50" cy="50" r="50" fill="white"/>
</mask>
<g mask="url(#mask0_366_9817)">
<mask id="mask1_366_9817" style="mask-type:alpha" maskUnits="userSpaceOnUse" x="0" y="0" width="100" height="100">
<circle cx="50" cy="50" r="50" fill="white"/>
</mask>
<g mask="url(#mask1_366_9817)">
<rect x="-22.9167" y="-22.9167" width="145.833" height="145.833" fill="url(#paint0_linear_366_9817)"/>
<rect x="-22.9167" y="-22.9167" width="145.833" height="145.833" fill="url(#paint1_linear_366_9817)" fill-opacity="0.6" style="mix-blend-mode:overlay"/>
<rect x="-22.9167" y="-22.9167" width="145.833" height="145.833" fill="url(#paint2_radial_366_9817)" fill-opacity="0.6" style="mix-blend-mode:overlay"/>
<rect x="-22.9167" y="-22.9167" width="145.833" height="145.833" fill="black" fill-opacity="0.16" style="mix-blend-mode:overlay"/>
<rect x="-22.9167" y="-22.9167" width="145.833" height="145.833" fill="black" fill-opacity="0.12" style="mix-blend-mode:darken"/>
</g>
<g filter="url(#filter0_d_366_9817)">
<mask id="mask2_366_9817" style="mask-type:alpha" maskUnits="userSpaceOnUse" x="0" y="0" width="100" height="100">
<path fill-rule="evenodd" clip-rule="evenodd" d="M95.8333 50C95.8333 75.313 75.313 95.8333 50 95.8333C24.6869 95.8333 4.16667 75.313 4.16667 50C4.16667 24.6869 24.6869 4.16667 50 4.16667C75.313 4.16667 95.8333 24.6869 95.8333 50ZM100 50C100 77.6142 77.6142 100 50 100C22.3858 100 0 77.6142 0 50C0 22.3858 22.3858 0 50 0C77.6142 0 100 22.3858 100 50ZM50 88.0208C70.9983 88.0208 88.0208 70.9983 88.0208 50C88.0208 29.0017 70.9983 11.9792 50 11.9792C29.0017 11.9792 11.9792 29.0017 11.9792 50C11.9792 70.9983 29.0017 88.0208 50 88.0208Z" fill="white"/>
</mask>
<g mask="url(#mask2_366_9817)">
<rect x="-22.9167" y="-22.9167" width="145.833" height="145.833" fill="url(#paint3_linear_366_9817)"/>
<rect x="-22.9167" y="-22.9167" width="145.833" height="145.833" fill="url(#paint4_linear_366_9817)" fill-opacity="0.6" style="mix-blend-mode:overlay"/>
<rect x="-22.9167" y="-22.9167" width="145.833" height="145.833" fill="url(#paint5_radial_366_9817)" fill-opacity="0.6" style="mix-blend-mode:overlay"/>
<g style="mix-blend-mode:soft-light">
<path fill-rule="evenodd" clip-rule="evenodd" d="M-22.9167 -22.9167H64.5833L36.6578 122.917H-22.9167V-22.9167Z" fill="url(#paint6_linear_366_9817)" style="mix-blend-mode:lighten"/>
</g>
<g style="mix-blend-mode:soft-light">
<mask id="path-10-inside-1_366_9817" fill="white">
<path fill-rule="evenodd" clip-rule="evenodd" d="M95.8333 50C95.8333 75.313 75.313 95.8333 50 95.8333C24.6869 95.8333 4.16667 75.313 4.16667 50C4.16667 24.6869 24.6869 4.16667 50 4.16667C75.313 4.16667 95.8333 24.6869 95.8333 50ZM100 50C100 77.6142 77.6142 100 50 100C22.3858 100 0 77.6142 0 50C0 22.3858 22.3858 0 50 0C77.6142 0 100 22.3858 100 50ZM50 88.0208C70.9983 88.0208 88.0208 70.9983 88.0208 50C88.0208 29.0017 70.9983 11.9792 50 11.9792C29.0017 11.9792 11.9792 29.0017 11.9792 50C11.9792 70.9983 29.0017 88.0208 50 88.0208Z"/>
</mask>
<path d="M50 96.0938C75.4569 96.0938 96.0938 75.4569 96.0938 50H95.5729C95.5729 75.1692 75.1692 95.5729 50 95.5729V96.0938ZM3.90625 50C3.90625 75.4569 24.5431 96.0938 50 96.0938V95.5729C24.8308 95.5729 4.42708 75.1692 4.42708 50H3.90625ZM50 3.90625C24.5431 3.90625 3.90625 24.5431 3.90625 50H4.42708C4.42708 24.8308 24.8308 4.42708 50 4.42708V3.90625ZM96.0938 50C96.0938 24.5431 75.4569 3.90625 50 3.90625V4.42708C75.1692 4.42708 95.5729 24.8308 95.5729 50H96.0938ZM50 100.26C77.7581 100.26 100.26 77.7581 100.26 50H99.7396C99.7396 77.4704 77.4704 99.7396 50 99.7396V100.26ZM-0.260417 50C-0.260417 77.7581 22.2419 100.26 50 100.26V99.7396C22.5296 99.7396 0.260417 77.4704 0.260417 50H-0.260417ZM50 -0.260417C22.2419 -0.260417 -0.260417 22.2419 -0.260417 50H0.260417C0.260417 22.5296 22.5296 0.260417 50 0.260417V-0.260417ZM100.26 50C100.26 22.2419 77.7581 -0.260417 50 -0.260417V0.260417C77.4704 0.260417 99.7396 22.5296 99.7396 50H100.26ZM87.7604 50C87.7604 70.8545 70.8545 87.7604 50 87.7604V88.2812C71.1421 88.2812 88.2812 71.1421 88.2812 50H87.7604ZM50 12.2396C70.8545 12.2396 87.7604 29.1455 87.7604 50H88.2812C88.2812 28.8578 71.1421 11.7188 50 11.7188V12.2396ZM12.2396 50C12.2396 29.1455 29.1455 12.2396 50 12.2396V11.7188C28.8578 11.7188 11.7188 28.8578 11.7188 50H12.2396ZM50 87.7604C29.1455 87.7604 12.2396 70.8545 12.2396 50H11.7188C11.7188 71.1421 28.8578 88.2812 50 88.2812V87.7604Z" fill="url(#paint7_linear_366_9817)" mask="url(#path-10-inside-1_366_9817)"/>
</g>
</g>
</g>
</g>
<g filter="url(#filter1_d_366_9817)">
<mask id="path-12-outside-2_366_9817" maskUnits="userSpaceOnUse" x="29.3333" y="36.3333" width="43" height="27" fill="black">
<rect fill="white" x="29.3333" y="36.3333" width="43" height="27"/>
<path d="M31.0351 62.5333C30.4129 62.5333 30.1018 62.2 30.1018 61.5333L29.7351 39.3C29.7129 38.5222 29.924 37.9556 30.3685 37.6C30.8129 37.2222 31.3796 37.0111 32.0685 36.9667C37.5796 36.5 41.7129 36.9667 44.4685 38.3667C47.224 39.7444 48.6018 41.9444 48.6018 44.9667C48.6018 45.7 48.4907 46.4 48.2685 47.0667C48.0463 47.7111 47.724 48.3 47.3018 48.8333C46.8796 49.3667 46.3796 49.8222 45.8018 50.2C45.224 50.5778 44.5907 50.8444 43.9018 51C44.5685 51.1333 45.1685 51.3556 45.7018 51.6667C46.2574 51.9778 46.724 52.3444 47.1018 52.7667C47.4796 53.1889 47.7685 53.6444 47.9685 54.1333C48.1685 54.6222 48.2685 55.1111 48.2685 55.6C48.2685 56.6889 48.0129 57.6667 47.5018 58.5333C46.9907 59.4 46.2129 60.1333 45.1685 60.7333C44.1462 61.3333 42.8351 61.7889 41.2351 62.1C39.6574 62.4333 37.8018 62.5889 35.6685 62.5667L31.0351 62.5333ZM35.6018 48.4667H37.6685C38.4462 48.4667 39.1574 48.4 39.8018 48.2667C40.4685 48.1111 41.0351 47.9 41.5018 47.6333C41.9907 47.3667 42.3685 47.0444 42.6351 46.6667C42.9018 46.2667 43.0351 45.8222 43.0351 45.3333C43.0351 44.2 42.3796 43.3667 41.0685 42.8333C39.7796 42.3 37.9685 42.1889 35.6351 42.5L35.6018 48.4667ZM35.4018 58.6333H37.8351C39.324 58.6333 40.5018 58.3444 41.3685 57.7667C42.2574 57.1667 42.7018 56.3889 42.7018 55.4333C42.7018 54.9444 42.5685 54.5222 42.3018 54.1667C42.0574 53.7889 41.7129 53.4778 41.2685 53.2333C40.824 52.9889 40.2907 52.8111 39.6685 52.7C39.0685 52.5667 38.4018 52.5 37.6685 52.5H35.4685L35.4018 58.6333ZM68.376 44.7C68.1538 44.8778 67.8982 44.9778 67.6094 45C67.3427 45 67.1094 44.8667 66.9094 44.6C66.3982 43.8889 65.7649 43.3333 65.0094 42.9333C64.276 42.5111 63.376 42.3 62.3094 42.3C61.4871 42.3 60.6982 42.4889 59.9427 42.8667C59.2094 43.2222 58.5649 43.7444 58.0094 44.4333C57.476 45.1 57.0427 45.9333 56.7094 46.9333C56.3982 47.9111 56.2427 49.0111 56.2427 50.2333C56.8205 49.3222 57.6538 48.6 58.7427 48.0667C59.8538 47.5333 61.0316 47.2667 62.276 47.2667C63.5871 47.2667 64.7427 47.4667 65.7427 47.8667C66.7649 48.2444 67.6205 48.7667 68.3094 49.4333C68.9982 50.1 69.5205 50.8778 69.876 51.7667C70.2316 52.6556 70.4094 53.6 70.4094 54.6C70.4094 55.8444 70.1982 56.9556 69.776 57.9333C69.3538 58.9111 68.7538 59.7444 67.976 60.4333C67.1982 61.1222 66.2538 61.6444 65.1427 62C64.0316 62.3556 62.7982 62.5333 61.4427 62.5333C59.8205 62.5333 58.3538 62.2 57.0427 61.5333C55.7538 60.8889 54.6538 60 53.7427 58.8667C52.8538 57.7333 52.1649 56.3889 51.676 54.8333C51.1871 53.2778 50.9427 51.6 50.9427 49.8C50.9427 47.9111 51.2316 46.1778 51.8094 44.6C52.3871 43 53.176 41.6222 54.176 40.4667C55.176 39.2889 56.3538 38.3778 57.7094 37.7333C59.0649 37.0667 60.5205 36.7333 62.076 36.7333C63.2094 36.7333 64.2316 36.8556 65.1427 37.1C66.076 37.3222 66.9094 37.6444 67.6427 38.0667C68.3982 38.4889 69.0649 38.9889 69.6427 39.5667C70.2427 40.1222 70.776 40.7444 71.2427 41.4333C71.3982 41.6556 71.4649 41.8889 71.4427 42.1333C71.4427 42.3778 71.3316 42.6 71.1094 42.8L68.376 44.7ZM57.476 54.8667C57.476 55.6889 57.8538 56.3444 58.6094 56.8333C59.3649 57.3 60.2982 57.5333 61.4094 57.5333C62.4982 57.5333 63.376 57.2667 64.0427 56.7333C64.7316 56.1778 65.076 55.5556 65.076 54.8667C65.076 54.1556 64.7427 53.5333 64.076 53C63.4316 52.4667 62.5538 52.2 61.4427 52.2C60.3316 52.2 59.3871 52.4222 58.6094 52.8667C57.8538 53.3111 57.476 53.9778 57.476 54.8667Z"/>
</mask>
<path d="M31.0351 62.5333C30.4129 62.5333 30.1018 62.2 30.1018 61.5333L29.7351 39.3C29.7129 38.5222 29.924 37.9556 30.3685 37.6C30.8129 37.2222 31.3796 37.0111 32.0685 36.9667C37.5796 36.5 41.7129 36.9667 44.4685 38.3667C47.224 39.7444 48.6018 41.9444 48.6018 44.9667C48.6018 45.7 48.4907 46.4 48.2685 47.0667C48.0463 47.7111 47.724 48.3 47.3018 48.8333C46.8796 49.3667 46.3796 49.8222 45.8018 50.2C45.224 50.5778 44.5907 50.8444 43.9018 51C44.5685 51.1333 45.1685 51.3556 45.7018 51.6667C46.2574 51.9778 46.724 52.3444 47.1018 52.7667C47.4796 53.1889 47.7685 53.6444 47.9685 54.1333C48.1685 54.6222 48.2685 55.1111 48.2685 55.6C48.2685 56.6889 48.0129 57.6667 47.5018 58.5333C46.9907 59.4 46.2129 60.1333 45.1685 60.7333C44.1462 61.3333 42.8351 61.7889 41.2351 62.1C39.6574 62.4333 37.8018 62.5889 35.6685 62.5667L31.0351 62.5333ZM35.6018 48.4667H37.6685C38.4462 48.4667 39.1574 48.4 39.8018 48.2667C40.4685 48.1111 41.0351 47.9 41.5018 47.6333C41.9907 47.3667 42.3685 47.0444 42.6351 46.6667C42.9018 46.2667 43.0351 45.8222 43.0351 45.3333C43.0351 44.2 42.3796 43.3667 41.0685 42.8333C39.7796 42.3 37.9685 42.1889 35.6351 42.5L35.6018 48.4667ZM35.4018 58.6333H37.8351C39.324 58.6333 40.5018 58.3444 41.3685 57.7667C42.2574 57.1667 42.7018 56.3889 42.7018 55.4333C42.7018 54.9444 42.5685 54.5222 42.3018 54.1667C42.0574 53.7889 41.7129 53.4778 41.2685 53.2333C40.824 52.9889 40.2907 52.8111 39.6685 52.7C39.0685 52.5667 38.4018 52.5 37.6685 52.5H35.4685L35.4018 58.6333ZM68.376 44.7C68.1538 44.8778 67.8982 44.9778 67.6094 45C67.3427 45 67.1094 44.8667 66.9094 44.6C66.3982 43.8889 65.7649 43.3333 65.0094 42.9333C64.276 42.5111 63.376 42.3 62.3094 42.3C61.4871 42.3 60.6982 42.4889 59.9427 42.8667C59.2094 43.2222 58.5649 43.7444 58.0094 44.4333C57.476 45.1 57.0427 45.9333 56.7094 46.9333C56.3982 47.9111 56.2427 49.0111 56.2427 50.2333C56.8205 49.3222 57.6538 48.6 58.7427 48.0667C59.8538 47.5333 61.0316 47.2667 62.276 47.2667C63.5871 47.2667 64.7427 47.4667 65.7427 47.8667C66.7649 48.2444 67.6205 48.7667 68.3094 49.4333C68.9982 50.1 69.5205 50.8778 69.876 51.7667C70.2316 52.6556 70.4094 53.6 70.4094 54.6C70.4094 55.8444 70.1982 56.9556 69.776 57.9333C69.3538 58.9111 68.7538 59.7444 67.976 60.4333C67.1982 61.1222 66.2538 61.6444 65.1427 62C64.0316 62.3556 62.7982 62.5333 61.4427 62.5333C59.8205 62.5333 58.3538 62.2 57.0427 61.5333C55.7538 60.8889 54.6538 60 53.7427 58.8667C52.8538 57.7333 52.1649 56.3889 51.676 54.8333C51.1871 53.2778 50.9427 51.6 50.9427 49.8C50.9427 47.9111 51.2316 46.1778 51.8094 44.6C52.3871 43 53.176 41.6222 54.176 40.4667C55.176 39.2889 56.3538 38.3778 57.7094 37.7333C59.0649 37.0667 60.5205 36.7333 62.076 36.7333C63.2094 36.7333 64.2316 36.8556 65.1427 37.1C66.076 37.3222 66.9094 37.6444 67.6427 38.0667C68.3982 38.4889 69.0649 38.9889 69.6427 39.5667C70.2427 40.1222 70.776 40.7444 71.2427 41.4333C71.3982 41.6556 71.4649 41.8889 71.4427 42.1333C71.4427 42.3778 71.3316 42.6 71.1094 42.8L68.376 44.7ZM57.476 54.8667C57.476 55.6889 57.8538 56.3444 58.6094 56.8333C59.3649 57.3 60.2982 57.5333 61.4094 57.5333C62.4982 57.5333 63.376 57.2667 64.0427 56.7333C64.7316 56.1778 65.076 55.5556 65.076 54.8667C65.076 54.1556 64.7427 53.5333 64.076 53C63.4316 52.4667 62.5538 52.2 61.4427 52.2C60.3316 52.2 59.3871 52.4222 58.6094 52.8667C57.8538 53.3111 57.476 53.9778 57.476 54.8667Z" fill="white"/>
<path d="M31.0351 62.5333L31.037 62.2729H31.0351V62.5333ZM30.1018 61.5333H30.3623L30.3622 61.529L30.1018 61.5333ZM29.7351 39.3L29.9955 39.2957L29.9954 39.2926L29.7351 39.3ZM30.3685 37.6L30.5312 37.8034L30.5371 37.7984L30.3685 37.6ZM32.0685 36.9667L32.0852 37.2266L32.0904 37.2262L32.0685 36.9667ZM44.4685 38.3667L44.3505 38.5988L44.352 38.5996L44.4685 38.3667ZM48.2685 47.0667L48.5147 47.1516L48.5155 47.149L48.2685 47.0667ZM47.3018 48.8333L47.0976 48.6717L47.3018 48.8333ZM45.8018 50.2L45.9443 50.418L45.8018 50.2ZM43.9018 51L43.8444 50.746L43.8507 51.2554L43.9018 51ZM45.7018 51.6667L45.5706 51.8916L45.5746 51.8939L45.7018 51.6667ZM47.1018 52.7667L47.2959 52.593L47.1018 52.7667ZM45.1685 60.7333L45.0387 60.5075L45.0367 60.5087L45.1685 60.7333ZM41.2351 62.1L41.1854 61.8443L41.1813 61.8452L41.2351 62.1ZM35.6685 62.5667L35.6712 62.3063L35.6703 62.3063L35.6685 62.5667ZM35.6018 48.4667L35.3414 48.4652L35.3399 48.7271H35.6018V48.4667ZM39.8018 48.2667L39.8546 48.5218L39.861 48.5203L39.8018 48.2667ZM41.5018 47.6333L41.3771 47.4047L41.3726 47.4072L41.5018 47.6333ZM42.6351 46.6667L42.848 46.8169L42.8518 46.8111L42.6351 46.6667ZM41.0685 42.8333L40.9689 43.074L40.9703 43.0746L41.0685 42.8333ZM35.6351 42.5L35.6007 42.2419L35.376 42.2718L35.3747 42.4985L35.6351 42.5ZM35.4018 58.6333L35.1414 58.6305L35.1385 58.8937H35.4018V58.6333ZM41.3685 57.7667L41.5129 57.9833L41.5142 57.9825L41.3685 57.7667ZM42.3018 54.1667L42.0832 54.3081L42.0881 54.3157L42.0935 54.3229L42.3018 54.1667ZM41.2685 53.2333L41.143 53.4615L41.2685 53.2333ZM39.6685 52.7L39.6119 52.9544L39.6227 52.9564L39.6685 52.7ZM35.4685 52.5V52.2396H35.2109L35.2081 52.4972L35.4685 52.5ZM31.0351 62.2729C30.7689 62.2729 30.6159 62.2025 30.5255 62.1056C30.432 62.0054 30.3622 61.8308 30.3622 61.5333H29.8414C29.8414 61.9025 29.9272 62.2279 30.1448 62.461C30.3655 62.6975 30.6791 62.7937 31.0351 62.7937V62.2729ZM30.3622 61.529L29.9955 39.2957L29.4748 39.3043L29.8414 61.5376L30.3622 61.529ZM29.9954 39.2926C29.9746 38.5643 30.1721 38.0906 30.5312 37.8033L30.2058 37.3966C29.676 37.8205 29.4512 38.4802 29.4748 39.3074L29.9954 39.2926ZM30.5371 37.7984C30.9314 37.4633 31.4417 37.2681 32.0852 37.2265L32.0517 36.7068C31.3175 36.7542 30.6944 36.9812 30.1998 37.4016L30.5371 37.7984ZM32.0904 37.2262C37.5862 36.7608 41.6603 37.2321 44.3505 38.5988L44.5864 38.1345C41.7655 36.7013 37.5729 36.2392 32.0465 36.7072L32.0904 37.2262ZM44.352 38.5996C45.6951 39.2711 46.6887 40.1358 47.3478 41.1882C48.0067 42.2404 48.3414 43.4963 48.3414 44.9667H48.8622C48.8622 43.4148 48.508 42.0596 47.7892 40.9118C47.0705 39.7642 45.9974 38.84 44.5849 38.1337L44.352 38.5996ZM48.3414 44.9667C48.3414 45.6732 48.2344 46.3453 48.0214 46.9843L48.5155 47.149C48.747 46.4547 48.8622 45.7268 48.8622 44.9667H48.3414ZM48.0223 46.9818C47.8096 47.5985 47.5016 48.1614 47.0976 48.6717L47.506 48.995C47.9465 48.4386 48.2829 47.8237 48.5147 47.1516L48.0223 46.9818ZM47.0976 48.6717C46.6931 49.1827 46.214 49.6194 45.6593 49.982L45.9443 50.418C46.5452 50.0251 47.0661 49.5506 47.506 48.995L47.0976 48.6717ZM45.6593 49.982C45.1081 50.3424 44.5037 50.5971 43.8444 50.746L43.9592 51.254C44.6777 51.0918 45.3399 50.8131 45.9443 50.418L45.6593 49.982ZM43.8507 51.2554C44.492 51.3836 45.0645 51.5964 45.5706 51.8916L45.833 51.4417C45.2725 51.1147 44.6449 50.883 43.9529 50.7446L43.8507 51.2554ZM45.5746 51.8939C46.1081 52.1927 46.5513 52.542 46.9077 52.9403L47.2959 52.593C46.8967 52.1469 46.4066 51.7629 45.829 51.4394L45.5746 51.8939ZM46.9077 52.9403C47.2671 53.342 47.5395 53.7725 47.7274 54.2319L48.2095 54.0347C47.9975 53.5164 47.692 53.0358 47.2959 52.593L46.9077 52.9403ZM47.7274 54.2319C47.9157 54.6921 48.0081 55.1476 48.0081 55.6H48.5289C48.5289 55.0747 48.4213 54.5524 48.2095 54.0347L47.7274 54.2319ZM48.0081 55.6C48.0081 56.6463 47.763 57.5777 47.2775 58.401L47.7261 58.6656C48.2628 57.7556 48.5289 56.7315 48.5289 55.6H48.0081ZM47.2775 58.401C46.7934 59.2219 46.0518 59.9256 45.0388 60.5075L45.2982 60.9591C46.374 60.3411 47.188 59.5781 47.7261 58.6656L47.2775 58.401ZM45.0367 60.5087C44.0474 61.0894 42.7666 61.5369 41.1854 61.8444L41.2848 62.3556C42.9037 62.0408 44.2451 61.5773 45.3003 60.9579L45.0367 60.5087ZM41.1813 61.8452C39.627 62.1736 37.7912 62.3283 35.6712 62.3063L35.6658 62.8271C37.8124 62.8494 39.6878 62.6931 41.289 62.3548L41.1813 61.8452ZM35.6703 62.3063L31.037 62.2729L31.0333 62.7937L35.6666 62.8271L35.6703 62.3063ZM35.6018 48.7271H37.6685V48.2062H35.6018V48.7271ZM37.6685 48.7271C38.4609 48.7271 39.19 48.6592 39.8546 48.5217L39.749 48.0116C39.1248 48.1408 38.4316 48.2062 37.6685 48.2062V48.7271ZM39.861 48.5203C40.5458 48.3605 41.1374 48.1415 41.631 47.8594L41.3726 47.4072C40.9329 47.6585 40.3911 47.8617 39.7426 48.0131L39.861 48.5203ZM41.6265 47.862C42.1433 47.5801 42.554 47.2331 42.8479 46.8168L42.4224 46.5165C42.1829 46.8557 41.8381 47.1533 41.3771 47.4047L41.6265 47.862ZM42.8518 46.8111C43.1475 46.3676 43.2956 45.8727 43.2956 45.3333H42.7747C42.7747 45.7717 42.6561 46.1658 42.4185 46.5222L42.8518 46.8111ZM43.2956 45.3333C43.2956 44.7126 43.1146 44.1632 42.7481 43.6973C42.3846 43.2352 41.8505 42.8703 41.1666 42.5921L40.9703 43.0746C41.5976 43.3297 42.0468 43.6482 42.3388 44.0193C42.6279 44.3868 42.7747 44.8208 42.7747 45.3333H43.2956ZM41.168 42.5927C39.8169 42.0336 37.9519 41.9284 35.6007 42.2419L35.6696 42.7581C37.985 42.4494 39.7422 42.5664 40.9689 43.074L41.168 42.5927ZM35.3747 42.4985L35.3414 48.4652L35.8622 48.4681L35.8956 42.5015L35.3747 42.4985ZM35.4018 58.8937H37.8351V58.3729H35.4018V58.8937ZM37.8351 58.8937C39.3543 58.8937 40.5888 58.5994 41.5129 57.9833L41.224 57.55C40.4148 58.0894 39.2937 58.3729 37.8351 58.3729V58.8937ZM41.5142 57.9825C42.4645 57.341 42.9622 56.4871 42.9622 55.4333H42.4414C42.4414 56.2907 42.0502 56.9923 41.2228 57.5508L41.5142 57.9825ZM42.9622 55.4333C42.9622 54.894 42.814 54.4156 42.5101 54.0104L42.0935 54.3229C42.3229 54.6289 42.4414 54.9948 42.4414 55.4333H42.9622ZM42.5204 54.0252C42.2498 53.6069 41.8713 53.2677 41.394 53.0051L41.143 53.4615C41.5545 53.6879 41.865 53.9709 42.0832 54.3081L42.5204 54.0252ZM41.394 53.0051C40.9194 52.7441 40.3578 52.5586 39.7143 52.4436L39.6227 52.9564C40.2236 53.0637 40.7286 53.2336 41.143 53.4615L41.394 53.0051ZM39.725 52.4458C39.1033 52.3076 38.4173 52.2396 37.6685 52.2396V52.7604C38.3863 52.7604 39.0337 52.8257 39.612 52.9542L39.725 52.4458ZM37.6685 52.2396H35.4685V52.7604H37.6685V52.2396ZM35.2081 52.4972L35.1414 58.6305L35.6622 58.6362L35.7289 52.5028L35.2081 52.4972ZM68.376 44.7L68.2274 44.4862L68.2202 44.4912L68.2133 44.4966L68.376 44.7ZM67.6094 45V45.2604H67.6194L67.6293 45.2596L67.6094 45ZM66.9094 44.6L66.6979 44.752L66.701 44.7562L66.9094 44.6ZM65.0094 42.9333L64.8793 43.1592L64.8875 43.1635L65.0094 42.9333ZM59.9427 42.8667L60.0563 43.101L60.0592 43.0996L59.9427 42.8667ZM58.0094 44.4333L57.8066 44.2699L57.806 44.2707L58.0094 44.4333ZM56.7094 46.9333L56.4623 46.851L56.4612 46.8544L56.7094 46.9333ZM56.2427 50.2333H55.9823V51.1303L56.4626 50.3728L56.2427 50.2333ZM58.7427 48.0667L58.63 47.8319L58.6281 47.8328L58.7427 48.0667ZM65.7427 47.8667L65.6459 48.1085L65.6524 48.1109L65.7427 47.8667ZM68.3094 49.4333L68.4905 49.2462L68.3094 49.4333ZM69.876 51.7667L70.1178 51.67V51.6699L69.876 51.7667ZM69.776 57.9333L69.5369 57.8301L69.776 57.9333ZM67.976 60.4333L67.8034 60.2384L67.976 60.4333ZM57.0427 61.5333L57.1607 61.3012L57.1591 61.3004L57.0427 61.5333ZM53.7427 58.8667L53.5378 59.0274L53.5397 59.0298L53.7427 58.8667ZM51.676 54.8333L51.4276 54.9114L51.676 54.8333ZM51.8094 44.6L52.0539 44.6895L52.0543 44.6884L51.8094 44.6ZM54.176 40.4667L54.373 40.6371L54.3745 40.6352L54.176 40.4667ZM57.7094 37.7333L57.8212 37.9685L57.8243 37.967L57.7094 37.7333ZM65.1427 37.1L65.0752 37.3516L65.0824 37.3533L65.1427 37.1ZM67.6427 38.0667L67.5127 38.2924L67.5157 38.294L67.6427 38.0667ZM69.6427 39.5667L69.4584 39.7509L69.4658 39.7577L69.6427 39.5667ZM71.2427 41.4333L71.0271 41.5794L71.0293 41.5827L71.2427 41.4333ZM71.4427 42.1333L71.1833 42.1098L71.1823 42.1215V42.1333H71.4427ZM71.1094 42.8L71.258 43.0138L71.2714 43.0045L71.2836 42.9936L71.1094 42.8ZM58.6094 56.8333L58.4679 57.052L58.4725 57.0549L58.6094 56.8333ZM64.0427 56.7333L64.2054 56.9367L64.2062 56.936L64.0427 56.7333ZM64.076 53L63.91 53.2006L63.9133 53.2034L64.076 53ZM58.6094 52.8667L58.4801 52.6405L58.4773 52.6422L58.6094 52.8667ZM68.2133 44.4966C68.0327 44.6411 67.8271 44.7221 67.5894 44.7403L67.6293 45.2596C67.9694 45.2335 68.2749 45.1144 68.5387 44.9033L68.2133 44.4966ZM67.6094 44.7396C67.445 44.7396 67.2821 44.663 67.1177 44.4437L66.701 44.7562C66.9366 45.0703 67.2404 45.2604 67.6094 45.2604V44.7396ZM67.1208 44.448C66.5869 43.7051 65.9231 43.1224 65.1312 42.7032L64.8875 43.1635C65.6067 43.5442 66.2096 44.0727 66.6979 44.752L67.1208 44.448ZM65.1393 42.7076C64.3574 42.2575 63.4099 42.0396 62.3094 42.0396V42.5604C63.3421 42.5604 64.1946 42.7648 64.8794 43.159L65.1393 42.7076ZM62.3094 42.0396C61.4456 42.0396 60.6169 42.2384 59.8262 42.6337L60.0592 43.0996C60.7796 42.7394 61.5287 42.5604 62.3094 42.5604V42.0396ZM59.8291 42.6323C59.0583 43.0061 58.3842 43.5537 57.8066 44.2699L58.2121 44.5968C58.7456 43.9352 59.3604 43.4384 60.0563 43.101L59.8291 42.6323ZM57.806 44.2707C57.2496 44.9662 56.8032 45.8284 56.4623 46.851L56.9564 47.0157C57.2822 46.0382 57.7025 45.2338 58.2127 44.596L57.806 44.2707ZM56.4612 46.8544C56.1406 47.862 55.9823 48.9893 55.9823 50.2333H56.5031C56.5031 49.0329 56.6559 47.9602 56.9575 47.0123L56.4612 46.8544ZM56.4626 50.3728C57.0116 49.5071 57.806 48.8154 58.8572 48.3005L58.6281 47.8328C57.5016 48.3846 56.6294 49.1373 56.0228 50.0939L56.4626 50.3728ZM58.8554 48.3014C59.931 47.7852 61.0702 47.5271 62.276 47.5271V47.0062C60.993 47.0062 59.7766 47.2815 58.63 47.8319L58.8554 48.3014ZM62.276 47.5271C63.561 47.5271 64.6826 47.7231 65.646 48.1085L65.8394 47.6249C64.8028 47.2102 63.6133 47.0062 62.276 47.0062V47.5271ZM65.6524 48.1109C66.6454 48.4779 67.4687 48.9822 68.1283 49.6205L68.4905 49.2462C67.7723 48.5512 66.8845 48.011 65.833 47.6224L65.6524 48.1109ZM68.1283 49.6205C68.7908 50.2616 69.2923 51.0086 69.6342 51.8634L70.1178 51.6699C69.7486 50.7469 69.2057 49.9384 68.4905 49.2462L68.1283 49.6205ZM69.6342 51.8634C69.9769 52.7201 70.1489 53.6316 70.1489 54.6H70.6698C70.6698 53.5684 70.4862 52.591 70.1178 51.67L69.6342 51.8634ZM70.1489 54.6C70.1489 55.8148 69.9429 56.8899 69.5369 57.8301L70.0151 58.0366C70.4536 57.0212 70.6698 55.874 70.6698 54.6H70.1489ZM69.5369 57.8301C69.1295 58.7737 68.5518 59.5755 67.8034 60.2384L68.1487 60.6283C68.9558 59.9134 69.5781 59.0485 70.0151 58.0366L69.5369 57.8301ZM67.8034 60.2384C67.0558 60.9005 66.1442 61.4061 65.0633 61.752L65.2221 62.248C66.3634 61.8828 67.3407 61.3439 68.1487 60.6283L67.8034 60.2384ZM65.0633 61.752C63.9816 62.0981 62.7756 62.2729 61.4427 62.2729V62.7937C62.8209 62.7937 64.0815 62.613 65.2221 62.248L65.0633 61.752ZM61.4427 62.2729C59.8572 62.2729 58.4316 61.9474 57.1607 61.3012L56.9247 61.7655C58.276 62.4526 59.7837 62.7937 61.4427 62.7937V62.2729ZM57.1591 61.3004C55.9041 60.6729 54.8335 59.8079 53.9457 58.7035L53.5397 59.0298C54.4741 60.1921 55.6035 61.1049 56.9262 61.7663L57.1591 61.3004ZM53.9476 58.706C53.0805 57.6004 52.4052 56.2848 51.9245 54.7553L51.4276 54.9114C51.9247 56.493 52.6271 57.8663 53.5378 59.0274L53.9476 58.706ZM51.9245 54.7553C51.4443 53.2274 51.2031 51.5762 51.2031 49.8H50.6823C50.6823 51.6238 50.93 53.3281 51.4276 54.9114L51.9245 54.7553ZM51.2031 49.8C51.2031 47.9379 51.4878 46.2353 52.0539 44.6895L51.5648 44.5104C50.9753 46.1202 50.6823 47.8843 50.6823 49.8H51.2031ZM52.0543 44.6884C52.6224 43.1151 53.3961 41.7659 54.3729 40.6371L53.9791 40.2963C52.956 41.4785 52.1518 42.8849 51.5644 44.5115L52.0543 44.6884ZM54.3745 40.6352C55.3514 39.4847 56.4999 38.5967 57.8212 37.9685L57.5975 37.4981C56.2077 38.1589 55.0006 39.0931 53.9775 40.2981L54.3745 40.6352ZM57.8243 37.967C59.143 37.3185 60.5591 36.9937 62.076 36.9937V36.4729C60.4818 36.4729 58.9868 36.8149 57.5944 37.4996L57.8243 37.967ZM62.076 36.9937C63.191 36.9937 64.19 37.114 65.0752 37.3515L65.2102 36.8485C64.2732 36.5971 63.2277 36.4729 62.076 36.4729V36.9937ZM65.0824 37.3533C65.9945 37.5705 66.8039 37.8842 67.5127 38.2923L67.7726 37.841C67.0149 37.4047 66.1576 37.0739 65.203 36.8467L65.0824 37.3533ZM67.5157 38.294C68.2515 38.7052 68.8987 39.191 69.4585 39.7508L69.8268 39.3825C69.2311 38.7868 68.545 38.2726 67.7697 37.8393L67.5157 38.294ZM69.4658 39.7577C70.0509 40.2996 70.5714 40.9066 71.0271 41.5794L71.4583 41.2873C70.9807 40.5822 70.4344 39.9449 69.8196 39.3756L69.4658 39.7577ZM71.0293 41.5827C71.1536 41.7602 71.1994 41.9331 71.1833 42.1098L71.702 42.1569C71.7304 41.8446 71.6429 41.5509 71.456 41.284L71.0293 41.5827ZM71.1823 42.1333C71.1823 42.2878 71.1157 42.4439 70.9351 42.6064L71.2836 42.9936C71.5474 42.7561 71.7031 42.4677 71.7031 42.1333H71.1823ZM70.9607 42.5862L68.2274 44.4862L68.5247 44.9138L71.258 43.0138L70.9607 42.5862ZM57.2156 54.8667C57.2156 55.7867 57.6465 56.5205 58.4679 57.052L58.7508 56.6147C58.0611 56.1684 57.7364 55.5911 57.7364 54.8667H57.2156ZM58.4725 57.0549C59.2784 57.5526 60.262 57.7937 61.4094 57.7937V57.2729C60.3345 57.2729 59.4515 57.0474 58.7462 56.6118L58.4725 57.0549ZM61.4094 57.7937C62.5408 57.7937 63.4811 57.5161 64.2054 56.9367L63.88 56.53C63.271 57.0172 62.4557 57.2729 61.4094 57.2729V57.7937ZM64.2062 56.936C64.9374 56.3463 65.3364 55.6558 65.3364 54.8667H64.8156C64.8156 55.4553 64.5257 56.0092 63.8792 56.5306L64.2062 56.936ZM65.3364 54.8667C65.3364 54.0604 64.9534 53.3684 64.2387 52.7966L63.9133 53.2034C64.532 53.6983 64.8156 54.2508 64.8156 54.8667H65.3364ZM64.2421 52.7994C63.5375 52.2163 62.5944 51.9396 61.4427 51.9396V52.4604C62.5132 52.4604 63.3256 52.717 63.91 53.2006L64.2421 52.7994ZM61.4427 51.9396C60.297 51.9396 59.3057 52.1688 58.4802 52.6406L58.7386 53.0928C59.4686 52.6756 60.3661 52.4604 61.4427 52.4604V51.9396ZM58.4773 52.6422C57.6409 53.1342 57.2156 53.8871 57.2156 54.8667H57.7364C57.7364 54.0685 58.0667 53.488 58.7414 53.0911L58.4773 52.6422Z" fill="url(#paint8_linear_366_9817)" style="mix-blend-mode:color-burn" mask="url(#path-12-outside-2_366_9817)"/>
</g>
<defs>
<filter id="filter0_d_366_9817" x="-4.16667" y="-3.125" width="108.333" height="108.333" filterUnits="userSpaceOnUse" color-interpolation-filters="sRGB">
<feFlood flood-opacity="0" result="BackgroundImageFix"/>
<feColorMatrix in="SourceAlpha" type="matrix" values="0 0 0 0 0 0 0 0 0 0 0 0 0 0 0 0 0 0 127 0" result="hardAlpha"/>
<feOffset dy="1.04167"/>
<feGaussianBlur stdDeviation="2.08333"/>
<feColorMatrix type="matrix" values="0 0 0 0 0 0 0 0 0 0 0 0 0 0 0 0 0 0 0.16 0"/>
<feBlend mode="color-burn" in2="BackgroundImageFix" result="effect1_dropShadow_366_9817"/>
<feBlend mode="normal" in="SourceGraphic" in2="effect1_dropShadow_366_9817" result="shape"/>
</filter>
<filter id="filter1_d_366_9817" x="23.2231" y="31.2646" width="54.7341" height="38.8563" filterUnits="userSpaceOnUse" color-interpolation-filters="sRGB">
<feFlood flood-opacity="0" result="BackgroundImageFix"/>
<feColorMatrix in="SourceAlpha" type="matrix" values="0 0 0 0 0 0 0 0 0 0 0 0 0 0 0 0 0 0 127 0" result="hardAlpha"/>
<feOffset dy="1.04167"/>
<feGaussianBlur stdDeviation="3.125"/>
<feColorMatrix type="matrix" values="0 0 0 0 0 0 0 0 0 0 0 0 0 0 0 0 0 0 0.12 0"/>
<feBlend mode="plus-darker" in2="BackgroundImageFix" result="effect1_dropShadow_366_9817"/>
<feBlend mode="normal" in="SourceGraphic" in2="effect1_dropShadow_366_9817" result="shape"/>
</filter>
<linearGradient id="paint0_linear_366_9817" x1="-22.9167" y1="-22.9167" x2="151.524" y2="68.0723" gradientUnits="userSpaceOnUse">
<stop stop-color="#3D75EE"/>
<stop offset="1" stop-color="#5785E8"/>
</linearGradient>
<linearGradient id="paint1_linear_366_9817" x1="50" y1="-6.39144" x2="50" y2="105.635" gradientUnits="userSpaceOnUse">
<stop stop-color="white"/>
<stop offset="1" stop-color="white" stop-opacity="0"/>
</linearGradient>
<radialGradient id="paint2_radial_366_9817" cx="0" cy="0" r="1" gradientUnits="userSpaceOnUse" gradientTransform="translate(50 25.7865) rotate(90) scale(73.89 56.0618)">
<stop stop-color="white"/>
<stop offset="1" stop-color="white" stop-opacity="0"/>
</radialGradient>
<linearGradient id="paint3_linear_366_9817" x1="-22.9167" y1="-22.9167" x2="151.524" y2="68.0723" gradientUnits="userSpaceOnUse">
<stop stop-color="#3D75EE"/>
<stop offset="1" stop-color="#5785E8"/>
</linearGradient>
<linearGradient id="paint4_linear_366_9817" x1="50" y1="-6.39144" x2="50" y2="105.635" gradientUnits="userSpaceOnUse">
<stop stop-color="white"/>
<stop offset="1" stop-color="white" stop-opacity="0"/>
</linearGradient>
<radialGradient id="paint5_radial_366_9817" cx="0" cy="0" r="1" gradientUnits="userSpaceOnUse" gradientTransform="translate(50 25.7865) rotate(90) scale(73.89 56.0618)">
<stop stop-color="white"/>
<stop offset="1" stop-color="white" stop-opacity="0"/>
</radialGradient>
<linearGradient id="paint6_linear_366_9817" x1="-22.9167" y1="-22.9167" x2="-22.9167" y2="122.917" gradientUnits="userSpaceOnUse">
<stop offset="0.135095" stop-color="white"/>
<stop offset="0.877908" stop-color="white" stop-opacity="0.01"/>
</linearGradient>
<linearGradient id="paint7_linear_366_9817" x1="50" y1="0" x2="50" y2="100" gradientUnits="userSpaceOnUse">
<stop stop-color="white"/>
<stop offset="1" stop-color="#999999"/>
</linearGradient>
<linearGradient id="paint8_linear_366_9817" x1="50" y1="33.3333" x2="50" y2="66.3333" gradientUnits="userSpaceOnUse">
<stop stop-color="#DFDFDF"/>
<stop offset="1" stop-color="#A9A9A9"/>
</linearGradient>
</defs>
</svg>
