<svg width="100" height="100" viewBox="0 0 100 100" fill="none" xmlns="http://www.w3.org/2000/svg">
<mask id="mask0_366_9803" style="mask-type:alpha" maskUnits="userSpaceOnUse" x="0" y="0" width="100" height="100">
<circle cx="50" cy="50" r="50" fill="white"/>
</mask>
<g mask="url(#mask0_366_9803)">
<mask id="mask1_366_9803" style="mask-type:alpha" maskUnits="userSpaceOnUse" x="0" y="0" width="100" height="100">
<circle cx="50" cy="50" r="50" fill="white"/>
</mask>
<g mask="url(#mask1_366_9803)">
<rect x="-22.9167" y="-22.9167" width="145.833" height="145.833" fill="url(#paint0_linear_366_9803)"/>
<rect x="-22.9167" y="-22.9167" width="145.833" height="145.833" fill="url(#paint1_linear_366_9803)" fill-opacity="0.6" style="mix-blend-mode:overlay"/>
<rect x="-22.9167" y="-22.9167" width="145.833" height="145.833" fill="url(#paint2_radial_366_9803)" fill-opacity="0.6" style="mix-blend-mode:overlay"/>
<rect x="-22.9167" y="-22.9167" width="145.833" height="145.833" fill="black" fill-opacity="0.16" style="mix-blend-mode:overlay"/>
<rect x="-22.9167" y="-22.9167" width="145.833" height="145.833" fill="black" fill-opacity="0.12" style="mix-blend-mode:darken"/>
</g>
<g filter="url(#filter0_d_366_9803)">
<mask id="mask2_366_9803" style="mask-type:alpha" maskUnits="userSpaceOnUse" x="0" y="0" width="100" height="100">
<path fill-rule="evenodd" clip-rule="evenodd" d="M95.8333 50C95.8333 75.313 75.313 95.8333 50 95.8333C24.6869 95.8333 4.16667 75.313 4.16667 50C4.16667 24.6869 24.6869 4.16667 50 4.16667C75.313 4.16667 95.8333 24.6869 95.8333 50ZM100 50C100 77.6142 77.6142 100 50 100C22.3858 100 0 77.6142 0 50C0 22.3858 22.3858 0 50 0C77.6142 0 100 22.3858 100 50ZM50 88.0208C70.9983 88.0208 88.0208 70.9983 88.0208 50C88.0208 29.0017 70.9983 11.9792 50 11.9792C29.0017 11.9792 11.9792 29.0017 11.9792 50C11.9792 70.9983 29.0017 88.0208 50 88.0208Z" fill="white"/>
</mask>
<g mask="url(#mask2_366_9803)">
<rect x="-22.9167" y="-22.9167" width="145.833" height="145.833" fill="url(#paint3_linear_366_9803)"/>
<rect x="-22.9167" y="-22.9167" width="145.833" height="145.833" fill="url(#paint4_linear_366_9803)" fill-opacity="0.6" style="mix-blend-mode:overlay"/>
<rect x="-22.9167" y="-22.9167" width="145.833" height="145.833" fill="url(#paint5_radial_366_9803)" fill-opacity="0.6" style="mix-blend-mode:overlay"/>
<g style="mix-blend-mode:soft-light">
<path fill-rule="evenodd" clip-rule="evenodd" d="M-22.9167 -22.9167H64.5833L36.6578 122.917H-22.9167V-22.9167Z" fill="url(#paint6_linear_366_9803)" style="mix-blend-mode:lighten"/>
</g>
<g style="mix-blend-mode:soft-light">
<mask id="path-10-inside-1_366_9803" fill="white">
<path fill-rule="evenodd" clip-rule="evenodd" d="M95.8333 50C95.8333 75.313 75.313 95.8333 50 95.8333C24.6869 95.8333 4.16667 75.313 4.16667 50C4.16667 24.6869 24.6869 4.16667 50 4.16667C75.313 4.16667 95.8333 24.6869 95.8333 50ZM100 50C100 77.6142 77.6142 100 50 100C22.3858 100 0 77.6142 0 50C0 22.3858 22.3858 0 50 0C77.6142 0 100 22.3858 100 50ZM50 88.0208C70.9983 88.0208 88.0208 70.9983 88.0208 50C88.0208 29.0017 70.9983 11.9792 50 11.9792C29.0017 11.9792 11.9792 29.0017 11.9792 50C11.9792 70.9983 29.0017 88.0208 50 88.0208Z"/>
</mask>
<path d="M50 96.0938C75.4569 96.0938 96.0938 75.4569 96.0938 50H95.5729C95.5729 75.1692 75.1692 95.5729 50 95.5729V96.0938ZM3.90625 50C3.90625 75.4569 24.5431 96.0938 50 96.0938V95.5729C24.8308 95.5729 4.42708 75.1692 4.42708 50H3.90625ZM50 3.90625C24.5431 3.90625 3.90625 24.5431 3.90625 50H4.42708C4.42708 24.8308 24.8308 4.42708 50 4.42708V3.90625ZM96.0938 50C96.0938 24.5431 75.4569 3.90625 50 3.90625V4.42708C75.1692 4.42708 95.5729 24.8308 95.5729 50H96.0938ZM50 100.26C77.7581 100.26 100.26 77.7581 100.26 50H99.7396C99.7396 77.4704 77.4704 99.7396 50 99.7396V100.26ZM-0.260417 50C-0.260417 77.7581 22.2419 100.26 50 100.26V99.7396C22.5296 99.7396 0.260417 77.4704 0.260417 50H-0.260417ZM50 -0.260417C22.2419 -0.260417 -0.260417 22.2419 -0.260417 50H0.260417C0.260417 22.5296 22.5296 0.260417 50 0.260417V-0.260417ZM100.26 50C100.26 22.2419 77.7581 -0.260417 50 -0.260417V0.260417C77.4704 0.260417 99.7396 22.5296 99.7396 50H100.26ZM87.7604 50C87.7604 70.8545 70.8545 87.7604 50 87.7604V88.2812C71.1421 88.2812 88.2812 71.1421 88.2812 50H87.7604ZM50 12.2396C70.8545 12.2396 87.7604 29.1455 87.7604 50H88.2812C88.2812 28.8578 71.1421 11.7188 50 11.7188V12.2396ZM12.2396 50C12.2396 29.1455 29.1455 12.2396 50 12.2396V11.7188C28.8578 11.7188 11.7188 28.8578 11.7188 50H12.2396ZM50 87.7604C29.1455 87.7604 12.2396 70.8545 12.2396 50H11.7188C11.7188 71.1421 28.8578 88.2812 50 88.2812V87.7604Z" fill="url(#paint7_linear_366_9803)" mask="url(#path-10-inside-1_366_9803)"/>
</g>
</g>
</g>
</g>
<g filter="url(#filter1_d_366_9803)">
<mask id="path-12-outside-2_366_9803" maskUnits="userSpaceOnUse" x="29.3333" y="36.3333" width="43" height="27" fill="black">
<rect fill="white" x="29.3333" y="36.3333" width="43" height="27"/>
<path d="M31.1328 62.5333C30.5106 62.5333 30.1995 62.2 30.1995 61.5333L29.8328 39.3C29.8106 38.5222 30.0217 37.9556 30.4661 37.6C30.9106 37.2222 31.4772 37.0111 32.1661 36.9667C37.6772 36.5 41.8106 36.9667 44.5661 38.3667C47.3217 39.7445 48.6995 41.9445 48.6995 44.9667C48.6995 45.7 48.5884 46.4 48.3661 47.0667C48.1439 47.7111 47.8217 48.3 47.3995 48.8333C46.9772 49.3667 46.4772 49.8222 45.8995 50.2C45.3217 50.5778 44.6884 50.8445 43.9995 51C44.6661 51.1333 45.2661 51.3556 45.7995 51.6667C46.355 51.9778 46.8217 52.3445 47.1995 52.7667C47.5772 53.1889 47.8661 53.6445 48.0661 54.1333C48.2661 54.6222 48.3661 55.1111 48.3661 55.6C48.3661 56.6889 48.1106 57.6667 47.5995 58.5333C47.0884 59.4 46.3106 60.1333 45.2661 60.7333C44.2439 61.3333 42.9328 61.7889 41.3328 62.1C39.755 62.4333 37.8995 62.5889 35.7661 62.5667L31.1328 62.5333ZM35.6995 48.4667H37.7661C38.5439 48.4667 39.255 48.4 39.8995 48.2667C40.5661 48.1111 41.1328 47.9 41.5995 47.6333C42.0884 47.3667 42.4661 47.0445 42.7328 46.6667C42.9995 46.2667 43.1328 45.8222 43.1328 45.3333C43.1328 44.2 42.4772 43.3667 41.1661 42.8333C39.8772 42.3 38.0661 42.1889 35.7328 42.5L35.6995 48.4667ZM35.4995 58.6333H37.9328C39.4217 58.6333 40.5995 58.3445 41.4661 57.7667C42.355 57.1667 42.7995 56.3889 42.7995 55.4333C42.7995 54.9445 42.6661 54.5222 42.3995 54.1667C42.155 53.7889 41.8106 53.4778 41.3661 53.2333C40.9217 52.9889 40.3884 52.8111 39.7661 52.7C39.1661 52.5667 38.4995 52.5 37.7661 52.5H35.5661L35.4995 58.6333ZM63.3403 62.2C62.6737 62.2 62.3403 61.8667 62.3403 61.2L62.2403 56.7667C60.6403 56.8333 59.0626 56.8778 57.507 56.9C55.9515 56.9 54.4403 56.8778 52.9737 56.8333C52.1959 56.8111 51.6515 56.5333 51.3403 56C51.0515 55.4667 50.9737 54.8111 51.107 54.0333C51.4848 51.7 51.7626 49.3333 51.9403 46.9333C52.1181 44.5333 52.1848 42.0222 52.1403 39.4C52.1403 38.8889 52.2626 38.5111 52.507 38.2667C52.7737 38.0222 53.0959 37.9 53.4737 37.9H56.8403C57.2848 37.9 57.6181 38.0445 57.8403 38.3333C58.0626 38.6 58.1626 38.9556 58.1403 39.4C58.0959 41.7111 57.9959 43.9333 57.8403 46.0667C57.707 48.1778 57.5181 50.0667 57.2737 51.7333C58.1403 51.7778 58.9737 51.8 59.7737 51.8H62.1737L61.9403 38.2333C61.9403 37.5667 62.2626 37.2333 62.907 37.2333H66.9737C67.6403 37.2333 67.9626 37.5667 67.9403 38.2333L67.7403 51.6C68.1403 51.5778 68.5403 51.5667 68.9403 51.5667C69.3403 51.5445 69.7626 51.5111 70.207 51.4667C70.5626 51.4445 70.8181 51.4889 70.9737 51.6C71.1515 51.6889 71.2626 51.8889 71.307 52.2L71.6737 55C71.7626 55.6667 71.507 56.0333 70.907 56.1C70.3959 56.1667 69.8626 56.2333 69.307 56.3C68.7737 56.3445 68.2292 56.3889 67.6737 56.4333L67.607 61.2C67.607 61.8667 67.2737 62.2 66.607 62.2H63.3403Z"/>
</mask>
<path d="M31.1328 62.5333C30.5106 62.5333 30.1995 62.2 30.1995 61.5333L29.8328 39.3C29.8106 38.5222 30.0217 37.9556 30.4661 37.6C30.9106 37.2222 31.4772 37.0111 32.1661 36.9667C37.6772 36.5 41.8106 36.9667 44.5661 38.3667C47.3217 39.7445 48.6995 41.9445 48.6995 44.9667C48.6995 45.7 48.5884 46.4 48.3661 47.0667C48.1439 47.7111 47.8217 48.3 47.3995 48.8333C46.9772 49.3667 46.4772 49.8222 45.8995 50.2C45.3217 50.5778 44.6884 50.8445 43.9995 51C44.6661 51.1333 45.2661 51.3556 45.7995 51.6667C46.355 51.9778 46.8217 52.3445 47.1995 52.7667C47.5772 53.1889 47.8661 53.6445 48.0661 54.1333C48.2661 54.6222 48.3661 55.1111 48.3661 55.6C48.3661 56.6889 48.1106 57.6667 47.5995 58.5333C47.0884 59.4 46.3106 60.1333 45.2661 60.7333C44.2439 61.3333 42.9328 61.7889 41.3328 62.1C39.755 62.4333 37.8995 62.5889 35.7661 62.5667L31.1328 62.5333ZM35.6995 48.4667H37.7661C38.5439 48.4667 39.255 48.4 39.8995 48.2667C40.5661 48.1111 41.1328 47.9 41.5995 47.6333C42.0884 47.3667 42.4661 47.0445 42.7328 46.6667C42.9995 46.2667 43.1328 45.8222 43.1328 45.3333C43.1328 44.2 42.4772 43.3667 41.1661 42.8333C39.8772 42.3 38.0661 42.1889 35.7328 42.5L35.6995 48.4667ZM35.4995 58.6333H37.9328C39.4217 58.6333 40.5995 58.3445 41.4661 57.7667C42.355 57.1667 42.7995 56.3889 42.7995 55.4333C42.7995 54.9445 42.6661 54.5222 42.3995 54.1667C42.155 53.7889 41.8106 53.4778 41.3661 53.2333C40.9217 52.9889 40.3884 52.8111 39.7661 52.7C39.1661 52.5667 38.4995 52.5 37.7661 52.5H35.5661L35.4995 58.6333ZM63.3403 62.2C62.6737 62.2 62.3403 61.8667 62.3403 61.2L62.2403 56.7667C60.6403 56.8333 59.0626 56.8778 57.507 56.9C55.9515 56.9 54.4403 56.8778 52.9737 56.8333C52.1959 56.8111 51.6515 56.5333 51.3403 56C51.0515 55.4667 50.9737 54.8111 51.107 54.0333C51.4848 51.7 51.7626 49.3333 51.9403 46.9333C52.1181 44.5333 52.1848 42.0222 52.1403 39.4C52.1403 38.8889 52.2626 38.5111 52.507 38.2667C52.7737 38.0222 53.0959 37.9 53.4737 37.9H56.8403C57.2848 37.9 57.6181 38.0445 57.8403 38.3333C58.0626 38.6 58.1626 38.9556 58.1403 39.4C58.0959 41.7111 57.9959 43.9333 57.8403 46.0667C57.707 48.1778 57.5181 50.0667 57.2737 51.7333C58.1403 51.7778 58.9737 51.8 59.7737 51.8H62.1737L61.9403 38.2333C61.9403 37.5667 62.2626 37.2333 62.907 37.2333H66.9737C67.6403 37.2333 67.9626 37.5667 67.9403 38.2333L67.7403 51.6C68.1403 51.5778 68.5403 51.5667 68.9403 51.5667C69.3403 51.5445 69.7626 51.5111 70.207 51.4667C70.5626 51.4445 70.8181 51.4889 70.9737 51.6C71.1515 51.6889 71.2626 51.8889 71.307 52.2L71.6737 55C71.7626 55.6667 71.507 56.0333 70.907 56.1C70.3959 56.1667 69.8626 56.2333 69.307 56.3C68.7737 56.3445 68.2292 56.3889 67.6737 56.4333L67.607 61.2C67.607 61.8667 67.2737 62.2 66.607 62.2H63.3403Z" fill="white"/>
<path d="M31.1328 62.5333L31.1347 62.2729H31.1328V62.5333ZM30.1995 61.5333H30.4599L30.4598 61.529L30.1995 61.5333ZM29.8328 39.3L30.0932 39.2957L30.0931 39.2926L29.8328 39.3ZM30.4661 37.6L30.6289 37.8035L30.6348 37.7984L30.4661 37.6ZM32.1661 36.9667L32.1829 37.2266L32.1881 37.2262L32.1661 36.9667ZM44.5661 38.3667L44.4482 38.5989L44.4497 38.5996L44.5661 38.3667ZM48.3661 47.0667L48.6123 47.1516L48.6132 47.149L48.3661 47.0667ZM47.3995 48.8333L47.1953 48.6717L47.3995 48.8333ZM45.8995 50.2L46.042 50.418L45.8995 50.2ZM43.9995 51L43.9421 50.746L43.9484 51.2554L43.9995 51ZM45.7995 51.6667L45.6682 51.8917L45.6722 51.8939L45.7995 51.6667ZM47.1995 52.7667L47.3935 52.593L47.1995 52.7667ZM45.2661 60.7333L45.1364 60.5075L45.1343 60.5088L45.2661 60.7333ZM41.3328 62.1L41.2831 61.8443L41.279 61.8452L41.3328 62.1ZM35.7661 62.5667L35.7688 62.3063L35.768 62.3063L35.7661 62.5667ZM35.6995 48.4667L35.439 48.4652L35.4376 48.7271H35.6995V48.4667ZM39.8995 48.2667L39.9522 48.5218L39.9586 48.5203L39.8995 48.2667ZM41.5995 47.6333L41.4747 47.4047L41.4703 47.4072L41.5995 47.6333ZM42.7328 46.6667L42.9456 46.8169L42.9495 46.8111L42.7328 46.6667ZM41.1661 42.8333L41.0666 43.074L41.068 43.0746L41.1661 42.8333ZM35.7328 42.5L35.6984 42.2419L35.4736 42.2718L35.4724 42.4986L35.7328 42.5ZM35.4995 58.6333L35.2391 58.6305L35.2362 58.8938H35.4995V58.6333ZM41.4661 57.7667L41.6106 57.9834L41.6118 57.9825L41.4661 57.7667ZM42.3995 54.1667L42.1808 54.3081L42.1857 54.3157L42.1911 54.3229L42.3995 54.1667ZM41.3661 53.2333L41.2406 53.4615L41.3661 53.2333ZM39.7661 52.7L39.7096 52.9544L39.7204 52.9564L39.7661 52.7ZM35.5661 52.5V52.2396H35.3085L35.3057 52.4972L35.5661 52.5ZM31.1328 62.2729C30.8666 62.2729 30.7135 62.2025 30.6232 62.1057C30.5297 62.0055 30.4599 61.8308 30.4599 61.5333H29.939C29.939 61.9025 30.0248 62.2279 30.2424 62.461C30.4632 62.6975 30.7768 62.7938 31.1328 62.7938V62.2729ZM30.4598 61.529L30.0932 39.2957L29.5724 39.3043L29.9391 61.5376L30.4598 61.529ZM30.0931 39.2926C30.0723 38.5643 30.2697 38.0906 30.6288 37.8034L30.3034 37.3967C29.7737 37.8205 29.5488 38.4802 29.5725 39.3074L30.0931 39.2926ZM30.6348 37.7984C31.0291 37.4633 31.5393 37.2681 32.1829 37.2266L32.1494 36.7068C31.4151 36.7542 30.792 36.9812 30.2975 37.4016L30.6348 37.7984ZM32.1881 37.2262C37.6839 36.7608 41.758 37.2321 44.4482 38.5988L44.6841 38.1345C41.8631 36.7013 37.6706 36.2392 32.1442 36.7072L32.1881 37.2262ZM44.4497 38.5996C45.7927 39.2711 46.7863 40.1358 47.4454 41.1882C48.1043 42.2404 48.439 43.4963 48.439 44.9667H48.9599C48.9599 43.4149 48.6057 42.0596 47.8868 40.9118C47.1682 39.7642 46.0951 38.84 44.6826 38.1338L44.4497 38.5996ZM48.439 44.9667C48.439 45.6732 48.3321 46.3454 48.1191 46.9843L48.6132 47.149C48.8446 46.4547 48.9599 45.7268 48.9599 44.9667H48.439ZM48.1199 46.9818C47.9073 47.5985 47.5992 48.1614 47.1953 48.6717L47.6036 48.995C48.0441 48.4386 48.3805 47.8237 48.6123 47.1516L48.1199 46.9818ZM47.1953 48.6717C46.7907 49.1827 46.3116 49.6194 45.757 49.982L46.042 50.418C46.6428 50.0251 47.1638 49.5506 47.6036 48.995L47.1953 48.6717ZM45.757 49.982C45.2058 50.3424 44.6014 50.5971 43.9421 50.746L44.0568 51.254C44.7753 51.0918 45.4376 50.8131 46.042 50.418L45.757 49.982ZM43.9484 51.2554C44.5897 51.3836 45.1621 51.5964 45.6682 51.8916L45.9307 51.4417C45.3701 51.1147 44.7426 50.8831 44.0505 50.7447L43.9484 51.2554ZM45.6722 51.8939C46.2058 52.1927 46.649 52.542 47.0054 52.9403L47.3935 52.593C46.9944 52.1469 46.5043 51.7629 45.9267 51.4395L45.6722 51.8939ZM47.0054 52.9403C47.3648 53.342 47.6371 53.7725 47.8251 54.2319L48.3072 54.0347C48.0951 53.5164 47.7897 53.0358 47.3935 52.593L47.0054 52.9403ZM47.8251 54.2319C48.0133 54.6921 48.1057 55.1476 48.1057 55.6H48.6265C48.6265 55.0747 48.5189 54.5524 48.3072 54.0347L47.8251 54.2319ZM48.1057 55.6C48.1057 56.6463 47.8607 57.5777 47.3751 58.4011L47.8238 58.6656C48.3605 57.7556 48.6265 56.7315 48.6265 55.6H48.1057ZM47.3751 58.4011C46.8911 59.2219 46.1495 59.9256 45.1364 60.5075L45.3958 60.9592C46.4717 60.3411 47.2856 59.5781 47.8238 58.6656L47.3751 58.4011ZM45.1343 60.5088C44.1451 61.0894 42.8642 61.5369 41.2831 61.8444L41.3825 62.3556C43.0014 62.0409 44.3428 61.5773 45.398 60.9579L45.1343 60.5088ZM41.279 61.8452C39.7246 62.1736 37.8889 62.3284 35.7688 62.3063L35.7634 62.8271C37.91 62.8494 39.7854 62.6931 41.3866 62.3548L41.279 61.8452ZM35.768 62.3063L31.1347 62.2729L31.1309 62.7938L35.7643 62.8271L35.768 62.3063ZM35.6995 48.7271H37.7661V48.2063H35.6995V48.7271ZM37.7661 48.7271C38.5585 48.7271 39.2876 48.6592 39.9522 48.5217L39.8467 48.0117C39.2224 48.1408 38.5293 48.2063 37.7661 48.2063V48.7271ZM39.9586 48.5203C40.6435 48.3605 41.2351 48.1415 41.7287 47.8594L41.4703 47.4072C41.0305 47.6585 40.4888 47.8618 39.8403 48.0131L39.9586 48.5203ZM41.7242 47.862C42.241 47.5801 42.6517 47.2332 42.9455 46.8169L42.52 46.5165C42.2806 46.8558 41.9357 47.1533 41.4748 47.4047L41.7242 47.862ZM42.9495 46.8111C43.2452 46.3676 43.3932 45.8727 43.3932 45.3333H42.8724C42.8724 45.7717 42.7538 46.1658 42.5161 46.5222L42.9495 46.8111ZM43.3932 45.3333C43.3932 44.7126 43.2123 44.1632 42.8458 43.6973C42.4822 43.2352 41.9481 42.8703 41.2643 42.5921L41.068 43.0746C41.6952 43.3297 42.1445 43.6482 42.4365 44.0194C42.7255 44.3868 42.8724 44.8208 42.8724 45.3333H43.3932ZM41.2657 42.5927C39.9146 42.0336 38.0496 41.9284 35.6984 42.2419L35.7672 42.7581C38.0827 42.4494 39.8399 42.5664 41.0666 43.074L41.2657 42.5927ZM35.4724 42.4986L35.439 48.4652L35.9599 48.4681L35.9932 42.5015L35.4724 42.4986ZM35.4995 58.8938H37.9328V58.3729H35.4995V58.8938ZM37.9328 58.8938C39.452 58.8938 40.6864 58.5995 41.6106 57.9834L41.3217 57.55C40.5125 58.0895 39.3914 58.3729 37.9328 58.3729V58.8938ZM41.6118 57.9825C42.5622 57.341 43.0599 56.4871 43.0599 55.4333H42.539C42.539 56.2907 42.1479 56.9923 41.3204 57.5508L41.6118 57.9825ZM43.0599 55.4333C43.0599 54.8941 42.9117 54.4156 42.6078 54.0104L42.1911 54.3229C42.4206 54.6289 42.539 54.9949 42.539 55.4333H43.0599ZM42.6181 54.0252C42.3474 53.6069 41.9689 53.2677 41.4916 53.0052L41.2406 53.4615C41.6522 53.6879 41.9626 53.9709 42.1808 54.3081L42.6181 54.0252ZM41.4916 53.0052C41.0171 52.7442 40.4555 52.5586 39.8119 52.4436L39.7204 52.9564C40.3212 53.0637 40.8263 53.2336 41.2406 53.4615L41.4916 53.0052ZM39.8226 52.4458C39.2009 52.3076 38.5149 52.2396 37.7661 52.2396V52.7604C38.484 52.7604 39.1313 52.8257 39.7096 52.9542L39.8226 52.4458ZM37.7661 52.2396H35.5661V52.7604H37.7661V52.2396ZM35.3057 52.4972L35.2391 58.6305L35.7599 58.6362L35.8265 52.5028L35.3057 52.4972ZM62.3403 61.2H62.6008L62.6007 61.1941L62.3403 61.2ZM62.2403 56.7667L62.5007 56.7608L62.4947 56.4954L62.2295 56.5065L62.2403 56.7667ZM57.507 56.9V57.1605L57.5107 57.1604L57.507 56.9ZM52.9737 56.8333L52.9816 56.573L52.9811 56.573L52.9737 56.8333ZM51.3403 56L51.1112 56.1241L51.1154 56.1312L51.3403 56ZM51.107 54.0333L51.3637 54.0773L51.3641 54.075L51.107 54.0333ZM51.9403 46.9333L51.6806 46.9141L51.9403 46.9333ZM52.1403 39.4H51.8799L51.88 39.4044L52.1403 39.4ZM52.507 38.2667L52.3309 38.0745L52.3229 38.0825L52.507 38.2667ZM57.8403 38.3333L57.6338 38.4922L57.6403 38.5001L57.8403 38.3333ZM58.1403 39.4L57.8801 39.387L57.88 39.395L58.1403 39.4ZM57.8403 46.0667L57.5806 46.0477L57.5804 46.0503L57.8403 46.0667ZM57.2737 51.7333L57.016 51.6956L56.9745 51.9788L57.2603 51.9934L57.2737 51.7333ZM62.1737 51.8V52.0604H62.4386L62.4341 51.7955L62.1737 51.8ZM61.9403 38.2333H61.6799L61.68 38.2378L61.9403 38.2333ZM67.9403 38.2333L67.68 38.2247L67.68 38.2294L67.9403 38.2333ZM67.7403 51.6L67.48 51.5961L67.4758 51.8755L67.7548 51.86L67.7403 51.6ZM68.9403 51.5667V51.8271H68.9476L68.9548 51.8267L68.9403 51.5667ZM70.207 51.4667L70.1908 51.2066L70.1811 51.2076L70.207 51.4667ZM70.9737 51.6L70.8223 51.8119L70.8389 51.8238L70.8572 51.8329L70.9737 51.6ZM71.307 52.2L71.5652 52.1662L71.5648 52.1632L71.307 52.2ZM71.6737 55L71.4155 55.0338L71.4155 55.0344L71.6737 55ZM70.907 56.1L70.8783 55.8411L70.8733 55.8418L70.907 56.1ZM69.307 56.3L69.3287 56.5597L69.338 56.5586L69.307 56.3ZM67.6737 56.4333L67.6529 56.1738L67.4166 56.1927L67.4133 56.4297L67.6737 56.4333ZM67.607 61.2L67.3466 61.1964V61.2H67.607ZM63.3403 61.9396C63.0472 61.9396 62.8751 61.8665 62.7745 61.7659C62.6739 61.6653 62.6008 61.4932 62.6008 61.2H62.0799C62.0799 61.5735 62.1735 61.9014 62.4062 62.1342C62.6389 62.3669 62.9669 62.4604 63.3403 62.4604V61.9396ZM62.6007 61.1941L62.5007 56.7608L61.98 56.7725L62.08 61.2059L62.6007 61.1941ZM62.2295 56.5065C60.6318 56.5731 59.0564 56.6174 57.5033 56.6396L57.5107 57.1604C59.0687 57.1381 60.6489 57.0936 62.2512 57.0269L62.2295 56.5065ZM57.507 56.6396C55.9539 56.6396 54.4455 56.6174 52.9816 56.573L52.9658 57.0936C54.4352 57.1382 55.949 57.1604 57.507 57.1604V56.6396ZM52.9811 56.573C52.2665 56.5526 51.819 56.3038 51.5653 55.8688L51.1154 56.1312C51.4839 56.7629 52.1253 57.0696 52.9662 57.0937L52.9811 56.573ZM51.5693 55.876C51.3156 55.4076 51.2372 54.815 51.3637 54.0773L50.8503 53.9893C50.7101 54.8072 50.7873 55.5257 51.1114 56.124L51.5693 55.876ZM51.3641 54.075C51.7431 51.7341 52.0217 49.3599 52.2001 46.9526L51.6806 46.9141C51.5034 49.3067 51.2265 51.6659 50.8499 53.9917L51.3641 54.075ZM52.2001 46.9526C52.3785 44.544 52.4453 42.025 52.4007 39.3956L51.88 39.4044C51.9243 42.0194 51.8578 44.5226 51.6806 46.9141L52.2001 46.9526ZM52.4008 39.4C52.4008 38.9251 52.5147 38.6273 52.6912 38.4508L52.3229 38.0825C52.0104 38.395 51.8799 38.8527 51.8799 39.4H52.4008ZM52.683 38.4586C52.8993 38.2603 53.1579 38.1604 53.4737 38.1604V37.6396C53.0339 37.6396 52.648 37.7841 52.331 38.0747L52.683 38.4586ZM53.4737 38.1604H56.8403V37.6396H53.4737V38.1604ZM56.8403 38.1604C57.2237 38.1604 57.4719 38.2815 57.6339 38.4921L58.0468 38.1746C57.7643 37.8074 57.3459 37.6396 56.8403 37.6396V38.1604ZM57.6403 38.5001C57.8098 38.7035 57.9002 38.9888 57.8803 39.387L58.4004 39.413C58.425 38.9223 58.3153 38.4965 58.0404 38.1666L57.6403 38.5001ZM57.88 39.395C57.8356 41.7018 57.7358 43.9194 57.5806 46.0477L58.1001 46.0856C58.256 43.9473 58.3562 41.7204 58.4007 39.405L57.88 39.395ZM57.5804 46.0503C57.4475 48.1559 57.2592 50.0375 57.016 51.6956L57.5313 51.7711C57.777 50.0959 57.9666 48.1996 58.1002 46.0831L57.5804 46.0503ZM57.2603 51.9934C58.1311 52.0381 58.9689 52.0604 59.7737 52.0604V51.5396C58.9785 51.5396 58.1496 51.5175 57.287 51.4733L57.2603 51.9934ZM59.7737 52.0604H62.1737V51.5396H59.7737V52.0604ZM62.4341 51.7955L62.2007 38.2289L61.68 38.2378L61.9133 51.8045L62.4341 51.7955ZM62.2008 38.2333C62.2008 37.938 62.2722 37.7647 62.3692 37.6643C62.4647 37.5656 62.6272 37.4938 62.907 37.4938V36.9729C62.5424 36.9729 62.2216 37.0677 61.9948 37.3023C61.7696 37.5353 61.6799 37.862 61.6799 38.2333H62.2008ZM62.907 37.4938H66.9737V36.9729H62.907V37.4938ZM66.9737 37.4938C67.2676 37.4938 67.4342 37.5672 67.5281 37.6643C67.6221 37.7615 67.6899 37.9306 67.6801 38.2247L68.2006 38.242C68.213 37.8694 68.1309 37.5385 67.9026 37.3023C67.6743 37.0662 67.3464 36.9729 66.9737 36.9729V37.4938ZM67.68 38.2294L67.48 51.5961L68.0007 51.6039L68.2007 38.2372L67.68 38.2294ZM67.7548 51.86C68.15 51.8381 68.5452 51.8271 68.9403 51.8271V51.3063C68.5355 51.3063 68.1307 51.3175 67.7259 51.34L67.7548 51.86ZM68.9548 51.8267C69.359 51.8042 69.7851 51.7706 70.2329 51.7258L70.1811 51.2076C69.74 51.2517 69.3217 51.2847 68.9259 51.3067L68.9548 51.8267ZM70.2233 51.7266C70.5642 51.7053 70.7426 51.755 70.8223 51.8119L71.125 51.3881C70.8937 51.2228 70.561 51.1836 70.1908 51.2068L70.2233 51.7266ZM70.8572 51.8329C70.9221 51.8654 71.0096 51.9598 71.0492 52.2368L71.5648 52.1632C71.5155 51.818 71.3808 51.5124 71.0901 51.3671L70.8572 51.8329ZM71.0488 52.2338L71.4155 55.0338L71.9319 54.9662L71.5652 52.1662L71.0488 52.2338ZM71.4155 55.0344C71.4556 55.335 71.4106 55.5176 71.335 55.6261C71.2638 55.7283 71.1311 55.8131 70.8783 55.8412L70.9358 56.3588C71.2829 56.3203 71.578 56.1884 71.7623 55.9239C71.9423 55.6657 71.9806 55.3317 71.9318 54.9656L71.4155 55.0344ZM70.8733 55.8418C70.3632 55.9083 69.8307 55.9749 69.276 56.0414L69.338 56.5586C69.8944 56.4918 70.4286 56.425 70.9407 56.3582L70.8733 55.8418ZM69.2854 56.0405C68.7523 56.0849 68.2082 56.1293 67.6529 56.1738L67.6944 56.6929C68.2503 56.6485 68.795 56.604 69.3286 56.5595L69.2854 56.0405ZM67.4133 56.4297L67.3466 61.1964L67.8674 61.2037L67.9341 56.437L67.4133 56.4297ZM67.3466 61.2C67.3466 61.4932 67.2735 61.6653 67.1729 61.7659C67.0723 61.8665 66.9002 61.9396 66.607 61.9396V62.4604C66.9805 62.4604 67.3084 62.3669 67.5412 62.1342C67.7739 61.9014 67.8674 61.5735 67.8674 61.2H67.3466ZM66.607 61.9396H63.3403V62.4604H66.607V61.9396Z" fill="url(#paint8_linear_366_9803)" style="mix-blend-mode:color-burn" mask="url(#path-12-outside-2_366_9803)"/>
</g>
<defs>
<filter id="filter0_d_366_9803" x="-4.16667" y="-3.125" width="108.333" height="108.333" filterUnits="userSpaceOnUse" color-interpolation-filters="sRGB">
<feFlood flood-opacity="0" result="BackgroundImageFix"/>
<feColorMatrix in="SourceAlpha" type="matrix" values="0 0 0 0 0 0 0 0 0 0 0 0 0 0 0 0 0 0 127 0" result="hardAlpha"/>
<feOffset dy="1.04167"/>
<feGaussianBlur stdDeviation="2.08333"/>
<feColorMatrix type="matrix" values="0 0 0 0 0 0 0 0 0 0 0 0 0 0 0 0 0 0 0.16 0"/>
<feBlend mode="color-burn" in2="BackgroundImageFix" result="effect1_dropShadow_366_9803"/>
<feBlend mode="normal" in="SourceGraphic" in2="effect1_dropShadow_366_9803" result="shape"/>
</filter>
<filter id="filter1_d_366_9803" x="23.3208" y="31.3229" width="54.8804" height="38.7979" filterUnits="userSpaceOnUse" color-interpolation-filters="sRGB">
<feFlood flood-opacity="0" result="BackgroundImageFix"/>
<feColorMatrix in="SourceAlpha" type="matrix" values="0 0 0 0 0 0 0 0 0 0 0 0 0 0 0 0 0 0 127 0" result="hardAlpha"/>
<feOffset dy="1.04167"/>
<feGaussianBlur stdDeviation="3.125"/>
<feColorMatrix type="matrix" values="0 0 0 0 0 0 0 0 0 0 0 0 0 0 0 0 0 0 0.12 0"/>
<feBlend mode="plus-darker" in2="BackgroundImageFix" result="effect1_dropShadow_366_9803"/>
<feBlend mode="normal" in="SourceGraphic" in2="effect1_dropShadow_366_9803" result="shape"/>
</filter>
<linearGradient id="paint0_linear_366_9803" x1="-22.9167" y1="-22.9166" x2="151.524" y2="68.0723" gradientUnits="userSpaceOnUse">
<stop stop-color="#3D75EE"/>
<stop offset="1" stop-color="#5785E8"/>
</linearGradient>
<linearGradient id="paint1_linear_366_9803" x1="50" y1="-6.39143" x2="50" y2="105.635" gradientUnits="userSpaceOnUse">
<stop stop-color="white"/>
<stop offset="1" stop-color="white" stop-opacity="0"/>
</linearGradient>
<radialGradient id="paint2_radial_366_9803" cx="0" cy="0" r="1" gradientUnits="userSpaceOnUse" gradientTransform="translate(50 25.7865) rotate(90) scale(73.89 56.0618)">
<stop stop-color="white"/>
<stop offset="1" stop-color="white" stop-opacity="0"/>
</radialGradient>
<linearGradient id="paint3_linear_366_9803" x1="-22.9167" y1="-22.9166" x2="151.524" y2="68.0723" gradientUnits="userSpaceOnUse">
<stop stop-color="#3D75EE"/>
<stop offset="1" stop-color="#5785E8"/>
</linearGradient>
<linearGradient id="paint4_linear_366_9803" x1="50" y1="-6.39143" x2="50" y2="105.635" gradientUnits="userSpaceOnUse">
<stop stop-color="white"/>
<stop offset="1" stop-color="white" stop-opacity="0"/>
</linearGradient>
<radialGradient id="paint5_radial_366_9803" cx="0" cy="0" r="1" gradientUnits="userSpaceOnUse" gradientTransform="translate(50 25.7865) rotate(90) scale(73.89 56.0618)">
<stop stop-color="white"/>
<stop offset="1" stop-color="white" stop-opacity="0"/>
</radialGradient>
<linearGradient id="paint6_linear_366_9803" x1="-22.9167" y1="-22.9167" x2="-22.9167" y2="122.917" gradientUnits="userSpaceOnUse">
<stop offset="0.135095" stop-color="white"/>
<stop offset="0.877908" stop-color="white" stop-opacity="0.01"/>
</linearGradient>
<linearGradient id="paint7_linear_366_9803" x1="50" y1="0" x2="50" y2="100" gradientUnits="userSpaceOnUse">
<stop stop-color="white"/>
<stop offset="1" stop-color="#999999"/>
</linearGradient>
<linearGradient id="paint8_linear_366_9803" x1="50" y1="33.3333" x2="50" y2="66.3333" gradientUnits="userSpaceOnUse">
<stop stop-color="#DFDFDF"/>
<stop offset="1" stop-color="#A9A9A9"/>
</linearGradient>
</defs>
</svg>
