<svg width="100" height="100" viewBox="0 0 100 100" fill="none" xmlns="http://www.w3.org/2000/svg">
<mask id="mask0_366_9800" style="mask-type:alpha" maskUnits="userSpaceOnUse" x="0" y="0" width="100" height="100">
<circle cx="50" cy="50" r="50" fill="white"/>
</mask>
<g mask="url(#mask0_366_9800)">
<mask id="mask1_366_9800" style="mask-type:alpha" maskUnits="userSpaceOnUse" x="0" y="0" width="100" height="100">
<circle cx="50" cy="50" r="50" fill="white"/>
</mask>
<g mask="url(#mask1_366_9800)">
<rect x="-22.9167" y="-22.9167" width="145.833" height="145.833" fill="url(#paint0_linear_366_9800)"/>
<rect x="-22.9167" y="-22.9167" width="145.833" height="145.833" fill="url(#paint1_linear_366_9800)" fill-opacity="0.6" style="mix-blend-mode:overlay"/>
<rect x="-22.9167" y="-22.9167" width="145.833" height="145.833" fill="url(#paint2_radial_366_9800)" fill-opacity="0.6" style="mix-blend-mode:overlay"/>
<rect x="-22.9167" y="-22.9167" width="145.833" height="145.833" fill="black" fill-opacity="0.16" style="mix-blend-mode:overlay"/>
<rect x="-22.9167" y="-22.9167" width="145.833" height="145.833" fill="black" fill-opacity="0.12" style="mix-blend-mode:darken"/>
</g>
<g filter="url(#filter0_d_366_9800)">
<mask id="mask2_366_9800" style="mask-type:alpha" maskUnits="userSpaceOnUse" x="0" y="0" width="100" height="100">
<path fill-rule="evenodd" clip-rule="evenodd" d="M95.8333 50C95.8333 75.313 75.313 95.8333 50 95.8333C24.6869 95.8333 4.16667 75.313 4.16667 50C4.16667 24.6869 24.6869 4.16667 50 4.16667C75.313 4.16667 95.8333 24.6869 95.8333 50ZM100 50C100 77.6142 77.6142 100 50 100C22.3858 100 0 77.6142 0 50C0 22.3858 22.3858 0 50 0C77.6142 0 100 22.3858 100 50ZM50 88.0208C70.9983 88.0208 88.0208 70.9983 88.0208 50C88.0208 29.0017 70.9983 11.9792 50 11.9792C29.0017 11.9792 11.9792 29.0017 11.9792 50C11.9792 70.9983 29.0017 88.0208 50 88.0208Z" fill="white"/>
</mask>
<g mask="url(#mask2_366_9800)">
<rect x="-22.9167" y="-22.9167" width="145.833" height="145.833" fill="url(#paint3_linear_366_9800)"/>
<rect x="-22.9167" y="-22.9167" width="145.833" height="145.833" fill="url(#paint4_linear_366_9800)" fill-opacity="0.6" style="mix-blend-mode:overlay"/>
<rect x="-22.9167" y="-22.9167" width="145.833" height="145.833" fill="url(#paint5_radial_366_9800)" fill-opacity="0.6" style="mix-blend-mode:overlay"/>
<g style="mix-blend-mode:soft-light">
<path fill-rule="evenodd" clip-rule="evenodd" d="M-22.9167 -22.9167H64.5833L36.6578 122.917H-22.9167V-22.9167Z" fill="url(#paint6_linear_366_9800)" style="mix-blend-mode:lighten"/>
</g>
<g style="mix-blend-mode:soft-light">
<mask id="path-10-inside-1_366_9800" fill="white">
<path fill-rule="evenodd" clip-rule="evenodd" d="M95.8333 50C95.8333 75.313 75.313 95.8333 50 95.8333C24.6869 95.8333 4.16667 75.313 4.16667 50C4.16667 24.6869 24.6869 4.16667 50 4.16667C75.313 4.16667 95.8333 24.6869 95.8333 50ZM100 50C100 77.6142 77.6142 100 50 100C22.3858 100 0 77.6142 0 50C0 22.3858 22.3858 0 50 0C77.6142 0 100 22.3858 100 50ZM50 88.0208C70.9983 88.0208 88.0208 70.9983 88.0208 50C88.0208 29.0017 70.9983 11.9792 50 11.9792C29.0017 11.9792 11.9792 29.0017 11.9792 50C11.9792 70.9983 29.0017 88.0208 50 88.0208Z"/>
</mask>
<path d="M50 96.0938C75.4569 96.0938 96.0938 75.4569 96.0938 50H95.5729C95.5729 75.1692 75.1692 95.5729 50 95.5729V96.0938ZM3.90625 50C3.90625 75.4569 24.5431 96.0938 50 96.0938V95.5729C24.8308 95.5729 4.42708 75.1692 4.42708 50H3.90625ZM50 3.90625C24.5431 3.90625 3.90625 24.5431 3.90625 50H4.42708C4.42708 24.8308 24.8308 4.42708 50 4.42708V3.90625ZM96.0938 50C96.0938 24.5431 75.4569 3.90625 50 3.90625V4.42708C75.1692 4.42708 95.5729 24.8308 95.5729 50H96.0938ZM50 100.26C77.7581 100.26 100.26 77.7581 100.26 50H99.7396C99.7396 77.4704 77.4704 99.7396 50 99.7396V100.26ZM-0.260417 50C-0.260417 77.7581 22.2419 100.26 50 100.26V99.7396C22.5296 99.7396 0.260417 77.4704 0.260417 50H-0.260417ZM50 -0.260417C22.2419 -0.260417 -0.260417 22.2419 -0.260417 50H0.260417C0.260417 22.5296 22.5296 0.260417 50 0.260417V-0.260417ZM100.26 50C100.26 22.2419 77.7581 -0.260417 50 -0.260417V0.260417C77.4704 0.260417 99.7396 22.5296 99.7396 50H100.26ZM87.7604 50C87.7604 70.8545 70.8545 87.7604 50 87.7604V88.2812C71.1421 88.2812 88.2812 71.1421 88.2812 50H87.7604ZM50 12.2396C70.8545 12.2396 87.7604 29.1455 87.7604 50H88.2812C88.2812 28.8578 71.1421 11.7188 50 11.7188V12.2396ZM12.2396 50C12.2396 29.1455 29.1455 12.2396 50 12.2396V11.7188C28.8578 11.7188 11.7188 28.8578 11.7188 50H12.2396ZM50 87.7604C29.1455 87.7604 12.2396 70.8545 12.2396 50H11.7188C11.7188 71.1421 28.8578 88.2812 50 88.2812V87.7604Z" fill="url(#paint7_linear_366_9800)" mask="url(#path-10-inside-1_366_9800)"/>
</g>
</g>
</g>
</g>
<g filter="url(#filter1_d_366_9800)">
<mask id="path-12-outside-2_366_9800" maskUnits="userSpaceOnUse" x="27.3333" y="36.3333" width="46" height="27" fill="black">
<rect fill="white" x="27.3333" y="36.3333" width="46" height="27"/>
<path d="M40.9795 53.2333C40.424 53.2333 40.1462 52.9556 40.1462 52.4V49C40.1462 48.4445 40.424 48.1667 40.9795 48.1667L50.2795 48.2333C50.8573 48.2333 51.2907 48.3667 51.5795 48.6333C51.8907 48.9 52.0684 49.3778 52.1129 50.0667C52.2018 51.7556 52.0018 53.3556 51.5129 54.8667C51.024 56.3778 50.2795 57.7 49.2795 58.8333C48.2795 59.9667 47.024 60.8667 45.5129 61.5333C44.024 62.2 42.3129 62.5333 40.3795 62.5333C38.5795 62.5333 36.9129 62.2222 35.3795 61.6C33.8684 60.9778 32.5573 60.1111 31.4462 59C30.3351 57.8667 29.4573 56.5222 28.8129 54.9667C28.1907 53.4111 27.8795 51.6889 27.8795 49.8C27.8795 47.9111 28.1907 46.1778 28.8129 44.6C29.4351 43 30.2906 41.6222 31.3795 40.4667C32.4907 39.2889 33.7795 38.3778 35.2462 37.7333C36.7351 37.0667 38.3351 36.7333 40.0462 36.7333C42.4018 36.7333 44.4462 37.1778 46.1795 38.0667C47.9129 38.9333 49.2462 40.0556 50.1795 41.4333C50.3351 41.6556 50.4129 41.9 50.4129 42.1667C50.4129 42.4111 50.2906 42.6222 50.0462 42.8L46.9795 45.2C46.7573 45.3778 46.5018 45.4778 46.2129 45.5C45.924 45.5 45.6906 45.3667 45.5129 45.1C45.0462 44.4111 44.3907 43.8445 43.5462 43.4C42.724 42.9556 41.6351 42.7333 40.2795 42.7333C39.3684 42.7333 38.524 42.9111 37.7462 43.2667C36.9684 43.6222 36.2795 44.1333 35.6795 44.8C35.1018 45.4445 34.6462 46.2222 34.3129 47.1333C33.9795 48.0445 33.8129 49.0445 33.8129 50.1333C33.8129 51.2445 33.9907 52.2445 34.3462 53.1333C34.7018 54.0222 35.1906 54.7778 35.8129 55.4C36.4351 56.0222 37.1573 56.5111 37.9795 56.8667C38.8018 57.2 39.6795 57.3667 40.6129 57.3667C41.4573 57.3667 42.224 57.2556 42.9129 57.0333C43.6018 56.8111 44.2018 56.5111 44.7129 56.1333C45.2462 55.7333 45.6795 55.2889 46.0129 54.8C46.3462 54.2889 46.5907 53.7445 46.7462 53.1667L40.9795 53.2333ZM55.6746 56.2333C56.0968 55.6556 56.5635 55.5667 57.0746 55.9667C57.6968 56.4333 58.4968 56.8333 59.4746 57.1667C60.4524 57.4778 61.4413 57.6333 62.4413 57.6333C63.819 57.6333 64.8079 57.4 65.4079 56.9333C66.0079 56.4445 66.2857 55.8333 66.2413 55.1C66.219 54.6778 66.0746 54.3222 65.8079 54.0333C65.5635 53.7222 65.2413 53.4667 64.8413 53.2667C64.4413 53.0667 63.9968 52.9222 63.5079 52.8333C63.0413 52.7445 62.5746 52.7 62.1079 52.7L58.1079 52.7333C57.7968 52.7333 57.5524 52.6445 57.3746 52.4667C57.1968 52.2889 57.1079 52.0445 57.1079 51.7333V49C57.1079 48.6889 57.1968 48.4445 57.3746 48.2667C57.5524 48.0889 57.7968 48 58.1079 48L62.2079 48.0333C62.8746 48.0333 63.4857 47.9778 64.0413 47.8667C64.5968 47.7333 65.0746 47.5333 65.4746 47.2667C65.8968 47 66.219 46.6778 66.4413 46.3C66.6635 45.9 66.7746 45.4445 66.7746 44.9333C66.7524 44.0889 66.3524 43.4445 65.5746 43C64.7968 42.5333 63.819 42.3 62.6413 42.3C61.5746 42.3 60.5857 42.4556 59.6746 42.7667C58.7857 43.0556 57.9413 43.4667 57.1413 44C56.8524 44.2 56.5635 44.2778 56.2746 44.2333C56.0079 44.1889 55.7857 44.0111 55.6079 43.7L54.1079 40.7667C53.9524 40.4556 53.919 40.1889 54.0079 39.9667C54.119 39.7222 54.319 39.4889 54.6079 39.2667C55.5413 38.5556 56.6968 37.9556 58.0746 37.4667C59.4524 36.9778 60.9746 36.7333 62.6413 36.7333C64.1079 36.7333 65.4413 36.9222 66.6413 37.3C67.8635 37.6778 68.8968 38.2111 69.7413 38.9C70.6079 39.5667 71.2746 40.3889 71.7413 41.3667C72.2079 42.3222 72.4413 43.3889 72.4413 44.5667C72.4413 46.0333 72.0413 47.3222 71.2413 48.4333C70.4635 49.5445 69.4413 50.3111 68.1746 50.7333C68.6413 50.8445 69.0857 51.0667 69.5079 51.4C69.9524 51.7111 70.3413 52.1 70.6746 52.5667C71.0079 53.0111 71.2635 53.5111 71.4413 54.0667C71.6413 54.6222 71.7413 55.1889 71.7413 55.7667C71.7413 56.7667 71.519 57.6889 71.0746 58.5333C70.6301 59.3556 70.0079 60.0667 69.2079 60.6667C68.4079 61.2667 67.4413 61.7333 66.3079 62.0667C65.1968 62.4 63.9524 62.5556 62.5746 62.5333C60.9079 62.4889 59.3968 62.1889 58.0413 61.6333C56.7079 61.1 55.5413 60.3667 54.5413 59.4333C54.3413 59.2556 54.2079 59.0556 54.1413 58.8333C54.0746 58.6111 54.1301 58.3667 54.3079 58.1L55.6746 56.2333Z"/>
</mask>
<path d="M40.9795 53.2333C40.424 53.2333 40.1462 52.9556 40.1462 52.4V49C40.1462 48.4445 40.424 48.1667 40.9795 48.1667L50.2795 48.2333C50.8573 48.2333 51.2907 48.3667 51.5795 48.6333C51.8907 48.9 52.0684 49.3778 52.1129 50.0667C52.2018 51.7556 52.0018 53.3556 51.5129 54.8667C51.024 56.3778 50.2795 57.7 49.2795 58.8333C48.2795 59.9667 47.024 60.8667 45.5129 61.5333C44.024 62.2 42.3129 62.5333 40.3795 62.5333C38.5795 62.5333 36.9129 62.2222 35.3795 61.6C33.8684 60.9778 32.5573 60.1111 31.4462 59C30.3351 57.8667 29.4573 56.5222 28.8129 54.9667C28.1907 53.4111 27.8795 51.6889 27.8795 49.8C27.8795 47.9111 28.1907 46.1778 28.8129 44.6C29.4351 43 30.2906 41.6222 31.3795 40.4667C32.4907 39.2889 33.7795 38.3778 35.2462 37.7333C36.7351 37.0667 38.3351 36.7333 40.0462 36.7333C42.4018 36.7333 44.4462 37.1778 46.1795 38.0667C47.9129 38.9333 49.2462 40.0556 50.1795 41.4333C50.3351 41.6556 50.4129 41.9 50.4129 42.1667C50.4129 42.4111 50.2906 42.6222 50.0462 42.8L46.9795 45.2C46.7573 45.3778 46.5018 45.4778 46.2129 45.5C45.924 45.5 45.6906 45.3667 45.5129 45.1C45.0462 44.4111 44.3907 43.8445 43.5462 43.4C42.724 42.9556 41.6351 42.7333 40.2795 42.7333C39.3684 42.7333 38.524 42.9111 37.7462 43.2667C36.9684 43.6222 36.2795 44.1333 35.6795 44.8C35.1018 45.4445 34.6462 46.2222 34.3129 47.1333C33.9795 48.0445 33.8129 49.0445 33.8129 50.1333C33.8129 51.2445 33.9907 52.2445 34.3462 53.1333C34.7018 54.0222 35.1906 54.7778 35.8129 55.4C36.4351 56.0222 37.1573 56.5111 37.9795 56.8667C38.8018 57.2 39.6795 57.3667 40.6129 57.3667C41.4573 57.3667 42.224 57.2556 42.9129 57.0333C43.6018 56.8111 44.2018 56.5111 44.7129 56.1333C45.2462 55.7333 45.6795 55.2889 46.0129 54.8C46.3462 54.2889 46.5907 53.7445 46.7462 53.1667L40.9795 53.2333ZM55.6746 56.2333C56.0968 55.6556 56.5635 55.5667 57.0746 55.9667C57.6968 56.4333 58.4968 56.8333 59.4746 57.1667C60.4524 57.4778 61.4413 57.6333 62.4413 57.6333C63.819 57.6333 64.8079 57.4 65.4079 56.9333C66.0079 56.4445 66.2857 55.8333 66.2413 55.1C66.219 54.6778 66.0746 54.3222 65.8079 54.0333C65.5635 53.7222 65.2413 53.4667 64.8413 53.2667C64.4413 53.0667 63.9968 52.9222 63.5079 52.8333C63.0413 52.7445 62.5746 52.7 62.1079 52.7L58.1079 52.7333C57.7968 52.7333 57.5524 52.6445 57.3746 52.4667C57.1968 52.2889 57.1079 52.0445 57.1079 51.7333V49C57.1079 48.6889 57.1968 48.4445 57.3746 48.2667C57.5524 48.0889 57.7968 48 58.1079 48L62.2079 48.0333C62.8746 48.0333 63.4857 47.9778 64.0413 47.8667C64.5968 47.7333 65.0746 47.5333 65.4746 47.2667C65.8968 47 66.219 46.6778 66.4413 46.3C66.6635 45.9 66.7746 45.4445 66.7746 44.9333C66.7524 44.0889 66.3524 43.4445 65.5746 43C64.7968 42.5333 63.819 42.3 62.6413 42.3C61.5746 42.3 60.5857 42.4556 59.6746 42.7667C58.7857 43.0556 57.9413 43.4667 57.1413 44C56.8524 44.2 56.5635 44.2778 56.2746 44.2333C56.0079 44.1889 55.7857 44.0111 55.6079 43.7L54.1079 40.7667C53.9524 40.4556 53.919 40.1889 54.0079 39.9667C54.119 39.7222 54.319 39.4889 54.6079 39.2667C55.5413 38.5556 56.6968 37.9556 58.0746 37.4667C59.4524 36.9778 60.9746 36.7333 62.6413 36.7333C64.1079 36.7333 65.4413 36.9222 66.6413 37.3C67.8635 37.6778 68.8968 38.2111 69.7413 38.9C70.6079 39.5667 71.2746 40.3889 71.7413 41.3667C72.2079 42.3222 72.4413 43.3889 72.4413 44.5667C72.4413 46.0333 72.0413 47.3222 71.2413 48.4333C70.4635 49.5445 69.4413 50.3111 68.1746 50.7333C68.6413 50.8445 69.0857 51.0667 69.5079 51.4C69.9524 51.7111 70.3413 52.1 70.6746 52.5667C71.0079 53.0111 71.2635 53.5111 71.4413 54.0667C71.6413 54.6222 71.7413 55.1889 71.7413 55.7667C71.7413 56.7667 71.519 57.6889 71.0746 58.5333C70.6301 59.3556 70.0079 60.0667 69.2079 60.6667C68.4079 61.2667 67.4413 61.7333 66.3079 62.0667C65.1968 62.4 63.9524 62.5556 62.5746 62.5333C60.9079 62.4889 59.3968 62.1889 58.0413 61.6333C56.7079 61.1 55.5413 60.3667 54.5413 59.4333C54.3413 59.2556 54.2079 59.0556 54.1413 58.8333C54.0746 58.6111 54.1301 58.3667 54.3079 58.1L55.6746 56.2333Z" fill="white"/>
<path d="M40.9795 53.2333V53.4938L40.9825 53.4937L40.9795 53.2333ZM40.9795 48.1667L40.9814 47.9063H40.9795V48.1667ZM50.2795 48.2333L50.2777 48.4938H50.2795V48.2333ZM51.5795 48.6333L51.4028 48.8248L51.4101 48.8311L51.5795 48.6333ZM52.1129 50.0667L52.3729 50.053L52.3727 50.0499L52.1129 50.0667ZM51.5129 54.8667L51.2651 54.7865L51.5129 54.8667ZM49.2795 58.8333L49.0843 58.661L49.2795 58.8333ZM45.5129 61.5333L45.4078 61.2951L45.4064 61.2957L45.5129 61.5333ZM35.3795 61.6L35.2804 61.8408L35.2816 61.8413L35.3795 61.6ZM31.4462 59L31.2602 59.1823L31.2621 59.1842L31.4462 59ZM28.8129 54.9667L28.5711 55.0634L28.5723 55.0663L28.8129 54.9667ZM28.8129 44.6L29.0551 44.6955L29.0556 44.6944L28.8129 44.6ZM31.3795 40.4667L31.1901 40.288L31.19 40.2881L31.3795 40.4667ZM35.2462 37.7333L35.351 37.9718L35.3526 37.971L35.2462 37.7333ZM46.1795 38.0667L46.0607 38.2984L46.0631 38.2996L46.1795 38.0667ZM50.1795 41.4333L49.9639 41.5794L49.9662 41.5827L50.1795 41.4333ZM50.0462 42.8L49.8929 42.5893L49.8857 42.5949L50.0462 42.8ZM46.9795 45.2L46.819 44.9949L46.8169 44.9967L46.9795 45.2ZM46.2129 45.5V45.7604H46.2229L46.2328 45.7597L46.2129 45.5ZM45.5129 45.1L45.7296 44.9556L45.7285 44.954L45.5129 45.1ZM43.5462 43.4L43.4224 43.6291L43.4249 43.6305L43.5462 43.4ZM37.7462 43.2667L37.6379 43.0298L37.7462 43.2667ZM35.6795 44.8L35.486 44.6258L35.4856 44.6262L35.6795 44.8ZM34.3129 47.1333L34.0683 47.0439L34.3129 47.1333ZM34.3462 53.1333L34.588 53.0366L34.3462 53.1333ZM35.8129 55.4L35.997 55.2159L35.8129 55.4ZM37.9795 56.8667L37.8762 57.1058L37.8817 57.108L37.9795 56.8667ZM42.9129 57.0333L42.9928 57.2812L42.9129 57.0333ZM44.7129 56.1333L44.8677 56.3428L44.8691 56.3417L44.7129 56.1333ZM46.0129 54.8L46.2281 54.9467L46.231 54.9423L46.0129 54.8ZM46.7462 53.1667L46.9977 53.2344L47.0871 52.9023L46.7432 52.9063L46.7462 53.1667ZM40.9795 52.9729C40.7419 52.9729 40.6115 52.9137 40.5387 52.8409C40.4659 52.768 40.4066 52.6376 40.4066 52.4H39.8858C39.8858 52.7179 39.9654 53.0042 40.1704 53.2092C40.3753 53.4141 40.6616 53.4938 40.9795 53.4938V52.9729ZM40.4066 52.4V49H39.8858V52.4H40.4066ZM40.4066 49C40.4066 48.7624 40.4659 48.632 40.5387 48.5592C40.6115 48.4863 40.7419 48.4271 40.9795 48.4271V47.9063C40.6616 47.9063 40.3753 47.9859 40.1704 48.1909C39.9654 48.3958 39.8858 48.6821 39.8858 49H40.4066ZM40.9777 48.4271L50.2777 48.4938L50.2814 47.9729L40.9814 47.9063L40.9777 48.4271ZM50.2795 48.4938C50.8221 48.4938 51.1805 48.6194 51.4029 48.8247L51.7562 48.442C51.4008 48.1139 50.8925 47.9729 50.2795 47.9729V48.4938ZM51.4101 48.8311C51.6412 49.0292 51.8101 49.4193 51.853 50.0834L52.3727 50.0499C52.3267 49.3363 52.1401 48.7708 51.749 48.4356L51.4101 48.8311ZM51.8528 50.0804C51.9401 51.7396 51.7436 53.3076 51.2651 54.7865L51.7606 54.9468C52.2599 53.4035 52.4634 51.7716 52.3729 50.053L51.8528 50.0804ZM51.2651 54.7865C50.7866 56.2654 50.0594 57.5559 49.0843 58.661L49.4748 59.0056C50.4996 57.8442 51.2613 56.4902 51.7606 54.9468L51.2651 54.7865ZM49.0843 58.661C48.1114 59.7636 46.8876 60.6422 45.4078 61.2951L45.618 61.7716C47.1603 61.0912 48.4476 60.1698 49.4748 59.0056L49.0843 58.661ZM45.4064 61.2957C43.9567 61.9448 42.2829 62.2729 40.3795 62.2729V62.7938C42.3429 62.7938 44.0913 62.4552 45.6193 61.771L45.4064 61.2957ZM40.3795 62.2729C38.6101 62.2729 36.9771 61.9672 35.4775 61.3587L35.2816 61.8413C36.8487 62.4772 38.5489 62.7938 40.3795 62.7938V62.2729ZM35.4787 61.3592C33.9981 60.7495 32.7162 59.9017 31.6303 58.8159L31.2621 59.1842C32.3985 60.3205 33.7388 61.206 35.2804 61.8408L35.4787 61.3592ZM31.6322 58.8177C30.5458 57.7096 29.6859 56.3937 29.0535 54.867L28.5723 55.0663C29.2287 56.6508 30.1244 58.0238 31.2602 59.1823L31.6322 58.8177ZM29.0547 54.87C28.4462 53.3488 28.14 51.66 28.14 49.8H27.6191C27.6191 51.7178 27.9351 53.4734 28.5711 55.0634L29.0547 54.87ZM28.14 49.8C28.14 47.9401 28.4462 46.2396 29.0551 44.6955L28.5706 44.5045C27.9351 46.1159 27.6191 47.8821 27.6191 49.8H28.14ZM29.0556 44.6944C29.6667 43.1231 30.505 41.7745 31.5691 40.6453L31.19 40.2881C30.0763 41.4699 29.2035 42.8769 28.5702 44.5056L29.0556 44.6944ZM31.569 40.6454C32.6564 39.4927 33.9166 38.602 35.351 37.9718L35.1414 37.4949C33.6425 38.1536 32.3249 39.0851 31.1901 40.288L31.569 40.6454ZM35.3526 37.971C36.8064 37.3201 38.3699 36.9938 40.0462 36.9938V36.4729C38.3002 36.4729 36.6638 36.8133 35.1398 37.4957L35.3526 37.971ZM40.0462 36.9938C42.369 36.9938 44.3711 37.4319 46.0607 38.2984L46.2984 37.835C44.5213 36.9237 42.4345 36.4729 40.0462 36.4729V36.9938ZM46.0631 38.2996C47.7631 39.1496 49.0595 40.2443 49.9639 41.5794L50.3951 41.2873C49.4329 39.8668 48.0627 38.7171 46.296 37.8338L46.0631 38.2996ZM49.9662 41.5827C50.0917 41.7619 50.1525 41.9544 50.1525 42.1667H50.6733C50.6733 41.8456 50.5785 41.5492 50.3929 41.284L49.9662 41.5827ZM50.1525 42.1667C50.1525 42.308 50.0879 42.4477 49.893 42.5894L50.1994 43.0106C50.4934 42.7968 50.6733 42.5143 50.6733 42.1667H50.1525ZM49.8857 42.5949L46.819 44.9949L47.14 45.4051L50.2067 43.0051L49.8857 42.5949ZM46.8169 44.9967C46.6363 45.1411 46.4307 45.2221 46.1929 45.2404L46.2328 45.7597C46.5729 45.7335 46.8784 45.6144 47.1422 45.4034L46.8169 44.9967ZM46.2129 45.2396C46.0217 45.2396 45.8652 45.1591 45.7295 44.9556L45.2962 45.2445C45.5161 45.5743 45.8263 45.7604 46.2129 45.7604V45.2396ZM45.7285 44.954C45.2345 44.2247 44.5442 43.631 43.6675 43.1696L43.4249 43.6305C44.2371 44.0579 44.8579 44.5975 45.2973 45.2461L45.7285 44.954ZM43.67 43.1709C42.7965 42.6987 41.6602 42.4729 40.2795 42.4729V42.9938C41.61 42.9938 42.6515 43.2124 43.4224 43.6291L43.67 43.1709ZM40.2795 42.4729C39.3336 42.4729 38.4519 42.6577 37.6379 43.0298L37.8545 43.5035C38.5961 43.1645 39.4033 42.9938 40.2795 42.9938V42.4729ZM37.6379 43.0298C36.8262 43.4009 36.1086 43.934 35.486 44.6258L35.8731 44.9742C36.4504 44.3327 37.1107 43.8435 37.8545 43.5035L37.6379 43.0298ZM35.4856 44.6262C34.8833 45.2981 34.4116 46.1054 34.0683 47.0439L34.5574 47.2228C34.8808 46.339 35.3203 45.5908 35.8734 44.9739L35.4856 44.6262ZM34.0683 47.0439C33.7233 47.9869 33.5525 49.0176 33.5525 50.1333H34.0733C34.0733 49.0713 34.2358 48.102 34.5574 47.2228L34.0683 47.0439ZM33.5525 50.1333C33.5525 51.2723 33.7347 52.3059 34.1044 53.2301L34.588 53.0366C34.2466 52.183 34.0733 51.2166 34.0733 50.1333H33.5525ZM34.1044 53.2301C34.4719 54.1488 34.9794 54.9349 35.6287 55.5842L35.997 55.2159C35.4019 54.6207 34.9316 53.8957 34.588 53.0366L34.1044 53.2301ZM35.6287 55.5842C36.2746 56.23 37.0244 56.7374 37.8762 57.1057L38.0829 56.6277C37.2903 56.2849 36.5956 55.8144 35.997 55.2159L35.6287 55.5842ZM37.8817 57.108C38.7366 57.4546 39.6478 57.6271 40.6129 57.6271V57.1063C39.7113 57.1063 38.8669 56.9454 38.0774 56.6253L37.8817 57.108ZM40.6129 57.6271C41.48 57.6271 42.2742 57.513 42.9928 57.2812L42.8329 56.7855C42.1738 56.9981 41.4346 57.1063 40.6129 57.1063V57.6271ZM42.9928 57.2812C43.7049 57.0515 44.3309 56.7395 44.8677 56.3428L44.5581 55.9239C44.0726 56.2828 43.4986 56.5708 42.8329 56.7855L42.9928 57.2812ZM44.8691 56.3417C45.4225 55.9267 45.8767 55.462 46.228 54.9467L45.7977 54.6533C45.4824 55.1158 45.0699 55.54 44.5566 55.925L44.8691 56.3417ZM46.231 54.9423C46.579 54.4087 46.8349 53.8391 46.9977 53.2344L46.4947 53.099C46.3465 53.6498 46.1134 54.1691 45.7947 54.6578L46.231 54.9423ZM46.7432 52.9063L40.9765 52.9729L40.9825 53.4937L46.7492 53.4271L46.7432 52.9063ZM55.6746 56.2333L55.8847 56.3872L55.8848 56.387L55.6746 56.2333ZM57.0746 55.9667L56.9141 56.1718L56.9183 56.175L57.0746 55.9667ZM59.4746 57.1667L59.3905 57.4132L59.3956 57.4148L59.4746 57.1667ZM65.4079 56.9333L65.5678 57.139L65.5724 57.1352L65.4079 56.9333ZM66.2413 55.1L65.9812 55.1137L65.9813 55.1158L66.2413 55.1ZM65.8079 54.0333L65.6032 54.1942L65.6096 54.2024L65.6166 54.21L65.8079 54.0333ZM63.5079 52.8333L63.4592 53.0892L63.4613 53.0896L63.5079 52.8333ZM62.1079 52.7V52.4396L62.1058 52.4396L62.1079 52.7ZM58.1079 52.7333V52.9938L58.1101 52.9938L58.1079 52.7333ZM57.3746 48.2667L57.1904 48.0825V48.0825L57.3746 48.2667ZM58.1079 48L58.11 47.7396H58.1079V48ZM62.2079 48.0333L62.2058 48.2938H62.2079V48.0333ZM64.0413 47.8667L64.0924 48.1222L64.102 48.1199L64.0413 47.8667ZM65.4746 47.2667L65.3355 47.0464L65.3301 47.05L65.4746 47.2667ZM66.4413 46.3L66.6658 46.4321L66.6689 46.4265L66.4413 46.3ZM66.7746 44.9333H67.0351L67.0349 44.9265L66.7746 44.9333ZM65.5746 43L65.4406 43.2234L65.4454 43.2261L65.5746 43ZM59.6746 42.7667L59.7551 43.0144L59.7587 43.0131L59.6746 42.7667ZM57.1413 44L56.9968 43.7833L56.993 43.7859L57.1413 44ZM56.2746 44.2333L56.2318 44.4902L56.235 44.4907L56.2746 44.2333ZM55.6079 43.7L55.3758 43.8187L55.3818 43.8292L55.6079 43.7ZM54.1079 40.7667L53.875 40.8831L53.8761 40.8852L54.1079 40.7667ZM54.0079 39.9667L53.7706 39.8588L53.7661 39.87L54.0079 39.9667ZM54.6079 39.2667L54.4501 39.0595L54.4491 39.0603L54.6079 39.2667ZM58.0746 37.4667L57.9875 37.2213L58.0746 37.4667ZM66.6413 37.3L66.5631 37.5484L66.5644 37.5488L66.6413 37.3ZM69.7413 38.9L69.5766 39.1019L69.5825 39.1064L69.7413 38.9ZM71.7413 41.3667L71.5062 41.4789L71.5073 41.481L71.7413 41.3667ZM71.2413 48.4333L71.0299 48.2812L71.0279 48.284L71.2413 48.4333ZM68.1746 50.7333L68.0922 50.4863L67.2257 50.7751L68.1143 50.9867L68.1746 50.7333ZM69.5079 51.4L69.3466 51.6044L69.3524 51.6091L69.3586 51.6134L69.5079 51.4ZM70.6746 52.5667L70.4626 52.7181L70.4663 52.7229L70.6746 52.5667ZM71.4413 54.0667L71.1931 54.1461L71.1962 54.1549L71.4413 54.0667ZM71.0746 58.5333L71.3037 58.6572L71.305 58.6546L71.0746 58.5333ZM69.2079 60.6667L69.3642 60.875L69.2079 60.6667ZM66.3079 62.0667L66.2344 61.8168L66.2331 61.8172L66.3079 62.0667ZM62.5746 62.5333L62.5676 62.7937L62.5704 62.7937L62.5746 62.5333ZM58.0413 61.6333L58.14 61.3924L58.138 61.3916L58.0413 61.6333ZM54.5413 59.4333L54.719 59.2429L54.7143 59.2387L54.5413 59.4333ZM54.1413 58.8333L54.3907 58.7585L54.1413 58.8333ZM54.3079 58.1L54.0976 57.946L54.0912 57.9556L54.3079 58.1ZM55.8848 56.387C56.0763 56.125 56.2477 56.0163 56.39 55.9892C56.5253 55.9634 56.695 56.0003 56.9141 56.1718L57.2351 55.7616C56.943 55.533 56.6239 55.4144 56.2925 55.4775C55.9682 55.5393 55.6951 55.7639 55.4643 56.0797L55.8848 56.387ZM56.9183 56.175C57.5683 56.6625 58.3948 57.0737 59.3906 57.4132L59.5586 56.9202C58.5988 56.593 57.8253 56.2042 57.2308 55.7583L56.9183 56.175ZM59.3956 57.4148C60.3983 57.7339 61.4138 57.8938 62.4413 57.8938V57.3729C61.4688 57.3729 60.5065 57.2217 59.5536 56.9185L59.3956 57.4148ZM62.4413 57.8938C63.8355 57.8938 64.8976 57.6602 65.5678 57.1389L65.248 56.7278C64.7182 57.1399 63.8026 57.3729 62.4413 57.3729V57.8938ZM65.5724 57.1352C66.2333 56.5967 66.551 55.9064 66.5012 55.0843L65.9813 55.1158C66.0204 55.7603 65.7825 56.2922 65.2434 56.7315L65.5724 57.1352ZM66.5013 55.0863C66.4762 54.6084 66.3104 54.1937 65.9993 53.8567L65.6166 54.21C65.8388 54.4507 65.9619 54.7472 65.9812 55.1137L66.5013 55.0863ZM66.0127 53.8725C65.7416 53.5274 65.3876 53.2487 64.9577 53.0338L64.7248 53.4996C65.0949 53.6847 65.3854 53.9171 65.6032 54.1942L66.0127 53.8725ZM64.9577 53.0338C64.5334 52.8216 64.065 52.6699 63.5545 52.5771L63.4613 53.0896C63.9286 53.1745 64.3492 53.3118 64.7248 53.4996L64.9577 53.0338ZM63.5567 52.5775C63.0742 52.4856 62.5912 52.4396 62.1079 52.4396V52.9604C62.5579 52.9604 63.0083 53.0033 63.4592 53.0892L63.5567 52.5775ZM62.1058 52.4396L58.1058 52.4729L58.1101 52.9938L62.1101 52.9604L62.1058 52.4396ZM58.1079 52.4729C57.8485 52.4729 57.6766 52.4004 57.5587 52.2825L57.1904 52.6508C57.4281 52.8885 57.7451 52.9938 58.1079 52.9938V52.4729ZM57.5587 52.2825C57.4408 52.1646 57.3683 51.9928 57.3683 51.7333H56.8475C56.8475 52.0961 56.9528 52.4132 57.1904 52.6508L57.5587 52.2825ZM57.3683 51.7333V49H56.8475V51.7333H57.3683ZM57.3683 49C57.3683 48.7406 57.4408 48.5687 57.5587 48.4508L57.1904 48.0825C56.9528 48.3202 56.8475 48.6372 56.8475 49H57.3683ZM57.5587 48.4508C57.6766 48.3329 57.8485 48.2604 58.1079 48.2604V47.7396C57.7451 47.7396 57.4281 47.8449 57.1904 48.0825L57.5587 48.4508ZM58.1058 48.2604L62.2058 48.2938L62.21 47.7729L58.11 47.7396L58.1058 48.2604ZM62.2079 48.2938C62.8888 48.2938 63.5173 48.237 64.0923 48.122L63.9902 47.6113C63.4541 47.7185 62.8604 47.7729 62.2079 47.7729V48.2938ZM64.102 48.1199C64.6819 47.9807 65.1892 47.7699 65.619 47.4834L65.3301 47.05C64.96 47.2968 64.5117 47.486 63.9805 47.6135L64.102 48.1199ZM65.6137 47.4869C66.066 47.2011 66.4197 46.8503 66.6657 46.432L66.2168 46.168C66.0184 46.5053 65.7276 46.7989 65.3355 47.0465L65.6137 47.4869ZM66.6689 46.4265C66.915 45.9834 67.035 45.4834 67.035 44.9333H66.5142C66.5142 45.4055 66.4119 45.8166 66.2136 46.1735L66.6689 46.4265ZM67.0349 44.9265C67.0101 43.9846 66.5548 43.2602 65.7038 42.7739L65.4454 43.2261C66.1499 43.6287 66.4946 44.1932 66.5143 44.9402L67.0349 44.9265ZM65.7086 42.7767C64.8799 42.2795 63.8524 42.0396 62.6413 42.0396V42.5604C63.7856 42.5604 64.7137 42.7872 65.4406 43.2233L65.7086 42.7767ZM62.6413 42.0396C61.549 42.0396 60.5314 42.1989 59.5904 42.5202L59.7587 43.0131C60.64 42.7122 61.6002 42.5604 62.6413 42.5604V42.0396ZM59.5941 42.519C58.6819 42.8155 57.816 43.2372 56.9968 43.7833L57.2857 44.2167C58.0665 43.6962 58.8895 43.2957 59.7551 43.0143L59.5941 42.519ZM56.993 43.7859C56.7472 43.9561 56.5244 44.0083 56.3142 43.976L56.235 44.4907C56.6026 44.5473 56.9576 44.4439 57.2895 44.2141L56.993 43.7859ZM56.3174 43.9765C56.1513 43.9488 55.9865 43.8377 55.834 43.5708L55.3818 43.8292C55.5849 44.1846 55.8646 44.429 56.2318 44.4902L56.3174 43.9765ZM55.8398 43.5814L54.3398 40.6481L53.8761 40.8852L55.3761 43.8186L55.8398 43.5814ZM54.3408 40.6502C54.2032 40.3749 54.1991 40.19 54.2497 40.0634L53.7661 39.87C53.639 40.1878 53.7016 40.5362 53.875 40.8831L54.3408 40.6502ZM54.245 40.0744C54.3333 39.8802 54.5001 39.6782 54.7667 39.4731L54.4491 39.0603C54.138 39.2996 53.9048 39.5643 53.7709 39.8589L54.245 40.0744ZM54.7657 39.4738C55.6731 38.7825 56.8033 38.1941 58.1617 37.7121L57.9875 37.2213C56.5903 37.717 55.4094 38.3286 54.4501 39.0595L54.7657 39.4738ZM58.1617 37.7121C59.5079 37.2344 61.0002 36.9938 62.6413 36.9938V36.4729C60.949 36.4729 59.3969 36.7212 57.9875 37.2213L58.1617 37.7121ZM62.6413 36.9938C64.0857 36.9938 65.3922 37.1798 66.5631 37.5484L66.7195 37.0516C65.4904 36.6647 64.1302 36.4729 62.6413 36.4729V36.9938ZM66.5644 37.5488C67.7601 37.9184 68.7622 38.4374 69.5766 39.1018L69.9059 38.6982C69.0314 37.9848 67.9669 37.4372 66.7182 37.0512L66.5644 37.5488ZM69.5825 39.1064C70.417 39.7483 71.0574 40.5384 71.5062 41.4788L71.9763 41.2545C71.4918 40.2394 70.7989 39.385 69.9 38.6936L69.5825 39.1064ZM71.5073 41.481C71.9547 42.3972 72.1808 43.4242 72.1808 44.5667H72.7017C72.7017 43.3536 72.4611 42.2472 71.9753 41.2524L71.5073 41.481ZM72.1808 44.5667C72.1808 45.9828 71.7957 47.2176 71.0299 48.2812L71.4526 48.5855C72.2868 47.4268 72.7017 46.0838 72.7017 44.5667H72.1808ZM71.0279 48.284C70.2816 49.3501 69.305 50.082 68.0922 50.4863L68.2569 50.9804C69.5775 50.5402 70.6453 49.7388 71.4546 48.5827L71.0279 48.284ZM68.1143 50.9867C68.5399 51.088 68.9504 51.2917 69.3466 51.6044L69.6693 51.1956C69.221 50.8417 68.7427 50.6009 68.2349 50.48L68.1143 50.9867ZM69.3586 51.6134C69.7775 51.9066 70.1455 52.2741 70.4627 52.718L70.8865 52.4153C70.537 51.926 70.1273 51.5157 69.6573 51.1867L69.3586 51.6134ZM70.4663 52.7229C70.7813 53.143 71.0239 53.6168 71.1932 54.146L71.6893 53.9873C71.5031 53.4055 71.2345 52.8792 70.8829 52.4104L70.4663 52.7229ZM71.1962 54.1549C71.3863 54.6828 71.4808 55.2196 71.4808 55.7667H72.0017C72.0017 55.1582 71.8962 54.5617 71.6863 53.9785L71.1962 54.1549ZM71.4808 55.7667C71.4808 56.7265 71.268 57.6068 70.8441 58.4121L71.305 58.6546C71.7701 57.771 72.0017 56.8068 72.0017 55.7667H71.4808ZM70.8455 58.4095C70.4202 59.1964 69.8237 59.8793 69.0517 60.4583L69.3642 60.875C70.1921 60.254 70.8401 59.5148 71.3037 58.6572L70.8455 58.4095ZM69.0517 60.4583C68.2806 61.0366 67.3432 61.4907 66.2344 61.8168L66.3814 62.3165C67.5393 61.976 68.5352 61.4967 69.3642 60.875L69.0517 60.4583ZM66.2331 61.8172C65.1519 62.1416 63.9347 62.2948 62.5788 62.273L62.5704 62.7937C63.97 62.8163 65.2417 62.6584 66.3828 62.3161L66.2331 61.8172ZM62.5815 62.273C60.9421 62.2293 59.4627 61.9344 58.14 61.3924L57.9425 61.8743C59.331 62.4434 60.8738 62.7485 62.5676 62.7937L62.5815 62.273ZM58.138 61.3916C56.8331 60.8696 55.6942 60.1532 54.7189 59.243L54.3636 59.6237C55.3883 60.5801 56.5828 61.3304 57.9445 61.8751L58.138 61.3916ZM54.7143 59.2387C54.5447 59.088 54.4415 58.9278 54.3907 58.7585L53.8918 58.9082C53.9744 59.1834 54.1378 59.4231 54.3682 59.628L54.7143 59.2387ZM54.3907 58.7585C54.3539 58.636 54.3726 58.4725 54.5246 58.2445L54.0912 57.9556C53.8877 58.2609 53.7952 58.5862 53.8918 58.9082L54.3907 58.7585ZM54.518 58.2538L55.8847 56.3872L55.4645 56.0795L54.0978 57.9462L54.518 58.2538Z" fill="url(#paint8_linear_366_9800)" style="mix-blend-mode:color-burn" mask="url(#path-12-outside-2_366_9800)"/>
</g>
<defs>
<filter id="filter0_d_366_9800" x="-4.16667" y="-3.125" width="108.333" height="108.333" filterUnits="userSpaceOnUse" color-interpolation-filters="sRGB">
<feFlood flood-opacity="0" result="BackgroundImageFix"/>
<feColorMatrix in="SourceAlpha" type="matrix" values="0 0 0 0 0 0 0 0 0 0 0 0 0 0 0 0 0 0 127 0" result="hardAlpha"/>
<feOffset dy="1.04167"/>
<feGaussianBlur stdDeviation="2.08333"/>
<feColorMatrix type="matrix" values="0 0 0 0 0 0 0 0 0 0 0 0 0 0 0 0 0 0 0.16 0"/>
<feBlend mode="color-burn" in2="BackgroundImageFix" result="effect1_dropShadow_366_9800"/>
<feBlend mode="normal" in="SourceGraphic" in2="effect1_dropShadow_366_9800" result="shape"/>
</filter>
<filter id="filter1_d_366_9800" x="21.3691" y="31.2646" width="57.5825" height="38.8229" filterUnits="userSpaceOnUse" color-interpolation-filters="sRGB">
<feFlood flood-opacity="0" result="BackgroundImageFix"/>
<feColorMatrix in="SourceAlpha" type="matrix" values="0 0 0 0 0 0 0 0 0 0 0 0 0 0 0 0 0 0 127 0" result="hardAlpha"/>
<feOffset dy="1.04167"/>
<feGaussianBlur stdDeviation="3.125"/>
<feColorMatrix type="matrix" values="0 0 0 0 0 0 0 0 0 0 0 0 0 0 0 0 0 0 0.12 0"/>
<feBlend mode="plus-darker" in2="BackgroundImageFix" result="effect1_dropShadow_366_9800"/>
<feBlend mode="normal" in="SourceGraphic" in2="effect1_dropShadow_366_9800" result="shape"/>
</filter>
<linearGradient id="paint0_linear_366_9800" x1="122.917" y1="122.917" x2="-51.5238" y2="31.9277" gradientUnits="userSpaceOnUse">
<stop stop-color="#61B82B"/>
<stop offset="1" stop-color="#399500"/>
</linearGradient>
<linearGradient id="paint1_linear_366_9800" x1="50" y1="-6.39143" x2="50" y2="105.635" gradientUnits="userSpaceOnUse">
<stop stop-color="white"/>
<stop offset="1" stop-color="white" stop-opacity="0"/>
</linearGradient>
<radialGradient id="paint2_radial_366_9800" cx="0" cy="0" r="1" gradientUnits="userSpaceOnUse" gradientTransform="translate(50 25.7865) rotate(90) scale(73.89 56.0618)">
<stop stop-color="white"/>
<stop offset="1" stop-color="white" stop-opacity="0"/>
</radialGradient>
<linearGradient id="paint3_linear_366_9800" x1="122.917" y1="122.917" x2="-51.5238" y2="31.9277" gradientUnits="userSpaceOnUse">
<stop stop-color="#61B82B"/>
<stop offset="1" stop-color="#399500"/>
</linearGradient>
<linearGradient id="paint4_linear_366_9800" x1="50" y1="-6.39143" x2="50" y2="105.635" gradientUnits="userSpaceOnUse">
<stop stop-color="white"/>
<stop offset="1" stop-color="white" stop-opacity="0"/>
</linearGradient>
<radialGradient id="paint5_radial_366_9800" cx="0" cy="0" r="1" gradientUnits="userSpaceOnUse" gradientTransform="translate(50 25.7865) rotate(90) scale(73.89 56.0618)">
<stop stop-color="white"/>
<stop offset="1" stop-color="white" stop-opacity="0"/>
</radialGradient>
<linearGradient id="paint6_linear_366_9800" x1="-22.9167" y1="-22.9167" x2="-22.9167" y2="122.917" gradientUnits="userSpaceOnUse">
<stop offset="0.135095" stop-color="white"/>
<stop offset="0.877908" stop-color="white" stop-opacity="0.01"/>
</linearGradient>
<linearGradient id="paint7_linear_366_9800" x1="50" y1="0" x2="50" y2="100" gradientUnits="userSpaceOnUse">
<stop stop-color="white"/>
<stop offset="1" stop-color="#999999"/>
</linearGradient>
<linearGradient id="paint8_linear_366_9800" x1="50" y1="33.3333" x2="50" y2="66.3333" gradientUnits="userSpaceOnUse">
<stop stop-color="#DFDFDF"/>
<stop offset="1" stop-color="#A9A9A9"/>
</linearGradient>
</defs>
</svg>
