<svg width="100" height="100" viewBox="0 0 100 100" fill="none" xmlns="http://www.w3.org/2000/svg">
<mask id="mask0_366_9813" style="mask-type:alpha" maskUnits="userSpaceOnUse" x="0" y="0" width="100" height="100">
<circle cx="50" cy="50" r="50" fill="white"/>
</mask>
<g mask="url(#mask0_366_9813)">
<mask id="mask1_366_9813" style="mask-type:alpha" maskUnits="userSpaceOnUse" x="0" y="0" width="100" height="100">
<circle cx="50" cy="50" r="50" fill="white"/>
</mask>
<g mask="url(#mask1_366_9813)">
<rect x="-22.9167" y="-22.9167" width="145.833" height="145.833" fill="url(#paint0_linear_366_9813)"/>
<rect x="-22.9167" y="-22.9167" width="145.833" height="145.833" fill="url(#paint1_linear_366_9813)" fill-opacity="0.6" style="mix-blend-mode:overlay"/>
<rect x="-22.9167" y="-22.9167" width="145.833" height="145.833" fill="url(#paint2_radial_366_9813)" fill-opacity="0.6" style="mix-blend-mode:overlay"/>
<rect x="-22.9167" y="-22.9167" width="145.833" height="145.833" fill="black" fill-opacity="0.16" style="mix-blend-mode:overlay"/>
<rect x="-22.9167" y="-22.9167" width="145.833" height="145.833" fill="black" fill-opacity="0.12" style="mix-blend-mode:darken"/>
</g>
<g filter="url(#filter0_d_366_9813)">
<mask id="mask2_366_9813" style="mask-type:alpha" maskUnits="userSpaceOnUse" x="0" y="0" width="100" height="100">
<path fill-rule="evenodd" clip-rule="evenodd" d="M95.8333 50C95.8333 75.313 75.313 95.8333 50 95.8333C24.6869 95.8333 4.16667 75.313 4.16667 50C4.16667 24.6869 24.6869 4.16667 50 4.16667C75.313 4.16667 95.8333 24.6869 95.8333 50ZM100 50C100 77.6142 77.6142 100 50 100C22.3858 100 0 77.6142 0 50C0 22.3858 22.3858 0 50 0C77.6142 0 100 22.3858 100 50ZM50 88.0208C70.9983 88.0208 88.0208 70.9983 88.0208 50C88.0208 29.0017 70.9983 11.9792 50 11.9792C29.0017 11.9792 11.9792 29.0017 11.9792 50C11.9792 70.9983 29.0017 88.0208 50 88.0208Z" fill="white"/>
</mask>
<g mask="url(#mask2_366_9813)">
<rect x="-22.9167" y="-22.9167" width="145.833" height="145.833" fill="url(#paint3_linear_366_9813)"/>
<rect x="-22.9167" y="-22.9167" width="145.833" height="145.833" fill="url(#paint4_linear_366_9813)" fill-opacity="0.6" style="mix-blend-mode:overlay"/>
<rect x="-22.9167" y="-22.9167" width="145.833" height="145.833" fill="url(#paint5_radial_366_9813)" fill-opacity="0.6" style="mix-blend-mode:overlay"/>
<g style="mix-blend-mode:soft-light">
<path fill-rule="evenodd" clip-rule="evenodd" d="M-22.9167 -22.9167H64.5833L36.6578 122.917H-22.9167V-22.9167Z" fill="url(#paint6_linear_366_9813)" style="mix-blend-mode:lighten"/>
</g>
<g style="mix-blend-mode:soft-light">
<mask id="path-10-inside-1_366_9813" fill="white">
<path fill-rule="evenodd" clip-rule="evenodd" d="M95.8333 50C95.8333 75.313 75.313 95.8333 50 95.8333C24.6869 95.8333 4.16667 75.313 4.16667 50C4.16667 24.6869 24.6869 4.16667 50 4.16667C75.313 4.16667 95.8333 24.6869 95.8333 50ZM100 50C100 77.6142 77.6142 100 50 100C22.3858 100 0 77.6142 0 50C0 22.3858 22.3858 0 50 0C77.6142 0 100 22.3858 100 50ZM50 88.0208C70.9983 88.0208 88.0208 70.9983 88.0208 50C88.0208 29.0017 70.9983 11.9792 50 11.9792C29.0017 11.9792 11.9792 29.0017 11.9792 50C11.9792 70.9983 29.0017 88.0208 50 88.0208Z"/>
</mask>
<path d="M50 96.0938C75.4569 96.0938 96.0938 75.4569 96.0938 50H95.5729C95.5729 75.1692 75.1692 95.5729 50 95.5729V96.0938ZM3.90625 50C3.90625 75.4569 24.5431 96.0938 50 96.0938V95.5729C24.8308 95.5729 4.42708 75.1692 4.42708 50H3.90625ZM50 3.90625C24.5431 3.90625 3.90625 24.5431 3.90625 50H4.42708C4.42708 24.8308 24.8308 4.42708 50 4.42708V3.90625ZM96.0938 50C96.0938 24.5431 75.4569 3.90625 50 3.90625V4.42708C75.1692 4.42708 95.5729 24.8308 95.5729 50H96.0938ZM50 100.26C77.7581 100.26 100.26 77.7581 100.26 50H99.7396C99.7396 77.4704 77.4704 99.7396 50 99.7396V100.26ZM-0.260417 50C-0.260417 77.7581 22.2419 100.26 50 100.26V99.7396C22.5296 99.7396 0.260417 77.4704 0.260417 50H-0.260417ZM50 -0.260417C22.2419 -0.260417 -0.260417 22.2419 -0.260417 50H0.260417C0.260417 22.5296 22.5296 0.260417 50 0.260417V-0.260417ZM100.26 50C100.26 22.2419 77.7581 -0.260417 50 -0.260417V0.260417C77.4704 0.260417 99.7396 22.5296 99.7396 50H100.26ZM87.7604 50C87.7604 70.8545 70.8545 87.7604 50 87.7604V88.2812C71.1421 88.2812 88.2812 71.1421 88.2812 50H87.7604ZM50 12.2396C70.8545 12.2396 87.7604 29.1455 87.7604 50H88.2812C88.2812 28.8578 71.1421 11.7188 50 11.7188V12.2396ZM12.2396 50C12.2396 29.1455 29.1455 12.2396 50 12.2396V11.7188C28.8578 11.7188 11.7188 28.8578 11.7188 50H12.2396ZM50 87.7604C29.1455 87.7604 12.2396 70.8545 12.2396 50H11.7188C11.7188 71.1421 28.8578 88.2812 50 88.2812V87.7604Z" fill="url(#paint7_linear_366_9813)" mask="url(#path-10-inside-1_366_9813)"/>
</g>
</g>
</g>
</g>
<g filter="url(#filter1_d_366_9813)">
<mask id="path-12-outside-2_366_9813" maskUnits="userSpaceOnUse" x="34.3333" y="36.3333" width="32" height="27" fill="black">
<rect fill="white" x="34.3333" y="36.3333" width="32" height="27"/>
<path d="M36.1946 62.5333C35.5724 62.5333 35.2613 62.2 35.2613 61.5333L34.8946 39.3C34.8724 38.5222 35.0835 37.9555 35.528 37.6C35.9724 37.2222 36.5391 37.0111 37.228 36.9666C42.7391 36.5 46.8724 36.9666 49.628 38.3666C52.3835 39.7444 53.7613 41.9444 53.7613 44.9666C53.7613 45.7 53.6502 46.4 53.428 47.0666C53.2058 47.7111 52.8835 48.3 52.4613 48.8333C52.0391 49.3666 51.5391 49.8222 50.9613 50.2C50.3835 50.5778 49.7502 50.8444 49.0613 51C49.728 51.1333 50.328 51.3555 50.8613 51.6666C51.4169 51.9778 51.8835 52.3444 52.2613 52.7666C52.6391 53.1889 52.928 53.6444 53.128 54.1333C53.328 54.6222 53.428 55.1111 53.428 55.6C53.428 56.6889 53.1724 57.6666 52.6613 58.5333C52.1502 59.4 51.3724 60.1333 50.328 60.7333C49.3058 61.3333 47.9946 61.7889 46.3946 62.1C44.8169 62.4333 42.9613 62.5889 40.828 62.5666L36.1946 62.5333ZM40.7613 48.4666H42.828C43.6058 48.4666 44.3169 48.4 44.9613 48.2666C45.628 48.1111 46.1946 47.9 46.6613 47.6333C47.1502 47.3666 47.528 47.0444 47.7946 46.6666C48.0613 46.2666 48.1946 45.8222 48.1946 45.3333C48.1946 44.2 47.5391 43.3666 46.228 42.8333C44.9391 42.3 43.128 42.1889 40.7946 42.5L40.7613 48.4666ZM40.5613 58.6333H42.9946C44.4835 58.6333 45.6613 58.3444 46.528 57.7666C47.4169 57.1666 47.8613 56.3889 47.8613 55.4333C47.8613 54.9444 47.728 54.5222 47.4613 54.1666C47.2169 53.7889 46.8724 53.4778 46.428 53.2333C45.9835 52.9889 45.4502 52.8111 44.828 52.7C44.228 52.5666 43.5613 52.5 42.828 52.5H40.628L40.5613 58.6333ZM60.5022 62.2C59.8355 62.2 59.5022 61.8666 59.5022 61.2L59.2022 42.7L56.4355 42.8C56.08 42.8 55.7911 42.7 55.5689 42.5C55.3689 42.2778 55.2689 41.9889 55.2689 41.6333V38.3C55.2689 37.9444 55.3689 37.6666 55.5689 37.4666C55.7911 37.2444 56.08 37.1333 56.4355 37.1333L63.9689 37.2333C64.3244 37.2333 64.6022 37.3444 64.8022 37.5666C65.0244 37.7666 65.1355 38.0444 65.1355 38.4L64.7689 61.2C64.7689 61.8666 64.4355 62.2 63.7689 62.2H60.5022Z"/>
</mask>
<path d="M36.1946 62.5333C35.5724 62.5333 35.2613 62.2 35.2613 61.5333L34.8946 39.3C34.8724 38.5222 35.0835 37.9555 35.528 37.6C35.9724 37.2222 36.5391 37.0111 37.228 36.9666C42.7391 36.5 46.8724 36.9666 49.628 38.3666C52.3835 39.7444 53.7613 41.9444 53.7613 44.9666C53.7613 45.7 53.6502 46.4 53.428 47.0666C53.2058 47.7111 52.8835 48.3 52.4613 48.8333C52.0391 49.3666 51.5391 49.8222 50.9613 50.2C50.3835 50.5778 49.7502 50.8444 49.0613 51C49.728 51.1333 50.328 51.3555 50.8613 51.6666C51.4169 51.9778 51.8835 52.3444 52.2613 52.7666C52.6391 53.1889 52.928 53.6444 53.128 54.1333C53.328 54.6222 53.428 55.1111 53.428 55.6C53.428 56.6889 53.1724 57.6666 52.6613 58.5333C52.1502 59.4 51.3724 60.1333 50.328 60.7333C49.3058 61.3333 47.9946 61.7889 46.3946 62.1C44.8169 62.4333 42.9613 62.5889 40.828 62.5666L36.1946 62.5333ZM40.7613 48.4666H42.828C43.6058 48.4666 44.3169 48.4 44.9613 48.2666C45.628 48.1111 46.1946 47.9 46.6613 47.6333C47.1502 47.3666 47.528 47.0444 47.7946 46.6666C48.0613 46.2666 48.1946 45.8222 48.1946 45.3333C48.1946 44.2 47.5391 43.3666 46.228 42.8333C44.9391 42.3 43.128 42.1889 40.7946 42.5L40.7613 48.4666ZM40.5613 58.6333H42.9946C44.4835 58.6333 45.6613 58.3444 46.528 57.7666C47.4169 57.1666 47.8613 56.3889 47.8613 55.4333C47.8613 54.9444 47.728 54.5222 47.4613 54.1666C47.2169 53.7889 46.8724 53.4778 46.428 53.2333C45.9835 52.9889 45.4502 52.8111 44.828 52.7C44.228 52.5666 43.5613 52.5 42.828 52.5H40.628L40.5613 58.6333ZM60.5022 62.2C59.8355 62.2 59.5022 61.8666 59.5022 61.2L59.2022 42.7L56.4355 42.8C56.08 42.8 55.7911 42.7 55.5689 42.5C55.3689 42.2778 55.2689 41.9889 55.2689 41.6333V38.3C55.2689 37.9444 55.3689 37.6666 55.5689 37.4666C55.7911 37.2444 56.08 37.1333 56.4355 37.1333L63.9689 37.2333C64.3244 37.2333 64.6022 37.3444 64.8022 37.5666C65.0244 37.7666 65.1355 38.0444 65.1355 38.4L64.7689 61.2C64.7689 61.8666 64.4355 62.2 63.7689 62.2H60.5022Z" fill="white"/>
<path d="M36.1946 62.5333L36.1965 62.2729H36.1946V62.5333ZM35.2613 61.5333H35.5218L35.5217 61.529L35.2613 61.5333ZM34.8946 39.3L35.155 39.2957L35.155 39.2925L34.8946 39.3ZM35.528 37.6L35.6907 37.8034L35.6966 37.7984L35.528 37.6ZM37.228 36.9666L37.2447 37.2266L37.2499 37.2261L37.228 36.9666ZM49.628 38.3666L49.51 38.5988L49.5115 38.5996L49.628 38.3666ZM53.428 47.0666L53.6742 47.1515L53.675 47.149L53.428 47.0666ZM52.4613 48.8333L52.2571 48.6717L52.4613 48.8333ZM50.9613 50.2L51.1038 50.4179L50.9613 50.2ZM49.0613 51L49.0039 50.746L49.0102 51.2553L49.0613 51ZM50.8613 51.6666L50.7301 51.8916L50.7341 51.8939L50.8613 51.6666ZM52.2613 52.7666L52.4554 52.593L52.2613 52.7666ZM50.328 60.7333L50.1982 60.5075L50.1962 60.5087L50.328 60.7333ZM46.3946 62.1L46.3449 61.8443L46.3408 61.8452L46.3946 62.1ZM40.828 62.5666L40.8307 62.3062L40.8298 62.3062L40.828 62.5666ZM40.7613 48.4666L40.5009 48.4652L40.4994 48.7271H40.7613V48.4666ZM44.9613 48.2666L45.0141 48.5217L45.0205 48.5203L44.9613 48.2666ZM46.6613 47.6333L46.5366 47.4046L46.5321 47.4072L46.6613 47.6333ZM47.7946 46.6666L48.0075 46.8169L48.0113 46.8111L47.7946 46.6666ZM46.228 42.8333L46.1284 43.0739L46.1299 43.0745L46.228 42.8333ZM40.7946 42.5L40.7602 42.2418L40.5355 42.2718L40.5342 42.4985L40.7946 42.5ZM40.5613 58.6333L40.3009 58.6305L40.298 58.8937H40.5613V58.6333ZM46.528 57.7666L46.6724 57.9833L46.6737 57.9825L46.528 57.7666ZM47.4613 54.1666L47.2427 54.3081L47.2476 54.3157L47.253 54.3229L47.4613 54.1666ZM46.428 53.2333L46.3025 53.4615L46.428 53.2333ZM44.828 52.7L44.7714 52.9544L44.7822 52.9563L44.828 52.7ZM40.628 52.5V52.2396H40.3704L40.3676 52.4971L40.628 52.5ZM36.1946 62.2729C35.9285 62.2729 35.7754 62.2024 35.685 62.1056C35.5915 62.0054 35.5217 61.8308 35.5217 61.5333H35.0009C35.0009 61.9025 35.0867 62.2279 35.3043 62.461C35.525 62.6975 35.8386 62.7937 36.1946 62.7937V62.2729ZM35.5217 61.529L35.155 39.2957L34.6343 39.3043L35.0009 61.5376L35.5217 61.529ZM35.155 39.2925C35.1341 38.5643 35.3316 38.0906 35.6907 37.8033L35.3653 37.3966C34.8355 37.8205 34.6107 38.4801 34.6343 39.3074L35.155 39.2925ZM35.6966 37.7984C36.0909 37.4632 36.6012 37.268 37.2447 37.2265L37.2112 36.7068C36.477 36.7541 35.8539 36.9812 35.3593 37.4016L35.6966 37.7984ZM37.2499 37.2261C42.7457 36.7608 46.8198 37.232 49.51 38.5988L49.7459 38.1345C46.925 36.7013 42.7324 36.2392 37.206 36.7072L37.2499 37.2261ZM49.5115 38.5996C50.8546 39.2711 51.8482 40.1358 52.5073 41.1882C53.1662 42.2403 53.5009 43.4962 53.5009 44.9666H54.0217C54.0217 43.4148 53.6675 42.0596 52.9487 40.9118C52.23 39.7642 51.1569 38.84 49.7444 38.1337L49.5115 38.5996ZM53.5009 44.9666C53.5009 45.6732 53.3939 46.3453 53.1809 46.9843L53.675 47.149C53.9065 46.4546 54.0217 45.7267 54.0217 44.9666H53.5009ZM53.1818 46.9818C52.9691 47.5985 52.6611 48.1614 52.2571 48.6717L52.6655 48.995C53.106 48.4385 53.4424 47.8237 53.6742 47.1515L53.1818 46.9818ZM52.2571 48.6717C51.8526 49.1827 51.3735 49.6193 50.8188 49.982L51.1038 50.4179C51.7047 50.0251 52.2256 49.5506 52.6655 48.995L52.2571 48.6717ZM50.8188 49.982C50.2676 50.3424 49.6632 50.5971 49.0039 50.746L49.1187 51.254C49.8372 51.0918 50.4994 50.8131 51.1038 50.4179L50.8188 49.982ZM49.0102 51.2553C49.6515 51.3836 50.224 51.5964 50.7301 51.8916L50.9925 51.4417C50.432 51.1147 49.8044 50.883 49.1124 50.7446L49.0102 51.2553ZM50.7341 51.8939C51.2676 52.1926 51.7108 52.542 52.0672 52.9403L52.4554 52.593C52.0562 52.1469 51.5661 51.7629 50.9885 51.4394L50.7341 51.8939ZM52.0672 52.9403C52.4266 53.342 52.699 53.7725 52.8869 54.2319L53.369 54.0347C53.157 53.5164 52.8515 53.0358 52.4554 52.593L52.0672 52.9403ZM52.8869 54.2319C53.0752 54.692 53.1676 55.1475 53.1676 55.6H53.6884C53.6884 55.0746 53.5808 54.5524 53.369 54.0347L52.8869 54.2319ZM53.1676 55.6C53.1676 56.6463 52.9225 57.5777 52.437 58.401L52.8856 58.6656C53.4223 57.7556 53.6884 56.7314 53.6884 55.6H53.1676ZM52.437 58.401C51.9529 59.2219 51.2113 59.9255 50.1983 60.5075L50.4577 60.9591C51.5335 60.3411 52.3475 59.5781 52.8856 58.6656L52.437 58.401ZM50.1962 60.5087C49.2069 61.0894 47.9261 61.5369 46.3449 61.8444L46.4443 62.3556C48.0632 62.0408 49.4046 61.5773 50.4598 60.9579L50.1962 60.5087ZM46.3408 61.8452C44.7865 62.1736 42.9507 62.3283 40.8307 62.3062L40.8253 62.827C42.9719 62.8494 44.8473 62.6931 46.4485 62.3548L46.3408 61.8452ZM40.8298 62.3062L36.1965 62.2729L36.1928 62.7937L40.8261 62.8271L40.8298 62.3062ZM40.7613 48.7271H42.828V48.2062H40.7613V48.7271ZM42.828 48.7271C43.6204 48.7271 44.3495 48.6592 45.0141 48.5217L44.9085 48.0116C44.2843 48.1408 43.5911 48.2062 42.828 48.2062V48.7271ZM45.0205 48.5203C45.7053 48.3605 46.2969 48.1415 46.7905 47.8594L46.5321 47.4072C46.0924 47.6585 45.5506 47.8617 44.9021 48.013L45.0205 48.5203ZM46.786 47.8619C47.3028 47.58 47.7135 47.2331 48.0074 46.8168L47.5819 46.5165C47.3424 46.8557 46.9976 47.1533 46.5366 47.4047L46.786 47.8619ZM48.0113 46.8111C48.307 46.3676 48.4551 45.8727 48.4551 45.3333H47.9342C47.9342 45.7717 47.8156 46.1657 47.578 46.5222L48.0113 46.8111ZM48.4551 45.3333C48.4551 44.7126 48.2741 44.1631 47.9076 43.6973C47.5441 43.2351 47.01 42.8703 46.3261 42.5921L46.1299 43.0745C46.7571 43.3297 47.2063 43.6481 47.4983 44.0193C47.7874 44.3868 47.9342 44.8207 47.9342 45.3333H48.4551ZM46.3275 42.5927C44.9764 42.0336 43.1114 41.9284 40.7602 42.2418L40.8291 42.7581C43.1445 42.4494 44.9017 42.5664 46.1284 43.0739L46.3275 42.5927ZM40.5342 42.4985L40.5009 48.4652L41.0217 48.4681L41.0551 42.5014L40.5342 42.4985ZM40.5613 58.8937H42.9946V58.3729H40.5613V58.8937ZM42.9946 58.8937C44.5138 58.8937 45.7483 58.5994 46.6724 57.9833L46.3835 57.55C45.5743 58.0894 44.4532 58.3729 42.9946 58.3729V58.8937ZM46.6737 57.9825C47.624 57.341 48.1217 56.4871 48.1217 55.4333H47.6009C47.6009 56.2906 47.2097 56.9923 46.3823 57.5508L46.6737 57.9825ZM48.1217 55.4333C48.1217 54.894 47.9735 54.4156 47.6696 54.0104L47.253 54.3229C47.4824 54.6288 47.6009 54.9948 47.6009 55.4333H48.1217ZM47.6799 54.0252C47.4093 53.6068 47.0308 53.2677 46.5535 53.0051L46.3025 53.4615C46.7141 53.6879 47.0245 53.9709 47.2427 54.3081L47.6799 54.0252ZM46.5535 53.0051C46.0789 52.7441 45.5173 52.5585 44.8738 52.4436L44.7822 52.9563C45.3831 53.0636 45.8881 53.2336 46.3025 53.4615L46.5535 53.0051ZM44.8845 52.4458C44.2628 52.3076 43.5768 52.2396 42.828 52.2396V52.7604C43.5458 52.7604 44.1932 52.8257 44.7715 52.9542L44.8845 52.4458ZM42.828 52.2396H40.628V52.7604H42.828V52.2396ZM40.3676 52.4971L40.3009 58.6305L40.8217 58.6361L40.8884 52.5028L40.3676 52.4971ZM59.5022 61.2H59.7626L59.7626 61.1958L59.5022 61.2ZM59.2022 42.7L59.4626 42.6958L59.4583 42.4301L59.1928 42.4397L59.2022 42.7ZM56.4355 42.8V43.0606L56.4449 43.0602L56.4355 42.8ZM55.5689 42.5L55.3753 42.6742L55.3845 42.6844L55.3946 42.6935L55.5689 42.5ZM55.5689 37.4666L55.3847 37.2825L55.5689 37.4666ZM56.4355 37.1333L56.439 36.8729H56.4355V37.1333ZM63.9689 37.2333L63.9654 37.4937H63.9689V37.2333ZM64.8022 37.5666L64.6086 37.7409L64.6178 37.751L64.628 37.7602L64.8022 37.5666ZM65.1355 38.4L65.3959 38.4042V38.4H65.1355ZM64.7689 61.2L64.5084 61.1958V61.2H64.7689ZM60.5022 61.9396C60.209 61.9396 60.0369 61.8664 59.9363 61.7658C59.8357 61.6652 59.7626 61.4932 59.7626 61.2H59.2418C59.2418 61.5735 59.3353 61.9014 59.5681 62.1341C59.8008 62.3669 60.1287 62.4604 60.5022 62.4604V61.9396ZM59.7626 61.1958L59.4626 42.6958L58.9418 42.7042L59.2418 61.2042L59.7626 61.1958ZM59.1928 42.4397L56.4261 42.5397L56.4449 43.0602L59.2116 42.9602L59.1928 42.4397ZM56.4355 42.5396C56.1314 42.5396 55.9087 42.4555 55.7431 42.3064L55.3946 42.6935C55.6735 42.9445 56.0285 43.0604 56.4355 43.0604V42.5396ZM55.7624 42.3258C55.6134 42.1601 55.5293 41.9374 55.5293 41.6333H55.0084C55.0084 42.0403 55.1244 42.3954 55.3753 42.6742L55.7624 42.3258ZM55.5293 41.6333V38.3H55.0084V41.6333H55.5293ZM55.5293 38.3C55.5293 37.9948 55.6137 37.7901 55.753 37.6508L55.3847 37.2825C55.1241 37.5432 55.0084 37.8941 55.0084 38.3H55.5293ZM55.753 37.6508C55.9198 37.484 56.1391 37.3937 56.4355 37.3937V36.8729C56.0208 36.8729 55.6623 37.0049 55.3847 37.2825L55.753 37.6508ZM56.4321 37.3937L63.9654 37.4937L63.9723 36.9729L56.439 36.8729L56.4321 37.3937ZM63.9689 37.4937C64.2658 37.4937 64.4674 37.5839 64.6086 37.7409L64.9958 37.3924C64.737 37.1049 64.383 36.9729 63.9689 36.9729V37.4937ZM64.628 37.7602C64.7849 37.9015 64.8751 38.103 64.8751 38.4H65.3959C65.3959 37.9859 65.2639 37.6318 64.9764 37.3731L64.628 37.7602ZM64.8751 38.3958L64.5085 61.1958L65.0292 61.2042L65.3959 38.4042L64.8751 38.3958ZM64.5084 61.2C64.5084 61.4932 64.4353 61.6652 64.3347 61.7658C64.2341 61.8664 64.062 61.9396 63.7689 61.9396V62.4604C64.1423 62.4604 64.4703 62.3669 64.703 62.1341C64.9357 61.9014 65.0293 61.5735 65.0293 61.2H64.5084ZM63.7689 61.9396H60.5022V62.4604H63.7689V61.9396Z" fill="url(#paint8_linear_366_9813)" style="mix-blend-mode:color-burn" mask="url(#path-12-outside-2_366_9813)"/>
</g>
<defs>
<filter id="filter0_d_366_9813" x="-4.16667" y="-3.125" width="108.333" height="108.333" filterUnits="userSpaceOnUse" color-interpolation-filters="sRGB">
<feFlood flood-opacity="0" result="BackgroundImageFix"/>
<feColorMatrix in="SourceAlpha" type="matrix" values="0 0 0 0 0 0 0 0 0 0 0 0 0 0 0 0 0 0 127 0" result="hardAlpha"/>
<feOffset dy="1.04167"/>
<feGaussianBlur stdDeviation="2.08333"/>
<feColorMatrix type="matrix" values="0 0 0 0 0 0 0 0 0 0 0 0 0 0 0 0 0 0 0.16 0"/>
<feBlend mode="color-burn" in2="BackgroundImageFix" result="effect1_dropShadow_366_9813"/>
<feBlend mode="normal" in="SourceGraphic" in2="effect1_dropShadow_366_9813" result="shape"/>
</filter>
<filter id="filter1_d_366_9813" x="28.3826" y="31.3229" width="43.2633" height="38.798" filterUnits="userSpaceOnUse" color-interpolation-filters="sRGB">
<feFlood flood-opacity="0" result="BackgroundImageFix"/>
<feColorMatrix in="SourceAlpha" type="matrix" values="0 0 0 0 0 0 0 0 0 0 0 0 0 0 0 0 0 0 127 0" result="hardAlpha"/>
<feOffset dy="1.04167"/>
<feGaussianBlur stdDeviation="3.125"/>
<feColorMatrix type="matrix" values="0 0 0 0 0 0 0 0 0 0 0 0 0 0 0 0 0 0 0.12 0"/>
<feBlend mode="plus-darker" in2="BackgroundImageFix" result="effect1_dropShadow_366_9813"/>
<feBlend mode="normal" in="SourceGraphic" in2="effect1_dropShadow_366_9813" result="shape"/>
</filter>
<linearGradient id="paint0_linear_366_9813" x1="-22.9167" y1="-22.9167" x2="151.524" y2="68.0723" gradientUnits="userSpaceOnUse">
<stop stop-color="#3D75EE"/>
<stop offset="1" stop-color="#5785E8"/>
</linearGradient>
<linearGradient id="paint1_linear_366_9813" x1="50" y1="-6.39146" x2="50" y2="105.635" gradientUnits="userSpaceOnUse">
<stop stop-color="white"/>
<stop offset="1" stop-color="white" stop-opacity="0"/>
</linearGradient>
<radialGradient id="paint2_radial_366_9813" cx="0" cy="0" r="1" gradientUnits="userSpaceOnUse" gradientTransform="translate(50 25.7865) rotate(90) scale(73.89 56.0618)">
<stop stop-color="white"/>
<stop offset="1" stop-color="white" stop-opacity="0"/>
</radialGradient>
<linearGradient id="paint3_linear_366_9813" x1="-22.9167" y1="-22.9167" x2="151.524" y2="68.0723" gradientUnits="userSpaceOnUse">
<stop stop-color="#3D75EE"/>
<stop offset="1" stop-color="#5785E8"/>
</linearGradient>
<linearGradient id="paint4_linear_366_9813" x1="50" y1="-6.39146" x2="50" y2="105.635" gradientUnits="userSpaceOnUse">
<stop stop-color="white"/>
<stop offset="1" stop-color="white" stop-opacity="0"/>
</linearGradient>
<radialGradient id="paint5_radial_366_9813" cx="0" cy="0" r="1" gradientUnits="userSpaceOnUse" gradientTransform="translate(50 25.7865) rotate(90) scale(73.89 56.0618)">
<stop stop-color="white"/>
<stop offset="1" stop-color="white" stop-opacity="0"/>
</radialGradient>
<linearGradient id="paint6_linear_366_9813" x1="-22.9167" y1="-22.9167" x2="-22.9167" y2="122.917" gradientUnits="userSpaceOnUse">
<stop offset="0.135095" stop-color="white"/>
<stop offset="0.877908" stop-color="white" stop-opacity="0.01"/>
</linearGradient>
<linearGradient id="paint7_linear_366_9813" x1="50" y1="0" x2="50" y2="100" gradientUnits="userSpaceOnUse">
<stop stop-color="white"/>
<stop offset="1" stop-color="#999999"/>
</linearGradient>
<linearGradient id="paint8_linear_366_9813" x1="50" y1="33.3333" x2="50" y2="66.3333" gradientUnits="userSpaceOnUse">
<stop stop-color="#DFDFDF"/>
<stop offset="1" stop-color="#A9A9A9"/>
</linearGradient>
</defs>
</svg>
