<svg width="100" height="100" viewBox="0 0 100 100" fill="none" xmlns="http://www.w3.org/2000/svg">
<mask id="mask0_366_9794" style="mask-type:alpha" maskUnits="userSpaceOnUse" x="0" y="0" width="100" height="100">
<circle cx="50" cy="50" r="50" fill="white"/>
</mask>
<g mask="url(#mask0_366_9794)">
<mask id="mask1_366_9794" style="mask-type:alpha" maskUnits="userSpaceOnUse" x="0" y="0" width="100" height="100">
<circle cx="50" cy="50" r="50" fill="white"/>
</mask>
<g mask="url(#mask1_366_9794)">
<rect x="-22.9167" y="-22.9167" width="145.833" height="145.833" fill="url(#paint0_linear_366_9794)"/>
<rect x="-22.9167" y="-22.9167" width="145.833" height="145.833" fill="url(#paint1_linear_366_9794)" fill-opacity="0.6" style="mix-blend-mode:overlay"/>
<rect x="-22.9167" y="-22.9167" width="145.833" height="145.833" fill="url(#paint2_radial_366_9794)" fill-opacity="0.6" style="mix-blend-mode:overlay"/>
<rect x="-22.9167" y="-22.9167" width="145.833" height="145.833" fill="black" fill-opacity="0.16" style="mix-blend-mode:overlay"/>
<rect x="-22.9167" y="-22.9167" width="145.833" height="145.833" fill="black" fill-opacity="0.12" style="mix-blend-mode:darken"/>
</g>
<g filter="url(#filter0_d_366_9794)">
<mask id="mask2_366_9794" style="mask-type:alpha" maskUnits="userSpaceOnUse" x="0" y="0" width="100" height="100">
<path fill-rule="evenodd" clip-rule="evenodd" d="M95.8333 50C95.8333 75.313 75.313 95.8333 50 95.8333C24.6869 95.8333 4.16667 75.313 4.16667 50C4.16667 24.6869 24.6869 4.16667 50 4.16667C75.313 4.16667 95.8333 24.6869 95.8333 50ZM100 50C100 77.6142 77.6142 100 50 100C22.3858 100 0 77.6142 0 50C0 22.3858 22.3858 0 50 0C77.6142 0 100 22.3858 100 50ZM50 88.0208C70.9983 88.0208 88.0208 70.9983 88.0208 50C88.0208 29.0017 70.9983 11.9792 50 11.9792C29.0017 11.9792 11.9792 29.0017 11.9792 50C11.9792 70.9983 29.0017 88.0208 50 88.0208Z" fill="white"/>
</mask>
<g mask="url(#mask2_366_9794)">
<rect x="-22.9167" y="-22.9167" width="145.833" height="145.833" fill="url(#paint3_linear_366_9794)"/>
<rect x="-22.9167" y="-22.9167" width="145.833" height="145.833" fill="url(#paint4_linear_366_9794)" fill-opacity="0.6" style="mix-blend-mode:overlay"/>
<rect x="-22.9167" y="-22.9167" width="145.833" height="145.833" fill="url(#paint5_radial_366_9794)" fill-opacity="0.6" style="mix-blend-mode:overlay"/>
<g style="mix-blend-mode:soft-light">
<path fill-rule="evenodd" clip-rule="evenodd" d="M-22.9167 -22.9167H64.5833L36.6578 122.917H-22.9167V-22.9167Z" fill="url(#paint6_linear_366_9794)" style="mix-blend-mode:lighten"/>
</g>
<g style="mix-blend-mode:soft-light">
<mask id="path-10-inside-1_366_9794" fill="white">
<path fill-rule="evenodd" clip-rule="evenodd" d="M95.8333 50C95.8333 75.313 75.313 95.8333 50 95.8333C24.6869 95.8333 4.16667 75.313 4.16667 50C4.16667 24.6869 24.6869 4.16667 50 4.16667C75.313 4.16667 95.8333 24.6869 95.8333 50ZM100 50C100 77.6142 77.6142 100 50 100C22.3858 100 0 77.6142 0 50C0 22.3858 22.3858 0 50 0C77.6142 0 100 22.3858 100 50ZM50 88.0208C70.9983 88.0208 88.0208 70.9983 88.0208 50C88.0208 29.0017 70.9983 11.9792 50 11.9792C29.0017 11.9792 11.9792 29.0017 11.9792 50C11.9792 70.9983 29.0017 88.0208 50 88.0208Z"/>
</mask>
<path d="M50 96.0938C75.4569 96.0938 96.0938 75.4569 96.0938 50H95.5729C95.5729 75.1692 75.1692 95.5729 50 95.5729V96.0938ZM3.90625 50C3.90625 75.4569 24.5431 96.0938 50 96.0938V95.5729C24.8308 95.5729 4.42708 75.1692 4.42708 50H3.90625ZM50 3.90625C24.5431 3.90625 3.90625 24.5431 3.90625 50H4.42708C4.42708 24.8308 24.8308 4.42708 50 4.42708V3.90625ZM96.0938 50C96.0938 24.5431 75.4569 3.90625 50 3.90625V4.42708C75.1692 4.42708 95.5729 24.8308 95.5729 50H96.0938ZM50 100.26C77.7581 100.26 100.26 77.7581 100.26 50H99.7396C99.7396 77.4704 77.4704 99.7396 50 99.7396V100.26ZM-0.260417 50C-0.260417 77.7581 22.2419 100.26 50 100.26V99.7396C22.5296 99.7396 0.260417 77.4704 0.260417 50H-0.260417ZM50 -0.260417C22.2419 -0.260417 -0.260417 22.2419 -0.260417 50H0.260417C0.260417 22.5296 22.5296 0.260417 50 0.260417V-0.260417ZM100.26 50C100.26 22.2419 77.7581 -0.260417 50 -0.260417V0.260417C77.4704 0.260417 99.7396 22.5296 99.7396 50H100.26ZM87.7604 50C87.7604 70.8545 70.8545 87.7604 50 87.7604V88.2812C71.1421 88.2812 88.2812 71.1421 88.2812 50H87.7604ZM50 12.2396C70.8545 12.2396 87.7604 29.1455 87.7604 50H88.2812C88.2812 28.8578 71.1421 11.7188 50 11.7188V12.2396ZM12.2396 50C12.2396 29.1455 29.1455 12.2396 50 12.2396V11.7188C28.8578 11.7188 11.7188 28.8578 11.7188 50H12.2396ZM50 87.7604C29.1455 87.7604 12.2396 70.8545 12.2396 50H11.7188C11.7188 71.1421 28.8578 88.2812 50 88.2812V87.7604Z" fill="url(#paint7_linear_366_9794)" mask="url(#path-10-inside-1_366_9794)"/>
</g>
</g>
</g>
</g>
<g filter="url(#filter1_d_366_9794)">
<mask id="path-12-outside-2_366_9794" maskUnits="userSpaceOnUse" x="29.3333" y="36.3333" width="42" height="27" fill="black">
<rect fill="white" x="29.3333" y="36.3333" width="42" height="27"/>
<path d="M38.2984 62.2C37.6318 62.2 37.2984 61.8667 37.2984 61.2L36.9984 42.3667L30.8984 42.3333C30.5429 42.3333 30.254 42.2333 30.0318 42.0333C29.8318 41.8111 29.7318 41.5222 29.7318 41.1667V38.4333C29.7318 38.0778 29.8318 37.8 30.0318 37.6C30.254 37.3778 30.5429 37.2667 30.8984 37.2667L48.9985 37.2333C49.354 37.2333 49.6318 37.3444 49.8318 37.5667C50.054 37.7667 50.1651 38.0444 50.1651 38.4V41.1333C50.1651 41.4889 50.054 41.7778 49.8318 42C49.6318 42.2 49.354 42.3 48.9985 42.3L42.8984 42.3667L42.5651 61.2C42.5651 61.8667 42.2318 62.2 41.5651 62.2H38.2984ZM53.5511 56.2333C53.9733 55.6556 54.4399 55.5667 54.9511 55.9667C55.2622 56.2111 55.6288 56.4333 56.0511 56.6333C56.4733 56.8333 56.9288 57.0111 57.4177 57.1667C57.9066 57.3 58.4066 57.4111 58.9177 57.5C59.4511 57.5889 59.9733 57.6333 60.4844 57.6333C61.0844 57.6333 61.6511 57.5667 62.1844 57.4333C62.7177 57.3 63.1733 57.1111 63.5511 56.8667C63.9511 56.6222 64.2622 56.3222 64.4844 55.9667C64.7066 55.5889 64.8066 55.1778 64.7844 54.7333C64.7399 53.8667 64.3177 53.1889 63.5177 52.7C62.7177 52.2111 61.7066 51.9333 60.4844 51.8667C59.5511 51.8222 58.5844 51.9444 57.5844 52.2333C56.6066 52.5222 55.6511 52.8222 54.7177 53.1333C54.0511 53.3778 53.4733 53.3444 52.9844 53.0333C52.4955 52.7 52.2399 52.2 52.2177 51.5333L52.0177 39.6C51.9955 38.8222 52.2066 38.2444 52.6511 37.8667C53.0955 37.4667 53.6622 37.2667 54.3511 37.2667L68.6511 37.2C69.0066 37.2 69.2844 37.3111 69.4844 37.5333C69.7066 37.7333 69.8177 38.0111 69.8177 38.3667V41.1C69.8177 41.4555 69.7066 41.7444 69.4844 41.9667C69.2844 42.1667 69.0066 42.2667 68.6511 42.2667L58.0511 42.4333V47.5667C58.7177 47.3444 59.4622 47.2111 60.2844 47.1667C61.1066 47.1222 61.9511 47.1556 62.8177 47.2667C63.9511 47.4 64.9733 47.6778 65.8844 48.1C66.8177 48.5 67.6066 49.0222 68.2511 49.6667C68.9177 50.2889 69.4177 51.0222 69.7511 51.8667C70.1066 52.6889 70.2844 53.6 70.2844 54.6C70.2844 55.8444 70.0399 56.9667 69.5511 57.9667C69.0622 58.9444 68.3844 59.7778 67.5177 60.4667C66.6511 61.1556 65.6288 61.6778 64.4511 62.0333C63.2733 62.3889 61.9955 62.5556 60.6177 62.5333C58.9511 62.4889 57.4177 62.1889 56.0177 61.6333C54.6177 61.1 53.4177 60.3667 52.4177 59.4333C52.2177 59.2556 52.0844 59.0556 52.0177 58.8333C51.9511 58.6111 52.0066 58.3667 52.1844 58.1L53.5511 56.2333Z"/>
</mask>
<path d="M38.2984 62.2C37.6318 62.2 37.2984 61.8667 37.2984 61.2L36.9984 42.3667L30.8984 42.3333C30.5429 42.3333 30.254 42.2333 30.0318 42.0333C29.8318 41.8111 29.7318 41.5222 29.7318 41.1667V38.4333C29.7318 38.0778 29.8318 37.8 30.0318 37.6C30.254 37.3778 30.5429 37.2667 30.8984 37.2667L48.9985 37.2333C49.354 37.2333 49.6318 37.3444 49.8318 37.5667C50.054 37.7667 50.1651 38.0444 50.1651 38.4V41.1333C50.1651 41.4889 50.054 41.7778 49.8318 42C49.6318 42.2 49.354 42.3 48.9985 42.3L42.8984 42.3667L42.5651 61.2C42.5651 61.8667 42.2318 62.2 41.5651 62.2H38.2984ZM53.5511 56.2333C53.9733 55.6556 54.4399 55.5667 54.9511 55.9667C55.2622 56.2111 55.6288 56.4333 56.0511 56.6333C56.4733 56.8333 56.9288 57.0111 57.4177 57.1667C57.9066 57.3 58.4066 57.4111 58.9177 57.5C59.4511 57.5889 59.9733 57.6333 60.4844 57.6333C61.0844 57.6333 61.6511 57.5667 62.1844 57.4333C62.7177 57.3 63.1733 57.1111 63.5511 56.8667C63.9511 56.6222 64.2622 56.3222 64.4844 55.9667C64.7066 55.5889 64.8066 55.1778 64.7844 54.7333C64.7399 53.8667 64.3177 53.1889 63.5177 52.7C62.7177 52.2111 61.7066 51.9333 60.4844 51.8667C59.5511 51.8222 58.5844 51.9444 57.5844 52.2333C56.6066 52.5222 55.6511 52.8222 54.7177 53.1333C54.0511 53.3778 53.4733 53.3444 52.9844 53.0333C52.4955 52.7 52.2399 52.2 52.2177 51.5333L52.0177 39.6C51.9955 38.8222 52.2066 38.2444 52.6511 37.8667C53.0955 37.4667 53.6622 37.2667 54.3511 37.2667L68.6511 37.2C69.0066 37.2 69.2844 37.3111 69.4844 37.5333C69.7066 37.7333 69.8177 38.0111 69.8177 38.3667V41.1C69.8177 41.4555 69.7066 41.7444 69.4844 41.9667C69.2844 42.1667 69.0066 42.2667 68.6511 42.2667L58.0511 42.4333V47.5667C58.7177 47.3444 59.4622 47.2111 60.2844 47.1667C61.1066 47.1222 61.9511 47.1556 62.8177 47.2667C63.9511 47.4 64.9733 47.6778 65.8844 48.1C66.8177 48.5 67.6066 49.0222 68.2511 49.6667C68.9177 50.2889 69.4177 51.0222 69.7511 51.8667C70.1066 52.6889 70.2844 53.6 70.2844 54.6C70.2844 55.8444 70.0399 56.9667 69.5511 57.9667C69.0622 58.9444 68.3844 59.7778 67.5177 60.4667C66.6511 61.1556 65.6288 61.6778 64.4511 62.0333C63.2733 62.3889 61.9955 62.5556 60.6177 62.5333C58.9511 62.4889 57.4177 62.1889 56.0177 61.6333C54.6177 61.1 53.4177 60.3667 52.4177 59.4333C52.2177 59.2556 52.0844 59.0556 52.0177 58.8333C51.9511 58.6111 52.0066 58.3667 52.1844 58.1L53.5511 56.2333Z" fill="white"/>
<path d="M37.2985 61.2H37.5589L37.5588 61.1958L37.2985 61.2ZM36.9984 42.3667L37.2588 42.3625L37.2548 42.1076L36.9999 42.1062L36.9984 42.3667ZM30.8984 42.3333L30.8999 42.0729H30.8984V42.3333ZM30.0318 42.0333L29.8382 42.2075L29.8474 42.2177L29.8576 42.2269L30.0318 42.0333ZM30.0318 37.6L29.8476 37.4159L30.0318 37.6ZM30.8984 37.2667V37.5271L30.8989 37.5271L30.8984 37.2667ZM48.9985 37.2333V36.9729L48.998 36.9729L48.9985 37.2333ZM49.8318 37.5667L49.6382 37.7409L49.6474 37.7511L49.6576 37.7602L49.8318 37.5667ZM48.9985 42.3V42.0396L48.9956 42.0396L48.9985 42.3ZM42.8984 42.3667L42.8956 42.1063L42.6426 42.109L42.6381 42.3621L42.8984 42.3667ZM42.5651 61.2L42.3047 61.1954V61.2H42.5651ZM38.2985 61.9396C38.0053 61.9396 37.8332 61.8665 37.7326 61.7659C37.632 61.6652 37.5589 61.4932 37.5589 61.2H37.038C37.038 61.5735 37.1316 61.9014 37.3643 62.1341C37.597 62.3669 37.925 62.4604 38.2985 62.4604V61.9396ZM37.5588 61.1958L37.2588 42.3625L36.7381 42.3708L37.0381 61.2041L37.5588 61.1958ZM36.9999 42.1062L30.8999 42.0729L30.897 42.5937L36.997 42.6271L36.9999 42.1062ZM30.8984 42.0729C30.5944 42.0729 30.3716 41.9888 30.206 41.8398L29.8576 42.2269C30.1364 42.4778 30.4914 42.5937 30.8984 42.5937V42.0729ZM30.2253 41.8591C30.0763 41.6935 29.9922 41.4707 29.9922 41.1667H29.4714C29.4714 41.5737 29.5873 41.9287 29.8382 42.2075L30.2253 41.8591ZM29.9922 41.1667V38.4333H29.4714V41.1667H29.9922ZM29.9922 38.4333C29.9922 38.1281 30.0766 37.9235 30.2159 37.7841L29.8476 37.4159C29.587 37.6765 29.4714 38.0274 29.4714 38.4333H29.9922ZM30.2159 37.7841C30.3827 37.6173 30.6021 37.5271 30.8984 37.5271V37.0062C30.4837 37.0062 30.1253 37.1382 29.8476 37.4159L30.2159 37.7841ZM30.8989 37.5271L48.9989 37.4937L48.998 36.9729L30.898 37.0062L30.8989 37.5271ZM48.9985 37.4937C49.2954 37.4937 49.497 37.5839 49.6382 37.7409L50.0253 37.3925C49.7666 37.105 49.4126 36.9729 48.9985 36.9729V37.4937ZM49.6576 37.7602C49.8145 37.9015 49.9047 38.103 49.9047 38.4H50.4255C50.4255 37.9859 50.2935 37.6318 50.006 37.3731L49.6576 37.7602ZM49.9047 38.4V41.1333H50.4255V38.4H49.9047ZM49.9047 41.1333C49.9047 41.4297 49.8145 41.649 49.6476 41.8159L50.0159 42.1841C50.2936 41.9065 50.4255 41.5481 50.4255 41.1333H49.9047ZM49.6476 41.8159C49.5083 41.9552 49.3037 42.0396 48.9985 42.0396V42.5604C49.4044 42.5604 49.7553 42.4448 50.0159 42.1841L49.6476 41.8159ZM48.9956 42.0396L42.8956 42.1063L42.9013 42.6271L49.0013 42.5604L48.9956 42.0396ZM42.6381 42.3621L42.3047 61.1954L42.8255 61.2046L43.1588 42.3713L42.6381 42.3621ZM42.3047 61.2C42.3047 61.4932 42.2316 61.6652 42.131 61.7659C42.0304 61.8665 41.8583 61.9396 41.5651 61.9396V62.4604C41.9386 62.4604 42.2665 62.3669 42.4993 62.1341C42.732 61.9014 42.8255 61.5735 42.8255 61.2H42.3047ZM41.5651 61.9396H38.2985V62.4604H41.5651V61.9396ZM53.5511 56.2333L53.7612 56.3872L53.7613 56.387L53.5511 56.2333ZM54.9511 55.9667L55.1119 55.7619L55.1116 55.7616L54.9511 55.9667ZM56.0511 56.6333L56.1625 56.398L56.0511 56.6333ZM57.4177 57.1667L57.3387 57.415L57.3492 57.4179L57.4177 57.1667ZM58.9177 57.5L58.8731 57.7566L58.8749 57.7569L58.9177 57.5ZM62.1844 57.4333L62.1212 57.1807L62.1844 57.4333ZM63.5511 56.8667L63.4152 56.6444L63.4096 56.648L63.5511 56.8667ZM64.4844 55.9667L64.7053 56.1047L64.7089 56.0987L64.4844 55.9667ZM64.7844 54.7333L65.0445 54.7203L65.0445 54.72L64.7844 54.7333ZM63.5177 52.7L63.3819 52.9222L63.5177 52.7ZM60.4844 51.8667L60.4986 51.6066L60.4968 51.6065L60.4844 51.8667ZM57.5844 52.2333L57.5121 51.9831L57.5106 51.9836L57.5844 52.2333ZM54.7177 53.1333L54.6353 52.8862L54.6281 52.8888L54.7177 53.1333ZM52.9844 53.0333L52.8376 53.2486L52.8446 53.253L52.9844 53.0333ZM52.2177 51.5333L51.9573 51.5377L51.9574 51.542L52.2177 51.5333ZM52.0177 39.6L52.2781 39.5956L52.278 39.5926L52.0177 39.6ZM52.6511 37.8667L52.8198 38.0652L52.8253 38.0602L52.6511 37.8667ZM54.3511 37.2667V37.5271L54.3523 37.5271L54.3511 37.2667ZM68.6511 37.2V36.9396L68.6498 36.9396L68.6511 37.2ZM69.4844 37.5333L69.2908 37.7075L69.3 37.7177L69.3102 37.7269L69.4844 37.5333ZM68.6511 42.2667V42.0062L68.647 42.0063L68.6511 42.2667ZM58.0511 42.4333L58.047 42.1729L57.7906 42.177V42.4333H58.0511ZM58.0511 47.5667H57.7906V47.928L58.1334 47.8137L58.0511 47.5667ZM62.8177 47.2667L62.7846 47.525L62.7873 47.5253L62.8177 47.2667ZM65.8844 48.1L65.7748 48.3364L65.7818 48.3394L65.8844 48.1ZM68.2511 49.6667L68.0668 49.8509L68.0734 49.857L68.2511 49.6667ZM69.7511 51.8667L69.5087 51.9623L69.512 51.97L69.7511 51.8667ZM69.5511 57.9667L69.784 58.0831L69.785 58.081L69.5511 57.9667ZM67.5177 60.4667L67.6798 60.6705L67.5177 60.4667ZM64.4511 62.0333L64.5263 62.2826L64.4511 62.0333ZM60.6177 62.5333L60.6108 62.7937L60.6135 62.7937L60.6177 62.5333ZM56.0177 61.6333L56.1138 61.3913L56.1104 61.39L56.0177 61.6333ZM52.4177 59.4333L52.5955 59.2429L52.5907 59.2387L52.4177 59.4333ZM52.0177 58.8333L51.7683 58.9082L52.0177 58.8333ZM52.1844 58.1L51.9741 57.946L51.9677 57.9555L52.1844 58.1ZM53.7613 56.387C53.9527 56.125 54.1242 56.0162 54.2664 55.9891C54.4018 55.9634 54.5715 56.0003 54.7906 56.1717L55.1116 55.7616C54.8195 55.533 54.5003 55.4144 54.169 55.4775C53.8446 55.5393 53.5716 55.7638 53.3408 56.0797L53.7613 56.387ZM54.7902 56.1714C55.119 56.4298 55.5029 56.6618 55.9396 56.8687L56.1625 56.398C55.7548 56.2048 55.4053 55.9924 55.1119 55.7619L54.7902 56.1714ZM55.9396 56.8687C56.3733 57.0741 56.8398 57.2561 57.3388 57.4148L57.4967 56.9185C57.0178 56.7661 56.5732 56.5925 56.1625 56.398L55.9396 56.8687ZM57.3492 57.4179C57.8462 57.5534 58.3541 57.6663 58.8731 57.7566L58.9623 57.2434C58.4591 57.1559 57.9671 57.0466 57.4862 56.9154L57.3492 57.4179ZM58.8749 57.7569C59.4216 57.848 59.9581 57.8937 60.4844 57.8937V57.3729C59.9884 57.3729 59.4805 57.3298 58.9605 57.2431L58.8749 57.7569ZM60.4844 57.8937C61.1038 57.8937 61.6918 57.8249 62.2475 57.686L62.1212 57.1807C61.6103 57.3084 61.065 57.3729 60.4844 57.3729V57.8937ZM62.2475 57.686C62.8027 57.5472 63.286 57.3483 63.6925 57.0853L63.4096 56.648C63.0605 56.8739 62.6327 57.0528 62.1212 57.1807L62.2475 57.686ZM63.6868 57.0889C64.1172 56.8259 64.4592 56.4984 64.7052 56.1047L64.2636 55.8286C64.0652 56.146 63.7849 56.4186 63.4153 56.6445L63.6868 57.0889ZM64.7089 56.0987C64.9573 55.6764 65.0692 55.2147 65.0445 54.7203L64.5243 54.7463C64.544 55.1408 64.4559 55.5014 64.2599 55.8346L64.7089 56.0987ZM65.0445 54.72C64.9952 53.7596 64.5199 53.0073 63.6535 52.4778L63.3819 52.9222C64.1155 53.3705 64.4847 53.9737 64.5243 54.7467L65.0445 54.72ZM63.6535 52.4778C62.8072 51.9606 61.7511 51.675 60.4986 51.6066L60.4702 52.1267C61.6621 52.1917 62.6282 52.4616 63.3819 52.9222L63.6535 52.4778ZM60.4968 51.6065C59.5318 51.5606 58.5365 51.6872 57.5121 51.9831L57.6567 52.4835C58.6323 52.2017 59.5703 52.0838 60.472 52.1268L60.4968 51.6065ZM57.5106 51.9836C56.5301 52.2733 55.5716 52.5742 54.6354 52.8863L54.8001 53.3804C55.7305 53.0702 56.6832 52.7711 57.6582 52.4831L57.5106 51.9836ZM54.6281 52.8888C54.0185 53.1123 53.5291 53.0713 53.1242 52.8136L52.8446 53.253C53.4174 53.6176 54.0836 53.6432 54.8074 53.3778L54.6281 52.8888ZM53.1311 52.8182C52.7203 52.5381 52.4979 52.1205 52.478 51.5247L51.9574 51.542C51.982 52.2795 52.2707 52.8619 52.8377 53.2485L53.1311 52.8182ZM52.4781 51.529L52.2781 39.5956L51.7573 39.6044L51.9573 51.5377L52.4781 51.529ZM52.278 39.5926C52.2573 38.8655 52.4541 38.3758 52.8197 38.0651L52.4824 37.6682C51.9591 38.113 51.7337 38.7789 51.7574 39.6074L52.278 39.5926ZM52.8253 38.0602C53.2147 37.7098 53.7161 37.5271 54.3511 37.5271V37.0062C53.6083 37.0062 52.9763 37.2236 52.4768 37.6731L52.8253 38.0602ZM54.3523 37.5271L68.6523 37.4604L68.6498 36.9396L54.3498 37.0062L54.3523 37.5271ZM68.6511 37.4604C68.948 37.4604 69.1496 37.5506 69.2908 37.7075L69.678 37.3591C69.4192 37.0716 69.0652 36.9396 68.6511 36.9396V37.4604ZM69.3102 37.7269C69.4671 37.8681 69.5573 38.0697 69.5573 38.3667H70.0781C70.0781 37.9525 69.9461 37.5985 69.6586 37.3398L69.3102 37.7269ZM69.5573 38.3667V41.1H70.0781V38.3667H69.5573ZM69.5573 41.1C69.5573 41.3964 69.4671 41.6157 69.3002 41.7825L69.6685 42.1508C69.9462 41.8732 70.0781 41.5147 70.0781 41.1H69.5573ZM69.3002 41.7825C69.1609 41.9219 68.9563 42.0062 68.6511 42.0062V42.5271C69.057 42.5271 69.4079 42.4115 69.6685 42.1508L69.3002 41.7825ZM68.647 42.0063L58.047 42.1729L58.0551 42.6937L68.6551 42.527L68.647 42.0063ZM57.7906 42.4333V47.5667H58.3115V42.4333H57.7906ZM58.1334 47.8137C58.7746 47.6 59.4956 47.4701 60.2984 47.4267L60.2703 46.9066C59.4287 46.9521 58.6609 47.0889 57.9687 47.3196L58.1334 47.8137ZM60.2984 47.4267C61.104 47.3832 61.9326 47.4157 62.7846 47.525L62.8508 47.0084C61.9695 46.8954 61.1092 46.8613 60.2703 46.9066L60.2984 47.4267ZM62.7873 47.5253C63.8969 47.6558 64.8919 47.9271 65.7749 48.3363L65.9939 47.8637C65.0546 47.4284 64.0052 47.1441 62.8481 47.008L62.7873 47.5253ZM65.7818 48.3394C66.6882 48.7278 67.4484 49.2323 68.0669 49.8508L68.4352 49.4825C67.7648 48.8121 66.9473 48.2722 65.987 47.8606L65.7818 48.3394ZM68.0734 49.857C68.7119 50.453 69.1898 51.154 69.5088 51.9623L69.9933 51.771C69.6457 50.8904 69.1236 50.1248 68.4287 49.4763L68.0734 49.857ZM69.512 51.97C69.8519 52.756 70.024 53.6314 70.024 54.6H70.5448C70.5448 53.5686 70.3613 52.6218 69.9901 51.7633L69.512 51.97ZM70.024 54.6C70.024 55.8095 69.7866 56.8919 69.3171 57.8523L69.785 58.081C70.2933 57.0414 70.5448 55.8794 70.5448 54.6H70.024ZM69.3181 57.8502C68.8464 58.7936 68.193 59.5972 67.3557 60.2628L67.6798 60.6705C68.5758 59.9583 69.2779 59.0953 69.784 58.0831L69.3181 57.8502ZM67.3557 60.2628C66.5175 60.929 65.5255 61.4369 64.3758 61.784L64.5263 62.2826C65.7321 61.9186 66.7846 61.3821 67.6798 60.6705L67.3557 60.2628ZM64.3758 61.784C63.2267 62.1309 61.976 62.2948 60.6219 62.2729L60.6135 62.7937C62.015 62.8163 63.3199 62.6468 64.5263 62.2826L64.3758 61.784ZM60.6247 62.273C58.9853 62.2293 57.4825 61.9344 56.1138 61.3913L55.9217 61.8754C57.3529 62.4433 58.9168 62.7485 60.6108 62.7937L60.6247 62.273ZM56.1104 61.39C54.7389 60.8675 53.5685 60.1512 52.5954 59.2429L52.24 59.6237C53.2669 60.5821 54.4965 61.3325 55.925 61.8767L56.1104 61.39ZM52.5907 59.2387C52.4212 59.088 52.3179 58.9277 52.2672 58.7585L51.7683 58.9082C51.8508 59.1834 52.0143 59.4231 52.2447 59.628L52.5907 59.2387ZM52.2672 58.7585C52.2304 58.636 52.2491 58.4725 52.4011 58.2444L51.9677 57.9555C51.7642 58.2609 51.6717 58.5862 51.7683 58.9082L52.2672 58.7585ZM52.3945 58.2538L53.7612 56.3872L53.3409 56.0795L51.9743 57.9462L52.3945 58.2538Z" fill="url(#paint8_linear_366_9794)" style="mix-blend-mode:color-burn" mask="url(#path-12-outside-2_366_9794)"/>
</g>
<defs>
<filter id="filter0_d_366_9794" x="-4.16667" y="-3.125" width="108.333" height="108.333" filterUnits="userSpaceOnUse" color-interpolation-filters="sRGB">
<feFlood flood-opacity="0" result="BackgroundImageFix"/>
<feColorMatrix in="SourceAlpha" type="matrix" values="0 0 0 0 0 0 0 0 0 0 0 0 0 0 0 0 0 0 127 0" result="hardAlpha"/>
<feOffset dy="1.04167"/>
<feGaussianBlur stdDeviation="2.08333"/>
<feColorMatrix type="matrix" values="0 0 0 0 0 0 0 0 0 0 0 0 0 0 0 0 0 0 0.16 0"/>
<feBlend mode="color-burn" in2="BackgroundImageFix" result="effect1_dropShadow_366_9794"/>
<feBlend mode="normal" in="SourceGraphic" in2="effect1_dropShadow_366_9794" result="shape"/>
</filter>
<filter id="filter1_d_366_9794" x="23.2214" y="31.7312" width="53.5734" height="38.3561" filterUnits="userSpaceOnUse" color-interpolation-filters="sRGB">
<feFlood flood-opacity="0" result="BackgroundImageFix"/>
<feColorMatrix in="SourceAlpha" type="matrix" values="0 0 0 0 0 0 0 0 0 0 0 0 0 0 0 0 0 0 127 0" result="hardAlpha"/>
<feOffset dy="1.04167"/>
<feGaussianBlur stdDeviation="3.125"/>
<feColorMatrix type="matrix" values="0 0 0 0 0 0 0 0 0 0 0 0 0 0 0 0 0 0 0.12 0"/>
<feBlend mode="plus-darker" in2="BackgroundImageFix" result="effect1_dropShadow_366_9794"/>
<feBlend mode="normal" in="SourceGraphic" in2="effect1_dropShadow_366_9794" result="shape"/>
</filter>
<linearGradient id="paint0_linear_366_9794" x1="122.917" y1="122.917" x2="-51.5238" y2="31.9277" gradientUnits="userSpaceOnUse">
<stop stop-color="#AD49E8"/>
<stop offset="1" stop-color="#831DBF"/>
</linearGradient>
<linearGradient id="paint1_linear_366_9794" x1="50" y1="-6.39145" x2="50" y2="105.635" gradientUnits="userSpaceOnUse">
<stop stop-color="white"/>
<stop offset="1" stop-color="white" stop-opacity="0"/>
</linearGradient>
<radialGradient id="paint2_radial_366_9794" cx="0" cy="0" r="1" gradientUnits="userSpaceOnUse" gradientTransform="translate(50 25.7865) rotate(90) scale(73.89 56.0618)">
<stop stop-color="white"/>
<stop offset="1" stop-color="white" stop-opacity="0"/>
</radialGradient>
<linearGradient id="paint3_linear_366_9794" x1="122.917" y1="122.917" x2="-51.5238" y2="31.9277" gradientUnits="userSpaceOnUse">
<stop stop-color="#AD49E8"/>
<stop offset="1" stop-color="#831DBF"/>
</linearGradient>
<linearGradient id="paint4_linear_366_9794" x1="50" y1="-6.39145" x2="50" y2="105.635" gradientUnits="userSpaceOnUse">
<stop stop-color="white"/>
<stop offset="1" stop-color="white" stop-opacity="0"/>
</linearGradient>
<radialGradient id="paint5_radial_366_9794" cx="0" cy="0" r="1" gradientUnits="userSpaceOnUse" gradientTransform="translate(50 25.7865) rotate(90) scale(73.89 56.0618)">
<stop stop-color="white"/>
<stop offset="1" stop-color="white" stop-opacity="0"/>
</radialGradient>
<linearGradient id="paint6_linear_366_9794" x1="-22.9167" y1="-22.9167" x2="-22.9167" y2="122.917" gradientUnits="userSpaceOnUse">
<stop offset="0.135095" stop-color="white"/>
<stop offset="0.877908" stop-color="white" stop-opacity="0.01"/>
</linearGradient>
<linearGradient id="paint7_linear_366_9794" x1="50" y1="0" x2="50" y2="100" gradientUnits="userSpaceOnUse">
<stop stop-color="white"/>
<stop offset="1" stop-color="#999999"/>
</linearGradient>
<linearGradient id="paint8_linear_366_9794" x1="50" y1="33.3333" x2="50" y2="66.3333" gradientUnits="userSpaceOnUse">
<stop stop-color="#DFDFDF"/>
<stop offset="1" stop-color="#A9A9A9"/>
</linearGradient>
</defs>
</svg>
