<svg width="100" height="100" viewBox="0 0 100 100" fill="none" xmlns="http://www.w3.org/2000/svg">
<mask id="mask0_366_9812" style="mask-type:alpha" maskUnits="userSpaceOnUse" x="0" y="0" width="100" height="100">
<circle cx="50" cy="50" r="50" fill="white"/>
</mask>
<g mask="url(#mask0_366_9812)">
<mask id="mask1_366_9812" style="mask-type:alpha" maskUnits="userSpaceOnUse" x="0" y="0" width="100" height="100">
<circle cx="50" cy="50" r="50" fill="white"/>
</mask>
<g mask="url(#mask1_366_9812)">
<rect x="-22.9167" y="-22.9167" width="145.833" height="145.833" fill="url(#paint0_linear_366_9812)"/>
<rect x="-22.9167" y="-22.9167" width="145.833" height="145.833" fill="url(#paint1_linear_366_9812)" fill-opacity="0.6" style="mix-blend-mode:overlay"/>
<rect x="-22.9167" y="-22.9167" width="145.833" height="145.833" fill="url(#paint2_radial_366_9812)" fill-opacity="0.6" style="mix-blend-mode:overlay"/>
<rect x="-22.9167" y="-22.9167" width="145.833" height="145.833" fill="black" fill-opacity="0.16" style="mix-blend-mode:overlay"/>
<rect x="-22.9167" y="-22.9167" width="145.833" height="145.833" fill="black" fill-opacity="0.12" style="mix-blend-mode:darken"/>
</g>
<g filter="url(#filter0_d_366_9812)">
<mask id="mask2_366_9812" style="mask-type:alpha" maskUnits="userSpaceOnUse" x="0" y="0" width="100" height="100">
<path fill-rule="evenodd" clip-rule="evenodd" d="M95.8333 50C95.8333 75.313 75.313 95.8333 50 95.8333C24.6869 95.8333 4.16667 75.313 4.16667 50C4.16667 24.6869 24.6869 4.16667 50 4.16667C75.313 4.16667 95.8333 24.6869 95.8333 50ZM100 50C100 77.6142 77.6142 100 50 100C22.3858 100 0 77.6142 0 50C0 22.3858 22.3858 0 50 0C77.6142 0 100 22.3858 100 50ZM50 88.0208C70.9983 88.0208 88.0208 70.9983 88.0208 50C88.0208 29.0017 70.9983 11.9792 50 11.9792C29.0017 11.9792 11.9792 29.0017 11.9792 50C11.9792 70.9983 29.0017 88.0208 50 88.0208Z" fill="white"/>
</mask>
<g mask="url(#mask2_366_9812)">
<rect x="-22.9167" y="-22.9167" width="145.833" height="145.833" fill="url(#paint3_linear_366_9812)"/>
<rect x="-22.9167" y="-22.9167" width="145.833" height="145.833" fill="url(#paint4_linear_366_9812)" fill-opacity="0.6" style="mix-blend-mode:overlay"/>
<rect x="-22.9167" y="-22.9167" width="145.833" height="145.833" fill="url(#paint5_radial_366_9812)" fill-opacity="0.6" style="mix-blend-mode:overlay"/>
<g style="mix-blend-mode:soft-light">
<path fill-rule="evenodd" clip-rule="evenodd" d="M-22.9167 -22.9167H64.5833L36.6578 122.917H-22.9167V-22.9167Z" fill="url(#paint6_linear_366_9812)" style="mix-blend-mode:lighten"/>
</g>
<g style="mix-blend-mode:soft-light">
<mask id="path-10-inside-1_366_9812" fill="white">
<path fill-rule="evenodd" clip-rule="evenodd" d="M95.8333 50C95.8333 75.313 75.313 95.8333 50 95.8333C24.6869 95.8333 4.16667 75.313 4.16667 50C4.16667 24.6869 24.6869 4.16667 50 4.16667C75.313 4.16667 95.8333 24.6869 95.8333 50ZM100 50C100 77.6142 77.6142 100 50 100C22.3858 100 0 77.6142 0 50C0 22.3858 22.3858 0 50 0C77.6142 0 100 22.3858 100 50ZM50 88.0208C70.9983 88.0208 88.0208 70.9983 88.0208 50C88.0208 29.0017 70.9983 11.9792 50 11.9792C29.0017 11.9792 11.9792 29.0017 11.9792 50C11.9792 70.9983 29.0017 88.0208 50 88.0208Z"/>
</mask>
<path d="M50 96.0938C75.4569 96.0938 96.0938 75.4569 96.0938 50H95.5729C95.5729 75.1692 75.1692 95.5729 50 95.5729V96.0938ZM3.90625 50C3.90625 75.4569 24.5431 96.0938 50 96.0938V95.5729C24.8308 95.5729 4.42708 75.1692 4.42708 50H3.90625ZM50 3.90625C24.5431 3.90625 3.90625 24.5431 3.90625 50H4.42708C4.42708 24.8308 24.8308 4.42708 50 4.42708V3.90625ZM96.0938 50C96.0938 24.5431 75.4569 3.90625 50 3.90625V4.42708C75.1692 4.42708 95.5729 24.8308 95.5729 50H96.0938ZM50 100.26C77.7581 100.26 100.26 77.7581 100.26 50H99.7396C99.7396 77.4704 77.4704 99.7396 50 99.7396V100.26ZM-0.260417 50C-0.260417 77.7581 22.2419 100.26 50 100.26V99.7396C22.5296 99.7396 0.260417 77.4704 0.260417 50H-0.260417ZM50 -0.260417C22.2419 -0.260417 -0.260417 22.2419 -0.260417 50H0.260417C0.260417 22.5296 22.5296 0.260417 50 0.260417V-0.260417ZM100.26 50C100.26 22.2419 77.7581 -0.260417 50 -0.260417V0.260417C77.4704 0.260417 99.7396 22.5296 99.7396 50H100.26ZM87.7604 50C87.7604 70.8545 70.8545 87.7604 50 87.7604V88.2812C71.1421 88.2812 88.2812 71.1421 88.2812 50H87.7604ZM50 12.2396C70.8545 12.2396 87.7604 29.1455 87.7604 50H88.2812C88.2812 28.8578 71.1421 11.7188 50 11.7188V12.2396ZM12.2396 50C12.2396 29.1455 29.1455 12.2396 50 12.2396V11.7188C28.8578 11.7188 11.7188 28.8578 11.7188 50H12.2396ZM50 87.7604C29.1455 87.7604 12.2396 70.8545 12.2396 50H11.7188C11.7188 71.1421 28.8578 88.2812 50 88.2812V87.7604Z" fill="url(#paint7_linear_366_9812)" mask="url(#path-10-inside-1_366_9812)"/>
</g>
</g>
</g>
</g>
<g filter="url(#filter1_d_366_9812)">
<mask id="path-12-outside-2_366_9812" maskUnits="userSpaceOnUse" x="29.3333" y="36.3333" width="41" height="27" fill="black">
<rect fill="white" x="29.3333" y="36.3333" width="41" height="27"/>
<path d="M38.2008 62.2C37.5341 62.2 37.2008 61.8667 37.2008 61.2L36.9008 42.3667L30.8008 42.3333C30.4452 42.3333 30.1563 42.2333 29.9341 42.0333C29.7341 41.8111 29.6341 41.5222 29.6341 41.1667V38.4333C29.6341 38.0778 29.7341 37.8 29.9341 37.6C30.1563 37.3778 30.4452 37.2667 30.8008 37.2667L48.9008 37.2333C49.2563 37.2333 49.5341 37.3445 49.7341 37.5667C49.9563 37.7667 50.0675 38.0445 50.0675 38.4V41.1333C50.0675 41.4889 49.9563 41.7778 49.7341 42C49.5341 42.2 49.2563 42.3 48.9008 42.3L42.8008 42.3667L42.4675 61.2C42.4675 61.8667 42.1341 62.2 41.4675 62.2H38.2008ZM53.0867 56.2333C53.509 55.6556 53.9756 55.5667 54.4867 55.9667C55.109 56.4333 55.909 56.8333 56.8867 57.1667C57.8645 57.4778 58.8534 57.6333 59.8534 57.6333C61.2312 57.6333 62.2201 57.4 62.8201 56.9333C63.4201 56.4445 63.6978 55.8333 63.6534 55.1C63.6312 54.6778 63.4867 54.3222 63.2201 54.0333C62.9756 53.7222 62.6534 53.4667 62.2534 53.2667C61.8534 53.0667 61.409 52.9222 60.9201 52.8333C60.4534 52.7445 59.9867 52.7 59.5201 52.7L55.5201 52.7333C55.209 52.7333 54.9645 52.6445 54.7867 52.4667C54.609 52.2889 54.5201 52.0445 54.5201 51.7333V49C54.5201 48.6889 54.609 48.4445 54.7867 48.2667C54.9645 48.0889 55.209 48 55.5201 48L59.6201 48.0333C60.2867 48.0333 60.8978 47.9778 61.4534 47.8667C62.009 47.7333 62.4867 47.5333 62.8867 47.2667C63.309 47 63.6312 46.6778 63.8534 46.3C64.0756 45.9 64.1867 45.4445 64.1867 44.9333C64.1645 44.0889 63.7645 43.4445 62.9867 43C62.209 42.5333 61.2312 42.3 60.0534 42.3C58.9867 42.3 57.9978 42.4556 57.0867 42.7667C56.1978 43.0556 55.3534 43.4667 54.5534 44C54.2645 44.2 53.9756 44.2778 53.6867 44.2333C53.4201 44.1889 53.1978 44.0111 53.0201 43.7L51.5201 40.7667C51.3645 40.4556 51.3312 40.1889 51.4201 39.9667C51.5312 39.7222 51.7312 39.4889 52.0201 39.2667C52.9534 38.5556 54.109 37.9556 55.4867 37.4667C56.8645 36.9778 58.3867 36.7333 60.0534 36.7333C61.5201 36.7333 62.8534 36.9222 64.0534 37.3C65.2756 37.6778 66.309 38.2111 67.1534 38.9C68.0201 39.5667 68.6867 40.3889 69.1534 41.3667C69.6201 42.3222 69.8534 43.3889 69.8534 44.5667C69.8534 46.0333 69.4534 47.3222 68.6534 48.4333C67.8756 49.5445 66.8534 50.3111 65.5867 50.7333C66.0534 50.8445 66.4978 51.0667 66.9201 51.4C67.3645 51.7111 67.7534 52.1 68.0867 52.5667C68.4201 53.0111 68.6756 53.5111 68.8534 54.0667C69.0534 54.6222 69.1534 55.1889 69.1534 55.7667C69.1534 56.7667 68.9312 57.6889 68.4867 58.5333C68.0423 59.3556 67.4201 60.0667 66.6201 60.6667C65.8201 61.2667 64.8534 61.7333 63.7201 62.0667C62.609 62.4 61.3645 62.5556 59.9867 62.5333C58.3201 62.4889 56.809 62.1889 55.4534 61.6333C54.1201 61.1 52.9534 60.3667 51.9534 59.4333C51.7534 59.2556 51.6201 59.0556 51.5534 58.8333C51.4867 58.6111 51.5423 58.3667 51.7201 58.1L53.0867 56.2333Z"/>
</mask>
<path d="M38.2008 62.2C37.5341 62.2 37.2008 61.8667 37.2008 61.2L36.9008 42.3667L30.8008 42.3333C30.4452 42.3333 30.1563 42.2333 29.9341 42.0333C29.7341 41.8111 29.6341 41.5222 29.6341 41.1667V38.4333C29.6341 38.0778 29.7341 37.8 29.9341 37.6C30.1563 37.3778 30.4452 37.2667 30.8008 37.2667L48.9008 37.2333C49.2563 37.2333 49.5341 37.3445 49.7341 37.5667C49.9563 37.7667 50.0675 38.0445 50.0675 38.4V41.1333C50.0675 41.4889 49.9563 41.7778 49.7341 42C49.5341 42.2 49.2563 42.3 48.9008 42.3L42.8008 42.3667L42.4675 61.2C42.4675 61.8667 42.1341 62.2 41.4675 62.2H38.2008ZM53.0867 56.2333C53.509 55.6556 53.9756 55.5667 54.4867 55.9667C55.109 56.4333 55.909 56.8333 56.8867 57.1667C57.8645 57.4778 58.8534 57.6333 59.8534 57.6333C61.2312 57.6333 62.2201 57.4 62.8201 56.9333C63.4201 56.4445 63.6978 55.8333 63.6534 55.1C63.6312 54.6778 63.4867 54.3222 63.2201 54.0333C62.9756 53.7222 62.6534 53.4667 62.2534 53.2667C61.8534 53.0667 61.409 52.9222 60.9201 52.8333C60.4534 52.7445 59.9867 52.7 59.5201 52.7L55.5201 52.7333C55.209 52.7333 54.9645 52.6445 54.7867 52.4667C54.609 52.2889 54.5201 52.0445 54.5201 51.7333V49C54.5201 48.6889 54.609 48.4445 54.7867 48.2667C54.9645 48.0889 55.209 48 55.5201 48L59.6201 48.0333C60.2867 48.0333 60.8978 47.9778 61.4534 47.8667C62.009 47.7333 62.4867 47.5333 62.8867 47.2667C63.309 47 63.6312 46.6778 63.8534 46.3C64.0756 45.9 64.1867 45.4445 64.1867 44.9333C64.1645 44.0889 63.7645 43.4445 62.9867 43C62.209 42.5333 61.2312 42.3 60.0534 42.3C58.9867 42.3 57.9978 42.4556 57.0867 42.7667C56.1978 43.0556 55.3534 43.4667 54.5534 44C54.2645 44.2 53.9756 44.2778 53.6867 44.2333C53.4201 44.1889 53.1978 44.0111 53.0201 43.7L51.5201 40.7667C51.3645 40.4556 51.3312 40.1889 51.4201 39.9667C51.5312 39.7222 51.7312 39.4889 52.0201 39.2667C52.9534 38.5556 54.109 37.9556 55.4867 37.4667C56.8645 36.9778 58.3867 36.7333 60.0534 36.7333C61.5201 36.7333 62.8534 36.9222 64.0534 37.3C65.2756 37.6778 66.309 38.2111 67.1534 38.9C68.0201 39.5667 68.6867 40.3889 69.1534 41.3667C69.6201 42.3222 69.8534 43.3889 69.8534 44.5667C69.8534 46.0333 69.4534 47.3222 68.6534 48.4333C67.8756 49.5445 66.8534 50.3111 65.5867 50.7333C66.0534 50.8445 66.4978 51.0667 66.9201 51.4C67.3645 51.7111 67.7534 52.1 68.0867 52.5667C68.4201 53.0111 68.6756 53.5111 68.8534 54.0667C69.0534 54.6222 69.1534 55.1889 69.1534 55.7667C69.1534 56.7667 68.9312 57.6889 68.4867 58.5333C68.0423 59.3556 67.4201 60.0667 66.6201 60.6667C65.8201 61.2667 64.8534 61.7333 63.7201 62.0667C62.609 62.4 61.3645 62.5556 59.9867 62.5333C58.3201 62.4889 56.809 62.1889 55.4534 61.6333C54.1201 61.1 52.9534 60.3667 51.9534 59.4333C51.7534 59.2556 51.6201 59.0556 51.5534 58.8333C51.4867 58.6111 51.5423 58.3667 51.7201 58.1L53.0867 56.2333Z" fill="white"/>
<path d="M37.2008 61.2H37.4612L37.4612 61.1959L37.2008 61.2ZM36.9008 42.3667L37.1612 42.3625L37.1571 42.1077L36.9022 42.1063L36.9008 42.3667ZM30.8008 42.3333L30.8022 42.0729H30.8008V42.3333ZM29.9341 42.0333L29.7406 42.2076L29.7497 42.2177L29.7599 42.2269L29.9341 42.0333ZM29.9341 37.6L29.75 37.4159L29.9341 37.6ZM30.8008 37.2667V37.5271L30.8013 37.5271L30.8008 37.2667ZM48.9008 37.2333V36.9729L48.9003 36.9729L48.9008 37.2333ZM49.7341 37.5667L49.5406 37.7409L49.5497 37.7511L49.5599 37.7602L49.7341 37.5667ZM48.9008 42.3V42.0396L48.8979 42.0396L48.9008 42.3ZM42.8008 42.3667L42.7979 42.1063L42.5449 42.109L42.5404 42.3621L42.8008 42.3667ZM42.4675 61.2L42.207 61.1954V61.2H42.4675ZM38.2008 61.9396C37.9076 61.9396 37.7355 61.8665 37.6349 61.7659C37.5343 61.6653 37.4612 61.4932 37.4612 61.2H36.9404C36.9404 61.5735 37.0339 61.9014 37.2667 62.1342C37.4994 62.3669 37.8273 62.4604 38.2008 62.4604V61.9396ZM37.4612 61.1959L37.1612 42.3625L36.6404 42.3708L36.9404 61.2042L37.4612 61.1959ZM36.9022 42.1063L30.8022 42.0729L30.7994 42.5938L36.8994 42.6271L36.9022 42.1063ZM30.8008 42.0729C30.4967 42.0729 30.274 41.9888 30.1083 41.8398L29.7599 42.2269C30.0387 42.4778 30.3938 42.5938 30.8008 42.5938V42.0729ZM30.1277 41.8591C29.9786 41.6935 29.8945 41.4708 29.8945 41.1667H29.3737C29.3737 41.5737 29.4896 41.9287 29.7406 42.2076L30.1277 41.8591ZM29.8945 41.1667V38.4333H29.3737V41.1667H29.8945ZM29.8945 38.4333C29.8945 38.1281 29.9789 37.9235 30.1183 37.7842L29.75 37.4159C29.4893 37.6765 29.3737 38.0274 29.3737 38.4333H29.8945ZM30.1183 37.7842C30.2851 37.6173 30.5044 37.5271 30.8008 37.5271V37.0063C30.3861 37.0063 30.0276 37.1382 29.75 37.4159L30.1183 37.7842ZM30.8013 37.5271L48.9013 37.4938L48.9003 36.9729L30.8003 37.0063L30.8013 37.5271ZM48.9008 37.4938C49.1978 37.4938 49.3993 37.5839 49.5406 37.7409L49.9277 37.3925C49.6689 37.105 49.3149 36.9729 48.9008 36.9729V37.4938ZM49.5599 37.7602C49.7169 37.9015 49.807 38.103 49.807 38.4H50.3279C50.3279 37.9859 50.1958 37.6319 49.9083 37.3731L49.5599 37.7602ZM49.807 38.4V41.1333H50.3279V38.4H49.807ZM49.807 41.1333C49.807 41.4297 49.7168 41.6491 49.55 41.8159L49.9183 42.1842C50.1959 41.9065 50.3279 41.5481 50.3279 41.1333H49.807ZM49.55 41.8159C49.4106 41.9552 49.206 42.0396 48.9008 42.0396V42.5604C49.3067 42.5604 49.6576 42.4448 49.9183 42.1842L49.55 41.8159ZM48.8979 42.0396L42.7979 42.1063L42.8036 42.6271L48.9036 42.5604L48.8979 42.0396ZM42.5404 42.3621L42.2071 61.1954L42.7278 61.2046L43.0612 42.3713L42.5404 42.3621ZM42.207 61.2C42.207 61.4932 42.1339 61.6653 42.0333 61.7659C41.9327 61.8665 41.7607 61.9396 41.4675 61.9396V62.4604C41.8409 62.4604 42.1689 62.3669 42.4016 62.1342C42.6343 61.9014 42.7279 61.5735 42.7279 61.2H42.207ZM41.4675 61.9396H38.2008V62.4604H41.4675V61.9396ZM53.0867 56.2333L53.2969 56.3872L53.297 56.387L53.0867 56.2333ZM54.4867 55.9667L54.3262 56.1718L54.3305 56.175L54.4867 55.9667ZM56.8867 57.1667L56.8027 57.4132L56.8078 57.4148L56.8867 57.1667ZM62.8201 56.9333L62.98 57.139L62.9846 57.1352L62.8201 56.9333ZM63.6534 55.1L63.3933 55.1137L63.3935 55.1158L63.6534 55.1ZM63.2201 54.0333L63.0153 54.1942L63.0217 54.2024L63.0287 54.21L63.2201 54.0333ZM60.9201 52.8333L60.8713 53.0892L60.8735 53.0896L60.9201 52.8333ZM59.5201 52.7V52.4396L59.5179 52.4396L59.5201 52.7ZM55.5201 52.7333V52.9938L55.5222 52.9938L55.5201 52.7333ZM54.7867 48.2667L54.6026 48.0825V48.0825L54.7867 48.2667ZM55.5201 48L55.5222 47.7396H55.5201V48ZM59.6201 48.0333L59.6179 48.2938H59.6201V48.0333ZM61.4534 47.8667L61.5045 48.1222L61.5142 48.1199L61.4534 47.8667ZM62.8867 47.2667L62.7476 47.0464L62.7423 47.05L62.8867 47.2667ZM63.8534 46.3L64.0779 46.4321L64.081 46.4265L63.8534 46.3ZM64.1867 44.9333H64.4472L64.4471 44.9265L64.1867 44.9333ZM62.9867 43L62.8527 43.2234L62.8575 43.2261L62.9867 43ZM57.0867 42.7667L57.1672 43.0144L57.1709 43.0131L57.0867 42.7667ZM54.5534 44L54.4089 43.7833L54.4052 43.7859L54.5534 44ZM53.6867 44.2333L53.6439 44.4902L53.6471 44.4907L53.6867 44.2333ZM53.0201 43.7L52.788 43.8187L52.794 43.8292L53.0201 43.7ZM51.5201 40.7667L51.2871 40.8831L51.2882 40.8852L51.5201 40.7667ZM51.4201 39.9667L51.1827 39.8588L51.1783 39.87L51.4201 39.9667ZM52.0201 39.2667L51.8622 39.0595L51.8613 39.0603L52.0201 39.2667ZM55.4867 37.4667L55.3996 37.2213L55.4867 37.4667ZM64.0534 37.3L63.9752 37.5484L63.9765 37.5488L64.0534 37.3ZM67.1534 38.9L66.9887 39.1019L66.9946 39.1064L67.1534 38.9ZM69.1534 41.3667L68.9184 41.4789L68.9194 41.481L69.1534 41.3667ZM68.6534 48.4333L68.442 48.2812L68.4401 48.284L68.6534 48.4333ZM65.5867 50.7333L65.5044 50.4863L64.6379 50.7751L65.5264 50.9867L65.5867 50.7333ZM66.9201 51.4L66.7587 51.6044L66.7646 51.6091L66.7707 51.6134L66.9201 51.4ZM68.0867 52.5667L67.8748 52.7181L67.8784 52.7229L68.0867 52.5667ZM68.8534 54.0667L68.6052 54.1461L68.6084 54.1549L68.8534 54.0667ZM68.4867 58.5333L68.7158 58.6572L68.7172 58.6546L68.4867 58.5333ZM66.6201 60.6667L66.7763 60.875L66.6201 60.6667ZM63.7201 62.0667L63.6466 61.8168L63.6452 61.8172L63.7201 62.0667ZM59.9867 62.5333L59.9798 62.7937L59.9825 62.7937L59.9867 62.5333ZM55.4534 61.6333L55.5522 61.3924L55.5501 61.3916L55.4534 61.6333ZM51.9534 59.4333L52.1311 59.2429L52.1264 59.2387L51.9534 59.4333ZM51.5534 58.8333L51.8028 58.7585L51.5534 58.8333ZM51.7201 58.1L51.5097 57.946L51.5034 57.9556L51.7201 58.1ZM53.297 56.387C53.4884 56.125 53.6598 56.0163 53.8021 55.9892C53.9374 55.9634 54.1072 56.0003 54.3262 56.1718L54.6472 55.7616C54.3552 55.533 54.036 55.4144 53.7047 55.4775C53.3803 55.5393 53.1073 55.7639 52.8765 56.0797L53.297 56.387ZM54.3305 56.175C54.9805 56.6625 55.807 57.0737 56.8027 57.4132L56.9708 56.9202C56.0109 56.593 55.2374 56.2042 54.643 55.7583L54.3305 56.175ZM56.8078 57.4148C57.8104 57.7339 58.8259 57.8938 59.8534 57.8938V57.3729C58.8809 57.3729 57.9186 57.2217 56.9657 56.9185L56.8078 57.4148ZM59.8534 57.8938C61.2477 57.8938 62.3098 57.6602 62.9799 57.1389L62.6602 56.7278C62.1304 57.1399 61.2147 57.3729 59.8534 57.3729V57.8938ZM62.9846 57.1352C63.6455 56.5967 63.9632 55.9064 63.9133 55.0843L63.3935 55.1158C63.4325 55.7603 63.1947 56.2922 62.6556 56.7315L62.9846 57.1352ZM63.9135 55.0863C63.8883 54.6084 63.7225 54.1937 63.4114 53.8567L63.0287 54.21C63.2509 54.4507 63.3741 54.7472 63.3933 55.1137L63.9135 55.0863ZM63.4248 53.8725C63.1537 53.5274 62.7998 53.2487 62.3699 53.0338L62.1369 53.4996C62.507 53.6847 62.7975 53.9171 63.0153 54.1942L63.4248 53.8725ZM62.3699 53.0338C61.9455 52.8216 61.4772 52.6699 60.9666 52.5771L60.8735 53.0896C61.3408 53.1745 61.7613 53.3118 62.1369 53.4996L62.3699 53.0338ZM60.9688 52.5775C60.4864 52.4856 60.0034 52.4396 59.5201 52.4396V52.9604C59.9701 52.9604 60.4204 53.0033 60.8713 53.0892L60.9688 52.5775ZM59.5179 52.4396L55.5179 52.4729L55.5222 52.9938L59.5222 52.9604L59.5179 52.4396ZM55.5201 52.4729C55.2606 52.4729 55.0888 52.4004 54.9709 52.2825L54.6026 52.6508C54.8403 52.8885 55.1573 52.9938 55.5201 52.9938V52.4729ZM54.9709 52.2825C54.853 52.1646 54.7805 51.9928 54.7805 51.7333H54.2596C54.2596 52.0961 54.3649 52.4132 54.6026 52.6508L54.9709 52.2825ZM54.7805 51.7333V49H54.2596V51.7333H54.7805ZM54.7805 49C54.7805 48.7406 54.853 48.5687 54.9709 48.4508L54.6026 48.0825C54.3649 48.3202 54.2596 48.6372 54.2596 49H54.7805ZM54.9709 48.4508C55.0888 48.3329 55.2606 48.2604 55.5201 48.2604V47.7396C55.1573 47.7396 54.8403 47.8449 54.6026 48.0825L54.9709 48.4508ZM55.5179 48.2604L59.6179 48.2938L59.6222 47.7729L55.5222 47.7396L55.5179 48.2604ZM59.6201 48.2938C60.301 48.2938 60.9295 48.237 61.5045 48.122L61.4023 47.6113C60.8662 47.7185 60.2725 47.7729 59.6201 47.7729V48.2938ZM61.5142 48.1199C62.0941 47.9807 62.6014 47.7699 63.0312 47.4834L62.7423 47.05C62.3721 47.2968 61.9238 47.486 61.3926 47.6135L61.5142 48.1199ZM63.0258 47.4869C63.4782 47.2011 63.8318 46.8503 64.0779 46.432L63.6289 46.168C63.4305 46.5053 63.1397 46.7989 62.7477 47.0465L63.0258 47.4869ZM64.081 46.4265C64.3272 45.9834 64.4471 45.4834 64.4471 44.9333H63.9263C63.9263 45.4055 63.8241 45.8166 63.6258 46.1735L64.081 46.4265ZM64.4471 44.9265C64.4223 43.9846 63.9669 43.2602 63.1159 42.7739L62.8575 43.2261C63.5621 43.6287 63.9067 44.1932 63.9264 44.9402L64.4471 44.9265ZM63.1207 42.7767C62.2921 42.2795 61.2646 42.0396 60.0534 42.0396V42.5604C61.1978 42.5604 62.1258 42.7872 62.8527 43.2233L63.1207 42.7767ZM60.0534 42.0396C58.9612 42.0396 57.9435 42.1989 57.0026 42.5202L57.1709 43.0131C58.0521 42.7122 59.0123 42.5604 60.0534 42.5604V42.0396ZM57.0062 42.519C56.0941 42.8155 55.2282 43.2372 54.4089 43.7833L54.6979 44.2167C55.4786 43.6962 56.3016 43.2957 57.1672 43.0143L57.0062 42.519ZM54.4052 43.7859C54.1593 43.9561 53.9365 44.0083 53.7263 43.976L53.6471 44.4907C54.0147 44.5473 54.3697 44.4439 54.7016 44.2141L54.4052 43.7859ZM53.7295 43.9765C53.5634 43.9488 53.3987 43.8377 53.2462 43.5708L52.794 43.8292C52.997 44.1846 53.2767 44.429 53.6439 44.4902L53.7295 43.9765ZM53.2519 43.5814L51.7519 40.6481L51.2882 40.8852L52.7882 43.8186L53.2519 43.5814ZM51.753 40.6502C51.6153 40.3749 51.6112 40.19 51.6619 40.0634L51.1783 39.87C51.0511 40.1878 51.1137 40.5362 51.2871 40.8831L51.753 40.6502ZM51.6571 40.0744C51.7454 39.8802 51.9122 39.6782 52.1788 39.4731L51.8613 39.0603C51.5501 39.2996 51.3169 39.5643 51.183 39.8589L51.6571 40.0744ZM52.1779 39.4738C53.0852 38.7825 54.2155 38.1941 55.5738 37.7121L55.3996 37.2213C54.0024 37.717 52.8216 38.3286 51.8622 39.0595L52.1779 39.4738ZM55.5738 37.7121C56.92 37.2344 58.4123 36.9938 60.0534 36.9938V36.4729C58.3612 36.4729 56.809 36.7212 55.3996 37.2213L55.5738 37.7121ZM60.0534 36.9938C61.4978 36.9938 62.8043 37.1798 63.9752 37.5484L64.1316 37.0516C62.9025 36.6647 61.5423 36.4729 60.0534 36.4729V36.9938ZM63.9765 37.5488C65.1722 37.9184 66.1744 38.4374 66.9888 39.1018L67.318 38.6982C66.4435 37.9848 65.379 37.4372 64.1303 37.0512L63.9765 37.5488ZM66.9946 39.1064C67.8291 39.7483 68.4695 40.5384 68.9184 41.4788L69.3884 41.2545C68.9039 40.2394 68.211 39.385 67.3122 38.6936L66.9946 39.1064ZM68.9194 41.481C69.3669 42.3972 69.593 43.4242 69.593 44.5667H70.1138C70.1138 43.3536 69.8732 42.2472 69.3874 41.2524L68.9194 41.481ZM69.593 44.5667C69.593 45.9828 69.2078 47.2176 68.4421 48.2812L68.8647 48.5855C69.699 47.4268 70.1138 46.0838 70.1138 44.5667H69.593ZM68.4401 48.284C67.6938 49.3501 66.7171 50.082 65.5044 50.4863L65.6691 50.9804C66.9897 50.5402 68.0575 49.7388 68.8667 48.5827L68.4401 48.284ZM65.5264 50.9867C65.952 51.088 66.3626 51.2917 66.7587 51.6044L67.0814 51.1956C66.6331 50.8417 66.1548 50.6009 65.647 50.48L65.5264 50.9867ZM66.7707 51.6134C67.1896 51.9066 67.5577 52.2741 67.8748 52.718L68.2986 52.4153C67.9491 51.926 67.5394 51.5157 67.0694 51.1867L66.7707 51.6134ZM67.8784 52.7229C68.1934 53.143 68.436 53.6168 68.6054 54.146L69.1014 53.9873C68.9152 53.4055 68.6467 52.8792 68.2951 52.4104L67.8784 52.7229ZM68.6084 54.1549C68.7984 54.6828 68.893 55.2196 68.893 55.7667H69.4138C69.4138 55.1582 69.3084 54.5617 69.0984 53.9785L68.6084 54.1549ZM68.893 55.7667C68.893 56.7265 68.6801 57.6068 68.2563 58.4121L68.7172 58.6546C69.1823 57.771 69.4138 56.8068 69.4138 55.7667H68.893ZM68.2576 58.4095C67.8323 59.1964 67.2359 59.8793 66.4638 60.4583L66.7763 60.875C67.6043 60.254 68.2523 59.5148 68.7158 58.6572L68.2576 58.4095ZM66.4638 60.4583C65.6928 61.0366 64.7554 61.4907 63.6466 61.8168L63.7935 62.3165C64.9514 61.976 65.9474 61.4967 66.7763 60.875L66.4638 60.4583ZM63.6452 61.8172C62.564 62.1416 61.3468 62.2948 59.9909 62.273L59.9825 62.7937C61.3822 62.8163 62.6539 62.6584 63.7949 62.3161L63.6452 61.8172ZM59.9937 62.273C58.3542 62.2293 56.8748 61.9344 55.5522 61.3924L55.3546 61.8743C56.7431 62.4434 58.2859 62.7485 59.9798 62.7937L59.9937 62.273ZM55.5501 61.3916C54.2452 60.8696 53.1063 60.1532 52.1311 59.243L51.7757 59.6237C52.8004 60.5801 53.9949 61.3304 55.3567 61.8751L55.5501 61.3916ZM52.1264 59.2387C51.9569 59.088 51.8536 58.9278 51.8028 58.7585L51.304 58.9082C51.3865 59.1834 51.5499 59.4231 51.7804 59.628L52.1264 59.2387ZM51.8028 58.7585C51.7661 58.636 51.7847 58.4725 51.9367 58.2445L51.5034 57.9556C51.2998 58.2609 51.2074 58.5862 51.304 58.9082L51.8028 58.7585ZM51.9302 58.2538L53.2969 56.3872L52.8766 56.0795L51.5099 57.9462L51.9302 58.2538Z" fill="url(#paint8_linear_366_9812)" style="mix-blend-mode:color-burn" mask="url(#path-12-outside-2_366_9812)"/>
</g>
<defs>
<filter id="filter0_d_366_9812" x="-4.16667" y="-3.125" width="108.333" height="108.333" filterUnits="userSpaceOnUse" color-interpolation-filters="sRGB">
<feFlood flood-opacity="0" result="BackgroundImageFix"/>
<feColorMatrix in="SourceAlpha" type="matrix" values="0 0 0 0 0 0 0 0 0 0 0 0 0 0 0 0 0 0 127 0" result="hardAlpha"/>
<feOffset dy="1.04167"/>
<feGaussianBlur stdDeviation="2.08333"/>
<feColorMatrix type="matrix" values="0 0 0 0 0 0 0 0 0 0 0 0 0 0 0 0 0 0 0.16 0"/>
<feBlend mode="color-burn" in2="BackgroundImageFix" result="effect1_dropShadow_366_9812"/>
<feBlend mode="normal" in="SourceGraphic" in2="effect1_dropShadow_366_9812" result="shape"/>
</filter>
<filter id="filter1_d_366_9812" x="23.1237" y="31.2646" width="53.2401" height="38.8229" filterUnits="userSpaceOnUse" color-interpolation-filters="sRGB">
<feFlood flood-opacity="0" result="BackgroundImageFix"/>
<feColorMatrix in="SourceAlpha" type="matrix" values="0 0 0 0 0 0 0 0 0 0 0 0 0 0 0 0 0 0 127 0" result="hardAlpha"/>
<feOffset dy="1.04167"/>
<feGaussianBlur stdDeviation="3.125"/>
<feColorMatrix type="matrix" values="0 0 0 0 0 0 0 0 0 0 0 0 0 0 0 0 0 0 0.12 0"/>
<feBlend mode="plus-darker" in2="BackgroundImageFix" result="effect1_dropShadow_366_9812"/>
<feBlend mode="normal" in="SourceGraphic" in2="effect1_dropShadow_366_9812" result="shape"/>
</filter>
<linearGradient id="paint0_linear_366_9812" x1="122.917" y1="122.917" x2="-51.5238" y2="31.9277" gradientUnits="userSpaceOnUse">
<stop stop-color="#AD49E8"/>
<stop offset="1" stop-color="#831DBF"/>
</linearGradient>
<linearGradient id="paint1_linear_366_9812" x1="50" y1="-6.39143" x2="50" y2="105.635" gradientUnits="userSpaceOnUse">
<stop stop-color="white"/>
<stop offset="1" stop-color="white" stop-opacity="0"/>
</linearGradient>
<radialGradient id="paint2_radial_366_9812" cx="0" cy="0" r="1" gradientUnits="userSpaceOnUse" gradientTransform="translate(50 25.7865) rotate(90) scale(73.89 56.0618)">
<stop stop-color="white"/>
<stop offset="1" stop-color="white" stop-opacity="0"/>
</radialGradient>
<linearGradient id="paint3_linear_366_9812" x1="122.917" y1="122.917" x2="-51.5238" y2="31.9277" gradientUnits="userSpaceOnUse">
<stop stop-color="#AD49E8"/>
<stop offset="1" stop-color="#831DBF"/>
</linearGradient>
<linearGradient id="paint4_linear_366_9812" x1="50" y1="-6.39143" x2="50" y2="105.635" gradientUnits="userSpaceOnUse">
<stop stop-color="white"/>
<stop offset="1" stop-color="white" stop-opacity="0"/>
</linearGradient>
<radialGradient id="paint5_radial_366_9812" cx="0" cy="0" r="1" gradientUnits="userSpaceOnUse" gradientTransform="translate(50 25.7865) rotate(90) scale(73.89 56.0618)">
<stop stop-color="white"/>
<stop offset="1" stop-color="white" stop-opacity="0"/>
</radialGradient>
<linearGradient id="paint6_linear_366_9812" x1="-22.9167" y1="-22.9167" x2="-22.9167" y2="122.917" gradientUnits="userSpaceOnUse">
<stop offset="0.135095" stop-color="white"/>
<stop offset="0.877908" stop-color="white" stop-opacity="0.01"/>
</linearGradient>
<linearGradient id="paint7_linear_366_9812" x1="50" y1="0" x2="50" y2="100" gradientUnits="userSpaceOnUse">
<stop stop-color="white"/>
<stop offset="1" stop-color="#999999"/>
</linearGradient>
<linearGradient id="paint8_linear_366_9812" x1="50" y1="33.3333" x2="50" y2="66.3333" gradientUnits="userSpaceOnUse">
<stop stop-color="#DFDFDF"/>
<stop offset="1" stop-color="#A9A9A9"/>
</linearGradient>
</defs>
</svg>
