<svg width="100" height="100" viewBox="0 0 100 100" fill="none" xmlns="http://www.w3.org/2000/svg">
<mask id="mask0_366_9807" style="mask-type:alpha" maskUnits="userSpaceOnUse" x="0" y="0" width="100" height="100">
<circle cx="50" cy="50" r="50" fill="white"/>
</mask>
<g mask="url(#mask0_366_9807)">
<mask id="mask1_366_9807" style="mask-type:alpha" maskUnits="userSpaceOnUse" x="0" y="0" width="100" height="100">
<circle cx="50" cy="50" r="50" fill="white"/>
</mask>
<g mask="url(#mask1_366_9807)">
<rect x="-22.9167" y="-22.9167" width="145.833" height="145.833" fill="url(#paint0_linear_366_9807)"/>
<rect x="-22.9167" y="-22.9167" width="145.833" height="145.833" fill="url(#paint1_linear_366_9807)" fill-opacity="0.6" style="mix-blend-mode:overlay"/>
<rect x="-22.9167" y="-22.9167" width="145.833" height="145.833" fill="url(#paint2_radial_366_9807)" fill-opacity="0.6" style="mix-blend-mode:overlay"/>
<rect x="-22.9167" y="-22.9167" width="145.833" height="145.833" fill="black" fill-opacity="0.16" style="mix-blend-mode:overlay"/>
<rect x="-22.9167" y="-22.9167" width="145.833" height="145.833" fill="black" fill-opacity="0.12" style="mix-blend-mode:darken"/>
</g>
<g filter="url(#filter0_d_366_9807)">
<mask id="mask2_366_9807" style="mask-type:alpha" maskUnits="userSpaceOnUse" x="0" y="0" width="100" height="100">
<path fill-rule="evenodd" clip-rule="evenodd" d="M95.8333 50C95.8333 75.313 75.313 95.8333 50 95.8333C24.6869 95.8333 4.16667 75.313 4.16667 50C4.16667 24.6869 24.6869 4.16667 50 4.16667C75.313 4.16667 95.8333 24.6869 95.8333 50ZM100 50C100 77.6142 77.6142 100 50 100C22.3858 100 0 77.6142 0 50C0 22.3858 22.3858 0 50 0C77.6142 0 100 22.3858 100 50ZM50 88.0208C70.9983 88.0208 88.0208 70.9983 88.0208 50C88.0208 29.0017 70.9983 11.9792 50 11.9792C29.0017 11.9792 11.9792 29.0017 11.9792 50C11.9792 70.9983 29.0017 88.0208 50 88.0208Z" fill="white"/>
</mask>
<g mask="url(#mask2_366_9807)">
<rect x="-22.9167" y="-22.9167" width="145.833" height="145.833" fill="url(#paint3_linear_366_9807)"/>
<rect x="-22.9167" y="-22.9167" width="145.833" height="145.833" fill="url(#paint4_linear_366_9807)" fill-opacity="0.6" style="mix-blend-mode:overlay"/>
<rect x="-22.9167" y="-22.9167" width="145.833" height="145.833" fill="url(#paint5_radial_366_9807)" fill-opacity="0.6" style="mix-blend-mode:overlay"/>
<g style="mix-blend-mode:soft-light">
<path fill-rule="evenodd" clip-rule="evenodd" d="M-22.9167 -22.9167H64.5833L36.6578 122.917H-22.9167V-22.9167Z" fill="url(#paint6_linear_366_9807)" style="mix-blend-mode:lighten"/>
</g>
<g style="mix-blend-mode:soft-light">
<mask id="path-10-inside-1_366_9807" fill="white">
<path fill-rule="evenodd" clip-rule="evenodd" d="M95.8333 50C95.8333 75.313 75.313 95.8333 50 95.8333C24.6869 95.8333 4.16667 75.313 4.16667 50C4.16667 24.6869 24.6869 4.16667 50 4.16667C75.313 4.16667 95.8333 24.6869 95.8333 50ZM100 50C100 77.6142 77.6142 100 50 100C22.3858 100 0 77.6142 0 50C0 22.3858 22.3858 0 50 0C77.6142 0 100 22.3858 100 50ZM50 88.0208C70.9983 88.0208 88.0208 70.9983 88.0208 50C88.0208 29.0017 70.9983 11.9792 50 11.9792C29.0017 11.9792 11.9792 29.0017 11.9792 50C11.9792 70.9983 29.0017 88.0208 50 88.0208Z"/>
</mask>
<path d="M50 96.0938C75.4569 96.0938 96.0938 75.4569 96.0938 50H95.5729C95.5729 75.1692 75.1692 95.5729 50 95.5729V96.0938ZM3.90625 50C3.90625 75.4569 24.5431 96.0938 50 96.0938V95.5729C24.8308 95.5729 4.42708 75.1692 4.42708 50H3.90625ZM50 3.90625C24.5431 3.90625 3.90625 24.5431 3.90625 50H4.42708C4.42708 24.8308 24.8308 4.42708 50 4.42708V3.90625ZM96.0938 50C96.0938 24.5431 75.4569 3.90625 50 3.90625V4.42708C75.1692 4.42708 95.5729 24.8308 95.5729 50H96.0938ZM50 100.26C77.7581 100.26 100.26 77.7581 100.26 50H99.7396C99.7396 77.4704 77.4704 99.7396 50 99.7396V100.26ZM-0.260417 50C-0.260417 77.7581 22.2419 100.26 50 100.26V99.7396C22.5296 99.7396 0.260417 77.4704 0.260417 50H-0.260417ZM50 -0.260417C22.2419 -0.260417 -0.260417 22.2419 -0.260417 50H0.260417C0.260417 22.5296 22.5296 0.260417 50 0.260417V-0.260417ZM100.26 50C100.26 22.2419 77.7581 -0.260417 50 -0.260417V0.260417C77.4704 0.260417 99.7396 22.5296 99.7396 50H100.26ZM87.7604 50C87.7604 70.8545 70.8545 87.7604 50 87.7604V88.2812C71.1421 88.2812 88.2812 71.1421 88.2812 50H87.7604ZM50 12.2396C70.8545 12.2396 87.7604 29.1455 87.7604 50H88.2812C88.2812 28.8578 71.1421 11.7188 50 11.7188V12.2396ZM12.2396 50C12.2396 29.1455 29.1455 12.2396 50 12.2396V11.7188C28.8578 11.7188 11.7188 28.8578 11.7188 50H12.2396ZM50 87.7604C29.1455 87.7604 12.2396 70.8545 12.2396 50H11.7188C11.7188 71.1421 28.8578 88.2812 50 88.2812V87.7604Z" fill="url(#paint7_linear_366_9807)" mask="url(#path-10-inside-1_366_9807)"/>
</g>
</g>
</g>
</g>
<g filter="url(#filter1_d_366_9807)">
<mask id="path-12-outside-2_366_9807" maskUnits="userSpaceOnUse" x="29.3333" y="36.3333" width="41" height="27" fill="black">
<rect fill="white" x="29.3333" y="36.3333" width="41" height="27"/>
<path d="M38.1682 62.2C37.5016 62.2 37.1682 61.8666 37.1682 61.2L36.8682 42.3666L30.7682 42.3333C30.4127 42.3333 30.1238 42.2333 29.9016 42.0333C29.7016 41.8111 29.6016 41.5222 29.6016 41.1666V38.4333C29.6016 38.0778 29.7016 37.8 29.9016 37.6C30.1238 37.3778 30.4127 37.2666 30.7682 37.2666L48.8682 37.2333C49.2238 37.2333 49.5016 37.3444 49.7016 37.5666C49.9238 37.7666 50.0349 38.0444 50.0349 38.4V41.1333C50.0349 41.4889 49.9238 41.7778 49.7016 42C49.5016 42.2 49.2238 42.3 48.8682 42.3L42.7682 42.3666L42.4349 61.2C42.4349 61.8666 42.1016 62.2 41.4349 62.2H38.1682ZM52.9542 58.7333C52.9542 58.3555 53.0431 58.0778 53.2208 57.9C53.3986 57.7 53.7097 57.4444 54.1542 57.1333C55.2653 56.4 56.3653 55.5778 57.4542 54.6666C58.5653 53.7555 59.5653 52.8111 60.4542 51.8333C61.3653 50.8555 62.1097 49.8889 62.6875 48.9333C63.2875 47.9555 63.632 47.0555 63.7208 46.2333C63.7875 45.6778 63.7431 45.1666 63.5875 44.7C63.432 44.2111 63.1986 43.7889 62.8875 43.4333C62.5764 43.0778 62.1764 42.8 61.6875 42.6C61.1986 42.4 60.6542 42.3 60.0542 42.3C59.1653 42.3 58.332 42.5 57.5542 42.9C56.7986 43.3 56.1431 43.8666 55.5875 44.6C55.3875 44.8666 55.1431 45 54.8542 45C54.5875 44.9778 54.3431 44.8778 54.1208 44.7L51.3875 42.8C50.9653 42.4 50.9208 41.9444 51.2542 41.4333C52.232 39.9666 53.432 38.8222 54.8542 38C56.2986 37.1555 58.032 36.7333 60.0542 36.7333C61.6097 36.7333 62.9764 36.9778 64.1542 37.4666C65.332 37.9333 66.3097 38.5666 67.0875 39.3666C67.8875 40.1666 68.4764 41.1 68.8542 42.1666C69.232 43.2111 69.3875 44.3222 69.3208 45.5C69.2542 46.6778 68.9542 47.8444 68.4208 49C67.8875 50.1333 67.2208 51.2222 66.4208 52.2666C65.6431 53.2889 64.7764 54.2333 63.8208 55.1C62.8875 55.9666 61.9764 56.7111 61.0875 57.3333C62.4208 57.2666 63.7208 57.1778 64.9875 57.0666C66.2542 56.9333 67.3875 56.7778 68.3875 56.6C69.032 56.4889 69.3986 56.7111 69.4875 57.2666L69.9875 60.0333C70.1208 60.7 69.8875 61.0889 69.2875 61.2C66.9097 61.5778 64.5097 61.8444 62.0875 62C59.6653 62.1778 57.0097 62.2444 54.1208 62.2C53.3431 62.2 52.9542 61.8111 52.9542 61.0333V58.7333Z"/>
</mask>
<path d="M38.1682 62.2C37.5016 62.2 37.1682 61.8666 37.1682 61.2L36.8682 42.3666L30.7682 42.3333C30.4127 42.3333 30.1238 42.2333 29.9016 42.0333C29.7016 41.8111 29.6016 41.5222 29.6016 41.1666V38.4333C29.6016 38.0778 29.7016 37.8 29.9016 37.6C30.1238 37.3778 30.4127 37.2666 30.7682 37.2666L48.8682 37.2333C49.2238 37.2333 49.5016 37.3444 49.7016 37.5666C49.9238 37.7666 50.0349 38.0444 50.0349 38.4V41.1333C50.0349 41.4889 49.9238 41.7778 49.7016 42C49.5016 42.2 49.2238 42.3 48.8682 42.3L42.7682 42.3666L42.4349 61.2C42.4349 61.8666 42.1016 62.2 41.4349 62.2H38.1682ZM52.9542 58.7333C52.9542 58.3555 53.0431 58.0778 53.2208 57.9C53.3986 57.7 53.7097 57.4444 54.1542 57.1333C55.2653 56.4 56.3653 55.5778 57.4542 54.6666C58.5653 53.7555 59.5653 52.8111 60.4542 51.8333C61.3653 50.8555 62.1097 49.8889 62.6875 48.9333C63.2875 47.9555 63.632 47.0555 63.7208 46.2333C63.7875 45.6778 63.7431 45.1666 63.5875 44.7C63.432 44.2111 63.1986 43.7889 62.8875 43.4333C62.5764 43.0778 62.1764 42.8 61.6875 42.6C61.1986 42.4 60.6542 42.3 60.0542 42.3C59.1653 42.3 58.332 42.5 57.5542 42.9C56.7986 43.3 56.1431 43.8666 55.5875 44.6C55.3875 44.8666 55.1431 45 54.8542 45C54.5875 44.9778 54.3431 44.8778 54.1208 44.7L51.3875 42.8C50.9653 42.4 50.9208 41.9444 51.2542 41.4333C52.232 39.9666 53.432 38.8222 54.8542 38C56.2986 37.1555 58.032 36.7333 60.0542 36.7333C61.6097 36.7333 62.9764 36.9778 64.1542 37.4666C65.332 37.9333 66.3097 38.5666 67.0875 39.3666C67.8875 40.1666 68.4764 41.1 68.8542 42.1666C69.232 43.2111 69.3875 44.3222 69.3208 45.5C69.2542 46.6778 68.9542 47.8444 68.4208 49C67.8875 50.1333 67.2208 51.2222 66.4208 52.2666C65.6431 53.2889 64.7764 54.2333 63.8208 55.1C62.8875 55.9666 61.9764 56.7111 61.0875 57.3333C62.4208 57.2666 63.7208 57.1778 64.9875 57.0666C66.2542 56.9333 67.3875 56.7778 68.3875 56.6C69.032 56.4889 69.3986 56.7111 69.4875 57.2666L69.9875 60.0333C70.1208 60.7 69.8875 61.0889 69.2875 61.2C66.9097 61.5778 64.5097 61.8444 62.0875 62C59.6653 62.1778 57.0097 62.2444 54.1208 62.2C53.3431 62.2 52.9542 61.8111 52.9542 61.0333V58.7333Z" fill="white"/>
<path d="M37.1682 61.2H37.4287L37.4286 61.1958L37.1682 61.2ZM36.8682 42.3666L37.1286 42.3625L37.1246 42.1076L36.8697 42.1062L36.8682 42.3666ZM30.7682 42.3333L30.7697 42.0729H30.7682V42.3333ZM29.9016 42.0333L29.708 42.2075L29.7172 42.2177L29.7274 42.2269L29.9016 42.0333ZM29.9016 37.6L29.7174 37.4158L29.9016 37.6ZM30.7682 37.2666V37.5271L30.7687 37.5271L30.7682 37.2666ZM48.8682 37.2333V36.9729L48.8678 36.9729L48.8682 37.2333ZM49.7016 37.5666L49.508 37.7409L49.5172 37.751L49.5274 37.7602L49.7016 37.5666ZM48.8682 42.3V42.0395L48.8654 42.0396L48.8682 42.3ZM42.7682 42.3666L42.7654 42.1062L42.5123 42.109L42.5079 42.362L42.7682 42.3666ZM42.4349 61.2L42.1745 61.1954V61.2H42.4349ZM38.1682 61.9396C37.875 61.9396 37.703 61.8664 37.6024 61.7658C37.5018 61.6652 37.4287 61.4932 37.4287 61.2H36.9078C36.9078 61.5735 37.0014 61.9014 37.2341 62.1341C37.4668 62.3669 37.7948 62.4604 38.1682 62.4604V61.9396ZM37.4286 61.1958L37.1286 42.3625L36.6079 42.3708L36.9079 61.2041L37.4286 61.1958ZM36.8697 42.1062L30.7697 42.0729L30.7668 42.5937L36.8668 42.6271L36.8697 42.1062ZM30.7682 42.0729C30.4642 42.0729 30.2414 41.9888 30.0758 41.8397L29.7274 42.2269C30.0062 42.4778 30.3612 42.5937 30.7682 42.5937V42.0729ZM30.0951 41.8591C29.9461 41.6935 29.862 41.4707 29.862 41.1666H29.3412C29.3412 41.5737 29.4571 41.9287 29.708 42.2075L30.0951 41.8591ZM29.862 41.1666V38.4333H29.3412V41.1666H29.862ZM29.862 38.4333C29.862 38.1281 29.9464 37.9235 30.0857 37.7841L29.7174 37.4158C29.4568 37.6765 29.3412 38.0274 29.3412 38.4333H29.862ZM30.0857 37.7841C30.2525 37.6173 30.4719 37.5271 30.7682 37.5271V37.0062C30.3535 37.0062 29.9951 37.1382 29.7174 37.4158L30.0857 37.7841ZM30.7687 37.5271L48.8687 37.4937L48.8678 36.9729L30.7678 37.0062L30.7687 37.5271ZM48.8682 37.4937C49.1652 37.4937 49.3668 37.5839 49.508 37.7409L49.8951 37.3924C49.6364 37.1049 49.2824 36.9729 48.8682 36.9729V37.4937ZM49.5274 37.7602C49.6843 37.9015 49.7745 38.103 49.7745 38.4H50.2953C50.2953 37.9859 50.1633 37.6318 49.8758 37.3731L49.5274 37.7602ZM49.7745 38.4V41.1333H50.2953V38.4H49.7745ZM49.7745 41.1333C49.7745 41.4297 49.6842 41.649 49.5174 41.8158L49.8857 42.1841C50.1633 41.9065 50.2953 41.548 50.2953 41.1333H49.7745ZM49.5174 41.8158C49.3781 41.9552 49.1735 42.0396 48.8682 42.0396V42.5604C49.2741 42.5604 49.6251 42.4448 49.8857 42.1841L49.5174 41.8158ZM48.8654 42.0396L42.7654 42.1062L42.7711 42.627L48.8711 42.5604L48.8654 42.0396ZM42.5079 42.362L42.1745 61.1954L42.6953 61.2046L43.0286 42.3713L42.5079 42.362ZM42.1745 61.2C42.1745 61.4932 42.1014 61.6652 42.0008 61.7658C41.9002 61.8664 41.7281 61.9396 41.4349 61.9396V62.4604C41.8084 62.4604 42.1363 62.3669 42.369 62.1341C42.6018 61.9014 42.6953 61.5735 42.6953 61.2H42.1745ZM41.4349 61.9396H38.1682V62.4604H41.4349V61.9396ZM53.2208 57.9L53.405 58.0841L53.4104 58.0787L53.4155 58.073L53.2208 57.9ZM54.1542 57.1333L54.0107 56.9159L54.0048 56.92L54.1542 57.1333ZM57.4542 54.6666L57.289 54.4653L57.2871 54.4669L57.4542 54.6666ZM60.4542 51.8333L60.2636 51.6558L60.2615 51.6581L60.4542 51.8333ZM62.6875 48.9333L62.4655 48.7971L62.4647 48.7986L62.6875 48.9333ZM63.7208 46.2333L63.4623 46.2023L63.4619 46.2053L63.7208 46.2333ZM63.5875 44.7L63.3393 44.7789L63.3405 44.7823L63.5875 44.7ZM62.8875 43.4333L63.0835 43.2618V43.2618L62.8875 43.4333ZM61.6875 42.6L61.5889 42.841L61.6875 42.6ZM57.5542 42.9L57.4351 42.6684L57.4323 42.6698L57.5542 42.9ZM55.5875 44.6L55.3799 44.4427L55.3792 44.4437L55.5875 44.6ZM54.8542 45L54.8326 45.2595L54.8433 45.2604H54.8542V45ZM54.1208 44.7L54.2835 44.4966L54.2767 44.4912L54.2695 44.4861L54.1208 44.7ZM51.3875 42.8L51.2084 42.989L51.2227 43.0026L51.2389 43.0138L51.3875 42.8ZM51.2542 41.4333L51.0375 41.2889L51.036 41.2911L51.2542 41.4333ZM54.8542 38L54.9845 38.2254L54.9856 38.2248L54.8542 38ZM64.1542 37.4666L64.0543 37.7072L64.0582 37.7088L64.1542 37.4666ZM67.0875 39.3666L66.9008 39.5482L66.9034 39.5508L67.0875 39.3666ZM68.8542 42.1666L68.6087 42.2536L68.6093 42.2552L68.8542 42.1666ZM69.3208 45.5L69.0608 45.4853V45.4853L69.3208 45.5ZM68.4208 49L68.6565 49.1109L68.6573 49.1091L68.4208 49ZM66.4208 52.2666L66.2141 52.1083L66.2136 52.109L66.4208 52.2666ZM63.8208 55.1L63.6459 54.9071L63.6436 54.9091L63.8208 55.1ZM61.0875 57.3333L60.9382 57.12L60.1973 57.6386L61.1005 57.5934L61.0875 57.3333ZM64.9875 57.0666L65.0103 57.3261L65.0148 57.3256L64.9875 57.0666ZM68.3875 56.6L68.3433 56.3433L68.3419 56.3436L68.3875 56.6ZM69.4875 57.2666L69.2303 57.3078L69.2312 57.313L69.4875 57.2666ZM69.9875 60.0333L69.7312 60.0796L69.7322 60.0844L69.9875 60.0333ZM69.2875 61.2L69.3284 61.4573L69.3349 61.456L69.2875 61.2ZM62.0875 62L62.0708 61.7401L62.0684 61.7403L62.0875 62ZM54.1208 62.2L54.1249 61.9396H54.1208V62.2ZM53.2146 58.7333C53.2146 58.3903 53.2959 58.1932 53.405 58.0841L53.0367 57.7158C52.7903 57.9623 52.6938 58.3207 52.6938 58.7333H53.2146ZM53.4155 58.073C53.5721 57.8968 53.8624 57.6555 54.3035 57.3467L54.0048 56.92C53.5571 57.2334 53.2251 57.5032 53.0262 57.727L53.4155 58.073ZM54.2976 57.3507C55.4175 56.6116 56.5253 55.7834 57.6213 54.8664L57.2871 54.4669C56.2052 55.3721 55.1131 56.1884 54.0107 56.916L54.2976 57.3507ZM57.6193 54.868C58.7394 53.9495 59.7487 52.9964 60.6469 52.0085L60.2615 51.6581C59.3818 52.6257 58.3912 53.5615 57.2891 54.4653L57.6193 54.868ZM60.6447 52.0108C61.5657 51.0224 62.3217 50.0416 62.9104 49.0681L62.4647 48.7986C61.8978 49.7361 61.1649 50.6886 60.2637 51.6558L60.6447 52.0108ZM62.9095 49.0695C63.5223 48.0708 63.8854 47.1337 63.9798 46.2613L63.4619 46.2053C63.3785 46.9773 63.0527 47.8403 62.4655 48.7971L62.9095 49.0695ZM63.9794 46.2643C64.05 45.6759 64.0038 45.1255 63.8346 44.6176L63.3405 44.7823C63.4823 45.2078 63.525 45.6797 63.4623 46.2023L63.9794 46.2643ZM63.8357 44.621C63.6702 44.101 63.4201 43.6466 63.0835 43.2618L62.6915 43.6048C62.9771 43.9312 63.1937 44.3212 63.3394 44.7789L63.8357 44.621ZM63.0835 43.2618C62.7428 42.8724 62.308 42.5724 61.7861 42.359L61.5889 42.841C62.0448 43.0275 62.41 43.2831 62.6915 43.6048L63.0835 43.2618ZM61.7861 42.359C61.262 42.1445 60.6834 42.0396 60.0542 42.0396V42.5604C60.6249 42.5604 61.1353 42.6554 61.5889 42.841L61.7861 42.359ZM60.0542 42.0396C59.1246 42.0396 58.2503 42.2491 57.4351 42.6684L57.6733 43.1316C58.4136 42.7508 59.206 42.5604 60.0542 42.5604V42.0396ZM57.4323 42.6698C56.6407 43.0889 55.9566 43.6815 55.3799 44.4427L55.7951 44.7572C56.3295 44.0518 56.9565 43.511 57.676 43.1301L57.4323 42.6698ZM55.3792 44.4437C55.2197 44.6563 55.0477 44.7396 54.8542 44.7396V45.2604C55.2384 45.2604 55.5553 45.077 55.7958 44.7562L55.3792 44.4437ZM54.8758 44.7405C54.664 44.7228 54.468 44.6442 54.2835 44.4966L53.9582 44.9033C54.2181 45.1113 54.511 45.2327 54.8326 45.2595L54.8758 44.7405ZM54.2695 44.4861L51.5361 42.5861L51.2389 43.0138L53.9722 44.9138L54.2695 44.4861ZM51.5666 42.6109C51.3884 42.4421 51.3113 42.2829 51.2967 42.133C51.2819 41.9812 51.3272 41.7981 51.4723 41.5756L51.036 41.2911C50.8478 41.5796 50.7487 41.8799 50.7783 42.1836C50.8081 42.4893 50.9644 42.7579 51.2084 42.989L51.5666 42.6109ZM51.4709 41.5778C52.4281 40.1419 53.5994 39.0262 54.9845 38.2254L54.7238 37.7745C53.2645 38.6182 52.0358 39.7914 51.0375 41.2889L51.4709 41.5778ZM54.9856 38.2248C56.3826 37.4081 58.0685 36.9937 60.0542 36.9937V36.4729C57.9954 36.4729 56.2146 36.903 54.7227 37.7752L54.9856 38.2248ZM60.0542 36.9937C61.5828 36.9937 62.9143 37.234 64.0543 37.7072L64.254 37.2261C63.0385 36.7216 61.6367 36.4729 60.0542 36.4729V36.9937ZM64.0582 37.7088C65.2065 38.1637 66.1519 38.7779 66.9008 39.5482L67.2742 39.1851C66.4675 38.3554 65.4575 37.7029 64.2501 37.2245L64.0582 37.7088ZM66.9034 39.5508C67.6759 40.3234 68.2439 41.2235 68.6087 42.2536L69.0997 42.0797C68.7089 40.9765 68.0991 40.0099 67.2717 39.1825L66.9034 39.5508ZM68.6093 42.2552C68.9744 43.2646 69.1256 44.3404 69.0608 45.4853L69.5808 45.5147C69.6494 44.304 69.4895 43.1576 69.0991 42.0781L68.6093 42.2552ZM69.0608 45.4853C68.9962 46.6279 68.7051 47.7626 68.1844 48.8909L68.6573 49.1091C69.2033 47.9262 69.5122 46.7276 69.5808 45.5147L69.0608 45.4853ZM68.1852 48.8891C67.6602 50.0048 67.0034 51.0779 66.2141 52.1083L66.6276 52.425C67.4383 51.3665 68.1148 50.2618 68.6565 49.1109L68.1852 48.8891ZM66.2136 52.109C65.4455 53.1184 64.5897 54.0511 63.6459 54.9071L63.9958 55.2929C64.9631 54.4155 65.8406 53.4593 66.6281 52.4243L66.2136 52.109ZM63.6436 54.9091C62.7176 55.769 61.8158 56.5057 60.9382 57.12L61.2369 57.5467C62.137 56.9165 63.0574 56.1643 63.998 55.2908L63.6436 54.9091ZM61.1005 57.5934C62.4369 57.5266 63.7402 57.4375 65.0103 57.3261L64.9648 56.8072C63.7015 56.918 62.4047 57.0067 61.0745 57.0732L61.1005 57.5934ZM65.0148 57.3256C66.2861 57.1918 67.4257 57.0355 68.4331 56.8564L68.3419 56.3436C67.3493 56.5201 66.2222 56.6748 64.9602 56.8077L65.0148 57.3256ZM68.4318 56.8566C68.7234 56.8063 68.9033 56.8408 69.0109 56.906C69.1097 56.9659 69.194 57.0804 69.2304 57.3078L69.7447 57.2255C69.6922 56.8974 69.5486 56.6229 69.2808 56.4606C69.0218 56.3036 68.6961 56.2825 68.3433 56.3433L68.4318 56.8566ZM69.2312 57.313L69.7312 60.0796L70.2438 59.987L69.7438 57.2203L69.2312 57.313ZM69.7322 60.0844C69.7923 60.3851 69.7593 60.5742 69.6892 60.691C69.623 60.8014 69.4933 60.897 69.2401 60.9439L69.3349 61.456C69.6817 61.3918 69.9687 61.2375 70.1358 60.959C70.2991 60.6868 70.3161 60.3482 70.2429 59.9822L69.7322 60.0844ZM69.2466 60.9428C66.8769 61.3193 64.485 61.5851 62.0708 61.7401L62.1042 62.2599C64.5345 62.1038 66.9425 61.8362 69.3284 61.4572L69.2466 60.9428ZM62.0684 61.7403C59.6552 61.9174 57.0074 61.9839 54.1249 61.9396L54.1168 62.4604C57.012 62.5049 59.6754 62.4381 62.1066 62.2597L62.0684 61.7403ZM54.1208 61.9396C53.7721 61.9396 53.5584 61.8526 53.43 61.7242C53.3016 61.5958 53.2146 61.3821 53.2146 61.0333H52.6938C52.6938 61.4623 52.8012 61.8319 53.0617 62.0925C53.3222 62.353 53.6918 62.4604 54.1208 62.4604V61.9396ZM53.2146 61.0333V58.7333H52.6938V61.0333H53.2146Z" fill="url(#paint8_linear_366_9807)" style="mix-blend-mode:color-burn" mask="url(#path-12-outside-2_366_9807)"/>
</g>
<defs>
<filter id="filter0_d_366_9807" x="-4.16667" y="-3.125" width="108.333" height="108.333" filterUnits="userSpaceOnUse" color-interpolation-filters="sRGB">
<feFlood flood-opacity="0" result="BackgroundImageFix"/>
<feColorMatrix in="SourceAlpha" type="matrix" values="0 0 0 0 0 0 0 0 0 0 0 0 0 0 0 0 0 0 127 0" result="hardAlpha"/>
<feOffset dy="1.04167"/>
<feGaussianBlur stdDeviation="2.08333"/>
<feColorMatrix type="matrix" values="0 0 0 0 0 0 0 0 0 0 0 0 0 0 0 0 0 0 0.16 0"/>
<feBlend mode="color-burn" in2="BackgroundImageFix" result="effect1_dropShadow_366_9807"/>
<feBlend mode="normal" in="SourceGraphic" in2="effect1_dropShadow_366_9807" result="shape"/>
</filter>
<filter id="filter1_d_366_9807" x="23.0912" y="31.2646" width="53.4431" height="38.5009" filterUnits="userSpaceOnUse" color-interpolation-filters="sRGB">
<feFlood flood-opacity="0" result="BackgroundImageFix"/>
<feColorMatrix in="SourceAlpha" type="matrix" values="0 0 0 0 0 0 0 0 0 0 0 0 0 0 0 0 0 0 127 0" result="hardAlpha"/>
<feOffset dy="1.04167"/>
<feGaussianBlur stdDeviation="3.125"/>
<feColorMatrix type="matrix" values="0 0 0 0 0 0 0 0 0 0 0 0 0 0 0 0 0 0 0.12 0"/>
<feBlend mode="plus-darker" in2="BackgroundImageFix" result="effect1_dropShadow_366_9807"/>
<feBlend mode="normal" in="SourceGraphic" in2="effect1_dropShadow_366_9807" result="shape"/>
</filter>
<linearGradient id="paint0_linear_366_9807" x1="122.917" y1="122.917" x2="-51.5238" y2="31.9277" gradientUnits="userSpaceOnUse">
<stop stop-color="#AD49E8"/>
<stop offset="1" stop-color="#831DBF"/>
</linearGradient>
<linearGradient id="paint1_linear_366_9807" x1="50" y1="-6.39146" x2="50" y2="105.635" gradientUnits="userSpaceOnUse">
<stop stop-color="white"/>
<stop offset="1" stop-color="white" stop-opacity="0"/>
</linearGradient>
<radialGradient id="paint2_radial_366_9807" cx="0" cy="0" r="1" gradientUnits="userSpaceOnUse" gradientTransform="translate(50 25.7865) rotate(90) scale(73.89 56.0618)">
<stop stop-color="white"/>
<stop offset="1" stop-color="white" stop-opacity="0"/>
</radialGradient>
<linearGradient id="paint3_linear_366_9807" x1="122.917" y1="122.917" x2="-51.5238" y2="31.9277" gradientUnits="userSpaceOnUse">
<stop stop-color="#AD49E8"/>
<stop offset="1" stop-color="#831DBF"/>
</linearGradient>
<linearGradient id="paint4_linear_366_9807" x1="50" y1="-6.39146" x2="50" y2="105.635" gradientUnits="userSpaceOnUse">
<stop stop-color="white"/>
<stop offset="1" stop-color="white" stop-opacity="0"/>
</linearGradient>
<radialGradient id="paint5_radial_366_9807" cx="0" cy="0" r="1" gradientUnits="userSpaceOnUse" gradientTransform="translate(50 25.7865) rotate(90) scale(73.89 56.0618)">
<stop stop-color="white"/>
<stop offset="1" stop-color="white" stop-opacity="0"/>
</radialGradient>
<linearGradient id="paint6_linear_366_9807" x1="-22.9167" y1="-22.9167" x2="-22.9167" y2="122.917" gradientUnits="userSpaceOnUse">
<stop offset="0.135095" stop-color="white"/>
<stop offset="0.877908" stop-color="white" stop-opacity="0.01"/>
</linearGradient>
<linearGradient id="paint7_linear_366_9807" x1="50" y1="0" x2="50" y2="100" gradientUnits="userSpaceOnUse">
<stop stop-color="white"/>
<stop offset="1" stop-color="#999999"/>
</linearGradient>
<linearGradient id="paint8_linear_366_9807" x1="50" y1="33.3333" x2="50" y2="66.3333" gradientUnits="userSpaceOnUse">
<stop stop-color="#DFDFDF"/>
<stop offset="1" stop-color="#A9A9A9"/>
</linearGradient>
</defs>
</svg>
