<svg width="100" height="100" viewBox="0 0 100 100" fill="none" xmlns="http://www.w3.org/2000/svg">
<mask id="mask0_366_9816" style="mask-type:alpha" maskUnits="userSpaceOnUse" x="0" y="0" width="100" height="100">
<circle cx="50" cy="50" r="50" fill="white"/>
</mask>
<g mask="url(#mask0_366_9816)">
<mask id="mask1_366_9816" style="mask-type:alpha" maskUnits="userSpaceOnUse" x="0" y="0" width="100" height="100">
<circle cx="50" cy="50" r="50" fill="white"/>
</mask>
<g mask="url(#mask1_366_9816)">
<rect x="-22.9167" y="-22.9167" width="145.833" height="145.833" fill="url(#paint0_linear_366_9816)"/>
<rect x="-22.9167" y="-22.9167" width="145.833" height="145.833" fill="url(#paint1_linear_366_9816)" fill-opacity="0.6" style="mix-blend-mode:overlay"/>
<rect x="-22.9167" y="-22.9167" width="145.833" height="145.833" fill="url(#paint2_radial_366_9816)" fill-opacity="0.6" style="mix-blend-mode:overlay"/>
<rect x="-22.9167" y="-22.9167" width="145.833" height="145.833" fill="black" fill-opacity="0.16" style="mix-blend-mode:overlay"/>
<rect x="-22.9167" y="-22.9167" width="145.833" height="145.833" fill="black" fill-opacity="0.12" style="mix-blend-mode:darken"/>
</g>
<g filter="url(#filter0_d_366_9816)">
<mask id="mask2_366_9816" style="mask-type:alpha" maskUnits="userSpaceOnUse" x="0" y="0" width="100" height="100">
<path fill-rule="evenodd" clip-rule="evenodd" d="M95.8333 50C95.8333 75.313 75.313 95.8333 50 95.8333C24.6869 95.8333 4.16667 75.313 4.16667 50C4.16667 24.6869 24.6869 4.16667 50 4.16667C75.313 4.16667 95.8333 24.6869 95.8333 50ZM100 50C100 77.6142 77.6142 100 50 100C22.3858 100 0 77.6142 0 50C0 22.3858 22.3858 0 50 0C77.6142 0 100 22.3858 100 50ZM50 88.0208C70.9983 88.0208 88.0208 70.9983 88.0208 50C88.0208 29.0017 70.9983 11.9792 50 11.9792C29.0017 11.9792 11.9792 29.0017 11.9792 50C11.9792 70.9983 29.0017 88.0208 50 88.0208Z" fill="white"/>
</mask>
<g mask="url(#mask2_366_9816)">
<rect x="-22.9167" y="-22.9167" width="145.833" height="145.833" fill="url(#paint3_linear_366_9816)"/>
<rect x="-22.9167" y="-22.9167" width="145.833" height="145.833" fill="url(#paint4_linear_366_9816)" fill-opacity="0.6" style="mix-blend-mode:overlay"/>
<rect x="-22.9167" y="-22.9167" width="145.833" height="145.833" fill="url(#paint5_radial_366_9816)" fill-opacity="0.6" style="mix-blend-mode:overlay"/>
<g style="mix-blend-mode:soft-light">
<path fill-rule="evenodd" clip-rule="evenodd" d="M-22.9167 -22.9167H64.5833L36.6578 122.917H-22.9167V-22.9167Z" fill="url(#paint6_linear_366_9816)" style="mix-blend-mode:lighten"/>
</g>
<g style="mix-blend-mode:soft-light">
<mask id="path-10-inside-1_366_9816" fill="white">
<path fill-rule="evenodd" clip-rule="evenodd" d="M95.8333 50C95.8333 75.313 75.313 95.8333 50 95.8333C24.6869 95.8333 4.16667 75.313 4.16667 50C4.16667 24.6869 24.6869 4.16667 50 4.16667C75.313 4.16667 95.8333 24.6869 95.8333 50ZM100 50C100 77.6142 77.6142 100 50 100C22.3858 100 0 77.6142 0 50C0 22.3858 22.3858 0 50 0C77.6142 0 100 22.3858 100 50ZM50 88.0208C70.9983 88.0208 88.0208 70.9983 88.0208 50C88.0208 29.0017 70.9983 11.9792 50 11.9792C29.0017 11.9792 11.9792 29.0017 11.9792 50C11.9792 70.9983 29.0017 88.0208 50 88.0208Z"/>
</mask>
<path d="M50 96.0938C75.4569 96.0938 96.0938 75.4569 96.0938 50H95.5729C95.5729 75.1692 75.1692 95.5729 50 95.5729V96.0938ZM3.90625 50C3.90625 75.4569 24.5431 96.0938 50 96.0938V95.5729C24.8308 95.5729 4.42708 75.1692 4.42708 50H3.90625ZM50 3.90625C24.5431 3.90625 3.90625 24.5431 3.90625 50H4.42708C4.42708 24.8308 24.8308 4.42708 50 4.42708V3.90625ZM96.0938 50C96.0938 24.5431 75.4569 3.90625 50 3.90625V4.42708C75.1692 4.42708 95.5729 24.8308 95.5729 50H96.0938ZM50 100.26C77.7581 100.26 100.26 77.7581 100.26 50H99.7396C99.7396 77.4704 77.4704 99.7396 50 99.7396V100.26ZM-0.260417 50C-0.260417 77.7581 22.2419 100.26 50 100.26V99.7396C22.5296 99.7396 0.260417 77.4704 0.260417 50H-0.260417ZM50 -0.260417C22.2419 -0.260417 -0.260417 22.2419 -0.260417 50H0.260417C0.260417 22.5296 22.5296 0.260417 50 0.260417V-0.260417ZM100.26 50C100.26 22.2419 77.7581 -0.260417 50 -0.260417V0.260417C77.4704 0.260417 99.7396 22.5296 99.7396 50H100.26ZM87.7604 50C87.7604 70.8545 70.8545 87.7604 50 87.7604V88.2812C71.1421 88.2812 88.2812 71.1421 88.2812 50H87.7604ZM50 12.2396C70.8545 12.2396 87.7604 29.1455 87.7604 50H88.2812C88.2812 28.8578 71.1421 11.7188 50 11.7188V12.2396ZM12.2396 50C12.2396 29.1455 29.1455 12.2396 50 12.2396V11.7188C28.8578 11.7188 11.7188 28.8578 11.7188 50H12.2396ZM50 87.7604C29.1455 87.7604 12.2396 70.8545 12.2396 50H11.7188C11.7188 71.1421 28.8578 88.2812 50 88.2812V87.7604Z" fill="url(#paint7_linear_366_9816)" mask="url(#path-10-inside-1_366_9816)"/>
</g>
</g>
</g>
</g>
<g filter="url(#filter1_d_366_9816)">
<mask id="path-12-outside-2_366_9816" maskUnits="userSpaceOnUse" x="30.3333" y="36.3333" width="41" height="27" fill="black">
<rect fill="white" x="30.3333" y="36.3333" width="41" height="27"/>
<path d="M32.1907 62.5333C31.5685 62.5333 31.2574 62.2 31.2574 61.5333L30.8907 39.3C30.8685 38.5222 31.0796 37.9555 31.5241 37.6C31.9685 37.2222 32.5352 37.0111 33.2241 36.9666C38.7352 36.5 42.8685 36.9666 45.6241 38.3666C48.3796 39.7444 49.7574 41.9444 49.7574 44.9666C49.7574 45.7 49.6463 46.4 49.4241 47.0666C49.2018 47.7111 48.8796 48.3 48.4574 48.8333C48.0352 49.3666 47.5352 49.8222 46.9574 50.2C46.3796 50.5778 45.7463 50.8444 45.0574 51C45.7241 51.1333 46.3241 51.3555 46.8574 51.6666C47.413 51.9778 47.8796 52.3444 48.2574 52.7666C48.6352 53.1889 48.9241 53.6444 49.1241 54.1333C49.3241 54.6222 49.4241 55.1111 49.4241 55.6C49.4241 56.6889 49.1685 57.6666 48.6574 58.5333C48.1463 59.4 47.3685 60.1333 46.3241 60.7333C45.3018 61.3333 43.9907 61.7889 42.3907 62.1C40.813 62.4333 38.9574 62.5889 36.8241 62.5666L32.1907 62.5333ZM36.7574 48.4666H38.8241C39.6018 48.4666 40.313 48.4 40.9574 48.2666C41.6241 48.1111 42.1907 47.9 42.6574 47.6333C43.1463 47.3666 43.5241 47.0444 43.7907 46.6666C44.0574 46.2666 44.1907 45.8222 44.1907 45.3333C44.1907 44.2 43.5352 43.3666 42.2241 42.8333C40.9352 42.3 39.1241 42.1889 36.7907 42.5L36.7574 48.4666ZM36.5574 58.6333H38.9907C40.4796 58.6333 41.6574 58.3444 42.5241 57.7666C43.413 57.1666 43.8574 56.3889 43.8574 55.4333C43.8574 54.9444 43.7241 54.5222 43.4574 54.1666C43.213 53.7889 42.8685 53.4778 42.4241 53.2333C41.9796 52.9889 41.4463 52.8111 40.8241 52.7C40.2241 52.5666 39.5574 52.5 38.8241 52.5H36.6241L36.5574 58.6333ZM53.1983 58.7333C53.1983 58.3555 53.2872 58.0778 53.465 57.9C53.6427 57.7 53.9538 57.4444 54.3983 57.1333C55.5094 56.4 56.6094 55.5778 57.6983 54.6666C58.8094 53.7555 59.8094 52.8111 60.6983 51.8333C61.6094 50.8555 62.3538 49.8889 62.9316 48.9333C63.5316 47.9555 63.8761 47.0555 63.965 46.2333C64.0316 45.6778 63.9872 45.1666 63.8316 44.7C63.6761 44.2111 63.4427 43.7889 63.1316 43.4333C62.8205 43.0778 62.4205 42.8 61.9316 42.6C61.4427 42.4 60.8983 42.3 60.2983 42.3C59.4094 42.3 58.5761 42.5 57.7983 42.9C57.0427 43.3 56.3872 43.8666 55.8316 44.6C55.6316 44.8666 55.3872 45 55.0983 45C54.8316 44.9778 54.5872 44.8778 54.365 44.7L51.6316 42.8C51.2094 42.4 51.165 41.9444 51.4983 41.4333C52.4761 39.9666 53.6761 38.8222 55.0983 38C56.5427 37.1555 58.2761 36.7333 60.2983 36.7333C61.8538 36.7333 63.2205 36.9778 64.3983 37.4666C65.5761 37.9333 66.5538 38.5666 67.3316 39.3666C68.1316 40.1666 68.7205 41.1 69.0983 42.1666C69.4761 43.2111 69.6316 44.3222 69.565 45.5C69.4983 46.6778 69.1983 47.8444 68.665 49C68.1316 50.1333 67.465 51.2222 66.665 52.2666C65.8872 53.2889 65.0205 54.2333 64.065 55.1C63.1316 55.9666 62.2205 56.7111 61.3316 57.3333C62.665 57.2666 63.965 57.1778 65.2316 57.0666C66.4983 56.9333 67.6316 56.7778 68.6316 56.6C69.2761 56.4889 69.6427 56.7111 69.7316 57.2666L70.2316 60.0333C70.365 60.7 70.1316 61.0889 69.5316 61.2C67.1538 61.5778 64.7538 61.8444 62.3316 62C59.9094 62.1778 57.2538 62.2444 54.365 62.2C53.5872 62.2 53.1983 61.8111 53.1983 61.0333V58.7333Z"/>
</mask>
<path d="M32.1907 62.5333C31.5685 62.5333 31.2574 62.2 31.2574 61.5333L30.8907 39.3C30.8685 38.5222 31.0796 37.9555 31.5241 37.6C31.9685 37.2222 32.5352 37.0111 33.2241 36.9666C38.7352 36.5 42.8685 36.9666 45.6241 38.3666C48.3796 39.7444 49.7574 41.9444 49.7574 44.9666C49.7574 45.7 49.6463 46.4 49.4241 47.0666C49.2018 47.7111 48.8796 48.3 48.4574 48.8333C48.0352 49.3666 47.5352 49.8222 46.9574 50.2C46.3796 50.5778 45.7463 50.8444 45.0574 51C45.7241 51.1333 46.3241 51.3555 46.8574 51.6666C47.413 51.9778 47.8796 52.3444 48.2574 52.7666C48.6352 53.1889 48.9241 53.6444 49.1241 54.1333C49.3241 54.6222 49.4241 55.1111 49.4241 55.6C49.4241 56.6889 49.1685 57.6666 48.6574 58.5333C48.1463 59.4 47.3685 60.1333 46.3241 60.7333C45.3018 61.3333 43.9907 61.7889 42.3907 62.1C40.813 62.4333 38.9574 62.5889 36.8241 62.5666L32.1907 62.5333ZM36.7574 48.4666H38.8241C39.6018 48.4666 40.313 48.4 40.9574 48.2666C41.6241 48.1111 42.1907 47.9 42.6574 47.6333C43.1463 47.3666 43.5241 47.0444 43.7907 46.6666C44.0574 46.2666 44.1907 45.8222 44.1907 45.3333C44.1907 44.2 43.5352 43.3666 42.2241 42.8333C40.9352 42.3 39.1241 42.1889 36.7907 42.5L36.7574 48.4666ZM36.5574 58.6333H38.9907C40.4796 58.6333 41.6574 58.3444 42.5241 57.7666C43.413 57.1666 43.8574 56.3889 43.8574 55.4333C43.8574 54.9444 43.7241 54.5222 43.4574 54.1666C43.213 53.7889 42.8685 53.4778 42.4241 53.2333C41.9796 52.9889 41.4463 52.8111 40.8241 52.7C40.2241 52.5666 39.5574 52.5 38.8241 52.5H36.6241L36.5574 58.6333ZM53.1983 58.7333C53.1983 58.3555 53.2872 58.0778 53.465 57.9C53.6427 57.7 53.9538 57.4444 54.3983 57.1333C55.5094 56.4 56.6094 55.5778 57.6983 54.6666C58.8094 53.7555 59.8094 52.8111 60.6983 51.8333C61.6094 50.8555 62.3538 49.8889 62.9316 48.9333C63.5316 47.9555 63.8761 47.0555 63.965 46.2333C64.0316 45.6778 63.9872 45.1666 63.8316 44.7C63.6761 44.2111 63.4427 43.7889 63.1316 43.4333C62.8205 43.0778 62.4205 42.8 61.9316 42.6C61.4427 42.4 60.8983 42.3 60.2983 42.3C59.4094 42.3 58.5761 42.5 57.7983 42.9C57.0427 43.3 56.3872 43.8666 55.8316 44.6C55.6316 44.8666 55.3872 45 55.0983 45C54.8316 44.9778 54.5872 44.8778 54.365 44.7L51.6316 42.8C51.2094 42.4 51.165 41.9444 51.4983 41.4333C52.4761 39.9666 53.6761 38.8222 55.0983 38C56.5427 37.1555 58.2761 36.7333 60.2983 36.7333C61.8538 36.7333 63.2205 36.9778 64.3983 37.4666C65.5761 37.9333 66.5538 38.5666 67.3316 39.3666C68.1316 40.1666 68.7205 41.1 69.0983 42.1666C69.4761 43.2111 69.6316 44.3222 69.565 45.5C69.4983 46.6778 69.1983 47.8444 68.665 49C68.1316 50.1333 67.465 51.2222 66.665 52.2666C65.8872 53.2889 65.0205 54.2333 64.065 55.1C63.1316 55.9666 62.2205 56.7111 61.3316 57.3333C62.665 57.2666 63.965 57.1778 65.2316 57.0666C66.4983 56.9333 67.6316 56.7778 68.6316 56.6C69.2761 56.4889 69.6427 56.7111 69.7316 57.2666L70.2316 60.0333C70.365 60.7 70.1316 61.0889 69.5316 61.2C67.1538 61.5778 64.7538 61.8444 62.3316 62C59.9094 62.1778 57.2538 62.2444 54.365 62.2C53.5872 62.2 53.1983 61.8111 53.1983 61.0333V58.7333Z" fill="white"/>
<path d="M32.1907 62.5333L32.1926 62.2729H32.1907V62.5333ZM31.2574 61.5333H31.5179L31.5178 61.529L31.2574 61.5333ZM30.8907 39.3L31.1511 39.2957L31.151 39.2925L30.8907 39.3ZM31.5241 37.6L31.6868 37.8034L31.6927 37.7984L31.5241 37.6ZM33.2241 36.9666L33.2408 37.2266L33.246 37.2261L33.2241 36.9666ZM45.6241 38.3666L45.5061 38.5988L45.5076 38.5996L45.6241 38.3666ZM49.4241 47.0666L49.6703 47.1515L49.6711 47.149L49.4241 47.0666ZM48.4574 48.8333L48.2532 48.6717L48.4574 48.8333ZM46.9574 50.2L47.0999 50.4179L46.9574 50.2ZM45.0574 51L45 50.746L45.0063 51.2553L45.0574 51ZM46.8574 51.6666L46.7262 51.8916L46.7302 51.8939L46.8574 51.6666ZM48.2574 52.7666L48.4515 52.593L48.2574 52.7666ZM46.3241 60.7333L46.1943 60.5075L46.1922 60.5087L46.3241 60.7333ZM42.3907 62.1L42.341 61.8443L42.3369 61.8452L42.3907 62.1ZM36.8241 62.5666L36.8268 62.3062L36.8259 62.3062L36.8241 62.5666ZM36.7574 48.4666L36.497 48.4652L36.4955 48.7271H36.7574V48.4666ZM40.9574 48.2666L41.0102 48.5217L41.0166 48.5203L40.9574 48.2666ZM42.6574 47.6333L42.5327 47.4046L42.5282 47.4072L42.6574 47.6333ZM43.7907 46.6666L44.0036 46.8169L44.0074 46.8111L43.7907 46.6666ZM42.2241 42.8333L42.1245 43.0739L42.1259 43.0745L42.2241 42.8333ZM36.7907 42.5L36.7563 42.2418L36.5316 42.2718L36.5303 42.4985L36.7907 42.5ZM36.5574 58.6333L36.297 58.6305L36.2941 58.8937H36.5574V58.6333ZM42.5241 57.7666L42.6685 57.9833L42.6698 57.9825L42.5241 57.7666ZM43.4574 54.1666L43.2388 54.3081L43.2437 54.3157L43.2491 54.3229L43.4574 54.1666ZM42.4241 53.2333L42.2986 53.4615L42.4241 53.2333ZM40.8241 52.7L40.7675 52.9544L40.7783 52.9563L40.8241 52.7ZM36.6241 52.5V52.2396H36.3665L36.3637 52.4971L36.6241 52.5ZM32.1907 62.2729C31.9245 62.2729 31.7715 62.2024 31.6811 62.1056C31.5876 62.0054 31.5178 61.8308 31.5178 61.5333H30.997C30.997 61.9025 31.0828 62.2279 31.3004 62.461C31.5211 62.6975 31.8347 62.7937 32.1907 62.7937V62.2729ZM31.5178 61.529L31.1511 39.2957L30.6304 39.3043L30.997 61.5376L31.5178 61.529ZM31.151 39.2925C31.1302 38.5643 31.3277 38.0906 31.6868 37.8033L31.3614 37.3966C30.8316 37.8205 30.6068 38.4801 30.6304 39.3074L31.151 39.2925ZM31.6927 37.7984C32.087 37.4632 32.5973 37.268 33.2408 37.2265L33.2073 36.7068C32.4731 36.7541 31.85 36.9812 31.3554 37.4016L31.6927 37.7984ZM33.246 37.2261C38.7418 36.7608 42.8159 37.232 45.5061 38.5988L45.742 38.1345C42.9211 36.7013 38.7285 36.2392 33.2021 36.7072L33.246 37.2261ZM45.5076 38.5996C46.8507 39.2711 47.8443 40.1358 48.5034 41.1882C49.1623 42.2403 49.497 43.4962 49.497 44.9666H50.0178C50.0178 43.4148 49.6636 42.0596 48.9448 40.9118C48.2261 39.7642 47.153 38.84 45.7405 38.1337L45.5076 38.5996ZM49.497 44.9666C49.497 45.6732 49.39 46.3453 49.177 46.9843L49.6711 47.149C49.9026 46.4546 50.0178 45.7267 50.0178 44.9666H49.497ZM49.1779 46.9818C48.9652 47.5985 48.6572 48.1614 48.2532 48.6717L48.6616 48.995C49.1021 48.4385 49.4385 47.8237 49.6703 47.1515L49.1779 46.9818ZM48.2532 48.6717C47.8487 49.1827 47.3696 49.6193 46.8149 49.982L47.0999 50.4179C47.7008 50.0251 48.2217 49.5506 48.6616 48.995L48.2532 48.6717ZM46.8149 49.982C46.2637 50.3424 45.6593 50.5971 45 50.746L45.1148 51.254C45.8332 51.0918 46.4955 50.8131 47.0999 50.4179L46.8149 49.982ZM45.0063 51.2553C45.6476 51.3836 46.2201 51.5964 46.7262 51.8916L46.9886 51.4417C46.4281 51.1147 45.8005 50.883 45.1085 50.7446L45.0063 51.2553ZM46.7302 51.8939C47.2637 52.1926 47.7069 52.542 48.0633 52.9403L48.4515 52.593C48.0523 52.1469 47.5622 51.7629 46.9846 51.4394L46.7302 51.8939ZM48.0633 52.9403C48.4227 53.342 48.6951 53.7725 48.883 54.2319L49.3651 54.0347C49.1531 53.5164 48.8476 53.0358 48.4515 52.593L48.0633 52.9403ZM48.883 54.2319C49.0713 54.692 49.1637 55.1475 49.1637 55.6H49.6845C49.6845 55.0746 49.5769 54.5524 49.3651 54.0347L48.883 54.2319ZM49.1637 55.6C49.1637 56.6463 48.9186 57.5777 48.4331 58.401L48.8817 58.6656C49.4184 57.7556 49.6845 56.7314 49.6845 55.6H49.1637ZM48.4331 58.401C47.949 59.2219 47.2074 59.9255 46.1944 60.5075L46.4538 60.9591C47.5296 60.3411 48.3436 59.5781 48.8817 58.6656L48.4331 58.401ZM46.1922 60.5087C45.203 61.0894 43.9222 61.5369 42.341 61.8444L42.4404 62.3556C44.0593 62.0408 45.4007 61.5773 46.4559 60.9579L46.1922 60.5087ZM42.3369 61.8452C40.7826 62.1736 38.9468 62.3283 36.8268 62.3062L36.8214 62.827C38.968 62.8494 40.8433 62.6931 42.4446 62.3548L42.3369 61.8452ZM36.8259 62.3062L32.1926 62.2729L32.1889 62.7937L36.8222 62.8271L36.8259 62.3062ZM36.7574 48.7271H38.8241V48.2062H36.7574V48.7271ZM38.8241 48.7271C39.6165 48.7271 40.3456 48.6592 41.0102 48.5217L40.9046 48.0116C40.2803 48.1408 39.5872 48.2062 38.8241 48.2062V48.7271ZM41.0166 48.5203C41.7014 48.3605 42.293 48.1415 42.7866 47.8594L42.5282 47.4072C42.0885 47.6585 41.5467 47.8617 40.8982 48.013L41.0166 48.5203ZM42.7821 47.8619C43.2989 47.58 43.7096 47.2331 44.0035 46.8168L43.578 46.5165C43.3385 46.8557 42.9937 47.1533 42.5327 47.4047L42.7821 47.8619ZM44.0074 46.8111C44.3031 46.3676 44.4512 45.8727 44.4512 45.3333H43.9303C43.9303 45.7717 43.8117 46.1657 43.5741 46.5222L44.0074 46.8111ZM44.4512 45.3333C44.4512 44.7126 44.2702 44.1631 43.9037 43.6973C43.5402 43.2351 43.0061 42.8703 42.3222 42.5921L42.1259 43.0745C42.7532 43.3297 43.2024 43.6481 43.4944 44.0193C43.7835 44.3868 43.9303 44.8207 43.9303 45.3333H44.4512ZM42.3236 42.5927C40.9725 42.0336 39.1075 41.9284 36.7563 42.2418L36.8252 42.7581C39.1406 42.4494 40.8978 42.5664 42.1245 43.0739L42.3236 42.5927ZM36.5303 42.4985L36.497 48.4652L37.0178 48.4681L37.0511 42.5014L36.5303 42.4985ZM36.5574 58.8937H38.9907V58.3729H36.5574V58.8937ZM38.9907 58.8937C40.5099 58.8937 41.7444 58.5994 42.6685 57.9833L42.3796 57.55C41.5704 58.0894 40.4493 58.3729 38.9907 58.3729V58.8937ZM42.6698 57.9825C43.6201 57.341 44.1178 56.4871 44.1178 55.4333H43.597C43.597 56.2906 43.2058 56.9923 42.3784 57.5508L42.6698 57.9825ZM44.1178 55.4333C44.1178 54.894 43.9696 54.4156 43.6657 54.0104L43.2491 54.3229C43.4785 54.6288 43.597 54.9948 43.597 55.4333H44.1178ZM43.676 54.0252C43.4054 53.6068 43.0269 53.2677 42.5496 53.0051L42.2986 53.4615C42.7101 53.6879 43.0206 53.9709 43.2388 54.3081L43.676 54.0252ZM42.5496 53.0051C42.075 52.7441 41.5134 52.5585 40.8699 52.4436L40.7783 52.9563C41.3792 53.0636 41.8842 53.2336 42.2986 53.4615L42.5496 53.0051ZM40.8806 52.4458C40.2589 52.3076 39.5729 52.2396 38.8241 52.2396V52.7604C39.5419 52.7604 40.1893 52.8257 40.7676 52.9542L40.8806 52.4458ZM38.8241 52.2396H36.6241V52.7604H38.8241V52.2396ZM36.3637 52.4971L36.297 58.6305L36.8178 58.6361L36.8845 52.5028L36.3637 52.4971ZM53.465 57.9L53.6491 58.0841L53.6545 58.0787L53.6596 58.073L53.465 57.9ZM54.3983 57.1333L54.2548 56.9159L54.2489 56.92L54.3983 57.1333ZM57.6983 54.6666L57.5332 54.4653L57.5312 54.4669L57.6983 54.6666ZM60.6983 51.8333L60.5077 51.6558L60.5056 51.6581L60.6983 51.8333ZM62.9316 48.9333L62.7097 48.7971L62.7088 48.7986L62.9316 48.9333ZM63.965 46.2333L63.7064 46.2023L63.706 46.2053L63.965 46.2333ZM63.8316 44.7L63.5834 44.7789L63.5846 44.7823L63.8316 44.7ZM63.1316 43.4333L63.3276 43.2618V43.2618L63.1316 43.4333ZM61.9316 42.6L61.833 42.841L61.9316 42.6ZM57.7983 42.9L57.6792 42.6684L57.6764 42.6698L57.7983 42.9ZM55.8316 44.6L55.624 44.4427L55.6233 44.4437L55.8316 44.6ZM55.0983 45L55.0767 45.2595L55.0875 45.2604H55.0983V45ZM54.365 44.7L54.5276 44.4966L54.5208 44.4912L54.5136 44.4861L54.365 44.7ZM51.6316 42.8L51.4525 42.989L51.4668 43.0026L51.483 43.0138L51.6316 42.8ZM51.4983 41.4333L51.2816 41.2889L51.2802 41.2911L51.4983 41.4333ZM55.0983 38L55.2286 38.2254L55.2297 38.2248L55.0983 38ZM64.3983 37.4666L64.2984 37.7072L64.3024 37.7088L64.3983 37.4666ZM67.3316 39.3666L67.1449 39.5482L67.1475 39.5508L67.3316 39.3666ZM69.0983 42.1666L68.8528 42.2536L68.8534 42.2552L69.0983 42.1666ZM69.565 45.5L69.305 45.4853V45.4853L69.565 45.5ZM68.665 49L68.9006 49.1109L68.9014 49.1091L68.665 49ZM66.665 52.2666L66.4582 52.1083L66.4577 52.109L66.665 52.2666ZM64.065 55.1L63.89 54.9071L63.8878 54.9091L64.065 55.1ZM61.3316 57.3333L61.1823 57.12L60.4414 57.6386L61.3446 57.5934L61.3316 57.3333ZM65.2316 57.0666L65.2544 57.3261L65.2589 57.3256L65.2316 57.0666ZM68.6316 56.6L68.5874 56.3433L68.586 56.3436L68.6316 56.6ZM69.7316 57.2666L69.4744 57.3078L69.4754 57.313L69.7316 57.2666ZM70.2316 60.0333L69.9753 60.0796L69.9763 60.0844L70.2316 60.0333ZM69.5316 61.2L69.5725 61.4573L69.579 61.456L69.5316 61.2ZM62.3316 62L62.3149 61.7401L62.3126 61.7403L62.3316 62ZM54.365 62.2L54.369 61.9396H54.365V62.2ZM53.4587 58.7333C53.4587 58.3903 53.54 58.1932 53.6491 58.0841L53.2808 57.7158C53.0344 57.9623 52.9379 58.3207 52.9379 58.7333H53.4587ZM53.6596 58.073C53.8162 57.8968 54.1065 57.6555 54.5476 57.3467L54.2489 56.92C53.8012 57.2334 53.4692 57.5032 53.2703 57.727L53.6596 58.073ZM54.5417 57.3507C55.6616 56.6116 56.7695 55.7834 57.8654 54.8664L57.5312 54.4669C56.4493 55.3721 55.3572 56.1884 54.2548 56.916L54.5417 57.3507ZM57.8634 54.868C58.9835 53.9495 59.9929 52.9964 60.891 52.0085L60.5056 51.6581C59.6259 52.6257 58.6353 53.5615 57.5332 54.4653L57.8634 54.868ZM60.8888 52.0108C61.8098 51.0224 62.5658 50.0416 63.1545 49.0681L62.7088 48.7986C62.1419 49.7361 61.409 50.6886 60.5078 51.6558L60.8888 52.0108ZM63.1536 49.0695C63.7664 48.0708 64.1295 47.1337 64.2239 46.2613L63.706 46.2053C63.6226 46.9773 63.2968 47.8403 62.7097 48.7971L63.1536 49.0695ZM64.2235 46.2643C64.2941 45.6759 64.248 45.1255 64.0787 44.6176L63.5846 44.7823C63.7264 45.2078 63.7691 45.6797 63.7064 46.2023L64.2235 46.2643ZM64.0798 44.621C63.9143 44.101 63.6642 43.6466 63.3276 43.2618L62.9356 43.6048C63.2212 43.9312 63.4378 44.3212 63.5835 44.7789L64.0798 44.621ZM63.3276 43.2618C62.9869 42.8724 62.5521 42.5724 62.0302 42.359L61.833 42.841C62.289 43.0275 62.6542 43.2831 62.9356 43.6048L63.3276 43.2618ZM62.0302 42.359C61.5061 42.1445 60.9275 42.0396 60.2983 42.0396V42.5604C60.869 42.5604 61.3794 42.6554 61.833 42.841L62.0302 42.359ZM60.2983 42.0396C59.3687 42.0396 58.4944 42.2491 57.6792 42.6684L57.9174 43.1316C58.6577 42.7508 59.4501 42.5604 60.2983 42.5604V42.0396ZM57.6764 42.6698C56.8848 43.0889 56.2007 43.6815 55.624 44.4427L56.0392 44.7572C56.5736 44.0518 57.2006 43.511 57.9201 43.1301L57.6764 42.6698ZM55.6233 44.4437C55.4639 44.6563 55.2918 44.7396 55.0983 44.7396V45.2604C55.4825 45.2604 55.7994 45.077 56.04 44.7562L55.6233 44.4437ZM55.1199 44.7405C54.9081 44.7228 54.7122 44.6442 54.5276 44.4966L54.2023 44.9033C54.4622 45.1113 54.7551 45.2327 55.0767 45.2595L55.1199 44.7405ZM54.5136 44.4861L51.7803 42.5861L51.483 43.0138L54.2163 44.9138L54.5136 44.4861ZM51.8107 42.6109C51.6325 42.4421 51.5554 42.2829 51.5408 42.133C51.526 41.9812 51.5713 41.7981 51.7164 41.5756L51.2802 41.2911C51.0919 41.5796 50.9928 41.8799 51.0224 42.1836C51.0523 42.4893 51.2085 42.7579 51.4525 42.989L51.8107 42.6109ZM51.715 41.5778C52.6722 40.1419 53.8435 39.0262 55.2286 38.2254L54.9679 37.7745C53.5086 38.6182 52.2799 39.7914 51.2816 41.2889L51.715 41.5778ZM55.2297 38.2248C56.6267 37.4081 58.3126 36.9937 60.2983 36.9937V36.4729C58.2395 36.4729 56.4587 36.903 54.9669 37.7752L55.2297 38.2248ZM60.2983 36.9937C61.8269 36.9937 63.1585 37.234 64.2985 37.7072L64.4981 37.2261C63.2826 36.7216 61.8808 36.4729 60.2983 36.4729V36.9937ZM64.3024 37.7088C65.4506 38.1637 66.396 38.7779 67.1449 39.5482L67.5183 39.1851C66.7117 38.3554 65.7016 37.7029 64.4942 37.2245L64.3024 37.7088ZM67.1475 39.5508C67.92 40.3234 68.488 41.2235 68.8528 42.2536L69.3438 42.0797C68.953 40.9765 68.3432 40.0099 67.5158 39.1825L67.1475 39.5508ZM68.8534 42.2552C69.2185 43.2646 69.3698 44.3404 69.305 45.4853L69.825 45.5147C69.8935 44.304 69.7336 43.1576 69.3432 42.0781L68.8534 42.2552ZM69.305 45.4853C69.2403 46.6279 68.9492 47.7626 68.4285 48.8909L68.9014 49.1091C69.4474 47.9262 69.7563 46.7276 69.825 45.5147L69.305 45.4853ZM68.4293 48.8891C67.9043 50.0048 67.2475 51.0779 66.4582 52.1083L66.8717 52.425C67.6824 51.3665 68.359 50.2618 68.9006 49.1109L68.4293 48.8891ZM66.4577 52.109C65.6896 53.1184 64.8338 54.0511 63.89 54.9071L64.2399 55.2929C65.2072 54.4155 66.0847 53.4593 66.8722 52.4243L66.4577 52.109ZM63.8878 54.9091C62.9617 55.769 62.0599 56.5057 61.1823 57.12L61.481 57.5467C62.3811 56.9165 63.3015 56.1643 64.2422 55.2908L63.8878 54.9091ZM61.3446 57.5934C62.6811 57.5266 63.9843 57.4375 65.2544 57.3261L65.2089 56.8072C63.9456 56.918 62.6489 57.0067 61.3186 57.0732L61.3446 57.5934ZM65.2589 57.3256C66.5302 57.1918 67.6698 57.0355 68.6772 56.8564L68.586 56.3436C67.5934 56.5201 66.4664 56.6748 65.2044 56.8077L65.2589 57.3256ZM68.6759 56.8566C68.9675 56.8063 69.1474 56.8408 69.255 56.906C69.3539 56.9659 69.4381 57.0804 69.4745 57.3078L69.9888 57.2255C69.9363 56.8974 69.7927 56.6229 69.5249 56.4606C69.2659 56.3036 68.9402 56.2825 68.5874 56.3433L68.6759 56.8566ZM69.4754 57.313L69.9754 60.0796L70.4879 59.987L69.9879 57.2203L69.4754 57.313ZM69.9763 60.0844C70.0364 60.3851 70.0034 60.5742 69.9333 60.691C69.8671 60.8014 69.7374 60.897 69.4842 60.9439L69.579 61.456C69.9258 61.3918 70.2128 61.2375 70.3799 60.959C70.5432 60.6868 70.5602 60.3482 70.487 59.9822L69.9763 60.0844ZM69.4908 60.9428C67.1211 61.3193 64.7291 61.5851 62.3149 61.7401L62.3483 62.2599C64.7786 62.1038 67.1866 61.8362 69.5725 61.4572L69.4908 60.9428ZM62.3126 61.7403C59.8993 61.9174 57.2515 61.9839 54.369 61.9396L54.3609 62.4604C57.2561 62.5049 59.9195 62.4381 62.3507 62.2597L62.3126 61.7403ZM54.365 61.9396C54.0162 61.9396 53.8025 61.8526 53.6741 61.7242C53.5457 61.5958 53.4587 61.3821 53.4587 61.0333H52.9379C52.9379 61.4623 53.0453 61.8319 53.3058 62.0925C53.5663 62.353 53.9359 62.4604 54.365 62.4604V61.9396ZM53.4587 61.0333V58.7333H52.9379V61.0333H53.4587Z" fill="url(#paint8_linear_366_9816)" style="mix-blend-mode:color-burn" mask="url(#path-12-outside-2_366_9816)"/>
</g>
<defs>
<filter id="filter0_d_366_9816" x="-4.16667" y="-3.125" width="108.333" height="108.333" filterUnits="userSpaceOnUse" color-interpolation-filters="sRGB">
<feFlood flood-opacity="0" result="BackgroundImageFix"/>
<feColorMatrix in="SourceAlpha" type="matrix" values="0 0 0 0 0 0 0 0 0 0 0 0 0 0 0 0 0 0 127 0" result="hardAlpha"/>
<feOffset dy="1.04167"/>
<feGaussianBlur stdDeviation="2.08333"/>
<feColorMatrix type="matrix" values="0 0 0 0 0 0 0 0 0 0 0 0 0 0 0 0 0 0 0.16 0"/>
<feBlend mode="color-burn" in2="BackgroundImageFix" result="effect1_dropShadow_366_9816"/>
<feBlend mode="normal" in="SourceGraphic" in2="effect1_dropShadow_366_9816" result="shape"/>
</filter>
<filter id="filter1_d_366_9816" x="24.3787" y="31.2646" width="52.3997" height="38.8563" filterUnits="userSpaceOnUse" color-interpolation-filters="sRGB">
<feFlood flood-opacity="0" result="BackgroundImageFix"/>
<feColorMatrix in="SourceAlpha" type="matrix" values="0 0 0 0 0 0 0 0 0 0 0 0 0 0 0 0 0 0 127 0" result="hardAlpha"/>
<feOffset dy="1.04167"/>
<feGaussianBlur stdDeviation="3.125"/>
<feColorMatrix type="matrix" values="0 0 0 0 0 0 0 0 0 0 0 0 0 0 0 0 0 0 0.12 0"/>
<feBlend mode="plus-darker" in2="BackgroundImageFix" result="effect1_dropShadow_366_9816"/>
<feBlend mode="normal" in="SourceGraphic" in2="effect1_dropShadow_366_9816" result="shape"/>
</filter>
<linearGradient id="paint0_linear_366_9816" x1="-22.9167" y1="-22.9167" x2="151.524" y2="68.0723" gradientUnits="userSpaceOnUse">
<stop stop-color="#3D75EE"/>
<stop offset="1" stop-color="#5785E8"/>
</linearGradient>
<linearGradient id="paint1_linear_366_9816" x1="50" y1="-6.39146" x2="50" y2="105.635" gradientUnits="userSpaceOnUse">
<stop stop-color="white"/>
<stop offset="1" stop-color="white" stop-opacity="0"/>
</linearGradient>
<radialGradient id="paint2_radial_366_9816" cx="0" cy="0" r="1" gradientUnits="userSpaceOnUse" gradientTransform="translate(50 25.7865) rotate(90) scale(73.89 56.0618)">
<stop stop-color="white"/>
<stop offset="1" stop-color="white" stop-opacity="0"/>
</radialGradient>
<linearGradient id="paint3_linear_366_9816" x1="-22.9167" y1="-22.9167" x2="151.524" y2="68.0723" gradientUnits="userSpaceOnUse">
<stop stop-color="#3D75EE"/>
<stop offset="1" stop-color="#5785E8"/>
</linearGradient>
<linearGradient id="paint4_linear_366_9816" x1="50" y1="-6.39146" x2="50" y2="105.635" gradientUnits="userSpaceOnUse">
<stop stop-color="white"/>
<stop offset="1" stop-color="white" stop-opacity="0"/>
</linearGradient>
<radialGradient id="paint5_radial_366_9816" cx="0" cy="0" r="1" gradientUnits="userSpaceOnUse" gradientTransform="translate(50 25.7865) rotate(90) scale(73.89 56.0618)">
<stop stop-color="white"/>
<stop offset="1" stop-color="white" stop-opacity="0"/>
</radialGradient>
<linearGradient id="paint6_linear_366_9816" x1="-22.9167" y1="-22.9167" x2="-22.9167" y2="122.917" gradientUnits="userSpaceOnUse">
<stop offset="0.135095" stop-color="white"/>
<stop offset="0.877908" stop-color="white" stop-opacity="0.01"/>
</linearGradient>
<linearGradient id="paint7_linear_366_9816" x1="50" y1="0" x2="50" y2="100" gradientUnits="userSpaceOnUse">
<stop stop-color="white"/>
<stop offset="1" stop-color="#999999"/>
</linearGradient>
<linearGradient id="paint8_linear_366_9816" x1="50" y1="33.3333" x2="50" y2="66.3333" gradientUnits="userSpaceOnUse">
<stop stop-color="#DFDFDF"/>
<stop offset="1" stop-color="#A9A9A9"/>
</linearGradient>
</defs>
</svg>
