<svg width="100" height="100" viewBox="0 0 100 100" fill="none" xmlns="http://www.w3.org/2000/svg">
<mask id="mask0_366_9815" style="mask-type:alpha" maskUnits="userSpaceOnUse" x="0" y="0" width="100" height="100">
<circle cx="50" cy="50" r="50" fill="white"/>
</mask>
<g mask="url(#mask0_366_9815)">
<mask id="mask1_366_9815" style="mask-type:alpha" maskUnits="userSpaceOnUse" x="0" y="0" width="100" height="100">
<circle cx="50" cy="50" r="50" fill="white"/>
</mask>
<g mask="url(#mask1_366_9815)">
<rect x="-22.9167" y="-22.9167" width="145.833" height="145.833" fill="url(#paint0_linear_366_9815)"/>
<rect x="-22.9167" y="-22.9167" width="145.833" height="145.833" fill="url(#paint1_linear_366_9815)" fill-opacity="0.6" style="mix-blend-mode:overlay"/>
<rect x="-22.9167" y="-22.9167" width="145.833" height="145.833" fill="url(#paint2_radial_366_9815)" fill-opacity="0.6" style="mix-blend-mode:overlay"/>
<rect x="-22.9167" y="-22.9167" width="145.833" height="145.833" fill="black" fill-opacity="0.16" style="mix-blend-mode:overlay"/>
<rect x="-22.9167" y="-22.9167" width="145.833" height="145.833" fill="black" fill-opacity="0.12" style="mix-blend-mode:darken"/>
</g>
<g filter="url(#filter0_d_366_9815)">
<mask id="mask2_366_9815" style="mask-type:alpha" maskUnits="userSpaceOnUse" x="0" y="0" width="100" height="100">
<path fill-rule="evenodd" clip-rule="evenodd" d="M95.8333 50C95.8333 75.313 75.313 95.8333 50 95.8333C24.6869 95.8333 4.16667 75.313 4.16667 50C4.16667 24.6869 24.6869 4.16667 50 4.16667C75.313 4.16667 95.8333 24.6869 95.8333 50ZM100 50C100 77.6142 77.6142 100 50 100C22.3858 100 0 77.6142 0 50C0 22.3858 22.3858 0 50 0C77.6142 0 100 22.3858 100 50ZM50 88.0208C70.9983 88.0208 88.0208 70.9983 88.0208 50C88.0208 29.0017 70.9983 11.9792 50 11.9792C29.0017 11.9792 11.9792 29.0017 11.9792 50C11.9792 70.9983 29.0017 88.0208 50 88.0208Z" fill="white"/>
</mask>
<g mask="url(#mask2_366_9815)">
<rect x="-22.9167" y="-22.9167" width="145.833" height="145.833" fill="url(#paint3_linear_366_9815)"/>
<rect x="-22.9167" y="-22.9167" width="145.833" height="145.833" fill="url(#paint4_linear_366_9815)" fill-opacity="0.6" style="mix-blend-mode:overlay"/>
<rect x="-22.9167" y="-22.9167" width="145.833" height="145.833" fill="url(#paint5_radial_366_9815)" fill-opacity="0.6" style="mix-blend-mode:overlay"/>
<g style="mix-blend-mode:soft-light">
<path fill-rule="evenodd" clip-rule="evenodd" d="M-22.9167 -22.9167H64.5833L36.6578 122.917H-22.9167V-22.9167Z" fill="url(#paint6_linear_366_9815)" style="mix-blend-mode:lighten"/>
</g>
<g style="mix-blend-mode:soft-light">
<mask id="path-10-inside-1_366_9815" fill="white">
<path fill-rule="evenodd" clip-rule="evenodd" d="M95.8333 50C95.8333 75.313 75.313 95.8333 50 95.8333C24.6869 95.8333 4.16667 75.313 4.16667 50C4.16667 24.6869 24.6869 4.16667 50 4.16667C75.313 4.16667 95.8333 24.6869 95.8333 50ZM100 50C100 77.6142 77.6142 100 50 100C22.3858 100 0 77.6142 0 50C0 22.3858 22.3858 0 50 0C77.6142 0 100 22.3858 100 50ZM50 88.0208C70.9983 88.0208 88.0208 70.9983 88.0208 50C88.0208 29.0017 70.9983 11.9792 50 11.9792C29.0017 11.9792 11.9792 29.0017 11.9792 50C11.9792 70.9983 29.0017 88.0208 50 88.0208Z"/>
</mask>
<path d="M50 96.0938C75.4569 96.0938 96.0938 75.4569 96.0938 50H95.5729C95.5729 75.1692 75.1692 95.5729 50 95.5729V96.0938ZM3.90625 50C3.90625 75.4569 24.5431 96.0938 50 96.0938V95.5729C24.8308 95.5729 4.42708 75.1692 4.42708 50H3.90625ZM50 3.90625C24.5431 3.90625 3.90625 24.5431 3.90625 50H4.42708C4.42708 24.8308 24.8308 4.42708 50 4.42708V3.90625ZM96.0938 50C96.0938 24.5431 75.4569 3.90625 50 3.90625V4.42708C75.1692 4.42708 95.5729 24.8308 95.5729 50H96.0938ZM50 100.26C77.7581 100.26 100.26 77.7581 100.26 50H99.7396C99.7396 77.4704 77.4704 99.7396 50 99.7396V100.26ZM-0.260417 50C-0.260417 77.7581 22.2419 100.26 50 100.26V99.7396C22.5296 99.7396 0.260417 77.4704 0.260417 50H-0.260417ZM50 -0.260417C22.2419 -0.260417 -0.260417 22.2419 -0.260417 50H0.260417C0.260417 22.5296 22.5296 0.260417 50 0.260417V-0.260417ZM100.26 50C100.26 22.2419 77.7581 -0.260417 50 -0.260417V0.260417C77.4704 0.260417 99.7396 22.5296 99.7396 50H100.26ZM87.7604 50C87.7604 70.8545 70.8545 87.7604 50 87.7604V88.2812C71.1421 88.2812 88.2812 71.1421 88.2812 50H87.7604ZM50 12.2396C70.8545 12.2396 87.7604 29.1455 87.7604 50H88.2812C88.2812 28.8578 71.1421 11.7188 50 11.7188V12.2396ZM12.2396 50C12.2396 29.1455 29.1455 12.2396 50 12.2396V11.7188C28.8578 11.7188 11.7188 28.8578 11.7188 50H12.2396ZM50 87.7604C29.1455 87.7604 12.2396 70.8545 12.2396 50H11.7188C11.7188 71.1421 28.8578 88.2812 50 88.2812V87.7604Z" fill="url(#paint7_linear_366_9815)" mask="url(#path-10-inside-1_366_9815)"/>
</g>
</g>
</g>
</g>
<g filter="url(#filter1_d_366_9815)">
<mask id="path-12-outside-2_366_9815" maskUnits="userSpaceOnUse" x="26.3333" y="36.3333" width="48" height="27" fill="black">
<rect fill="white" x="26.3333" y="36.3333" width="48" height="27"/>
<path d="M39.889 53.2333C39.3335 53.2333 39.0557 52.9556 39.0557 52.4V49C39.0557 48.4445 39.3335 48.1667 39.889 48.1667L49.189 48.2333C49.7668 48.2333 50.2002 48.3667 50.489 48.6333C50.8002 48.9 50.9779 49.3778 51.0224 50.0667C51.1113 51.7556 50.9113 53.3556 50.4224 54.8667C49.9335 56.3778 49.189 57.7 48.189 58.8333C47.189 59.9667 45.9335 60.8667 44.4224 61.5333C42.9335 62.2 41.2224 62.5333 39.289 62.5333C37.489 62.5333 35.8224 62.2222 34.289 61.6C32.7779 60.9778 31.4668 60.1111 30.3557 59C29.2446 57.8667 28.3668 56.5222 27.7224 54.9667C27.1002 53.4111 26.789 51.6889 26.789 49.8C26.789 47.9111 27.1002 46.1778 27.7224 44.6C28.3446 43 29.2002 41.6222 30.289 40.4667C31.4002 39.2889 32.689 38.3778 34.1557 37.7333C35.6446 37.0667 37.2446 36.7333 38.9557 36.7333C41.3113 36.7333 43.3557 37.1778 45.089 38.0667C46.8224 38.9333 48.1557 40.0556 49.089 41.4333C49.2446 41.6556 49.3224 41.9 49.3224 42.1667C49.3224 42.4111 49.2002 42.6222 48.9557 42.8L45.889 45.2C45.6668 45.3778 45.4113 45.4778 45.1224 45.5C44.8335 45.5 44.6002 45.3667 44.4224 45.1C43.9557 44.4111 43.3002 43.8445 42.4557 43.4C41.6335 42.9556 40.5446 42.7333 39.189 42.7333C38.2779 42.7333 37.4335 42.9111 36.6557 43.2667C35.8779 43.6222 35.189 44.1333 34.589 44.8C34.0113 45.4445 33.5557 46.2222 33.2224 47.1333C32.889 48.0445 32.7224 49.0445 32.7224 50.1333C32.7224 51.2445 32.9002 52.2445 33.2557 53.1333C33.6113 54.0222 34.1002 54.7778 34.7224 55.4C35.3446 56.0222 36.0668 56.5111 36.889 56.8667C37.7113 57.2 38.589 57.3667 39.5224 57.3667C40.3668 57.3667 41.1335 57.2556 41.8224 57.0333C42.5113 56.8111 43.1113 56.5111 43.6224 56.1333C44.1557 55.7333 44.589 55.2889 44.9224 54.8C45.2557 54.2889 45.5002 53.7445 45.6557 53.1667L39.889 53.2333ZM65.6841 62.2C65.0174 62.2 64.6841 61.8667 64.6841 61.2L64.5841 56.7667C62.9841 56.8333 61.4063 56.8778 59.8508 56.9C58.2952 56.9 56.7841 56.8778 55.3174 56.8333C54.5397 56.8111 53.9952 56.5333 53.6841 56C53.3952 55.4667 53.3174 54.8111 53.4508 54.0333C53.8285 51.7 54.1063 49.3333 54.2841 46.9333C54.4619 44.5333 54.5285 42.0222 54.4841 39.4C54.4841 38.8889 54.6063 38.5111 54.8508 38.2667C55.1174 38.0222 55.4397 37.9 55.8174 37.9H59.1841C59.6285 37.9 59.9619 38.0445 60.1841 38.3333C60.4063 38.6 60.5063 38.9556 60.4841 39.4C60.4397 41.7111 60.3397 43.9333 60.1841 46.0667C60.0508 48.1778 59.8619 50.0667 59.6174 51.7333C60.4841 51.7778 61.3174 51.8 62.1174 51.8H64.5174L64.2841 38.2333C64.2841 37.5667 64.6063 37.2333 65.2508 37.2333H69.3174C69.9841 37.2333 70.3063 37.5667 70.2841 38.2333L70.0841 51.6C70.4841 51.5778 70.8841 51.5667 71.2841 51.5667C71.6841 51.5445 72.1063 51.5111 72.5508 51.4667C72.9063 51.4445 73.1619 51.4889 73.3174 51.6C73.4952 51.6889 73.6063 51.8889 73.6508 52.2L74.0174 55C74.1063 55.6667 73.8508 56.0333 73.2508 56.1C72.7397 56.1667 72.2063 56.2333 71.6508 56.3C71.1174 56.3445 70.573 56.3889 70.0174 56.4333L69.9508 61.2C69.9508 61.8667 69.6174 62.2 68.9508 62.2H65.6841Z"/>
</mask>
<path d="M39.889 53.2333C39.3335 53.2333 39.0557 52.9556 39.0557 52.4V49C39.0557 48.4445 39.3335 48.1667 39.889 48.1667L49.189 48.2333C49.7668 48.2333 50.2002 48.3667 50.489 48.6333C50.8002 48.9 50.9779 49.3778 51.0224 50.0667C51.1113 51.7556 50.9113 53.3556 50.4224 54.8667C49.9335 56.3778 49.189 57.7 48.189 58.8333C47.189 59.9667 45.9335 60.8667 44.4224 61.5333C42.9335 62.2 41.2224 62.5333 39.289 62.5333C37.489 62.5333 35.8224 62.2222 34.289 61.6C32.7779 60.9778 31.4668 60.1111 30.3557 59C29.2446 57.8667 28.3668 56.5222 27.7224 54.9667C27.1002 53.4111 26.789 51.6889 26.789 49.8C26.789 47.9111 27.1002 46.1778 27.7224 44.6C28.3446 43 29.2002 41.6222 30.289 40.4667C31.4002 39.2889 32.689 38.3778 34.1557 37.7333C35.6446 37.0667 37.2446 36.7333 38.9557 36.7333C41.3113 36.7333 43.3557 37.1778 45.089 38.0667C46.8224 38.9333 48.1557 40.0556 49.089 41.4333C49.2446 41.6556 49.3224 41.9 49.3224 42.1667C49.3224 42.4111 49.2002 42.6222 48.9557 42.8L45.889 45.2C45.6668 45.3778 45.4113 45.4778 45.1224 45.5C44.8335 45.5 44.6002 45.3667 44.4224 45.1C43.9557 44.4111 43.3002 43.8445 42.4557 43.4C41.6335 42.9556 40.5446 42.7333 39.189 42.7333C38.2779 42.7333 37.4335 42.9111 36.6557 43.2667C35.8779 43.6222 35.189 44.1333 34.589 44.8C34.0113 45.4445 33.5557 46.2222 33.2224 47.1333C32.889 48.0445 32.7224 49.0445 32.7224 50.1333C32.7224 51.2445 32.9002 52.2445 33.2557 53.1333C33.6113 54.0222 34.1002 54.7778 34.7224 55.4C35.3446 56.0222 36.0668 56.5111 36.889 56.8667C37.7113 57.2 38.589 57.3667 39.5224 57.3667C40.3668 57.3667 41.1335 57.2556 41.8224 57.0333C42.5113 56.8111 43.1113 56.5111 43.6224 56.1333C44.1557 55.7333 44.589 55.2889 44.9224 54.8C45.2557 54.2889 45.5002 53.7445 45.6557 53.1667L39.889 53.2333ZM65.6841 62.2C65.0174 62.2 64.6841 61.8667 64.6841 61.2L64.5841 56.7667C62.9841 56.8333 61.4063 56.8778 59.8508 56.9C58.2952 56.9 56.7841 56.8778 55.3174 56.8333C54.5397 56.8111 53.9952 56.5333 53.6841 56C53.3952 55.4667 53.3174 54.8111 53.4508 54.0333C53.8285 51.7 54.1063 49.3333 54.2841 46.9333C54.4619 44.5333 54.5285 42.0222 54.4841 39.4C54.4841 38.8889 54.6063 38.5111 54.8508 38.2667C55.1174 38.0222 55.4397 37.9 55.8174 37.9H59.1841C59.6285 37.9 59.9619 38.0445 60.1841 38.3333C60.4063 38.6 60.5063 38.9556 60.4841 39.4C60.4397 41.7111 60.3397 43.9333 60.1841 46.0667C60.0508 48.1778 59.8619 50.0667 59.6174 51.7333C60.4841 51.7778 61.3174 51.8 62.1174 51.8H64.5174L64.2841 38.2333C64.2841 37.5667 64.6063 37.2333 65.2508 37.2333H69.3174C69.9841 37.2333 70.3063 37.5667 70.2841 38.2333L70.0841 51.6C70.4841 51.5778 70.8841 51.5667 71.2841 51.5667C71.6841 51.5445 72.1063 51.5111 72.5508 51.4667C72.9063 51.4445 73.1619 51.4889 73.3174 51.6C73.4952 51.6889 73.6063 51.8889 73.6508 52.2L74.0174 55C74.1063 55.6667 73.8508 56.0333 73.2508 56.1C72.7397 56.1667 72.2063 56.2333 71.6508 56.3C71.1174 56.3445 70.573 56.3889 70.0174 56.4333L69.9508 61.2C69.9508 61.8667 69.6174 62.2 68.9508 62.2H65.6841Z" fill="white"/>
<path d="M39.889 53.2333V53.4938L39.8921 53.4937L39.889 53.2333ZM39.889 48.1667L39.8909 47.9063H39.889V48.1667ZM49.189 48.2333L49.1872 48.4938H49.189V48.2333ZM50.489 48.6333L50.3123 48.8248L50.3196 48.8311L50.489 48.6333ZM51.0224 50.0667L51.2825 50.053L51.2823 50.0499L51.0224 50.0667ZM50.4224 54.8667L50.1746 54.7865L50.4224 54.8667ZM48.189 58.8333L47.9938 58.661L48.189 58.8333ZM44.4224 61.5333L44.3173 61.2951L44.316 61.2957L44.4224 61.5333ZM34.289 61.6L34.1899 61.8408L34.1911 61.8413L34.289 61.6ZM30.3557 59L30.1697 59.1823L30.1716 59.1842L30.3557 59ZM27.7224 54.9667L27.4806 55.0634L27.4818 55.0663L27.7224 54.9667ZM27.7224 44.6L27.9646 44.6955L27.9651 44.6944L27.7224 44.6ZM30.289 40.4667L30.0996 40.288L30.0995 40.2881L30.289 40.4667ZM34.1557 37.7333L34.2605 37.9718L34.2621 37.971L34.1557 37.7333ZM45.089 38.0667L44.9702 38.2984L44.9726 38.2996L45.089 38.0667ZM49.089 41.4333L48.8734 41.5794L48.8757 41.5827L49.089 41.4333ZM48.9557 42.8L48.8024 42.5893L48.7952 42.5949L48.9557 42.8ZM45.889 45.2L45.7285 44.9949L45.7264 44.9967L45.889 45.2ZM45.1224 45.5V45.7604H45.1324L45.1424 45.7597L45.1224 45.5ZM44.4224 45.1L44.6391 44.9556L44.638 44.954L44.4224 45.1ZM42.4557 43.4L42.3319 43.6291L42.3344 43.6305L42.4557 43.4ZM36.6557 43.2667L36.5474 43.0298L36.6557 43.2667ZM34.589 44.8L34.3955 44.6258L34.3951 44.6262L34.589 44.8ZM33.2224 47.1333L32.9778 47.0439L33.2224 47.1333ZM33.2557 53.1333L33.4975 53.0366L33.2557 53.1333ZM34.7224 55.4L34.9065 55.2159L34.7224 55.4ZM36.889 56.8667L36.7857 57.1058L36.7912 57.108L36.889 56.8667ZM41.8224 57.0333L41.9023 57.2812L41.8224 57.0333ZM43.6224 56.1333L43.7772 56.3428L43.7786 56.3417L43.6224 56.1333ZM44.9224 54.8L45.1376 54.9467L45.1405 54.9423L44.9224 54.8ZM45.6557 53.1667L45.9072 53.2344L45.9966 52.9023L45.6527 52.9063L45.6557 53.1667ZM39.889 52.9729C39.6514 52.9729 39.521 52.9137 39.4482 52.8409C39.3754 52.768 39.3161 52.6376 39.3161 52.4H38.7953C38.7953 52.7179 38.875 53.0042 39.0799 53.2092C39.2849 53.4141 39.5711 53.4938 39.889 53.4938V52.9729ZM39.3161 52.4V49H38.7953V52.4H39.3161ZM39.3161 49C39.3161 48.7624 39.3754 48.632 39.4482 48.5592C39.521 48.4863 39.6514 48.4271 39.889 48.4271V47.9063C39.5711 47.9063 39.2849 47.9859 39.0799 48.1909C38.875 48.3958 38.7953 48.6821 38.7953 49H39.3161ZM39.8872 48.4271L49.1872 48.4938L49.1909 47.9729L39.8909 47.9063L39.8872 48.4271ZM49.189 48.4938C49.7316 48.4938 50.09 48.6194 50.3124 48.8247L50.6657 48.442C50.3103 48.1139 49.802 47.9729 49.189 47.9729V48.4938ZM50.3196 48.8311C50.5507 49.0292 50.7197 49.4193 50.7625 50.0834L51.2823 50.0499C51.2362 49.3363 51.0496 48.7708 50.6585 48.4356L50.3196 48.8311ZM50.7623 50.0804C50.8496 51.7396 50.6531 53.3076 50.1746 54.7865L50.6702 54.9468C51.1695 53.4035 51.3729 51.7716 51.2824 50.053L50.7623 50.0804ZM50.1746 54.7865C49.6961 56.2654 48.9689 57.5559 47.9938 58.661L48.3843 59.0056C49.4091 57.8442 50.1708 56.4902 50.6702 54.9468L50.1746 54.7865ZM47.9938 58.661C47.0209 59.7636 45.7971 60.6422 44.3173 61.2951L44.5275 61.7716C46.0698 61.0912 47.3572 60.1698 48.3843 59.0056L47.9938 58.661ZM44.316 61.2957C42.8662 61.9448 41.1924 62.2729 39.289 62.2729V62.7938C41.2524 62.7938 43.0008 62.4552 44.5288 61.771L44.316 61.2957ZM39.289 62.2729C37.5196 62.2729 35.8866 61.9672 34.387 61.3587L34.1911 61.8413C35.7582 62.4772 37.4584 62.7938 39.289 62.7938V62.2729ZM34.3882 61.3592C32.9076 60.7495 31.6257 59.9017 30.5399 58.8159L30.1716 59.1842C31.308 60.3205 32.6483 61.206 34.1899 61.8408L34.3882 61.3592ZM30.5417 58.8177C29.4553 57.7096 28.5954 56.3937 27.963 54.867L27.4818 55.0663C28.1382 56.6508 29.0339 58.0238 30.1698 59.1823L30.5417 58.8177ZM27.9642 54.87C27.3557 53.3488 27.0495 51.66 27.0495 49.8H26.5286C26.5286 51.7178 26.8446 53.4734 27.4806 55.0634L27.9642 54.87ZM27.0495 49.8C27.0495 47.9401 27.3557 46.2396 27.9646 44.6955L27.4801 44.5045C26.8446 46.1159 26.5286 47.8821 26.5286 49.8H27.0495ZM27.9651 44.6944C28.5762 43.1231 29.4145 41.7745 30.4786 40.6453L30.0995 40.2881C28.9858 41.4699 28.113 42.8769 27.4797 44.5056L27.9651 44.6944ZM30.4785 40.6454C31.5659 39.4927 32.8261 38.602 34.2605 37.9718L34.051 37.4949C32.552 38.1536 31.2344 39.0851 30.0996 40.288L30.4785 40.6454ZM34.2621 37.971C35.7159 37.3201 37.2794 36.9938 38.9557 36.9938V36.4729C37.2098 36.4729 35.5733 36.8133 34.0493 37.4957L34.2621 37.971ZM38.9557 36.9938C41.2785 36.9938 43.2806 37.4319 44.9702 38.2984L45.2079 37.835C43.4308 36.9237 41.344 36.4729 38.9557 36.4729V36.9938ZM44.9726 38.2996C46.6726 39.1496 47.969 40.2443 48.8734 41.5794L49.3046 41.2873C48.3424 39.8668 46.9722 38.7171 45.2055 37.8338L44.9726 38.2996ZM48.8757 41.5827C49.0012 41.7619 49.062 41.9544 49.062 42.1667H49.5828C49.5828 41.8456 49.488 41.5492 49.3024 41.284L48.8757 41.5827ZM49.062 42.1667C49.062 42.308 48.9974 42.4477 48.8025 42.5894L49.1089 43.0106C49.4029 42.7968 49.5828 42.5143 49.5828 42.1667H49.062ZM48.7952 42.5949L45.7285 44.9949L46.0495 45.4051L49.1162 43.0051L48.7952 42.5949ZM45.7264 44.9967C45.5458 45.1411 45.3402 45.2221 45.1024 45.2404L45.1424 45.7597C45.4824 45.7335 45.7879 45.6144 46.0517 45.4034L45.7264 44.9967ZM45.1224 45.2396C44.9312 45.2396 44.7748 45.1591 44.6391 44.9556L44.2057 45.2445C44.4256 45.5743 44.7358 45.7604 45.1224 45.7604V45.2396ZM44.638 44.954C44.144 44.2247 43.4537 43.631 42.577 43.1696L42.3344 43.6305C43.1466 44.0579 43.7674 44.5975 44.2068 45.2461L44.638 44.954ZM42.5795 43.1709C41.706 42.6987 40.5697 42.4729 39.189 42.4729V42.9938C40.5195 42.9938 41.561 43.2124 42.3319 43.6291L42.5795 43.1709ZM39.189 42.4729C38.2431 42.4729 37.3614 42.6577 36.5474 43.0298L36.764 43.5035C37.5056 43.1645 38.3128 42.9938 39.189 42.9938V42.4729ZM36.5474 43.0298C35.7357 43.4009 35.0181 43.934 34.3955 44.6258L34.7826 44.9742C35.36 44.3327 36.0202 43.8435 36.764 43.5035L36.5474 43.0298ZM34.3951 44.6262C33.7928 45.2981 33.3211 46.1054 32.9778 47.0439L33.4669 47.2228C33.7903 46.339 34.2298 45.5908 34.7829 44.9739L34.3951 44.6262ZM32.9778 47.0439C32.6328 47.9869 32.462 49.0176 32.462 50.1333H32.9828C32.9828 49.0713 33.1453 48.102 33.4669 47.2228L32.9778 47.0439ZM32.462 50.1333C32.462 51.2723 32.6443 52.3059 33.0139 53.2301L33.4975 53.0366C33.1561 52.183 32.9828 51.2166 32.9828 50.1333H32.462ZM33.0139 53.2301C33.3814 54.1488 33.889 54.9349 34.5382 55.5842L34.9065 55.2159C34.3114 54.6207 33.8411 53.8957 33.4975 53.0366L33.0139 53.2301ZM34.5382 55.5842C35.1841 56.23 35.9339 56.7374 36.7857 57.1057L36.9924 56.6277C36.1998 56.2849 35.5051 55.8144 34.9065 55.2159L34.5382 55.5842ZM36.7912 57.108C37.6461 57.4546 38.5573 57.6271 39.5224 57.6271V57.1063C38.6208 57.1063 37.7764 56.9454 36.9869 56.6253L36.7912 57.108ZM39.5224 57.6271C40.3895 57.6271 41.1837 57.513 41.9023 57.2812L41.7424 56.7855C41.0833 56.9981 40.3441 57.1063 39.5224 57.1063V57.6271ZM41.9023 57.2812C42.6144 57.0515 43.2404 56.7395 43.7772 56.3428L43.4676 55.9239C42.9821 56.2828 42.4081 56.5708 41.7424 56.7855L41.9023 57.2812ZM43.7786 56.3417C44.332 55.9267 44.7862 55.462 45.1375 54.9467L44.7072 54.6533C44.3919 55.1158 43.9794 55.54 43.4661 55.925L43.7786 56.3417ZM45.1405 54.9423C45.4885 54.4087 45.7444 53.8391 45.9072 53.2344L45.4042 53.099C45.256 53.6498 45.0229 54.1691 44.7043 54.6578L45.1405 54.9423ZM45.6527 52.9063L39.886 52.9729L39.8921 53.4937L45.6587 53.4271L45.6527 52.9063ZM64.6841 61.2H64.9446L64.9444 61.1941L64.6841 61.2ZM64.5841 56.7667L64.8444 56.7608L64.8385 56.4954L64.5733 56.5065L64.5841 56.7667ZM59.8508 56.9V57.1605L59.8545 57.1604L59.8508 56.9ZM55.3174 56.8333L55.3253 56.573L55.3249 56.573L55.3174 56.8333ZM53.6841 56L53.455 56.1241L53.4592 56.1312L53.6841 56ZM53.4508 54.0333L53.7074 54.0773L53.7078 54.075L53.4508 54.0333ZM54.2841 46.9333L54.0244 46.9141L54.2841 46.9333ZM54.4841 39.4H54.2236L54.2237 39.4044L54.4841 39.4ZM54.8508 38.2667L54.6746 38.0745L54.6666 38.0825L54.8508 38.2667ZM60.1841 38.3333L59.9775 38.4922L59.984 38.5001L60.1841 38.3333ZM60.4841 39.4L60.2239 39.387L60.2237 39.395L60.4841 39.4ZM60.1841 46.0667L59.9244 46.0477L59.9242 46.0503L60.1841 46.0667ZM59.6174 51.7333L59.3598 51.6956L59.3182 51.9788L59.6041 51.9934L59.6174 51.7333ZM64.5174 51.8V52.0604H64.7824L64.7778 51.7955L64.5174 51.8ZM64.2841 38.2333H64.0236L64.0237 38.2378L64.2841 38.2333ZM70.2841 38.2333L70.0238 38.2247L70.0237 38.2294L70.2841 38.2333ZM70.0841 51.6L69.8237 51.5961L69.8195 51.8755L70.0985 51.86L70.0841 51.6ZM71.2841 51.5667V51.8271H71.2913L71.2985 51.8267L71.2841 51.5667ZM72.5508 51.4667L72.5345 51.2066L72.5248 51.2076L72.5508 51.4667ZM73.3174 51.6L73.1661 51.8119L73.1827 51.8238L73.201 51.8329L73.3174 51.6ZM73.6508 52.2L73.909 52.1662L73.9086 52.1632L73.6508 52.2ZM74.0174 55L73.7592 55.0338L73.7593 55.0344L74.0174 55ZM73.2508 56.1L73.222 55.8411L73.2171 55.8418L73.2508 56.1ZM71.6508 56.3L71.6724 56.5597L71.6818 56.5586L71.6508 56.3ZM70.0174 56.4333L69.9967 56.1738L69.7604 56.1927L69.757 56.4297L70.0174 56.4333ZM69.9508 61.2L69.6903 61.1964V61.2H69.9508ZM65.6841 61.9396C65.3909 61.9396 65.2188 61.8665 65.1182 61.7659C65.0176 61.6653 64.9445 61.4932 64.9445 61.2H64.4237C64.4237 61.5735 64.5172 61.9014 64.75 62.1342C64.9827 62.3669 65.3106 62.4604 65.6841 62.4604V61.9396ZM64.9444 61.1941L64.8444 56.7608L64.3237 56.7725L64.4237 61.2059L64.9444 61.1941ZM64.5733 56.5065C62.9756 56.5731 61.4002 56.6174 59.847 56.6396L59.8545 57.1604C61.4125 57.1381 62.9926 57.0936 64.5949 57.0269L64.5733 56.5065ZM59.8508 56.6396C58.2977 56.6396 56.7892 56.6174 55.3253 56.573L55.3095 57.0936C56.779 57.1382 58.2927 57.1604 59.8508 57.1604V56.6396ZM55.3249 56.573C54.6102 56.5526 54.1628 56.3038 53.909 55.8688L53.4592 56.1312C53.8276 56.7629 54.4691 57.0696 55.31 57.0937L55.3249 56.573ZM53.9131 55.876C53.6594 55.4076 53.581 54.815 53.7074 54.0773L53.1941 53.9893C53.0539 54.8072 53.131 55.5257 53.4551 56.124L53.9131 55.876ZM53.7078 54.075C54.0868 51.7341 54.3655 49.3599 54.5438 46.9526L54.0244 46.9141C53.8472 49.3067 53.5702 51.6659 53.1937 53.9917L53.7078 54.075ZM54.5438 46.9526C54.7222 44.544 54.789 42.025 54.7445 39.3956L54.2237 39.4044C54.268 42.0194 54.2015 44.5226 54.0244 46.9141L54.5438 46.9526ZM54.7445 39.4C54.7445 38.9251 54.8584 38.6273 55.0349 38.4508L54.6666 38.0825C54.3542 38.395 54.2237 38.8527 54.2237 39.4H54.7445ZM55.0267 38.4586C55.2431 38.2603 55.5016 38.1604 55.8174 38.1604V37.6396C55.3777 37.6396 54.9918 37.7841 54.6748 38.0747L55.0267 38.4586ZM55.8174 38.1604H59.1841V37.6396H55.8174V38.1604ZM59.1841 38.1604C59.5674 38.1604 59.8157 38.2815 59.9777 38.4921L60.3905 38.1746C60.1081 37.8074 59.6896 37.6396 59.1841 37.6396V38.1604ZM59.984 38.5001C60.1536 38.7035 60.2439 38.9888 60.224 39.387L60.7442 39.413C60.7687 38.9223 60.659 38.4965 60.3842 38.1666L59.984 38.5001ZM60.2237 39.395C60.1794 41.7018 60.0796 43.9194 59.9244 46.0477L60.4438 46.0856C60.5997 43.9473 60.6999 41.7204 60.7445 39.405L60.2237 39.395ZM59.9242 46.0503C59.7912 48.1559 59.603 50.0375 59.3598 51.6956L59.8751 51.7711C60.1208 50.0959 60.3103 48.1996 60.444 46.0831L59.9242 46.0503ZM59.6041 51.9934C60.4748 52.0381 61.3126 52.0604 62.1174 52.0604V51.5396C61.3222 51.5396 60.4934 51.5175 59.6308 51.4733L59.6041 51.9934ZM62.1174 52.0604H64.5174V51.5396H62.1174V52.0604ZM64.7778 51.7955L64.5445 38.2289L64.0237 38.2378L64.257 51.8045L64.7778 51.7955ZM64.5445 38.2333C64.5445 37.938 64.616 37.7647 64.713 37.6643C64.8084 37.5656 64.971 37.4938 65.2508 37.4938V36.9729C64.8861 36.9729 64.5653 37.0677 64.3385 37.3023C64.1133 37.5353 64.0237 37.862 64.0237 38.2333H64.5445ZM65.2508 37.4938H69.3174V36.9729H65.2508V37.4938ZM69.3174 37.4938C69.6114 37.4938 69.7779 37.5672 69.8719 37.6643C69.9658 37.7615 70.0336 37.9306 70.0238 38.2247L70.5444 38.242C70.5568 37.8694 70.4746 37.5385 70.2463 37.3023C70.018 37.0662 69.6901 36.9729 69.3174 36.9729V37.4938ZM70.0237 38.2294L69.8237 51.5961L70.3445 51.6039L70.5445 38.2372L70.0237 38.2294ZM70.0985 51.86C70.4937 51.8381 70.8889 51.8271 71.2841 51.8271V51.3063C70.8793 51.3063 70.4745 51.3175 70.0696 51.34L70.0985 51.86ZM71.2985 51.8267C71.7028 51.8042 72.1288 51.7706 72.5767 51.7258L72.5248 51.2076C72.0838 51.2517 71.6654 51.2847 71.2696 51.3067L71.2985 51.8267ZM72.567 51.7266C72.9079 51.7053 73.0863 51.755 73.1661 51.8119L73.4688 51.3881C73.2374 51.2228 72.9047 51.1836 72.5345 51.2068L72.567 51.7266ZM73.201 51.8329C73.2658 51.8654 73.3534 51.9598 73.393 52.2368L73.9086 52.1632C73.8593 51.818 73.7246 51.5124 73.4339 51.3671L73.201 51.8329ZM73.3925 52.2338L73.7592 55.0338L74.2756 54.9662L73.909 52.1662L73.3925 52.2338ZM73.7593 55.0344C73.7994 55.335 73.7544 55.5176 73.6788 55.6261C73.6075 55.7283 73.4749 55.8131 73.222 55.8412L73.2795 56.3588C73.6266 56.3203 73.9218 56.1884 74.1061 55.9239C74.286 55.6657 74.3244 55.3317 74.2756 54.9656L73.7593 55.0344ZM73.2171 55.8418C72.7069 55.9083 72.1745 55.9749 71.6197 56.0414L71.6818 56.5586C72.2382 56.4918 72.7724 56.425 73.2844 56.3582L73.2171 55.8418ZM71.6291 56.0405C71.0961 56.0849 70.5519 56.1293 69.9967 56.1738L70.0382 56.6929C70.594 56.6485 71.1388 56.604 71.6724 56.5595L71.6291 56.0405ZM69.757 56.4297L69.6904 61.1964L70.2112 61.2037L70.2778 56.437L69.757 56.4297ZM69.6903 61.2C69.6903 61.4932 69.6172 61.6653 69.5166 61.7659C69.416 61.8665 69.244 61.9396 68.9508 61.9396V62.4604C69.3242 62.4604 69.6522 62.3669 69.8849 62.1342C70.1176 61.9014 70.2112 61.5735 70.2112 61.2H69.6903ZM68.9508 61.9396H65.6841V62.4604H68.9508V61.9396Z" fill="url(#paint8_linear_366_9815)" style="mix-blend-mode:color-burn" mask="url(#path-12-outside-2_366_9815)"/>
</g>
<defs>
<filter id="filter0_d_366_9815" x="-4.16667" y="-3.125" width="108.333" height="108.333" filterUnits="userSpaceOnUse" color-interpolation-filters="sRGB">
<feFlood flood-opacity="0" result="BackgroundImageFix"/>
<feColorMatrix in="SourceAlpha" type="matrix" values="0 0 0 0 0 0 0 0 0 0 0 0 0 0 0 0 0 0 127 0" result="hardAlpha"/>
<feOffset dy="1.04167"/>
<feGaussianBlur stdDeviation="2.08333"/>
<feColorMatrix type="matrix" values="0 0 0 0 0 0 0 0 0 0 0 0 0 0 0 0 0 0 0.16 0"/>
<feBlend mode="color-burn" in2="BackgroundImageFix" result="effect1_dropShadow_366_9815"/>
<feBlend mode="normal" in="SourceGraphic" in2="effect1_dropShadow_366_9815" result="shape"/>
</filter>
<filter id="filter1_d_366_9815" x="20.2786" y="31.2646" width="60.2664" height="38.8208" filterUnits="userSpaceOnUse" color-interpolation-filters="sRGB">
<feFlood flood-opacity="0" result="BackgroundImageFix"/>
<feColorMatrix in="SourceAlpha" type="matrix" values="0 0 0 0 0 0 0 0 0 0 0 0 0 0 0 0 0 0 127 0" result="hardAlpha"/>
<feOffset dy="1.04167"/>
<feGaussianBlur stdDeviation="3.125"/>
<feColorMatrix type="matrix" values="0 0 0 0 0 0 0 0 0 0 0 0 0 0 0 0 0 0 0.12 0"/>
<feBlend mode="plus-darker" in2="BackgroundImageFix" result="effect1_dropShadow_366_9815"/>
<feBlend mode="normal" in="SourceGraphic" in2="effect1_dropShadow_366_9815" result="shape"/>
</filter>
<linearGradient id="paint0_linear_366_9815" x1="122.917" y1="122.917" x2="-51.5238" y2="31.9277" gradientUnits="userSpaceOnUse">
<stop stop-color="#61B82B"/>
<stop offset="1" stop-color="#399500"/>
</linearGradient>
<linearGradient id="paint1_linear_366_9815" x1="50" y1="-6.39143" x2="50" y2="105.635" gradientUnits="userSpaceOnUse">
<stop stop-color="white"/>
<stop offset="1" stop-color="white" stop-opacity="0"/>
</linearGradient>
<radialGradient id="paint2_radial_366_9815" cx="0" cy="0" r="1" gradientUnits="userSpaceOnUse" gradientTransform="translate(50 25.7865) rotate(90) scale(73.89 56.0618)">
<stop stop-color="white"/>
<stop offset="1" stop-color="white" stop-opacity="0"/>
</radialGradient>
<linearGradient id="paint3_linear_366_9815" x1="122.917" y1="122.917" x2="-51.5238" y2="31.9277" gradientUnits="userSpaceOnUse">
<stop stop-color="#61B82B"/>
<stop offset="1" stop-color="#399500"/>
</linearGradient>
<linearGradient id="paint4_linear_366_9815" x1="50" y1="-6.39143" x2="50" y2="105.635" gradientUnits="userSpaceOnUse">
<stop stop-color="white"/>
<stop offset="1" stop-color="white" stop-opacity="0"/>
</linearGradient>
<radialGradient id="paint5_radial_366_9815" cx="0" cy="0" r="1" gradientUnits="userSpaceOnUse" gradientTransform="translate(50 25.7865) rotate(90) scale(73.89 56.0618)">
<stop stop-color="white"/>
<stop offset="1" stop-color="white" stop-opacity="0"/>
</radialGradient>
<linearGradient id="paint6_linear_366_9815" x1="-22.9167" y1="-22.9167" x2="-22.9167" y2="122.917" gradientUnits="userSpaceOnUse">
<stop offset="0.135095" stop-color="white"/>
<stop offset="0.877908" stop-color="white" stop-opacity="0.01"/>
</linearGradient>
<linearGradient id="paint7_linear_366_9815" x1="50" y1="0" x2="50" y2="100" gradientUnits="userSpaceOnUse">
<stop stop-color="white"/>
<stop offset="1" stop-color="#999999"/>
</linearGradient>
<linearGradient id="paint8_linear_366_9815" x1="50" y1="33.3333" x2="50" y2="66.3333" gradientUnits="userSpaceOnUse">
<stop stop-color="#DFDFDF"/>
<stop offset="1" stop-color="#A9A9A9"/>
</linearGradient>
</defs>
</svg>
