<svg width="100" height="100" viewBox="0 0 100 100" fill="none" xmlns="http://www.w3.org/2000/svg">
<mask id="mask0_366_9802" style="mask-type:alpha" maskUnits="userSpaceOnUse" x="0" y="0" width="100" height="100">
<circle cx="50" cy="50" r="50" fill="white"/>
</mask>
<g mask="url(#mask0_366_9802)">
<mask id="mask1_366_9802" style="mask-type:alpha" maskUnits="userSpaceOnUse" x="0" y="0" width="100" height="100">
<circle cx="50" cy="50" r="50" fill="white"/>
</mask>
<g mask="url(#mask1_366_9802)">
<rect x="-22.9167" y="-22.9167" width="145.833" height="145.833" fill="url(#paint0_linear_366_9802)"/>
<rect x="-22.9167" y="-22.9167" width="145.833" height="145.833" fill="url(#paint1_linear_366_9802)" fill-opacity="0.6" style="mix-blend-mode:overlay"/>
<rect x="-22.9167" y="-22.9167" width="145.833" height="145.833" fill="url(#paint2_radial_366_9802)" fill-opacity="0.6" style="mix-blend-mode:overlay"/>
<rect x="-22.9167" y="-22.9167" width="145.833" height="145.833" fill="black" fill-opacity="0.16" style="mix-blend-mode:overlay"/>
<rect x="-22.9167" y="-22.9167" width="145.833" height="145.833" fill="black" fill-opacity="0.12" style="mix-blend-mode:darken"/>
</g>
<g filter="url(#filter0_d_366_9802)">
<mask id="mask2_366_9802" style="mask-type:alpha" maskUnits="userSpaceOnUse" x="0" y="0" width="100" height="100">
<path fill-rule="evenodd" clip-rule="evenodd" d="M95.8333 50C95.8333 75.313 75.313 95.8333 50 95.8333C24.6869 95.8333 4.16667 75.313 4.16667 50C4.16667 24.6869 24.6869 4.16667 50 4.16667C75.313 4.16667 95.8333 24.6869 95.8333 50ZM100 50C100 77.6142 77.6142 100 50 100C22.3858 100 0 77.6142 0 50C0 22.3858 22.3858 0 50 0C77.6142 0 100 22.3858 100 50ZM50 88.0208C70.9983 88.0208 88.0208 70.9983 88.0208 50C88.0208 29.0017 70.9983 11.9792 50 11.9792C29.0017 11.9792 11.9792 29.0017 11.9792 50C11.9792 70.9983 29.0017 88.0208 50 88.0208Z" fill="white"/>
</mask>
<g mask="url(#mask2_366_9802)">
<rect x="-22.9167" y="-22.9167" width="145.833" height="145.833" fill="url(#paint3_linear_366_9802)"/>
<rect x="-22.9167" y="-22.9167" width="145.833" height="145.833" fill="url(#paint4_linear_366_9802)" fill-opacity="0.6" style="mix-blend-mode:overlay"/>
<rect x="-22.9167" y="-22.9167" width="145.833" height="145.833" fill="url(#paint5_radial_366_9802)" fill-opacity="0.6" style="mix-blend-mode:overlay"/>
<g style="mix-blend-mode:soft-light">
<path fill-rule="evenodd" clip-rule="evenodd" d="M-22.9167 -22.9167H64.5833L36.6578 122.917H-22.9167V-22.9167Z" fill="url(#paint6_linear_366_9802)" style="mix-blend-mode:lighten"/>
</g>
<g style="mix-blend-mode:soft-light">
<mask id="path-10-inside-1_366_9802" fill="white">
<path fill-rule="evenodd" clip-rule="evenodd" d="M95.8333 50C95.8333 75.313 75.313 95.8333 50 95.8333C24.6869 95.8333 4.16667 75.313 4.16667 50C4.16667 24.6869 24.6869 4.16667 50 4.16667C75.313 4.16667 95.8333 24.6869 95.8333 50ZM100 50C100 77.6142 77.6142 100 50 100C22.3858 100 0 77.6142 0 50C0 22.3858 22.3858 0 50 0C77.6142 0 100 22.3858 100 50ZM50 88.0208C70.9983 88.0208 88.0208 70.9983 88.0208 50C88.0208 29.0017 70.9983 11.9792 50 11.9792C29.0017 11.9792 11.9792 29.0017 11.9792 50C11.9792 70.9983 29.0017 88.0208 50 88.0208Z"/>
</mask>
<path d="M50 96.0938C75.4569 96.0938 96.0938 75.4569 96.0938 50H95.5729C95.5729 75.1692 75.1692 95.5729 50 95.5729V96.0938ZM3.90625 50C3.90625 75.4569 24.5431 96.0938 50 96.0938V95.5729C24.8308 95.5729 4.42708 75.1692 4.42708 50H3.90625ZM50 3.90625C24.5431 3.90625 3.90625 24.5431 3.90625 50H4.42708C4.42708 24.8308 24.8308 4.42708 50 4.42708V3.90625ZM96.0938 50C96.0938 24.5431 75.4569 3.90625 50 3.90625V4.42708C75.1692 4.42708 95.5729 24.8308 95.5729 50H96.0938ZM50 100.26C77.7581 100.26 100.26 77.7581 100.26 50H99.7396C99.7396 77.4704 77.4704 99.7396 50 99.7396V100.26ZM-0.260417 50C-0.260417 77.7581 22.2419 100.26 50 100.26V99.7396C22.5296 99.7396 0.260417 77.4704 0.260417 50H-0.260417ZM50 -0.260417C22.2419 -0.260417 -0.260417 22.2419 -0.260417 50H0.260417C0.260417 22.5296 22.5296 0.260417 50 0.260417V-0.260417ZM100.26 50C100.26 22.2419 77.7581 -0.260417 50 -0.260417V0.260417C77.4704 0.260417 99.7396 22.5296 99.7396 50H100.26ZM87.7604 50C87.7604 70.8545 70.8545 87.7604 50 87.7604V88.2812C71.1421 88.2812 88.2812 71.1421 88.2812 50H87.7604ZM50 12.2396C70.8545 12.2396 87.7604 29.1455 87.7604 50H88.2812C88.2812 28.8578 71.1421 11.7188 50 11.7188V12.2396ZM12.2396 50C12.2396 29.1455 29.1455 12.2396 50 12.2396V11.7188C28.8578 11.7188 11.7188 28.8578 11.7188 50H12.2396ZM50 87.7604C29.1455 87.7604 12.2396 70.8545 12.2396 50H11.7188C11.7188 71.1421 28.8578 88.2812 50 88.2812V87.7604Z" fill="url(#paint7_linear_366_9802)" mask="url(#path-10-inside-1_366_9802)"/>
</g>
</g>
</g>
</g>
<g filter="url(#filter1_d_366_9802)">
<mask id="path-12-outside-2_366_9802" maskUnits="userSpaceOnUse" x="31.3333" y="36.3333" width="37" height="27" fill="black">
<rect fill="white" x="31.3333" y="36.3333" width="37" height="27"/>
<path d="M44.9509 53.2333C44.3953 53.2333 44.1176 52.9555 44.1176 52.4V49C44.1176 48.4444 44.3953 48.1666 44.9509 48.1666L54.2509 48.2333C54.8287 48.2333 55.262 48.3666 55.5509 48.6333C55.862 48.9 56.0398 49.3778 56.0842 50.0666C56.1731 51.7555 55.9731 53.3555 55.4842 54.8666C54.9953 56.3778 54.2509 57.7 53.2509 58.8333C52.2509 59.9666 50.9953 60.8666 49.4842 61.5333C47.9953 62.2 46.2842 62.5333 44.3509 62.5333C42.5509 62.5333 40.8842 62.2222 39.3509 61.6C37.8398 60.9778 36.5287 60.1111 35.4176 59C34.3064 57.8666 33.4287 56.5222 32.7842 54.9666C32.162 53.4111 31.8509 51.6889 31.8509 49.8C31.8509 47.9111 32.162 46.1778 32.7842 44.6C33.4064 43 34.262 41.6222 35.3509 40.4666C36.462 39.2889 37.7509 38.3778 39.2176 37.7333C40.7064 37.0666 42.3064 36.7333 44.0176 36.7333C46.3731 36.7333 48.4176 37.1778 50.1509 38.0666C51.8842 38.9333 53.2176 40.0555 54.1509 41.4333C54.3064 41.6555 54.3842 41.9 54.3842 42.1666C54.3842 42.4111 54.262 42.6222 54.0176 42.8L50.9509 45.2C50.7287 45.3778 50.4731 45.4778 50.1842 45.5C49.8953 45.5 49.662 45.3666 49.4842 45.1C49.0176 44.4111 48.362 43.8444 47.5176 43.4C46.6953 42.9555 45.6064 42.7333 44.2509 42.7333C43.3398 42.7333 42.4953 42.9111 41.7176 43.2666C40.9398 43.6222 40.2509 44.1333 39.6509 44.8C39.0731 45.4444 38.6176 46.2222 38.2842 47.1333C37.9509 48.0444 37.7842 49.0444 37.7842 50.1333C37.7842 51.2444 37.962 52.2444 38.3176 53.1333C38.6731 54.0222 39.162 54.7778 39.7842 55.4C40.4064 56.0222 41.1287 56.5111 41.9509 56.8666C42.7731 57.2 43.6509 57.3666 44.5842 57.3666C45.4287 57.3666 46.1953 57.2555 46.8842 57.0333C47.5731 56.8111 48.1731 56.5111 48.6842 56.1333C49.2176 55.7333 49.6509 55.2889 49.9842 54.8C50.3176 54.2889 50.562 53.7444 50.7176 53.1666L44.9509 53.2333ZM62.8459 62.2C62.1793 62.2 61.8459 61.8666 61.8459 61.2L61.5459 42.7L58.7793 42.8C58.4237 42.8 58.1348 42.7 57.9126 42.5C57.7126 42.2778 57.6126 41.9889 57.6126 41.6333V38.3C57.6126 37.9444 57.7126 37.6666 57.9126 37.4666C58.1348 37.2444 58.4237 37.1333 58.7793 37.1333L66.3126 37.2333C66.6682 37.2333 66.9459 37.3444 67.1459 37.5666C67.3682 37.7666 67.4793 38.0444 67.4793 38.4L67.1126 61.2C67.1126 61.8666 66.7793 62.2 66.1126 62.2H62.8459Z"/>
</mask>
<path d="M44.9509 53.2333C44.3953 53.2333 44.1176 52.9555 44.1176 52.4V49C44.1176 48.4444 44.3953 48.1666 44.9509 48.1666L54.2509 48.2333C54.8287 48.2333 55.262 48.3666 55.5509 48.6333C55.862 48.9 56.0398 49.3778 56.0842 50.0666C56.1731 51.7555 55.9731 53.3555 55.4842 54.8666C54.9953 56.3778 54.2509 57.7 53.2509 58.8333C52.2509 59.9666 50.9953 60.8666 49.4842 61.5333C47.9953 62.2 46.2842 62.5333 44.3509 62.5333C42.5509 62.5333 40.8842 62.2222 39.3509 61.6C37.8398 60.9778 36.5287 60.1111 35.4176 59C34.3064 57.8666 33.4287 56.5222 32.7842 54.9666C32.162 53.4111 31.8509 51.6889 31.8509 49.8C31.8509 47.9111 32.162 46.1778 32.7842 44.6C33.4064 43 34.262 41.6222 35.3509 40.4666C36.462 39.2889 37.7509 38.3778 39.2176 37.7333C40.7064 37.0666 42.3064 36.7333 44.0176 36.7333C46.3731 36.7333 48.4176 37.1778 50.1509 38.0666C51.8842 38.9333 53.2176 40.0555 54.1509 41.4333C54.3064 41.6555 54.3842 41.9 54.3842 42.1666C54.3842 42.4111 54.262 42.6222 54.0176 42.8L50.9509 45.2C50.7287 45.3778 50.4731 45.4778 50.1842 45.5C49.8953 45.5 49.662 45.3666 49.4842 45.1C49.0176 44.4111 48.362 43.8444 47.5176 43.4C46.6953 42.9555 45.6064 42.7333 44.2509 42.7333C43.3398 42.7333 42.4953 42.9111 41.7176 43.2666C40.9398 43.6222 40.2509 44.1333 39.6509 44.8C39.0731 45.4444 38.6176 46.2222 38.2842 47.1333C37.9509 48.0444 37.7842 49.0444 37.7842 50.1333C37.7842 51.2444 37.962 52.2444 38.3176 53.1333C38.6731 54.0222 39.162 54.7778 39.7842 55.4C40.4064 56.0222 41.1287 56.5111 41.9509 56.8666C42.7731 57.2 43.6509 57.3666 44.5842 57.3666C45.4287 57.3666 46.1953 57.2555 46.8842 57.0333C47.5731 56.8111 48.1731 56.5111 48.6842 56.1333C49.2176 55.7333 49.6509 55.2889 49.9842 54.8C50.3176 54.2889 50.562 53.7444 50.7176 53.1666L44.9509 53.2333ZM62.8459 62.2C62.1793 62.2 61.8459 61.8666 61.8459 61.2L61.5459 42.7L58.7793 42.8C58.4237 42.8 58.1348 42.7 57.9126 42.5C57.7126 42.2778 57.6126 41.9889 57.6126 41.6333V38.3C57.6126 37.9444 57.7126 37.6666 57.9126 37.4666C58.1348 37.2444 58.4237 37.1333 58.7793 37.1333L66.3126 37.2333C66.6682 37.2333 66.9459 37.3444 67.1459 37.5666C67.3682 37.7666 67.4793 38.0444 67.4793 38.4L67.1126 61.2C67.1126 61.8666 66.7793 62.2 66.1126 62.2H62.8459Z" fill="white"/>
<path d="M44.9509 53.2333V53.4937L44.9539 53.4937L44.9509 53.2333ZM44.9509 48.1666L44.9528 47.9062H44.9509V48.1666ZM54.2509 48.2333L54.249 48.4937H54.2509V48.2333ZM55.5509 48.6333L55.3741 48.8248L55.3814 48.831L55.5509 48.6333ZM56.0842 50.0666L56.3443 50.053L56.3441 50.0499L56.0842 50.0666ZM55.4842 54.8666L55.2365 54.7865L55.4842 54.8666ZM53.2509 58.8333L53.0556 58.661L53.2509 58.8333ZM49.4842 61.5333L49.3791 61.295L49.3778 61.2956L49.4842 61.5333ZM39.3509 61.6L39.2517 61.8408L39.253 61.8413L39.3509 61.6ZM35.4176 59L35.2316 59.1823L35.2334 59.1841L35.4176 59ZM32.7842 54.9666L32.5424 55.0634L32.5436 55.0663L32.7842 54.9666ZM32.7842 44.6L33.0265 44.6955L33.0269 44.6944L32.7842 44.6ZM35.3509 40.4666L35.1615 40.2879L35.1614 40.2881L35.3509 40.4666ZM39.2176 37.7333L39.3223 37.9717L39.324 37.971L39.2176 37.7333ZM50.1509 38.0666L50.0321 38.2984L50.0344 38.2996L50.1509 38.0666ZM54.1509 41.4333L53.9353 41.5794L53.9375 41.5827L54.1509 41.4333ZM54.0176 42.8L53.8643 42.5892L53.8571 42.5949L54.0176 42.8ZM50.9509 45.2L50.7904 44.9949L50.7882 44.9966L50.9509 45.2ZM50.1842 45.5V45.7604H50.1942L50.2042 45.7596L50.1842 45.5ZM49.4842 45.1L49.7009 44.9555L49.6998 44.9539L49.4842 45.1ZM47.5176 43.4L47.3937 43.6291L47.3963 43.6304L47.5176 43.4ZM41.7176 43.2666L41.6093 43.0298L41.7176 43.2666ZM39.6509 44.8L39.4573 44.6258L39.457 44.6261L39.6509 44.8ZM38.2842 47.1333L38.0397 47.0438L38.2842 47.1333ZM38.3176 53.1333L38.5593 53.0366L38.3176 53.1333ZM39.7842 55.4L39.9684 55.2158L39.7842 55.4ZM41.9509 56.8666L41.8475 57.1057L41.8531 57.108L41.9509 56.8666ZM46.8842 57.0333L46.9642 57.2812L46.8842 57.0333ZM48.6842 56.1333L48.839 56.3427L48.8405 56.3416L48.6842 56.1333ZM49.9842 54.8L50.1994 54.9467L50.2024 54.9422L49.9842 54.8ZM50.7176 53.1666L50.969 53.2343L51.0584 52.9023L50.7145 52.9062L50.7176 53.1666ZM44.9509 52.9729C44.7133 52.9729 44.5829 52.9137 44.51 52.8408C44.4372 52.768 44.378 52.6376 44.378 52.4H43.8571C43.8571 52.7179 43.9368 53.0042 44.1418 53.2091C44.3467 53.4141 44.633 53.4937 44.9509 53.4937V52.9729ZM44.378 52.4V49H43.8571V52.4H44.378ZM44.378 49C44.378 48.7623 44.4372 48.6319 44.51 48.5591C44.5829 48.4863 44.7133 48.4271 44.9509 48.4271V47.9062C44.633 47.9062 44.3467 47.9859 44.1418 48.1908C43.9368 48.3958 43.8571 48.6821 43.8571 49H44.378ZM44.949 48.4271L54.249 48.4937L54.2528 47.9729L44.9528 47.9062L44.949 48.4271ZM54.2509 48.4937C54.7935 48.4937 55.1519 48.6194 55.3743 48.8247L55.7275 48.442C55.3722 48.1139 54.8639 47.9729 54.2509 47.9729V48.4937ZM55.3814 48.831C55.6126 49.0292 55.7815 49.4193 55.8243 50.0834L56.3441 50.0499C56.2981 49.3363 56.1115 48.7708 55.7204 48.4356L55.3814 48.831ZM55.8242 50.0803C55.9115 51.7395 55.7149 53.3076 55.2365 54.7865L55.732 54.9468C56.2313 53.4035 56.4347 51.7715 56.3443 50.053L55.8242 50.0803ZM55.2365 54.7865C54.758 56.2654 54.0308 57.5558 53.0556 58.661L53.4462 59.0056C54.471 57.8441 55.2327 56.4901 55.732 54.9468L55.2365 54.7865ZM53.0556 58.661C52.0828 59.7636 50.859 60.6422 49.3791 61.2951L49.5893 61.7716C51.1317 61.0911 52.419 60.1697 53.4462 59.0056L53.0556 58.661ZM49.3778 61.2956C47.928 61.9448 46.2542 62.2729 44.3509 62.2729V62.7937C46.3142 62.7937 48.0627 62.4552 49.5906 61.771L49.3778 61.2956ZM44.3509 62.2729C42.5815 62.2729 40.9484 61.9672 39.4488 61.3587L39.253 61.8413C40.82 62.4772 42.5203 62.7937 44.3509 62.7937V62.2729ZM39.45 61.3592C37.9694 60.7495 36.6875 59.9017 35.6017 58.8158L35.2334 59.1841C36.3698 60.3205 37.7101 61.206 39.2517 61.8408L39.45 61.3592ZM35.6035 58.8177C34.5171 57.7096 33.6573 56.3936 33.0248 54.867L32.5436 55.0663C33.2001 56.6508 34.0958 58.0237 35.2316 59.1823L35.6035 58.8177ZM33.026 54.8699C32.4176 53.3488 32.1113 51.6599 32.1113 49.8H31.5905C31.5905 51.7178 31.9064 53.4734 32.5424 55.0634L33.026 54.8699ZM32.1113 49.8C32.1113 47.9401 32.4176 46.2396 33.0265 44.6955L32.542 44.5044C31.9065 46.1159 31.5905 47.8821 31.5905 49.8H32.1113ZM33.0269 44.6944C33.638 43.123 34.4763 41.7745 35.5404 40.6452L35.1614 40.2881C34.0477 41.4699 33.1749 42.8769 32.5415 44.5056L33.0269 44.6944ZM35.5403 40.6453C36.6278 39.4927 37.8879 38.602 39.3223 37.9717L39.1128 37.4949C37.6138 38.1535 36.2963 39.0851 35.1615 40.2879L35.5403 40.6453ZM39.324 37.971C40.7778 37.32 42.3413 36.9937 44.0176 36.9937V36.4729C42.2716 36.4729 40.6351 36.8132 39.1111 37.4956L39.324 37.971ZM44.0176 36.9937C46.3403 36.9937 48.3424 37.4319 50.0321 38.2984L50.2697 37.8349C48.4927 36.9236 46.4059 36.4729 44.0176 36.4729V36.9937ZM50.0344 38.2996C51.7344 39.1496 53.0309 40.2443 53.9353 41.5794L54.3665 41.2873C53.4043 39.8668 52.034 38.7171 50.2674 37.8337L50.0344 38.2996ZM53.9375 41.5827C54.063 41.7619 54.1238 41.9544 54.1238 42.1666H54.6446C54.6446 41.8456 54.5499 41.5492 54.3642 41.284L53.9375 41.5827ZM54.1238 42.1666C54.1238 42.3079 54.0593 42.4476 53.8644 42.5894L54.1707 43.0106C54.4647 42.7968 54.6446 42.5143 54.6446 42.1666H54.1238ZM53.8571 42.5949L50.7904 44.9949L51.1114 45.4051L54.1781 43.0051L53.8571 42.5949ZM50.7882 44.9966C50.6076 45.1411 50.402 45.222 50.1643 45.2403L50.2042 45.7596C50.5442 45.7335 50.8497 45.6144 51.1136 45.4033L50.7882 44.9966ZM50.1842 45.2396C49.993 45.2396 49.8366 45.1591 49.7009 44.9555L49.2675 45.2444C49.4874 45.5742 49.7976 45.7604 50.1842 45.7604V45.2396ZM49.6998 44.9539C49.2058 44.2247 48.5156 43.631 47.6388 43.1695L47.3963 43.6304C48.2084 44.0579 48.8293 44.5975 49.2686 45.246L49.6998 44.9539ZM47.6414 43.1709C46.7678 42.6987 45.6315 42.4729 44.2509 42.4729V42.9937C45.5814 42.9937 46.6228 43.2124 47.3937 43.6291L47.6414 43.1709ZM44.2509 42.4729C43.3049 42.4729 42.4232 42.6577 41.6093 43.0298L41.8258 43.5035C42.5674 43.1645 43.3747 42.9937 44.2509 42.9937V42.4729ZM41.6093 43.0298C40.7975 43.4009 40.08 43.9339 39.4573 44.6258L39.8445 44.9742C40.4218 44.3327 41.082 43.8435 41.8258 43.5035L41.6093 43.0298ZM39.457 44.6261C38.8546 45.298 38.383 46.1054 38.0397 47.0438L38.5288 47.2228C38.8521 46.339 39.2916 45.5908 39.8448 44.9738L39.457 44.6261ZM38.0397 47.0438C37.6946 47.9869 37.5238 49.0176 37.5238 50.1333H38.0446C38.0446 49.0712 38.2071 48.1019 38.5288 47.2228L38.0397 47.0438ZM37.5238 50.1333C37.5238 51.2723 37.7061 52.3059 38.0758 53.23L38.5593 53.0366C38.2179 52.183 38.0446 51.2165 38.0446 50.1333H37.5238ZM38.0758 53.23C38.4433 54.1488 38.9508 54.9348 39.6001 55.5841L39.9684 55.2158C39.3732 54.6207 38.903 53.8956 38.5593 53.0366L38.0758 53.23ZM39.6001 55.5841C40.246 56.23 40.9957 56.7373 41.8475 57.1057L42.0543 56.6276C41.2616 56.2849 40.5669 55.8144 39.9684 55.2158L39.6001 55.5841ZM41.8531 57.108C42.708 57.4546 43.6191 57.6271 44.5842 57.6271V57.1062C43.6827 57.1062 42.8383 56.9454 42.0487 56.6253L41.8531 57.108ZM44.5842 57.6271C45.4514 57.6271 46.2456 57.513 46.9642 57.2812L46.8043 56.7855C46.1451 56.9981 45.4059 57.1062 44.5842 57.1062V57.6271ZM46.9642 57.2812C47.6763 57.0515 48.3023 56.7394 48.839 56.3427L48.5294 55.9239C48.0439 56.2827 47.47 56.5707 46.8043 56.7855L46.9642 57.2812ZM48.8405 56.3416C49.3938 55.9266 49.848 55.462 50.1994 54.9467L49.7691 54.6533C49.4538 55.1157 49.0413 55.54 48.528 55.925L48.8405 56.3416ZM50.2024 54.9422C50.5504 54.4086 50.8062 53.8391 50.969 53.2343L50.4661 53.0989C50.3178 53.6497 50.0848 54.1691 49.7661 54.6577L50.2024 54.9422ZM50.7145 52.9062L44.9479 52.9729L44.9539 53.4937L50.7206 53.427L50.7145 52.9062ZM61.8459 61.2H62.1064L62.1063 61.1958L61.8459 61.2ZM61.5459 42.7L61.8063 42.6958L61.802 42.4301L61.5365 42.4397L61.5459 42.7ZM58.7793 42.8V43.0606L58.7887 43.0602L58.7793 42.8ZM57.9126 42.5L57.719 42.6742L57.7282 42.6844L57.7384 42.6935L57.9126 42.5ZM57.9126 37.4666L57.7285 37.2825L57.9126 37.4666ZM58.7793 37.1333L58.7827 36.8729H58.7793V37.1333ZM66.3126 37.2333L66.3092 37.4937H66.3126V37.2333ZM67.1459 37.5666L66.9524 37.7409L66.9615 37.751L66.9717 37.7602L67.1459 37.5666ZM67.4793 38.4L67.7397 38.4042V38.4H67.4793ZM67.1126 61.2L66.8522 61.1958V61.2H67.1126ZM62.8459 61.9396C62.5528 61.9396 62.3807 61.8664 62.2801 61.7658C62.1795 61.6652 62.1064 61.4932 62.1064 61.2H61.5855C61.5855 61.5735 61.6791 61.9014 61.9118 62.1341C62.1445 62.3669 62.4725 62.4604 62.8459 62.4604V61.9396ZM62.1063 61.1958L61.8063 42.6958L61.2856 42.7042L61.5856 61.2042L62.1063 61.1958ZM61.5365 42.4397L58.7699 42.5397L58.7887 43.0602L61.5554 42.9602L61.5365 42.4397ZM58.7793 42.5396C58.4752 42.5396 58.2525 42.4555 58.0868 42.3064L57.7384 42.6935C58.0172 42.9445 58.3723 43.0604 58.7793 43.0604V42.5396ZM58.1062 42.3258C57.9571 42.1601 57.873 41.9374 57.873 41.6333H57.3522C57.3522 42.0403 57.4681 42.3954 57.719 42.6742L58.1062 42.3258ZM57.873 41.6333V38.3H57.3522V41.6333H57.873ZM57.873 38.3C57.873 37.9948 57.9574 37.7901 58.0968 37.6508L57.7285 37.2825C57.4678 37.5432 57.3522 37.8941 57.3522 38.3H57.873ZM58.0968 37.6508C58.2636 37.484 58.4829 37.3937 58.7793 37.3937V36.8729C58.3645 36.8729 58.0061 37.0049 57.7285 37.2825L58.0968 37.6508ZM58.7758 37.3937L66.3092 37.4937L66.3161 36.9729L58.7827 36.8729L58.7758 37.3937ZM66.3126 37.4937C66.6096 37.4937 66.8111 37.5839 66.9524 37.7409L67.3395 37.3924C67.0808 37.1049 66.7267 36.9729 66.3126 36.9729V37.4937ZM66.9717 37.7602C67.1287 37.9015 67.2189 38.103 67.2189 38.4H67.7397C67.7397 37.9859 67.6077 37.6318 67.3202 37.3731L66.9717 37.7602ZM67.2189 38.3958L66.8522 61.1958L67.373 61.2042L67.7397 38.4042L67.2189 38.3958ZM66.8522 61.2C66.8522 61.4932 66.7791 61.6652 66.6785 61.7658C66.5779 61.8664 66.4058 61.9396 66.1126 61.9396V62.4604C66.4861 62.4604 66.814 62.3669 67.0468 62.1341C67.2795 61.9014 67.373 61.5735 67.373 61.2H66.8522ZM66.1126 61.9396H62.8459V62.4604H66.1126V61.9396Z" fill="url(#paint8_linear_366_9802)" style="mix-blend-mode:color-burn" mask="url(#path-12-outside-2_366_9802)"/>
</g>
<defs>
<filter id="filter0_d_366_9802" x="-4.16667" y="-3.125" width="108.333" height="108.333" filterUnits="userSpaceOnUse" color-interpolation-filters="sRGB">
<feFlood flood-opacity="0" result="BackgroundImageFix"/>
<feColorMatrix in="SourceAlpha" type="matrix" values="0 0 0 0 0 0 0 0 0 0 0 0 0 0 0 0 0 0 127 0" result="hardAlpha"/>
<feOffset dy="1.04167"/>
<feGaussianBlur stdDeviation="2.08333"/>
<feColorMatrix type="matrix" values="0 0 0 0 0 0 0 0 0 0 0 0 0 0 0 0 0 0 0.16 0"/>
<feBlend mode="color-burn" in2="BackgroundImageFix" result="effect1_dropShadow_366_9802"/>
<feBlend mode="normal" in="SourceGraphic" in2="effect1_dropShadow_366_9802" result="shape"/>
</filter>
<filter id="filter1_d_366_9802" x="25.3405" y="31.2646" width="48.6492" height="38.8208" filterUnits="userSpaceOnUse" color-interpolation-filters="sRGB">
<feFlood flood-opacity="0" result="BackgroundImageFix"/>
<feColorMatrix in="SourceAlpha" type="matrix" values="0 0 0 0 0 0 0 0 0 0 0 0 0 0 0 0 0 0 127 0" result="hardAlpha"/>
<feOffset dy="1.04167"/>
<feGaussianBlur stdDeviation="3.125"/>
<feColorMatrix type="matrix" values="0 0 0 0 0 0 0 0 0 0 0 0 0 0 0 0 0 0 0.12 0"/>
<feBlend mode="plus-darker" in2="BackgroundImageFix" result="effect1_dropShadow_366_9802"/>
<feBlend mode="normal" in="SourceGraphic" in2="effect1_dropShadow_366_9802" result="shape"/>
</filter>
<linearGradient id="paint0_linear_366_9802" x1="122.917" y1="122.917" x2="-51.5238" y2="31.9277" gradientUnits="userSpaceOnUse">
<stop stop-color="#61B82B"/>
<stop offset="1" stop-color="#399500"/>
</linearGradient>
<linearGradient id="paint1_linear_366_9802" x1="50" y1="-6.39146" x2="50" y2="105.635" gradientUnits="userSpaceOnUse">
<stop stop-color="white"/>
<stop offset="1" stop-color="white" stop-opacity="0"/>
</linearGradient>
<radialGradient id="paint2_radial_366_9802" cx="0" cy="0" r="1" gradientUnits="userSpaceOnUse" gradientTransform="translate(50 25.7865) rotate(90) scale(73.89 56.0618)">
<stop stop-color="white"/>
<stop offset="1" stop-color="white" stop-opacity="0"/>
</radialGradient>
<linearGradient id="paint3_linear_366_9802" x1="122.917" y1="122.917" x2="-51.5238" y2="31.9277" gradientUnits="userSpaceOnUse">
<stop stop-color="#61B82B"/>
<stop offset="1" stop-color="#399500"/>
</linearGradient>
<linearGradient id="paint4_linear_366_9802" x1="50" y1="-6.39146" x2="50" y2="105.635" gradientUnits="userSpaceOnUse">
<stop stop-color="white"/>
<stop offset="1" stop-color="white" stop-opacity="0"/>
</linearGradient>
<radialGradient id="paint5_radial_366_9802" cx="0" cy="0" r="1" gradientUnits="userSpaceOnUse" gradientTransform="translate(50 25.7865) rotate(90) scale(73.89 56.0618)">
<stop stop-color="white"/>
<stop offset="1" stop-color="white" stop-opacity="0"/>
</radialGradient>
<linearGradient id="paint6_linear_366_9802" x1="-22.9167" y1="-22.9167" x2="-22.9167" y2="122.917" gradientUnits="userSpaceOnUse">
<stop offset="0.135095" stop-color="white"/>
<stop offset="0.877908" stop-color="white" stop-opacity="0.01"/>
</linearGradient>
<linearGradient id="paint7_linear_366_9802" x1="50" y1="0" x2="50" y2="100" gradientUnits="userSpaceOnUse">
<stop stop-color="white"/>
<stop offset="1" stop-color="#999999"/>
</linearGradient>
<linearGradient id="paint8_linear_366_9802" x1="50" y1="33.3333" x2="50" y2="66.3333" gradientUnits="userSpaceOnUse">
<stop stop-color="#DFDFDF"/>
<stop offset="1" stop-color="#A9A9A9"/>
</linearGradient>
</defs>
</svg>
