<svg width="100" height="100" viewBox="0 0 100 100" fill="none" xmlns="http://www.w3.org/2000/svg">
<mask id="mask0_366_9809" style="mask-type:alpha" maskUnits="userSpaceOnUse" x="0" y="0" width="100" height="100">
<circle cx="50" cy="50" r="50" fill="white"/>
</mask>
<g mask="url(#mask0_366_9809)">
<mask id="mask1_366_9809" style="mask-type:alpha" maskUnits="userSpaceOnUse" x="0" y="0" width="100" height="100">
<circle cx="50" cy="50" r="50" fill="white"/>
</mask>
<g mask="url(#mask1_366_9809)">
<rect x="-22.9167" y="-22.9167" width="145.833" height="145.833" fill="url(#paint0_linear_366_9809)"/>
<rect x="-22.9167" y="-22.9167" width="145.833" height="145.833" fill="url(#paint1_linear_366_9809)" fill-opacity="0.6" style="mix-blend-mode:overlay"/>
<rect x="-22.9167" y="-22.9167" width="145.833" height="145.833" fill="url(#paint2_radial_366_9809)" fill-opacity="0.6" style="mix-blend-mode:overlay"/>
<rect x="-22.9167" y="-22.9167" width="145.833" height="145.833" fill="black" fill-opacity="0.16" style="mix-blend-mode:overlay"/>
<rect x="-22.9167" y="-22.9167" width="145.833" height="145.833" fill="black" fill-opacity="0.12" style="mix-blend-mode:darken"/>
</g>
<g filter="url(#filter0_d_366_9809)">
<mask id="mask2_366_9809" style="mask-type:alpha" maskUnits="userSpaceOnUse" x="0" y="0" width="100" height="100">
<path fill-rule="evenodd" clip-rule="evenodd" d="M95.8333 50C95.8333 75.313 75.313 95.8333 50 95.8333C24.6869 95.8333 4.16667 75.313 4.16667 50C4.16667 24.6869 24.6869 4.16667 50 4.16667C75.313 4.16667 95.8333 24.6869 95.8333 50ZM100 50C100 77.6142 77.6142 100 50 100C22.3858 100 0 77.6142 0 50C0 22.3858 22.3858 0 50 0C77.6142 0 100 22.3858 100 50ZM50 88.0208C70.9983 88.0208 88.0208 70.9983 88.0208 50C88.0208 29.0017 70.9983 11.9792 50 11.9792C29.0017 11.9792 11.9792 29.0017 11.9792 50C11.9792 70.9983 29.0017 88.0208 50 88.0208Z" fill="white"/>
</mask>
<g mask="url(#mask2_366_9809)">
<rect x="-22.9167" y="-22.9167" width="145.833" height="145.833" fill="url(#paint3_linear_366_9809)"/>
<rect x="-22.9167" y="-22.9167" width="145.833" height="145.833" fill="url(#paint4_linear_366_9809)" fill-opacity="0.6" style="mix-blend-mode:overlay"/>
<rect x="-22.9167" y="-22.9167" width="145.833" height="145.833" fill="url(#paint5_radial_366_9809)" fill-opacity="0.6" style="mix-blend-mode:overlay"/>
<g style="mix-blend-mode:soft-light">
<path fill-rule="evenodd" clip-rule="evenodd" d="M-22.9167 -22.9167H64.5833L36.6578 122.917H-22.9167V-22.9167Z" fill="url(#paint6_linear_366_9809)" style="mix-blend-mode:lighten"/>
</g>
<g style="mix-blend-mode:soft-light">
<mask id="path-10-inside-1_366_9809" fill="white">
<path fill-rule="evenodd" clip-rule="evenodd" d="M95.8333 50C95.8333 75.313 75.313 95.8333 50 95.8333C24.6869 95.8333 4.16667 75.313 4.16667 50C4.16667 24.6869 24.6869 4.16667 50 4.16667C75.313 4.16667 95.8333 24.6869 95.8333 50ZM100 50C100 77.6142 77.6142 100 50 100C22.3858 100 0 77.6142 0 50C0 22.3858 22.3858 0 50 0C77.6142 0 100 22.3858 100 50ZM50 88.0208C70.9983 88.0208 88.0208 70.9983 88.0208 50C88.0208 29.0017 70.9983 11.9792 50 11.9792C29.0017 11.9792 11.9792 29.0017 11.9792 50C11.9792 70.9983 29.0017 88.0208 50 88.0208Z"/>
</mask>
<path d="M50 96.0938C75.4569 96.0938 96.0938 75.4569 96.0938 50H95.5729C95.5729 75.1692 75.1692 95.5729 50 95.5729V96.0938ZM3.90625 50C3.90625 75.4569 24.5431 96.0938 50 96.0938V95.5729C24.8308 95.5729 4.42708 75.1692 4.42708 50H3.90625ZM50 3.90625C24.5431 3.90625 3.90625 24.5431 3.90625 50H4.42708C4.42708 24.8308 24.8308 4.42708 50 4.42708V3.90625ZM96.0938 50C96.0938 24.5431 75.4569 3.90625 50 3.90625V4.42708C75.1692 4.42708 95.5729 24.8308 95.5729 50H96.0938ZM50 100.26C77.7581 100.26 100.26 77.7581 100.26 50H99.7396C99.7396 77.4704 77.4704 99.7396 50 99.7396V100.26ZM-0.260417 50C-0.260417 77.7581 22.2419 100.26 50 100.26V99.7396C22.5296 99.7396 0.260417 77.4704 0.260417 50H-0.260417ZM50 -0.260417C22.2419 -0.260417 -0.260417 22.2419 -0.260417 50H0.260417C0.260417 22.5296 22.5296 0.260417 50 0.260417V-0.260417ZM100.26 50C100.26 22.2419 77.7581 -0.260417 50 -0.260417V0.260417C77.4704 0.260417 99.7396 22.5296 99.7396 50H100.26ZM87.7604 50C87.7604 70.8545 70.8545 87.7604 50 87.7604V88.2812C71.1421 88.2812 88.2812 71.1421 88.2812 50H87.7604ZM50 12.2396C70.8545 12.2396 87.7604 29.1455 87.7604 50H88.2812C88.2812 28.8578 71.1421 11.7188 50 11.7188V12.2396ZM12.2396 50C12.2396 29.1455 29.1455 12.2396 50 12.2396V11.7188C28.8578 11.7188 11.7188 28.8578 11.7188 50H12.2396ZM50 87.7604C29.1455 87.7604 12.2396 70.8545 12.2396 50H11.7188C11.7188 71.1421 28.8578 88.2812 50 88.2812V87.7604Z" fill="url(#paint7_linear_366_9809)" mask="url(#path-10-inside-1_366_9809)"/>
</g>
</g>
</g>
<g filter="url(#filter1_dd_366_9809)">
<rect y="71.3542" width="100" height="18.75" fill="#FFA00F"/>
<rect x="0.130208" y="71.4844" width="99.7396" height="18.4896" stroke="url(#paint8_linear_366_9809)" stroke-width="0.260417" stroke-linecap="round" style="mix-blend-mode:darken"/>
</g>
<rect y="71.3542" width="100" height="18.75" fill="url(#paint9_linear_366_9809)" fill-opacity="0.3" style="mix-blend-mode:overlay"/>
<rect y="71.3542" width="100" height="18.75" fill="url(#paint10_radial_366_9809)" fill-opacity="0.6" style="mix-blend-mode:overlay"/>
<g filter="url(#filter2_d_366_9809)">
<path fill-rule="evenodd" clip-rule="evenodd" d="M37.4998 83.8542L36.8152 84.2141C35.8549 84.719 35.3747 84.9714 35.0196 84.9056C34.7107 84.8483 34.4442 84.6546 34.2942 84.3785C34.1219 84.0612 34.2136 83.5265 34.397 82.4571L34.5277 81.6949L33.9739 81.1551C33.197 80.3977 32.8085 80.0191 32.7614 79.661C32.7204 79.3495 32.8222 79.0362 33.0385 78.8082C33.287 78.5463 33.8239 78.4683 34.8976 78.3122L35.663 78.201L36.0052 77.5075C36.4854 76.5346 36.7255 76.0481 37.0514 75.8927C37.335 75.7574 37.6645 75.7574 37.9481 75.8927C38.2741 76.0481 38.5142 76.5346 38.9943 77.5075L39.3366 78.201L40.1019 78.3122C41.1757 78.4683 41.7125 78.5463 41.9611 78.8082C42.1773 79.0362 42.2791 79.3495 42.2382 79.661C42.1911 80.0191 41.8026 80.3977 41.0256 81.1551L40.4718 81.6949L40.6026 82.4571C40.786 83.5265 40.8777 84.0612 40.7053 84.3785C40.5554 84.6546 40.2888 84.8483 39.9799 84.9056C39.6249 84.9714 39.1447 84.719 38.1843 84.2141L37.4998 83.8542Z" fill="white"/>
<path d="M36.8758 84.3293L37.4998 84.0013L38.1237 84.3293L38.1302 84.3328C38.6049 84.5823 38.9693 84.7739 39.2592 84.8941C39.5485 85.0141 39.7872 85.0738 40.0037 85.0336C40.3512 84.9692 40.6511 84.7513 40.8198 84.4407C40.9249 84.2472 40.9419 84.0018 40.9172 83.6896C40.8924 83.3767 40.8228 82.9709 40.7321 82.4423L40.7309 82.4351L40.6117 81.7403L41.1165 81.2483L41.1218 81.2432C41.5058 80.8688 41.8006 80.5815 42.0046 80.3429C42.2081 80.1048 42.3385 79.8963 42.3672 79.678L42.2382 79.661L42.3672 79.678C42.4133 79.3276 42.2988 78.975 42.0555 78.7186C41.904 78.5589 41.6759 78.4669 41.3713 78.3939C41.066 78.3208 40.6587 78.2616 40.1279 78.1844L40.1207 78.1834L39.4231 78.082L39.1111 77.4499L39.1079 77.4433C38.8705 76.9624 38.6883 76.5933 38.5244 76.3255C38.3609 76.0584 38.2029 75.8699 38.0042 75.7751C37.6851 75.623 37.3144 75.623 36.9954 75.7751C36.7966 75.8699 36.6386 76.0584 36.4751 76.3255C36.3112 76.5933 36.129 76.9624 35.8917 77.4434L35.8885 77.4499L35.5765 78.082L34.8789 78.1834L34.8717 78.1844C34.3409 78.2616 33.9335 78.3208 33.6283 78.3939C33.3237 78.4669 33.0956 78.5589 32.944 78.7186C32.7008 78.975 32.5862 79.3276 32.6323 79.678C32.661 79.8963 32.7915 80.1048 32.995 80.3429C33.199 80.5815 33.4938 80.8688 33.8778 81.2432L33.883 81.2483L34.3878 81.7403L34.2687 82.4351L34.2674 82.4423C34.1768 82.9709 34.1072 83.3767 34.0824 83.6896C34.0577 84.0018 34.0747 84.2472 34.1798 84.4407C34.3485 84.7513 34.6484 84.9692 34.9959 85.0336C35.2124 85.0738 35.451 85.0141 35.7403 84.8941C36.0303 84.7739 36.3946 84.5823 36.8694 84.3328L36.8758 84.3293Z" stroke="url(#paint11_linear_366_9809)" stroke-width="0.260417" stroke-linecap="round" style="mix-blend-mode:color-burn"/>
</g>
<g filter="url(#filter3_d_366_9809)">
<path fill-rule="evenodd" clip-rule="evenodd" d="M49.9998 83.8542L49.3152 84.2141C48.3549 84.719 47.8747 84.9714 47.5196 84.9056C47.2107 84.8483 46.9442 84.6546 46.7942 84.3785C46.6219 84.0612 46.7136 83.5265 46.897 82.4571L47.0277 81.6949L46.4739 81.1551C45.697 80.3977 45.3085 80.0191 45.2614 79.661C45.2204 79.3495 45.3222 79.0362 45.5385 78.8082C45.787 78.5463 46.3239 78.4683 47.3976 78.3122L48.163 78.201L48.5052 77.5075C48.9854 76.5346 49.2255 76.0481 49.5514 75.8927C49.835 75.7574 50.1645 75.7574 50.4481 75.8927C50.7741 76.0481 51.0142 76.5346 51.4943 77.5075L51.8366 78.201L52.6019 78.3122C53.6757 78.4683 54.2125 78.5463 54.4611 78.8082C54.6773 79.0362 54.7791 79.3495 54.7382 79.661C54.6911 80.0191 54.3026 80.3977 53.5256 81.1551L52.9718 81.6949L53.1026 82.4571C53.286 83.5265 53.3777 84.0612 53.2053 84.3785C53.0554 84.6546 52.7888 84.8483 52.4799 84.9056C52.1249 84.9714 51.6447 84.719 50.6843 84.2141L49.9998 83.8542Z" fill="white"/>
<path d="M49.3758 84.3293L49.9998 84.0013L50.6237 84.3293L50.6302 84.3328C51.1049 84.5823 51.4693 84.7739 51.7592 84.8941C52.0485 85.0141 52.2872 85.0738 52.5037 85.0336C52.8512 84.9692 53.1511 84.7513 53.3198 84.4407C53.4249 84.2472 53.4419 84.0018 53.4172 83.6896C53.3924 83.3767 53.3228 82.9709 53.2321 82.4423L53.2309 82.4351L53.1117 81.7403L53.6165 81.2483L53.6218 81.2432C54.0058 80.8688 54.3006 80.5815 54.5046 80.3429C54.7081 80.1048 54.8385 79.8963 54.8672 79.678L54.7382 79.661L54.8672 79.678C54.9133 79.3276 54.7988 78.975 54.5555 78.7186C54.404 78.5589 54.1759 78.4669 53.8713 78.3939C53.566 78.3208 53.1587 78.2616 52.6279 78.1844L52.6207 78.1834L51.9231 78.082L51.6111 77.4499L51.6079 77.4433C51.3705 76.9624 51.1883 76.5933 51.0244 76.3255C50.8609 76.0584 50.7029 75.8699 50.5042 75.7751C50.1851 75.623 49.8144 75.623 49.4954 75.7751C49.2966 75.8699 49.1386 76.0584 48.9751 76.3255C48.8112 76.5933 48.629 76.9624 48.3917 77.4434L48.3885 77.4499L48.0765 78.082L47.3789 78.1834L47.3717 78.1844C46.8409 78.2616 46.4335 78.3208 46.1283 78.3939C45.8237 78.4669 45.5956 78.5589 45.444 78.7186C45.2008 78.975 45.0862 79.3276 45.1323 79.678C45.161 79.8963 45.2915 80.1048 45.495 80.3429C45.699 80.5815 45.9938 80.8688 46.3778 81.2432L46.383 81.2483L46.8878 81.7403L46.7687 82.4351L46.7674 82.4423C46.6768 82.9709 46.6072 83.3767 46.5824 83.6896C46.5577 84.0018 46.5747 84.2472 46.6798 84.4407C46.8485 84.7513 47.1484 84.9692 47.4959 85.0336C47.7124 85.0738 47.951 85.0141 48.2403 84.8941C48.5303 84.7739 48.8946 84.5823 49.3694 84.3328L49.3758 84.3293Z" stroke="url(#paint12_linear_366_9809)" stroke-width="0.260417" stroke-linecap="round" style="mix-blend-mode:color-burn"/>
</g>
<g filter="url(#filter4_d_366_9809)">
<path fill-rule="evenodd" clip-rule="evenodd" d="M62.4998 83.8542L61.8152 84.2141C60.8549 84.719 60.3747 84.9714 60.0196 84.9056C59.7107 84.8483 59.4442 84.6546 59.2942 84.3785C59.1219 84.0612 59.2136 83.5265 59.397 82.4571L59.5277 81.6949L58.9739 81.1551C58.197 80.3977 57.8085 80.0191 57.7614 79.661C57.7204 79.3495 57.8222 79.0362 58.0385 78.8082C58.287 78.5463 58.8239 78.4683 59.8976 78.3122L60.663 78.201L61.0052 77.5075C61.4854 76.5346 61.7255 76.0481 62.0514 75.8927C62.335 75.7574 62.6645 75.7574 62.9481 75.8927C63.2741 76.0481 63.5142 76.5346 63.9943 77.5075L64.3366 78.201L65.1019 78.3122C66.1757 78.4683 66.7125 78.5463 66.9611 78.8082C67.1773 79.0362 67.2791 79.3495 67.2382 79.661C67.1911 80.0191 66.8026 80.3977 66.0256 81.1551L65.4718 81.6949L65.6026 82.4571C65.786 83.5265 65.8777 84.0612 65.7053 84.3785C65.5554 84.6546 65.2888 84.8483 64.9799 84.9056C64.6249 84.9714 64.1447 84.719 63.1843 84.2141L62.4998 83.8542Z" fill="white"/>
<path d="M61.8758 84.3293L62.4998 84.0013L63.1237 84.3293L63.1302 84.3328C63.6049 84.5823 63.9693 84.7739 64.2592 84.8941C64.5485 85.0141 64.7872 85.0738 65.0037 85.0336C65.3512 84.9692 65.6511 84.7513 65.8198 84.4407C65.9249 84.2472 65.9419 84.0018 65.9172 83.6896C65.8924 83.3767 65.8228 82.9709 65.7321 82.4423L65.7309 82.4351L65.6117 81.7403L66.1165 81.2483L66.1218 81.2432C66.5058 80.8688 66.8006 80.5815 67.0046 80.3429C67.2081 80.1048 67.3385 79.8963 67.3672 79.678L67.2382 79.661L67.3672 79.678C67.4133 79.3276 67.2988 78.975 67.0555 78.7186C66.904 78.5589 66.6759 78.4669 66.3713 78.3939C66.066 78.3208 65.6587 78.2616 65.1279 78.1844L65.1207 78.1834L64.4231 78.082L64.1111 77.4499L64.1079 77.4433C63.8705 76.9624 63.6883 76.5933 63.5244 76.3255C63.3609 76.0584 63.2029 75.8699 63.0042 75.7751C62.6851 75.623 62.3144 75.623 61.9954 75.7751C61.7966 75.8699 61.6386 76.0584 61.4751 76.3255C61.3112 76.5933 61.129 76.9624 60.8917 77.4434L60.8885 77.4499L60.5765 78.082L59.8789 78.1834L59.8717 78.1844C59.3409 78.2616 58.9335 78.3208 58.6283 78.3939C58.3237 78.4669 58.0956 78.5589 57.944 78.7186C57.7008 78.975 57.5862 79.3276 57.6323 79.678C57.661 79.8963 57.7915 80.1048 57.995 80.3429C58.199 80.5815 58.4938 80.8688 58.8778 81.2432L58.883 81.2483L59.3878 81.7403L59.2687 82.4351L59.2674 82.4423C59.1768 82.9709 59.1072 83.3767 59.0824 83.6896C59.0577 84.0018 59.0747 84.2472 59.1798 84.4407C59.3485 84.7513 59.6484 84.9692 59.9959 85.0336C60.2124 85.0738 60.451 85.0141 60.7403 84.8941C61.0303 84.7739 61.3946 84.5823 61.8694 84.3328L61.8758 84.3293Z" stroke="url(#paint13_linear_366_9809)" stroke-width="0.260417" stroke-linecap="round" style="mix-blend-mode:color-burn"/>
</g>
</g>
<g filter="url(#filter5_d_366_9809)">
<mask id="path-21-outside-2_366_9809" maskUnits="userSpaceOnUse" x="31.3333" y="36.3333" width="38" height="27" fill="black">
<rect fill="white" x="31.3333" y="36.3333" width="38" height="27"/>
<path d="M33.885 62.2C33.2183 62.2 32.885 61.8667 32.885 61.2L32.5183 39.6C32.4961 38.8222 32.7072 38.2444 33.1517 37.8667C33.5961 37.4667 34.1628 37.2667 34.8517 37.2667L47.1517 37.2C47.5072 37.2 47.785 37.3111 47.985 37.5333C48.2072 37.7333 48.3183 38.0111 48.3183 38.3667V41.1C48.3183 41.4555 48.2072 41.7444 47.985 41.9667C47.785 42.1667 47.5072 42.2667 47.1517 42.2667L38.5517 42.4333L38.485 47.2333L46.485 47.3C46.8406 47.3 47.1183 47.4111 47.3183 47.6333C47.5406 47.8333 47.6517 48.1111 47.6517 48.4667V51C47.6517 51.3556 47.5406 51.6444 47.3183 51.8667C47.1183 52.0667 46.8406 52.1667 46.485 52.1667L38.4183 52.3L38.285 61.2C38.285 61.8667 37.9517 62.2 37.285 62.2H33.885ZM51.5707 58.7333C51.5707 58.3556 51.6596 58.0778 51.8374 57.9C52.0151 57.7 52.3262 57.4444 52.7707 57.1333C53.8818 56.4 54.9818 55.5778 56.0707 54.6667C57.1818 53.7556 58.1818 52.8111 59.0707 51.8333C59.9818 50.8556 60.7262 49.8889 61.304 48.9333C61.904 47.9556 62.2485 47.0556 62.3374 46.2333C62.404 45.6778 62.3596 45.1667 62.204 44.7C62.0485 44.2111 61.8151 43.7889 61.504 43.4333C61.1929 43.0778 60.7929 42.8 60.304 42.6C59.8151 42.4 59.2707 42.3 58.6707 42.3C57.7818 42.3 56.9485 42.5 56.1707 42.9C55.4151 43.3 54.7596 43.8667 54.204 44.6C54.004 44.8667 53.7596 45 53.4707 45C53.204 44.9778 52.9596 44.8778 52.7374 44.7L50.004 42.8C49.5818 42.4 49.5374 41.9444 49.8707 41.4333C50.8485 39.9667 52.0485 38.8222 53.4707 38C54.9151 37.1556 56.6485 36.7333 58.6707 36.7333C60.2262 36.7333 61.5929 36.9778 62.7707 37.4667C63.9485 37.9333 64.9262 38.5667 65.704 39.3667C66.504 40.1667 67.0929 41.1 67.4707 42.1667C67.8485 43.2111 68.004 44.3222 67.9374 45.5C67.8707 46.6778 67.5707 47.8444 67.0374 49C66.504 50.1333 65.8374 51.2222 65.0374 52.2667C64.2596 53.2889 63.3929 54.2333 62.4374 55.1C61.504 55.9667 60.5929 56.7111 59.704 57.3333C61.0374 57.2667 62.3374 57.1778 63.604 57.0667C64.8707 56.9333 66.004 56.7778 67.004 56.6C67.6485 56.4889 68.0151 56.7111 68.104 57.2667L68.604 60.0333C68.7374 60.7 68.504 61.0889 67.904 61.2C65.5262 61.5778 63.1262 61.8444 60.704 62C58.2818 62.1778 55.6262 62.2444 52.7374 62.2C51.9596 62.2 51.5707 61.8111 51.5707 61.0333V58.7333Z"/>
</mask>
<path d="M33.885 62.2C33.2183 62.2 32.885 61.8667 32.885 61.2L32.5183 39.6C32.4961 38.8222 32.7072 38.2444 33.1517 37.8667C33.5961 37.4667 34.1628 37.2667 34.8517 37.2667L47.1517 37.2C47.5072 37.2 47.785 37.3111 47.985 37.5333C48.2072 37.7333 48.3183 38.0111 48.3183 38.3667V41.1C48.3183 41.4555 48.2072 41.7444 47.985 41.9667C47.785 42.1667 47.5072 42.2667 47.1517 42.2667L38.5517 42.4333L38.485 47.2333L46.485 47.3C46.8406 47.3 47.1183 47.4111 47.3183 47.6333C47.5406 47.8333 47.6517 48.1111 47.6517 48.4667V51C47.6517 51.3556 47.5406 51.6444 47.3183 51.8667C47.1183 52.0667 46.8406 52.1667 46.485 52.1667L38.4183 52.3L38.285 61.2C38.285 61.8667 37.9517 62.2 37.285 62.2H33.885ZM51.5707 58.7333C51.5707 58.3556 51.6596 58.0778 51.8374 57.9C52.0151 57.7 52.3262 57.4444 52.7707 57.1333C53.8818 56.4 54.9818 55.5778 56.0707 54.6667C57.1818 53.7556 58.1818 52.8111 59.0707 51.8333C59.9818 50.8556 60.7262 49.8889 61.304 48.9333C61.904 47.9556 62.2485 47.0556 62.3374 46.2333C62.404 45.6778 62.3596 45.1667 62.204 44.7C62.0485 44.2111 61.8151 43.7889 61.504 43.4333C61.1929 43.0778 60.7929 42.8 60.304 42.6C59.8151 42.4 59.2707 42.3 58.6707 42.3C57.7818 42.3 56.9485 42.5 56.1707 42.9C55.4151 43.3 54.7596 43.8667 54.204 44.6C54.004 44.8667 53.7596 45 53.4707 45C53.204 44.9778 52.9596 44.8778 52.7374 44.7L50.004 42.8C49.5818 42.4 49.5374 41.9444 49.8707 41.4333C50.8485 39.9667 52.0485 38.8222 53.4707 38C54.9151 37.1556 56.6485 36.7333 58.6707 36.7333C60.2262 36.7333 61.5929 36.9778 62.7707 37.4667C63.9485 37.9333 64.9262 38.5667 65.704 39.3667C66.504 40.1667 67.0929 41.1 67.4707 42.1667C67.8485 43.2111 68.004 44.3222 67.9374 45.5C67.8707 46.6778 67.5707 47.8444 67.0374 49C66.504 50.1333 65.8374 51.2222 65.0374 52.2667C64.2596 53.2889 63.3929 54.2333 62.4374 55.1C61.504 55.9667 60.5929 56.7111 59.704 57.3333C61.0374 57.2667 62.3374 57.1778 63.604 57.0667C64.8707 56.9333 66.004 56.7778 67.004 56.6C67.6485 56.4889 68.0151 56.7111 68.104 57.2667L68.604 60.0333C68.7374 60.7 68.504 61.0889 67.904 61.2C65.5262 61.5778 63.1262 61.8444 60.704 62C58.2818 62.1778 55.6262 62.2444 52.7374 62.2C51.9596 62.2 51.5707 61.8111 51.5707 61.0333V58.7333Z" fill="white"/>
<path d="M32.885 61.2H33.1455L33.1454 61.1956L32.885 61.2ZM32.5183 39.6L32.7787 39.5956L32.7787 39.5926L32.5183 39.6ZM33.1517 37.8667L33.3204 38.0652L33.3259 38.0602L33.1517 37.8667ZM34.8517 37.2667V37.5271L34.8531 37.5271L34.8517 37.2667ZM47.1517 37.2V36.9396L47.1503 36.9396L47.1517 37.2ZM47.985 37.5333L47.7914 37.7075L47.8006 37.7177L47.8108 37.7269L47.985 37.5333ZM47.985 41.9667L48.1692 42.1508V42.1508L47.985 41.9667ZM47.1517 42.2667V42.0062L47.1466 42.0063L47.1517 42.2667ZM38.5517 42.4333L38.5466 42.173L38.2948 42.1778L38.2913 42.4297L38.5517 42.4333ZM38.485 47.2333L38.2246 47.2297L38.221 47.4916L38.4828 47.4937L38.485 47.2333ZM46.485 47.3L46.4828 47.5604H46.485V47.3ZM47.3183 47.6333L47.1248 47.8075L47.1339 47.8177L47.1441 47.8269L47.3183 47.6333ZM47.3183 51.8667L47.1342 51.6825V51.6825L47.3183 51.8667ZM46.485 52.1667V51.9062L46.4807 51.9063L46.485 52.1667ZM38.4183 52.3L38.414 52.0396L38.1617 52.0438L38.158 52.2961L38.4183 52.3ZM38.285 61.2L38.0246 61.1961V61.2H38.285ZM33.885 61.9396C33.5918 61.9396 33.4198 61.8665 33.3192 61.7659C33.2185 61.6652 33.1454 61.4932 33.1454 61.2H32.6246C32.6246 61.5735 32.7181 61.9014 32.9509 62.1341C33.1836 62.3669 33.5115 62.4604 33.885 62.4604V61.9396ZM33.1454 61.1956L32.7787 39.5956L32.258 39.6044L32.6246 61.2044L33.1454 61.1956ZM32.7787 39.5926C32.7579 38.8655 32.9547 38.3758 33.3203 38.0651L32.983 37.6682C32.4597 38.113 32.2344 38.7789 32.258 39.6074L32.7787 39.5926ZM33.3259 38.0602C33.7153 37.7098 34.2167 37.5271 34.8517 37.5271V37.0062C34.1089 37.0062 33.477 37.2236 32.9775 37.6731L33.3259 38.0602ZM34.8531 37.5271L47.1531 37.4604L47.1503 36.9396L34.8503 37.0062L34.8531 37.5271ZM47.1517 37.4604C47.4487 37.4604 47.6502 37.5506 47.7914 37.7075L48.1786 37.3591C47.9198 37.0716 47.5658 36.9396 47.1517 36.9396V37.4604ZM47.8108 37.7269C47.9677 37.8681 48.0579 38.0697 48.0579 38.3667H48.5788C48.5788 37.9525 48.4467 37.5985 48.1592 37.3398L47.8108 37.7269ZM48.0579 38.3667V41.1H48.5788V38.3667H48.0579ZM48.0579 41.1C48.0579 41.3964 47.9677 41.6157 47.8009 41.7825L48.1692 42.1508C48.4468 41.8732 48.5788 41.5147 48.5788 41.1H48.0579ZM47.8009 41.7825C47.6615 41.9219 47.4569 42.0062 47.1517 42.0062V42.5271C47.5576 42.5271 47.9085 42.4115 48.1692 42.1508L47.8009 41.7825ZM47.1466 42.0063L38.5466 42.173L38.5567 42.6937L47.1567 42.527L47.1466 42.0063ZM38.2913 42.4297L38.2246 47.2297L38.7454 47.2369L38.8121 42.4369L38.2913 42.4297ZM38.4828 47.4937L46.4828 47.5604L46.4872 47.0396L38.4872 46.9729L38.4828 47.4937ZM46.485 47.5604C46.782 47.5604 46.9835 47.6506 47.1248 47.8075L47.5119 47.4591C47.2532 47.1716 46.8991 47.0396 46.485 47.0396V47.5604ZM47.1441 47.8269C47.3011 47.9681 47.3913 48.1697 47.3913 48.4667H47.9121C47.9121 48.0525 47.78 47.6985 47.4925 47.4398L47.1441 47.8269ZM47.3913 48.4667V51H47.9121V48.4667H47.3913ZM47.3913 51C47.3913 51.2964 47.301 51.5157 47.1342 51.6825L47.5025 52.0508C47.7801 51.7732 47.9121 51.4147 47.9121 51H47.3913ZM47.1342 51.6825C46.9948 51.8219 46.7902 51.9062 46.485 51.9062V52.4271C46.8909 52.4271 47.2418 52.3115 47.5025 52.0508L47.1342 51.6825ZM46.4807 51.9063L38.414 52.0396L38.4226 52.5604L46.4893 52.427L46.4807 51.9063ZM38.158 52.2961L38.0246 61.1961L38.5454 61.2039L38.6787 52.3039L38.158 52.2961ZM38.0246 61.2C38.0246 61.4932 37.9515 61.6652 37.8509 61.7659C37.7503 61.8665 37.5782 61.9396 37.285 61.9396V62.4604C37.6585 62.4604 37.9864 62.3669 38.2192 62.1341C38.4519 61.9014 38.5454 61.5735 38.5454 61.2H38.0246ZM37.285 61.9396H33.885V62.4604H37.285V61.9396ZM51.8374 57.9L52.0215 58.0841L52.0269 58.0787L52.032 58.073L51.8374 57.9ZM52.7707 57.1333L52.6272 56.9159L52.6213 56.92L52.7707 57.1333ZM56.0707 54.6667L55.9056 54.4653L55.9036 54.4669L56.0707 54.6667ZM59.0707 51.8333L58.8801 51.6558L58.878 51.6582L59.0707 51.8333ZM61.304 48.9333L61.0821 48.7971L61.0812 48.7986L61.304 48.9333ZM62.3374 46.2333L62.0788 46.2023L62.0784 46.2053L62.3374 46.2333ZM62.204 44.7L61.9558 44.779L61.957 44.7823L62.204 44.7ZM61.504 43.4333L61.7 43.2618V43.2618L61.504 43.4333ZM60.304 42.6L60.2054 42.841L60.304 42.6ZM56.1707 42.9L56.0516 42.6684L56.0488 42.6698L56.1707 42.9ZM54.204 44.6L53.9964 44.4427L53.9957 44.4437L54.204 44.6ZM53.4707 45L53.4491 45.2595L53.4599 45.2604H53.4707V45ZM52.7374 44.7L52.9 44.4966L52.8932 44.4912L52.886 44.4862L52.7374 44.7ZM50.004 42.8L49.8249 42.989L49.8392 43.0026L49.8554 43.0138L50.004 42.8ZM49.8707 41.4333L49.654 41.2889L49.6526 41.2911L49.8707 41.4333ZM53.4707 38L53.601 38.2254L53.6021 38.2248L53.4707 38ZM62.7707 37.4667L62.6708 37.7072L62.6748 37.7088L62.7707 37.4667ZM65.704 39.3667L65.5173 39.5482L65.5199 39.5508L65.704 39.3667ZM67.4707 42.1667L67.2252 42.2536L67.2258 42.2552L67.4707 42.1667ZM67.9374 45.5L67.6774 45.4853V45.4853L67.9374 45.5ZM67.0373 49L67.273 49.1109L67.2738 49.1091L67.0373 49ZM65.0374 52.2667L64.8306 52.1083L64.8301 52.109L65.0374 52.2667ZM62.4374 55.1L62.2624 54.9071L62.2602 54.9092L62.4374 55.1ZM59.704 57.3333L59.5547 57.12L58.8138 57.6386L59.717 57.5934L59.704 57.3333ZM63.604 57.0667L63.6268 57.3261L63.6313 57.3256L63.604 57.0667ZM67.004 56.6L66.9598 56.3434L66.9584 56.3436L67.004 56.6ZM68.104 57.2667L67.8468 57.3078L67.8478 57.313L68.104 57.2667ZM68.604 60.0333L68.3477 60.0796L68.3487 60.0844L68.604 60.0333ZM67.904 61.2L67.9449 61.4573L67.9514 61.4561L67.904 61.2ZM60.704 62L60.6873 61.7401L60.685 61.7403L60.704 62ZM52.7374 62.2L52.7414 61.9396H52.7374V62.2ZM51.8311 58.7333C51.8311 58.3903 51.9124 58.1933 52.0215 58.0841L51.6532 57.7159C51.4068 57.9623 51.3103 58.3208 51.3103 58.7333H51.8311ZM52.032 58.073C52.1886 57.8968 52.4789 57.6555 52.92 57.3467L52.6213 56.92C52.1736 57.2334 51.8416 57.5032 51.6427 57.727L52.032 58.073ZM52.9141 57.3507C54.034 56.6116 55.1419 55.7834 56.2378 54.8664L55.9036 54.4669C54.8217 55.3721 53.7296 56.1884 52.6272 56.916L52.9141 57.3507ZM56.2358 54.868C57.3559 53.9496 58.3652 52.9964 59.2634 52.0085L58.878 51.6582C57.9983 52.6258 57.0077 53.5615 55.9056 54.4653L56.2358 54.868ZM59.2612 52.0109C60.1822 51.0224 60.9382 50.0416 61.5269 49.0681L61.0812 48.7986C60.5143 49.7362 59.7814 50.6887 58.8802 51.6558L59.2612 52.0109ZM61.526 49.0695C62.1388 48.0708 62.5019 47.1338 62.5963 46.2613L62.0784 46.2053C61.995 46.9773 61.6692 47.8403 61.0821 48.7971L61.526 49.0695ZM62.5959 46.2644C62.6665 45.6759 62.6204 45.1255 62.4511 44.6176L61.957 44.7823C62.0988 45.2078 62.1415 45.6797 62.0788 46.2023L62.5959 46.2644ZM62.4522 44.621C62.2867 44.101 62.0366 43.6466 61.7 43.2618L61.308 43.6048C61.5936 43.9312 61.8102 44.3212 61.9559 44.779L62.4522 44.621ZM61.7 43.2618C61.3593 42.8724 60.9245 42.5724 60.4026 42.359L60.2054 42.841C60.6614 43.0275 61.0266 43.2831 61.308 43.6048L61.7 43.2618ZM60.4026 42.359C59.8785 42.1445 59.2999 42.0396 58.6707 42.0396V42.5604C59.2414 42.5604 59.7518 42.6554 60.2054 42.841L60.4026 42.359ZM58.6707 42.0396C57.7411 42.0396 56.8668 42.2491 56.0516 42.6684L56.2898 43.1316C57.0301 42.7508 57.8225 42.5604 58.6707 42.5604V42.0396ZM56.0488 42.6698C55.2572 43.0889 54.5731 43.6815 53.9964 44.4427L54.4116 44.7572C54.946 44.0518 55.573 43.5111 56.2925 43.1301L56.0488 42.6698ZM53.9957 44.4437C53.8363 44.6563 53.6642 44.7396 53.4707 44.7396V45.2604C53.8549 45.2604 54.1718 45.077 54.4124 44.7562L53.9957 44.4437ZM53.4923 44.7405C53.2805 44.7228 53.0846 44.6443 52.9 44.4966L52.5747 44.9033C52.8346 45.1113 53.1275 45.2327 53.4491 45.2595L53.4923 44.7405ZM52.886 44.4862L50.1527 42.5862L49.8554 43.0138L52.5887 44.9138L52.886 44.4862ZM50.1831 42.6109C50.0049 42.4421 49.9278 42.2829 49.9132 42.133C49.8984 41.9812 49.9437 41.7981 50.0888 41.5756L49.6526 41.2911C49.4643 41.5797 49.3652 41.8799 49.3948 42.1836C49.4247 42.4893 49.5809 42.7579 49.8249 42.989L50.1831 42.6109ZM50.0874 41.5778C51.0446 40.1419 52.2159 39.0262 53.601 38.2254L53.3403 37.7745C51.881 38.6182 50.6523 39.7914 49.654 41.2889L50.0874 41.5778ZM53.6021 38.2248C54.9991 37.4081 56.685 36.9937 58.6707 36.9937V36.4729C56.6119 36.4729 54.8311 36.903 53.3393 37.7752L53.6021 38.2248ZM58.6707 36.9937C60.1993 36.9937 61.5308 37.234 62.6708 37.7072L62.8705 37.2261C61.655 36.7216 60.2532 36.4729 58.6707 36.4729V36.9937ZM62.6748 37.7088C63.823 38.1637 64.7684 38.7779 65.5173 39.5482L65.8907 39.1851C65.0841 38.3554 64.074 37.7029 62.8666 37.2246L62.6748 37.7088ZM65.5199 39.5508C66.2924 40.3234 66.8604 41.2235 67.2252 42.2536L67.7162 42.0797C67.3254 40.9765 66.7156 40.01 65.8882 39.1825L65.5199 39.5508ZM67.2258 42.2552C67.5909 43.2646 67.7422 44.3404 67.6774 45.4853L68.1974 45.5147C68.2659 44.304 68.106 43.1576 67.7156 42.0781L67.2258 42.2552ZM67.6774 45.4853C67.6127 46.6279 67.3216 47.7627 66.8009 48.8909L67.2738 49.1091C67.8198 47.9262 68.1287 46.7277 68.1974 45.5147L67.6774 45.4853ZM66.8017 48.8891C66.2767 50.0048 65.6199 51.0779 64.8306 52.1083L65.2441 52.425C66.0548 51.3666 66.7313 50.2618 67.273 49.1109L66.8017 48.8891ZM64.8301 52.109C64.062 53.1184 63.2062 54.0511 62.2624 54.9071L62.6123 55.2929C63.5796 54.4155 64.4571 53.4593 65.2446 52.4243L64.8301 52.109ZM62.2602 54.9092C61.3341 55.7691 60.4323 56.5057 59.5547 57.12L59.8534 57.5467C60.7535 56.9165 61.6739 56.1643 62.6146 55.2908L62.2602 54.9092ZM59.717 57.5934C61.0535 57.5266 62.3567 57.4375 63.6268 57.3261L63.5813 56.8072C62.318 56.9181 61.0213 57.0067 59.691 57.0732L59.717 57.5934ZM63.6313 57.3256C64.9026 57.1918 66.0422 57.0355 67.0496 56.8564L66.9584 56.3436C65.9658 56.5201 64.8387 56.6748 63.5768 56.8077L63.6313 57.3256ZM67.0483 56.8566C67.3399 56.8063 67.5198 56.8408 67.6274 56.906C67.7263 56.966 67.8105 57.0804 67.8469 57.3078L68.3612 57.2255C68.3087 56.8974 68.1651 56.6229 67.8973 56.4606C67.6383 56.3036 67.3126 56.2825 66.9598 56.3434L67.0483 56.8566ZM67.8478 57.313L68.3478 60.0796L68.8603 59.987L68.3603 57.2203L67.8478 57.313ZM68.3487 60.0844C68.4088 60.3851 68.3758 60.5742 68.3057 60.691C68.2395 60.8014 68.1098 60.897 67.8566 60.9439L67.9514 61.4561C68.2982 61.3918 68.5852 61.2375 68.7523 60.959C68.9156 60.6869 68.9326 60.3482 68.8594 59.9823L68.3487 60.0844ZM67.8632 60.9428C65.4935 61.3193 63.1015 61.5851 60.6873 61.7401L60.7207 62.2599C63.151 62.1038 65.559 61.8362 67.9449 61.4572L67.8632 60.9428ZM60.685 61.7403C58.2717 61.9174 55.6239 61.984 52.7414 61.9396L52.7333 62.4604C55.6285 62.5049 58.2919 62.4381 60.7231 62.2597L60.685 61.7403ZM52.7374 61.9396C52.3886 61.9396 52.1749 61.8526 52.0465 61.7242C51.9181 61.5958 51.8311 61.3821 51.8311 61.0333H51.3103C51.3103 61.4624 51.4177 61.832 51.6782 62.0925C51.9387 62.353 52.3083 62.4604 52.7374 62.4604V61.9396ZM51.8311 61.0333V58.7333H51.3103V61.0333H51.8311Z" fill="url(#paint14_linear_366_9809)" style="mix-blend-mode:color-burn" mask="url(#path-21-outside-2_366_9809)"/>
</g>
<defs>
<filter id="filter0_d_366_9809" x="-4.16667" y="-3.125" width="108.333" height="108.333" filterUnits="userSpaceOnUse" color-interpolation-filters="sRGB">
<feFlood flood-opacity="0" result="BackgroundImageFix"/>
<feColorMatrix in="SourceAlpha" type="matrix" values="0 0 0 0 0 0 0 0 0 0 0 0 0 0 0 0 0 0 127 0" result="hardAlpha"/>
<feOffset dy="1.04167"/>
<feGaussianBlur stdDeviation="2.08333"/>
<feColorMatrix type="matrix" values="0 0 0 0 0 0 0 0 0 0 0 0 0 0 0 0 0 0 0.16 0"/>
<feBlend mode="color-burn" in2="BackgroundImageFix" result="effect1_dropShadow_366_9809"/>
<feBlend mode="normal" in="SourceGraphic" in2="effect1_dropShadow_366_9809" result="shape"/>
</filter>
<filter id="filter1_dd_366_9809" x="-6.25" y="67.1875" width="112.5" height="31.25" filterUnits="userSpaceOnUse" color-interpolation-filters="sRGB">
<feFlood flood-opacity="0" result="BackgroundImageFix"/>
<feColorMatrix in="SourceAlpha" type="matrix" values="0 0 0 0 0 0 0 0 0 0 0 0 0 0 0 0 0 0 127 0" result="hardAlpha"/>
<feOffset dy="2.08333"/>
<feGaussianBlur stdDeviation="3.125"/>
<feColorMatrix type="matrix" values="0 0 0 0 0 0 0 0 0 0 0 0 0 0 0 0 0 0 0.16 0"/>
<feBlend mode="normal" in2="BackgroundImageFix" result="effect1_dropShadow_366_9809"/>
<feColorMatrix in="SourceAlpha" type="matrix" values="0 0 0 0 0 0 0 0 0 0 0 0 0 0 0 0 0 0 127 0" result="hardAlpha"/>
<feOffset dy="1.04167"/>
<feGaussianBlur stdDeviation="1.04167"/>
<feColorMatrix type="matrix" values="0 0 0 0 0 0 0 0 0 0 0 0 0 0 0 0 0 0 0.24 0"/>
<feBlend mode="normal" in2="effect1_dropShadow_366_9809" result="effect2_dropShadow_366_9809"/>
<feBlend mode="normal" in="SourceGraphic" in2="effect2_dropShadow_366_9809" result="shape"/>
</filter>
<filter id="filter2_d_366_9809" x="26.2421" y="70.3225" width="22.5154" height="22.1454" filterUnits="userSpaceOnUse" color-interpolation-filters="sRGB">
<feFlood flood-opacity="0" result="BackgroundImageFix"/>
<feColorMatrix in="SourceAlpha" type="matrix" values="0 0 0 0 0 0 0 0 0 0 0 0 0 0 0 0 0 0 127 0" result="hardAlpha"/>
<feOffset dy="1.04167"/>
<feGaussianBlur stdDeviation="3.125"/>
<feColorMatrix type="matrix" values="0 0 0 0 0 0 0 0 0 0 0 0 0 0 0 0 0 0 0.12 0"/>
<feBlend mode="plus-darker" in2="BackgroundImageFix" result="effect1_dropShadow_366_9809"/>
<feBlend mode="normal" in="SourceGraphic" in2="effect1_dropShadow_366_9809" result="shape"/>
</filter>
<filter id="filter3_d_366_9809" x="38.7421" y="70.3225" width="22.5154" height="22.1454" filterUnits="userSpaceOnUse" color-interpolation-filters="sRGB">
<feFlood flood-opacity="0" result="BackgroundImageFix"/>
<feColorMatrix in="SourceAlpha" type="matrix" values="0 0 0 0 0 0 0 0 0 0 0 0 0 0 0 0 0 0 127 0" result="hardAlpha"/>
<feOffset dy="1.04167"/>
<feGaussianBlur stdDeviation="3.125"/>
<feColorMatrix type="matrix" values="0 0 0 0 0 0 0 0 0 0 0 0 0 0 0 0 0 0 0.12 0"/>
<feBlend mode="plus-darker" in2="BackgroundImageFix" result="effect1_dropShadow_366_9809"/>
<feBlend mode="normal" in="SourceGraphic" in2="effect1_dropShadow_366_9809" result="shape"/>
</filter>
<filter id="filter4_d_366_9809" x="51.2421" y="70.3225" width="22.5154" height="22.1454" filterUnits="userSpaceOnUse" color-interpolation-filters="sRGB">
<feFlood flood-opacity="0" result="BackgroundImageFix"/>
<feColorMatrix in="SourceAlpha" type="matrix" values="0 0 0 0 0 0 0 0 0 0 0 0 0 0 0 0 0 0 127 0" result="hardAlpha"/>
<feOffset dy="1.04167"/>
<feGaussianBlur stdDeviation="3.125"/>
<feColorMatrix type="matrix" values="0 0 0 0 0 0 0 0 0 0 0 0 0 0 0 0 0 0 0.12 0"/>
<feBlend mode="plus-darker" in2="BackgroundImageFix" result="effect1_dropShadow_366_9809"/>
<feBlend mode="normal" in="SourceGraphic" in2="effect1_dropShadow_366_9809" result="shape"/>
</filter>
<filter id="filter5_d_366_9809" x="26.0063" y="31.2646" width="49.1444" height="38.5008" filterUnits="userSpaceOnUse" color-interpolation-filters="sRGB">
<feFlood flood-opacity="0" result="BackgroundImageFix"/>
<feColorMatrix in="SourceAlpha" type="matrix" values="0 0 0 0 0 0 0 0 0 0 0 0 0 0 0 0 0 0 127 0" result="hardAlpha"/>
<feOffset dy="1.04167"/>
<feGaussianBlur stdDeviation="3.125"/>
<feColorMatrix type="matrix" values="0 0 0 0 0 0 0 0 0 0 0 0 0 0 0 0 0 0 0.12 0"/>
<feBlend mode="plus-darker" in2="BackgroundImageFix" result="effect1_dropShadow_366_9809"/>
<feBlend mode="normal" in="SourceGraphic" in2="effect1_dropShadow_366_9809" result="shape"/>
</filter>
<linearGradient id="paint0_linear_366_9809" x1="-22.9167" y1="-22.9167" x2="-22.9167" y2="122.917" gradientUnits="userSpaceOnUse">
<stop stop-color="#EB6E3F"/>
<stop offset="1" stop-color="#FA610F"/>
</linearGradient>
<linearGradient id="paint1_linear_366_9809" x1="50" y1="-6.39145" x2="50" y2="105.635" gradientUnits="userSpaceOnUse">
<stop stop-color="white"/>
<stop offset="1" stop-color="white" stop-opacity="0"/>
</linearGradient>
<radialGradient id="paint2_radial_366_9809" cx="0" cy="0" r="1" gradientUnits="userSpaceOnUse" gradientTransform="translate(50 25.7865) rotate(90) scale(73.89 56.0618)">
<stop stop-color="white"/>
<stop offset="1" stop-color="white" stop-opacity="0"/>
</radialGradient>
<linearGradient id="paint3_linear_366_9809" x1="-22.9167" y1="-22.9167" x2="-22.9167" y2="122.917" gradientUnits="userSpaceOnUse">
<stop stop-color="#EB6E3F"/>
<stop offset="1" stop-color="#FA610F"/>
</linearGradient>
<linearGradient id="paint4_linear_366_9809" x1="50" y1="-6.39145" x2="50" y2="105.635" gradientUnits="userSpaceOnUse">
<stop stop-color="white"/>
<stop offset="1" stop-color="white" stop-opacity="0"/>
</linearGradient>
<radialGradient id="paint5_radial_366_9809" cx="0" cy="0" r="1" gradientUnits="userSpaceOnUse" gradientTransform="translate(50 25.7865) rotate(90) scale(73.89 56.0618)">
<stop stop-color="white"/>
<stop offset="1" stop-color="white" stop-opacity="0"/>
</radialGradient>
<linearGradient id="paint6_linear_366_9809" x1="-22.9167" y1="-22.9167" x2="-22.9167" y2="122.917" gradientUnits="userSpaceOnUse">
<stop offset="0.135095" stop-color="white"/>
<stop offset="0.877908" stop-color="white" stop-opacity="0.01"/>
</linearGradient>
<linearGradient id="paint7_linear_366_9809" x1="50" y1="0" x2="50" y2="100" gradientUnits="userSpaceOnUse">
<stop stop-color="white"/>
<stop offset="1" stop-color="#999999"/>
</linearGradient>
<linearGradient id="paint8_linear_366_9809" x1="50" y1="71.3542" x2="50" y2="90.1042" gradientUnits="userSpaceOnUse">
<stop stop-opacity="0"/>
<stop offset="1" stop-opacity="0.16"/>
</linearGradient>
<linearGradient id="paint9_linear_366_9809" x1="50" y1="71.3542" x2="50" y2="90.1042" gradientUnits="userSpaceOnUse">
<stop stop-color="white"/>
<stop offset="1" stop-color="white" stop-opacity="0"/>
</linearGradient>
<radialGradient id="paint10_radial_366_9809" cx="0" cy="0" r="1" gradientUnits="userSpaceOnUse" gradientTransform="translate(50 74.6261) rotate(90) scale(15.4781 50)">
<stop stop-color="white"/>
<stop offset="1" stop-color="white" stop-opacity="0"/>
</radialGradient>
<linearGradient id="paint11_linear_366_9809" x1="37.4998" y1="75.7912" x2="37.4998" y2="84.9159" gradientUnits="userSpaceOnUse">
<stop stop-color="#DFDFDF"/>
<stop offset="1" stop-color="#A9A9A9"/>
</linearGradient>
<linearGradient id="paint12_linear_366_9809" x1="49.9998" y1="75.7912" x2="49.9998" y2="84.9159" gradientUnits="userSpaceOnUse">
<stop stop-color="#DFDFDF"/>
<stop offset="1" stop-color="#A9A9A9"/>
</linearGradient>
<linearGradient id="paint13_linear_366_9809" x1="62.4998" y1="75.7912" x2="62.4998" y2="84.9159" gradientUnits="userSpaceOnUse">
<stop stop-color="#DFDFDF"/>
<stop offset="1" stop-color="#A9A9A9"/>
</linearGradient>
<linearGradient id="paint14_linear_366_9809" x1="50" y1="33.3333" x2="50" y2="66.3333" gradientUnits="userSpaceOnUse">
<stop stop-color="#DFDFDF"/>
<stop offset="1" stop-color="#A9A9A9"/>
</linearGradient>
</defs>
</svg>
