<svg width="100" height="100" viewBox="0 0 100 100" fill="none" xmlns="http://www.w3.org/2000/svg">
<mask id="mask0_366_9811" style="mask-type:alpha" maskUnits="userSpaceOnUse" x="0" y="0" width="100" height="100">
<circle cx="50" cy="50" r="50" fill="white"/>
</mask>
<g mask="url(#mask0_366_9811)">
<mask id="mask1_366_9811" style="mask-type:alpha" maskUnits="userSpaceOnUse" x="0" y="0" width="100" height="100">
<circle cx="50" cy="50" r="50" fill="white"/>
</mask>
<g mask="url(#mask1_366_9811)">
<rect x="-22.9167" y="-22.9167" width="145.833" height="145.833" fill="url(#paint0_linear_366_9811)"/>
<rect x="-22.9167" y="-22.9167" width="145.833" height="145.833" fill="url(#paint1_linear_366_9811)" fill-opacity="0.6" style="mix-blend-mode:overlay"/>
<rect x="-22.9167" y="-22.9167" width="145.833" height="145.833" fill="url(#paint2_radial_366_9811)" fill-opacity="0.6" style="mix-blend-mode:overlay"/>
<rect x="-22.9167" y="-22.9167" width="145.833" height="145.833" fill="black" fill-opacity="0.16" style="mix-blend-mode:overlay"/>
<rect x="-22.9167" y="-22.9167" width="145.833" height="145.833" fill="black" fill-opacity="0.12" style="mix-blend-mode:darken"/>
</g>
<g filter="url(#filter0_d_366_9811)">
<mask id="mask2_366_9811" style="mask-type:alpha" maskUnits="userSpaceOnUse" x="0" y="0" width="100" height="100">
<path fill-rule="evenodd" clip-rule="evenodd" d="M95.8333 50C95.8333 75.313 75.313 95.8333 50 95.8333C24.6869 95.8333 4.16667 75.313 4.16667 50C4.16667 24.6869 24.6869 4.16667 50 4.16667C75.313 4.16667 95.8333 24.6869 95.8333 50ZM100 50C100 77.6142 77.6142 100 50 100C22.3858 100 0 77.6142 0 50C0 22.3858 22.3858 0 50 0C77.6142 0 100 22.3858 100 50ZM50 88.0208C70.9983 88.0208 88.0208 70.9983 88.0208 50C88.0208 29.0017 70.9983 11.9792 50 11.9792C29.0017 11.9792 11.9792 29.0017 11.9792 50C11.9792 70.9983 29.0017 88.0208 50 88.0208Z" fill="white"/>
</mask>
<g mask="url(#mask2_366_9811)">
<rect x="-22.9167" y="-22.9167" width="145.833" height="145.833" fill="url(#paint3_linear_366_9811)"/>
<rect x="-22.9167" y="-22.9167" width="145.833" height="145.833" fill="url(#paint4_linear_366_9811)" fill-opacity="0.6" style="mix-blend-mode:overlay"/>
<rect x="-22.9167" y="-22.9167" width="145.833" height="145.833" fill="url(#paint5_radial_366_9811)" fill-opacity="0.6" style="mix-blend-mode:overlay"/>
<g style="mix-blend-mode:soft-light">
<path fill-rule="evenodd" clip-rule="evenodd" d="M-22.9167 -22.9167H64.5833L36.6578 122.917H-22.9167V-22.9167Z" fill="url(#paint6_linear_366_9811)" style="mix-blend-mode:lighten"/>
</g>
<g style="mix-blend-mode:soft-light">
<mask id="path-10-inside-1_366_9811" fill="white">
<path fill-rule="evenodd" clip-rule="evenodd" d="M95.8333 50C95.8333 75.313 75.313 95.8333 50 95.8333C24.6869 95.8333 4.16667 75.313 4.16667 50C4.16667 24.6869 24.6869 4.16667 50 4.16667C75.313 4.16667 95.8333 24.6869 95.8333 50ZM100 50C100 77.6142 77.6142 100 50 100C22.3858 100 0 77.6142 0 50C0 22.3858 22.3858 0 50 0C77.6142 0 100 22.3858 100 50ZM50 88.0208C70.9983 88.0208 88.0208 70.9983 88.0208 50C88.0208 29.0017 70.9983 11.9792 50 11.9792C29.0017 11.9792 11.9792 29.0017 11.9792 50C11.9792 70.9983 29.0017 88.0208 50 88.0208Z"/>
</mask>
<path d="M50 96.0938C75.4569 96.0938 96.0938 75.4569 96.0938 50H95.5729C95.5729 75.1692 75.1692 95.5729 50 95.5729V96.0938ZM3.90625 50C3.90625 75.4569 24.5431 96.0938 50 96.0938V95.5729C24.8308 95.5729 4.42708 75.1692 4.42708 50H3.90625ZM50 3.90625C24.5431 3.90625 3.90625 24.5431 3.90625 50H4.42708C4.42708 24.8308 24.8308 4.42708 50 4.42708V3.90625ZM96.0938 50C96.0938 24.5431 75.4569 3.90625 50 3.90625V4.42708C75.1692 4.42708 95.5729 24.8308 95.5729 50H96.0938ZM50 100.26C77.7581 100.26 100.26 77.7581 100.26 50H99.7396C99.7396 77.4704 77.4704 99.7396 50 99.7396V100.26ZM-0.260417 50C-0.260417 77.7581 22.2419 100.26 50 100.26V99.7396C22.5296 99.7396 0.260417 77.4704 0.260417 50H-0.260417ZM50 -0.260417C22.2419 -0.260417 -0.260417 22.2419 -0.260417 50H0.260417C0.260417 22.5296 22.5296 0.260417 50 0.260417V-0.260417ZM100.26 50C100.26 22.2419 77.7581 -0.260417 50 -0.260417V0.260417C77.4704 0.260417 99.7396 22.5296 99.7396 50H100.26ZM87.7604 50C87.7604 70.8545 70.8545 87.7604 50 87.7604V88.2812C71.1421 88.2812 88.2812 71.1421 88.2812 50H87.7604ZM50 12.2396C70.8545 12.2396 87.7604 29.1455 87.7604 50H88.2812C88.2812 28.8578 71.1421 11.7188 50 11.7188V12.2396ZM12.2396 50C12.2396 29.1455 29.1455 12.2396 50 12.2396V11.7188C28.8578 11.7188 11.7188 28.8578 11.7188 50H12.2396ZM50 87.7604C29.1455 87.7604 12.2396 70.8545 12.2396 50H11.7188C11.7188 71.1421 28.8578 88.2812 50 88.2812V87.7604Z" fill="url(#paint7_linear_366_9811)" mask="url(#path-10-inside-1_366_9811)"/>
</g>
</g>
</g>
<g filter="url(#filter1_dd_366_9811)">
<rect y="71.3542" width="100" height="18.75" fill="#FFA00F"/>
<rect x="0.130208" y="71.4844" width="99.7396" height="18.4896" stroke="url(#paint8_linear_366_9811)" stroke-width="0.260417" stroke-linecap="round" style="mix-blend-mode:darken"/>
</g>
<rect y="71.3542" width="100" height="18.75" fill="url(#paint9_linear_366_9811)" fill-opacity="0.3" style="mix-blend-mode:overlay"/>
<rect y="71.3542" width="100" height="18.75" fill="url(#paint10_radial_366_9811)" fill-opacity="0.6" style="mix-blend-mode:overlay"/>
<g filter="url(#filter2_d_366_9811)">
<path fill-rule="evenodd" clip-rule="evenodd" d="M43.7498 83.8542L43.0652 84.2141C42.1049 84.719 41.6247 84.9715 41.2696 84.9056C40.9607 84.8483 40.6942 84.6546 40.5442 84.3786C40.3719 84.0612 40.4636 83.5265 40.647 82.4571L40.7777 81.6949L40.2239 81.1551C39.447 80.3977 39.0585 80.0191 39.0114 79.661C38.9704 79.3495 39.0722 79.0362 39.2885 78.8083C39.537 78.5463 40.0739 78.4683 41.1476 78.3123L41.913 78.201L42.2552 77.5075C42.7354 76.5346 42.9755 76.0481 43.3014 75.8927C43.585 75.7575 43.9145 75.7575 44.1981 75.8927C44.5241 76.0481 44.7642 76.5346 45.2443 77.5075L45.5866 78.201L46.3519 78.3123C47.4257 78.4683 47.9625 78.5463 48.2111 78.8083C48.4273 79.0362 48.5291 79.3495 48.4882 79.661C48.4411 80.0191 48.0526 80.3977 47.2756 81.1551L46.7218 81.6949L46.8526 82.4571C47.036 83.5265 47.1277 84.0612 46.9553 84.3786C46.8054 84.6546 46.5388 84.8483 46.2299 84.9056C45.8749 84.9715 45.3947 84.719 44.4343 84.2141L43.7498 83.8542Z" fill="white"/>
<path d="M43.1258 84.3294L43.7498 84.0013L44.3737 84.3294L44.3802 84.3328C44.8549 84.5823 45.2193 84.7739 45.5092 84.8942C45.7985 85.0142 46.0372 85.0738 46.2537 85.0336C46.6012 84.9692 46.9011 84.7513 47.0698 84.4407C47.1749 84.2472 47.1919 84.0018 47.1672 83.6896C47.1424 83.3767 47.0728 82.971 46.9821 82.4424L46.9809 82.4351L46.8617 81.7404L47.3665 81.2483L47.3718 81.2432C47.7558 80.8689 48.0506 80.5815 48.2546 80.3429C48.4581 80.1049 48.5885 79.8963 48.6172 79.678L48.4882 79.661L48.6172 79.678C48.6633 79.3276 48.5488 78.9751 48.3055 78.7186C48.154 78.5589 47.9259 78.4669 47.6213 78.3939C47.316 78.3208 46.9087 78.2616 46.3779 78.1845L46.3707 78.1834L45.6731 78.082L45.3611 77.4499L45.3579 77.4434C45.1205 76.9624 44.9383 76.5933 44.7744 76.3256C44.6109 76.0584 44.4529 75.8699 44.2542 75.7751C43.9351 75.623 43.5644 75.623 43.2454 75.7751C43.0466 75.8699 42.8886 76.0584 42.7251 76.3256C42.5612 76.5933 42.379 76.9624 42.1417 77.4434L42.1385 77.4499L41.8265 78.082L41.1289 78.1834L41.1217 78.1845C40.5909 78.2616 40.1835 78.3208 39.8783 78.3939C39.5737 78.4669 39.3456 78.5589 39.194 78.7186C38.9508 78.9751 38.8362 79.3276 38.8823 79.678C38.911 79.8963 39.0415 80.1049 39.245 80.3429C39.449 80.5815 39.7438 80.8689 40.1278 81.2432L40.133 81.2483L40.6378 81.7404L40.5187 82.4351L40.5174 82.4423C40.4268 82.9709 40.3572 83.3767 40.3324 83.6896C40.3077 84.0018 40.3247 84.2472 40.4298 84.4407C40.5985 84.7513 40.8984 84.9692 41.2459 85.0336C41.4624 85.0738 41.701 85.0142 41.9903 84.8942C42.2803 84.7739 42.6446 84.5823 43.1194 84.3328L43.1258 84.3294Z" stroke="url(#paint11_linear_366_9811)" stroke-width="0.260417" stroke-linecap="round" style="mix-blend-mode:color-burn"/>
</g>
<g filter="url(#filter3_d_366_9811)">
<path fill-rule="evenodd" clip-rule="evenodd" d="M56.2498 83.8542L55.5652 84.2141C54.6049 84.719 54.1247 84.9715 53.7696 84.9056C53.4607 84.8483 53.1942 84.6546 53.0442 84.3786C52.8719 84.0612 52.9636 83.5265 53.147 82.4571L53.2777 81.6949L52.7239 81.1551C51.947 80.3977 51.5585 80.0191 51.5114 79.661C51.4704 79.3495 51.5722 79.0362 51.7885 78.8083C52.037 78.5463 52.5739 78.4683 53.6476 78.3123L54.413 78.201L54.7552 77.5075C55.2354 76.5346 55.4755 76.0481 55.8014 75.8927C56.085 75.7575 56.4145 75.7575 56.6981 75.8927C57.0241 76.0481 57.2642 76.5346 57.7443 77.5075L58.0866 78.201L58.8519 78.3123C59.9257 78.4683 60.4625 78.5463 60.7111 78.8083C60.9273 79.0362 61.0291 79.3495 60.9882 79.661C60.9411 80.0191 60.5526 80.3977 59.7756 81.1551L59.2218 81.6949L59.3526 82.4571C59.536 83.5265 59.6277 84.0612 59.4553 84.3786C59.3054 84.6546 59.0388 84.8483 58.7299 84.9056C58.3749 84.9715 57.8947 84.719 56.9343 84.2141L56.2498 83.8542Z" fill="white"/>
<path d="M55.6258 84.3294L56.2498 84.0013L56.8737 84.3294L56.8802 84.3328C57.3549 84.5823 57.7193 84.7739 58.0092 84.8942C58.2985 85.0142 58.5372 85.0738 58.7537 85.0336C59.1012 84.9692 59.4011 84.7513 59.5698 84.4407C59.6749 84.2472 59.6919 84.0018 59.6672 83.6896C59.6424 83.3767 59.5728 82.971 59.4821 82.4424L59.4809 82.4351L59.3617 81.7404L59.8665 81.2483L59.8718 81.2432C60.2558 80.8689 60.5506 80.5815 60.7546 80.3429C60.9581 80.1049 61.0885 79.8963 61.1172 79.678L60.9882 79.661L61.1172 79.678C61.1633 79.3276 61.0488 78.9751 60.8055 78.7186C60.654 78.5589 60.4259 78.4669 60.1213 78.3939C59.816 78.3208 59.4087 78.2616 58.8779 78.1845L58.8707 78.1834L58.1731 78.082L57.8611 77.4499L57.8579 77.4434C57.6205 76.9624 57.4383 76.5933 57.2744 76.3256C57.1109 76.0584 56.9529 75.8699 56.7542 75.7751C56.4351 75.623 56.0644 75.623 55.7454 75.7751C55.5466 75.8699 55.3886 76.0584 55.2251 76.3256C55.0612 76.5933 54.879 76.9624 54.6417 77.4434L54.6385 77.4499L54.3265 78.082L53.6289 78.1834L53.6217 78.1845C53.0909 78.2616 52.6835 78.3208 52.3783 78.3939C52.0737 78.4669 51.8456 78.5589 51.694 78.7186C51.4508 78.9751 51.3362 79.3276 51.3823 79.678C51.411 79.8963 51.5415 80.1049 51.745 80.3429C51.949 80.5815 52.2438 80.8689 52.6278 81.2432L52.633 81.2483L53.1378 81.7404L53.0187 82.4351L53.0174 82.4423C52.9268 82.9709 52.8572 83.3767 52.8324 83.6896C52.8077 84.0018 52.8247 84.2472 52.9298 84.4407C53.0985 84.7513 53.3984 84.9692 53.7459 85.0336C53.9624 85.0738 54.201 85.0142 54.4903 84.8942C54.7803 84.7739 55.1446 84.5823 55.6194 84.3328L55.6258 84.3294Z" stroke="url(#paint12_linear_366_9811)" stroke-width="0.260417" stroke-linecap="round" style="mix-blend-mode:color-burn"/>
</g>
</g>
<g filter="url(#filter4_d_366_9811)">
<mask id="path-19-outside-2_366_9811" maskUnits="userSpaceOnUse" x="35.3333" y="36.3333" width="29" height="27" fill="black">
<rect fill="white" x="35.3333" y="36.3333" width="29" height="27"/>
<path d="M37.8889 62.2C37.2222 62.2 36.8889 61.8666 36.8889 61.2L36.5222 39.6C36.5 38.8222 36.7111 38.2444 37.1556 37.8666C37.6 37.4666 38.1667 37.2666 38.8556 37.2666L51.1556 37.2C51.5111 37.2 51.7889 37.3111 51.9889 37.5333C52.2111 37.7333 52.3222 38.0111 52.3222 38.3666V41.1C52.3222 41.4555 52.2111 41.7444 51.9889 41.9666C51.7889 42.1666 51.5111 42.2666 51.1556 42.2666L42.5556 42.4333L42.4889 47.2333L50.4889 47.3C50.8445 47.3 51.1222 47.4111 51.3222 47.6333C51.5445 47.8333 51.6556 48.1111 51.6556 48.4666V51C51.6556 51.3555 51.5445 51.6444 51.3222 51.8666C51.1222 52.0666 50.8445 52.1666 50.4889 52.1666L42.4222 52.3L42.2889 61.2C42.2889 61.8666 41.9556 62.2 41.2889 62.2H37.8889ZM58.8746 62.2C58.2079 62.2 57.8746 61.8666 57.8746 61.2L57.5746 42.7L54.8079 42.8C54.4524 42.8 54.1635 42.7 53.9413 42.5C53.7413 42.2778 53.6413 41.9889 53.6413 41.6333V38.3C53.6413 37.9444 53.7413 37.6666 53.9413 37.4666C54.1635 37.2444 54.4524 37.1333 54.8079 37.1333L62.3413 37.2333C62.6968 37.2333 62.9746 37.3444 63.1746 37.5666C63.3968 37.7666 63.5079 38.0444 63.5079 38.4L63.1413 61.2C63.1413 61.8666 62.8079 62.2 62.1413 62.2H58.8746Z"/>
</mask>
<path d="M37.8889 62.2C37.2222 62.2 36.8889 61.8666 36.8889 61.2L36.5222 39.6C36.5 38.8222 36.7111 38.2444 37.1556 37.8666C37.6 37.4666 38.1667 37.2666 38.8556 37.2666L51.1556 37.2C51.5111 37.2 51.7889 37.3111 51.9889 37.5333C52.2111 37.7333 52.3222 38.0111 52.3222 38.3666V41.1C52.3222 41.4555 52.2111 41.7444 51.9889 41.9666C51.7889 42.1666 51.5111 42.2666 51.1556 42.2666L42.5556 42.4333L42.4889 47.2333L50.4889 47.3C50.8445 47.3 51.1222 47.4111 51.3222 47.6333C51.5445 47.8333 51.6556 48.1111 51.6556 48.4666V51C51.6556 51.3555 51.5445 51.6444 51.3222 51.8666C51.1222 52.0666 50.8445 52.1666 50.4889 52.1666L42.4222 52.3L42.2889 61.2C42.2889 61.8666 41.9556 62.2 41.2889 62.2H37.8889ZM58.8746 62.2C58.2079 62.2 57.8746 61.8666 57.8746 61.2L57.5746 42.7L54.8079 42.8C54.4524 42.8 54.1635 42.7 53.9413 42.5C53.7413 42.2778 53.6413 41.9889 53.6413 41.6333V38.3C53.6413 37.9444 53.7413 37.6666 53.9413 37.4666C54.1635 37.2444 54.4524 37.1333 54.8079 37.1333L62.3413 37.2333C62.6968 37.2333 62.9746 37.3444 63.1746 37.5666C63.3968 37.7666 63.5079 38.0444 63.5079 38.4L63.1413 61.2C63.1413 61.8666 62.8079 62.2 62.1413 62.2H58.8746Z" fill="white"/>
<path d="M36.8889 61.2H37.1494L37.1493 61.1956L36.8889 61.2ZM36.5222 39.6L36.7826 39.5956L36.7826 39.5925L36.5222 39.6ZM37.1556 37.8666L37.3243 38.0651L37.3298 38.0602L37.1556 37.8666ZM38.8556 37.2666V37.5271L38.857 37.5271L38.8556 37.2666ZM51.1556 37.2V36.9396L51.1542 36.9396L51.1556 37.2ZM51.9889 37.5333L51.7953 37.7075L51.8045 37.7177L51.8147 37.7269L51.9889 37.5333ZM51.9889 41.9666L52.1731 42.1508V42.1508L51.9889 41.9666ZM51.1556 42.2666V42.0062L51.1505 42.0063L51.1556 42.2666ZM42.5556 42.4333L42.5505 42.1729L42.2987 42.1778L42.2952 42.4297L42.5556 42.4333ZM42.4889 47.2333L42.2285 47.2297L42.2249 47.4915L42.4867 47.4937L42.4889 47.2333ZM50.4889 47.3L50.4867 47.5604H50.4889V47.3ZM51.3222 47.6333L51.1287 47.8075L51.1378 47.8177L51.148 47.8269L51.3222 47.6333ZM51.3222 51.8666L51.1381 51.6825V51.6825L51.3222 51.8666ZM50.4889 52.1666V51.9062L50.4846 51.9063L50.4889 52.1666ZM42.4222 52.3L42.4179 52.0396L42.1656 52.0438L42.1619 52.2961L42.4222 52.3ZM42.2889 61.2L42.0285 61.1961V61.2H42.2889ZM37.8889 61.9396C37.5957 61.9396 37.4237 61.8664 37.3231 61.7658C37.2225 61.6652 37.1493 61.4932 37.1493 61.2H36.6285C36.6285 61.5735 36.722 61.9014 36.9548 62.1341C37.1875 62.3669 37.5154 62.4604 37.8889 62.4604V61.9396ZM37.1493 61.1956L36.7826 39.5956L36.2619 39.6044L36.6285 61.2044L37.1493 61.1956ZM36.7826 39.5925C36.7618 38.8655 36.9587 38.3758 37.3242 38.0651L36.9869 37.6682C36.4636 38.113 36.2383 38.7789 36.2619 39.6074L36.7826 39.5925ZM37.3298 38.0602C37.7192 37.7098 38.2206 37.5271 38.8556 37.5271V37.0062C38.1128 37.0062 37.4809 37.2235 36.9814 37.6731L37.3298 38.0602ZM38.857 37.5271L51.157 37.4604L51.1542 36.9396L38.8542 37.0062L38.857 37.5271ZM51.1556 37.4604C51.4526 37.4604 51.6541 37.5506 51.7953 37.7075L52.1825 37.3591C51.9237 37.0716 51.5697 36.9396 51.1556 36.9396V37.4604ZM51.8147 37.7269C51.9717 37.8681 52.0618 38.0697 52.0618 38.3666H52.5827C52.5827 37.9525 52.4506 37.5985 52.1631 37.3397L51.8147 37.7269ZM52.0618 38.3666V41.1H52.5827V38.3666H52.0618ZM52.0618 41.1C52.0618 41.3964 51.9716 41.6157 51.8048 41.7825L52.1731 42.1508C52.4507 41.8732 52.5827 41.5147 52.5827 41.1H52.0618ZM51.8048 41.7825C51.6654 41.9219 51.4608 42.0062 51.1556 42.0062V42.5271C51.5615 42.5271 51.9124 42.4114 52.1731 42.1508L51.8048 41.7825ZM51.1505 42.0063L42.5505 42.1729L42.5606 42.6937L51.1606 42.527L51.1505 42.0063ZM42.2952 42.4297L42.2285 47.2297L42.7493 47.2369L42.816 42.4369L42.2952 42.4297ZM42.4867 47.4937L50.4867 47.5604L50.4911 47.0396L42.4911 46.9729L42.4867 47.4937ZM50.4889 47.5604C50.7859 47.5604 50.9874 47.6506 51.1287 47.8075L51.5158 47.4591C51.2571 47.1716 50.903 47.0396 50.4889 47.0396V47.5604ZM51.148 47.8269C51.305 47.9681 51.3952 48.1697 51.3952 48.4666H51.916C51.916 48.0525 51.784 47.6985 51.4965 47.4397L51.148 47.8269ZM51.3952 48.4666V51H51.916V48.4666H51.3952ZM51.3952 51C51.3952 51.2964 51.3049 51.5157 51.1381 51.6825L51.5064 52.0508C51.784 51.7732 51.916 51.4147 51.916 51H51.3952ZM51.1381 51.6825C50.9988 51.8219 50.7941 51.9062 50.4889 51.9062V52.4271C50.8948 52.4271 51.2457 52.3114 51.5064 52.0508L51.1381 51.6825ZM50.4846 51.9063L42.4179 52.0396L42.4266 52.5604L50.4932 52.427L50.4846 51.9063ZM42.1619 52.2961L42.0285 61.1961L42.5493 61.2039L42.6826 52.3039L42.1619 52.2961ZM42.0285 61.2C42.0285 61.4932 41.9554 61.6652 41.8548 61.7658C41.7542 61.8664 41.5821 61.9396 41.2889 61.9396V62.4604C41.6624 62.4604 41.9903 62.3669 42.2231 62.1341C42.4558 61.9014 42.5493 61.5735 42.5493 61.2H42.0285ZM41.2889 61.9396H37.8889V62.4604H41.2889V61.9396ZM57.8746 61.2H58.135L58.135 61.1958L57.8746 61.2ZM57.5746 42.7L57.835 42.6958L57.8307 42.4301L57.5652 42.4397L57.5746 42.7ZM54.8079 42.8V43.0606L54.8173 43.0602L54.8079 42.8ZM53.9413 42.5L53.7477 42.6742L53.7569 42.6844L53.767 42.6935L53.9413 42.5ZM53.9413 37.4666L53.7571 37.2825L53.9413 37.4666ZM54.8079 37.1333L54.8114 36.8729H54.8079V37.1333ZM62.3413 37.2333L62.3378 37.4937H62.3413V37.2333ZM63.1746 37.5666L62.981 37.7409L62.9902 37.751L63.0004 37.7602L63.1746 37.5666ZM63.5079 38.4L63.7683 38.4042V38.4H63.5079ZM63.1413 61.2L62.8808 61.1958V61.2H63.1413ZM58.8746 61.9396C58.5814 61.9396 58.4093 61.8664 58.3087 61.7658C58.2081 61.6652 58.135 61.4932 58.135 61.2H57.6142C57.6142 61.5735 57.7077 61.9014 57.9404 62.1341C58.1732 62.3669 58.5011 62.4604 58.8746 62.4604V61.9396ZM58.135 61.1958L57.835 42.6958L57.3142 42.7042L57.6142 61.2042L58.135 61.1958ZM57.5652 42.4397L54.7985 42.5397L54.8173 43.0602L57.584 42.9602L57.5652 42.4397ZM54.8079 42.5396C54.5038 42.5396 54.2811 42.4555 54.1155 42.3064L53.767 42.6935C54.0459 42.9445 54.4009 43.0604 54.8079 43.0604V42.5396ZM54.1348 42.3258C53.9858 42.1601 53.9017 41.9374 53.9017 41.6333H53.3808C53.3808 42.0403 53.4968 42.3954 53.7477 42.6742L54.1348 42.3258ZM53.9017 41.6333V38.3H53.3808V41.6333H53.9017ZM53.9017 38.3C53.9017 37.9948 53.986 37.7901 54.1254 37.6508L53.7571 37.2825C53.4965 37.5432 53.3808 37.8941 53.3808 38.3H53.9017ZM54.1254 37.6508C54.2922 37.484 54.5115 37.3937 54.8079 37.3937V36.8729C54.3932 36.8729 54.0347 37.0049 53.7571 37.2825L54.1254 37.6508ZM54.8045 37.3937L62.3378 37.4937L62.3447 36.9729L54.8114 36.8729L54.8045 37.3937ZM62.3413 37.4937C62.6382 37.4937 62.8398 37.5839 62.981 37.7409L63.3682 37.3924C63.1094 37.1049 62.7554 36.9729 62.3413 36.9729V37.4937ZM63.0004 37.7602C63.1573 37.9015 63.2475 38.103 63.2475 38.4H63.7683C63.7683 37.9859 63.6363 37.6318 63.3488 37.3731L63.0004 37.7602ZM63.2475 38.3958L62.8809 61.1958L63.4016 61.2042L63.7683 38.4042L63.2475 38.3958ZM62.8808 61.2C62.8808 61.4932 62.8077 61.6652 62.7071 61.7658C62.6065 61.8664 62.4344 61.9396 62.1413 61.9396V62.4604C62.5147 62.4604 62.8427 62.3669 63.0754 62.1341C63.3081 61.9014 63.4017 61.5735 63.4017 61.2H62.8808ZM62.1413 61.9396H58.8746V62.4604H62.1413V61.9396Z" fill="url(#paint13_linear_366_9811)" style="mix-blend-mode:color-burn" mask="url(#path-19-outside-2_366_9811)"/>
</g>
<defs>
<filter id="filter0_d_366_9811" x="-4.16667" y="-3.125" width="108.333" height="108.333" filterUnits="userSpaceOnUse" color-interpolation-filters="sRGB">
<feFlood flood-opacity="0" result="BackgroundImageFix"/>
<feColorMatrix in="SourceAlpha" type="matrix" values="0 0 0 0 0 0 0 0 0 0 0 0 0 0 0 0 0 0 127 0" result="hardAlpha"/>
<feOffset dy="1.04167"/>
<feGaussianBlur stdDeviation="2.08333"/>
<feColorMatrix type="matrix" values="0 0 0 0 0 0 0 0 0 0 0 0 0 0 0 0 0 0 0.16 0"/>
<feBlend mode="color-burn" in2="BackgroundImageFix" result="effect1_dropShadow_366_9811"/>
<feBlend mode="normal" in="SourceGraphic" in2="effect1_dropShadow_366_9811" result="shape"/>
</filter>
<filter id="filter1_dd_366_9811" x="-6.25" y="67.1875" width="112.5" height="31.25" filterUnits="userSpaceOnUse" color-interpolation-filters="sRGB">
<feFlood flood-opacity="0" result="BackgroundImageFix"/>
<feColorMatrix in="SourceAlpha" type="matrix" values="0 0 0 0 0 0 0 0 0 0 0 0 0 0 0 0 0 0 127 0" result="hardAlpha"/>
<feOffset dy="2.08333"/>
<feGaussianBlur stdDeviation="3.125"/>
<feColorMatrix type="matrix" values="0 0 0 0 0 0 0 0 0 0 0 0 0 0 0 0 0 0 0.16 0"/>
<feBlend mode="normal" in2="BackgroundImageFix" result="effect1_dropShadow_366_9811"/>
<feColorMatrix in="SourceAlpha" type="matrix" values="0 0 0 0 0 0 0 0 0 0 0 0 0 0 0 0 0 0 127 0" result="hardAlpha"/>
<feOffset dy="1.04167"/>
<feGaussianBlur stdDeviation="1.04167"/>
<feColorMatrix type="matrix" values="0 0 0 0 0 0 0 0 0 0 0 0 0 0 0 0 0 0 0.24 0"/>
<feBlend mode="normal" in2="effect1_dropShadow_366_9811" result="effect2_dropShadow_366_9811"/>
<feBlend mode="normal" in="SourceGraphic" in2="effect2_dropShadow_366_9811" result="shape"/>
</filter>
<filter id="filter2_d_366_9811" x="32.4921" y="70.3225" width="22.5154" height="22.1454" filterUnits="userSpaceOnUse" color-interpolation-filters="sRGB">
<feFlood flood-opacity="0" result="BackgroundImageFix"/>
<feColorMatrix in="SourceAlpha" type="matrix" values="0 0 0 0 0 0 0 0 0 0 0 0 0 0 0 0 0 0 127 0" result="hardAlpha"/>
<feOffset dy="1.04167"/>
<feGaussianBlur stdDeviation="3.125"/>
<feColorMatrix type="matrix" values="0 0 0 0 0 0 0 0 0 0 0 0 0 0 0 0 0 0 0.12 0"/>
<feBlend mode="plus-darker" in2="BackgroundImageFix" result="effect1_dropShadow_366_9811"/>
<feBlend mode="normal" in="SourceGraphic" in2="effect1_dropShadow_366_9811" result="shape"/>
</filter>
<filter id="filter3_d_366_9811" x="44.9921" y="70.3225" width="22.5154" height="22.1454" filterUnits="userSpaceOnUse" color-interpolation-filters="sRGB">
<feFlood flood-opacity="0" result="BackgroundImageFix"/>
<feColorMatrix in="SourceAlpha" type="matrix" values="0 0 0 0 0 0 0 0 0 0 0 0 0 0 0 0 0 0 127 0" result="hardAlpha"/>
<feOffset dy="1.04167"/>
<feGaussianBlur stdDeviation="3.125"/>
<feColorMatrix type="matrix" values="0 0 0 0 0 0 0 0 0 0 0 0 0 0 0 0 0 0 0.12 0"/>
<feBlend mode="plus-darker" in2="BackgroundImageFix" result="effect1_dropShadow_366_9811"/>
<feBlend mode="normal" in="SourceGraphic" in2="effect1_dropShadow_366_9811" result="shape"/>
</filter>
<filter id="filter4_d_366_9811" x="30.0103" y="31.6646" width="40.0081" height="38.0875" filterUnits="userSpaceOnUse" color-interpolation-filters="sRGB">
<feFlood flood-opacity="0" result="BackgroundImageFix"/>
<feColorMatrix in="SourceAlpha" type="matrix" values="0 0 0 0 0 0 0 0 0 0 0 0 0 0 0 0 0 0 127 0" result="hardAlpha"/>
<feOffset dy="1.04167"/>
<feGaussianBlur stdDeviation="3.125"/>
<feColorMatrix type="matrix" values="0 0 0 0 0 0 0 0 0 0 0 0 0 0 0 0 0 0 0.12 0"/>
<feBlend mode="plus-darker" in2="BackgroundImageFix" result="effect1_dropShadow_366_9811"/>
<feBlend mode="normal" in="SourceGraphic" in2="effect1_dropShadow_366_9811" result="shape"/>
</filter>
<linearGradient id="paint0_linear_366_9811" x1="-22.9167" y1="-22.9167" x2="-22.9167" y2="122.917" gradientUnits="userSpaceOnUse">
<stop stop-color="#EB6E3F"/>
<stop offset="1" stop-color="#FA610F"/>
</linearGradient>
<linearGradient id="paint1_linear_366_9811" x1="50" y1="-6.39146" x2="50" y2="105.635" gradientUnits="userSpaceOnUse">
<stop stop-color="white"/>
<stop offset="1" stop-color="white" stop-opacity="0"/>
</linearGradient>
<radialGradient id="paint2_radial_366_9811" cx="0" cy="0" r="1" gradientUnits="userSpaceOnUse" gradientTransform="translate(50 25.7865) rotate(90) scale(73.89 56.0618)">
<stop stop-color="white"/>
<stop offset="1" stop-color="white" stop-opacity="0"/>
</radialGradient>
<linearGradient id="paint3_linear_366_9811" x1="-22.9167" y1="-22.9167" x2="-22.9167" y2="122.917" gradientUnits="userSpaceOnUse">
<stop stop-color="#EB6E3F"/>
<stop offset="1" stop-color="#FA610F"/>
</linearGradient>
<linearGradient id="paint4_linear_366_9811" x1="50" y1="-6.39146" x2="50" y2="105.635" gradientUnits="userSpaceOnUse">
<stop stop-color="white"/>
<stop offset="1" stop-color="white" stop-opacity="0"/>
</linearGradient>
<radialGradient id="paint5_radial_366_9811" cx="0" cy="0" r="1" gradientUnits="userSpaceOnUse" gradientTransform="translate(50 25.7865) rotate(90) scale(73.89 56.0618)">
<stop stop-color="white"/>
<stop offset="1" stop-color="white" stop-opacity="0"/>
</radialGradient>
<linearGradient id="paint6_linear_366_9811" x1="-22.9167" y1="-22.9167" x2="-22.9167" y2="122.917" gradientUnits="userSpaceOnUse">
<stop offset="0.135095" stop-color="white"/>
<stop offset="0.877908" stop-color="white" stop-opacity="0.01"/>
</linearGradient>
<linearGradient id="paint7_linear_366_9811" x1="50" y1="0" x2="50" y2="100" gradientUnits="userSpaceOnUse">
<stop stop-color="white"/>
<stop offset="1" stop-color="#999999"/>
</linearGradient>
<linearGradient id="paint8_linear_366_9811" x1="50" y1="71.3542" x2="50" y2="90.1042" gradientUnits="userSpaceOnUse">
<stop stop-opacity="0"/>
<stop offset="1" stop-opacity="0.16"/>
</linearGradient>
<linearGradient id="paint9_linear_366_9811" x1="50" y1="71.3542" x2="50" y2="90.1042" gradientUnits="userSpaceOnUse">
<stop stop-color="white"/>
<stop offset="1" stop-color="white" stop-opacity="0"/>
</linearGradient>
<radialGradient id="paint10_radial_366_9811" cx="0" cy="0" r="1" gradientUnits="userSpaceOnUse" gradientTransform="translate(50 74.6261) rotate(90) scale(15.4781 50)">
<stop stop-color="white"/>
<stop offset="1" stop-color="white" stop-opacity="0"/>
</radialGradient>
<linearGradient id="paint11_linear_366_9811" x1="43.7498" y1="75.7913" x2="43.7498" y2="84.9159" gradientUnits="userSpaceOnUse">
<stop stop-color="#DFDFDF"/>
<stop offset="1" stop-color="#A9A9A9"/>
</linearGradient>
<linearGradient id="paint12_linear_366_9811" x1="56.2498" y1="75.7913" x2="56.2498" y2="84.9159" gradientUnits="userSpaceOnUse">
<stop stop-color="#DFDFDF"/>
<stop offset="1" stop-color="#A9A9A9"/>
</linearGradient>
<linearGradient id="paint13_linear_366_9811" x1="50" y1="33.3333" x2="50" y2="66.3333" gradientUnits="userSpaceOnUse">
<stop stop-color="#DFDFDF"/>
<stop offset="1" stop-color="#A9A9A9"/>
</linearGradient>
</defs>
</svg>
