<svg width="100" height="100" viewBox="0 0 100 100" fill="none" xmlns="http://www.w3.org/2000/svg">
<mask id="mask0_366_9795" style="mask-type:alpha" maskUnits="userSpaceOnUse" x="0" y="0" width="100" height="100">
<circle cx="50" cy="50" r="50" fill="white"/>
</mask>
<g mask="url(#mask0_366_9795)">
<mask id="mask1_366_9795" style="mask-type:alpha" maskUnits="userSpaceOnUse" x="0" y="0" width="100" height="100">
<circle cx="50" cy="50" r="50" fill="white"/>
</mask>
<g mask="url(#mask1_366_9795)">
<rect x="-22.9167" y="-22.9167" width="145.833" height="145.833" fill="url(#paint0_linear_366_9795)"/>
<rect x="-22.9167" y="-22.9167" width="145.833" height="145.833" fill="url(#paint1_linear_366_9795)" fill-opacity="0.6" style="mix-blend-mode:overlay"/>
<rect x="-22.9167" y="-22.9167" width="145.833" height="145.833" fill="url(#paint2_radial_366_9795)" fill-opacity="0.6" style="mix-blend-mode:overlay"/>
<rect x="-22.9167" y="-22.9167" width="145.833" height="145.833" fill="black" fill-opacity="0.16" style="mix-blend-mode:overlay"/>
<rect x="-22.9167" y="-22.9167" width="145.833" height="145.833" fill="black" fill-opacity="0.12" style="mix-blend-mode:darken"/>
</g>
<g filter="url(#filter0_d_366_9795)">
<mask id="mask2_366_9795" style="mask-type:alpha" maskUnits="userSpaceOnUse" x="0" y="0" width="100" height="100">
<path fill-rule="evenodd" clip-rule="evenodd" d="M95.8333 50C95.8333 75.313 75.313 95.8333 50 95.8333C24.6869 95.8333 4.16667 75.313 4.16667 50C4.16667 24.6869 24.6869 4.16667 50 4.16667C75.313 4.16667 95.8333 24.6869 95.8333 50ZM100 50C100 77.6142 77.6142 100 50 100C22.3858 100 0 77.6142 0 50C0 22.3858 22.3858 0 50 0C77.6142 0 100 22.3858 100 50ZM50 88.0208C70.9983 88.0208 88.0208 70.9983 88.0208 50C88.0208 29.0017 70.9983 11.9792 50 11.9792C29.0017 11.9792 11.9792 29.0017 11.9792 50C11.9792 70.9983 29.0017 88.0208 50 88.0208Z" fill="white"/>
</mask>
<g mask="url(#mask2_366_9795)">
<rect x="-22.9167" y="-22.9167" width="145.833" height="145.833" fill="url(#paint3_linear_366_9795)"/>
<rect x="-22.9167" y="-22.9167" width="145.833" height="145.833" fill="url(#paint4_linear_366_9795)" fill-opacity="0.6" style="mix-blend-mode:overlay"/>
<rect x="-22.9167" y="-22.9167" width="145.833" height="145.833" fill="url(#paint5_radial_366_9795)" fill-opacity="0.6" style="mix-blend-mode:overlay"/>
<g style="mix-blend-mode:soft-light">
<path fill-rule="evenodd" clip-rule="evenodd" d="M-22.9167 -22.9167H64.5833L36.6578 122.917H-22.9167V-22.9167Z" fill="url(#paint6_linear_366_9795)" style="mix-blend-mode:lighten"/>
</g>
<g style="mix-blend-mode:soft-light">
<mask id="path-10-inside-1_366_9795" fill="white">
<path fill-rule="evenodd" clip-rule="evenodd" d="M95.8333 50C95.8333 75.313 75.313 95.8333 50 95.8333C24.6869 95.8333 4.16667 75.313 4.16667 50C4.16667 24.6869 24.6869 4.16667 50 4.16667C75.313 4.16667 95.8333 24.6869 95.8333 50ZM100 50C100 77.6142 77.6142 100 50 100C22.3858 100 0 77.6142 0 50C0 22.3858 22.3858 0 50 0C77.6142 0 100 22.3858 100 50ZM50 88.0208C70.9983 88.0208 88.0208 70.9983 88.0208 50C88.0208 29.0017 70.9983 11.9792 50 11.9792C29.0017 11.9792 11.9792 29.0017 11.9792 50C11.9792 70.9983 29.0017 88.0208 50 88.0208Z"/>
</mask>
<path d="M50 96.0938C75.4569 96.0938 96.0938 75.4569 96.0938 50H95.5729C95.5729 75.1692 75.1692 95.5729 50 95.5729V96.0938ZM3.90625 50C3.90625 75.4569 24.5431 96.0938 50 96.0938V95.5729C24.8308 95.5729 4.42708 75.1692 4.42708 50H3.90625ZM50 3.90625C24.5431 3.90625 3.90625 24.5431 3.90625 50H4.42708C4.42708 24.8308 24.8308 4.42708 50 4.42708V3.90625ZM96.0938 50C96.0938 24.5431 75.4569 3.90625 50 3.90625V4.42708C75.1692 4.42708 95.5729 24.8308 95.5729 50H96.0938ZM50 100.26C77.7581 100.26 100.26 77.7581 100.26 50H99.7396C99.7396 77.4704 77.4704 99.7396 50 99.7396V100.26ZM-0.260417 50C-0.260417 77.7581 22.2419 100.26 50 100.26V99.7396C22.5296 99.7396 0.260417 77.4704 0.260417 50H-0.260417ZM50 -0.260417C22.2419 -0.260417 -0.260417 22.2419 -0.260417 50H0.260417C0.260417 22.5296 22.5296 0.260417 50 0.260417V-0.260417ZM100.26 50C100.26 22.2419 77.7581 -0.260417 50 -0.260417V0.260417C77.4704 0.260417 99.7396 22.5296 99.7396 50H100.26ZM87.7604 50C87.7604 70.8545 70.8545 87.7604 50 87.7604V88.2812C71.1421 88.2812 88.2812 71.1421 88.2812 50H87.7604ZM50 12.2396C70.8545 12.2396 87.7604 29.1455 87.7604 50H88.2812C88.2812 28.8578 71.1421 11.7188 50 11.7188V12.2396ZM12.2396 50C12.2396 29.1455 29.1455 12.2396 50 12.2396V11.7188C28.8578 11.7188 11.7188 28.8578 11.7188 50H12.2396ZM50 87.7604C29.1455 87.7604 12.2396 70.8545 12.2396 50H11.7188C11.7188 71.1421 28.8578 88.2812 50 88.2812V87.7604Z" fill="url(#paint7_linear_366_9795)" mask="url(#path-10-inside-1_366_9795)"/>
</g>
</g>
</g>
</g>
<g filter="url(#filter1_d_366_9795)">
<mask id="path-12-outside-2_366_9795" maskUnits="userSpaceOnUse" x="27.3333" y="36.3333" width="45" height="27" fill="black">
<rect fill="white" x="27.3333" y="36.3333" width="45" height="27"/>
<path d="M37.1103 62.2C36.4436 62.2 36.1103 61.8667 36.1103 61.2L35.8103 42.3667L29.7103 42.3333C29.3547 42.3333 29.0659 42.2333 28.8436 42.0333C28.6436 41.8111 28.5436 41.5222 28.5436 41.1667V38.4333C28.5436 38.0778 28.6436 37.8 28.8436 37.6C29.0659 37.3778 29.3547 37.2667 29.7103 37.2667L47.8103 37.2333C48.1659 37.2333 48.4436 37.3445 48.6436 37.5667C48.8659 37.7667 48.977 38.0445 48.977 38.4V41.1333C48.977 41.4889 48.8659 41.7778 48.6436 42C48.4436 42.2 48.1659 42.3 47.8103 42.3L41.7103 42.3667L41.377 61.2C41.377 61.8667 41.0436 62.2 40.377 62.2H37.1103ZM63.0962 62.2C62.4296 62.2 62.0962 61.8667 62.0962 61.2L61.9962 56.7667C60.3962 56.8333 58.8185 56.8778 57.2629 56.9C55.7073 56.9 54.1962 56.8778 52.7296 56.8333C51.9518 56.8111 51.4073 56.5333 51.0962 56C50.8073 55.4667 50.7296 54.8111 50.8629 54.0333C51.2407 51.7 51.5185 49.3333 51.6962 46.9333C51.874 44.5333 51.9407 42.0222 51.8962 39.4C51.8962 38.8889 52.0185 38.5111 52.2629 38.2667C52.5296 38.0222 52.8518 37.9 53.2296 37.9H56.5962C57.0407 37.9 57.374 38.0445 57.5962 38.3333C57.8185 38.6 57.9185 38.9556 57.8962 39.4C57.8518 41.7111 57.7518 43.9333 57.5962 46.0667C57.4629 48.1778 57.274 50.0667 57.0296 51.7333C57.8962 51.7778 58.7296 51.8 59.5296 51.8H61.9296L61.6962 38.2333C61.6962 37.5667 62.0185 37.2333 62.6629 37.2333H66.7296C67.3962 37.2333 67.7185 37.5667 67.6962 38.2333L67.4962 51.6C67.8962 51.5778 68.2962 51.5667 68.6962 51.5667C69.0962 51.5445 69.5185 51.5111 69.9629 51.4667C70.3185 51.4445 70.574 51.4889 70.7296 51.6C70.9073 51.6889 71.0185 51.8889 71.0629 52.2L71.4296 55C71.5185 55.6667 71.2629 56.0333 70.6629 56.1C70.1518 56.1667 69.6185 56.2333 69.0629 56.3C68.5296 56.3445 67.9851 56.3889 67.4296 56.4333L67.3629 61.2C67.3629 61.8667 67.0296 62.2 66.3629 62.2H63.0962Z"/>
</mask>
<path d="M37.1103 62.2C36.4436 62.2 36.1103 61.8667 36.1103 61.2L35.8103 42.3667L29.7103 42.3333C29.3547 42.3333 29.0659 42.2333 28.8436 42.0333C28.6436 41.8111 28.5436 41.5222 28.5436 41.1667V38.4333C28.5436 38.0778 28.6436 37.8 28.8436 37.6C29.0659 37.3778 29.3547 37.2667 29.7103 37.2667L47.8103 37.2333C48.1659 37.2333 48.4436 37.3445 48.6436 37.5667C48.8659 37.7667 48.977 38.0445 48.977 38.4V41.1333C48.977 41.4889 48.8659 41.7778 48.6436 42C48.4436 42.2 48.1659 42.3 47.8103 42.3L41.7103 42.3667L41.377 61.2C41.377 61.8667 41.0436 62.2 40.377 62.2H37.1103ZM63.0962 62.2C62.4296 62.2 62.0962 61.8667 62.0962 61.2L61.9962 56.7667C60.3962 56.8333 58.8185 56.8778 57.2629 56.9C55.7073 56.9 54.1962 56.8778 52.7296 56.8333C51.9518 56.8111 51.4073 56.5333 51.0962 56C50.8073 55.4667 50.7296 54.8111 50.8629 54.0333C51.2407 51.7 51.5185 49.3333 51.6962 46.9333C51.874 44.5333 51.9407 42.0222 51.8962 39.4C51.8962 38.8889 52.0185 38.5111 52.2629 38.2667C52.5296 38.0222 52.8518 37.9 53.2296 37.9H56.5962C57.0407 37.9 57.374 38.0445 57.5962 38.3333C57.8185 38.6 57.9185 38.9556 57.8962 39.4C57.8518 41.7111 57.7518 43.9333 57.5962 46.0667C57.4629 48.1778 57.274 50.0667 57.0296 51.7333C57.8962 51.7778 58.7296 51.8 59.5296 51.8H61.9296L61.6962 38.2333C61.6962 37.5667 62.0185 37.2333 62.6629 37.2333H66.7296C67.3962 37.2333 67.7185 37.5667 67.6962 38.2333L67.4962 51.6C67.8962 51.5778 68.2962 51.5667 68.6962 51.5667C69.0962 51.5445 69.5185 51.5111 69.9629 51.4667C70.3185 51.4445 70.574 51.4889 70.7296 51.6C70.9073 51.6889 71.0185 51.8889 71.0629 52.2L71.4296 55C71.5185 55.6667 71.2629 56.0333 70.6629 56.1C70.1518 56.1667 69.6185 56.2333 69.0629 56.3C68.5296 56.3445 67.9851 56.3889 67.4296 56.4333L67.3629 61.2C67.3629 61.8667 67.0296 62.2 66.3629 62.2H63.0962Z" fill="white"/>
<path d="M36.1103 61.2H36.3707L36.3707 61.1959L36.1103 61.2ZM35.8103 42.3667L36.0707 42.3625L36.0666 42.1077L35.8117 42.1063L35.8103 42.3667ZM29.7103 42.3333L29.7117 42.0729H29.7103V42.3333ZM28.8436 42.0333L28.6501 42.2076L28.6592 42.2177L28.6694 42.2269L28.8436 42.0333ZM28.8436 37.6L28.6595 37.4159L28.8436 37.6ZM29.7103 37.2667V37.5271L29.7108 37.5271L29.7103 37.2667ZM47.8103 37.2333V36.9729L47.8098 36.9729L47.8103 37.2333ZM48.6436 37.5667L48.4501 37.7409L48.4592 37.7511L48.4694 37.7602L48.6436 37.5667ZM47.8103 42.3V42.0396L47.8075 42.0396L47.8103 42.3ZM41.7103 42.3667L41.7075 42.1063L41.4544 42.109L41.4499 42.3621L41.7103 42.3667ZM41.377 61.2L41.1166 61.1954V61.2H41.377ZM37.1103 61.9396C36.8171 61.9396 36.645 61.8665 36.5444 61.7659C36.4438 61.6653 36.3707 61.4932 36.3707 61.2H35.8499C35.8499 61.5735 35.9434 61.9014 36.1762 62.1342C36.4089 62.3669 36.7368 62.4604 37.1103 62.4604V61.9396ZM36.3707 61.1959L36.0707 42.3625L35.5499 42.3708L35.8499 61.2042L36.3707 61.1959ZM35.8117 42.1063L29.7117 42.0729L29.7089 42.5938L35.8089 42.6271L35.8117 42.1063ZM29.7103 42.0729C29.4062 42.0729 29.1835 41.9888 29.0178 41.8398L28.6694 42.2269C28.9482 42.4778 29.3033 42.5938 29.7103 42.5938V42.0729ZM29.0372 41.8591C28.8881 41.6935 28.804 41.4708 28.804 41.1667H28.2832C28.2832 41.5737 28.3991 41.9287 28.6501 42.2076L29.0372 41.8591ZM28.804 41.1667V38.4333H28.2832V41.1667H28.804ZM28.804 38.4333C28.804 38.1281 28.8884 37.9235 29.0278 37.7842L28.6595 37.4159C28.3988 37.6765 28.2832 38.0274 28.2832 38.4333H28.804ZM29.0278 37.7842C29.1946 37.6173 29.4139 37.5271 29.7103 37.5271V37.0063C29.2956 37.0063 28.9371 37.1382 28.6595 37.4159L29.0278 37.7842ZM29.7108 37.5271L47.8108 37.4938L47.8098 36.9729L29.7098 37.0063L29.7108 37.5271ZM47.8103 37.4938C48.1073 37.4938 48.3088 37.5839 48.4501 37.7409L48.8372 37.3925C48.5785 37.105 48.2244 36.9729 47.8103 36.9729V37.4938ZM48.4694 37.7602C48.6264 37.9015 48.7165 38.103 48.7165 38.4H49.2374C49.2374 37.9859 49.1053 37.6319 48.8178 37.3731L48.4694 37.7602ZM48.7165 38.4V41.1333H49.2374V38.4H48.7165ZM48.7165 41.1333C48.7165 41.4297 48.6263 41.6491 48.4595 41.8159L48.8278 42.1842C49.1054 41.9065 49.2374 41.5481 49.2374 41.1333H48.7165ZM48.4595 41.8159C48.3201 41.9552 48.1155 42.0396 47.8103 42.0396V42.5604C48.2162 42.5604 48.5671 42.4448 48.8278 42.1842L48.4595 41.8159ZM47.8075 42.0396L41.7075 42.1063L41.7131 42.6271L47.8131 42.5604L47.8075 42.0396ZM41.4499 42.3621L41.1166 61.1954L41.6373 61.2046L41.9707 42.3713L41.4499 42.3621ZM41.1166 61.2C41.1166 61.4932 41.0434 61.6653 40.9428 61.7659C40.8422 61.8665 40.6702 61.9396 40.377 61.9396V62.4604C40.7504 62.4604 41.0784 62.3669 41.3111 62.1342C41.5438 61.9014 41.6374 61.5735 41.6374 61.2H41.1166ZM40.377 61.9396H37.1103V62.4604H40.377V61.9396ZM62.0962 61.2H62.3567L62.3566 61.1941L62.0962 61.2ZM61.9962 56.7667L62.2566 56.7608L62.2506 56.4954L61.9854 56.5065L61.9962 56.7667ZM57.2629 56.9V57.1605L57.2666 57.1604L57.2629 56.9ZM52.7296 56.8333L52.7375 56.573L52.737 56.573L52.7296 56.8333ZM51.0962 56L50.8671 56.1241L50.8713 56.1312L51.0962 56ZM50.8629 54.0333L51.1196 54.0773L51.12 54.075L50.8629 54.0333ZM51.6962 46.9333L51.4365 46.9141L51.6962 46.9333ZM51.8962 39.4H51.6358L51.6359 39.4044L51.8962 39.4ZM52.2629 38.2667L52.0868 38.0745L52.0788 38.0825L52.2629 38.2667ZM57.5962 38.3333L57.3897 38.4922L57.3962 38.5001L57.5962 38.3333ZM57.8962 39.4L57.636 39.387L57.6359 39.395L57.8962 39.4ZM57.5962 46.0667L57.3365 46.0477L57.3363 46.0503L57.5962 46.0667ZM57.0296 51.7333L56.7719 51.6956L56.7304 51.9788L57.0162 51.9934L57.0296 51.7333ZM61.9296 51.8V52.0604H62.1945L62.1899 51.7955L61.9296 51.8ZM61.6962 38.2333H61.4358L61.4359 38.2378L61.6962 38.2333ZM67.6962 38.2333L67.4359 38.2247L67.4358 38.2294L67.6962 38.2333ZM67.4962 51.6L67.2358 51.5961L67.2317 51.8755L67.5107 51.86L67.4962 51.6ZM68.6962 51.5667V51.8271H68.7035L68.7107 51.8267L68.6962 51.5667ZM69.9629 51.4667L69.9466 51.2066L69.937 51.2076L69.9629 51.4667ZM70.7296 51.6L70.5782 51.8119L70.5948 51.8238L70.6131 51.8329L70.7296 51.6ZM71.0629 52.2L71.3211 52.1662L71.3207 52.1632L71.0629 52.2ZM71.4296 55L71.1714 55.0338L71.1714 55.0344L71.4296 55ZM70.6629 56.1L70.6341 55.8411L70.6292 55.8418L70.6629 56.1ZM69.0629 56.3L69.0845 56.5597L69.0939 56.5586L69.0629 56.3ZM67.4296 56.4333L67.4088 56.1738L67.1725 56.1927L67.1692 56.4297L67.4296 56.4333ZM67.3629 61.2L67.1025 61.1964V61.2H67.3629ZM63.0962 61.9396C62.803 61.9396 62.631 61.8665 62.5304 61.7659C62.4298 61.6653 62.3567 61.4932 62.3567 61.2H61.8358C61.8358 61.5735 61.9294 61.9014 62.1621 62.1342C62.3948 62.3669 62.7228 62.4604 63.0962 62.4604V61.9396ZM62.3566 61.1941L62.2566 56.7608L61.7359 56.7725L61.8359 61.2059L62.3566 61.1941ZM61.9854 56.5065C60.3877 56.5731 58.8123 56.6174 57.2592 56.6396L57.2666 57.1604C58.8246 57.1381 60.4048 57.0936 62.0071 57.0269L61.9854 56.5065ZM57.2629 56.6396C55.7098 56.6396 54.2013 56.6174 52.7375 56.573L52.7217 57.0936C54.1911 57.1382 55.7049 57.1604 57.2629 57.1604V56.6396ZM52.737 56.573C52.0224 56.5526 51.5749 56.3038 51.3212 55.8688L50.8713 56.1312C51.2398 56.7629 51.8812 57.0696 52.7221 57.0937L52.737 56.573ZM51.3252 55.876C51.0715 55.4076 50.9931 54.815 51.1196 54.0773L50.6062 53.9893C50.466 54.8072 50.5432 55.5257 50.8673 56.124L51.3252 55.876ZM51.12 54.075C51.499 51.7341 51.7776 49.3599 51.9559 46.9526L51.4365 46.9141C51.2593 49.3067 50.9824 51.6659 50.6058 53.9917L51.12 54.075ZM51.9559 46.9526C52.1343 44.544 52.2012 42.025 52.1566 39.3956L51.6359 39.4044C51.6802 42.0194 51.6137 44.5226 51.4365 46.9141L51.9559 46.9526ZM52.1567 39.4C52.1567 38.9251 52.2706 38.6273 52.447 38.4508L52.0788 38.0825C51.7663 38.395 51.6358 38.8527 51.6358 39.4H52.1567ZM52.4389 38.4586C52.6552 38.2603 52.9138 38.1604 53.2296 38.1604V37.6396C52.7898 37.6396 52.4039 37.7841 52.0869 38.0747L52.4389 38.4586ZM53.2296 38.1604H56.5962V37.6396H53.2296V38.1604ZM56.5962 38.1604C56.9796 38.1604 57.2278 38.2815 57.3898 38.4921L57.8026 38.1746C57.5202 37.8074 57.1018 37.6396 56.5962 37.6396V38.1604ZM57.3962 38.5001C57.5657 38.7035 57.6561 38.9888 57.6361 39.387L58.1563 39.413C58.1809 38.9223 58.0712 38.4965 57.7963 38.1666L57.3962 38.5001ZM57.6359 39.395C57.5915 41.7018 57.4917 43.9194 57.3365 46.0477L57.856 46.0856C58.0119 43.9473 58.1121 41.7204 58.1566 39.405L57.6359 39.395ZM57.3363 46.0503C57.2033 48.1559 57.0151 50.0375 56.7719 51.6956L57.2872 51.7711C57.5329 50.0959 57.7225 48.1996 57.8561 46.0831L57.3363 46.0503ZM57.0162 51.9934C57.887 52.0381 58.7248 52.0604 59.5296 52.0604V51.5396C58.7344 51.5396 57.9055 51.5175 57.0429 51.4733L57.0162 51.9934ZM59.5296 52.0604H61.9296V51.5396H59.5296V52.0604ZM62.1899 51.7955L61.9566 38.2289L61.4359 38.2378L61.6692 51.8045L62.1899 51.7955ZM61.9567 38.2333C61.9567 37.938 62.0281 37.7647 62.1251 37.6643C62.2206 37.5656 62.3831 37.4938 62.6629 37.4938V36.9729C62.2983 36.9729 61.9775 37.0677 61.7507 37.3023C61.5254 37.5353 61.4358 37.862 61.4358 38.2333H61.9567ZM62.6629 37.4938H66.7296V36.9729H62.6629V37.4938ZM66.7296 37.4938C67.0235 37.4938 67.1901 37.5672 67.284 37.6643C67.3779 37.7615 67.4458 37.9306 67.436 38.2247L67.9565 38.242C67.9689 37.8694 67.8868 37.5385 67.6585 37.3023C67.4302 37.0662 67.1023 36.9729 66.7296 36.9729V37.4938ZM67.4358 38.2294L67.2358 51.5961L67.7566 51.6039L67.9566 38.2372L67.4358 38.2294ZM67.5107 51.86C67.9059 51.8381 68.3011 51.8271 68.6962 51.8271V51.3063C68.2914 51.3063 67.8866 51.3175 67.4818 51.34L67.5107 51.86ZM68.7107 51.8267C69.1149 51.8042 69.541 51.7706 69.9888 51.7258L69.937 51.2076C69.4959 51.2517 69.0776 51.2847 68.6818 51.3067L68.7107 51.8267ZM69.9791 51.7266C70.32 51.7053 70.4985 51.755 70.5782 51.8119L70.8809 51.3881C70.6495 51.2228 70.3169 51.1836 69.9467 51.2068L69.9791 51.7266ZM70.6131 51.8329C70.678 51.8654 70.7655 51.9598 70.8051 52.2368L71.3207 52.1632C71.2714 51.818 71.1367 51.5124 70.846 51.3671L70.6131 51.8329ZM70.8047 52.2338L71.1714 55.0338L71.6878 54.9662L71.3211 52.1662L70.8047 52.2338ZM71.1714 55.0344C71.2115 55.335 71.1665 55.5176 71.0909 55.6261C71.0197 55.7283 70.887 55.8131 70.6341 55.8412L70.6917 56.3588C71.0388 56.3203 71.3339 56.1884 71.5182 55.9239C71.6982 55.6657 71.7365 55.3317 71.6877 54.9656L71.1714 55.0344ZM70.6292 55.8418C70.1191 55.9083 69.5866 55.9749 69.0319 56.0414L69.0939 56.5586C69.6503 56.4918 70.1845 56.425 70.6966 56.3582L70.6292 55.8418ZM69.0413 56.0405C68.5082 56.0849 67.9641 56.1293 67.4088 56.1738L67.4503 56.6929C68.0062 56.6485 68.5509 56.604 69.0845 56.5595L69.0413 56.0405ZM67.1692 56.4297L67.1025 61.1964L67.6233 61.2037L67.69 56.437L67.1692 56.4297ZM67.1025 61.2C67.1025 61.4932 67.0294 61.6653 66.9288 61.7659C66.8282 61.8665 66.6561 61.9396 66.3629 61.9396V62.4604C66.7364 62.4604 67.0643 62.3669 67.297 62.1342C67.5298 61.9014 67.6233 61.5735 67.6233 61.2H67.1025ZM66.3629 61.9396H63.0962V62.4604H66.3629V61.9396Z" fill="url(#paint8_linear_366_9795)" style="mix-blend-mode:color-burn" mask="url(#path-12-outside-2_366_9795)"/>
</g>
<defs>
<filter id="filter0_d_366_9795" x="-4.16667" y="-3.125" width="108.333" height="108.333" filterUnits="userSpaceOnUse" color-interpolation-filters="sRGB">
<feFlood flood-opacity="0" result="BackgroundImageFix"/>
<feColorMatrix in="SourceAlpha" type="matrix" values="0 0 0 0 0 0 0 0 0 0 0 0 0 0 0 0 0 0 127 0" result="hardAlpha"/>
<feOffset dy="1.04167"/>
<feGaussianBlur stdDeviation="2.08333"/>
<feColorMatrix type="matrix" values="0 0 0 0 0 0 0 0 0 0 0 0 0 0 0 0 0 0 0.16 0"/>
<feBlend mode="color-burn" in2="BackgroundImageFix" result="effect1_dropShadow_366_9795"/>
<feBlend mode="normal" in="SourceGraphic" in2="effect1_dropShadow_366_9795" result="shape"/>
</filter>
<filter id="filter1_d_366_9795" x="22.0332" y="31.7646" width="55.924" height="37.9875" filterUnits="userSpaceOnUse" color-interpolation-filters="sRGB">
<feFlood flood-opacity="0" result="BackgroundImageFix"/>
<feColorMatrix in="SourceAlpha" type="matrix" values="0 0 0 0 0 0 0 0 0 0 0 0 0 0 0 0 0 0 127 0" result="hardAlpha"/>
<feOffset dy="1.04167"/>
<feGaussianBlur stdDeviation="3.125"/>
<feColorMatrix type="matrix" values="0 0 0 0 0 0 0 0 0 0 0 0 0 0 0 0 0 0 0.12 0"/>
<feBlend mode="plus-darker" in2="BackgroundImageFix" result="effect1_dropShadow_366_9795"/>
<feBlend mode="normal" in="SourceGraphic" in2="effect1_dropShadow_366_9795" result="shape"/>
</filter>
<linearGradient id="paint0_linear_366_9795" x1="122.917" y1="122.917" x2="-51.5238" y2="31.9277" gradientUnits="userSpaceOnUse">
<stop stop-color="#AD49E8"/>
<stop offset="1" stop-color="#831DBF"/>
</linearGradient>
<linearGradient id="paint1_linear_366_9795" x1="50" y1="-6.39143" x2="50" y2="105.635" gradientUnits="userSpaceOnUse">
<stop stop-color="white"/>
<stop offset="1" stop-color="white" stop-opacity="0"/>
</linearGradient>
<radialGradient id="paint2_radial_366_9795" cx="0" cy="0" r="1" gradientUnits="userSpaceOnUse" gradientTransform="translate(50 25.7865) rotate(90) scale(73.89 56.0618)">
<stop stop-color="white"/>
<stop offset="1" stop-color="white" stop-opacity="0"/>
</radialGradient>
<linearGradient id="paint3_linear_366_9795" x1="122.917" y1="122.917" x2="-51.5238" y2="31.9277" gradientUnits="userSpaceOnUse">
<stop stop-color="#AD49E8"/>
<stop offset="1" stop-color="#831DBF"/>
</linearGradient>
<linearGradient id="paint4_linear_366_9795" x1="50" y1="-6.39143" x2="50" y2="105.635" gradientUnits="userSpaceOnUse">
<stop stop-color="white"/>
<stop offset="1" stop-color="white" stop-opacity="0"/>
</linearGradient>
<radialGradient id="paint5_radial_366_9795" cx="0" cy="0" r="1" gradientUnits="userSpaceOnUse" gradientTransform="translate(50 25.7865) rotate(90) scale(73.89 56.0618)">
<stop stop-color="white"/>
<stop offset="1" stop-color="white" stop-opacity="0"/>
</radialGradient>
<linearGradient id="paint6_linear_366_9795" x1="-22.9167" y1="-22.9167" x2="-22.9167" y2="122.917" gradientUnits="userSpaceOnUse">
<stop offset="0.135095" stop-color="white"/>
<stop offset="0.877908" stop-color="white" stop-opacity="0.01"/>
</linearGradient>
<linearGradient id="paint7_linear_366_9795" x1="50" y1="0" x2="50" y2="100" gradientUnits="userSpaceOnUse">
<stop stop-color="white"/>
<stop offset="1" stop-color="#999999"/>
</linearGradient>
<linearGradient id="paint8_linear_366_9795" x1="50" y1="33.3333" x2="50" y2="66.3333" gradientUnits="userSpaceOnUse">
<stop stop-color="#DFDFDF"/>
<stop offset="1" stop-color="#A9A9A9"/>
</linearGradient>
</defs>
</svg>
