<svg width="100" height="100" viewBox="0 0 100 100" fill="none" xmlns="http://www.w3.org/2000/svg">
<mask id="mask0_366_9799" style="mask-type:alpha" maskUnits="userSpaceOnUse" x="0" y="0" width="100" height="100">
<circle cx="50" cy="50" r="50" fill="white"/>
</mask>
<g mask="url(#mask0_366_9799)">
<mask id="mask1_366_9799" style="mask-type:alpha" maskUnits="userSpaceOnUse" x="0" y="0" width="100" height="100">
<circle cx="50" cy="50" r="50" fill="white"/>
</mask>
<g mask="url(#mask1_366_9799)">
<rect x="-22.9167" y="-22.9167" width="145.833" height="145.833" fill="url(#paint0_linear_366_9799)"/>
<rect x="-22.9167" y="-22.9167" width="145.833" height="145.833" fill="url(#paint1_linear_366_9799)" fill-opacity="0.6" style="mix-blend-mode:overlay"/>
<rect x="-22.9167" y="-22.9167" width="145.833" height="145.833" fill="url(#paint2_radial_366_9799)" fill-opacity="0.6" style="mix-blend-mode:overlay"/>
<rect x="-22.9167" y="-22.9167" width="145.833" height="145.833" fill="black" fill-opacity="0.16" style="mix-blend-mode:overlay"/>
<rect x="-22.9167" y="-22.9167" width="145.833" height="145.833" fill="black" fill-opacity="0.12" style="mix-blend-mode:darken"/>
</g>
<g filter="url(#filter0_d_366_9799)">
<mask id="mask2_366_9799" style="mask-type:alpha" maskUnits="userSpaceOnUse" x="0" y="0" width="100" height="100">
<path fill-rule="evenodd" clip-rule="evenodd" d="M95.8333 50C95.8333 75.313 75.313 95.8333 50 95.8333C24.6869 95.8333 4.16667 75.313 4.16667 50C4.16667 24.6869 24.6869 4.16667 50 4.16667C75.313 4.16667 95.8333 24.6869 95.8333 50ZM100 50C100 77.6142 77.6142 100 50 100C22.3858 100 0 77.6142 0 50C0 22.3858 22.3858 0 50 0C77.6142 0 100 22.3858 100 50ZM50 88.0208C70.9983 88.0208 88.0208 70.9983 88.0208 50C88.0208 29.0017 70.9983 11.9792 50 11.9792C29.0017 11.9792 11.9792 29.0017 11.9792 50C11.9792 70.9983 29.0017 88.0208 50 88.0208Z" fill="white"/>
</mask>
<g mask="url(#mask2_366_9799)">
<rect x="-22.9167" y="-22.9167" width="145.833" height="145.833" fill="url(#paint3_linear_366_9799)"/>
<rect x="-22.9167" y="-22.9167" width="145.833" height="145.833" fill="url(#paint4_linear_366_9799)" fill-opacity="0.6" style="mix-blend-mode:overlay"/>
<rect x="-22.9167" y="-22.9167" width="145.833" height="145.833" fill="url(#paint5_radial_366_9799)" fill-opacity="0.6" style="mix-blend-mode:overlay"/>
<g style="mix-blend-mode:soft-light">
<path fill-rule="evenodd" clip-rule="evenodd" d="M-22.9167 -22.9167H64.5833L36.6578 122.917H-22.9167V-22.9167Z" fill="url(#paint6_linear_366_9799)" style="mix-blend-mode:lighten"/>
</g>
<g style="mix-blend-mode:soft-light">
<mask id="path-10-inside-1_366_9799" fill="white">
<path fill-rule="evenodd" clip-rule="evenodd" d="M95.8333 50C95.8333 75.313 75.313 95.8333 50 95.8333C24.6869 95.8333 4.16667 75.313 4.16667 50C4.16667 24.6869 24.6869 4.16667 50 4.16667C75.313 4.16667 95.8333 24.6869 95.8333 50ZM100 50C100 77.6142 77.6142 100 50 100C22.3858 100 0 77.6142 0 50C0 22.3858 22.3858 0 50 0C77.6142 0 100 22.3858 100 50ZM50 88.0208C70.9983 88.0208 88.0208 70.9983 88.0208 50C88.0208 29.0017 70.9983 11.9792 50 11.9792C29.0017 11.9792 11.9792 29.0017 11.9792 50C11.9792 70.9983 29.0017 88.0208 50 88.0208Z"/>
</mask>
<path d="M50 96.0938C75.4569 96.0938 96.0938 75.4569 96.0938 50H95.5729C95.5729 75.1692 75.1692 95.5729 50 95.5729V96.0938ZM3.90625 50C3.90625 75.4569 24.5431 96.0938 50 96.0938V95.5729C24.8308 95.5729 4.42708 75.1692 4.42708 50H3.90625ZM50 3.90625C24.5431 3.90625 3.90625 24.5431 3.90625 50H4.42708C4.42708 24.8308 24.8308 4.42708 50 4.42708V3.90625ZM96.0938 50C96.0938 24.5431 75.4569 3.90625 50 3.90625V4.42708C75.1692 4.42708 95.5729 24.8308 95.5729 50H96.0938ZM50 100.26C77.7581 100.26 100.26 77.7581 100.26 50H99.7396C99.7396 77.4704 77.4704 99.7396 50 99.7396V100.26ZM-0.260417 50C-0.260417 77.7581 22.2419 100.26 50 100.26V99.7396C22.5296 99.7396 0.260417 77.4704 0.260417 50H-0.260417ZM50 -0.260417C22.2419 -0.260417 -0.260417 22.2419 -0.260417 50H0.260417C0.260417 22.5296 22.5296 0.260417 50 0.260417V-0.260417ZM100.26 50C100.26 22.2419 77.7581 -0.260417 50 -0.260417V0.260417C77.4704 0.260417 99.7396 22.5296 99.7396 50H100.26ZM87.7604 50C87.7604 70.8545 70.8545 87.7604 50 87.7604V88.2812C71.1421 88.2812 88.2812 71.1421 88.2812 50H87.7604ZM50 12.2396C70.8545 12.2396 87.7604 29.1455 87.7604 50H88.2812C88.2812 28.8578 71.1421 11.7188 50 11.7188V12.2396ZM12.2396 50C12.2396 29.1455 29.1455 12.2396 50 12.2396V11.7188C28.8578 11.7188 11.7188 28.8578 11.7188 50H12.2396ZM50 87.7604C29.1455 87.7604 12.2396 70.8545 12.2396 50H11.7188C11.7188 71.1421 28.8578 88.2812 50 88.2812V87.7604Z" fill="url(#paint7_linear_366_9799)" mask="url(#path-10-inside-1_366_9799)"/>
</g>
</g>
</g>
</g>
<g filter="url(#filter1_d_366_9799)">
<mask id="path-12-outside-2_366_9799" maskUnits="userSpaceOnUse" x="27.3333" y="36.3333" width="46" height="27" fill="black">
<rect fill="white" x="27.3333" y="36.3333" width="46" height="27"/>
<path d="M40.947 53.2333C40.3914 53.2333 40.1137 52.9555 40.1137 52.4V49C40.1137 48.4444 40.3914 48.1666 40.947 48.1666L50.247 48.2333C50.8248 48.2333 51.2581 48.3666 51.547 48.6333C51.8581 48.9 52.0359 49.3778 52.0803 50.0666C52.1692 51.7555 51.9692 53.3555 51.4803 54.8666C50.9914 56.3778 50.247 57.7 49.247 58.8333C48.247 59.9666 46.9914 60.8666 45.4803 61.5333C43.9914 62.2 42.2803 62.5333 40.347 62.5333C38.547 62.5333 36.8803 62.2222 35.347 61.6C33.8359 60.9778 32.5248 60.1111 31.4137 59C30.3025 57.8666 29.4248 56.5222 28.7803 54.9666C28.1581 53.4111 27.847 51.6889 27.847 49.8C27.847 47.9111 28.1581 46.1778 28.7803 44.6C29.4025 43 30.2581 41.6222 31.347 40.4666C32.4581 39.2889 33.747 38.3778 35.2137 37.7333C36.7025 37.0666 38.3025 36.7333 40.0137 36.7333C42.3692 36.7333 44.4137 37.1778 46.147 38.0666C47.8803 38.9333 49.2137 40.0555 50.147 41.4333C50.3025 41.6555 50.3803 41.9 50.3803 42.1666C50.3803 42.4111 50.2581 42.6222 50.0137 42.8L46.947 45.2C46.7248 45.3778 46.4692 45.4778 46.1803 45.5C45.8914 45.5 45.6581 45.3666 45.4803 45.1C45.0137 44.4111 44.3581 43.8444 43.5137 43.4C42.6914 42.9555 41.6025 42.7333 40.247 42.7333C39.3359 42.7333 38.4914 42.9111 37.7137 43.2666C36.9359 43.6222 36.247 44.1333 35.647 44.8C35.0692 45.4444 34.6137 46.2222 34.2803 47.1333C33.947 48.0444 33.7803 49.0444 33.7803 50.1333C33.7803 51.2444 33.9581 52.2444 34.3137 53.1333C34.6692 54.0222 35.1581 54.7778 35.7803 55.4C36.4025 56.0222 37.1248 56.5111 37.947 56.8666C38.7692 57.2 39.647 57.3666 40.5803 57.3666C41.4248 57.3666 42.1914 57.2555 42.8803 57.0333C43.5692 56.8111 44.1692 56.5111 44.6803 56.1333C45.2137 55.7333 45.647 55.2889 45.9803 54.8C46.3137 54.2889 46.5581 53.7444 46.7137 53.1666L40.947 53.2333ZM55.542 58.7333C55.542 58.3555 55.6309 58.0778 55.8087 57.9C55.9865 57.7 56.2976 57.4444 56.742 57.1333C57.8531 56.4 58.9531 55.5778 60.042 54.6666C61.1531 53.7555 62.1531 52.8111 63.042 51.8333C63.9531 50.8555 64.6976 49.8889 65.2754 48.9333C65.8754 47.9555 66.2198 47.0555 66.3087 46.2333C66.3754 45.6778 66.3309 45.1666 66.1754 44.7C66.0198 44.2111 65.7865 43.7889 65.4754 43.4333C65.1643 43.0778 64.7643 42.8 64.2754 42.6C63.7865 42.4 63.242 42.3 62.642 42.3C61.7531 42.3 60.9198 42.5 60.142 42.9C59.3865 43.3 58.7309 43.8666 58.1754 44.6C57.9754 44.8666 57.7309 45 57.442 45C57.1754 44.9778 56.9309 44.8778 56.7087 44.7L53.9754 42.8C53.5531 42.4 53.5087 41.9444 53.842 41.4333C54.8198 39.9666 56.0198 38.8222 57.442 38C58.8865 37.1555 60.6198 36.7333 62.642 36.7333C64.1976 36.7333 65.5643 36.9778 66.742 37.4666C67.9198 37.9333 68.8976 38.5666 69.6754 39.3666C70.4754 40.1666 71.0643 41.1 71.442 42.1666C71.8198 43.2111 71.9754 44.3222 71.9087 45.5C71.842 46.6778 71.542 47.8444 71.0087 49C70.4754 50.1333 69.8087 51.2222 69.0087 52.2666C68.2309 53.2889 67.3643 54.2333 66.4087 55.1C65.4754 55.9666 64.5643 56.7111 63.6754 57.3333C65.0087 57.2666 66.3087 57.1778 67.5754 57.0666C68.842 56.9333 69.9754 56.7778 70.9754 56.6C71.6198 56.4889 71.9865 56.7111 72.0754 57.2666L72.5754 60.0333C72.7087 60.7 72.4754 61.0889 71.8754 61.2C69.4976 61.5778 67.0976 61.8444 64.6754 62C62.2531 62.1778 59.5976 62.2444 56.7087 62.2C55.9309 62.2 55.542 61.8111 55.542 61.0333V58.7333Z"/>
</mask>
<path d="M40.947 53.2333C40.3914 53.2333 40.1137 52.9555 40.1137 52.4V49C40.1137 48.4444 40.3914 48.1666 40.947 48.1666L50.247 48.2333C50.8248 48.2333 51.2581 48.3666 51.547 48.6333C51.8581 48.9 52.0359 49.3778 52.0803 50.0666C52.1692 51.7555 51.9692 53.3555 51.4803 54.8666C50.9914 56.3778 50.247 57.7 49.247 58.8333C48.247 59.9666 46.9914 60.8666 45.4803 61.5333C43.9914 62.2 42.2803 62.5333 40.347 62.5333C38.547 62.5333 36.8803 62.2222 35.347 61.6C33.8359 60.9778 32.5248 60.1111 31.4137 59C30.3025 57.8666 29.4248 56.5222 28.7803 54.9666C28.1581 53.4111 27.847 51.6889 27.847 49.8C27.847 47.9111 28.1581 46.1778 28.7803 44.6C29.4025 43 30.2581 41.6222 31.347 40.4666C32.4581 39.2889 33.747 38.3778 35.2137 37.7333C36.7025 37.0666 38.3025 36.7333 40.0137 36.7333C42.3692 36.7333 44.4137 37.1778 46.147 38.0666C47.8803 38.9333 49.2137 40.0555 50.147 41.4333C50.3025 41.6555 50.3803 41.9 50.3803 42.1666C50.3803 42.4111 50.2581 42.6222 50.0137 42.8L46.947 45.2C46.7248 45.3778 46.4692 45.4778 46.1803 45.5C45.8914 45.5 45.6581 45.3666 45.4803 45.1C45.0137 44.4111 44.3581 43.8444 43.5137 43.4C42.6914 42.9555 41.6025 42.7333 40.247 42.7333C39.3359 42.7333 38.4914 42.9111 37.7137 43.2666C36.9359 43.6222 36.247 44.1333 35.647 44.8C35.0692 45.4444 34.6137 46.2222 34.2803 47.1333C33.947 48.0444 33.7803 49.0444 33.7803 50.1333C33.7803 51.2444 33.9581 52.2444 34.3137 53.1333C34.6692 54.0222 35.1581 54.7778 35.7803 55.4C36.4025 56.0222 37.1248 56.5111 37.947 56.8666C38.7692 57.2 39.647 57.3666 40.5803 57.3666C41.4248 57.3666 42.1914 57.2555 42.8803 57.0333C43.5692 56.8111 44.1692 56.5111 44.6803 56.1333C45.2137 55.7333 45.647 55.2889 45.9803 54.8C46.3137 54.2889 46.5581 53.7444 46.7137 53.1666L40.947 53.2333ZM55.542 58.7333C55.542 58.3555 55.6309 58.0778 55.8087 57.9C55.9865 57.7 56.2976 57.4444 56.742 57.1333C57.8531 56.4 58.9531 55.5778 60.042 54.6666C61.1531 53.7555 62.1531 52.8111 63.042 51.8333C63.9531 50.8555 64.6976 49.8889 65.2754 48.9333C65.8754 47.9555 66.2198 47.0555 66.3087 46.2333C66.3754 45.6778 66.3309 45.1666 66.1754 44.7C66.0198 44.2111 65.7865 43.7889 65.4754 43.4333C65.1643 43.0778 64.7643 42.8 64.2754 42.6C63.7865 42.4 63.242 42.3 62.642 42.3C61.7531 42.3 60.9198 42.5 60.142 42.9C59.3865 43.3 58.7309 43.8666 58.1754 44.6C57.9754 44.8666 57.7309 45 57.442 45C57.1754 44.9778 56.9309 44.8778 56.7087 44.7L53.9754 42.8C53.5531 42.4 53.5087 41.9444 53.842 41.4333C54.8198 39.9666 56.0198 38.8222 57.442 38C58.8865 37.1555 60.6198 36.7333 62.642 36.7333C64.1976 36.7333 65.5643 36.9778 66.742 37.4666C67.9198 37.9333 68.8976 38.5666 69.6754 39.3666C70.4754 40.1666 71.0643 41.1 71.442 42.1666C71.8198 43.2111 71.9754 44.3222 71.9087 45.5C71.842 46.6778 71.542 47.8444 71.0087 49C70.4754 50.1333 69.8087 51.2222 69.0087 52.2666C68.2309 53.2889 67.3643 54.2333 66.4087 55.1C65.4754 55.9666 64.5643 56.7111 63.6754 57.3333C65.0087 57.2666 66.3087 57.1778 67.5754 57.0666C68.842 56.9333 69.9754 56.7778 70.9754 56.6C71.6198 56.4889 71.9865 56.7111 72.0754 57.2666L72.5754 60.0333C72.7087 60.7 72.4754 61.0889 71.8754 61.2C69.4976 61.5778 67.0976 61.8444 64.6754 62C62.2531 62.1778 59.5976 62.2444 56.7087 62.2C55.9309 62.2 55.542 61.8111 55.542 61.0333V58.7333Z" fill="white"/>
<path d="M40.947 53.2333V53.4937L40.95 53.4937L40.947 53.2333ZM40.947 48.1666L40.9489 47.9062H40.947V48.1666ZM50.247 48.2333L50.2451 48.4937H50.247V48.2333ZM51.547 48.6333L51.3702 48.8248L51.3775 48.831L51.547 48.6333ZM52.0803 50.0666L52.3404 50.053L52.3402 50.0499L52.0803 50.0666ZM51.4803 54.8666L51.2325 54.7865L51.4803 54.8666ZM49.247 58.8333L49.0517 58.661L49.247 58.8333ZM45.4803 61.5333L45.3752 61.295L45.3739 61.2956L45.4803 61.5333ZM35.347 61.6L35.2478 61.8408L35.2491 61.8413L35.347 61.6ZM31.4137 59L31.2277 59.1823L31.2295 59.1841L31.4137 59ZM28.7803 54.9666L28.5385 55.0634L28.5397 55.0663L28.7803 54.9666ZM28.7803 44.6L29.0226 44.6955L29.023 44.6944L28.7803 44.6ZM31.347 40.4666L31.1576 40.2879L31.1575 40.2881L31.347 40.4666ZM35.2137 37.7333L35.3184 37.9717L35.3201 37.971L35.2137 37.7333ZM46.147 38.0666L46.0281 38.2984L46.0305 38.2996L46.147 38.0666ZM50.147 41.4333L49.9314 41.5794L49.9336 41.5827L50.147 41.4333ZM50.0137 42.8L49.8604 42.5892L49.8532 42.5949L50.0137 42.8ZM46.947 45.2L46.7865 44.9949L46.7843 44.9966L46.947 45.2ZM46.1803 45.5V45.7604H46.1903L46.2003 45.7596L46.1803 45.5ZM45.4803 45.1L45.697 44.9555L45.6959 44.9539L45.4803 45.1ZM43.5137 43.4L43.3898 43.6291L43.3924 43.6304L43.5137 43.4ZM37.7137 43.2666L37.6054 43.0298L37.7137 43.2666ZM35.647 44.8L35.4534 44.6258L35.4531 44.6261L35.647 44.8ZM34.2803 47.1333L34.0358 47.0438L34.2803 47.1333ZM34.3137 53.1333L34.5554 53.0366L34.3137 53.1333ZM35.7803 55.4L35.9645 55.2158L35.7803 55.4ZM37.947 56.8666L37.8436 57.1057L37.8491 57.108L37.947 56.8666ZM42.8803 57.0333L42.9603 57.2812L42.8803 57.0333ZM44.6803 56.1333L44.8351 56.3427L44.8366 56.3416L44.6803 56.1333ZM45.9803 54.8L46.1955 54.9467L46.1984 54.9422L45.9803 54.8ZM46.7137 53.1666L46.9651 53.2343L47.0545 52.9023L46.7106 52.9062L46.7137 53.1666ZM40.947 52.9729C40.7094 52.9729 40.579 52.9137 40.5061 52.8408C40.4333 52.768 40.3741 52.6376 40.3741 52.4H39.8532C39.8532 52.7179 39.9329 53.0042 40.1378 53.2091C40.3428 53.4141 40.6291 53.4937 40.947 53.4937V52.9729ZM40.3741 52.4V49H39.8532V52.4H40.3741ZM40.3741 49C40.3741 48.7623 40.4333 48.6319 40.5061 48.5591C40.579 48.4863 40.7094 48.4271 40.947 48.4271V47.9062C40.6291 47.9062 40.3428 47.9859 40.1378 48.1908C39.9329 48.3958 39.8532 48.6821 39.8532 49H40.3741ZM40.9451 48.4271L50.2451 48.4937L50.2489 47.9729L40.9489 47.9062L40.9451 48.4271ZM50.247 48.4937C50.7896 48.4937 51.1479 48.6194 51.3703 48.8247L51.7236 48.442C51.3682 48.1139 50.86 47.9729 50.247 47.9729V48.4937ZM51.3775 48.831C51.6086 49.0292 51.7776 49.4193 51.8204 50.0834L52.3402 50.0499C52.2942 49.3363 52.1075 48.7708 51.7165 48.4356L51.3775 48.831ZM51.8203 50.0803C51.9076 51.7395 51.711 53.3076 51.2325 54.7865L51.7281 54.9468C52.2274 53.4035 52.4308 51.7715 52.3404 50.053L51.8203 50.0803ZM51.2325 54.7865C50.7541 56.2654 50.0269 57.5558 49.0517 58.661L49.4423 59.0056C50.4671 57.8441 51.2288 56.4901 51.7281 54.9468L51.2325 54.7865ZM49.0517 58.661C48.0789 59.7636 46.8551 60.6422 45.3752 61.2951L45.5854 61.7716C47.1278 61.0911 48.4151 60.1697 49.4423 59.0056L49.0517 58.661ZM45.3739 61.2956C43.9241 61.9448 42.2503 62.2729 40.347 62.2729V62.7937C42.3103 62.7937 44.0588 62.4552 45.5867 61.771L45.3739 61.2956ZM40.347 62.2729C38.5776 62.2729 36.9445 61.9672 35.4449 61.3587L35.2491 61.8413C36.8161 62.4772 38.5164 62.7937 40.347 62.7937V62.2729ZM35.4461 61.3592C33.9655 60.7495 32.6836 59.9017 31.5978 58.8158L31.2295 59.1841C32.3659 60.3205 33.7062 61.206 35.2478 61.8408L35.4461 61.3592ZM31.5996 58.8177C30.5132 57.7096 29.6534 56.3936 29.0209 54.867L28.5397 55.0663C29.1961 56.6508 30.0919 58.0237 31.2277 59.1823L31.5996 58.8177ZM29.0221 54.8699C28.4137 53.3488 28.1074 51.6599 28.1074 49.8H27.5866C27.5866 51.7178 27.9025 53.4734 28.5385 55.0634L29.0221 54.8699ZM28.1074 49.8C28.1074 47.9401 28.4136 46.2396 29.0226 44.6955L28.5381 44.5044C27.9026 46.1159 27.5866 47.8821 27.5866 49.8H28.1074ZM29.023 44.6944C29.6341 43.123 30.4724 41.7745 31.5365 40.6452L31.1575 40.2881C30.0438 41.4699 29.171 42.8769 28.5376 44.5056L29.023 44.6944ZM31.5364 40.6453C32.6238 39.4927 33.884 38.602 35.3184 37.9717L35.1089 37.4949C33.6099 38.1535 32.2923 39.0851 31.1576 40.2879L31.5364 40.6453ZM35.3201 37.971C36.7739 37.32 38.3374 36.9937 40.0137 36.9937V36.4729C38.2677 36.4729 36.6312 36.8132 35.1072 37.4956L35.3201 37.971ZM40.0137 36.9937C42.3364 36.9937 44.3385 37.4319 46.0282 38.2984L46.2658 37.8349C44.4888 36.9236 42.402 36.4729 40.0137 36.4729V36.9937ZM46.0305 38.2996C47.7305 39.1496 49.027 40.2443 49.9314 41.5794L50.3626 41.2873C49.4004 39.8668 48.0301 38.7171 46.2635 37.8337L46.0305 38.2996ZM49.9336 41.5827C50.0591 41.7619 50.1199 41.9544 50.1199 42.1666H50.6407C50.6407 41.8456 50.546 41.5492 50.3603 41.284L49.9336 41.5827ZM50.1199 42.1666C50.1199 42.3079 50.0554 42.4476 49.8605 42.5894L50.1668 43.0106C50.4608 42.7968 50.6407 42.5143 50.6407 42.1666H50.1199ZM49.8532 42.5949L46.7865 44.9949L47.1075 45.4051L50.1741 43.0051L49.8532 42.5949ZM46.7843 44.9966C46.6037 45.1411 46.3981 45.222 46.1603 45.2403L46.2003 45.7596C46.5403 45.7335 46.8458 45.6144 47.1097 45.4033L46.7843 44.9966ZM46.1803 45.2396C45.9891 45.2396 45.8327 45.1591 45.697 44.9555L45.2636 45.2444C45.4835 45.5742 45.7937 45.7604 46.1803 45.7604V45.2396ZM45.6959 44.9539C45.2019 44.2247 44.5117 43.631 43.6349 43.1695L43.3924 43.6304C44.2045 44.0579 44.8254 44.5975 45.2647 45.246L45.6959 44.9539ZM43.6375 43.1709C42.7639 42.6987 41.6276 42.4729 40.247 42.4729V42.9937C41.5775 42.9937 42.6189 43.2124 43.3898 43.6291L43.6375 43.1709ZM40.247 42.4729C39.301 42.4729 38.4193 42.6577 37.6054 43.0298L37.8219 43.5035C38.5635 43.1645 39.3708 42.9937 40.247 42.9937V42.4729ZM37.6054 43.0298C36.7936 43.4009 36.0761 43.9339 35.4534 44.6258L35.8406 44.9742C36.4179 44.3327 37.0781 43.8435 37.8219 43.5035L37.6054 43.0298ZM35.4531 44.6261C34.8507 45.298 34.3791 46.1054 34.0358 47.0438L34.5249 47.2228C34.8482 46.339 35.2877 45.5908 35.8409 44.9738L35.4531 44.6261ZM34.0358 47.0438C33.6907 47.9869 33.5199 49.0176 33.5199 50.1333H34.0407C34.0407 49.0712 34.2032 48.1019 34.5249 47.2228L34.0358 47.0438ZM33.5199 50.1333C33.5199 51.2723 33.7022 52.3059 34.0719 53.23L34.5554 53.0366C34.214 52.183 34.0407 51.2165 34.0407 50.1333H33.5199ZM34.0719 53.23C34.4394 54.1488 34.9469 54.9348 35.5962 55.5841L35.9645 55.2158C35.3693 54.6207 34.8991 53.8956 34.5554 53.0366L34.0719 53.23ZM35.5962 55.5841C36.242 56.23 36.9918 56.7373 37.8436 57.1057L38.0503 56.6276C37.2577 56.2849 36.563 55.8144 35.9645 55.2158L35.5962 55.5841ZM37.8491 57.108C38.704 57.4546 39.6152 57.6271 40.5803 57.6271V57.1062C39.6788 57.1062 38.8344 56.9454 38.0448 56.6253L37.8491 57.108ZM40.5803 57.6271C41.4475 57.6271 42.2417 57.513 42.9603 57.2812L42.8004 56.7855C42.1412 56.9981 41.402 57.1062 40.5803 57.1062V57.6271ZM42.9603 57.2812C43.6723 57.0515 44.2984 56.7394 44.8351 56.3427L44.5255 55.9239C44.04 56.2827 43.4661 56.5707 42.8004 56.7855L42.9603 57.2812ZM44.8366 56.3416C45.3899 55.9266 45.8441 55.462 46.1955 54.9467L45.7652 54.6533C45.4498 55.1157 45.0374 55.54 44.5241 55.925L44.8366 56.3416ZM46.1984 54.9422C46.5464 54.4086 46.8023 53.8391 46.9651 53.2343L46.4622 53.0989C46.3139 53.6497 46.0809 54.1691 45.7622 54.6577L46.1984 54.9422ZM46.7106 52.9062L40.944 52.9729L40.95 53.4937L46.7167 53.427L46.7106 52.9062ZM55.8087 57.9L55.9928 58.0841L55.9983 58.0787L56.0033 58.073L55.8087 57.9ZM56.742 57.1333L56.5985 56.9159L56.5927 56.92L56.742 57.1333ZM60.042 54.6666L59.8769 54.4653L59.8749 54.4669L60.042 54.6666ZM63.042 51.8333L62.8515 51.6558L62.8493 51.6581L63.042 51.8333ZM65.2754 48.9333L65.0534 48.7971L65.0525 48.7986L65.2754 48.9333ZM66.3087 46.2333L66.0501 46.2023L66.0498 46.2053L66.3087 46.2333ZM66.1754 44.7L65.9272 44.7789L65.9283 44.7823L66.1754 44.7ZM65.4754 43.4333L65.6714 43.2618V43.2618L65.4754 43.4333ZM64.2754 42.6L64.1768 42.841L64.2754 42.6ZM60.142 42.9L60.0229 42.6684L60.0202 42.6698L60.142 42.9ZM58.1754 44.6L57.9678 44.4427L57.967 44.4437L58.1754 44.6ZM57.442 45L57.4204 45.2595L57.4312 45.2604H57.442V45ZM56.7087 44.7L56.8714 44.4966L56.8645 44.4912L56.8573 44.4861L56.7087 44.7ZM53.9754 42.8L53.7963 42.989L53.8106 43.0026L53.8267 43.0138L53.9754 42.8ZM53.842 41.4333L53.6253 41.2889L53.6239 41.2911L53.842 41.4333ZM57.442 38L57.5724 38.2254L57.5735 38.2248L57.442 38ZM66.742 37.4666L66.6422 37.7072L66.6461 37.7088L66.742 37.4666ZM69.6754 39.3666L69.4886 39.5482L69.4912 39.5508L69.6754 39.3666ZM71.442 42.1666L71.1966 42.2536L71.1971 42.2552L71.442 42.1666ZM71.9087 45.5L71.6487 45.4853V45.4853L71.9087 45.5ZM71.0087 49L71.2443 49.1109L71.2452 49.1091L71.0087 49ZM69.0087 52.2666L68.802 52.1083L68.8015 52.109L69.0087 52.2666ZM66.4087 55.1L66.2337 54.9071L66.2315 54.9091L66.4087 55.1ZM63.6754 57.3333L63.526 57.12L62.7852 57.6386L63.6884 57.5934L63.6754 57.3333ZM67.5754 57.0666L67.5981 57.3261L67.6026 57.3256L67.5754 57.0666ZM70.9754 56.6L70.9311 56.3433L70.9298 56.3436L70.9754 56.6ZM72.0754 57.2666L71.8182 57.3078L71.8191 57.313L72.0754 57.2666ZM72.5754 60.0333L72.3191 60.0796L72.32 60.0844L72.5754 60.0333ZM71.8754 61.2L71.9162 61.4573L71.9228 61.456L71.8754 61.2ZM64.6754 62L64.6587 61.7401L64.6563 61.7403L64.6754 62ZM56.7087 62.2L56.7127 61.9396H56.7087V62.2ZM55.8025 58.7333C55.8025 58.3903 55.8837 58.1932 55.9928 58.0841L55.6246 57.7158C55.3781 57.9623 55.2816 58.3207 55.2816 58.7333H55.8025ZM56.0033 58.073C56.16 57.8968 56.4502 57.6555 56.8914 57.3467L56.5927 56.92C56.145 57.2334 55.813 57.5032 55.6141 57.727L56.0033 58.073ZM56.8855 57.3507C58.0053 56.6116 59.1132 55.7834 60.2092 54.8664L59.8749 54.4669C58.7931 55.3721 57.701 56.1884 56.5986 56.916L56.8855 57.3507ZM60.2072 54.868C61.3272 53.9495 62.3366 52.9964 63.2347 52.0085L62.8493 51.6581C61.9697 52.6257 60.979 53.5615 59.8769 54.4653L60.2072 54.868ZM63.2326 52.0108C64.1536 51.0224 64.9096 50.0416 65.4982 49.0681L65.0525 48.7986C64.4856 49.7361 63.7527 50.6886 62.8515 51.6558L63.2326 52.0108ZM65.4973 49.0695C66.1102 48.0708 66.4733 47.1337 66.5676 46.2613L66.0498 46.2053C65.9663 46.9773 65.6406 47.8403 65.0534 48.7971L65.4973 49.0695ZM66.5673 46.2643C66.6379 45.6759 66.5917 45.1255 66.4224 44.6176L65.9283 44.7823C66.0701 45.2078 66.1129 45.6797 66.0501 46.2023L66.5673 46.2643ZM66.4235 44.621C66.2581 44.101 66.008 43.6466 65.6714 43.2618L65.2794 43.6048C65.565 43.9312 65.7816 44.3212 65.9272 44.7789L66.4235 44.621ZM65.6714 43.2618C65.3306 42.8724 64.8958 42.5724 64.374 42.359L64.1768 42.841C64.6327 43.0275 64.9979 43.2831 65.2794 43.6048L65.6714 43.2618ZM64.374 42.359C63.8498 42.1445 63.2713 42.0396 62.642 42.0396V42.5604C63.2128 42.5604 63.7231 42.6554 64.1768 42.841L64.374 42.359ZM62.642 42.0396C61.7124 42.0396 60.8382 42.2491 60.0229 42.6684L60.2611 43.1316C61.0015 42.7508 61.7939 42.5604 62.642 42.5604V42.0396ZM60.0202 42.6698C59.2286 43.0889 58.5445 43.6815 57.9678 44.4427L58.3829 44.7572C58.9174 44.0518 59.5444 43.511 60.2639 43.1301L60.0202 42.6698ZM57.967 44.4437C57.8076 44.6563 57.6356 44.7396 57.442 44.7396V45.2604C57.8263 45.2604 58.1431 45.077 58.3837 44.7562L57.967 44.4437ZM57.4637 44.7405C57.2519 44.7228 57.0559 44.6442 56.8714 44.4966L56.546 44.9033C56.8059 45.1113 57.0989 45.2327 57.4204 45.2595L57.4637 44.7405ZM56.8573 44.4861L54.124 42.5861L53.8267 43.0138L56.5601 44.9138L56.8573 44.4861ZM54.1545 42.6109C53.9762 42.4421 53.8992 42.2829 53.8846 42.133C53.8697 41.9812 53.915 41.7981 54.0602 41.5756L53.6239 41.2911C53.4357 41.5796 53.3366 41.8799 53.3662 42.1836C53.396 42.4893 53.5523 42.7579 53.7963 42.989L54.1545 42.6109ZM54.0587 41.5778C55.016 40.1419 56.1873 39.0262 57.5724 38.2254L57.3117 37.7745C55.8524 38.6182 54.6237 39.7914 53.6254 41.2889L54.0587 41.5778ZM57.5735 38.2248C58.9705 37.4081 60.6564 36.9937 62.642 36.9937V36.4729C60.5833 36.4729 58.8025 36.903 57.3106 37.7752L57.5735 38.2248ZM62.642 36.9937C64.1707 36.9937 65.5022 37.234 66.6422 37.7072L66.8419 37.2261C65.6263 36.7216 64.2245 36.4729 62.642 36.4729V36.9937ZM66.6461 37.7088C67.7943 38.1637 68.7398 38.7779 69.4887 39.5482L69.8621 39.1851C69.0554 38.3554 68.0453 37.7029 66.838 37.2245L66.6461 37.7088ZM69.4912 39.5508C70.2638 40.3234 70.8317 41.2235 71.1966 42.2536L71.6875 42.0797C71.2968 40.9765 70.6869 40.0099 69.8595 39.1825L69.4912 39.5508ZM71.1971 42.2552C71.5622 43.2646 71.7135 44.3404 71.6487 45.4853L72.1687 45.5147C72.2372 44.304 72.0774 43.1576 71.6869 42.0781L71.1971 42.2552ZM71.6487 45.4853C71.584 46.6279 71.293 47.7626 70.7723 48.8909L71.2452 49.1091C71.7911 47.9262 72.1 46.7276 72.1687 45.5147L71.6487 45.4853ZM70.7731 48.8891C70.248 50.0048 69.5912 51.0779 68.802 52.1083L69.2154 52.425C70.0262 51.3665 70.7027 50.2618 71.2443 49.1109L70.7731 48.8891ZM68.8015 52.109C68.0334 53.1184 67.1775 54.0511 66.2338 54.9071L66.5837 55.2929C67.551 54.4155 68.4285 53.4593 69.216 52.4243L68.8015 52.109ZM66.2315 54.9091C65.3055 55.769 64.4036 56.5057 63.526 57.12L63.8247 57.5467C64.7249 56.9165 65.6453 56.1643 66.5859 55.2908L66.2315 54.9091ZM63.6884 57.5934C65.0248 57.5266 66.3281 57.4375 67.5981 57.3261L67.5526 56.8072C66.2893 56.918 64.9926 57.0067 63.6624 57.0732L63.6884 57.5934ZM67.6026 57.3256C68.874 57.1918 70.0136 57.0355 71.021 56.8564L70.9298 56.3436C69.9372 56.5201 68.8101 56.6748 67.5481 56.8077L67.6026 57.3256ZM71.0196 56.8566C71.3112 56.8063 71.4911 56.8408 71.5987 56.906C71.6976 56.9659 71.7818 57.0804 71.8182 57.3078L72.3325 57.2255C72.28 56.8974 72.1365 56.6229 71.8687 56.4606C71.6096 56.3036 71.284 56.2825 70.9311 56.3433L71.0196 56.8566ZM71.8191 57.313L72.3191 60.0796L72.8316 59.987L72.3316 57.2203L71.8191 57.313ZM72.32 60.0844C72.3802 60.3851 72.3471 60.5742 72.2771 60.691C72.2108 60.8014 72.0812 60.897 71.8279 60.9439L71.9228 61.456C72.2696 61.3918 72.5566 61.2375 72.7237 60.959C72.8869 60.6868 72.9039 60.3482 72.8307 59.9822L72.32 60.0844ZM71.8345 60.9428C69.4648 61.3193 67.0729 61.5851 64.6587 61.7401L64.6921 62.2599C67.1223 62.1038 69.5304 61.8362 71.9162 61.4572L71.8345 60.9428ZM64.6563 61.7403C62.243 61.9174 59.5953 61.9839 56.7127 61.9396L56.7047 62.4604C59.5999 62.5049 62.2633 62.4381 64.6944 62.2597L64.6563 61.7403ZM56.7087 61.9396C56.36 61.9396 56.1462 61.8526 56.0178 61.7242C55.8895 61.5958 55.8025 61.3821 55.8025 61.0333H55.2816C55.2816 61.4623 55.3891 61.8319 55.6496 62.0925C55.9101 62.353 56.2797 62.4604 56.7087 62.4604V61.9396ZM55.8025 61.0333V58.7333H55.2816V61.0333H55.8025Z" fill="url(#paint8_linear_366_9799)" style="mix-blend-mode:color-burn" mask="url(#path-12-outside-2_366_9799)"/>
</g>
<defs>
<filter id="filter0_d_366_9799" x="-4.16667" y="-3.125" width="108.333" height="108.333" filterUnits="userSpaceOnUse" color-interpolation-filters="sRGB">
<feFlood flood-opacity="0" result="BackgroundImageFix"/>
<feColorMatrix in="SourceAlpha" type="matrix" values="0 0 0 0 0 0 0 0 0 0 0 0 0 0 0 0 0 0 127 0" result="hardAlpha"/>
<feOffset dy="1.04167"/>
<feGaussianBlur stdDeviation="2.08333"/>
<feColorMatrix type="matrix" values="0 0 0 0 0 0 0 0 0 0 0 0 0 0 0 0 0 0 0.16 0"/>
<feBlend mode="color-burn" in2="BackgroundImageFix" result="effect1_dropShadow_366_9799"/>
<feBlend mode="normal" in="SourceGraphic" in2="effect1_dropShadow_366_9799" result="shape"/>
</filter>
<filter id="filter1_d_366_9799" x="21.3365" y="31.2646" width="57.7856" height="38.8208" filterUnits="userSpaceOnUse" color-interpolation-filters="sRGB">
<feFlood flood-opacity="0" result="BackgroundImageFix"/>
<feColorMatrix in="SourceAlpha" type="matrix" values="0 0 0 0 0 0 0 0 0 0 0 0 0 0 0 0 0 0 127 0" result="hardAlpha"/>
<feOffset dy="1.04167"/>
<feGaussianBlur stdDeviation="3.125"/>
<feColorMatrix type="matrix" values="0 0 0 0 0 0 0 0 0 0 0 0 0 0 0 0 0 0 0.12 0"/>
<feBlend mode="plus-darker" in2="BackgroundImageFix" result="effect1_dropShadow_366_9799"/>
<feBlend mode="normal" in="SourceGraphic" in2="effect1_dropShadow_366_9799" result="shape"/>
</filter>
<linearGradient id="paint0_linear_366_9799" x1="122.917" y1="122.917" x2="-51.5238" y2="31.9277" gradientUnits="userSpaceOnUse">
<stop stop-color="#61B82B"/>
<stop offset="1" stop-color="#399500"/>
</linearGradient>
<linearGradient id="paint1_linear_366_9799" x1="50" y1="-6.39146" x2="50" y2="105.635" gradientUnits="userSpaceOnUse">
<stop stop-color="white"/>
<stop offset="1" stop-color="white" stop-opacity="0"/>
</linearGradient>
<radialGradient id="paint2_radial_366_9799" cx="0" cy="0" r="1" gradientUnits="userSpaceOnUse" gradientTransform="translate(50 25.7865) rotate(90) scale(73.89 56.0618)">
<stop stop-color="white"/>
<stop offset="1" stop-color="white" stop-opacity="0"/>
</radialGradient>
<linearGradient id="paint3_linear_366_9799" x1="122.917" y1="122.917" x2="-51.5238" y2="31.9277" gradientUnits="userSpaceOnUse">
<stop stop-color="#61B82B"/>
<stop offset="1" stop-color="#399500"/>
</linearGradient>
<linearGradient id="paint4_linear_366_9799" x1="50" y1="-6.39146" x2="50" y2="105.635" gradientUnits="userSpaceOnUse">
<stop stop-color="white"/>
<stop offset="1" stop-color="white" stop-opacity="0"/>
</linearGradient>
<radialGradient id="paint5_radial_366_9799" cx="0" cy="0" r="1" gradientUnits="userSpaceOnUse" gradientTransform="translate(50 25.7865) rotate(90) scale(73.89 56.0618)">
<stop stop-color="white"/>
<stop offset="1" stop-color="white" stop-opacity="0"/>
</radialGradient>
<linearGradient id="paint6_linear_366_9799" x1="-22.9167" y1="-22.9167" x2="-22.9167" y2="122.917" gradientUnits="userSpaceOnUse">
<stop offset="0.135095" stop-color="white"/>
<stop offset="0.877908" stop-color="white" stop-opacity="0.01"/>
</linearGradient>
<linearGradient id="paint7_linear_366_9799" x1="50" y1="0" x2="50" y2="100" gradientUnits="userSpaceOnUse">
<stop stop-color="white"/>
<stop offset="1" stop-color="#999999"/>
</linearGradient>
<linearGradient id="paint8_linear_366_9799" x1="50" y1="33.3333" x2="50" y2="66.3333" gradientUnits="userSpaceOnUse">
<stop stop-color="#DFDFDF"/>
<stop offset="1" stop-color="#A9A9A9"/>
</linearGradient>
</defs>
</svg>
