<svg width="100" height="100" viewBox="0 0 100 100" fill="none" xmlns="http://www.w3.org/2000/svg">
<mask id="mask0_366_10343" style="mask-type:alpha" maskUnits="userSpaceOnUse" x="0" y="0" width="100" height="100">
<circle cx="50" cy="50" r="50" fill="white"/>
</mask>
<g mask="url(#mask0_366_10343)">
<mask id="mask1_366_10343" style="mask-type:alpha" maskUnits="userSpaceOnUse" x="0" y="0" width="100" height="100">
<circle cx="50" cy="50" r="50" fill="white"/>
</mask>
<g mask="url(#mask1_366_10343)">
<rect x="-22.9167" y="-22.9167" width="145.833" height="145.833" fill="url(#paint0_linear_366_10343)"/>
<rect x="-22.9167" y="-22.9167" width="145.833" height="145.833" fill="url(#paint1_linear_366_10343)" fill-opacity="0.6" style="mix-blend-mode:overlay"/>
<rect x="-22.9167" y="-22.9167" width="145.833" height="145.833" fill="url(#paint2_radial_366_10343)" fill-opacity="0.6" style="mix-blend-mode:overlay"/>
<rect x="-22.9167" y="-22.9167" width="145.833" height="145.833" fill="black" fill-opacity="0.16" style="mix-blend-mode:overlay"/>
<rect x="-22.9167" y="-22.9167" width="145.833" height="145.833" fill="black" fill-opacity="0.12" style="mix-blend-mode:darken"/>
</g>
<g filter="url(#filter0_d_366_10343)">
<mask id="mask2_366_10343" style="mask-type:alpha" maskUnits="userSpaceOnUse" x="0" y="0" width="100" height="100">
<path fill-rule="evenodd" clip-rule="evenodd" d="M95.8333 50C95.8333 75.313 75.313 95.8333 50 95.8333C24.6869 95.8333 4.16667 75.313 4.16667 50C4.16667 24.6869 24.6869 4.16667 50 4.16667C75.313 4.16667 95.8333 24.6869 95.8333 50ZM100 50C100 77.6142 77.6142 100 50 100C22.3858 100 0 77.6142 0 50C0 22.3858 22.3858 0 50 0C77.6142 0 100 22.3858 100 50ZM50 88.0208C70.9983 88.0208 88.0208 70.9983 88.0208 50C88.0208 29.0017 70.9983 11.9792 50 11.9792C29.0017 11.9792 11.9792 29.0017 11.9792 50C11.9792 70.9983 29.0017 88.0208 50 88.0208Z" fill="white"/>
</mask>
<g mask="url(#mask2_366_10343)">
<rect x="-22.9167" y="-22.9167" width="145.833" height="145.833" fill="url(#paint3_linear_366_10343)"/>
<rect x="-22.9167" y="-22.9167" width="145.833" height="145.833" fill="url(#paint4_linear_366_10343)" fill-opacity="0.6" style="mix-blend-mode:overlay"/>
<rect x="-22.9167" y="-22.9167" width="145.833" height="145.833" fill="url(#paint5_radial_366_10343)" fill-opacity="0.6" style="mix-blend-mode:overlay"/>
<g style="mix-blend-mode:soft-light">
<path fill-rule="evenodd" clip-rule="evenodd" d="M-22.9167 -22.9167H64.5833L36.6578 122.917H-22.9167V-22.9167Z" fill="url(#paint6_linear_366_10343)" style="mix-blend-mode:lighten"/>
</g>
<g style="mix-blend-mode:soft-light">
<mask id="path-10-inside-1_366_10343" fill="white">
<path fill-rule="evenodd" clip-rule="evenodd" d="M95.8333 50C95.8333 75.313 75.313 95.8333 50 95.8333C24.6869 95.8333 4.16667 75.313 4.16667 50C4.16667 24.6869 24.6869 4.16667 50 4.16667C75.313 4.16667 95.8333 24.6869 95.8333 50ZM100 50C100 77.6142 77.6142 100 50 100C22.3858 100 0 77.6142 0 50C0 22.3858 22.3858 0 50 0C77.6142 0 100 22.3858 100 50ZM50 88.0208C70.9983 88.0208 88.0208 70.9983 88.0208 50C88.0208 29.0017 70.9983 11.9792 50 11.9792C29.0017 11.9792 11.9792 29.0017 11.9792 50C11.9792 70.9983 29.0017 88.0208 50 88.0208Z"/>
</mask>
<path d="M50 96.0938C75.4569 96.0938 96.0938 75.4569 96.0938 50H95.5729C95.5729 75.1692 75.1692 95.5729 50 95.5729V96.0938ZM3.90625 50C3.90625 75.4569 24.5431 96.0938 50 96.0938V95.5729C24.8308 95.5729 4.42708 75.1692 4.42708 50H3.90625ZM50 3.90625C24.5431 3.90625 3.90625 24.5431 3.90625 50H4.42708C4.42708 24.8308 24.8308 4.42708 50 4.42708V3.90625ZM96.0938 50C96.0938 24.5431 75.4569 3.90625 50 3.90625V4.42708C75.1692 4.42708 95.5729 24.8308 95.5729 50H96.0938ZM50 100.26C77.7581 100.26 100.26 77.7581 100.26 50H99.7396C99.7396 77.4704 77.4704 99.7396 50 99.7396V100.26ZM-0.260417 50C-0.260417 77.7581 22.2419 100.26 50 100.26V99.7396C22.5296 99.7396 0.260417 77.4704 0.260417 50H-0.260417ZM50 -0.260417C22.2419 -0.260417 -0.260417 22.2419 -0.260417 50H0.260417C0.260417 22.5296 22.5296 0.260417 50 0.260417V-0.260417ZM100.26 50C100.26 22.2419 77.7581 -0.260417 50 -0.260417V0.260417C77.4704 0.260417 99.7396 22.5296 99.7396 50H100.26ZM87.7604 50C87.7604 70.8545 70.8545 87.7604 50 87.7604V88.2812C71.1421 88.2812 88.2812 71.1421 88.2812 50H87.7604ZM50 12.2396C70.8545 12.2396 87.7604 29.1455 87.7604 50H88.2812C88.2812 28.8578 71.1421 11.7188 50 11.7188V12.2396ZM12.2396 50C12.2396 29.1455 29.1455 12.2396 50 12.2396V11.7188C28.8578 11.7188 11.7188 28.8578 11.7188 50H12.2396ZM50 87.7604C29.1455 87.7604 12.2396 70.8545 12.2396 50H11.7188C11.7188 71.1421 28.8578 88.2812 50 88.2812V87.7604Z" fill="url(#paint7_linear_366_10343)" mask="url(#path-10-inside-1_366_10343)"/>
</g>
</g>
</g>
<g filter="url(#filter1_dd_366_10343)">
<rect y="71.3542" width="100" height="18.75" fill="#FFA00F"/>
<rect x="0.130208" y="71.4844" width="99.7396" height="18.4896" stroke="url(#paint8_linear_366_10343)" stroke-width="0.260417" stroke-linecap="round" style="mix-blend-mode:darken"/>
</g>
<rect y="71.3542" width="100" height="18.75" fill="url(#paint9_linear_366_10343)" fill-opacity="0.3" style="mix-blend-mode:overlay"/>
<rect y="71.3542" width="100" height="18.75" fill="url(#paint10_radial_366_10343)" fill-opacity="0.6" style="mix-blend-mode:overlay"/>
<g filter="url(#filter2_d_366_10343)">
<path fill-rule="evenodd" clip-rule="evenodd" d="M37.4998 83.8542L36.8152 84.2141C35.8549 84.719 35.3747 84.9714 35.0196 84.9056C34.7107 84.8483 34.4442 84.6546 34.2942 84.3785C34.1219 84.0612 34.2136 83.5265 34.397 82.4571L34.5277 81.6949L33.9739 81.1551C33.197 80.3977 32.8085 80.019 32.7614 79.661C32.7204 79.3495 32.8222 79.0362 33.0385 78.8082C33.287 78.5463 33.8239 78.4682 34.8976 78.3122L35.663 78.201L36.0052 77.5075C36.4854 76.5345 36.7255 76.0481 37.0514 75.8926C37.335 75.7574 37.6645 75.7574 37.9481 75.8926C38.2741 76.0481 38.5142 76.5345 38.9943 77.5075L39.3366 78.201L40.1019 78.3122C41.1757 78.4682 41.7125 78.5463 41.9611 78.8082C42.1773 79.0362 42.2791 79.3495 42.2382 79.661C42.1911 80.019 41.8026 80.3977 41.0256 81.1551L40.4718 81.6949L40.6026 82.4571C40.786 83.5265 40.8777 84.0612 40.7053 84.3785C40.5554 84.6546 40.2888 84.8483 39.9799 84.9056C39.6249 84.9714 39.1447 84.719 38.1843 84.2141L37.4998 83.8542Z" fill="white"/>
<path d="M36.8758 84.3293L37.4998 84.0013L38.1237 84.3293L38.1302 84.3327C38.6049 84.5823 38.9693 84.7739 39.2592 84.8941C39.5485 85.0141 39.7872 85.0737 40.0037 85.0336C40.3512 84.9691 40.6511 84.7513 40.8198 84.4407C40.9249 84.2472 40.9419 84.0018 40.9172 83.6896C40.8924 83.3766 40.8228 82.9709 40.7321 82.4423L40.7309 82.4351L40.6117 81.7403L41.1165 81.2483L41.1218 81.2432C41.5058 80.8688 41.8006 80.5815 42.0046 80.3429C42.2081 80.1048 42.3385 79.8963 42.3672 79.678L42.2382 79.661L42.3672 79.678C42.4133 79.3276 42.2988 78.975 42.0555 78.7186C41.904 78.5589 41.6759 78.4668 41.3713 78.3939C41.066 78.3207 40.6587 78.2615 40.1279 78.1844L40.1207 78.1834L39.4231 78.082L39.1111 77.4499L39.1079 77.4433C38.8705 76.9624 38.6883 76.5932 38.5244 76.3255C38.3609 76.0584 38.2029 75.8699 38.0042 75.7751C37.6851 75.623 37.3144 75.623 36.9954 75.7751C36.7966 75.8699 36.6386 76.0584 36.4751 76.3255C36.3112 76.5932 36.129 76.9624 35.8917 77.4434L35.8885 77.4499L35.5765 78.082L34.8789 78.1834L34.8717 78.1844C34.3409 78.2615 33.9335 78.3207 33.6283 78.3939C33.3237 78.4668 33.0956 78.5589 32.944 78.7186C32.7008 78.975 32.5862 79.3276 32.6323 79.678C32.661 79.8963 32.7915 80.1048 32.995 80.3429C33.199 80.5815 33.4938 80.8688 33.8778 81.2432L33.883 81.2483L34.3878 81.7403L34.2687 82.4351L34.2674 82.4423C34.1768 82.9709 34.1072 83.3766 34.0824 83.6896C34.0577 84.0018 34.0747 84.2472 34.1798 84.4407C34.3485 84.7513 34.6484 84.9691 34.9959 85.0336C35.2124 85.0737 35.451 85.0141 35.7403 84.8941C36.0303 84.7739 36.3946 84.5823 36.8694 84.3327L36.8758 84.3293Z" stroke="url(#paint11_linear_366_10343)" stroke-width="0.260417" stroke-linecap="round" style="mix-blend-mode:color-burn"/>
</g>
<g filter="url(#filter3_d_366_10343)">
<path fill-rule="evenodd" clip-rule="evenodd" d="M49.9998 83.8542L49.3152 84.2141C48.3549 84.719 47.8747 84.9714 47.5196 84.9056C47.2107 84.8483 46.9442 84.6546 46.7942 84.3785C46.6219 84.0612 46.7136 83.5265 46.897 82.4571L47.0277 81.6949L46.4739 81.1551C45.697 80.3977 45.3085 80.019 45.2614 79.661C45.2204 79.3495 45.3222 79.0362 45.5385 78.8082C45.787 78.5463 46.3239 78.4682 47.3976 78.3122L48.163 78.201L48.5052 77.5075C48.9854 76.5345 49.2255 76.0481 49.5514 75.8926C49.835 75.7574 50.1645 75.7574 50.4481 75.8926C50.7741 76.0481 51.0142 76.5345 51.4943 77.5075L51.8366 78.201L52.6019 78.3122C53.6757 78.4682 54.2125 78.5463 54.4611 78.8082C54.6773 79.0362 54.7791 79.3495 54.7382 79.661C54.6911 80.019 54.3026 80.3977 53.5256 81.1551L52.9718 81.6949L53.1026 82.4571C53.286 83.5265 53.3777 84.0612 53.2053 84.3785C53.0554 84.6546 52.7888 84.8483 52.4799 84.9056C52.1249 84.9714 51.6447 84.719 50.6843 84.2141L49.9998 83.8542Z" fill="black" fill-opacity="0.24" style="mix-blend-mode:color-burn"/>
<path fill-rule="evenodd" clip-rule="evenodd" d="M49.9998 83.8542L49.3152 84.2141C48.3549 84.719 47.8747 84.9714 47.5196 84.9056C47.2107 84.8483 46.9442 84.6546 46.7942 84.3785C46.6219 84.0612 46.7136 83.5265 46.897 82.4571L47.0277 81.6949L46.4739 81.1551C45.697 80.3977 45.3085 80.019 45.2614 79.661C45.2204 79.3495 45.3222 79.0362 45.5385 78.8082C45.787 78.5463 46.3239 78.4682 47.3976 78.3122L48.163 78.201L48.5052 77.5075C48.9854 76.5345 49.2255 76.0481 49.5514 75.8926C49.835 75.7574 50.1645 75.7574 50.4481 75.8926C50.7741 76.0481 51.0142 76.5345 51.4943 77.5075L51.8366 78.201L52.6019 78.3122C53.6757 78.4682 54.2125 78.5463 54.4611 78.8082C54.6773 79.0362 54.7791 79.3495 54.7382 79.661C54.6911 80.019 54.3026 80.3977 53.5256 81.1551L52.9718 81.6949L53.1026 82.4571C53.286 83.5265 53.3777 84.0612 53.2053 84.3785C53.0554 84.6546 52.7888 84.8483 52.4799 84.9056C52.1249 84.9714 51.6447 84.719 50.6843 84.2141L49.9998 83.8542Z" fill="black" fill-opacity="0.32" style="mix-blend-mode:darken"/>
<path d="M49.3758 84.3293L49.9998 84.0013L50.6237 84.3293L50.6302 84.3327C51.1049 84.5823 51.4693 84.7739 51.7592 84.8941C52.0485 85.0141 52.2872 85.0737 52.5037 85.0336C52.8512 84.9691 53.1511 84.7513 53.3198 84.4407C53.4249 84.2472 53.4419 84.0018 53.4172 83.6896C53.3924 83.3766 53.3228 82.9709 53.2321 82.4423L53.2309 82.4351L53.1117 81.7403L53.6165 81.2483L53.6218 81.2432C54.0058 80.8688 54.3006 80.5815 54.5046 80.3429C54.7081 80.1048 54.8385 79.8963 54.8672 79.678L54.7382 79.661L54.8672 79.678C54.9133 79.3276 54.7988 78.975 54.5555 78.7186C54.404 78.5589 54.1759 78.4668 53.8713 78.3939C53.566 78.3207 53.1587 78.2615 52.6279 78.1844L52.6207 78.1834L51.9231 78.082L51.6111 77.4499L51.6079 77.4433C51.3705 76.9624 51.1883 76.5932 51.0244 76.3255C50.8609 76.0584 50.7029 75.8699 50.5042 75.7751C50.1851 75.623 49.8144 75.623 49.4954 75.7751C49.2966 75.8699 49.1386 76.0584 48.9751 76.3255C48.8112 76.5932 48.629 76.9624 48.3917 77.4434L48.3885 77.4499L48.0765 78.082L47.3789 78.1834L47.3717 78.1844C46.8409 78.2615 46.4335 78.3207 46.1283 78.3939C45.8237 78.4668 45.5956 78.5589 45.444 78.7186C45.2008 78.975 45.0862 79.3276 45.1323 79.678C45.161 79.8963 45.2915 80.1048 45.495 80.3429C45.699 80.5815 45.9938 80.8688 46.3778 81.2432L46.383 81.2483L46.8878 81.7403L46.7687 82.4351L46.7674 82.4423C46.6768 82.9709 46.6072 83.3766 46.5824 83.6896C46.5577 84.0018 46.5747 84.2472 46.6798 84.4407C46.8485 84.7513 47.1484 84.9691 47.4959 85.0336C47.7124 85.0737 47.951 85.0141 48.2403 84.8941C48.5303 84.7739 48.8946 84.5823 49.3694 84.3327L49.3758 84.3293Z" stroke="url(#paint12_linear_366_10343)" stroke-width="0.260417" stroke-linecap="round" style="mix-blend-mode:color-burn"/>
</g>
<g filter="url(#filter4_d_366_10343)">
<path fill-rule="evenodd" clip-rule="evenodd" d="M62.4998 83.8542L61.8152 84.2141C60.8549 84.719 60.3747 84.9714 60.0196 84.9056C59.7107 84.8483 59.4442 84.6546 59.2942 84.3785C59.1219 84.0612 59.2136 83.5265 59.397 82.4571L59.5277 81.6949L58.9739 81.1551C58.197 80.3977 57.8085 80.019 57.7614 79.661C57.7204 79.3495 57.8222 79.0362 58.0385 78.8082C58.287 78.5463 58.8239 78.4682 59.8976 78.3122L60.663 78.201L61.0052 77.5075C61.4854 76.5345 61.7255 76.0481 62.0514 75.8926C62.335 75.7574 62.6645 75.7574 62.9481 75.8926C63.2741 76.0481 63.5142 76.5345 63.9943 77.5075L64.3366 78.201L65.1019 78.3122C66.1757 78.4682 66.7125 78.5463 66.9611 78.8082C67.1773 79.0362 67.2791 79.3495 67.2382 79.661C67.1911 80.019 66.8026 80.3977 66.0256 81.1551L65.4718 81.6949L65.6026 82.4571C65.786 83.5265 65.8777 84.0612 65.7053 84.3785C65.5554 84.6546 65.2888 84.8483 64.9799 84.9056C64.6249 84.9714 64.1447 84.719 63.1843 84.2141L62.4998 83.8542Z" fill="black" fill-opacity="0.24" style="mix-blend-mode:color-burn"/>
<path fill-rule="evenodd" clip-rule="evenodd" d="M62.4998 83.8542L61.8152 84.2141C60.8549 84.719 60.3747 84.9714 60.0196 84.9056C59.7107 84.8483 59.4442 84.6546 59.2942 84.3785C59.1219 84.0612 59.2136 83.5265 59.397 82.4571L59.5277 81.6949L58.9739 81.1551C58.197 80.3977 57.8085 80.019 57.7614 79.661C57.7204 79.3495 57.8222 79.0362 58.0385 78.8082C58.287 78.5463 58.8239 78.4682 59.8976 78.3122L60.663 78.201L61.0052 77.5075C61.4854 76.5345 61.7255 76.0481 62.0514 75.8926C62.335 75.7574 62.6645 75.7574 62.9481 75.8926C63.2741 76.0481 63.5142 76.5345 63.9943 77.5075L64.3366 78.201L65.1019 78.3122C66.1757 78.4682 66.7125 78.5463 66.9611 78.8082C67.1773 79.0362 67.2791 79.3495 67.2382 79.661C67.1911 80.019 66.8026 80.3977 66.0256 81.1551L65.4718 81.6949L65.6026 82.4571C65.786 83.5265 65.8777 84.0612 65.7053 84.3785C65.5554 84.6546 65.2888 84.8483 64.9799 84.9056C64.6249 84.9714 64.1447 84.719 63.1843 84.2141L62.4998 83.8542Z" fill="black" fill-opacity="0.32" style="mix-blend-mode:darken"/>
<path d="M61.8758 84.3293L62.4998 84.0013L63.1237 84.3293L63.1302 84.3327C63.6049 84.5823 63.9693 84.7739 64.2592 84.8941C64.5485 85.0141 64.7872 85.0737 65.0037 85.0336C65.3512 84.9691 65.6511 84.7513 65.8198 84.4407C65.9249 84.2472 65.9419 84.0018 65.9172 83.6896C65.8924 83.3766 65.8228 82.9709 65.7321 82.4423L65.7309 82.4351L65.6117 81.7403L66.1165 81.2483L66.1218 81.2432C66.5058 80.8688 66.8006 80.5815 67.0046 80.3429C67.2081 80.1048 67.3385 79.8963 67.3672 79.678L67.2382 79.661L67.3672 79.678C67.4133 79.3276 67.2988 78.975 67.0555 78.7186C66.904 78.5589 66.6759 78.4668 66.3713 78.3939C66.066 78.3207 65.6587 78.2615 65.1279 78.1844L65.1207 78.1834L64.4231 78.082L64.1111 77.4499L64.1079 77.4433C63.8705 76.9624 63.6883 76.5932 63.5244 76.3255C63.3609 76.0584 63.2029 75.8699 63.0042 75.7751C62.6851 75.623 62.3144 75.623 61.9954 75.7751C61.7966 75.8699 61.6386 76.0584 61.4751 76.3255C61.3112 76.5932 61.129 76.9624 60.8917 77.4434L60.8885 77.4499L60.5765 78.082L59.8789 78.1834L59.8717 78.1844C59.3409 78.2615 58.9335 78.3207 58.6283 78.3939C58.3237 78.4668 58.0956 78.5589 57.944 78.7186C57.7008 78.975 57.5862 79.3276 57.6323 79.678C57.661 79.8963 57.7915 80.1048 57.995 80.3429C58.199 80.5815 58.4938 80.8688 58.8778 81.2432L58.883 81.2483L59.3878 81.7403L59.2687 82.4351L59.2674 82.4423C59.1768 82.9709 59.1072 83.3766 59.0824 83.6896C59.0577 84.0018 59.0747 84.2472 59.1798 84.4407C59.3485 84.7513 59.6484 84.9691 59.9959 85.0336C60.2124 85.0737 60.451 85.0141 60.7403 84.8941C61.0303 84.7739 61.3946 84.5823 61.8694 84.3327L61.8758 84.3293Z" stroke="url(#paint13_linear_366_10343)" stroke-width="0.260417" stroke-linecap="round" style="mix-blend-mode:color-burn"/>
</g>
</g>
<g filter="url(#filter5_d_366_10343)">
<mask id="path-21-outside-2_366_10343" maskUnits="userSpaceOnUse" x="30.3333" y="36.3333" width="40" height="27" fill="black">
<rect fill="white" x="30.3333" y="36.3333" width="40" height="27"/>
<path d="M32.8271 62.2C32.1604 62.2 31.8271 61.8667 31.8271 61.2L31.4604 39.6C31.4382 38.8222 31.6493 38.2445 32.0937 37.8667C32.5382 37.4667 33.1048 37.2667 33.7937 37.2667L46.0937 37.2C46.4493 37.2 46.7271 37.3111 46.9271 37.5333C47.1493 37.7333 47.2604 38.0111 47.2604 38.3667V41.1C47.2604 41.4556 47.1493 41.7445 46.9271 41.9667C46.7271 42.1667 46.4493 42.2667 46.0937 42.2667L37.4937 42.4333L37.4271 47.2333L45.4271 47.3C45.7826 47.3 46.0604 47.4111 46.2604 47.6333C46.4826 47.8333 46.5937 48.1111 46.5937 48.4667V51C46.5937 51.3556 46.4826 51.6445 46.2604 51.8667C46.0604 52.0667 45.7826 52.1667 45.4271 52.1667L37.3604 52.3L37.2271 61.2C37.2271 61.8667 36.8937 62.2 36.2271 62.2H32.8271ZM61.7127 62.2C61.0461 62.2 60.7127 61.8667 60.7127 61.2L60.6127 56.7667C59.0127 56.8333 57.435 56.8778 55.8794 56.9C54.3239 56.9 52.8127 56.8778 51.3461 56.8333C50.5683 56.8111 50.0239 56.5333 49.7127 56C49.4239 55.4667 49.3461 54.8111 49.4794 54.0333C49.8572 51.7 50.135 49.3333 50.3127 46.9333C50.4905 44.5333 50.5572 42.0222 50.5127 39.4C50.5127 38.8889 50.635 38.5111 50.8794 38.2667C51.1461 38.0222 51.4683 37.9 51.8461 37.9H55.2127C55.6572 37.9 55.9905 38.0445 56.2127 38.3333C56.435 38.6 56.535 38.9556 56.5127 39.4C56.4683 41.7111 56.3683 43.9333 56.2127 46.0667C56.0794 48.1778 55.8905 50.0667 55.6461 51.7333C56.5127 51.7778 57.3461 51.8 58.1461 51.8H60.5461L60.3127 38.2333C60.3127 37.5667 60.635 37.2333 61.2794 37.2333H65.3461C66.0127 37.2333 66.335 37.5667 66.3127 38.2333L66.1127 51.6C66.5127 51.5778 66.9127 51.5667 67.3127 51.5667C67.7127 51.5445 68.135 51.5111 68.5794 51.4667C68.935 51.4445 69.1905 51.4889 69.3461 51.6C69.5239 51.6889 69.635 51.8889 69.6794 52.2L70.0461 55C70.135 55.6667 69.8794 56.0333 69.2794 56.1C68.7683 56.1667 68.235 56.2333 67.6794 56.3C67.1461 56.3445 66.6016 56.3889 66.0461 56.4333L65.9794 61.2C65.9794 61.8667 65.6461 62.2 64.9794 62.2H61.7127Z"/>
</mask>
<path d="M32.8271 62.2C32.1604 62.2 31.8271 61.8667 31.8271 61.2L31.4604 39.6C31.4382 38.8222 31.6493 38.2445 32.0937 37.8667C32.5382 37.4667 33.1048 37.2667 33.7937 37.2667L46.0937 37.2C46.4493 37.2 46.7271 37.3111 46.9271 37.5333C47.1493 37.7333 47.2604 38.0111 47.2604 38.3667V41.1C47.2604 41.4556 47.1493 41.7445 46.9271 41.9667C46.7271 42.1667 46.4493 42.2667 46.0937 42.2667L37.4937 42.4333L37.4271 47.2333L45.4271 47.3C45.7826 47.3 46.0604 47.4111 46.2604 47.6333C46.4826 47.8333 46.5937 48.1111 46.5937 48.4667V51C46.5937 51.3556 46.4826 51.6445 46.2604 51.8667C46.0604 52.0667 45.7826 52.1667 45.4271 52.1667L37.3604 52.3L37.2271 61.2C37.2271 61.8667 36.8937 62.2 36.2271 62.2H32.8271ZM61.7127 62.2C61.0461 62.2 60.7127 61.8667 60.7127 61.2L60.6127 56.7667C59.0127 56.8333 57.435 56.8778 55.8794 56.9C54.3239 56.9 52.8127 56.8778 51.3461 56.8333C50.5683 56.8111 50.0239 56.5333 49.7127 56C49.4239 55.4667 49.3461 54.8111 49.4794 54.0333C49.8572 51.7 50.135 49.3333 50.3127 46.9333C50.4905 44.5333 50.5572 42.0222 50.5127 39.4C50.5127 38.8889 50.635 38.5111 50.8794 38.2667C51.1461 38.0222 51.4683 37.9 51.8461 37.9H55.2127C55.6572 37.9 55.9905 38.0445 56.2127 38.3333C56.435 38.6 56.535 38.9556 56.5127 39.4C56.4683 41.7111 56.3683 43.9333 56.2127 46.0667C56.0794 48.1778 55.8905 50.0667 55.6461 51.7333C56.5127 51.7778 57.3461 51.8 58.1461 51.8H60.5461L60.3127 38.2333C60.3127 37.5667 60.635 37.2333 61.2794 37.2333H65.3461C66.0127 37.2333 66.335 37.5667 66.3127 38.2333L66.1127 51.6C66.5127 51.5778 66.9127 51.5667 67.3127 51.5667C67.7127 51.5445 68.135 51.5111 68.5794 51.4667C68.935 51.4445 69.1905 51.4889 69.3461 51.6C69.5239 51.6889 69.635 51.8889 69.6794 52.2L70.0461 55C70.135 55.6667 69.8794 56.0333 69.2794 56.1C68.7683 56.1667 68.235 56.2333 67.6794 56.3C67.1461 56.3445 66.6016 56.3889 66.0461 56.4333L65.9794 61.2C65.9794 61.8667 65.6461 62.2 64.9794 62.2H61.7127Z" fill="white"/>
<path d="M31.8271 61.2H32.0875L32.0874 61.1956L31.8271 61.2ZM31.4604 39.6L31.7208 39.5956L31.7207 39.5926L31.4604 39.6ZM32.0937 37.8667L32.2625 38.0652L32.2679 38.0602L32.0937 37.8667ZM33.7937 37.2667V37.5271L33.7951 37.5271L33.7937 37.2667ZM46.0937 37.2V36.9396L46.0923 36.9396L46.0937 37.2ZM46.9271 37.5333L46.7335 37.7076L46.7427 37.7177L46.7529 37.7269L46.9271 37.5333ZM46.9271 41.9667L47.1112 42.1508L47.1112 42.1508L46.9271 41.9667ZM46.0937 42.2667V42.0062L46.0887 42.0063L46.0937 42.2667ZM37.4937 42.4333L37.4887 42.173L37.2368 42.1779L37.2333 42.4297L37.4937 42.4333ZM37.4271 47.2333L37.1667 47.2297L37.163 47.4916L37.4249 47.4938L37.4271 47.2333ZM45.4271 47.3L45.4249 47.5604H45.4271V47.3ZM46.2604 47.6333L46.0668 47.8076L46.076 47.8177L46.0862 47.8269L46.2604 47.6333ZM46.2604 51.8667L46.0763 51.6825V51.6825L46.2604 51.8667ZM45.4271 52.1667V51.9062L45.4228 51.9063L45.4271 52.1667ZM37.3604 52.3L37.3561 52.0396L37.1038 52.0438L37.1 52.2961L37.3604 52.3ZM37.2271 61.2L36.9666 61.1961V61.2H37.2271ZM32.8271 61.9396C32.5339 61.9396 32.3618 61.8665 32.2612 61.7659C32.1606 61.6653 32.0875 61.4932 32.0875 61.2H31.5666C31.5666 61.5735 31.6602 61.9014 31.8929 62.1342C32.1257 62.3669 32.4536 62.4604 32.8271 62.4604V61.9396ZM32.0874 61.1956L31.7208 39.5956L31.2 39.6044L31.5667 61.2044L32.0874 61.1956ZM31.7207 39.5926C31.6999 38.8655 31.8968 38.3758 32.2624 38.0651L31.9251 37.6683C31.4018 38.1131 31.1764 38.779 31.2001 39.6074L31.7207 39.5926ZM32.2679 38.0602C32.6573 37.7098 33.1587 37.5271 33.7937 37.5271V37.0063C33.0509 37.0063 32.419 37.2236 31.9195 37.6731L32.2679 38.0602ZM33.7951 37.5271L46.0951 37.4604L46.0923 36.9396L33.7923 37.0063L33.7951 37.5271ZM46.0937 37.4604C46.3907 37.4604 46.5922 37.5506 46.7335 37.7076L47.1206 37.3591C46.8619 37.0716 46.5079 36.9396 46.0937 36.9396V37.4604ZM46.7529 37.7269C46.9098 37.8682 47 38.0697 47 38.3667H47.5208C47.5208 37.9526 47.3888 37.5985 47.1013 37.3398L46.7529 37.7269ZM47 38.3667V41.1H47.5208V38.3667H47ZM47 41.1C47 41.3964 46.9097 41.6157 46.7429 41.7825L47.1112 42.1508C47.3888 41.8732 47.5208 41.5147 47.5208 41.1H47ZM46.7429 41.7825C46.6036 41.9219 46.3989 42.0063 46.0937 42.0063V42.5271C46.4996 42.5271 46.8506 42.4115 47.1112 42.1508L46.7429 41.7825ZM46.0887 42.0063L37.4887 42.173L37.4988 42.6937L46.0988 42.527L46.0887 42.0063ZM37.2333 42.4297L37.1667 47.2297L37.6875 47.237L37.7541 42.437L37.2333 42.4297ZM37.4249 47.4938L45.4249 47.5604L45.4292 47.0396L37.4292 46.9729L37.4249 47.4938ZM45.4271 47.5604C45.7241 47.5604 45.9256 47.6506 46.0668 47.8076L46.454 47.4591C46.1952 47.1716 45.8412 47.0396 45.4271 47.0396V47.5604ZM46.0862 47.8269C46.2431 47.9682 46.3333 48.1697 46.3333 48.4667H46.8541C46.8541 48.0526 46.7221 47.6985 46.4346 47.4398L46.0862 47.8269ZM46.3333 48.4667V51H46.8541V48.4667H46.3333ZM46.3333 51C46.3333 51.2964 46.2431 51.5157 46.0763 51.6825L46.4445 52.0508C46.7222 51.7732 46.8541 51.4147 46.8541 51H46.3333ZM46.0763 51.6825C45.9369 51.8219 45.7323 51.9063 45.4271 51.9063V52.4271C45.833 52.4271 46.1839 52.3115 46.4445 52.0508L46.0763 51.6825ZM45.4228 51.9063L37.3561 52.0396L37.3647 52.5604L45.4314 52.4271L45.4228 51.9063ZM37.1 52.2961L36.9667 61.1961L37.4875 61.2039L37.6208 52.3039L37.1 52.2961ZM36.9666 61.2C36.9666 61.4932 36.8935 61.6653 36.7929 61.7659C36.6923 61.8665 36.5203 61.9396 36.2271 61.9396V62.4604C36.6005 62.4604 36.9285 62.3669 37.1612 62.1342C37.3939 61.9014 37.4875 61.5735 37.4875 61.2H36.9666ZM36.2271 61.9396H32.8271V62.4604H36.2271V61.9396ZM60.7127 61.2H60.9732L60.9731 61.1941L60.7127 61.2ZM60.6127 56.7667L60.8731 56.7608L60.8671 56.4954L60.6019 56.5065L60.6127 56.7667ZM55.8794 56.9V57.1605L55.8831 57.1604L55.8794 56.9ZM51.3461 56.8333L51.354 56.573L51.3535 56.573L51.3461 56.8333ZM49.7127 56L49.4836 56.1241L49.4878 56.1312L49.7127 56ZM49.4794 54.0333L49.7361 54.0773L49.7365 54.075L49.4794 54.0333ZM50.3127 46.9333L50.053 46.9141L50.3127 46.9333ZM50.5127 39.4H50.2523L50.2524 39.4044L50.5127 39.4ZM50.8794 38.2667L50.7033 38.0745L50.6953 38.0825L50.8794 38.2667ZM56.2127 38.3333L56.0062 38.4922L56.0127 38.5001L56.2127 38.3333ZM56.5127 39.4L56.2525 39.387L56.2524 39.395L56.5127 39.4ZM56.2127 46.0667L55.953 46.0477L55.9528 46.0503L56.2127 46.0667ZM55.6461 51.7333L55.3884 51.6956L55.3469 51.9788L55.6327 51.9934L55.6461 51.7333ZM60.5461 51.8V52.0604H60.811L60.8064 51.7955L60.5461 51.8ZM60.3127 38.2333H60.0523L60.0524 38.2378L60.3127 38.2333ZM66.3127 38.2333L66.0524 38.2247L66.0524 38.2294L66.3127 38.2333ZM66.1127 51.6L65.8524 51.5961L65.8482 51.8755L66.1272 51.86L66.1127 51.6ZM67.3127 51.5667V51.8271H67.32L67.3272 51.8267L67.3127 51.5667ZM68.5794 51.4667L68.5632 51.2066L68.5535 51.2076L68.5794 51.4667ZM69.3461 51.6L69.1947 51.8119L69.2113 51.8238L69.2296 51.8329L69.3461 51.6ZM69.6794 52.2L69.9376 52.1662L69.9372 52.1632L69.6794 52.2ZM70.0461 55L69.7879 55.0338L69.7879 55.0344L70.0461 55ZM69.2794 56.1L69.2506 55.8411L69.2457 55.8418L69.2794 56.1ZM67.6794 56.3L67.701 56.5597L67.7104 56.5586L67.6794 56.3ZM66.0461 56.4333L66.0253 56.1738L65.789 56.1927L65.7857 56.4297L66.0461 56.4333ZM65.9794 61.2L65.719 61.1964V61.2H65.9794ZM61.7127 61.9396C61.4195 61.9396 61.2475 61.8665 61.1469 61.7659C61.0463 61.6653 60.9732 61.4932 60.9732 61.2H60.4523C60.4523 61.5735 60.5459 61.9014 60.7786 62.1342C61.0113 62.3669 61.3393 62.4604 61.7127 62.4604V61.9396ZM60.9731 61.1941L60.8731 56.7608L60.3524 56.7725L60.4524 61.2059L60.9731 61.1941ZM60.6019 56.5065C59.0042 56.5731 57.4288 56.6174 55.8757 56.6396L55.8831 57.1604C57.4411 57.1381 59.0213 57.0936 60.6236 57.0269L60.6019 56.5065ZM55.8794 56.6396C54.3263 56.6396 52.8178 56.6174 51.354 56.573L51.3382 57.0936C52.8076 57.1382 54.3214 57.1604 55.8794 57.1604V56.6396ZM51.3535 56.573C50.6389 56.5526 50.1914 56.3038 49.9377 55.8688L49.4878 56.1312C49.8563 56.7629 50.4977 57.0696 51.3386 57.0937L51.3535 56.573ZM49.9417 55.876C49.688 55.4076 49.6096 54.815 49.7361 54.0773L49.2227 53.9893C49.0825 54.8072 49.1597 55.5257 49.4838 56.124L49.9417 55.876ZM49.7365 54.075C50.1155 51.7341 50.3941 49.3599 50.5724 46.9526L50.053 46.9141C49.8758 49.3067 49.5989 51.6659 49.2223 53.9917L49.7365 54.075ZM50.5724 46.9526C50.7509 44.544 50.8177 42.025 50.7731 39.3956L50.2524 39.4044C50.2967 42.0194 50.2302 44.5226 50.053 46.9141L50.5724 46.9526ZM50.7732 39.4C50.7732 38.9251 50.8871 38.6273 51.0635 38.4508L50.6953 38.0825C50.3828 38.395 50.2523 38.8527 50.2523 39.4H50.7732ZM51.0554 38.4586C51.2717 38.2603 51.5303 38.1604 51.8461 38.1604V37.6396C51.4063 37.6396 51.0204 37.7841 50.7034 38.0747L51.0554 38.4586ZM51.8461 38.1604H55.2127V37.6396H51.8461V38.1604ZM55.2127 38.1604C55.5961 38.1604 55.8443 38.2815 56.0063 38.4921L56.4192 38.1746C56.1367 37.8074 55.7183 37.6396 55.2127 37.6396V38.1604ZM56.0127 38.5001C56.1822 38.7035 56.2726 38.9888 56.2526 39.387L56.7728 39.413C56.7974 38.9223 56.6877 38.4965 56.4128 38.1666L56.0127 38.5001ZM56.2524 39.395C56.208 41.7018 56.1082 43.9194 55.953 46.0477L56.4725 46.0856C56.6284 43.9473 56.7286 41.7204 56.7731 39.405L56.2524 39.395ZM55.9528 46.0503C55.8199 48.1559 55.6316 50.0375 55.3884 51.6956L55.9037 51.7711C56.1494 50.0959 56.339 48.1996 56.4726 46.0831L55.9528 46.0503ZM55.6327 51.9934C56.5035 52.0381 57.3413 52.0604 58.1461 52.0604V51.5396C57.3509 51.5396 56.522 51.5175 55.6594 51.4733L55.6327 51.9934ZM58.1461 52.0604H60.5461V51.5396H58.1461V52.0604ZM60.8064 51.7955L60.5731 38.2289L60.0524 38.2378L60.2857 51.8045L60.8064 51.7955ZM60.5732 38.2333C60.5732 37.938 60.6446 37.7647 60.7416 37.6643C60.8371 37.5656 60.9996 37.4938 61.2794 37.4938V36.9729C60.9148 36.9729 60.594 37.0677 60.3672 37.3023C60.142 37.5353 60.0523 37.862 60.0523 38.2333H60.5732ZM61.2794 37.4938H65.3461V36.9729H61.2794V37.4938ZM65.3461 37.4938C65.64 37.4938 65.8066 37.5672 65.9005 37.6643C65.9944 37.7615 66.0623 37.9306 66.0525 38.2247L66.573 38.242C66.5854 37.8694 66.5033 37.5385 66.275 37.3023C66.0467 37.0662 65.7188 36.9729 65.3461 36.9729V37.4938ZM66.0524 38.2294L65.8524 51.5961L66.3731 51.6039L66.5731 38.2372L66.0524 38.2294ZM66.1272 51.86C66.5224 51.8381 66.9176 51.8271 67.3127 51.8271V51.3063C66.9079 51.3063 66.5031 51.3175 66.0983 51.34L66.1272 51.86ZM67.3272 51.8267C67.7314 51.8042 68.1575 51.7706 68.6053 51.7258L68.5535 51.2076C68.1124 51.2517 67.6941 51.2847 67.2983 51.3067L67.3272 51.8267ZM68.5956 51.7266C68.9365 51.7053 69.115 51.755 69.1947 51.8119L69.4974 51.3881C69.266 51.2228 68.9334 51.1836 68.5632 51.2068L68.5956 51.7266ZM69.2296 51.8329C69.2945 51.8654 69.382 51.9598 69.4216 52.2368L69.9372 52.1632C69.8879 51.818 69.7532 51.5124 69.4625 51.3671L69.2296 51.8329ZM69.4212 52.2338L69.7879 55.0338L70.3043 54.9662L69.9376 52.1662L69.4212 52.2338ZM69.7879 55.0344C69.828 55.335 69.783 55.5176 69.7074 55.6261C69.6362 55.7283 69.5035 55.8131 69.2506 55.8412L69.3082 56.3588C69.6553 56.3203 69.9504 56.1884 70.1347 55.9239C70.3147 55.6657 70.353 55.3317 70.3042 54.9656L69.7879 55.0344ZM69.2457 55.8418C68.7356 55.9083 68.2031 55.9749 67.6484 56.0414L67.7104 56.5586C68.2668 56.4918 68.801 56.425 69.3131 56.3582L69.2457 55.8418ZM67.6578 56.0405C67.1247 56.0849 66.5806 56.1293 66.0253 56.1738L66.0668 56.6929C66.6227 56.6485 67.1674 56.604 67.701 56.5595L67.6578 56.0405ZM65.7857 56.4297L65.719 61.1964L66.2398 61.2037L66.3065 56.437L65.7857 56.4297ZM65.719 61.2C65.719 61.4932 65.6459 61.6653 65.5453 61.7659C65.4447 61.8665 65.2726 61.9396 64.9794 61.9396V62.4604C65.3529 62.4604 65.6808 62.3669 65.9135 62.1342C66.1463 61.9014 66.2398 61.5735 66.2398 61.2H65.719ZM64.9794 61.9396H61.7127V62.4604H64.9794V61.9396Z" fill="url(#paint14_linear_366_10343)" style="mix-blend-mode:color-burn" mask="url(#path-21-outside-2_366_10343)"/>
</g>
<defs>
<filter id="filter0_d_366_10343" x="-4.16667" y="-3.125" width="108.333" height="108.333" filterUnits="userSpaceOnUse" color-interpolation-filters="sRGB">
<feFlood flood-opacity="0" result="BackgroundImageFix"/>
<feColorMatrix in="SourceAlpha" type="matrix" values="0 0 0 0 0 0 0 0 0 0 0 0 0 0 0 0 0 0 127 0" result="hardAlpha"/>
<feOffset dy="1.04167"/>
<feGaussianBlur stdDeviation="2.08333"/>
<feColorMatrix type="matrix" values="0 0 0 0 0 0 0 0 0 0 0 0 0 0 0 0 0 0 0.16 0"/>
<feBlend mode="color-burn" in2="BackgroundImageFix" result="effect1_dropShadow_366_10343"/>
<feBlend mode="normal" in="SourceGraphic" in2="effect1_dropShadow_366_10343" result="shape"/>
</filter>
<filter id="filter1_dd_366_10343" x="-6.25" y="67.1875" width="112.5" height="31.25" filterUnits="userSpaceOnUse" color-interpolation-filters="sRGB">
<feFlood flood-opacity="0" result="BackgroundImageFix"/>
<feColorMatrix in="SourceAlpha" type="matrix" values="0 0 0 0 0 0 0 0 0 0 0 0 0 0 0 0 0 0 127 0" result="hardAlpha"/>
<feOffset dy="2.08333"/>
<feGaussianBlur stdDeviation="3.125"/>
<feColorMatrix type="matrix" values="0 0 0 0 0 0 0 0 0 0 0 0 0 0 0 0 0 0 0.16 0"/>
<feBlend mode="normal" in2="BackgroundImageFix" result="effect1_dropShadow_366_10343"/>
<feColorMatrix in="SourceAlpha" type="matrix" values="0 0 0 0 0 0 0 0 0 0 0 0 0 0 0 0 0 0 127 0" result="hardAlpha"/>
<feOffset dy="1.04167"/>
<feGaussianBlur stdDeviation="1.04167"/>
<feColorMatrix type="matrix" values="0 0 0 0 0 0 0 0 0 0 0 0 0 0 0 0 0 0 0.24 0"/>
<feBlend mode="normal" in2="effect1_dropShadow_366_10343" result="effect2_dropShadow_366_10343"/>
<feBlend mode="normal" in="SourceGraphic" in2="effect2_dropShadow_366_10343" result="shape"/>
</filter>
<filter id="filter2_d_366_10343" x="26.2421" y="70.3225" width="22.5154" height="22.1454" filterUnits="userSpaceOnUse" color-interpolation-filters="sRGB">
<feFlood flood-opacity="0" result="BackgroundImageFix"/>
<feColorMatrix in="SourceAlpha" type="matrix" values="0 0 0 0 0 0 0 0 0 0 0 0 0 0 0 0 0 0 127 0" result="hardAlpha"/>
<feOffset dy="1.04167"/>
<feGaussianBlur stdDeviation="3.125"/>
<feColorMatrix type="matrix" values="0 0 0 0 0 0 0 0 0 0 0 0 0 0 0 0 0 0 0.12 0"/>
<feBlend mode="plus-darker" in2="BackgroundImageFix" result="effect1_dropShadow_366_10343"/>
<feBlend mode="normal" in="SourceGraphic" in2="effect1_dropShadow_366_10343" result="shape"/>
</filter>
<filter id="filter3_d_366_10343" x="38.7421" y="70.3225" width="22.5154" height="22.1454" filterUnits="userSpaceOnUse" color-interpolation-filters="sRGB">
<feFlood flood-opacity="0" result="BackgroundImageFix"/>
<feColorMatrix in="SourceAlpha" type="matrix" values="0 0 0 0 0 0 0 0 0 0 0 0 0 0 0 0 0 0 127 0" result="hardAlpha"/>
<feOffset dy="1.04167"/>
<feGaussianBlur stdDeviation="3.125"/>
<feColorMatrix type="matrix" values="0 0 0 0 0 0 0 0 0 0 0 0 0 0 0 0 0 0 0.12 0"/>
<feBlend mode="plus-darker" in2="BackgroundImageFix" result="effect1_dropShadow_366_10343"/>
<feBlend mode="normal" in="SourceGraphic" in2="effect1_dropShadow_366_10343" result="shape"/>
</filter>
<filter id="filter4_d_366_10343" x="51.2421" y="70.3225" width="22.5154" height="22.1454" filterUnits="userSpaceOnUse" color-interpolation-filters="sRGB">
<feFlood flood-opacity="0" result="BackgroundImageFix"/>
<feColorMatrix in="SourceAlpha" type="matrix" values="0 0 0 0 0 0 0 0 0 0 0 0 0 0 0 0 0 0 127 0" result="hardAlpha"/>
<feOffset dy="1.04167"/>
<feGaussianBlur stdDeviation="3.125"/>
<feColorMatrix type="matrix" values="0 0 0 0 0 0 0 0 0 0 0 0 0 0 0 0 0 0 0.12 0"/>
<feBlend mode="plus-darker" in2="BackgroundImageFix" result="effect1_dropShadow_366_10343"/>
<feBlend mode="normal" in="SourceGraphic" in2="effect1_dropShadow_366_10343" result="shape"/>
</filter>
<filter id="filter5_d_366_10343" x="24.9484" y="31.7312" width="51.6252" height="38.0208" filterUnits="userSpaceOnUse" color-interpolation-filters="sRGB">
<feFlood flood-opacity="0" result="BackgroundImageFix"/>
<feColorMatrix in="SourceAlpha" type="matrix" values="0 0 0 0 0 0 0 0 0 0 0 0 0 0 0 0 0 0 127 0" result="hardAlpha"/>
<feOffset dy="1.04167"/>
<feGaussianBlur stdDeviation="3.125"/>
<feColorMatrix type="matrix" values="0 0 0 0 0 0 0 0 0 0 0 0 0 0 0 0 0 0 0.12 0"/>
<feBlend mode="plus-darker" in2="BackgroundImageFix" result="effect1_dropShadow_366_10343"/>
<feBlend mode="normal" in="SourceGraphic" in2="effect1_dropShadow_366_10343" result="shape"/>
</filter>
<linearGradient id="paint0_linear_366_10343" x1="-22.9167" y1="-22.9167" x2="-22.9167" y2="122.917" gradientUnits="userSpaceOnUse">
<stop stop-color="#EB6E3F"/>
<stop offset="1" stop-color="#FA610F"/>
</linearGradient>
<linearGradient id="paint1_linear_366_10343" x1="50" y1="-6.39143" x2="50" y2="105.635" gradientUnits="userSpaceOnUse">
<stop stop-color="white"/>
<stop offset="1" stop-color="white" stop-opacity="0"/>
</linearGradient>
<radialGradient id="paint2_radial_366_10343" cx="0" cy="0" r="1" gradientUnits="userSpaceOnUse" gradientTransform="translate(50 25.7865) rotate(90) scale(73.89 56.0618)">
<stop stop-color="white"/>
<stop offset="1" stop-color="white" stop-opacity="0"/>
</radialGradient>
<linearGradient id="paint3_linear_366_10343" x1="-22.9167" y1="-22.9167" x2="-22.9167" y2="122.917" gradientUnits="userSpaceOnUse">
<stop stop-color="#EB6E3F"/>
<stop offset="1" stop-color="#FA610F"/>
</linearGradient>
<linearGradient id="paint4_linear_366_10343" x1="50" y1="-6.39143" x2="50" y2="105.635" gradientUnits="userSpaceOnUse">
<stop stop-color="white"/>
<stop offset="1" stop-color="white" stop-opacity="0"/>
</linearGradient>
<radialGradient id="paint5_radial_366_10343" cx="0" cy="0" r="1" gradientUnits="userSpaceOnUse" gradientTransform="translate(50 25.7865) rotate(90) scale(73.89 56.0618)">
<stop stop-color="white"/>
<stop offset="1" stop-color="white" stop-opacity="0"/>
</radialGradient>
<linearGradient id="paint6_linear_366_10343" x1="-22.9167" y1="-22.9167" x2="-22.9167" y2="122.917" gradientUnits="userSpaceOnUse">
<stop offset="0.135095" stop-color="white"/>
<stop offset="0.877908" stop-color="white" stop-opacity="0.01"/>
</linearGradient>
<linearGradient id="paint7_linear_366_10343" x1="50" y1="0" x2="50" y2="100" gradientUnits="userSpaceOnUse">
<stop stop-color="white"/>
<stop offset="1" stop-color="#999999"/>
</linearGradient>
<linearGradient id="paint8_linear_366_10343" x1="50" y1="71.3542" x2="50" y2="90.1042" gradientUnits="userSpaceOnUse">
<stop stop-opacity="0"/>
<stop offset="1" stop-opacity="0.16"/>
</linearGradient>
<linearGradient id="paint9_linear_366_10343" x1="50" y1="71.3542" x2="50" y2="90.1042" gradientUnits="userSpaceOnUse">
<stop stop-color="white"/>
<stop offset="1" stop-color="white" stop-opacity="0"/>
</linearGradient>
<radialGradient id="paint10_radial_366_10343" cx="0" cy="0" r="1" gradientUnits="userSpaceOnUse" gradientTransform="translate(50 74.6261) rotate(90) scale(15.4781 50)">
<stop stop-color="white"/>
<stop offset="1" stop-color="white" stop-opacity="0"/>
</radialGradient>
<linearGradient id="paint11_linear_366_10343" x1="37.4998" y1="75.7912" x2="37.4998" y2="84.9159" gradientUnits="userSpaceOnUse">
<stop stop-color="#DFDFDF"/>
<stop offset="1" stop-color="#A9A9A9"/>
</linearGradient>
<linearGradient id="paint12_linear_366_10343" x1="49.9998" y1="75.7912" x2="49.9998" y2="84.9159" gradientUnits="userSpaceOnUse">
<stop stop-color="#DFDFDF"/>
<stop offset="1" stop-color="#A9A9A9"/>
</linearGradient>
<linearGradient id="paint13_linear_366_10343" x1="62.4998" y1="75.7912" x2="62.4998" y2="84.9159" gradientUnits="userSpaceOnUse">
<stop stop-color="#DFDFDF"/>
<stop offset="1" stop-color="#A9A9A9"/>
</linearGradient>
<linearGradient id="paint14_linear_366_10343" x1="50" y1="33.3333" x2="50" y2="66.3333" gradientUnits="userSpaceOnUse">
<stop stop-color="#DFDFDF"/>
<stop offset="1" stop-color="#A9A9A9"/>
</linearGradient>
</defs>
</svg>
