<svg width="100" height="100" viewBox="0 0 100 100" fill="none" xmlns="http://www.w3.org/2000/svg">
<mask id="mask0_366_9796" style="mask-type:alpha" maskUnits="userSpaceOnUse" x="0" y="0" width="100" height="100">
<circle cx="50" cy="50" r="50" fill="white"/>
</mask>
<g mask="url(#mask0_366_9796)">
<mask id="mask1_366_9796" style="mask-type:alpha" maskUnits="userSpaceOnUse" x="0" y="0" width="100" height="100">
<circle cx="50" cy="50" r="50" fill="white"/>
</mask>
<g mask="url(#mask1_366_9796)">
<rect x="-22.9167" y="-22.9167" width="145.833" height="145.833" fill="url(#paint0_linear_366_9796)"/>
<rect x="-22.9167" y="-22.9167" width="145.833" height="145.833" fill="url(#paint1_linear_366_9796)" fill-opacity="0.6" style="mix-blend-mode:overlay"/>
<rect x="-22.9167" y="-22.9167" width="145.833" height="145.833" fill="url(#paint2_radial_366_9796)" fill-opacity="0.6" style="mix-blend-mode:overlay"/>
<rect x="-22.9167" y="-22.9167" width="145.833" height="145.833" fill="black" fill-opacity="0.16" style="mix-blend-mode:overlay"/>
<rect x="-22.9167" y="-22.9167" width="145.833" height="145.833" fill="black" fill-opacity="0.12" style="mix-blend-mode:darken"/>
</g>
<g filter="url(#filter0_d_366_9796)">
<mask id="mask2_366_9796" style="mask-type:alpha" maskUnits="userSpaceOnUse" x="0" y="0" width="100" height="100">
<path fill-rule="evenodd" clip-rule="evenodd" d="M95.8333 50C95.8333 75.313 75.313 95.8333 50 95.8333C24.6869 95.8333 4.16667 75.313 4.16667 50C4.16667 24.6869 24.6869 4.16667 50 4.16667C75.313 4.16667 95.8333 24.6869 95.8333 50ZM100 50C100 77.6142 77.6142 100 50 100C22.3858 100 0 77.6142 0 50C0 22.3858 22.3858 0 50 0C77.6142 0 100 22.3858 100 50ZM50 88.0208C70.9983 88.0208 88.0208 70.9983 88.0208 50C88.0208 29.0017 70.9983 11.9792 50 11.9792C29.0017 11.9792 11.9792 29.0017 11.9792 50C11.9792 70.9983 29.0017 88.0208 50 88.0208Z" fill="white"/>
</mask>
<g mask="url(#mask2_366_9796)">
<rect x="-22.9167" y="-22.9167" width="145.833" height="145.833" fill="url(#paint3_linear_366_9796)"/>
<rect x="-22.9167" y="-22.9167" width="145.833" height="145.833" fill="url(#paint4_linear_366_9796)" fill-opacity="0.6" style="mix-blend-mode:overlay"/>
<rect x="-22.9167" y="-22.9167" width="145.833" height="145.833" fill="url(#paint5_radial_366_9796)" fill-opacity="0.6" style="mix-blend-mode:overlay"/>
<g style="mix-blend-mode:soft-light">
<path fill-rule="evenodd" clip-rule="evenodd" d="M-22.9167 -22.9167H64.5833L36.6578 122.917H-22.9167V-22.9167Z" fill="url(#paint6_linear_366_9796)" style="mix-blend-mode:lighten"/>
</g>
<g style="mix-blend-mode:soft-light">
<mask id="path-10-inside-1_366_9796" fill="white">
<path fill-rule="evenodd" clip-rule="evenodd" d="M95.8333 50C95.8333 75.313 75.313 95.8333 50 95.8333C24.6869 95.8333 4.16667 75.313 4.16667 50C4.16667 24.6869 24.6869 4.16667 50 4.16667C75.313 4.16667 95.8333 24.6869 95.8333 50ZM100 50C100 77.6142 77.6142 100 50 100C22.3858 100 0 77.6142 0 50C0 22.3858 22.3858 0 50 0C77.6142 0 100 22.3858 100 50ZM50 88.0208C70.9983 88.0208 88.0208 70.9983 88.0208 50C88.0208 29.0017 70.9983 11.9792 50 11.9792C29.0017 11.9792 11.9792 29.0017 11.9792 50C11.9792 70.9983 29.0017 88.0208 50 88.0208Z"/>
</mask>
<path d="M50 96.0938C75.4569 96.0938 96.0938 75.4569 96.0938 50H95.5729C95.5729 75.1692 75.1692 95.5729 50 95.5729V96.0938ZM3.90625 50C3.90625 75.4569 24.5431 96.0938 50 96.0938V95.5729C24.8308 95.5729 4.42708 75.1692 4.42708 50H3.90625ZM50 3.90625C24.5431 3.90625 3.90625 24.5431 3.90625 50H4.42708C4.42708 24.8308 24.8308 4.42708 50 4.42708V3.90625ZM96.0938 50C96.0938 24.5431 75.4569 3.90625 50 3.90625V4.42708C75.1692 4.42708 95.5729 24.8308 95.5729 50H96.0938ZM50 100.26C77.7581 100.26 100.26 77.7581 100.26 50H99.7396C99.7396 77.4704 77.4704 99.7396 50 99.7396V100.26ZM-0.260417 50C-0.260417 77.7581 22.2419 100.26 50 100.26V99.7396C22.5296 99.7396 0.260417 77.4704 0.260417 50H-0.260417ZM50 -0.260417C22.2419 -0.260417 -0.260417 22.2419 -0.260417 50H0.260417C0.260417 22.5296 22.5296 0.260417 50 0.260417V-0.260417ZM100.26 50C100.26 22.2419 77.7581 -0.260417 50 -0.260417V0.260417C77.4704 0.260417 99.7396 22.5296 99.7396 50H100.26ZM87.7604 50C87.7604 70.8545 70.8545 87.7604 50 87.7604V88.2812C71.1421 88.2812 88.2812 71.1421 88.2812 50H87.7604ZM50 12.2396C70.8545 12.2396 87.7604 29.1455 87.7604 50H88.2812C88.2812 28.8578 71.1421 11.7188 50 11.7188V12.2396ZM12.2396 50C12.2396 29.1455 29.1455 12.2396 50 12.2396V11.7188C28.8578 11.7188 11.7188 28.8578 11.7188 50H12.2396ZM50 87.7604C29.1455 87.7604 12.2396 70.8545 12.2396 50H11.7188C11.7188 71.1421 28.8578 88.2812 50 88.2812V87.7604Z" fill="url(#paint7_linear_366_9796)" mask="url(#path-10-inside-1_366_9796)"/>
</g>
</g>
</g>
</g>
<g filter="url(#filter1_d_366_9796)">
<mask id="path-12-outside-2_366_9796" maskUnits="userSpaceOnUse" x="33.3333" y="36.3333" width="32" height="27" fill="black">
<rect fill="white" x="33.3333" y="36.3333" width="32" height="27"/>
<path d="M42.1721 62.2C41.5055 62.2 41.1721 61.8666 41.1721 61.2L40.8721 42.3666L34.7721 42.3333C34.4166 42.3333 34.1277 42.2333 33.9055 42.0333C33.7055 41.8111 33.6055 41.5222 33.6055 41.1666V38.4333C33.6055 38.0778 33.7055 37.8 33.9055 37.6C34.1277 37.3778 34.4166 37.2666 34.7721 37.2666L52.8721 37.2333C53.2277 37.2333 53.5055 37.3444 53.7055 37.5666C53.9277 37.7666 54.0388 38.0444 54.0388 38.4V41.1333C54.0388 41.4889 53.9277 41.7778 53.7055 42C53.5055 42.2 53.2277 42.3 52.8721 42.3L46.7721 42.3666L46.4388 61.2C46.4388 61.8666 46.1055 62.2 45.4388 62.2H42.1721ZM60.2581 62.2C59.5914 62.2 59.2581 61.8666 59.2581 61.2L58.9581 42.7L56.1914 42.8C55.8359 42.8 55.547 42.7 55.3247 42.5C55.1247 42.2778 55.0247 41.9889 55.0247 41.6333V38.3C55.0247 37.9444 55.1247 37.6666 55.3247 37.4666C55.547 37.2444 55.8359 37.1333 56.1914 37.1333L63.7248 37.2333C64.0803 37.2333 64.3581 37.3444 64.5581 37.5666C64.7803 37.7666 64.8914 38.0444 64.8914 38.4L64.5247 61.2C64.5247 61.8666 64.1914 62.2 63.5247 62.2H60.2581Z"/>
</mask>
<path d="M42.1721 62.2C41.5055 62.2 41.1721 61.8666 41.1721 61.2L40.8721 42.3666L34.7721 42.3333C34.4166 42.3333 34.1277 42.2333 33.9055 42.0333C33.7055 41.8111 33.6055 41.5222 33.6055 41.1666V38.4333C33.6055 38.0778 33.7055 37.8 33.9055 37.6C34.1277 37.3778 34.4166 37.2666 34.7721 37.2666L52.8721 37.2333C53.2277 37.2333 53.5055 37.3444 53.7055 37.5666C53.9277 37.7666 54.0388 38.0444 54.0388 38.4V41.1333C54.0388 41.4889 53.9277 41.7778 53.7055 42C53.5055 42.2 53.2277 42.3 52.8721 42.3L46.7721 42.3666L46.4388 61.2C46.4388 61.8666 46.1055 62.2 45.4388 62.2H42.1721ZM60.2581 62.2C59.5914 62.2 59.2581 61.8666 59.2581 61.2L58.9581 42.7L56.1914 42.8C55.8359 42.8 55.547 42.7 55.3247 42.5C55.1247 42.2778 55.0247 41.9889 55.0247 41.6333V38.3C55.0247 37.9444 55.1247 37.6666 55.3247 37.4666C55.547 37.2444 55.8359 37.1333 56.1914 37.1333L63.7248 37.2333C64.0803 37.2333 64.3581 37.3444 64.5581 37.5666C64.7803 37.7666 64.8914 38.0444 64.8914 38.4L64.5247 61.2C64.5247 61.8666 64.1914 62.2 63.5247 62.2H60.2581Z" fill="white"/>
<path d="M41.1721 61.2H41.4326L41.4325 61.1958L41.1721 61.2ZM40.8721 42.3666L41.1325 42.3625L41.1285 42.1076L40.8736 42.1062L40.8721 42.3666ZM34.7721 42.3333L34.7736 42.0729H34.7721V42.3333ZM33.9055 42.0333L33.7119 42.2075L33.7211 42.2177L33.7313 42.2269L33.9055 42.0333ZM33.9055 37.6L33.7213 37.4158L33.9055 37.6ZM34.7721 37.2666V37.5271L34.7726 37.5271L34.7721 37.2666ZM52.8721 37.2333V36.9729L52.8717 36.9729L52.8721 37.2333ZM53.7055 37.5666L53.5119 37.7409L53.5211 37.751L53.5313 37.7602L53.7055 37.5666ZM52.8721 42.3V42.0395L52.8693 42.0396L52.8721 42.3ZM46.7721 42.3666L46.7693 42.1062L46.5163 42.109L46.5118 42.362L46.7721 42.3666ZM46.4388 61.2L46.1784 61.1954V61.2H46.4388ZM42.1721 61.9396C41.879 61.9396 41.7069 61.8664 41.6063 61.7658C41.5057 61.6652 41.4326 61.4932 41.4326 61.2H40.9117C40.9117 61.5735 41.0053 61.9014 41.238 62.1341C41.4707 62.3669 41.7987 62.4604 42.1721 62.4604V61.9396ZM41.4325 61.1958L41.1325 42.3625L40.6118 42.3708L40.9118 61.2041L41.4325 61.1958ZM40.8736 42.1062L34.7736 42.0729L34.7707 42.5937L40.8707 42.6271L40.8736 42.1062ZM34.7721 42.0729C34.4681 42.0729 34.2453 41.9888 34.0797 41.8397L33.7313 42.2269C34.0101 42.4778 34.3651 42.5937 34.7721 42.5937V42.0729ZM34.099 41.8591C33.95 41.6935 33.8659 41.4707 33.8659 41.1666H33.3451C33.3451 41.5737 33.461 41.9287 33.7119 42.2075L34.099 41.8591ZM33.8659 41.1666V38.4333H33.3451V41.1666H33.8659ZM33.8659 38.4333C33.8659 38.1281 33.9503 37.9235 34.0896 37.7841L33.7213 37.4158C33.4607 37.6765 33.3451 38.0274 33.3451 38.4333H33.8659ZM34.0896 37.7841C34.2564 37.6173 34.4758 37.5271 34.7721 37.5271V37.0062C34.3574 37.0062 33.999 37.1382 33.7213 37.4158L34.0896 37.7841ZM34.7726 37.5271L52.8726 37.4937L52.8717 36.9729L34.7717 37.0062L34.7726 37.5271ZM52.8721 37.4937C53.1691 37.4937 53.3707 37.5839 53.5119 37.7409L53.899 37.3924C53.6403 37.1049 53.2863 36.9729 52.8721 36.9729V37.4937ZM53.5313 37.7602C53.6882 37.9015 53.7784 38.103 53.7784 38.4H54.2992C54.2992 37.9859 54.1672 37.6318 53.8797 37.3731L53.5313 37.7602ZM53.7784 38.4V41.1333H54.2992V38.4H53.7784ZM53.7784 41.1333C53.7784 41.4297 53.6881 41.649 53.5213 41.8158L53.8896 42.1841C54.1673 41.9065 54.2992 41.548 54.2992 41.1333H53.7784ZM53.5213 41.8158C53.382 41.9552 53.1774 42.0396 52.8721 42.0396V42.5604C53.278 42.5604 53.629 42.4448 53.8896 42.1841L53.5213 41.8158ZM52.8693 42.0396L46.7693 42.1062L46.775 42.627L52.875 42.5604L52.8693 42.0396ZM46.5118 42.362L46.1784 61.1954L46.6992 61.2046L47.0325 42.3713L46.5118 42.362ZM46.1784 61.2C46.1784 61.4932 46.1053 61.6652 46.0047 61.7658C45.9041 61.8664 45.732 61.9396 45.4388 61.9396V62.4604C45.8123 62.4604 46.1402 62.3669 46.373 62.1341C46.6057 61.9014 46.6992 61.5735 46.6992 61.2H46.1784ZM45.4388 61.9396H42.1721V62.4604H45.4388V61.9396ZM59.2581 61.2H59.5185L59.5185 61.1958L59.2581 61.2ZM58.9581 42.7L59.2185 42.6958L59.2142 42.4301L58.9487 42.4397L58.9581 42.7ZM56.1914 42.8V43.0606L56.2008 43.0602L56.1914 42.8ZM55.3247 42.5L55.1312 42.6742L55.1404 42.6844L55.1505 42.6935L55.3247 42.5ZM55.3247 37.4666L55.1406 37.2825L55.3247 37.4666ZM56.1914 37.1333L56.1949 36.8729H56.1914V37.1333ZM63.7248 37.2333L63.7213 37.4937H63.7248V37.2333ZM64.5581 37.5666L64.3645 37.7409L64.3737 37.751L64.3839 37.7602L64.5581 37.5666ZM64.8914 38.4L65.1518 38.4042V38.4H64.8914ZM64.5247 61.2L64.2643 61.1958V61.2H64.5247ZM60.2581 61.9396C59.9649 61.9396 59.7928 61.8664 59.6922 61.7658C59.5916 61.6652 59.5185 61.4932 59.5185 61.2H58.9977C58.9977 61.5735 59.0912 61.9014 59.3239 62.1341C59.5567 62.3669 59.8846 62.4604 60.2581 62.4604V61.9396ZM59.5185 61.1958L59.2185 42.6958L58.6977 42.7042L58.9977 61.2042L59.5185 61.1958ZM58.9487 42.4397L56.182 42.5397L56.2008 43.0602L58.9675 42.9602L58.9487 42.4397ZM56.1914 42.5396C55.8873 42.5396 55.6646 42.4555 55.499 42.3064L55.1505 42.6935C55.4294 42.9445 55.7844 43.0604 56.1914 43.0604V42.5396ZM55.5183 42.3258C55.3692 42.1601 55.2852 41.9374 55.2852 41.6333H54.7643C54.7643 42.0403 54.8803 42.3954 55.1312 42.6742L55.5183 42.3258ZM55.2852 41.6333V38.3H54.7643V41.6333H55.2852ZM55.2852 38.3C55.2852 37.9948 55.3695 37.7901 55.5089 37.6508L55.1406 37.2825C54.88 37.5432 54.7643 37.8941 54.7643 38.3H55.2852ZM55.5089 37.6508C55.6757 37.484 55.895 37.3937 56.1914 37.3937V36.8729C55.7767 36.8729 55.4182 37.0049 55.1406 37.2825L55.5089 37.6508ZM56.188 37.3937L63.7213 37.4937L63.7282 36.9729L56.1949 36.8729L56.188 37.3937ZM63.7248 37.4937C64.0217 37.4937 64.2233 37.5839 64.3645 37.7409L64.7516 37.3924C64.4929 37.1049 64.1389 36.9729 63.7248 36.9729V37.4937ZM64.3839 37.7602C64.5408 37.9015 64.631 38.103 64.631 38.4H65.1518C65.1518 37.9859 65.0198 37.6318 64.7323 37.3731L64.3839 37.7602ZM64.631 38.3958L64.2644 61.1958L64.7851 61.2042L65.1518 38.4042L64.631 38.3958ZM64.2643 61.2C64.2643 61.4932 64.1912 61.6652 64.0906 61.7658C63.99 61.8664 63.8179 61.9396 63.5247 61.9396V62.4604C63.8982 62.4604 64.2262 62.3669 64.4589 62.1341C64.6916 61.9014 64.7852 61.5735 64.7852 61.2H64.2643ZM63.5247 61.9396H60.2581V62.4604H63.5247V61.9396Z" fill="url(#paint8_linear_366_9796)" style="mix-blend-mode:color-burn" mask="url(#path-12-outside-2_366_9796)"/>
</g>
<defs>
<filter id="filter0_d_366_9796" x="-4.16667" y="-3.125" width="108.333" height="108.333" filterUnits="userSpaceOnUse" color-interpolation-filters="sRGB">
<feFlood flood-opacity="0" result="BackgroundImageFix"/>
<feColorMatrix in="SourceAlpha" type="matrix" values="0 0 0 0 0 0 0 0 0 0 0 0 0 0 0 0 0 0 127 0" result="hardAlpha"/>
<feOffset dy="1.04167"/>
<feGaussianBlur stdDeviation="2.08333"/>
<feColorMatrix type="matrix" values="0 0 0 0 0 0 0 0 0 0 0 0 0 0 0 0 0 0 0.16 0"/>
<feBlend mode="color-burn" in2="BackgroundImageFix" result="effect1_dropShadow_366_9796"/>
<feBlend mode="normal" in="SourceGraphic" in2="effect1_dropShadow_366_9796" result="shape"/>
</filter>
<filter id="filter1_d_366_9796" x="27.0951" y="31.6646" width="44.3068" height="38.0875" filterUnits="userSpaceOnUse" color-interpolation-filters="sRGB">
<feFlood flood-opacity="0" result="BackgroundImageFix"/>
<feColorMatrix in="SourceAlpha" type="matrix" values="0 0 0 0 0 0 0 0 0 0 0 0 0 0 0 0 0 0 127 0" result="hardAlpha"/>
<feOffset dy="1.04167"/>
<feGaussianBlur stdDeviation="3.125"/>
<feColorMatrix type="matrix" values="0 0 0 0 0 0 0 0 0 0 0 0 0 0 0 0 0 0 0.12 0"/>
<feBlend mode="plus-darker" in2="BackgroundImageFix" result="effect1_dropShadow_366_9796"/>
<feBlend mode="normal" in="SourceGraphic" in2="effect1_dropShadow_366_9796" result="shape"/>
</filter>
<linearGradient id="paint0_linear_366_9796" x1="122.917" y1="122.917" x2="-51.5238" y2="31.9277" gradientUnits="userSpaceOnUse">
<stop stop-color="#AD49E8"/>
<stop offset="1" stop-color="#831DBF"/>
</linearGradient>
<linearGradient id="paint1_linear_366_9796" x1="50" y1="-6.39146" x2="50" y2="105.635" gradientUnits="userSpaceOnUse">
<stop stop-color="white"/>
<stop offset="1" stop-color="white" stop-opacity="0"/>
</linearGradient>
<radialGradient id="paint2_radial_366_9796" cx="0" cy="0" r="1" gradientUnits="userSpaceOnUse" gradientTransform="translate(50 25.7865) rotate(90) scale(73.89 56.0618)">
<stop stop-color="white"/>
<stop offset="1" stop-color="white" stop-opacity="0"/>
</radialGradient>
<linearGradient id="paint3_linear_366_9796" x1="122.917" y1="122.917" x2="-51.5238" y2="31.9277" gradientUnits="userSpaceOnUse">
<stop stop-color="#AD49E8"/>
<stop offset="1" stop-color="#831DBF"/>
</linearGradient>
<linearGradient id="paint4_linear_366_9796" x1="50" y1="-6.39146" x2="50" y2="105.635" gradientUnits="userSpaceOnUse">
<stop stop-color="white"/>
<stop offset="1" stop-color="white" stop-opacity="0"/>
</linearGradient>
<radialGradient id="paint5_radial_366_9796" cx="0" cy="0" r="1" gradientUnits="userSpaceOnUse" gradientTransform="translate(50 25.7865) rotate(90) scale(73.89 56.0618)">
<stop stop-color="white"/>
<stop offset="1" stop-color="white" stop-opacity="0"/>
</radialGradient>
<linearGradient id="paint6_linear_366_9796" x1="-22.9167" y1="-22.9167" x2="-22.9167" y2="122.917" gradientUnits="userSpaceOnUse">
<stop offset="0.135095" stop-color="white"/>
<stop offset="0.877908" stop-color="white" stop-opacity="0.01"/>
</linearGradient>
<linearGradient id="paint7_linear_366_9796" x1="50" y1="0" x2="50" y2="100" gradientUnits="userSpaceOnUse">
<stop stop-color="white"/>
<stop offset="1" stop-color="#999999"/>
</linearGradient>
<linearGradient id="paint8_linear_366_9796" x1="50" y1="33.3333" x2="50" y2="66.3333" gradientUnits="userSpaceOnUse">
<stop stop-color="#DFDFDF"/>
<stop offset="1" stop-color="#A9A9A9"/>
</linearGradient>
</defs>
</svg>
