<svg width="100" height="100" viewBox="0 0 100 100" fill="none" xmlns="http://www.w3.org/2000/svg">
<mask id="mask0_366_9805" style="mask-type:alpha" maskUnits="userSpaceOnUse" x="0" y="0" width="100" height="100">
<circle cx="50" cy="50" r="50" fill="white"/>
</mask>
<g mask="url(#mask0_366_9805)">
<mask id="mask1_366_9805" style="mask-type:alpha" maskUnits="userSpaceOnUse" x="0" y="0" width="100" height="100">
<circle cx="50" cy="50" r="50" fill="white"/>
</mask>
<g mask="url(#mask1_366_9805)">
<rect x="-22.9167" y="-22.9167" width="145.833" height="145.833" fill="url(#paint0_linear_366_9805)"/>
<rect x="-22.9167" y="-22.9167" width="145.833" height="145.833" fill="url(#paint1_linear_366_9805)" fill-opacity="0.6" style="mix-blend-mode:overlay"/>
<rect x="-22.9167" y="-22.9167" width="145.833" height="145.833" fill="url(#paint2_radial_366_9805)" fill-opacity="0.6" style="mix-blend-mode:overlay"/>
<rect x="-22.9167" y="-22.9167" width="145.833" height="145.833" fill="black" fill-opacity="0.16" style="mix-blend-mode:overlay"/>
<rect x="-22.9167" y="-22.9167" width="145.833" height="145.833" fill="black" fill-opacity="0.12" style="mix-blend-mode:darken"/>
</g>
<g filter="url(#filter0_d_366_9805)">
<mask id="mask2_366_9805" style="mask-type:alpha" maskUnits="userSpaceOnUse" x="0" y="0" width="100" height="100">
<path fill-rule="evenodd" clip-rule="evenodd" d="M95.8333 50C95.8333 75.313 75.313 95.8333 50 95.8333C24.6869 95.8333 4.16667 75.313 4.16667 50C4.16667 24.6869 24.6869 4.16667 50 4.16667C75.313 4.16667 95.8333 24.6869 95.8333 50ZM100 50C100 77.6142 77.6142 100 50 100C22.3858 100 0 77.6142 0 50C0 22.3858 22.3858 0 50 0C77.6142 0 100 22.3858 100 50ZM50 88.0208C70.9983 88.0208 88.0208 70.9983 88.0208 50C88.0208 29.0017 70.9983 11.9792 50 11.9792C29.0017 11.9792 11.9792 29.0017 11.9792 50C11.9792 70.9983 29.0017 88.0208 50 88.0208Z" fill="white"/>
</mask>
<g mask="url(#mask2_366_9805)">
<rect x="-22.9167" y="-22.9167" width="145.833" height="145.833" fill="url(#paint3_linear_366_9805)"/>
<rect x="-22.9167" y="-22.9167" width="145.833" height="145.833" fill="url(#paint4_linear_366_9805)" fill-opacity="0.6" style="mix-blend-mode:overlay"/>
<rect x="-22.9167" y="-22.9167" width="145.833" height="145.833" fill="url(#paint5_radial_366_9805)" fill-opacity="0.6" style="mix-blend-mode:overlay"/>
<g style="mix-blend-mode:soft-light">
<path fill-rule="evenodd" clip-rule="evenodd" d="M-22.9167 -22.9167H64.5833L36.6578 122.917H-22.9167V-22.9167Z" fill="url(#paint6_linear_366_9805)" style="mix-blend-mode:lighten"/>
</g>
<g style="mix-blend-mode:soft-light">
<mask id="path-10-inside-1_366_9805" fill="white">
<path fill-rule="evenodd" clip-rule="evenodd" d="M95.8333 50C95.8333 75.313 75.313 95.8333 50 95.8333C24.6869 95.8333 4.16667 75.313 4.16667 50C4.16667 24.6869 24.6869 4.16667 50 4.16667C75.313 4.16667 95.8333 24.6869 95.8333 50ZM100 50C100 77.6142 77.6142 100 50 100C22.3858 100 0 77.6142 0 50C0 22.3858 22.3858 0 50 0C77.6142 0 100 22.3858 100 50ZM50 88.0208C70.9983 88.0208 88.0208 70.9983 88.0208 50C88.0208 29.0017 70.9983 11.9792 50 11.9792C29.0017 11.9792 11.9792 29.0017 11.9792 50C11.9792 70.9983 29.0017 88.0208 50 88.0208Z"/>
</mask>
<path d="M50 96.0938C75.4569 96.0938 96.0938 75.4569 96.0938 50H95.5729C95.5729 75.1692 75.1692 95.5729 50 95.5729V96.0938ZM3.90625 50C3.90625 75.4569 24.5431 96.0938 50 96.0938V95.5729C24.8308 95.5729 4.42708 75.1692 4.42708 50H3.90625ZM50 3.90625C24.5431 3.90625 3.90625 24.5431 3.90625 50H4.42708C4.42708 24.8308 24.8308 4.42708 50 4.42708V3.90625ZM96.0938 50C96.0938 24.5431 75.4569 3.90625 50 3.90625V4.42708C75.1692 4.42708 95.5729 24.8308 95.5729 50H96.0938ZM50 100.26C77.7581 100.26 100.26 77.7581 100.26 50H99.7396C99.7396 77.4704 77.4704 99.7396 50 99.7396V100.26ZM-0.260417 50C-0.260417 77.7581 22.2419 100.26 50 100.26V99.7396C22.5296 99.7396 0.260417 77.4704 0.260417 50H-0.260417ZM50 -0.260417C22.2419 -0.260417 -0.260417 22.2419 -0.260417 50H0.260417C0.260417 22.5296 22.5296 0.260417 50 0.260417V-0.260417ZM100.26 50C100.26 22.2419 77.7581 -0.260417 50 -0.260417V0.260417C77.4704 0.260417 99.7396 22.5296 99.7396 50H100.26ZM87.7604 50C87.7604 70.8545 70.8545 87.7604 50 87.7604V88.2812C71.1421 88.2812 88.2812 71.1421 88.2812 50H87.7604ZM50 12.2396C70.8545 12.2396 87.7604 29.1455 87.7604 50H88.2812C88.2812 28.8578 71.1421 11.7188 50 11.7188V12.2396ZM12.2396 50C12.2396 29.1455 29.1455 12.2396 50 12.2396V11.7188C28.8578 11.7188 11.7188 28.8578 11.7188 50H12.2396ZM50 87.7604C29.1455 87.7604 12.2396 70.8545 12.2396 50H11.7188C11.7188 71.1421 28.8578 88.2812 50 88.2812V87.7604Z" fill="url(#paint7_linear_366_9805)" mask="url(#path-10-inside-1_366_9805)"/>
</g>
</g>
</g>
</g>
<g filter="url(#filter1_d_366_9805)">
<mask id="path-12-outside-2_366_9805" maskUnits="userSpaceOnUse" x="30.3333" y="36.3333" width="41" height="27" fill="black">
<rect fill="white" x="30.3333" y="36.3333" width="41" height="27"/>
<path d="M32.2233 62.5333C31.6011 62.5333 31.29 62.2 31.29 61.5333L30.9233 39.3C30.9011 38.5222 31.1122 37.9556 31.5566 37.6C32.0011 37.2222 32.5677 37.0111 33.2566 36.9667C38.7677 36.5 42.9011 36.9667 45.6566 38.3667C48.4122 39.7445 49.79 41.9445 49.79 44.9667C49.79 45.7 49.6788 46.4 49.4566 47.0667C49.2344 47.7111 48.9122 48.3 48.49 48.8333C48.0677 49.3667 47.5677 49.8222 46.99 50.2C46.4122 50.5778 45.7788 50.8445 45.09 51C45.7566 51.1333 46.3566 51.3556 46.89 51.6667C47.4455 51.9778 47.9122 52.3445 48.29 52.7667C48.6677 53.1889 48.9566 53.6445 49.1566 54.1333C49.3566 54.6222 49.4566 55.1111 49.4566 55.6C49.4566 56.6889 49.2011 57.6667 48.69 58.5333C48.1788 59.4 47.4011 60.1333 46.3566 60.7333C45.3344 61.3333 44.0233 61.7889 42.4233 62.1C40.8455 62.4333 38.99 62.5889 36.8566 62.5667L32.2233 62.5333ZM36.79 48.4667H38.8566C39.6344 48.4667 40.3455 48.4 40.99 48.2667C41.6566 48.1111 42.2233 47.9 42.69 47.6333C43.1788 47.3667 43.5566 47.0445 43.8233 46.6667C44.09 46.2667 44.2233 45.8222 44.2233 45.3333C44.2233 44.2 43.5677 43.3667 42.2566 42.8333C40.9677 42.3 39.1566 42.1889 36.8233 42.5L36.79 48.4667ZM36.59 58.6333H39.0233C40.5122 58.6333 41.69 58.3445 42.5566 57.7667C43.4455 57.1667 43.89 56.3889 43.89 55.4333C43.89 54.9445 43.7566 54.5222 43.49 54.1667C43.2455 53.7889 42.9011 53.4778 42.4566 53.2333C42.0122 52.9889 41.4788 52.8111 40.8566 52.7C40.2566 52.5667 39.59 52.5 38.8566 52.5H36.6566L36.59 58.6333ZM53.3308 56.2333C53.7531 55.6556 54.2197 55.5667 54.7308 55.9667C55.3531 56.4333 56.1531 56.8333 57.1308 57.1667C58.1086 57.4778 59.0975 57.6333 60.0975 57.6333C61.4753 57.6333 62.4642 57.4 63.0642 56.9333C63.6642 56.4445 63.942 55.8333 63.8975 55.1C63.8753 54.6778 63.7308 54.3222 63.4642 54.0333C63.2197 53.7222 62.8975 53.4667 62.4975 53.2667C62.0975 53.0667 61.6531 52.9222 61.1642 52.8333C60.6975 52.7445 60.2308 52.7 59.7642 52.7L55.7642 52.7333C55.4531 52.7333 55.2086 52.6445 55.0308 52.4667C54.8531 52.2889 54.7642 52.0445 54.7642 51.7333V49C54.7642 48.6889 54.8531 48.4445 55.0308 48.2667C55.2086 48.0889 55.4531 48 55.7642 48L59.8642 48.0333C60.5308 48.0333 61.142 47.9778 61.6975 47.8667C62.2531 47.7333 62.7308 47.5333 63.1308 47.2667C63.5531 47 63.8753 46.6778 64.0975 46.3C64.3197 45.9 64.4308 45.4445 64.4308 44.9333C64.4086 44.0889 64.0086 43.4445 63.2308 43C62.4531 42.5333 61.4753 42.3 60.2975 42.3C59.2308 42.3 58.242 42.4556 57.3308 42.7667C56.442 43.0556 55.5975 43.4667 54.7975 44C54.5086 44.2 54.2197 44.2778 53.9308 44.2333C53.6642 44.1889 53.442 44.0111 53.2642 43.7L51.7642 40.7667C51.6086 40.4556 51.5753 40.1889 51.6642 39.9667C51.7753 39.7222 51.9753 39.4889 52.2642 39.2667C53.1975 38.5556 54.3531 37.9556 55.7308 37.4667C57.1086 36.9778 58.6308 36.7333 60.2975 36.7333C61.7642 36.7333 63.0975 36.9222 64.2975 37.3C65.5197 37.6778 66.5531 38.2111 67.3975 38.9C68.2642 39.5667 68.9308 40.3889 69.3975 41.3667C69.8642 42.3222 70.0975 43.3889 70.0975 44.5667C70.0975 46.0333 69.6975 47.3222 68.8975 48.4333C68.1197 49.5445 67.0975 50.3111 65.8308 50.7333C66.2975 50.8445 66.742 51.0667 67.1642 51.4C67.6086 51.7111 67.9975 52.1 68.3308 52.5667C68.6642 53.0111 68.9197 53.5111 69.0975 54.0667C69.2975 54.6222 69.3975 55.1889 69.3975 55.7667C69.3975 56.7667 69.1753 57.6889 68.7308 58.5333C68.2864 59.3556 67.6642 60.0667 66.8642 60.6667C66.0642 61.2667 65.0975 61.7333 63.9642 62.0667C62.8531 62.4 61.6086 62.5556 60.2308 62.5333C58.5642 62.4889 57.0531 62.1889 55.6975 61.6333C54.3642 61.1 53.1975 60.3667 52.1975 59.4333C51.9975 59.2556 51.8642 59.0556 51.7975 58.8333C51.7308 58.6111 51.7864 58.3667 51.9642 58.1L53.3308 56.2333Z"/>
</mask>
<path d="M32.2233 62.5333C31.6011 62.5333 31.29 62.2 31.29 61.5333L30.9233 39.3C30.9011 38.5222 31.1122 37.9556 31.5566 37.6C32.0011 37.2222 32.5677 37.0111 33.2566 36.9667C38.7677 36.5 42.9011 36.9667 45.6566 38.3667C48.4122 39.7445 49.79 41.9445 49.79 44.9667C49.79 45.7 49.6788 46.4 49.4566 47.0667C49.2344 47.7111 48.9122 48.3 48.49 48.8333C48.0677 49.3667 47.5677 49.8222 46.99 50.2C46.4122 50.5778 45.7788 50.8445 45.09 51C45.7566 51.1333 46.3566 51.3556 46.89 51.6667C47.4455 51.9778 47.9122 52.3445 48.29 52.7667C48.6677 53.1889 48.9566 53.6445 49.1566 54.1333C49.3566 54.6222 49.4566 55.1111 49.4566 55.6C49.4566 56.6889 49.2011 57.6667 48.69 58.5333C48.1788 59.4 47.4011 60.1333 46.3566 60.7333C45.3344 61.3333 44.0233 61.7889 42.4233 62.1C40.8455 62.4333 38.99 62.5889 36.8566 62.5667L32.2233 62.5333ZM36.79 48.4667H38.8566C39.6344 48.4667 40.3455 48.4 40.99 48.2667C41.6566 48.1111 42.2233 47.9 42.69 47.6333C43.1788 47.3667 43.5566 47.0445 43.8233 46.6667C44.09 46.2667 44.2233 45.8222 44.2233 45.3333C44.2233 44.2 43.5677 43.3667 42.2566 42.8333C40.9677 42.3 39.1566 42.1889 36.8233 42.5L36.79 48.4667ZM36.59 58.6333H39.0233C40.5122 58.6333 41.69 58.3445 42.5566 57.7667C43.4455 57.1667 43.89 56.3889 43.89 55.4333C43.89 54.9445 43.7566 54.5222 43.49 54.1667C43.2455 53.7889 42.9011 53.4778 42.4566 53.2333C42.0122 52.9889 41.4788 52.8111 40.8566 52.7C40.2566 52.5667 39.59 52.5 38.8566 52.5H36.6566L36.59 58.6333ZM53.3308 56.2333C53.7531 55.6556 54.2197 55.5667 54.7308 55.9667C55.3531 56.4333 56.1531 56.8333 57.1308 57.1667C58.1086 57.4778 59.0975 57.6333 60.0975 57.6333C61.4753 57.6333 62.4642 57.4 63.0642 56.9333C63.6642 56.4445 63.942 55.8333 63.8975 55.1C63.8753 54.6778 63.7308 54.3222 63.4642 54.0333C63.2197 53.7222 62.8975 53.4667 62.4975 53.2667C62.0975 53.0667 61.6531 52.9222 61.1642 52.8333C60.6975 52.7445 60.2308 52.7 59.7642 52.7L55.7642 52.7333C55.4531 52.7333 55.2086 52.6445 55.0308 52.4667C54.8531 52.2889 54.7642 52.0445 54.7642 51.7333V49C54.7642 48.6889 54.8531 48.4445 55.0308 48.2667C55.2086 48.0889 55.4531 48 55.7642 48L59.8642 48.0333C60.5308 48.0333 61.142 47.9778 61.6975 47.8667C62.2531 47.7333 62.7308 47.5333 63.1308 47.2667C63.5531 47 63.8753 46.6778 64.0975 46.3C64.3197 45.9 64.4308 45.4445 64.4308 44.9333C64.4086 44.0889 64.0086 43.4445 63.2308 43C62.4531 42.5333 61.4753 42.3 60.2975 42.3C59.2308 42.3 58.242 42.4556 57.3308 42.7667C56.442 43.0556 55.5975 43.4667 54.7975 44C54.5086 44.2 54.2197 44.2778 53.9308 44.2333C53.6642 44.1889 53.442 44.0111 53.2642 43.7L51.7642 40.7667C51.6086 40.4556 51.5753 40.1889 51.6642 39.9667C51.7753 39.7222 51.9753 39.4889 52.2642 39.2667C53.1975 38.5556 54.3531 37.9556 55.7308 37.4667C57.1086 36.9778 58.6308 36.7333 60.2975 36.7333C61.7642 36.7333 63.0975 36.9222 64.2975 37.3C65.5197 37.6778 66.5531 38.2111 67.3975 38.9C68.2642 39.5667 68.9308 40.3889 69.3975 41.3667C69.8642 42.3222 70.0975 43.3889 70.0975 44.5667C70.0975 46.0333 69.6975 47.3222 68.8975 48.4333C68.1197 49.5445 67.0975 50.3111 65.8308 50.7333C66.2975 50.8445 66.742 51.0667 67.1642 51.4C67.6086 51.7111 67.9975 52.1 68.3308 52.5667C68.6642 53.0111 68.9197 53.5111 69.0975 54.0667C69.2975 54.6222 69.3975 55.1889 69.3975 55.7667C69.3975 56.7667 69.1753 57.6889 68.7308 58.5333C68.2864 59.3556 67.6642 60.0667 66.8642 60.6667C66.0642 61.2667 65.0975 61.7333 63.9642 62.0667C62.8531 62.4 61.6086 62.5556 60.2308 62.5333C58.5642 62.4889 57.0531 62.1889 55.6975 61.6333C54.3642 61.1 53.1975 60.3667 52.1975 59.4333C51.9975 59.2556 51.8642 59.0556 51.7975 58.8333C51.7308 58.6111 51.7864 58.3667 51.9642 58.1L53.3308 56.2333Z" fill="white"/>
<path d="M32.2233 62.5333L32.2252 62.2729H32.2233V62.5333ZM31.29 61.5333H31.5504L31.5503 61.529L31.29 61.5333ZM30.9233 39.3L31.1837 39.2957L31.1836 39.2926L30.9233 39.3ZM31.5566 37.6L31.7194 37.8035L31.7253 37.7984L31.5566 37.6ZM33.2566 36.9667L33.2734 37.2266L33.2786 37.2262L33.2566 36.9667ZM45.6566 38.3667L45.5387 38.5989L45.5402 38.5996L45.6566 38.3667ZM49.4566 47.0667L49.7028 47.1516L49.7037 47.149L49.4566 47.0667ZM48.49 48.8333L48.2858 48.6717H48.2858L48.49 48.8333ZM46.99 50.2L47.1325 50.418L46.99 50.2ZM45.09 51L45.0326 50.746L45.0389 51.2554L45.09 51ZM46.89 51.6667L46.7587 51.8917L46.7627 51.8939L46.89 51.6667ZM48.29 52.7667L48.484 52.593L48.29 52.7667ZM46.3566 60.7333L46.2269 60.5075L46.2248 60.5088L46.3566 60.7333ZM42.4233 62.1L42.3736 61.8443L42.3695 61.8452L42.4233 62.1ZM36.8566 62.5667L36.8593 62.3063L36.8585 62.3063L36.8566 62.5667ZM36.79 48.4667L36.5295 48.4652L36.5281 48.7271H36.79V48.4667ZM40.99 48.2667L41.0427 48.5218L41.0491 48.5203L40.99 48.2667ZM42.69 47.6333L42.5652 47.4047L42.5608 47.4072L42.69 47.6333ZM43.8233 46.6667L44.0361 46.8169L44.04 46.8111L43.8233 46.6667ZM42.2566 42.8333L42.1571 43.074L42.1585 43.0746L42.2566 42.8333ZM36.8233 42.5L36.7889 42.2419L36.5641 42.2718L36.5629 42.4986L36.8233 42.5ZM36.59 58.6333L36.3296 58.6305L36.3267 58.8938H36.59V58.6333ZM42.5566 57.7667L42.7011 57.9834L42.7023 57.9825L42.5566 57.7667ZM43.49 54.1667L43.2713 54.3081L43.2762 54.3157L43.2816 54.3229L43.49 54.1667ZM42.4566 53.2333L42.3311 53.4615L42.4566 53.2333ZM40.8566 52.7L40.8001 52.9544L40.8108 52.9564L40.8566 52.7ZM36.6566 52.5V52.2396H36.399L36.3962 52.4972L36.6566 52.5ZM32.2233 62.2729C31.9571 62.2729 31.804 62.2025 31.7137 62.1057C31.6201 62.0055 31.5504 61.8308 31.5504 61.5333H31.0295C31.0295 61.9025 31.1153 62.2279 31.3329 62.461C31.5537 62.6975 31.8673 62.7938 32.2233 62.7938V62.2729ZM31.5503 61.529L31.1837 39.2957L30.6629 39.3043L31.0296 61.5376L31.5503 61.529ZM31.1836 39.2926C31.1628 38.5643 31.3602 38.0906 31.7193 37.8034L31.3939 37.3967C30.8641 37.8205 30.6393 38.4802 30.663 39.3074L31.1836 39.2926ZM31.7253 37.7984C32.1196 37.4633 32.6298 37.2681 33.2734 37.2266L33.2399 36.7068C32.5056 36.7542 31.8825 36.9812 31.388 37.4016L31.7253 37.7984ZM33.2786 37.2262C38.7744 36.7608 42.8485 37.2321 45.5387 38.5988L45.7746 38.1345C42.9536 36.7013 38.7611 36.2392 33.2346 36.7072L33.2786 37.2262ZM45.5402 38.5996C46.8832 39.2711 47.8768 40.1358 48.5359 41.1882C49.1948 42.2404 49.5295 43.4963 49.5295 44.9667H50.0504C50.0504 43.4149 49.6962 42.0596 48.9773 40.9118C48.2587 39.7642 47.1856 38.84 45.7731 38.1338L45.5402 38.5996ZM49.5295 44.9667C49.5295 45.6732 49.4226 46.3454 49.2096 46.9843L49.7037 47.149C49.9351 46.4547 50.0504 45.7268 50.0504 44.9667H49.5295ZM49.2104 46.9818C48.9978 47.5985 48.6897 48.1614 48.2858 48.6717L48.6941 48.995C49.1346 48.4386 49.471 47.8237 49.7028 47.1516L49.2104 46.9818ZM48.2858 48.6717C47.8812 49.1827 47.4021 49.6194 46.8474 49.982L47.1325 50.418C47.7333 50.0251 48.2543 49.5506 48.6941 48.995L48.2858 48.6717ZM46.8474 49.982C46.2963 50.3424 45.6919 50.5971 45.0326 50.746L45.1473 51.254C45.8658 51.0918 46.5281 50.8131 47.1325 50.418L46.8474 49.982ZM45.0389 51.2554C45.6802 51.3836 46.2526 51.5964 46.7587 51.8916L47.0212 51.4417C46.4606 51.1147 45.8331 50.8831 45.141 50.7447L45.0389 51.2554ZM46.7627 51.8939C47.2963 52.1927 47.7395 52.542 48.0959 52.9403L48.484 52.593C48.0849 52.1469 47.5948 51.7629 47.0172 51.4395L46.7627 51.8939ZM48.0959 52.9403C48.4553 53.342 48.7276 53.7725 48.9156 54.2319L49.3977 54.0347C49.1856 53.5164 48.8802 53.0358 48.484 52.593L48.0959 52.9403ZM48.9156 54.2319C49.1038 54.6921 49.1962 55.1476 49.1962 55.6H49.717C49.717 55.0747 49.6094 54.5524 49.3977 54.0347L48.9156 54.2319ZM49.1962 55.6C49.1962 56.6463 48.9512 57.5777 48.4656 58.4011L48.9143 58.6656C49.451 57.7556 49.717 56.7315 49.717 55.6H49.1962ZM48.4656 58.4011C47.9816 59.2219 47.24 59.9256 46.2269 60.5075L46.4863 60.9592C47.5622 60.3411 48.3761 59.5781 48.9143 58.6656L48.4656 58.4011ZM46.2248 60.5088C45.2355 61.0894 43.9547 61.5369 42.3736 61.8444L42.473 62.3556C44.0919 62.0409 45.4333 61.5773 46.4884 60.9579L46.2248 60.5088ZM42.3695 61.8452C40.8151 62.1736 38.9794 62.3284 36.8593 62.3063L36.8539 62.8271C39.0005 62.8494 40.8759 62.6931 42.4771 62.3548L42.3695 61.8452ZM36.8585 62.3063L32.2252 62.2729L32.2214 62.7938L36.8547 62.8271L36.8585 62.3063ZM36.79 48.7271H38.8566V48.2063H36.79V48.7271ZM38.8566 48.7271C39.649 48.7271 40.3781 48.6592 41.0427 48.5217L40.9372 48.0117C40.3129 48.1408 39.6198 48.2063 38.8566 48.2063V48.7271ZM41.0491 48.5203C41.734 48.3605 42.3256 48.1415 42.8192 47.8594L42.5608 47.4072C42.121 47.6585 41.5793 47.8618 40.9308 48.0131L41.0491 48.5203ZM42.8147 47.862C43.3315 47.5801 43.7422 47.2332 44.036 46.8169L43.6105 46.5165C43.3711 46.8558 43.0262 47.1533 42.5653 47.4047L42.8147 47.862ZM44.04 46.8111C44.3357 46.3676 44.4837 45.8727 44.4837 45.3333H43.9629C43.9629 45.7717 43.8442 46.1658 43.6066 46.5222L44.04 46.8111ZM44.4837 45.3333C44.4837 44.7126 44.3028 44.1632 43.9363 43.6973C43.5727 43.2352 43.0386 42.8703 42.3547 42.5921L42.1585 43.0746C42.7857 43.3297 43.235 43.6482 43.5269 44.0194C43.816 44.3868 43.9629 44.8208 43.9629 45.3333H44.4837ZM42.3562 42.5927C41.0051 42.0336 39.1401 41.9284 36.7889 42.2419L36.8577 42.7581C39.1732 42.4494 40.9304 42.5664 42.1571 43.074L42.3562 42.5927ZM36.5629 42.4986L36.5295 48.4652L37.0504 48.4681L37.0837 42.5015L36.5629 42.4986ZM36.59 58.8938H39.0233V58.3729H36.59V58.8938ZM39.0233 58.8938C40.5425 58.8938 41.7769 58.5995 42.7011 57.9834L42.4122 57.55C41.603 58.0895 40.4819 58.3729 39.0233 58.3729V58.8938ZM42.7023 57.9825C43.6527 57.341 44.1504 56.4871 44.1504 55.4333H43.6295C43.6295 56.2907 43.2384 56.9923 42.4109 57.5508L42.7023 57.9825ZM44.1504 55.4333C44.1504 54.8941 44.0022 54.4156 43.6983 54.0104L43.2816 54.3229C43.5111 54.6289 43.6295 54.9949 43.6295 55.4333H44.1504ZM43.7086 54.0252C43.4379 53.6069 43.0594 53.2677 42.5821 53.0052L42.3311 53.4615C42.7427 53.6879 43.0531 53.9709 43.2713 54.3081L43.7086 54.0252ZM42.5821 53.0052C42.1076 52.7442 41.546 52.5586 40.9024 52.4436L40.8108 52.9564C41.4117 53.0637 41.9168 53.2336 42.3311 53.4615L42.5821 53.0052ZM40.9131 52.4458C40.2914 52.3076 39.6054 52.2396 38.8566 52.2396V52.7604C39.5745 52.7604 40.2218 52.8257 40.8001 52.9542L40.9131 52.4458ZM38.8566 52.2396H36.6566V52.7604H38.8566V52.2396ZM36.3962 52.4972L36.3296 58.6305L36.8504 58.6362L36.917 52.5028L36.3962 52.4972ZM53.3308 56.2333L53.541 56.3872L53.5411 56.387L53.3308 56.2333ZM54.7308 55.9667L54.5703 56.1718L54.5746 56.175L54.7308 55.9667ZM57.1308 57.1667L57.0468 57.4132L57.0519 57.4148L57.1308 57.1667ZM63.0642 56.9333L63.2241 57.139L63.2287 57.1352L63.0642 56.9333ZM63.8975 55.1L63.6374 55.1137L63.6376 55.1158L63.8975 55.1ZM63.4642 54.0333L63.2594 54.1942L63.2658 54.2024L63.2728 54.21L63.4642 54.0333ZM61.1642 52.8333L61.1154 53.0892L61.1176 53.0896L61.1642 52.8333ZM59.7642 52.7V52.4396L59.762 52.4396L59.7642 52.7ZM55.7642 52.7333V52.9938L55.7663 52.9938L55.7642 52.7333ZM55.0308 48.2667L54.8467 48.0825V48.0825L55.0308 48.2667ZM55.7642 48L55.7663 47.7396H55.7642V48ZM59.8642 48.0333L59.8621 48.2938H59.8642V48.0333ZM61.6975 47.8667L61.7486 48.1222L61.7583 48.1199L61.6975 47.8667ZM63.1308 47.2667L62.9917 47.0464L62.9864 47.05L63.1308 47.2667ZM64.0975 46.3L64.322 46.4321L64.3252 46.4265L64.0975 46.3ZM64.4308 44.9333H64.6913L64.6912 44.9265L64.4308 44.9333ZM63.2308 43L63.0968 43.2234L63.1016 43.2261L63.2308 43ZM57.3308 42.7667L57.4113 43.0144L57.415 43.0131L57.3308 42.7667ZM54.7975 44L54.653 43.7833L54.6493 43.7859L54.7975 44ZM53.9308 44.2333L53.888 44.4902L53.8912 44.4907L53.9308 44.2333ZM53.2642 43.7L53.0321 43.8187L53.0381 43.8292L53.2642 43.7ZM51.7642 40.7667L51.5312 40.8831L51.5323 40.8852L51.7642 40.7667ZM51.6642 39.9667L51.4268 39.8588L51.4224 39.87L51.6642 39.9667ZM52.2642 39.2667L52.1063 39.0595L52.1054 39.0603L52.2642 39.2667ZM55.7308 37.4667L55.6438 37.2213L55.7308 37.4667ZM64.2975 37.3L64.2193 37.5484L64.2206 37.5488L64.2975 37.3ZM67.3975 38.9L67.2328 39.1019L67.2387 39.1064L67.3975 38.9ZM69.3975 41.3667L69.1625 41.4789L69.1635 41.481L69.3975 41.3667ZM68.8975 48.4333L68.6862 48.2812L68.6842 48.284L68.8975 48.4333ZM65.8308 50.7333L65.7485 50.4863L64.882 50.7751L65.7705 50.9867L65.8308 50.7333ZM67.1642 51.4L67.0028 51.6044L67.0087 51.6091L67.0148 51.6134L67.1642 51.4ZM68.3308 52.5667L68.1189 52.7181L68.1225 52.7229L68.3308 52.5667ZM69.0975 54.0667L68.8493 54.1461L68.8525 54.1549L69.0975 54.0667ZM68.7308 58.5333L68.9599 58.6572L68.9613 58.6546L68.7308 58.5333ZM66.8642 60.6667L67.0204 60.875L66.8642 60.6667ZM63.9642 62.0667L63.8907 61.8168L63.8893 61.8172L63.9642 62.0667ZM60.2308 62.5333L60.2239 62.7937L60.2266 62.7937L60.2308 62.5333ZM55.6975 61.6333L55.7963 61.3924L55.7942 61.3916L55.6975 61.6333ZM52.1975 59.4333L52.3752 59.2429L52.3705 59.2387L52.1975 59.4333ZM51.7975 58.8333L52.0469 58.7585L51.7975 58.8333ZM51.9642 58.1L51.7539 57.946L51.7475 57.9556L51.9642 58.1ZM53.5411 56.387C53.7325 56.125 53.9039 56.0163 54.0462 55.9892C54.1815 55.9634 54.3513 56.0003 54.5703 56.1718L54.8913 55.7616C54.5993 55.533 54.2801 55.4144 53.9488 55.4775C53.6244 55.5393 53.3514 55.7639 53.1206 56.0797L53.5411 56.387ZM54.5746 56.175C55.2246 56.6625 56.0511 57.0737 57.0468 57.4132L57.2149 56.9202C56.2551 56.593 55.4815 56.2042 54.8871 55.7583L54.5746 56.175ZM57.0519 57.4148C58.0545 57.7339 59.07 57.8938 60.0975 57.8938V57.3729C59.125 57.3729 58.1627 57.2217 57.2098 56.9185L57.0519 57.4148ZM60.0975 57.8938C61.4918 57.8938 62.5539 57.6602 63.2241 57.1389L62.9043 56.7278C62.3745 57.1399 61.4588 57.3729 60.0975 57.3729V57.8938ZM63.2287 57.1352C63.8896 56.5967 64.2073 55.9064 64.1574 55.0843L63.6376 55.1158C63.6766 55.7603 63.4388 56.2922 62.8997 56.7315L63.2287 57.1352ZM64.1576 55.0863C64.1324 54.6084 63.9666 54.1937 63.6555 53.8567L63.2728 54.21C63.4951 54.4507 63.6182 54.7472 63.6375 55.1137L64.1576 55.0863ZM63.6689 53.8725C63.3978 53.5274 63.0439 53.2487 62.614 53.0338L62.381 53.4996C62.7512 53.6847 63.0416 53.9171 63.2594 54.1942L63.6689 53.8725ZM62.614 53.0338C62.1896 52.8216 61.7213 52.6699 61.2108 52.5771L61.1176 53.0896C61.5849 53.1745 62.0054 53.3118 62.381 53.4996L62.614 53.0338ZM61.2129 52.5775C60.7305 52.4856 60.2475 52.4396 59.7642 52.4396V52.9604C60.2142 52.9604 60.6646 53.0033 61.1154 53.0892L61.2129 52.5775ZM59.762 52.4396L55.762 52.4729L55.7663 52.9938L59.7663 52.9604L59.762 52.4396ZM55.7642 52.4729C55.5047 52.4729 55.3329 52.4004 55.215 52.2825L54.8467 52.6508C55.0844 52.8885 55.4014 52.9938 55.7642 52.9938V52.4729ZM55.215 52.2825C55.0971 52.1646 55.0246 51.9928 55.0246 51.7333H54.5038C54.5038 52.0961 54.609 52.4132 54.8467 52.6508L55.215 52.2825ZM55.0246 51.7333V49H54.5038V51.7333H55.0246ZM55.0246 49C55.0246 48.7406 55.0971 48.5687 55.215 48.4508L54.8467 48.0825C54.609 48.3202 54.5038 48.6372 54.5038 49H55.0246ZM55.215 48.4508C55.3329 48.3329 55.5047 48.2604 55.7642 48.2604V47.7396C55.4014 47.7396 55.0844 47.8449 54.8467 48.0825L55.215 48.4508ZM55.7621 48.2604L59.8621 48.2938L59.8663 47.7729L55.7663 47.7396L55.7621 48.2604ZM59.8642 48.2938C60.5451 48.2938 61.1736 48.237 61.7486 48.122L61.6464 47.6113C61.1103 47.7185 60.5166 47.7729 59.8642 47.7729V48.2938ZM61.7583 48.1199C62.3382 47.9807 62.8455 47.7699 63.2753 47.4834L62.9864 47.05C62.6162 47.2968 62.1679 47.486 61.6367 47.6135L61.7583 48.1199ZM63.2699 47.4869C63.7223 47.2011 64.0759 46.8503 64.322 46.432L63.873 46.168C63.6746 46.5053 63.3838 46.7989 62.9918 47.0465L63.2699 47.4869ZM64.3252 46.4265C64.5713 45.9834 64.6913 45.4834 64.6913 44.9333H64.1704C64.1704 45.4055 64.0682 45.8166 63.8699 46.1735L64.3252 46.4265ZM64.6912 44.9265C64.6664 43.9846 64.211 43.2602 63.36 42.7739L63.1016 43.2261C63.8062 43.6287 64.1509 44.1932 64.1705 44.9402L64.6912 44.9265ZM63.3648 42.7767C62.5362 42.2795 61.5087 42.0396 60.2975 42.0396V42.5604C61.4419 42.5604 62.3699 42.7872 63.0969 43.2233L63.3648 42.7767ZM60.2975 42.0396C59.2053 42.0396 58.1877 42.1989 57.2467 42.5202L57.415 43.0131C58.2963 42.7122 59.2564 42.5604 60.2975 42.5604V42.0396ZM57.2504 42.519C56.3382 42.8155 55.4723 43.2372 54.6531 43.7833L54.942 44.2167C55.7227 43.6962 56.5457 43.2957 57.4113 43.0143L57.2504 42.519ZM54.6493 43.7859C54.4034 43.9561 54.1806 44.0083 53.9704 43.976L53.8912 44.4907C54.2589 44.5473 54.6138 44.4439 54.9457 44.2141L54.6493 43.7859ZM53.9737 43.9765C53.8075 43.9488 53.6428 43.8377 53.4903 43.5708L53.0381 43.8292C53.2411 44.1846 53.5208 44.429 53.888 44.4902L53.9737 43.9765ZM53.496 43.5814L51.996 40.6481L51.5323 40.8852L53.0323 43.8186L53.496 43.5814ZM51.9971 40.6502C51.8594 40.3749 51.8553 40.19 51.906 40.0634L51.4224 39.87C51.2953 40.1878 51.3578 40.5362 51.5312 40.8831L51.9971 40.6502ZM51.9012 40.0744C51.9896 39.8802 52.1563 39.6782 52.423 39.4731L52.1054 39.0603C51.7943 39.2996 51.561 39.5643 51.4271 39.8589L51.9012 40.0744ZM52.422 39.4738C53.3294 38.7825 54.4596 38.1941 55.8179 37.7121L55.6438 37.2213C54.2465 37.717 53.0657 38.3286 52.1063 39.0595L52.422 39.4738ZM55.8179 37.7121C57.1641 37.2344 58.6564 36.9938 60.2975 36.9938V36.4729C58.6053 36.4729 57.0531 36.7212 55.6438 37.2213L55.8179 37.7121ZM60.2975 36.9938C61.7419 36.9938 63.0484 37.1798 64.2193 37.5484L64.3757 37.0516C63.1466 36.6647 61.7864 36.4729 60.2975 36.4729V36.9938ZM64.2206 37.5488C65.4163 37.9184 66.4185 38.4374 67.2329 39.1018L67.5621 38.6982C66.6876 37.9848 65.6231 37.4372 64.3744 37.0512L64.2206 37.5488ZM67.2387 39.1064C68.0732 39.7483 68.7136 40.5384 69.1625 41.4788L69.6325 41.2545C69.148 40.2394 68.4551 39.385 67.5563 38.6936L67.2387 39.1064ZM69.1635 41.481C69.611 42.3972 69.8371 43.4242 69.8371 44.5667H70.3579C70.3579 43.3536 70.1174 42.2472 69.6315 41.2524L69.1635 41.481ZM69.8371 44.5667C69.8371 45.9828 69.4519 47.2176 68.6862 48.2812L69.1088 48.5855C69.9431 47.4268 70.3579 46.0838 70.3579 44.5667H69.8371ZM68.6842 48.284C67.9379 49.3501 66.9612 50.082 65.7485 50.4863L65.9132 50.9804C67.2338 50.5402 68.3016 49.7388 69.1109 48.5827L68.6842 48.284ZM65.7705 50.9867C66.1961 51.088 66.6067 51.2917 67.0028 51.6044L67.3255 51.1956C66.8772 50.8417 66.3989 50.6009 65.8912 50.48L65.7705 50.9867ZM67.0148 51.6134C67.4337 51.9066 67.8018 52.2741 68.1189 52.718L68.5428 52.4153C68.1932 51.926 67.7835 51.5157 67.3135 51.1867L67.0148 51.6134ZM68.1225 52.7229C68.4376 53.143 68.6801 53.6168 68.8495 54.146L69.3455 53.9873C69.1594 53.4055 68.8908 52.8792 68.5392 52.4104L68.1225 52.7229ZM68.8525 54.1549C69.0425 54.6828 69.1371 55.2196 69.1371 55.7667H69.6579C69.6579 55.1582 69.5525 54.5617 69.3425 53.9785L68.8525 54.1549ZM69.1371 55.7667C69.1371 56.7265 68.9242 57.6068 68.5004 58.4121L68.9613 58.6546C69.4264 57.771 69.6579 56.8068 69.6579 55.7667H69.1371ZM68.5018 58.4095C68.0764 59.1964 67.48 59.8793 66.7079 60.4583L67.0204 60.875C67.8484 60.254 68.4964 59.5148 68.9599 58.6572L68.5018 58.4095ZM66.7079 60.4583C65.9369 61.0366 64.9995 61.4907 63.8907 61.8168L64.0377 62.3165C65.1955 61.976 66.1915 61.4967 67.0204 60.875L66.7079 60.4583ZM63.8893 61.8172C62.8081 62.1416 61.5909 62.2948 60.235 62.273L60.2266 62.7937C61.6263 62.8163 62.898 62.6584 64.039 62.3161L63.8893 61.8172ZM60.2378 62.273C58.5983 62.2293 57.1189 61.9344 55.7963 61.3924L55.5988 61.8743C56.9872 62.4434 58.53 62.7485 60.2239 62.7937L60.2378 62.273ZM55.7942 61.3916C54.4893 60.8696 53.3505 60.1532 52.3752 59.243L52.0198 59.6237C53.0446 60.5801 54.239 61.3304 55.6008 61.8751L55.7942 61.3916ZM52.3705 59.2387C52.201 59.088 52.0977 58.9278 52.0469 58.7585L51.5481 58.9082C51.6306 59.1834 51.794 59.4231 52.0245 59.628L52.3705 59.2387ZM52.0469 58.7585C52.0102 58.636 52.0288 58.4725 52.1809 58.2445L51.7475 57.9556C51.5439 58.2609 51.4515 58.5862 51.5481 58.9082L52.0469 58.7585ZM52.1743 58.2538L53.541 56.3872L53.1207 56.0795L51.7541 57.9462L52.1743 58.2538Z" fill="url(#paint8_linear_366_9805)" style="mix-blend-mode:color-burn" mask="url(#path-12-outside-2_366_9805)"/>
</g>
<defs>
<filter id="filter0_d_366_9805" x="-4.16667" y="-3.125" width="108.333" height="108.333" filterUnits="userSpaceOnUse" color-interpolation-filters="sRGB">
<feFlood flood-opacity="0" result="BackgroundImageFix"/>
<feColorMatrix in="SourceAlpha" type="matrix" values="0 0 0 0 0 0 0 0 0 0 0 0 0 0 0 0 0 0 127 0" result="hardAlpha"/>
<feOffset dy="1.04167"/>
<feGaussianBlur stdDeviation="2.08333"/>
<feColorMatrix type="matrix" values="0 0 0 0 0 0 0 0 0 0 0 0 0 0 0 0 0 0 0.16 0"/>
<feBlend mode="color-burn" in2="BackgroundImageFix" result="effect1_dropShadow_366_9805"/>
<feBlend mode="normal" in="SourceGraphic" in2="effect1_dropShadow_366_9805" result="shape"/>
</filter>
<filter id="filter1_d_366_9805" x="24.4113" y="31.2646" width="52.1966" height="38.8562" filterUnits="userSpaceOnUse" color-interpolation-filters="sRGB">
<feFlood flood-opacity="0" result="BackgroundImageFix"/>
<feColorMatrix in="SourceAlpha" type="matrix" values="0 0 0 0 0 0 0 0 0 0 0 0 0 0 0 0 0 0 127 0" result="hardAlpha"/>
<feOffset dy="1.04167"/>
<feGaussianBlur stdDeviation="3.125"/>
<feColorMatrix type="matrix" values="0 0 0 0 0 0 0 0 0 0 0 0 0 0 0 0 0 0 0.12 0"/>
<feBlend mode="plus-darker" in2="BackgroundImageFix" result="effect1_dropShadow_366_9805"/>
<feBlend mode="normal" in="SourceGraphic" in2="effect1_dropShadow_366_9805" result="shape"/>
</filter>
<linearGradient id="paint0_linear_366_9805" x1="-22.9167" y1="-22.9166" x2="151.524" y2="68.0723" gradientUnits="userSpaceOnUse">
<stop stop-color="#3D75EE"/>
<stop offset="1" stop-color="#5785E8"/>
</linearGradient>
<linearGradient id="paint1_linear_366_9805" x1="50" y1="-6.39143" x2="50" y2="105.635" gradientUnits="userSpaceOnUse">
<stop stop-color="white"/>
<stop offset="1" stop-color="white" stop-opacity="0"/>
</linearGradient>
<radialGradient id="paint2_radial_366_9805" cx="0" cy="0" r="1" gradientUnits="userSpaceOnUse" gradientTransform="translate(50 25.7865) rotate(90) scale(73.89 56.0618)">
<stop stop-color="white"/>
<stop offset="1" stop-color="white" stop-opacity="0"/>
</radialGradient>
<linearGradient id="paint3_linear_366_9805" x1="-22.9167" y1="-22.9166" x2="151.524" y2="68.0723" gradientUnits="userSpaceOnUse">
<stop stop-color="#3D75EE"/>
<stop offset="1" stop-color="#5785E8"/>
</linearGradient>
<linearGradient id="paint4_linear_366_9805" x1="50" y1="-6.39143" x2="50" y2="105.635" gradientUnits="userSpaceOnUse">
<stop stop-color="white"/>
<stop offset="1" stop-color="white" stop-opacity="0"/>
</linearGradient>
<radialGradient id="paint5_radial_366_9805" cx="0" cy="0" r="1" gradientUnits="userSpaceOnUse" gradientTransform="translate(50 25.7865) rotate(90) scale(73.89 56.0618)">
<stop stop-color="white"/>
<stop offset="1" stop-color="white" stop-opacity="0"/>
</radialGradient>
<linearGradient id="paint6_linear_366_9805" x1="-22.9167" y1="-22.9167" x2="-22.9167" y2="122.917" gradientUnits="userSpaceOnUse">
<stop offset="0.135095" stop-color="white"/>
<stop offset="0.877908" stop-color="white" stop-opacity="0.01"/>
</linearGradient>
<linearGradient id="paint7_linear_366_9805" x1="50" y1="0" x2="50" y2="100" gradientUnits="userSpaceOnUse">
<stop stop-color="white"/>
<stop offset="1" stop-color="#999999"/>
</linearGradient>
<linearGradient id="paint8_linear_366_9805" x1="50" y1="33.3333" x2="50" y2="66.3333" gradientUnits="userSpaceOnUse">
<stop stop-color="#DFDFDF"/>
<stop offset="1" stop-color="#A9A9A9"/>
</linearGradient>
</defs>
</svg>
